<?xml version="1.0" encoding="iso-8859-1"?>
<!-- Generator: Adobe Illustrator 24.1.2, SVG Export Plug-In . SVG Version: 6.00 Build 0)  -->
<svg version="1.1" xmlns="http://www.w3.org/2000/svg" xmlns:xlink="http://www.w3.org/1999/xlink" x="0px" y="0px"
	 viewBox="0 0 1600 1000" style="enable-background:new 0 0 1600 1000;" xml:space="preserve">
<g id="Breaking_Bond">
	<rect id="Upper" x="29.253" y="17.888" style="fill:#1D1D1B;stroke:#575756;stroke-miterlimit:10;" width="480" height="480"/>
	<rect id="Lower" x="509.253" y="497.888" style="fill:#1D1D1B;stroke:#575756;stroke-miterlimit:10;" width="480" height="480"/>
	<g>
		<path style="fill:#1D1D1B;" d="M1095.969,698.366c52.082,0,78.125,27.5,78.125,82.5s-26.043,82.5-78.125,82.5
			c-52.188,0-78.281-27.5-78.281-82.5S1043.781,698.366,1095.969,698.366z M1095.813,712.272c-12.605,0-18.906,22.866-18.906,68.594
			c0,45.73,6.301,68.594,18.906,68.594c12.707,0,19.063-22.863,19.063-68.594C1114.875,735.139,1108.52,712.272,1095.813,712.272z"
			/>
		<path style="fill:#1D1D1B;" d="M1347.063,859.929h-57.031V744.304c0-11.77-3.281-17.656-9.844-17.656
			c-6.668,0-12.449,4.663-17.344,13.984c-4.897,9.324-7.344,20.34-7.344,33.047v86.25h-57.031V702.116
			c19.582,0,38.594-1.301,57.031-3.906v29.531c14.165-19.582,31.457-29.375,51.875-29.375c26.457,0,39.688,13.438,39.688,40.313
			V859.929z"/>
		<path style="fill:#1D1D1B;" d="M1520.344,643.366v216.563h-57.031v-13.594c-9.585,11.46-22.397,17.188-38.438,17.188
			c-35.418,0-53.125-27.188-53.125-81.563c0-55.938,18.75-83.906,56.25-83.906c14.79,0,26.563,6.512,35.313,19.531v-70.938
			C1480.5,646.647,1499.509,645.554,1520.344,643.366z M1446.438,721.022c-9.585,0-14.375,8.804-14.375,26.406l-1.094,33.438
			l0.625,30.469c0,19.48,5.415,29.219,16.25,29.219c10.52,0,15.781-9.582,15.781-28.75l0.781-38.438l-1.25-26.25
			C1461.488,729.722,1455.915,721.022,1446.438,721.022z"/>
	</g>
	<g>
		<path style="fill:#FFFFFF;" d="M120.959,369.643V156.362h94.844c48.853,0,73.281,17.449,73.281,52.344
			c0,24.792-14.741,40.679-44.219,47.656c35.52,7.085,53.281,25.938,53.281,56.563c0,37.813-23.906,56.719-71.719,56.719H120.959z
			 M182.834,249.174h19.063c17.603,0,26.406-13.02,26.406-39.063c0-24.063-9.324-36.094-27.969-36.094h-17.5V249.174z
			 M182.834,351.987h17.656c23.125,0,34.688-13.228,34.688-39.688c0-30.313-11.929-45.469-35.781-45.469h-16.563V351.987z"/>
		<path style="fill:#FFFFFF;" d="M432.678,269.331h-39.063c1.353-6.145,2.551-10.676,3.594-13.594
			c1.458-4.27,2.188-8.125,2.188-11.563c0-6.665-2.397-10-7.188-10c-3.647,0-7.136,4.402-10.469,13.203
			c-3.335,8.804-5,18.101-5,27.891v94.375h-57.031v-157.5l11.094,0.156c13.125,0,28.438-1.406,45.938-4.219v25.938
			c9.27-17.29,20.625-25.938,34.063-25.938c18.333,0,27.5,10.105,27.5,30.313c0,5.313-0.886,11.406-2.656,18.281
			C435.022,259.487,434.031,263.706,432.678,269.331z"/>
	</g>
	<g>
		<path style="fill:#1D1D1B;" d="M652.844,311.986l22.969,6.719c-2.397,36.355-23.855,54.531-64.375,54.531
			c-52.5,0-78.75-26.196-78.75-78.594c0-25.415,6.978-46.25,20.938-62.5c13.958-16.25,31.821-24.375,53.594-24.375
			c45.52,0,68.281,29.375,68.281,88.125h-83.125c0,41.25,10.469,61.875,31.406,61.875c19.583,0,29.375-11.665,29.375-35
			C653.156,319.643,653.051,316.049,652.844,311.986z M592.219,278.236h34.063c0-36.665-5.522-55-16.563-55
			c-10,0-15.625,13.594-16.875,40.781L592.219,278.236z"/>
		<path style="fill:#1D1D1B;" d="M858.781,364.018c-13.96,5.418-27.554,8.125-40.781,8.125c-19.585,0-31.667-6.094-36.25-18.281
			c-9.48,12.71-23.125,19.063-40.938,19.063c-33.23,0-49.844-15.415-49.844-46.25c0-23.438,15.208-39.895,45.625-49.375
			c27.915-8.75,41.875-19.27,41.875-31.563c0-16.145-8.022-24.219-24.063-24.219c-18.542,0-27.813,7.813-27.813,23.438
			c0,4.897,1.458,11.355,4.375,19.375l-28.281-5.469c-0.73-4.895-1.094-9.478-1.094-13.75c0-25,22.813-37.5,68.438-37.5
			c43.332,0,65,11.668,65,35v95.625c0,9.793,3.176,14.688,9.531,14.688c1.978,0,4.895-1.094,8.75-3.281L858.781,364.018z
			 M778,274.955c-3.542,4.063-7.656,7.449-12.344,10.156C753.884,291.986,748,303.549,748,319.799
			c0,20.835,4.063,31.25,12.188,31.25c11.875,0,17.813-10.313,17.813-30.938V274.955z"/>
		<path style="fill:#1D1D1B;" d="M1009.406,212.143l-32.5,40.781l46.875,116.719h-60.156l-27.344-69.375l-10.469,12.813v56.563
			h-57.031V156.361c16.77,0,35.781-1.145,57.031-3.438v133.438l60.781-74.219H1009.406z"/>
		<path style="fill:#1D1D1B;" d="M1038.313,369.643V212.299c17.813,0,36.821-1.406,57.031-4.219v161.563H1038.313z
			 M1067.219,151.049c17.707,0,26.563,6.875,26.563,20.625s-8.855,20.625-26.563,20.625c-17.71,0-26.563-6.875-26.563-20.625
			S1049.509,151.049,1067.219,151.049z"/>
		<path style="fill:#1D1D1B;" d="M1276.438,369.643h-57.031V254.018c0-11.77-3.281-17.656-9.844-17.656
			c-6.668,0-12.449,4.663-17.344,13.984c-4.897,9.324-7.344,20.34-7.344,33.047v86.25h-57.031V211.83
			c19.582,0,38.594-1.301,57.031-3.906v29.531c14.165-19.582,31.457-29.375,51.875-29.375c26.457,0,39.688,13.438,39.688,40.313
			V369.643z"/>
		<path style="fill:#1D1D1B;" d="M1411.125,213.705c26.563,11.355,39.844,27.866,39.844,49.531c0,14.272-6.668,26.46-20,36.563
			c-13.335,10.105-29.429,15.156-48.281,15.156c-7.293,0-17.137-0.938-29.531-2.813c-7.188,4.168-10.781,8.335-10.781,12.5
			c0,5.73,4.426,8.594,13.281,8.594c2.29,0,6.926-0.207,13.906-0.625c17.603-1.145,30.415-1.719,38.438-1.719
			c37.915,0,56.875,14.375,56.875,43.125c0,34.79-31.406,52.188-94.219,52.188c-46.772,0-70.156-9.844-70.156-29.531
			c0-11.354,9.478-19.063,28.438-23.125c-20.21-5.313-30.313-14.113-30.313-26.406c0-15.313,12.031-28.801,36.094-40.469
			c-21.147-8.54-31.719-23.071-31.719-43.594c0-15.625,6.406-28.723,19.219-39.297c12.813-10.571,28.696-15.859,47.656-15.859
			c6.457,0,14.946,0.679,25.469,2.031c-0.522-3.645-0.781-6.509-0.781-8.594c0-20.625,10.781-30.938,32.344-30.938
			c17.188,0,25.781,7.241,25.781,21.719c0,11.043-5.156,16.563-15.469,16.563c-3.438,0-7.5-1.145-12.188-3.438
			c-2.918-1.457-5.105-2.238-6.563-2.344C1413.571,202.611,1411.125,206.205,1411.125,213.705z M1374.406,379.955
			c-26.563,0-39.844,5.156-39.844,15.469c0,10.208,12.863,15.313,38.594,15.313c29.895,0,44.844-5.729,44.844-17.188
			C1418,384.486,1403.469,379.955,1374.406,379.955z M1375.969,223.393c-10.625,0-15.938,13.23-15.938,39.688
			c0,24.272,5.52,36.406,16.563,36.406c10.103,0,15.156-10.781,15.156-32.344C1391.75,237.978,1386.488,223.393,1375.969,223.393z"
			/>
	</g>
	<g>
		<path style="fill:#FFFFFF;" d="M662.603,858.929V645.647h94.843c48.854,0,73.281,17.449,73.281,52.344
			c0,24.793-14.74,40.679-44.219,47.656c35.52,7.085,53.281,25.938,53.281,56.563c0,37.813-23.906,56.719-71.719,56.719H662.603z
			 M724.478,738.46h19.063c17.603,0,26.406-13.02,26.406-39.063c0-24.063-9.324-36.094-27.968-36.094h-17.5V738.46z
			 M724.478,841.272h17.656c23.125,0,34.687-13.228,34.687-39.688c0-30.313-11.928-45.469-35.781-45.469h-16.563V841.272z"/>
	</g>
	<g>
		<path style="fill:#FFFFFF;" d="M47.106,50.698v-5.353h19.708v4.184c-1.627,1.6-3.281,3.896-4.963,6.891s-2.963,6.176-3.845,9.546
			S56.69,72.348,56.704,75h-5.558c0.096-4.156,0.954-8.395,2.574-12.715s3.784-8.183,6.491-11.587H47.106z"/>
		<path style="fill:#FFFFFF;" d="M70.587,68.048l5.578-0.615c0.137,1.135,0.492,1.976,1.066,2.522s1.333,0.82,2.276,0.82
			c1.189,0,2.201-0.547,3.035-1.641s1.367-3.363,1.6-6.809c-1.449,1.682-3.261,2.522-5.435,2.522c-2.365,0-4.406-0.913-6.122-2.738
			s-2.574-4.201-2.574-7.126c0-3.049,0.906-5.506,2.717-7.373s4.119-2.799,6.921-2.799c3.049,0,5.551,1.179,7.506,3.538
			s2.933,6.238,2.933,11.638c0,5.496-1.019,9.461-3.056,11.895s-4.689,3.65-7.957,3.65c-2.352,0-4.252-0.625-5.701-1.876
			S70.998,70.536,70.587,68.048z M83.63,55.456c0-1.859-0.427-3.302-1.282-4.327s-1.842-1.538-2.963-1.538
			c-1.066,0-1.952,0.42-2.656,1.261s-1.056,2.218-1.056,4.132c0,1.941,0.383,3.367,1.148,4.276s1.723,1.364,2.871,1.364
			c1.107,0,2.041-0.438,2.799-1.313S83.63,57.151,83.63,55.456z"/>
		<path style="fill:#FFFFFF;" d="M95.053,75v-5.763h5.763V75H95.053z"/>
		<path style="fill:#FFFFFF;" d="M105.615,68.048l5.578-0.615c0.137,1.135,0.492,1.976,1.066,2.522s1.333,0.82,2.276,0.82
			c1.189,0,2.201-0.547,3.035-1.641s1.367-3.363,1.6-6.809c-1.449,1.682-3.261,2.522-5.435,2.522c-2.365,0-4.406-0.913-6.122-2.738
			s-2.574-4.201-2.574-7.126c0-3.049,0.906-5.506,2.717-7.373s4.119-2.799,6.921-2.799c3.049,0,5.551,1.179,7.506,3.538
			s2.933,6.238,2.933,11.638c0,5.496-1.019,9.461-3.056,11.895s-4.689,3.65-7.957,3.65c-2.352,0-4.252-0.625-5.701-1.876
			S106.025,70.536,105.615,68.048z M118.658,55.456c0-1.859-0.427-3.302-1.282-4.327s-1.842-1.538-2.963-1.538
			c-1.066,0-1.952,0.42-2.656,1.261s-1.056,2.218-1.056,4.132c0,1.941,0.383,3.367,1.148,4.276s1.723,1.364,2.871,1.364
			c1.107,0,2.041-0.438,2.799-1.313S118.658,57.151,118.658,55.456z"/>
		<path style="fill:#FFFFFF;" d="M138.591,44.813c2.912,0,5.188,1.039,6.829,3.117c1.955,2.461,2.933,6.542,2.933,12.243
			c0,5.688-0.984,9.775-2.953,12.264c-1.627,2.051-3.896,3.076-6.809,3.076c-2.926,0-5.284-1.125-7.075-3.374
			s-2.687-6.258-2.687-12.028c0-5.66,0.984-9.734,2.953-12.223C133.41,45.838,135.679,44.813,138.591,44.813z M138.591,49.591
			c-0.697,0-1.319,0.222-1.866,0.667s-0.971,1.241-1.271,2.389c-0.396,1.49-0.595,3.999-0.595,7.526s0.178,5.951,0.533,7.27
			s0.803,2.198,1.343,2.635s1.159,0.656,1.856,0.656s1.319-0.222,1.866-0.667s0.971-1.241,1.271-2.389
			c0.396-1.477,0.595-3.979,0.595-7.506s-0.178-5.951-0.533-7.27s-0.803-2.201-1.343-2.646S139.289,49.591,138.591,49.591z"/>
		<path style="fill:#FFFFFF;" d="M163.508,75v-6.05h-12.305v-5.045l13.043-19.093h4.84v19.072h3.732v5.065h-3.732V75H163.508z
			 M163.508,63.885V53.61l-6.911,10.274H163.508z"/>
	</g>
	<g>
		<path style="fill:#FFFFFF;" d="M60.568,477.576v5.353h-20.2c0.219-2.023,0.875-3.941,1.969-5.752s3.254-4.214,6.48-7.208
			c2.598-2.42,4.19-4.061,4.778-4.922c0.793-1.189,1.189-2.365,1.189-3.527c0-1.285-0.345-2.273-1.036-2.963
			s-1.644-1.036-2.861-1.036c-1.203,0-2.16,0.362-2.871,1.087s-1.121,1.928-1.23,3.609l-5.742-0.574
			c0.342-3.172,1.415-5.448,3.22-6.829s4.061-2.071,6.768-2.071c2.967,0,5.298,0.8,6.993,2.399s2.543,3.589,2.543,5.968
			c0,1.354-0.243,2.642-0.728,3.866s-1.254,2.505-2.307,3.845c-0.697,0.889-1.955,2.167-3.773,3.835s-2.97,2.775-3.456,3.322
			s-0.878,1.08-1.179,1.6H60.568z"/>
		<path style="fill:#FFFFFF;" d="M64.619,474.91v-5.763h11.32v5.763H64.619z"/>
		<path style="fill:#FFFFFF;" d="M82.553,466.707c-1.49-0.629-2.574-1.494-3.25-2.594s-1.015-2.307-1.015-3.62
			c0-2.242,0.783-4.095,2.348-5.558s3.791-2.194,6.675-2.194c2.857,0,5.076,0.731,6.655,2.194s2.369,3.315,2.369,5.558
			c0,1.395-0.362,2.635-1.087,3.722s-1.743,1.917-3.056,2.492c1.668,0.67,2.936,1.647,3.804,2.933s1.302,2.769,1.302,4.45
			c0,2.775-0.885,5.031-2.656,6.768s-4.125,2.604-7.065,2.604c-2.734,0-5.011-0.718-6.829-2.153c-2.146-1.695-3.22-4.02-3.22-6.973
			c0-1.627,0.403-3.121,1.21-4.481S80.817,467.445,82.553,466.707z M83.209,473.782c0,1.586,0.407,2.823,1.22,3.712
			s1.829,1.333,3.045,1.333c1.189,0,2.174-0.427,2.953-1.282s1.169-2.088,1.169-3.702c0-1.408-0.396-2.54-1.189-3.394
			s-1.798-1.282-3.015-1.282c-1.408,0-2.458,0.485-3.148,1.456S83.209,472.647,83.209,473.782z M83.743,460.903
			c0,1.148,0.325,2.044,0.974,2.687s1.514,0.964,2.594,0.964c1.094,0,1.969-0.325,2.625-0.974s0.984-1.548,0.984-2.697
			c0-1.08-0.325-1.945-0.974-2.594s-1.507-0.974-2.574-0.974c-1.107,0-1.989,0.328-2.646,0.984S83.743,459.823,83.743,460.903z"/>
		<path style="fill:#FFFFFF;" d="M101.124,474.91v-5.763h11.32v5.763H101.124z"/>
		<path style="fill:#FFFFFF;" d="M128.86,482.929h-5.763v-21.718c-2.105,1.969-4.587,3.425-7.444,4.368v-5.229
			c1.504-0.492,3.138-1.425,4.901-2.799s2.974-2.977,3.63-4.809h4.676V482.929z"/>
		<path style="fill:#FFFFFF;" d="M141.996,466.707c-1.49-0.629-2.574-1.494-3.25-2.594s-1.015-2.307-1.015-3.62
			c0-2.242,0.783-4.095,2.348-5.558s3.791-2.194,6.675-2.194c2.857,0,5.076,0.731,6.655,2.194s2.369,3.315,2.369,5.558
			c0,1.395-0.362,2.635-1.087,3.722s-1.743,1.917-3.056,2.492c1.668,0.67,2.936,1.647,3.804,2.933s1.302,2.769,1.302,4.45
			c0,2.775-0.885,5.031-2.656,6.768s-4.125,2.604-7.065,2.604c-2.734,0-5.011-0.718-6.829-2.153c-2.146-1.695-3.22-4.02-3.22-6.973
			c0-1.627,0.403-3.121,1.21-4.481S140.26,467.445,141.996,466.707z M142.652,473.782c0,1.586,0.407,2.823,1.22,3.712
			s1.829,1.333,3.045,1.333c1.189,0,2.174-0.427,2.953-1.282s1.169-2.088,1.169-3.702c0-1.408-0.396-2.54-1.189-3.394
			s-1.798-1.282-3.015-1.282c-1.408,0-2.458,0.485-3.148,1.456S142.652,472.647,142.652,473.782z M143.186,460.903
			c0,1.148,0.325,2.044,0.974,2.687s1.514,0.964,2.594,0.964c1.094,0,1.969-0.325,2.625-0.974s0.984-1.548,0.984-2.697
			c0-1.08-0.325-1.945-0.974-2.594s-1.507-0.974-2.574-0.974c-1.107,0-1.989,0.328-2.646,0.984S143.186,459.823,143.186,460.903z"/>
		<path style="fill:#FFFFFF;" d="M160.566,474.91v-5.763h11.32v5.763H160.566z"/>
		<path style="fill:#FFFFFF;" d="M173.559,458.627v-5.353h19.708v4.184c-1.627,1.6-3.281,3.896-4.963,6.891
			s-2.963,6.176-3.845,9.546s-1.316,6.381-1.302,9.034h-5.558c0.096-4.156,0.954-8.395,2.574-12.715s3.784-8.183,6.491-11.587
			H173.559z"/>
	</g>
	<g>
		<path style="fill:#FFFFFF;" d="M48.254,427.185l10.359-1.257c0.33,2.641,1.219,4.66,2.666,6.056
			c1.447,1.396,3.199,2.095,5.256,2.095c2.209,0,4.069-0.838,5.58-2.514c1.51-1.676,2.266-3.936,2.266-6.779
			c0-2.691-0.724-4.824-2.171-6.398c-1.447-1.574-3.212-2.361-5.294-2.361c-1.371,0-3.009,0.267-4.913,0.8l1.181-8.722
			c2.895,0.076,5.104-0.552,6.627-1.885s2.285-3.104,2.285-5.313c0-1.879-0.559-3.376-1.676-4.494
			c-1.118-1.117-2.603-1.676-4.456-1.676c-1.828,0-3.39,0.635-4.685,1.904c-1.295,1.27-2.082,3.123-2.361,5.561l-9.864-1.676
			c0.686-3.376,1.72-6.075,3.104-8.093c1.384-2.019,3.313-3.605,5.789-4.761c2.476-1.155,5.25-1.733,8.322-1.733
			c5.256,0,9.47,1.676,12.645,5.027c2.615,2.742,3.923,5.84,3.923,9.293c0,4.9-2.679,8.811-8.036,11.73
			c3.199,0.686,5.757,2.222,7.674,4.608c1.917,2.387,2.875,5.269,2.875,8.646c0,4.9-1.79,9.078-5.37,12.53
			c-3.58,3.453-8.036,5.18-13.368,5.18c-5.053,0-9.242-1.453-12.568-4.361C50.717,435.684,48.788,431.882,48.254,427.185z"/>
		<path style="fill:#FFFFFF;" d="M91.388,427.642l10.664-1.104c0.305,2.413,1.206,4.323,2.704,5.732
			c1.498,1.409,3.224,2.114,5.18,2.114c2.234,0,4.126-0.908,5.675-2.723c1.548-1.815,2.323-4.551,2.323-8.208
			c0-3.428-0.768-5.999-2.304-7.712c-1.537-1.714-3.536-2.571-5.999-2.571c-3.072,0-5.827,1.358-8.265,4.075l-8.684-1.257
			l5.484-29.06h28.298v10.017h-20.186l-1.676,9.483c2.386-1.193,4.824-1.79,7.313-1.79c4.748,0,8.772,1.727,12.073,5.18
			c3.3,3.453,4.951,7.935,4.951,13.444c0,4.596-1.333,8.697-3.999,12.302c-3.631,4.926-8.671,7.389-15.12,7.389
			c-5.155,0-9.356-1.384-12.606-4.151C93.964,436.034,92.022,432.313,91.388,427.642z"/>
	</g>
	<g>
		<path style="fill:#FFFFFF;" d="M447.894,70.981v-5.763h11.32v5.763H447.894z"/>
		<path style="fill:#FFFFFF;" d="M475.631,79h-5.763V57.282c-2.105,1.969-4.587,3.425-7.444,4.368v-5.229
			c1.504-0.492,3.138-1.425,4.901-2.799s2.974-2.977,3.63-4.809h4.676V79z"/>
	</g>
	<g>
		<path style="fill:#FFFFFF;" d="M445.083,157.173v-7.813h-7.875v-5.394h7.875v-7.813h5.25v7.813h7.896v5.394h-7.896v7.813H445.083z
			"/>
		<path style="fill:#FFFFFF;" d="M461.438,153.769l5.742-0.595c0.164,1.299,0.649,2.328,1.456,3.086s1.736,1.138,2.789,1.138
			c1.203,0,2.222-0.489,3.056-1.466s1.251-2.451,1.251-4.419c0-1.846-0.414-3.23-1.241-4.153s-1.904-1.384-3.23-1.384
			c-1.654,0-3.138,0.731-4.45,2.194l-4.676-0.677l2.953-15.647h15.237v5.394h-10.869l-0.902,5.106
			c1.285-0.643,2.598-0.964,3.938-0.964c2.557,0,4.724,0.93,6.501,2.789s2.666,4.272,2.666,7.239c0,2.475-0.718,4.683-2.153,6.624
			c-1.955,2.652-4.669,3.979-8.142,3.979c-2.775,0-5.038-0.745-6.788-2.235S461.78,156.284,461.438,153.769z"/>
	</g>
	<g>
		<path style="fill:#FFFFFF;" d="M445.083,115.887v-7.813h-7.875v-5.394h7.875v-7.813h5.25v7.813h7.896v5.394h-7.896v7.813H445.083z
			"/>
		<path style="fill:#FFFFFF;" d="M476.101,120.214h-5.763V98.496c-2.105,1.969-4.587,3.425-7.444,4.368v-5.229
			c1.504-0.492,3.138-1.425,4.901-2.799s2.974-2.977,3.63-4.809h4.676V120.214z"/>
	</g>
	<g>
		<path style="fill:#FFFFFF;" d="M546.779,554.36h-5.763v-21.718c-2.105,1.969-4.587,3.425-7.444,4.368v-5.229
			c1.504-0.492,3.138-1.425,4.901-2.799s2.974-2.978,3.63-4.81h4.676V554.36z"/>
		<path style="fill:#FFFFFF;" d="M565.134,524.173c2.912,0,5.188,1.039,6.829,3.117c1.955,2.461,2.933,6.542,2.933,12.243
			c0,5.688-0.984,9.775-2.953,12.264c-1.627,2.051-3.896,3.076-6.809,3.076c-2.926,0-5.284-1.124-7.075-3.373
			s-2.687-6.259-2.687-12.028c0-5.66,0.984-9.734,2.953-12.223C559.952,525.198,562.222,524.173,565.134,524.173z M565.134,528.951
			c-0.697,0-1.319,0.223-1.866,0.667s-0.971,1.24-1.271,2.389c-0.396,1.49-0.595,3.999-0.595,7.526s0.178,5.951,0.533,7.271
			s0.803,2.197,1.343,2.635s1.159,0.656,1.856,0.656s1.319-0.222,1.866-0.666s0.971-1.241,1.271-2.39
			c0.396-1.477,0.595-3.979,0.595-7.506s-0.178-5.95-0.533-7.27s-0.803-2.201-1.343-2.646S565.831,528.951,565.134,528.951z"/>
		<path style="fill:#FFFFFF;" d="M579.981,554.36v-5.763h5.763v5.763H579.981z"/>
		<path style="fill:#FFFFFF;" d="M595.362,538.139c-1.49-0.629-2.574-1.493-3.25-2.594s-1.015-2.308-1.015-3.62
			c0-2.242,0.783-4.095,2.348-5.558s3.791-2.194,6.675-2.194c2.857,0,5.076,0.731,6.655,2.194s2.369,3.315,2.369,5.558
			c0,1.395-0.362,2.636-1.087,3.723s-1.743,1.917-3.056,2.491c1.668,0.67,2.936,1.647,3.804,2.933s1.302,2.769,1.302,4.45
			c0,2.775-0.885,5.031-2.656,6.768s-4.125,2.604-7.065,2.604c-2.734,0-5.011-0.718-6.829-2.153c-2.146-1.695-3.22-4.02-3.22-6.973
			c0-1.627,0.403-3.12,1.21-4.48S593.626,538.877,595.362,538.139z M596.019,545.214c0,1.586,0.407,2.823,1.22,3.712
			s1.829,1.333,3.045,1.333c1.189,0,2.174-0.427,2.953-1.281s1.169-2.089,1.169-3.702c0-1.408-0.396-2.539-1.189-3.394
			s-1.798-1.282-3.015-1.282c-1.408,0-2.458,0.485-3.148,1.456S596.019,544.079,596.019,545.214z M596.552,532.335
			c0,1.148,0.325,2.044,0.974,2.687s1.514,0.964,2.594,0.964c1.094,0,1.969-0.324,2.625-0.974s0.984-1.549,0.984-2.697
			c0-1.08-0.325-1.944-0.974-2.594s-1.507-0.975-2.574-0.975c-1.107,0-1.989,0.328-2.646,0.984S596.552,531.255,596.552,532.335z"/>
		<path style="fill:#FFFFFF;" d="M628.523,554.36h-5.763v-21.718c-2.105,1.969-4.587,3.425-7.444,4.368v-5.229
			c1.504-0.492,3.138-1.425,4.901-2.799s2.974-2.978,3.63-4.81h4.676V554.36z"/>
		<path style="fill:#FFFFFF;" d="M649.564,554.36h-5.763v-21.718c-2.105,1.969-4.587,3.425-7.444,4.368v-5.229
			c1.504-0.492,3.138-1.425,4.901-2.799s2.974-2.978,3.63-4.81h4.676V554.36z"/>
	</g>
	<g>
		<path style="fill:#FFFFFF;" d="M545.496,956.937v5.353h-20.2c0.219-2.023,0.875-3.941,1.969-5.752
			c1.094-1.813,3.254-4.215,6.48-7.209c2.598-2.42,4.19-4.061,4.778-4.922c0.793-1.189,1.189-2.365,1.189-3.527
			c0-1.285-0.345-2.273-1.036-2.963c-0.69-0.691-1.644-1.036-2.861-1.036c-1.203,0-2.16,0.362-2.871,1.087s-1.121,1.928-1.23,3.609
			l-5.742-0.574c0.342-3.172,1.415-5.448,3.22-6.829s4.061-2.071,6.768-2.071c2.967,0,5.298,0.8,6.993,2.399
			s2.543,3.589,2.543,5.968c0,1.354-0.243,2.643-0.728,3.865c-0.485,1.225-1.254,2.506-2.307,3.846
			c-0.697,0.889-1.955,2.167-3.773,3.835s-2.97,2.775-3.456,3.322s-0.878,1.08-1.179,1.6H545.496z"/>
		<path style="fill:#FFFFFF;" d="M549.547,954.271v-5.763h11.32v5.763H549.547z"/>
		<path style="fill:#FFFFFF;" d="M562.334,954.312l5.578-0.677c0.178,1.422,0.656,2.509,1.436,3.261s1.723,1.128,2.83,1.128
			c1.189,0,2.191-0.451,3.004-1.354s1.22-2.119,1.22-3.65c0-1.449-0.39-2.598-1.169-3.445s-1.729-1.271-2.851-1.271
			c-0.738,0-1.62,0.144-2.646,0.431l0.636-4.696c1.559,0.041,2.748-0.297,3.568-1.016c0.82-0.717,1.23-1.671,1.23-2.86
			c0-1.012-0.301-1.818-0.902-2.42s-1.401-0.902-2.399-0.902c-0.984,0-1.825,0.342-2.522,1.025s-1.121,1.682-1.271,2.994
			l-5.312-0.902c0.369-1.818,0.926-3.271,1.671-4.358c0.745-1.086,1.784-1.941,3.117-2.563c1.333-0.623,2.827-0.934,4.481-0.934
			c2.83,0,5.1,0.902,6.809,2.707c1.408,1.477,2.112,3.145,2.112,5.004c0,2.639-1.442,4.744-4.327,6.316
			c1.723,0.369,3.1,1.196,4.132,2.481s1.548,2.837,1.548,4.655c0,2.639-0.964,4.888-2.892,6.747s-4.327,2.789-7.198,2.789
			c-2.721,0-4.977-0.782-6.768-2.349C563.66,958.889,562.621,956.841,562.334,954.312z"/>
	</g>
	<g>
		<path style="fill:#FFFFFF;" d="M533.716,907.002l10.664-1.104c0.305,2.413,1.206,4.323,2.704,5.732
			c1.498,1.409,3.224,2.113,5.18,2.113c2.234,0,4.126-0.907,5.675-2.723c1.548-1.815,2.323-4.552,2.323-8.208
			c0-3.428-0.768-5.998-2.304-7.712c-1.537-1.714-3.536-2.571-5.999-2.571c-3.072,0-5.827,1.358-8.265,4.075l-8.684-1.257
			l5.484-29.06h28.298v10.017h-20.186l-1.676,9.483c2.386-1.193,4.824-1.79,7.313-1.79c4.748,0,8.772,1.728,12.073,5.18
			c3.3,3.453,4.951,7.936,4.951,13.444c0,4.596-1.333,8.697-3.999,12.302c-3.631,4.927-8.671,7.389-15.12,7.389
			c-5.155,0-9.356-1.384-12.606-4.151C536.292,915.395,534.35,911.674,533.716,907.002z"/>
	</g>
	<g>
		<path style="fill:#FFFFFF;" d="M932.822,550.342v-5.763h11.32v5.763H932.822z"/>
		<path style="fill:#FFFFFF;" d="M945.609,550.383l5.578-0.677c0.178,1.422,0.656,2.509,1.436,3.261s1.723,1.128,2.83,1.128
			c1.189,0,2.191-0.451,3.005-1.354s1.22-2.119,1.22-3.65c0-1.449-0.39-2.598-1.169-3.445s-1.729-1.271-2.851-1.271
			c-0.738,0-1.62,0.144-2.646,0.431l0.636-4.696c1.559,0.041,2.748-0.297,3.568-1.015s1.23-1.672,1.23-2.861
			c0-1.012-0.301-1.818-0.902-2.42s-1.401-0.902-2.399-0.902c-0.984,0-1.825,0.342-2.522,1.025s-1.121,1.682-1.271,2.994
			l-5.312-0.902c0.369-1.818,0.927-3.271,1.672-4.357s1.784-1.941,3.117-2.563s2.826-0.934,4.48-0.934c2.83,0,5.1,0.902,6.809,2.707
			c1.408,1.477,2.112,3.145,2.112,5.004c0,2.639-1.442,4.744-4.327,6.316c1.723,0.369,3.101,1.196,4.133,2.481
			s1.548,2.837,1.548,4.655c0,2.639-0.964,4.888-2.892,6.747s-4.327,2.789-7.198,2.789c-2.721,0-4.977-0.782-6.768-2.348
			S945.896,552.912,945.609,550.383z"/>
	</g>
	<g>
		<path style="fill:#FFFFFF;" d="M930.011,595.247v-7.813h-7.875v-5.394h7.875v-7.813h5.25v7.813h7.896v5.394h-7.896v7.813H930.011z
			"/>
		<path style="fill:#FFFFFF;" d="M946.079,591.597l5.578-0.677c0.178,1.422,0.656,2.509,1.436,3.261s1.723,1.128,2.83,1.128
			c1.189,0,2.191-0.451,3.005-1.354s1.22-2.119,1.22-3.65c0-1.449-0.39-2.598-1.169-3.445s-1.729-1.271-2.851-1.271
			c-0.738,0-1.62,0.144-2.646,0.431l0.636-4.696c1.559,0.041,2.748-0.297,3.568-1.015s1.23-1.672,1.23-2.861
			c0-1.012-0.301-1.818-0.902-2.42s-1.401-0.902-2.399-0.902c-0.984,0-1.825,0.342-2.522,1.025s-1.121,1.682-1.271,2.994
			l-5.312-0.902c0.369-1.818,0.927-3.271,1.672-4.357s1.784-1.941,3.117-2.563s2.826-0.934,4.48-0.934c2.83,0,5.1,0.902,6.809,2.707
			c1.408,1.477,2.112,3.145,2.112,5.004c0,2.639-1.442,4.744-4.327,6.316c1.723,0.369,3.101,1.196,4.133,2.481
			s1.548,2.837,1.548,4.655c0,2.639-0.964,4.888-2.892,6.747s-4.327,2.789-7.198,2.789c-2.721,0-4.977-0.782-6.768-2.348
			S946.366,594.126,946.079,591.597z"/>
	</g>
</g>
<g id="Breaking_Bond_White">
</g>
</svg>
