<svg xmlns="http://www.w3.org/2000/svg" viewBox="0 0 785.42 437.01"><defs><style>.cls-1{font-size:60px;fill:#1f687f;font-family:Exo-Bold, Exo;font-weight:700;}.cls-2{fill:#0f9a49;}.cls-3{fill:#1e687e;}.cls-16,.cls-4{fill:none;}.cls-16,.cls-4,.cls-5{stroke:#1e687e;}.cls-10,.cls-11,.cls-14,.cls-15,.cls-16,.cls-4,.cls-5,.cls-6,.cls-7{stroke-miterlimit:10;}.cls-4{stroke-width:15px;}.cls-15,.cls-5{fill:#f3e9d2;}.cls-5{stroke-width:12px;}.cls-11,.cls-13,.cls-6{fill:#c7dbc0;}.cls-10,.cls-11,.cls-15,.cls-6,.cls-7{stroke:#000;}.cls-6{stroke-width:7px;}.cls-7,.cls-9{fill:#fff;}.cls-10,.cls-16,.cls-7{stroke-width:3px;}.cls-8{fill:#8ccc96;}.cls-10,.cls-12,.cls-14{fill:#17936f;}.cls-11,.cls-14{stroke-width:2px;}.cls-14{stroke:#1f687f;}</style></defs><g id="Layer_2" data-name="Layer 2"><g id="Layer_7" data-name="Layer 7"><text class="cls-1" transform="translate(449.96 199.74)">manipal<tspan class="cls-2"><tspan x="0" y="72">bio</tspan><tspan class="cls-3" x="80.58" y="72">machines</tspan></tspan></text></g><g id="Layer_8" data-name="Layer 8"><path class="cls-4" d="M188.76,426.9A211.24,211.24,0,0,1,116,402.16c-83.1-46.42-122.74-140.56-103.8-229"/><path class="cls-4" d="M246.24,7.44A212,212,0,0,1,408.81,123.38"/><circle class="cls-5" cx="219.18" cy="217.4" r="182.8"/><path class="cls-6" d="M277.08,153.26s-41.84,7-50.8,42.87,11.69,78.08-18.48,87,7.58,52.48,35.43,66.56,89.29-32,91.85-56.32S346.6,165,321,156.86,277.08,153.26,277.08,153.26Z"/><line class="cls-7" x1="208.28" y1="283.17" x2="186.25" y2="273.15"/><path class="cls-7" d="M219.1,273.15s-21.76-9-24.74-6.4"/><path class="cls-7" d="M225.39,256.56c-2.45-.05-22.5-1.76-22.5-1.76"/><line class="cls-7" x1="225.39" y1="229.63" x2="202.89" y2="242"/><line class="cls-7" x1="225.39" y1="203.03" x2="206.73" y2="221.52"/><path class="cls-7" d="M228.64,190.16s-16.36.21-21.91,7.47"/><line class="cls-7" x1="239.71" y1="173" x2="214.14" y2="178.85"/><line class="cls-7" x1="253.42" y1="162.43" x2="222.52" y2="162.43"/><line class="cls-7" x1="266.14" y1="156.5" x2="241.72" y2="147.7"/><line class="cls-7" x1="277.56" y1="153.26" x2="258.79" y2="134.46"/><path class="cls-7" d="M297.19,153.26s-7.17-15.8-13-17.08"/><line class="cls-7" x1="313.06" y1="154.57" x2="313.06" y2="136.18"/><path class="cls-7" d="M325.92,159.5s7.54-10.95,6.26-15.64"/><path class="cls-7" d="M332.32,169.9s10.95-.86,11.38-7.47"/><line class="cls-7" x1="337.03" y1="190.16" x2="350.95" y2="175.93"/><line class="cls-7" x1="339.17" y1="204.88" x2="352.66" y2="190.16"/><line class="cls-7" x1="339.15" y1="224.08" x2="355.64" y2="212.27"/><line class="cls-7" x1="339.17" y1="238.16" x2="355.64" y2="231.8"/><line class="cls-7" x1="339.17" y1="256.56" x2="350.95" y2="243.71"/><line class="cls-7" x1="337.03" y1="273.15" x2="349.24" y2="266.29"/><path class="cls-7" d="M336.18,287.2s9.65-8.42,14.77-7.4"/><path class="cls-7" d="M332.32,302.83c.51-1,17.78-5.79,20.34-10.91"/><path class="cls-7" d="M324.61,313.78c-.09.11,13.4,0,13.4,0"/><path class="cls-7" d="M315.6,323.06s6.2,10.25,13.52,7.69"/><path class="cls-7" d="M301.27,334.5s12.69,7.77,14.33,8.62"/><path class="cls-7" d="M279.17,346.86s32.52,11.2,31.24,9.92"/><path class="cls-7" d="M262.14,351.87s-.37,4.06,8.59,10"/><line class="cls-7" x1="245.13" y1="351.87" x2="245.13" y2="370.86"/><path class="cls-7" d="M228.64,343.12s-7.52,4.48,0,13.76"/><line class="cls-7" x1="219.1" y1="331.82" x2="208.28" y2="346.86"/><path class="cls-7" d="M208.28,320.07s-11.09,6.67-11,14.43"/><path class="cls-7" d="M198.12,306.07c-4.26,4-11.94,20.23-11.94,20.23"/><path class="cls-7" d="M197.8,291.92s-14.54-1-19.66,5.45"/><path class="cls-8" d="M323.46,209.1c.1,9.55-8.5,19.25-18.23,19.19-8.68,0-14.24-8-14.83-8.88A20.61,20.61,0,0,1,287,209.1c-.16-2.55-.57-8.8,3.94-13.86,5.32-6,13.17-5.42,14.3-5.33a18.79,18.79,0,0,1,10.76,4.8C317.09,195.64,323.38,201,323.46,209.1Z"/><path d="M305.32,230h-.1c-9.27-.06-15.12-8-16.2-9.62a22.15,22.15,0,0,1-3.69-11.13c-.17-2.6-.62-9.5,4.36-15.08,5.7-6.38,14.06-6,15.68-5.88a20.69,20.69,0,0,1,11.7,5.19c2.4,2.05,8,7.66,8.06,15.64h0A21.52,21.52,0,0,1,318.7,224,19,19,0,0,1,305.32,230Zm-1.44-38.44c-2.54,0-7.89.56-11.7,4.83-4.05,4.54-3.68,10.22-3.52,12.64a18.63,18.63,0,0,0,3.12,9.48c.56.84,5.71,8.11,13.46,8.16h.08a15.72,15.72,0,0,0,11-5,18.15,18.15,0,0,0,5.46-12.54h0c-.07-6.62-4.84-11.4-6.89-13.14a17.16,17.16,0,0,0-9.82-4.41C304.85,191.55,304.43,191.52,303.88,191.52Z"/><path class="cls-9" d="M289.84,218.53s5-3.74,7.22-2.08c1.58,1.16,3,6.22,3.65,9.13a1.15,1.15,0,0,1-1.61,1.31A20.67,20.67,0,0,1,289.84,218.53Z"/><path d="M299.59,228.67a3,3,0,0,1-1.19-.26,22.63,22.63,0,0,1-10-9l-.75-1.28,1.19-.89c1-.75,6.12-4.37,9.21-2.09.57.42,2.31,1.7,4.28,10.09a2.83,2.83,0,0,1-2.74,3.47ZM292.12,219a19.21,19.21,0,0,0,6.71,5.91c-1.23-4.91-2.33-6.81-2.75-7.12S293.83,218,292.12,219Z"/><path d="M251.57,285.51l-2.81,1.1L246,287.7l.5,6.42c.49-.29,4.4-2.12,4.4-2.12s4.13-1.29,4.68-1.41Z"/><path d="M236.19,297.06,235,299.81l-1.21,2.76,4.9,4.18c.14-.54,1.61-4.61,1.61-4.61s2-3.83,2.31-4.3Z"/><path d="M233.47,316.09l1.09,2.81,1.09,2.81,6.43-.51c-.29-.48-2.12-4.4-2.12-4.4s-1.3-4.12-1.41-4.67Z"/><path d="M245,331.48l2.76,1.21,2.75,1.21,4.19-4.9c-.55-.14-4.61-1.61-4.61-1.61s-3.84-2-4.3-2.31Z"/><path d="M264.05,334.19l2.81-1.09,2.8-1.09-.51-6.42c-.48.28-4.39,2.12-4.39,2.12s-4.13,1.29-4.68,1.41Z"/><path d="M279.43,322.65l1.21-2.75,1.22-2.76L277,313c-.13.54-1.61,4.61-1.61,4.61s-2,3.83-2.3,4.3Z"/><path d="M282.15,303.61l-1.09-2.8L280,298l-6.42.51c.29.48,2.12,4.4,2.12,4.4s1.3,4.12,1.41,4.67Z"/><path d="M270.61,288.23,267.85,287l-2.76-1.21-4.18,4.9c.55.14,4.61,1.61,4.61,1.61s3.83,2,4.3,2.31Z"/><circle class="cls-10" cx="257.81" cy="309.85" r="18.81"/><circle class="cls-11" cx="257.81" cy="309.85" r="5.36"/><path d="M300.6,275.85l-2.1,0h-2.11l-1.33,4.31c.39-.07,3.41-.25,3.41-.25s3,.22,3.4.29Z"/><path d="M287.62,279.38l-1.5,1.48-1.5,1.48,2.11,4c.23-.32,2.23-2.58,2.23-2.58s2.29-2,2.62-2.21Z"/><path d="M280.94,291.06v2.11l0,2.11,4.31,1.33c-.06-.39-.24-3.41-.24-3.41s.22-3,.29-3.41Z"/><path d="M284.48,304.05l1.48,1.5,1.48,1.5,4-2.11c-.32-.23-2.58-2.24-2.58-2.24s-2-2.29-2.2-2.61Z"/><path d="M296.16,310.73h2.1l2.11,0,1.33-4.31c-.39.06-3.41.24-3.41.24s-3-.22-3.4-.29Z"/><path d="M309.14,307.19l1.5-1.48,1.5-1.48-2.11-4c-.23.31-2.23,2.58-2.23,2.58s-2.29,2-2.62,2.2Z"/><path d="M315.82,295.51l0-2.11v-2.1L311.54,290c.06.39.25,3.41.25,3.41s-.23,3-.29,3.4Z"/><path d="M312.29,282.53l-1.48-1.5-1.49-1.5-4,2.11c.32.22,2.58,2.23,2.58,2.23s2,2.29,2.2,2.61Z"/><circle class="cls-10" cx="298.38" cy="293.29" r="13.16"/><circle class="cls-11" cx="298.38" cy="293.29" r="3.75"/><path d="M282,264.36l-1.11-.39-1.11-.39-1.47,2c.21,0,1.84.48,1.84.48s1.55.66,1.74.76Z"/><path d="M274.47,263.88l-1.06.51-1.05.52.39,2.47c.18-.12,1.64-.95,1.64-.95s1.57-.63,1.78-.69Z"/><path d="M268.85,268.84l-.39,1.11-.38,1.11,2,1.47c0-.22.48-1.84.48-1.84s.66-1.55.77-1.74Z"/><path d="M268.38,276.32l.51,1.06.51,1.05,2.48-.39c-.13-.18-1-1.65-1-1.65s-.63-1.56-.69-1.77Z"/><path d="M273.33,281.94l1.11.39,1.11.38,1.47-2c-.21,0-1.84-.48-1.84-.48s-1.55-.66-1.74-.77Z"/><path d="M280.81,282.41l1.06-.51,1.05-.51-.39-2.48c-.18.13-1.64,1-1.64,1s-1.57.63-1.78.69Z"/><path d="M286.43,277.46l.39-1.11.39-1.11-2-1.47c0,.21-.48,1.84-.48,1.84s-.66,1.55-.77,1.74Z"/><path d="M286.9,270l-.51-1.06-.51-1.06-2.48.4c.13.18,1,1.64,1,1.64s.63,1.56.69,1.77Z"/><circle class="cls-12" cx="277.64" cy="273.15" r="7.33"/><path d="M275,280.88l-.05,0a8.17,8.17,0,0,1,5.33-15.44l.05,0a8.17,8.17,0,0,1,5,10.4h0A8.19,8.19,0,0,1,275,280.88ZM279.74,267a6.5,6.5,0,0,0-4.24,12.28h0A6.49,6.49,0,0,0,279.78,267Z"/><circle class="cls-13" cx="277.64" cy="273.15" r="2.09"/><path d="M276.79,275.65h0a2.68,2.68,0,0,1-1.51-1.35,2.64,2.64,0,0,1,3.23-3.65h0a2.65,2.65,0,0,1,1.63,3.37h0A2.65,2.65,0,0,1,276.79,275.65Zm1.34-3.95a1.53,1.53,0,0,0-1,2.89h0a1.53,1.53,0,0,0,1-2.9Z"/><path class="cls-7" d="M282.56,171.5a4.2,4.2,0,0,0-5.45.08c-8.07,6.94-37.08,35.14-35.39,80.6,0,0,.24,16.81,9,2.19,0,0,4.26-45.08,30-75.52C280.72,178.85,285.89,174.42,282.56,171.5Z"/><path class="cls-14" d="M235.85,60.67c-1.39,4.73-4,9.47-8.93,8.93-3.72-.41-7.8-4.38-8.92-8.93-1.18-4.78,4-8.6,8.92-8.92C232.7,51.37,237.51,55,235.85,60.67Z"/><path class="cls-14" d="M171.41,361.89c-1.39,4.73-4,9.47-8.93,8.93-3.72-.42-7.8-4.38-8.92-8.93-1.18-4.79,4-8.6,8.92-8.92C168.26,352.59,173.07,356.22,171.41,361.89Z"/><path class="cls-14" d="M383.69,235.81c-1.39,4.73-4,9.46-8.93,8.92-3.72-.41-7.8-4.38-8.92-8.92-1.18-4.79,4-8.6,8.92-8.93C380.54,226.5,385.35,230.13,383.69,235.81Z"/><path class="cls-14" d="M376.54,154.56c-1.39,4.73-4,9.47-8.92,8.93-3.73-.41-7.81-4.38-8.93-8.93-1.18-4.78,4-8.6,8.93-8.92C373.39,145.26,378.2,148.89,376.54,154.56Z"/><path class="cls-14" d="M97.56,113.62a9.16,9.16,0,0,0,9.16,9.16c5.06,0,4.62-6.92,9.16-9.16,9.31-4.59,5-8.7-9.16-9.16A9.06,9.06,0,0,0,97.56,113.62Z"/><path class="cls-14" d="M54.27,228.58a9.14,9.14,0,0,0,12.67-2.66c2.77-4.23-3.26-7.65-2.65-12.68,1.25-10.3-4.54-9-12.68,2.66A9.06,9.06,0,0,0,54.27,228.58Z"/><path class="cls-14" d="M287.82,91.06a9.16,9.16,0,0,0-2,12.8c3,4.08,8.31-.36,12.8,2,9.2,4.81,10-1.08,2-12.8A9.05,9.05,0,0,0,287.82,91.06Z"/><path class="cls-7" d="M76.47,247.52s-16.4,22.37,1.3,42.86c11.64,13.47,22.87,28.22,30.2,32.5,6.47,3.77,25.32.22,25.6-4.81,0-.17,9.42-5.07-12.81-27.17-3.09-3.07-16-9.55-20.27-10.59-10-2.48-9.48-10.68-4.54-21.54C102.3,244.82,84.86,236.58,76.47,247.52Z"/><path d="M173.81,119.19l2.66-11.12-8.31-7.87,1.75-6.93-1-.24L167.19,100l-10.44,3.11-6.59-5.71-.65.75,6.56,5.69-2.56,10.7L144,119.66l-7.44-4.19-.48.86,7.47,4.22,2.17,11.63,11.85,1.55,2.54,5.77.91-.41-2.64-6,4.86-10.22,9.86-2.93,5.63,4.95.66-.75Zm-16.33,13.52-10.89-1.42-2-10.79,9.35-5.09,8.12,7.69ZM172.84,119l-10.07,3-8.17-7.74L157.05,104l10.42-3.1,7.9,7.48Z"/><circle class="cls-12" cx="179.09" cy="124.51" r="2.12"/><circle class="cls-12" cx="169.42" cy="93.15" r="2.12"/><circle class="cls-12" cx="150.17" cy="97.73" r="2.12"/><circle class="cls-12" cx="136.35" cy="115.9" r="2.12"/><circle class="cls-12" cx="160.59" cy="139.3" r="2.12"/><path d="M151.21,227.6l-11.06-2.9-8.05,8.14L125.21,231l-.26,1,6.89,1.89,2.88,10.51-5.85,6.47.74.66,5.83-6.44,10.65,2.79,4.95,9.59-4.35,7.35.85.5,4.38-7.38,11.68-1.92,1.8-11.82,5.82-2.41-.38-.92-6.07,2.52-10.12-5.09-2.72-9.92,5.08-5.52-.74-.67Zm13.17,16.62-1.66,10.85-10.83,1.78L147,247.39l7.87-7.95ZM151,228.57l2.78,10.13-7.91,8L135.68,244l-2.87-10.49,7.64-7.73Z"/><circle class="cls-12" cx="156.64" cy="222.43" r="2.12"/><circle class="cls-12" cx="125.08" cy="231.43" r="2.12"/><circle class="cls-12" cx="129.25" cy="250.77" r="2.12"/><circle class="cls-12" cx="147.11" cy="264.98" r="2.12"/><circle class="cls-12" cx="171.03" cy="241.24" r="2.12"/><path d="M132.75,179.61l5-10.27-6.39-9.5,3.21-6.38-.89-.44-3.22,6.38-10.86.76-5.19-7-.8.59,5.17,7L114,170.61l-10.38,3-6.35-5.71-.66.74,6.38,5.74-.42,11.83,11.23,4.09,1.22,6.18,1-.19-1.28-6.45,7-8.92,10.26-.71,4.42,6.06.8-.58Zm-18.88,9.64-10.31-3.76.39-11,10.23-2.93,6.25,9.28Zm18-10.06-10.48.72-6.28-9.32,4.61-9.44,10.85-.75,6.07,9Z"/><circle class="cls-12" cx="134.14" cy="153.24" r="2.12"/><circle class="cls-12" cx="114.36" cy="153.52" r="2.12"/><circle class="cls-12" cx="96.91" cy="168.24" r="2.12"/><circle class="cls-12" cx="115.48" cy="196.35" r="2.12"/><polygon class="cls-15" points="150.59 188.48 139 189.25 132.38 179.71 137.35 169.4 148.93 168.63 155.55 178.18 150.59 188.48"/><line class="cls-15" x1="139" y1="189.25" x2="135.8" y2="196.35"/><line class="cls-15" x1="155.55" y1="178.17" x2="161.42" y2="177.76"/><line class="cls-15" x1="148.93" y1="168.64" x2="150.86" y2="163.88"/><circle class="cls-12" cx="161.42" cy="177.76" r="2.12"/><circle class="cls-12" cx="150.86" cy="163.88" r="2.12"/><circle class="cls-12" cx="135.8" cy="196.35" r="2.12"/><line class="cls-16" x1="250.83" y1="414.88" x2="254.69" y2="436.75"/><line class="cls-16" x1="257.7" y1="413.65" x2="262.32" y2="435.38"/><line class="cls-16" x1="264.53" y1="412.19" x2="269.9" y2="433.74"/><line class="cls-16" x1="271.3" y1="410.49" x2="277.42" y2="431.84"/><line class="cls-16" x1="278.01" y1="408.55" x2="284.87" y2="429.68"/><line class="cls-16" x1="284.64" y1="406.38" x2="292.24" y2="427.25"/><line class="cls-16" x1="291.2" y1="403.98" x2="299.52" y2="424.58"/><line class="cls-16" x1="297.67" y1="401.35" x2="306.7" y2="421.65"/><line class="cls-16" x1="304.04" y1="398.5" x2="313.78" y2="418.47"/><line class="cls-16" x1="310.31" y1="395.43" x2="320.74" y2="415.04"/><line class="cls-16" x1="316.47" y1="392.14" x2="327.57" y2="411.38"/><line class="cls-16" x1="322.5" y1="388.64" x2="334.28" y2="407.48"/><line class="cls-16" x1="328.42" y1="384.93" x2="340.84" y2="403.35"/><line class="cls-16" x1="334.2" y1="381.02" x2="347.25" y2="398.99"/><line class="cls-16" x1="339.84" y1="376.9" x2="353.51" y2="394.41"/><line class="cls-16" x1="345.33" y1="372.59" x2="359.61" y2="389.61"/><line class="cls-16" x1="350.67" y1="368.1" x2="365.53" y2="384.6"/><line class="cls-16" x1="355.85" y1="363.42" x2="371.28" y2="379.39"/><line class="cls-16" x1="360.86" y1="358.56" x2="376.84" y2="373.99"/><line class="cls-16" x1="365.7" y1="353.53" x2="382.21" y2="368.39"/><line class="cls-16" x1="370.36" y1="348.33" x2="387.38" y2="362.61"/><line class="cls-16" x1="374.84" y1="342.97" x2="392.35" y2="356.65"/><line class="cls-16" x1="379.13" y1="337.46" x2="397.1" y2="350.52"/><line class="cls-16" x1="383.22" y1="331.81" x2="401.64" y2="344.23"/><line class="cls-16" x1="387.12" y1="326.01" x2="405.95" y2="337.79"/><line class="cls-16" x1="390.8" y1="320.09" x2="410.04" y2="331.19"/><line class="cls-16" x1="394.28" y1="314.03" x2="413.9" y2="324.46"/><line class="cls-16" x1="397.55" y1="307.86" x2="417.51" y2="317.6"/><line class="cls-16" x1="400.6" y1="301.58" x2="420.89" y2="310.62"/><line class="cls-16" x1="140.69" y1="33.44" x2="131.65" y2="13.15"/><line class="cls-16" x1="134.32" y1="36.29" x2="124.58" y2="16.33"/><line class="cls-16" x1="128.05" y1="39.36" x2="117.62" y2="19.75"/><line class="cls-16" x1="121.89" y1="42.65" x2="110.78" y2="23.42"/><line class="cls-16" x1="115.85" y1="46.15" x2="104.08" y2="27.32"/><line class="cls-16" x1="109.94" y1="49.87" x2="97.52" y2="31.45"/><line class="cls-16" x1="104.16" y1="53.78" x2="91.1" y2="35.81"/><line class="cls-16" x1="98.52" y1="57.89" x2="84.84" y2="40.39"/><line class="cls-16" x1="93.02" y1="62.2" x2="78.75" y2="45.19"/><line class="cls-16" x1="87.69" y1="66.7" x2="72.82" y2="50.19"/><line class="cls-16" x1="82.51" y1="71.38" x2="67.08" y2="55.4"/><line class="cls-16" x1="77.49" y1="76.24" x2="61.52" y2="60.81"/><line class="cls-16" x1="72.65" y1="81.27" x2="56.15" y2="66.41"/><line class="cls-16" x1="67.99" y1="86.47" x2="50.98" y2="72.19"/><line class="cls-16" x1="63.51" y1="91.82" x2="46.01" y2="78.15"/><line class="cls-16" x1="59.23" y1="97.33" x2="41.26" y2="84.27"/><line class="cls-16" x1="55.13" y1="102.99" x2="36.72" y2="90.56"/></g></g></svg>