<?xml version="1.0" encoding="UTF-8" standalone="no"?>
<svg
   xmlns:dc="http://purl.org/dc/elements/1.1/"
   xmlns:cc="http://creativecommons.org/ns#"
   xmlns:rdf="http://www.w3.org/1999/02/22-rdf-syntax-ns#"
   xmlns:svg="http://www.w3.org/2000/svg"
   xmlns="http://www.w3.org/2000/svg"
   xmlns:sodipodi="http://sodipodi.sourceforge.net/DTD/sodipodi-0.dtd"
   xmlns:inkscape="http://www.inkscape.org/namespaces/inkscape"
   viewBox="0 0 350.26089 339.85776"
   version="1.1"
   id="svg412"
   sodipodi:docname="Home--Safety.svg"
   width="350.26089"
   height="339.85776"
   inkscape:version="1.0.1 (0767f8302a, 2020-10-17)">
  <metadata
     id="metadata416">
    <rdf:RDF>
      <cc:Work
         rdf:about="">
        <dc:format>image/svg+xml</dc:format>
        <dc:type
           rdf:resource="http://purl.org/dc/dcmitype/StillImage" />
        <dc:title></dc:title>
      </cc:Work>
    </rdf:RDF>
  </metadata>
  <sodipodi:namedview
     pagecolor="#ffffff"
     bordercolor="#666666"
     borderopacity="1"
     objecttolerance="10"
     gridtolerance="10"
     guidetolerance="10"
     inkscape:pageopacity="0"
     inkscape:pageshadow="2"
     inkscape:window-width="1858"
     inkscape:window-height="1016"
     id="namedview414"
     showgrid="false"
     inkscape:zoom="1.666"
     inkscape:cx="184.50977"
     inkscape:cy="188.70465"
     inkscape:window-x="62"
     inkscape:window-y="27"
     inkscape:window-maximized="1"
     inkscape:current-layer="svg412"
     inkscape:document-rotation="0"
     fit-margin-top="2"
     fit-margin-left="4"
     fit-margin-right="2"
     fit-margin-bottom="5.8"
     lock-margins="false"
     inkscape:snap-bbox="true" />
  <defs
     id="defs383">
    <style
       id="style381">.cls-1,.cls-3{fill:none;}.cls-1,.cls-2,.cls-3{stroke:#000;stroke-miterlimit:10;}.cls-2{fill:#25ced1;}.cls-3{stroke-linecap:round;stroke-width:0.5px;}</style>
  </defs>
  <g
     id="g54009"
     transform="translate(1.9999995)">
    <circle
       class="cls-1"
       cx="173.59482"
       cy="82.344345"
       r="79.905304"
       id="circle385"
       style="stroke-width:0.87808" />
    <path
       class="cls-1"
       d="M 162.22368,262.72838 A 73.81143,73.81143 0 0 1 105.49091,162.62723"
       id="path387"
       style="stroke-width:0.87808" />
    <path
       class="cls-1"
       d="M 242.5768,162.61845 A 73.81143,73.81143 0 0 1 185.84404,262.7196"
       id="path389"
       style="stroke-width:0.87808" />
    <path
       class="cls-1"
       d="m 119.05725,140.73669 a 73.758745,73.758745 0 0 1 109.68101,-0.29855"
       id="path391"
       style="stroke-width:0.87808" />
    <circle
       class="cls-1"
       cx="262.71997"
       cy="239.95976"
       r="79.905304"
       id="circle393"
       style="stroke-width:0.87808" />
    <circle
       class="cls-1"
       cx="85.347748"
       cy="239.95976"
       r="79.905304"
       id="circle395"
       style="stroke-width:0.87808" />
    <path
       class="cls-1"
       d="M 13.406627,277.48891 C 1.0520377,248.74056 -18.265729,160.05445 67.988099,130.63876 63.395739,59.07522 97.640871,6.3904017 166.69311,2.7375876"
       id="path397"
       style="stroke-width:0.87808" />
    <path
       class="cls-1"
       d="M 334.85426,277.48891 C 347.20885,248.74056 366.52662,160.05445 280.27279,130.63876 284.86515,59.07522 250.62002,6.3904017 181.56779,2.7375876"
       id="path399"
       style="stroke-width:0.87808" />
    <path
       class="cls-1"
       d="m 17.955083,284.40819 c 19.405575,24.58624 88.203167,83.76008 155.156787,21.952 60.71926,38.056 123.35272,33.0246 159.41548,-25.96483"
       id="path401"
       style="stroke-width:0.87808" />
    <path
       class="cls-2"
       d="m 228.47484,139.85861 c -28.09857,-28.09857 -73.75875,-36.0013 -109.76004,0.87808 -4.3904,-4.3904 -10.53697,-12.29313 -15.80545,-20.19585 46.53826,-47.416336 115.9066,-29.85473 141.37093,-0.87808 a 142.60902,142.60902 0 0 1 -15.80544,20.19585 z"
       id="path403"
       style="stroke-width:0.87808" />
    <path
       class="cls-2"
       d="m 105.56994,163.12774 c -9.755476,38.94286 7.10367,82.61857 57.76012,94.66583 -1.52786,6.0851 -5.18068,15.51568 -9.29887,24.18233 C 88.77226,266.26705 67.979318,197.03042 79.859745,159.92274 a 144.93593,144.93593 0 0 1 25.710195,3.205 z"
       id="path405"
       style="stroke-width:0.87808" />
    <path
       class="cls-2"
       d="m 185.88794,259.98877 c 38.76725,-10.44915 68.69222,-46.44166 54.53757,-96.58883 6.05875,-1.63323 16.07765,-3.02938 25.64872,-3.66159 18.0709,64.64427 -32.26067,116.53881 -70.46594,124.2308 -2.50253,-4.47821 -7.75345,-16.70987 -9.72035,-23.98038 z"
       id="path407"
       style="stroke-width:0.87808" />
    <path
       class="cls-3"
       d="m 114.04341,122.49896 c 5.54947,-8.10468 16.96451,-15.12932 27.07122,-16.61328"
       id="path409" />
  </g>
</svg>
