<?xml version="1.0" encoding="UTF-8" standalone="no"?>
<svg
   xmlns:dc="http://purl.org/dc/elements/1.1/"
   xmlns:cc="http://creativecommons.org/ns#"
   xmlns:rdf="http://www.w3.org/1999/02/22-rdf-syntax-ns#"
   xmlns:svg="http://www.w3.org/2000/svg"
   xmlns="http://www.w3.org/2000/svg"
   xmlns:sodipodi="http://sodipodi.sourceforge.net/DTD/sodipodi-0.dtd"
   xmlns:inkscape="http://www.inkscape.org/namespaces/inkscape"
   viewBox="0 0 213.82053 265.3313"
   version="1.1"
   id="svg750"
   sodipodi:docname="Home--Design.svg"
   width="213.82053"
   height="265.3313"
   inkscape:version="1.0.1 (3bc2e813f5, 2020-09-07)">
  <metadata
     id="metadata754">
    <rdf:RDF>
      <cc:Work
         rdf:about="">
        <dc:format>image/svg+xml</dc:format>
        <dc:type
           rdf:resource="http://purl.org/dc/dcmitype/StillImage" />
      </cc:Work>
    </rdf:RDF>
  </metadata>
  <sodipodi:namedview
     pagecolor="#ffffff"
     bordercolor="#666666"
     borderopacity="1"
     objecttolerance="10"
     gridtolerance="10"
     guidetolerance="10"
     inkscape:pageopacity="0"
     inkscape:pageshadow="2"
     inkscape:window-width="929"
     inkscape:window-height="1016"
     id="namedview752"
     showgrid="false"
     inkscape:zoom="1.666"
     inkscape:cx="110.45604"
     inkscape:cy="102.72754"
     inkscape:window-x="62"
     inkscape:window-y="27"
     inkscape:window-maximized="0"
     inkscape:current-layer="svg750"
     inkscape:document-rotation="0"
     fit-margin-top="0"
     fit-margin-left="0"
     fit-margin-right="0"
     fit-margin-bottom="0" />
  <defs
     id="defs723">
    <style
       id="style721">.cls-1,.cls-3{fill:none;}.cls-1,.cls-2,.cls-3{stroke:#000;stroke-miterlimit:10;}.cls-2{fill:#ea526f;}.cls-3{stroke-linecap:round;stroke-width:0.5px;}</style>
  </defs>
  <g
     id="_2.2"
     data-name="2.2"
     transform="matrix(0.69989465,0,0,0.75499111,-67.890676,-80.910196)">
    <path
       class="cls-1"
       d="m 218.5,219.5 c -10.41,18.27 0.3,53.84 41,51 20.81,-1.45 50.31,-15.64 69,-27 19.93,-12.11 43.9,-34.63 53,-46 16,-20 24.06,-43.74 19,-64 -3,-12 -17,-32 -47,-24 -15.28,4.07 -25,19 -34,36 -8.75,16.52 -39,44 -56,48 -19.67,4.63 -38.35,14.34 -45,26 z"
       id="path725" />
    <circle
       class="cls-2"
       cx="362.5"
       cy="150.5"
       r="20"
       id="circle727" />
    <path
       class="cls-3"
       d="m 347.63,145.15 a 16,16 0 0 1 11.54,-9.24"
       id="path729" />
    <path
       class="cls-3"
       d="m 334.82,132 a 36.76,36.76 0 0 1 28.44,-18.43"
       id="path731" />
    <path
       class="cls-1"
       d="m 97.53,377.63 c 0,0 3.46,-30.88 19.71,-39 16.25,-8.12 38.44,-24.89 44.35,-35.51 5.91,-10.62 18.66,-37.41 29.78,-46 11.12,-8.59 25.13,-12.6 25.13,-12.6"
       id="path733" />
    <path
       class="cls-1"
       d="m 97.5,377.5 c 0,0 2.49,-34.75 18.74,-42.87 16.25,-8.12 37.35,-24.51 43.26,-35.13 5.91,-10.62 18.87,-38.4 30,-47 11.13,-8.6 25,-15 25,-15"
       id="path735" />
    <path
       class="cls-1"
       d="m 117.72,373.62 c 7.78,-1.12 27.18,-11.22 34.78,-27.12 7.47,-15.63 17,-23.77 24,-27 6.44,-3 29.55,-17.33 38.27,-25.66 8.72,-8.33 18.34,-25 17.54,-28.69"
       id="path737" />
    <path
       class="cls-1"
       d="m 117.5,373.5 c 7.78,-1.12 25.4,-14.1 33,-30 7.47,-15.63 18,-25.77 25,-29 6.44,-3 27.27,-15.66 36,-24 8.73,-8.34 16.81,-25.35 16,-29"
       id="path739" />
    <path
       class="cls-1"
       d="m 154.5,458.5 c -3,-14.19 -5.76,-41.06 -2,-58 4,-18 14.4,-45.83 29.7,-56.92 15.3,-11.09 29.41,-19.53 43.3,-29.08 16,-11 29,-30.89 29,-44"
       id="path741" />
    <path
       class="cls-1"
       d="m 154.5,457.5 c -3,-14.19 -8.76,-43.06 -5,-60 4,-18 13.7,-44.92 29,-56 15.3,-11.08 27.11,-20.45 41,-30 16,-11 28,-27.89 28,-41"
       id="path743" />
    <path
       class="cls-1"
       d="M 184.44,410.23 C 197.5,399.5 216.5,373.5 213.5,355.5 c -2.14,-12.82 -19,-45 -17,-58 2.15,-14 14.31,-35.89 26,-41"
       id="path745" />
    <path
       class="cls-1"
       d="m 184.5,409.5 c 13.06,-10.73 29.1,-37.22 25,-55 -3,-13 -18,-42 -17,-58 1,-16 16.31,-37.89 28,-43"
       id="path747" />
  </g>
</svg>
