<?xml version="1.0" encoding="utf-8"?>
<!-- Generator: Adobe Illustrator 23.1.1, SVG Export Plug-In . SVG Version: 6.00 Build 0)  -->
<svg version="1.1" id="Layer_1" xmlns="http://www.w3.org/2000/svg" xmlns:xlink="http://www.w3.org/1999/xlink" x="0px" y="0px"
	 viewBox="0 0 800 600" style="enable-background:new 0 0 800 600;" xml:space="preserve">
<style type="text/css">
	.st0{fill:#FFFFFF;}
	.st1{fill:#E7404A;}
	.st2{fill:#EFCE2B;}
	.st3{fill:#45C4DE;}
	.st4{font-family:'Montserrat-SemiBold';}
	.st5{font-size:57.95px;}
</style>
<g id="Layer_5">
	<path class="st0" d="M140.1,389.1c0,0,20.4,0,31.1-1.6c34.3-5,60.8-19.6,91.5-50.4l7.4-7.4l-5-5.1l-5-5.1l-8.2,8.1
		c-32.3,31.9-59.5,44.9-96.9,46.6c-5.4,0.3-14.8,0.8-14.8,0.8L140.1,389.1z"/>
	<path class="st0" d="M512.8,311.5l4.6-4.8c2.6-2.6,4.7-5.2,4.7-5.6c0-0.9-15.6-16-22.9-22.2c-24-20.4-46.5-31-75.7-35.6
		c-10.5-1.7-36.4-1.7-47,0c-29,4.6-51.7,15.2-75.7,35.6c-7.2,6.2-22.9,21.3-22.9,22.2c0,0.4,2.1,2.9,4.7,5.6l4.7,4.8l6.5-6.4
		c3.6-3.5,9.3-8.8,12.5-11.7c21.1-18.7,40.7-29.1,64-33.9c34.5-7,71-1.5,98,14.9c11.6,7.1,21.2,14.8,35.5,28.5L512.8,311.5z"/>
	<path class="st0" d="M659.9,375.2c0,0-9.3-0.6-14.7-0.8c-37.5-1.7-64.6-14.8-97-46.6l-8.2-8.1l-5.1,5.2l-5,5.1l8.4,8.3
		c26,25.8,47.7,39.1,74.2,46c16.1,4.2,47.4,4.9,47.4,4.9L659.9,375.2z"/>
	<path class="st0" d="M502.9,349c3.3-2.8,16.6-16.1,29.7-29.5s26.8-26.8,30.4-29.8c25.8-21.6,50.7-31.5,82.5-33l14.5-0.8v-13.8
		c-5-0.4-10-0.4-15-0.1c-31.1,1.5-57.2,10.7-81.4,28.7c-10.6,7.9-17.5,14.4-40.7,38.1c-29.7,30.3-38.7,38.2-54.4,47.8
		c-27,16.4-63.5,22-98,14.9c-23.2-4.8-42.5-15-64-33.9c-3.2-2.9-16.5-15.9-29.4-29.1c-22.9-23.4-29.8-29.9-40.4-37.8
		c-24.1-18.1-50.3-27.3-81.4-28.7c-5-0.3-10-0.3-15-0.1l-0.1,14.5c0,0,4.5-0.2,14.8,0.3c31.5,1.5,56.5,11.4,82.3,33
		c3.6,3,16.5,15.7,28.7,28.1c24.4,25,29.4,29.9,39.2,37.8c23.8,19.3,48.6,29.7,78.3,32.9c8.4,0.9,32.6,0.3,40.8-0.9
		C453.8,383,477.5,371.3,502.9,349z"/>
	<path class="st1" d="M316.5,291.5l-3.9,3.5l-3.9,3.5v17l-0.1,17.1l3.8,3.5c1.3,1.3,2.7,2.5,4.2,3.5c0.2,0,0.3-0.8,0.2-1.8
		s-0.1-11.8-0.2-24L316.5,291.5z"/>
	<path class="st1" d="M413.7,262.2v106.6l3.4-0.5c1.3-0.1,2.6-0.4,3.9-0.8c0.7-0.5,0.7-103.6,0-104c-1.3-0.4-2.6-0.7-3.9-0.8
		L413.7,262.2z"/>
	<path class="st1" d="M569.4,291l-3.6,3v21.4l-0.1,21.3l3.5,3c1.2,1.2,2.5,2.2,4,3c0.5,0,0.6-9.3,0.5-27
		c-0.1-14.9-0.3-27.1-0.5-27.3S571.4,289.5,569.4,291z"/>
	<path class="st1" d="M163.7,262.8c-0.5-0.1-2.2-0.3-3.9-0.5l-3.1-0.3v107.2l3.1-0.3c1.7-0.2,3.5-0.4,3.9-0.5
		C164.9,367.9,164.9,263.2,163.7,262.8z"/>
	<path class="st2" d="M347.8,272.1l-3.6,1.5v83.9l3.6,1.5l3.6,1.5l0.2-22.5c0.1-12.3,0.1-32.6,0-45l-0.2-22.5L347.8,272.1z"/>
	<path class="st2" d="M448.3,270.4v90.2l2.5-1.1c1.3-0.6,3.1-1.3,3.9-1.7l1.4-0.6v-83.6l-1.4-0.6c-0.9-0.3-2.6-1.1-3.9-1.7
		L448.3,270.4z"/>
	<path class="st2" d="M601,271.7l0.1,44l0.2,43.9l2.9,1.2c1.2,0.5,2.5,0.9,3.8,1.1c0.6,0.1,0.8-9.7,0.8-46.5V269l-1.8,0.5
		c-1.3,0.4-2.6,0.8-3.9,1.3L601,271.7z"/>
	<path class="st2" d="M199.1,359.4v-87.7l-2.1-0.9c-1.3-0.5-2.6-1-3.9-1.3l-1.8-0.5v93.2l1.8-0.5c1.3-0.4,2.6-0.8,3.9-1.3
		L199.1,359.4z"/>
	<path class="st3" d="M378.6,315.9l0.2,51.8l2,0.4c1.2,0.3,2.5,0.5,3.8,0.5l1.8,0.1V262.2l-3.4,0.5c-1.4,0.1-2.7,0.5-4,1
		C378.7,264,378.5,287.5,378.6,315.9z"/>
	<path class="st3" d="M483.6,291.5v48.1l3.9-3.5l3.9-3.5v-34.1l-2.1-2c-1.2-1.1-2.9-2.7-3.9-3.5L483.6,291.5z"/>
	<path class="st3" d="M635.7,315.7l0.2,52.6l3.3,0.4c1.8,0.2,3.5,0.5,3.8,0.5s0.5-24,0.5-53.5v-53.7l-3.1,0.3
		c-1.8,0.2-3.5,0.4-4,0.5C635.7,263,635.6,273.9,635.7,315.7z"/>
	<path class="st3" d="M230.7,291.2c-1.2-1.1-2.5-2-3.9-2.9c-0.2,0-0.4,12.3-0.5,27.2c-0.1,15.7,0.1,27.2,0.4,27.2
		c1.5-0.8,2.8-1.9,4.1-3l3.5-3l-0.1-21.3V294L230.7,291.2z"/>
	<rect x="163.5" y="183" class="st0" width="474.7" height="14.2"/>
	<polygon class="st0" points="489.2,211.3 312.5,211.3 135.9,211.3 135.9,225.4 312.5,225.4 489.2,225.4 665.8,225.4 665.8,211.3 	
		"/>
	<polygon class="st0" points="489.2,404.2 312.5,404.2 135.9,404.2 135.9,425.5 312.5,425.5 489.2,425.5 665.8,425.5 665.8,404.2 	
		"/>
	<path class="st0" d="M562.6,154.6c-37.5-34.2-97-56-163.7-55.4c-64.9,0.6-122.6,22.2-159.8,55.4H562.6z"/>
	<rect x="239.1" y="154.6" class="st0" width="323.5" height="14.2"/>
	<rect x="314.9" y="196.7" class="st0" width="7.5" height="15"/>
	<rect x="171.9" y="196.8" class="st0" width="7.5" height="15"/>
	<rect x="204.4" y="196.7" class="st0" width="7.5" height="15"/>
	<rect x="237.5" y="196.7" class="st0" width="7.5" height="15"/>
	<rect x="348.1" y="196.9" class="st0" width="7.5" height="15"/>
	<rect x="380.6" y="196.1" class="st0" width="7.5" height="15"/>
	<rect x="413.7" y="196.7" class="st0" width="7.5" height="15"/>
	<rect x="446.2" y="196.5" class="st0" width="7.5" height="15"/>
	<rect x="479.3" y="196.6" class="st0" width="7.5" height="15"/>
	<rect x="556.7" y="196.7" class="st0" width="7.5" height="15"/>
	<rect x="589.8" y="196.8" class="st0" width="7.5" height="15"/>
	<rect x="622.4" y="196.8" class="st0" width="7.5" height="15"/>
	<rect x="276.2" y="196.7" class="st0" width="7.5" height="15"/>
	<rect x="518" y="196.7" class="st0" width="7.5" height="15"/>
	<text transform="matrix(1 0 0 1 175.62 492.82)" class="st0 st4 st5">iGEM </text>
	<text transform="matrix(1 0 0 1 347.26 492.82)" class="st0 st4 st5">BI</text>
	<text transform="matrix(1 0 0 1 409.84 492.82)" class="st0 st4 st5">T</text>
	<text transform="matrix(1 0 0 1 444.32 492.82)" class="st0 st4 st5">S G</text>
	<text transform="matrix(1 0 0 1 541.5 492.82)" class="st0 st4 st5">o</text>
	<text transform="matrix(1 0 0 1 578.47 492.82)" class="st0 st4 st5">a</text>
</g>
</svg>
