<?xml version="1.0" encoding="UTF-8" standalone="no"?>
<svg
   xmlns:dc="http://purl.org/dc/elements/1.1/"
   xmlns:cc="http://creativecommons.org/ns#"
   xmlns:rdf="http://www.w3.org/1999/02/22-rdf-syntax-ns#"
   xmlns:svg="http://www.w3.org/2000/svg"
   xmlns="http://www.w3.org/2000/svg"
   xmlns:sodipodi="http://sodipodi.sourceforge.net/DTD/sodipodi-0.dtd"
   xmlns:inkscape="http://www.inkscape.org/namespaces/inkscape"
   viewBox="0 0 2379.8899 1723.547"
   version="1.1"
   id="svg1573"
   sodipodi:docname="Implementation--header.svg"
   width="2379.8899"
   height="1723.547"
   inkscape:version="1.0.1 (0767f8302a, 2020-10-17)">
  <metadata
     id="metadata1577">
    <rdf:RDF>
      <cc:Work
         rdf:about="">
        <dc:format>image/svg+xml</dc:format>
        <dc:type
           rdf:resource="http://purl.org/dc/dcmitype/StillImage" />
        <dc:title></dc:title>
      </cc:Work>
    </rdf:RDF>
  </metadata>
  <sodipodi:namedview
     pagecolor="#ffffff"
     bordercolor="#666666"
     borderopacity="1"
     objecttolerance="10"
     gridtolerance="10"
     guidetolerance="10"
     inkscape:pageopacity="0"
     inkscape:pageshadow="2"
     inkscape:window-width="1858"
     inkscape:window-height="1016"
     id="namedview1575"
     showgrid="false"
     fit-margin-top="1"
     fit-margin-left="1"
     fit-margin-right="1"
     fit-margin-bottom="1"
     lock-margins="true"
     inkscape:zoom="0.82336607"
     inkscape:cx="1436.9533"
     inkscape:cy="1170.116"
     inkscape:window-x="62"
     inkscape:window-y="27"
     inkscape:window-maximized="1"
     inkscape:current-layer="svg1573" />
  <defs
     id="defs1242">
    <style
       id="style1235">.cls-1{fill:#f7a9c9;}.cls-2{fill:#187a7a;}.cls-3{fill:#1faaad;}.cls-4{fill:url(#linear-gradient);}.cls-5{fill:#25ced1;}.cls-6{fill:#ea526f;}.cls-7{fill:#fff;}.cls-8{fill:#92e7e8;}.cls-9{fill:#032624;}.cls-10{fill:#d4fffe;}.cls-11{fill:#5b061b;}.cls-12,.cls-18{fill:#5dc1b9;}.cls-13{fill:#56b2ad;}.cls-14{fill:#704d3f;}.cls-15{fill:#fff3f3;}.cls-16{fill:#434343;}.cls-17{fill:#32a095;}.cls-18,.cls-24{opacity:0.34;}.cls-19{fill:#4c2e23;}.cls-20{fill:#d6ad9d;}.cls-21{fill:#3a3f47;}.cls-22{fill:#ad7e6f;}.cls-23{fill:#60c6c3;}.cls-25{fill:#325655;}.cls-26{fill:#ffd5c5;}.cls-27{fill:#754836;}.cls-28{fill:#106658;}.cls-29{fill:#ffdcec;}.cls-30{fill:#593526;}.cls-31{fill:#3d1f14;}</style>
    <linearGradient
       id="linear-gradient"
       x1="678.51001"
       y1="893.88"
       x2="1900.77"
       y2="893.88"
       gradientUnits="userSpaceOnUse"
       gradientTransform="translate(-325.54999,-98.359985)">
      <stop
         offset="0"
         stop-color="#f7a9c9"
         id="stop1237" />
      <stop
         offset="1"
         stop-color="#f7a9c9"
         id="stop1239" />
    </linearGradient>
  </defs>
  <polygon
     class="cls-2"
     points="830.89,1690.9 2348.49,1690.9 2434.47,1690.9 2463.94,1690.9 2463.94,1807.73 2704.44,1594.57 2463.94,1381.4 2463.94,1500.13 2434.47,1500.13 2201.83,1500.13 830.89,1500.13 "
     id="polygon1247"
     transform="translate(-325.54999,-98.359985)" />
  <circle
     class="cls-3"
     cx="964.09003"
     cy="795.52002"
     r="794.52002"
     id="circle1249" />
  <circle
     class="cls-4"
     cx="964.09003"
     cy="795.52002"
     r="611.13"
     id="circle1251"
     style="fill:url(#linear-gradient)" />
  <path
     class="cls-5"
     d="m 2015.76,166.82001 -165.14,35.60001 76.45,150.64 27.21,-57.13 c 122.27,58.22999 174.37,205.07 116.17,327.34 -58.2,122.27 -205.09,174.36999 -327.36,116.13999 -122.27,-58.23 -174.37,-205.06 -116.15,-327.33 l -72,-34.28 c -77.12,162.00001 -8.11,356.47001 153.85,433.59 161.96,77.12001 356.47,8.12001 433.6,-153.83999 77.13,-161.96001 8.11,-356.47001 -153.85,-433.60001 z"
     id="path1253" />
  <rect
     class="cls-2"
     x="0.99999779"
     y="1399.36"
     width="989.67999"
     height="187.34"
     id="rect1255" />
  <rect
     class="cls-2"
     x="375.45001"
     y="1399.36"
     width="1177.28"
     height="187.34"
     id="rect1257" />
  <g
     id="Layer_3"
     data-name="Layer 3"
     transform="translate(-325.54999,-98.359985)">
    <rect
       class="cls-6"
       x="2134.75"
       y="996.34998"
       width="100.11"
       height="7.02"
       transform="rotate(180,2184.81,999.86)"
       id="rect1260" />
    <rect
       class="cls-6"
       x="2134.75"
       y="1009.58"
       width="100.11"
       height="29.5"
       transform="rotate(180,2184.81,1024.325)"
       id="rect1262" />
    <rect
       class="cls-6"
       x="2087.73"
       y="1049"
       width="59.060001"
       height="4.4099998"
       transform="rotate(180,2117.26,1051.2)"
       id="rect1264" />
    <rect
       class="cls-6"
       x="2087.73"
       y="1055.33"
       width="59.060001"
       height="11.94"
       transform="rotate(180,2117.26,1061.305)"
       id="rect1266" />
    <rect
       class="cls-6"
       x="2117.6699"
       y="951.28998"
       width="4.4099998"
       height="82.660004"
       transform="rotate(180,2119.875,992.625)"
       id="rect1268" />
    <rect
       class="cls-7"
       x="852.09998"
       y="662.60999"
       width="191.27"
       height="19.58"
       id="rect1270" />
    <rect
       class="cls-7"
       x="1096.9"
       y="810.08002"
       width="138.10001"
       height="19.58"
       id="rect1272" />
    <rect
       class="cls-7"
       x="1366.25"
       y="810.08002"
       width="221.25999"
       height="19.58"
       id="rect1274" />
    <rect
       class="cls-7"
       x="854.27002"
       y="1106.65"
       width="142.17"
       height="19.58"
       id="rect1276" />
    <rect
       class="cls-7"
       x="1236.29"
       y="1254.66"
       width="142.17"
       height="19.58"
       id="rect1278" />
    <rect
       class="cls-7"
       x="1457.89"
       y="662.60999"
       width="63.32"
       height="19.58"
       id="rect1280" />
    <rect
       class="cls-7"
       x="1252.91"
       y="883.81"
       width="63.32"
       height="19.58"
       id="rect1282" />
    <rect
       class="cls-7"
       x="1052.45"
       y="1254.66"
       width="86.790001"
       height="19.58"
       id="rect1284" />
    <rect
       class="cls-7"
       x="1378.47"
       y="1328.39"
       width="264.38"
       height="19.58"
       id="rect1286" />
    <rect
       class="cls-7"
       x="854.27002"
       y="1328.39"
       width="94.849998"
       height="19.58"
       id="rect1288" />
    <rect
       class="cls-7"
       x="1012.69"
       y="957.54999"
       width="58.009998"
       height="19.58"
       id="rect1290" />
    <rect
       class="cls-5"
       x="1256.51"
       y="810.08002"
       width="91.639999"
       height="19.58"
       id="rect1292" />
    <rect
       class="cls-5"
       x="1443.73"
       y="1402.13"
       width="91.639999"
       height="19.58"
       id="rect1294" />
    <rect
       class="cls-5"
       x="854.27002"
       y="1180.92"
       width="91.639999"
       height="19.58"
       id="rect1296" />
    <rect
       class="cls-5"
       x="1104.6801"
       y="1032.37"
       width="179.89"
       height="19.58"
       id="rect1298" />
    <rect
       class="cls-5"
       x="854.27002"
       y="1254.66"
       width="171.96001"
       height="19.58"
       id="rect1300" />
    <rect
       class="cls-5"
       x="1080.58"
       y="883.81"
       width="135.78"
       height="19.58"
       id="rect1302" />
    <rect
       class="cls-5"
       x="1080.58"
       y="662.60999"
       width="135.78"
       height="19.58"
       id="rect1304" />
    <rect
       class="cls-5"
       x="854.27002"
       y="958.09003"
       width="135.78"
       height="19.58"
       id="rect1306" />
    <rect
       class="cls-5"
       x="1252.91"
       y="662.60999"
       width="172.99001"
       height="19.58"
       id="rect1308" />
    <rect
       class="cls-5"
       x="961.25"
       y="1402.13"
       width="172.99001"
       height="19.58"
       id="rect1310" />
    <rect
       class="cls-5"
       x="1564.46"
       y="1402.13"
       width="172.99001"
       height="19.58"
       id="rect1312" />
    <rect
       class="cls-5"
       x="1537.83"
       y="1254.66"
       width="172.99001"
       height="19.58"
       id="rect1314" />
    <rect
       class="cls-5"
       x="1489.55"
       y="883.81"
       width="172.99001"
       height="19.58"
       id="rect1316" />
    <rect
       class="cls-5"
       x="854.27002"
       y="1032.37"
       width="80.57"
       height="19.58"
       id="rect1318" />
    <rect
       class="cls-5"
       x="853.72998"
       y="810.08002"
       width="135.78"
       height="19.58"
       id="rect1320" />
    <rect
       class="cls-5"
       x="973.79999"
       y="1180.92"
       width="135.78"
       height="19.58"
       id="rect1322" />
    <rect
       class="cls-5"
       x="954.66998"
       y="1032.37"
       width="130.31"
       height="19.58"
       id="rect1324" />
    <rect
       class="cls-5"
       x="975.47998"
       y="1328.39"
       width="135.78"
       height="19.58"
       id="rect1326" />
    <rect
       class="cls-5"
       x="1216.6899"
       y="1328.39"
       width="135.78"
       height="19.58"
       id="rect1328" />
    <rect
       class="cls-5"
       x="853.72998"
       y="883.81"
       width="193.56"
       height="19.58"
       id="rect1330" />
    <rect
       class="cls-5"
       x="1277.03"
       y="1402.13"
       width="135.78"
       height="19.58"
       id="rect1332" />
    <rect
       class="cls-6"
       x="1098.05"
       y="958.09003"
       width="76.010002"
       height="19.58"
       id="rect1334" />
    <rect
       class="cls-6"
       x="856.54999"
       y="1402.13"
       width="76.010002"
       height="19.58"
       id="rect1336" />
    <rect
       class="cls-6"
       x="1166.42"
       y="1254.66"
       width="37.290001"
       height="19.58"
       id="rect1338" />
    <rect
       class="cls-6"
       x="1553.85"
       y="662.60999"
       width="172.99001"
       height="19.58"
       id="rect1340" />
    <rect
       class="cls-6"
       x="1356.46"
       y="883.81"
       width="101.43"
       height="19.58"
       id="rect1342" />
    <rect
       class="cls-6"
       x="1277.03"
       y="1182.01"
       width="101.43"
       height="19.58"
       id="rect1344" />
    <rect
       class="cls-6"
       x="1030.97"
       y="736.34998"
       width="32.639999"
       height="19.58"
       id="rect1346" />
    <rect
       class="cls-6"
       x="1607.71"
       y="810.08002"
       width="86.5"
       height="19.58"
       id="rect1348" />
    <rect
       class="cls-6"
       x="1414.64"
       y="1254.66"
       width="86.5"
       height="19.58"
       id="rect1350" />
    <rect
       class="cls-6"
       x="1162.9399"
       y="1402.13"
       width="86.5"
       height="19.58"
       id="rect1352" />
    <rect
       class="cls-6"
       x="1011.71"
       y="810.08002"
       width="63.32"
       height="19.58"
       id="rect1354" />
    <rect
       class="cls-6"
       x="1024.33"
       y="1107.1899"
       width="63.32"
       height="19.58"
       id="rect1356" />
    <rect
       class="cls-8"
       x="852.09998"
       y="736.34998"
       width="99.059998"
       height="19.58"
       id="rect1358" />
    <rect
       class="cls-8"
       x="1116.41"
       y="1107.1899"
       width="78.209999"
       height="19.58"
       id="rect1360" />
    <rect
       class="cls-8"
       x="975.47998"
       y="736.34998"
       width="31.99"
       height="19.58"
       id="rect1362" />
    <rect
       class="cls-8"
       x="1521.21"
       y="736.34998"
       width="86.5"
       height="19.58"
       id="rect1364" />
    <rect
       class="cls-8"
       x="1314.28"
       y="736.34998"
       width="184.03999"
       height="19.58"
       id="rect1366" />
    <rect
       class="cls-8"
       x="1142.97"
       y="1182.01"
       width="107.52"
       height="19.58"
       id="rect1368" />
    <rect
       class="cls-8"
       x="1136.0601"
       y="1328.39"
       width="53.759998"
       height="19.58"
       id="rect1370" />
    <rect
       class="cls-8"
       x="1224.85"
       y="736.34998"
       width="63.32"
       height="19.58"
       id="rect1372" />
    <rect
       class="cls-8"
       x="1090.37"
       y="736.34998"
       width="110.32"
       height="19.58"
       id="rect1374" />
  </g>
  <g
     id="g1616"
     transform="translate(73.365129,72.144442)"
     style="stroke:#92e7e8;stroke-opacity:1">
    <path
       class="cls-10"
       d="m 1486.1143,1131.27 a 25.73,25.73 0 0 1 -13.3721,-8.849 19.29,19.29 0 0 1 -3.9855,-15.8452 c 1.4424,-10.9323 0.346,-22.6778 -0.8675,-30.7937 a 51.7,51.7 0 1 1 60.3854,14.1759 c -5.8773,9.5078 -10.0679,18.4511 -12.4532,26.5987 -2.4003,11.1248 -14.8827,17.9391 -27.7812,15.2283 -0.666,-0.1867 -1.297,-0.3459 -1.9259,-0.515 z m 34.3835,-134.39049 a 47.47,47.47 0 0 0 -48.9914,76.57829 l 0.3866,0.4563 0.091,0.6005 c 1.3418,8.4379 2.4978,21.0333 0.9564,32.7101 l -0.032,0.1567 a 15.12,15.12 0 0 0 3.1745,12.465 21.84,21.84 0 0 0 12.8172,7.7155 c 10.686,2.2495 20.9118,-3.1571 22.7861,-12.0519 l 0.031,-0.1568 c 2.5324,-8.6689 7.0076,-18.2073 13.2871,-28.2862 l 0.3512,-0.5713 0.6247,-0.2603 a 47.47,47.47 0 0 0 -5.4859,-89.3968 z"
       id="path1385"
       style="stroke:#92e7e8;stroke-opacity:1" />
    <polygon
       class="cls-10"
       points="1938.91,1325.15 1932.14,1268.81 1943.88,1278.52 1951.17,1270.44 1957.47,1278.02 1968.44,1268.72 1961.77,1325.16 1957.57,1324.66 1962.98,1278.89 1956.94,1284.01 1951.04,1276.9 1944.31,1284.37 1937.6,1278.82 1943.11,1324.65 "
       id="polygon1387"
       transform="rotate(11.520745,2765.7016,-1054.7365)"
       style="stroke:#92e7e8;stroke-opacity:1" />
    <rect
       class="cls-10"
       x="1671.1597"
       y="795.24536"
       width="36.669998"
       height="14.78"
       transform="rotate(11.900745)"
       id="rect1389"
       style="stroke:#92e7e8;stroke-opacity:1" />
    <rect
       class="cls-10"
       x="1665.2598"
       y="780.14587"
       width="48.470001"
       height="23.790001"
       transform="rotate(11.900745)"
       id="rect1391"
       style="stroke:#92e7e8;stroke-opacity:1" />
  </g>
  <polygon
     class="cls-11"
     points="1718.62,1004.05 1547.72,1004.05 1547.72,1127.92 1547.72,1154.01 1573.81,1127.92 1718.62,1127.92 "
     id="polygon1393"
     transform="translate(-325.54999,-98.359985)" />
  <g
     id="Layer_5"
     data-name="Layer 5"
     transform="translate(-325.54999,-98.359985)">
    <path
       class="cls-12"
       d="m 2075.5,1694.25 c -1.08,7.51 -46.22,39.12 -55.11,45.44 -7.14,5.07 -13.34,7.4 -24.13,11.45 v 0 c -24.51,6.45 -178.3,52.33 -178.3,52.33 a 19.32,19.32 0 0 0 -1.52,-4.67 c -5.74,2.29 -11.65,3.77 -15.4,4.94 -5.73,1.79 -51.18,3.22 -60.48,5 -9.3,1.78 -27.91,4.66 -35.43,-2.5 -7.52,-7.16 4.66,-22.55 15,-26.48 10.34,-3.93 48.31,-5 55.11,-5.73 6.8,-0.73 15.75,-3.22 20,-1.79 1.36,0.45 7.35,-1.31 14.93,-3.92 -0.19,-2.79 -0.24,-4.55 -0.24,-4.55 l 40.38,-11.64 -7.48,-71.49 c 0,0 17.57,-66.2 87.76,-15.7 0,0 15.66,4.6 21,6 a 6.42,6.42 0 0 0 1.79,0 c 10.71,-0.81 56.72,-14.73 73.35,-14.73 17.89,0 23.62,-1.07 30.06,2.15 6.44,3.22 19.78,28.37 18.71,35.89 z"
       id="path1396" />
    <path
       class="cls-12"
       d="m 2003.59,1806.25 c -7.51,7.16 -26.12,4.29 -35.42,2.5 -9.3,-1.79 -54.75,-3.22 -60.48,-5 -5.73,-1.78 -16.46,-4.29 -24,-9.3 a 24.28,24.28 0 0 0 -4,-1.76 v 0 l -11.37,8.2 -158,-50.3 c -9.47,-2.59 -17,-6.54 -22,-10.89 -8.23,-7.16 -54,-37.93 -55.11,-45.44 -1.11,-7.51 12.17,-32.57 18.61,-35.79 6.44,-3.22 12.16,-2.15 30.06,-2.15 17.9,0 69.77,16.11 75.14,14.68 2.44,-0.66 7.5,-3.23 12.28,-5.84 5.74,-3.14 11.1,-6.33 11.1,-6.33 76.85,-34.31 85.41,21.83 85.41,21.83 l -4.55,69.3 c 0,0 6.4,3.18 14.73,7.13 l 38.1,10.77 -5,3.6 c 2.15,0.69 3.68,1 4.3,0.8 4.29,-1.43 13.24,1.08 20,1.79 6.76,0.71 44.73,1.79 55.1,5.73 10.37,3.94 22.62,19.31 15.1,26.47 z"
       id="path1398" />
    <path
       class="cls-13"
       d="m 1769.32,1665.15 c 5.3,0.37 41.11,21.11 49.61,26.07 C 1806,1684.47 1757,1671 1757,1671 c 2.48,-0.67 7.54,-3.24 12.32,-5.85 z"
       id="path1400" />
    <path
       class="cls-13"
       d="m 1953.49,1671 c 0,0 -61.7,15 -73,21.23 0.52,-0.37 32.51,-24.68 49.32,-27.93 0,0 16.5,5.21 21.87,6.65 a 6.42,6.42 0 0 0 1.79,0 z"
       id="path1402" />
    <path
       class="cls-14"
       d="m 2003.59,1806.25 c -7.51,7.16 -26.12,4.29 -35.42,2.5 -9.3,-1.79 -54.75,-3.22 -60.48,-5 -1.64,-0.51 -3.7,-1.08 -6,-1.76 v 0 c -5.65,-1.67 -12.64,-4 -18,-7.54 a 24.28,24.28 0 0 0 -4,-1.76 l 28.6,-20.64 0.82,-0.59 c 2.15,0.69 3.68,1 4.3,0.8 4.29,-1.43 13.24,1.08 20,1.79 6.76,0.71 44.73,1.79 55.1,5.73 10.37,3.94 22.6,19.31 15.08,26.47 z"
       id="path1404" />
    <path
       class="cls-11"
       d="m 2003.59,1806.25 c -7.51,7.16 -26.12,4.29 -35.42,2.5 -9.3,-1.79 -54.75,-3.22 -60.48,-5 -1.64,-0.51 -3.7,-1.08 -6,-1.76 v 0 c 0,0 12.51,-12.38 6.6,-29.94 l 0.82,-0.59 c 2.15,0.69 3.68,1 4.3,0.8 4.29,-1.43 13.24,1.08 20,1.79 6.76,0.71 44.73,1.79 55.1,5.73 10.37,3.94 22.6,19.31 15.08,26.47 z"
       id="path1406" />
    <path
       class="cls-15"
       d="m 1991.82,1597.27 c -0.59,-1.21 -33.19,-52.48 -42,-75.86 -8.81,-23.38 -30.06,-34.12 -40.08,-37.46 -3.57,-1.19 -9.94,-3.26 -16.66,-5.43 -12.1,-3.92 -25.32,-8.16 -25.32,-8.16 H 1826 c 0,0 -14.47,4.84 -29.83,10.22 v 0 c -14.16,5 -29.06,10.39 -34.1,12.91 -10.49,5.24 -28.15,42.7 -31.72,47 -3.57,4.3 -31.1,55.3 -35.07,74.91 -3.09,15.22 87.28,59.83 89.75,65.54 2.86,-3.17 16,-15.79 16,-15.79 0,0 -4.21,-2.66 -10.15,-6.56 24.21,1.11 83.36,-1 91.85,-0.55 a 44.25,44.25 0 0 0 5.47,-0.12 v 0 c 2.63,1.91 19.57,16.87 19.57,16.87 0,0 41.74,-17.33 60.94,-36.74 27.29,-27.54 26.12,-34.7 23.11,-40.78 z m -237.37,33.93 c -9,-10.74 -21.26,-17.23 -18.16,-22 3.1,-4.77 29.34,-50.1 29.34,-50.1 0,0 13.6,29.82 17.42,45.33 3.82,15.51 3.51,22.6 1.9,27.43 -1.44,4.33 -2.6,7.27 -3.9,20.15 -10.7,-7.31 -22.5,-15.89 -26.6,-20.81 z m 184.58,-5.13 c -3.51,4 -17.39,12.81 -29.87,20.07 -1,-8.65 -2.38,-22.27 -2.54,-27.16 -0.24,-7.4 2.86,-28.63 6.68,-36.74 3.82,-8.11 6.44,-30.3 6.44,-30.3 0,0 31.61,42.94 36.62,47.48 5.01,4.54 -5.48,13.19 -17.36,26.65 z"
       id="path1408" />
    <path
       class="cls-14"
       d="m 1851.84,1355.61 c 0,0 32.65,5.14 27.67,56.23 -4.98,51.09 -33.78,46.89 -35.71,46.84 -1.93,-0.05 -28.93,0.93 -31,-61.44 -0.03,0 -0.95,-46.12 39.04,-41.63 z"
       id="path1410" />
    <path
       class="cls-14"
       d="m 1880,1397.41 c 0,0 3.57,-3.82 4.89,0 1.32,3.82 -4.88,21.1 -5.1,21.91 0,0 -0.66,1.5 -1.51,0.67 -0.85,-0.83 1.72,-22.58 1.72,-22.58 z"
       id="path1412" />
    <path
       class="cls-14"
       d="m 1813.65,1396.76 c 0,0 -3.5,-3.88 -4.89,0 -1.39,3.88 4.42,21.2 4.68,22 0,0 0.62,1.52 1.49,0.71 0.87,-0.81 -1.28,-22.71 -1.28,-22.71 z"
       id="path1414" />
    <path
       class="cls-16"
       d="m 1880,1405.24 -4.67,6.25 c 0,0 0.13,-13.7 -0.62,-15.85 -0.75,-2.15 -1.9,-8.71 -2.52,-10.25 -0.62,-1.54 -28,-9.23 -52.25,2.24 0,0 1.06,9.85 -1.26,10.73 -2.32,0.88 -1.18,16 -1.18,16 l -3.84,-4.34 c 0,0 -5.88,-39.3 -4.43,-43.39 1.45,-4.09 6.08,-28.72 55.75,-14.11 0,0 15.48,-3.28 18.59,7.42 3.11,10.7 -3.57,45.3 -3.57,45.3 z"
       id="path1416" />
    <path
       class="cls-17"
       d="m 1803.8,1731.89 c 0,0 -50,-30 -71.81,-34.66 -20.62,-4.46 -28.15,-12.17 -28.15,-12.17 0,0 32.81,0 54.63,15.51 14.83,10.53 45.33,31.32 45.33,31.32 z"
       id="path1418" />
    <path
       class="cls-17"
       d="m 1848.2,1752.77 c 0,0 86.93,-45.64 122.42,-55.54 20.32,-5.67 28.15,-12.17 28.15,-12.17 0,0 -53.74,5.25 -86.43,24.93 -15.57,9.38 -64.14,42.78 -64.14,42.78 z"
       id="path1420" />
    <path
       class="cls-14"
       d="m 1816.44,1798.8 c -5.74,2.29 -11.65,3.77 -15.4,4.94 -5.73,1.79 -51.18,3.22 -60.48,5 -9.3,1.78 -27.91,4.66 -35.43,-2.5 -7.52,-7.16 4.66,-22.55 15,-26.48 10.34,-3.93 48.31,-5 55.11,-5.73 6.8,-0.73 15.75,-3.22 20,-1.79 1.36,0.45 7.35,-1.31 14.93,-3.92 0.29,4.55 6.27,30.48 6.27,30.48 z"
       id="path1422" />
    <path
       class="cls-12"
       d="m 1848.2,1794.47 85.46,-25.29 -16.9,-5.16 c 0,0 -68.3,24.76 -68.56,30.45 z"
       id="path1424" />
    <polygon
       class="cls-12"
       points="1888.19,1782.27 1860.46,1798.38 1848.2,1794.47 "
       id="polygon1426" />
    <path
       class="cls-11"
       d="m 1801,1803.74 c -5.73,1.79 -51.18,3.22 -60.48,5 -9.3,1.78 -27.91,4.66 -35.43,-2.5 -7.52,-7.16 4.66,-22.55 15,-26.48 10.34,-3.93 48.31,-5 55.11,-5.73 6.8,-0.73 15.75,-3.22 20,-1.79 0.11,0.01 -11.36,17.55 5.8,31.5 z"
       id="path1428" />
    <path
       class="cls-6"
       d="m 1893.06,1478.52 c 0,0 -13.69,60.15 -46.3,60.15 -32.61,0 -50.61,-58.08 -50.61,-58.08 v 0 c 15.36,-5.38 29.83,-10.22 29.83,-10.22 h 41.75 c 0,0 13.27,4.23 25.33,8.15 z"
       id="path1430" />
    <path
       class="cls-9"
       d="m 1772.79,1685.06 -13.17,-74.91 170.26,-3.93 -11,73.71 c 0,0 -54.34,19.89 -72.79,31.5 0.03,0 -46.58,-19.16 -73.3,-26.37 z"
       id="path1432" />
    <path
       class="cls-18"
       d="m 1856.15,1655.33 c 0,6.19 -4.28,11.21 -9.55,11.21 -5.27,0 -9.54,-5 -9.54,-11.21 0,-6.21 4.27,-11.22 9.54,-11.22 5.27,0 9.55,5.02 9.55,11.22 z"
       id="path1434" />
    <path
       class="cls-14"
       d="m 1868.16,1470.5 a 0.57,0.57 0 0 0 0,-0.14 c -2,-4.55 -1,-26.73 -1,-26.73 0,0 -41.59,-10.58 -40.4,-2.49 1.19,8.09 -3.58,30.19 -3.58,30.19 l -21.33,7.3 c 0,0 22.73,61 48.85,53.16 26.12,-7.84 36,-55.36 36,-55.36 z"
       id="path1436" />
    <path
       class="cls-19"
       d="m 1826.61,1449.36 c 0,0 7.37,9.42 19,9.42 7.65,0 13.68,-2.67 21.3,-10.1 0,0 -3.85,14.64 -21.25,16 0,-0.05 -13.29,0.78 -19.05,-15.32 z"
       id="path1438" />
    <path
       class="cls-7"
       d="m 1463.28,1723.08 c 0,0 1.78,14.52 4.14,20.93 2.36,6.41 15.17,21.19 9.76,35.4 -5.87,15.4 -31.49,0.55 -41.93,-4.15 -10.44,-4.7 -8.08,-13.22 -9.19,-23.67 -1.11,-10.45 -6.21,-10.72 -4.33,-18.07 1.88,-7.35 13.31,-21.4 13.31,-21.4 z"
       id="path1440" />
    <path
       class="cls-20"
       d="m 1440,1704.52 c 0,0 -6.55,9.18 -6.37,9.43 0.18,0.25 28.09,17.24 30,11.73 a 56.12,56.12 0 0 0 2.19,-10.72 z"
       id="path1442" />
    <path
       class="cls-7"
       d="m 1345.36,1733.35 a 105.16,105.16 0 0 0 -16.16,18.93 c -7.65,11.47 -28,12.08 -28.82,27.74 -0.82,15.66 27.6,16.14 42.55,11 14.95,-5.14 17.2,-20.39 26.24,-24.21 9.04,-3.82 13.73,-6.92 13,-14.39 -0.73,-7.47 -5.7,-19.58 -5.7,-19.58 a 60.86,60.86 0 0 1 -8.91,2.16 c -3.27,0.4 -14.38,0.53 -22.2,-1.65 z"
       id="path1444" />
    <path
       class="cls-8"
       d="m 1447.8,1309.16 c 0,0 -5.73,34.07 -10.35,56.56 v 0 c -1.87,9.12 -3.56,16.34 -4.61,18.62 -1.32,2.86 -12.07,14.4 -25.23,28 -23.09,23.77 -53.59,53.7 -53.59,53.7 l -11.92,-22.64 c 0,0 27.09,-31.76 45.46,-53 8.5,-9.8 15.13,-17.35 16.35,-18.43 3.84,-3.44 8.29,-37.29 14.56,-65.18 6.27,-27.89 18.82,-43.3 18.82,-43.3 z"
       id="path1446" />
    <path
       class="cls-20"
       d="m 1407.61,1412.3 c -23.09,23.77 -53.59,53.7 -53.59,53.7 l -11.92,-22.64 c 0,0 27.09,-31.76 45.46,-53 5.63,2.81 15.97,9.39 20.05,21.94 z"
       id="path1448" />
    <path
       class="cls-20"
       d="m 1346.7,1722.92 -1.34,10.43 a 51.43,51.43 0 0 0 31.14,-0.47 l 0.34,-9.27 z"
       id="path1450" />
    <path
       class="cls-8"
       d="m 1557.07,1461.4 c 0.85,3 -157,0 -157,0 0,0 43.66,-31.78 46.49,-40.27 2.83,-8.49 -11.12,-59.42 -12.94,-76 -1.45,-13.26 -5.1,-72.59 3.64,-81.65 9.14,-9.48 42,-19.41 42,-19.41 l 48,1.78 a 75.45,75.45 0 0 1 13.58,4.29 c 5.66,2.62 38,14.15 43.28,30.32 5.28,16.17 -32.3,68.15 -32.3,68.15 0,0 -0.07,2.34 -0.18,6.17 v 0 c -0.15,5.11 -0.36,12.87 -0.56,21.28 -0.25,10.9 -0.47,22.9 -0.47,31.67 0.03,20.62 5.6,50.63 6.46,53.67 z"
       id="path1452" />
    <path
       class="cls-11"
       d="m 1557.07,1461.4 c 0,0 21.46,31.52 21.76,53 0.3,21.48 -38.09,93.61 -43.9,103.92 -17.47,31 -65.37,97.88 -65.37,97.88 0,0 -8.26,-0.21 -34,-10.21 0,0 31.87,-88.34 35.91,-97.51 17.13,-38.89 26.7,-66.48 20.94,-73.15 -5.76,-6.67 -21.47,-13.35 -26,-17.3 -4.53,-3.95 -83.77,15 -92.07,17.13 -21.49,5.57 -11.7,43 -6.94,59.73 8,28 14.91,129.35 14.91,129.35 0,0 -15.31,6.53 -41,1 0,0 -50.36,-182.9 -52,-201.09 -1.64,-18.19 -2.42,-48.19 121.67,-71 z"
       id="path1454" />
    <path
       class="cls-20"
       d="m 1492.49,1139.87 c 0,0 -41.64,-9.4 -32.13,43 9.51,52.4 19.53,56.52 44.65,45.67 25.12,-10.85 22.87,-44.42 24.13,-60.88 1.26,-16.46 -23.37,-27.22 -36.65,-27.79 z"
       id="path1456" />
    <path
       class="cls-20"
       d="m 1481.47,1257.53 c 0,0 18.44,19.55 47.59,1.79 0,0 -6.52,-42.37 -3.09,-63 3.43,-20.63 -38,32 -38,32 0.55,0.28 0.91,2.25 1,5 a 56.66,56.66 0 0 1 -0.43,8.4 c -0.9,6.88 -3.03,14.13 -7.07,15.81 z"
       id="path1458" />
    <path
       class="cls-21"
       d="m 1527.12,1194.56 c 0,0 -1.08,-16.51 -7.11,-17 -6.03,-0.49 -7,6.14 -7,6.14 l -6.09,1.15 c 0,0 1.93,-14.47 -4.09,-17 -6.02,-2.53 -39,8 -43.85,3.72 -4.85,-4.28 -2.56,-33.6 6.18,-37.62 8.74,-4.02 32.88,-13 50.57,-1.05 0,0 13.79,-1.57 15.83,9.56 2.04,11.13 -0.7,43.83 -4.44,52.1 z"
       id="path1460" />
    <path
       class="cls-22"
       d="m 1488.5,1241.74 c 30.07,-9.27 32.33,-27.37 32.36,-27.66 -9.9,17 -31.93,19.26 -31.93,19.26 a 56.66,56.66 0 0 1 -0.43,8.4 z"
       id="path1462" />
    <path
       class="cls-20"
       d="m 1541.36,1250.38 c 0,0 -22,43.83 -57.59,41 -35.59,-2.83 -6.06,-46.89 -4.44,-47.3 1.77,-0.44 36.48,-9.08 62.03,6.3 z"
       id="path1464" />
    <path
       class="cls-8"
       d="m 1382.05,1459.18 c 0,0 109,13.43 175,2.22 l -126.17,-15.77 c 0,0 -0.73,3.22 -48.83,13.55 z"
       id="path1466" />
    <path
       class="cls-20"
       d="m 1463.56,1440.67 -8.11,4.11 c 0,0 1.84,12.9 6.29,16.8 l 9.11,-2.32 c 0,0 -1.85,-14.15 -7.29,-18.59 z"
       id="path1468" />
    <path
       class="cls-8"
       d="m 1589.68,1414.26 c -1.62,1.88 -23,10.5 -47.26,19.82 v 0 c -33.06,12.74 -70.37,24.79 -70.37,24.79 l -8.49,-18.2 c 0,0 39.06,-21.23 65.46,-36.11 12.47,-7 22.11,-12.65 23.47,-14 4.25,-4 5.34,-10.52 2.22,-21.82 -3.12,-11.3 -10.3,-63.27 -11.11,-69.33 -0.81,-6.06 2,-22.23 17.18,-23 15.18,-0.77 22.87,3.47 22.87,3.47 0,0 3.81,1.58 6.64,38.37 2.83,36.79 3.23,91.56 -0.61,96.01 z"
       id="path1470" />
    <path
       class="cls-23"
       d="m 1551.67,1354.79 v 0 c -0.15,5.11 -0.36,12.87 -0.56,21.28 -14.79,-36.26 -6.24,-65.2 -6.1,-65.69 -1.6,9.84 6.54,43.93 6.66,44.41 z"
       id="path1472" />
    <path
       class="cls-23"
       d="m 1437.45,1365.72 v 0 c -1.87,9.12 -3.56,16.34 -4.61,18.62 -5,-24.46 -0.5,-55.77 -0.5,-55.77 0.66,14.97 5.11,37.15 5.11,37.15 z"
       id="path1474" />
    <path
       class="cls-20"
       d="m 1542.42,1434.08 v 0 c -33.06,12.74 -71.57,25.18 -71.57,25.18 l -7.29,-18.59 c 0,0 39.06,-21.23 65.46,-36.11 -0.02,0 9.6,4.68 13.4,29.52 z"
       id="path1476" />
    <polygon
       class="cls-2"
       points="1306.31,1458.06 1384.52,1497.77 1461.21,1460.34 "
       id="polygon1478" />
    <polygon
       class="cls-9"
       points="1384.52,1497.77 1461.21,1468.07 1461.21,1460.34 1378.45,1490.19 "
       id="polygon1480" />
    <path
       class="cls-20"
       d="m 1457.2,1445.06 c 0,0 -9.68,-1.5 -16.37,-3.06 -5.17,-1.21 -18,0.46 -21.32,3.78 -3.32,3.32 -13.7,26.46 -15.67,27.87 -1.97,1.41 1,4.68 4.47,3 0,0 3.18,10.13 11,6.34 7.82,-3.79 13.18,-12.07 17.29,-13.53 4.11,-1.46 28,-8.81 28,-8.81 0,0 -1.24,-18.05 -7.4,-15.59 z"
       id="path1482" />
    <path
       class="cls-20"
       d="m 1421.87,1444.26 c 0,0 -6.21,3 -7.83,4.34 -1.62,1.34 -8.2,6.26 -9.8,7.42 -1.6,1.16 2.41,4.45 14.17,-0.64 11.76,-5.09 3.46,-11.12 3.46,-11.12 z"
       id="path1484" />
    <polygon
       class="cls-9"
       points="1384.52,1497.77 1338.44,1371.97 1189.9,1374.39 1233.81,1490.33 "
       id="polygon1486" />
    <g
       class="cls-24"
       id="g1490">
      <path
         class="cls-12"
         d="m 1290.91,1427.62 c 4.53,9.06 3.16,18.93 -3.06,22.05 -6.22,3.12 -14.94,-1.72 -19.47,-10.78 -4.53,-9.06 -3.16,-18.93 3.06,-22 6.22,-3.07 14.94,1.67 19.47,10.73 z"
         id="path1488" />
    </g>
    <path
       class="cls-20"
       d="m 1513.18,1176.67 c 0.55,-4.62 9.69,-6.32 10.42,0.62 0.73,6.94 -4.15,19.09 -7.62,17.89 -3.47,-1.2 -3.56,-12.13 -2.8,-18.51 z"
       id="path1492" />
    <path
       class="cls-25"
       d="m 853,1211.33 c 0,0 -5.41,75.88 9.42,85 9.28,5.69 46.31,24.87 45.22,28.47 -1.09,3.6 -20.91,32 -20.91,32 0,0 -71.13,-46.84 -73.42,-61.61 -2.24,-14.42 3.5,-111.09 13.27,-115.55 7.33,-3.33 11.19,-0.57 20.42,6.28 13,9.59 6,25.41 6,25.41 z"
       id="path1494" />
    <path
       class="cls-6"
       d="m 844.76,1763.51 c 0,0 -2.21,15.35 -2.49,17.66 -0.28,2.31 -24.6,-1.36 -24.6,-1.36 l -2,-18.28 c 0,0 26.05,-0.19 29.09,1.98 z"
       id="path1496" />
    <path
       class="cls-9"
       d="m 842.53,1779.21 c 0,0 7.71,9.25 15.17,13.29 7.46,4.04 19.17,5.63 23.58,9.8 3.18,3 11.59,16 -19.38,15.72 -30.97,-0.28 -45.89,1.84 -49.21,-3.14 -3.32,-4.98 4.8,-36.71 4.8,-36.71 0,0 7.34,2.64 25.04,1.04 z"
       id="path1498" />
    <path
       class="cls-6"
       d="m 966.52,1763.51 c 0,0 -2.21,15.35 -2.49,17.66 -0.28,2.31 -24.6,-1.36 -24.6,-1.36 l -2,-18.28 c 0,0 26.05,-0.19 29.09,1.98 z"
       id="path1500" />
    <path
       class="cls-9"
       d="m 964.29,1779.21 c 0,0 7.71,9.25 15.16,13.29 7.45,4.04 34.9,7.34 39.3,11.52 3.19,3 8.48,15.14 -35.09,14 -30.95,-0.8 -45.89,1.84 -49.21,-3.14 -3.32,-4.98 4.8,-36.71 4.8,-36.71 0,0 6.91,2.83 25.04,1.04 z"
       id="path1502" />
    <path
       class="cls-25"
       d="m 853.49,1369 c 0,0 -22.86,36.32 -21.15,69.15 1.71,32.83 -2,67.9 -5.47,102.2 -3.83,38.23 -14.26,117.8 -14.83,138.25 -0.57,20.45 0.75,97.41 0.75,97.41 l 39.65,-0.3 c 0,0 14.07,-155.46 20.89,-171.61 6.82,-16.15 34.83,-132.94 36,-145.86 1.17,-12.92 -55.84,-89.24 -55.84,-89.24 z"
       id="path1504" />
    <path
       class="cls-25"
       d="m 973.83,1373.93 c 0,0 9,89.26 11.3,109.35 2.3,20.09 0.72,107.16 1.86,119.72 1.14,12.56 -7.6,145.39 -9.76,170.68 l -43.58,-0.27 c 0,0 -3,-107.45 -3,-159.66 0,-52.21 -13.4,-113 -28.75,-147.43 -15.35,-34.43 -50.48,-35.26 -59.91,-99.17 0.01,0 119.06,-13.48 131.84,6.78 z"
       id="path1506" />
    <path
       class="cls-26"
       d="m 877.64,1062.79 c 0,0 27.24,-18.19 46.36,1.29 19.12,19.48 28.53,65.32 14.8,74.46 -13.73,9.14 -37,11.55 -48.1,-0.86 -11.1,-12.41 -22.87,-31.33 -25.77,-45.16 -2.9,-13.83 5.8,-23.91 12.71,-29.73 z"
       id="path1508" />
    <path
       class="cls-26"
       d="m 929.54,1141.63 c 0,0 -0.36,19.15 1.75,23.23 2.11,4.08 -39.75,4.18 -39.75,4.18 0,0 -3.4,-22.19 -9.84,-41 -6.44,-18.81 47.84,13.59 47.84,13.59 z"
       id="path1510" />
    <path
       class="cls-27"
       d="m 882.74,1127.78 c 0,0 3.91,4 15,-0.52 11.09,-4.52 21.46,-23.08 25.86,-25.89 4.4,-2.81 3.78,-5.63 3.78,-5.63 l 4,3.68 5.16,-0.88 c 0,0 -7.86,-12.57 -2.17,-19.79 5.69,-7.22 -17.69,-42.51 -51.47,-21 0,0 -26.44,14.46 -21.62,30.3 4.82,15.84 13.25,33.22 21.46,39.73 z"
       id="path1512" />
    <path
       class="cls-7"
       d="m 933.77,1164.37 c 0,0 -0.13,-7.8 -3.66,-8.55 -3.53,-0.75 -39,-4.16 -43.35,-2.45 v 9.08 c 0,0 8.36,5.14 47.01,1.92 z"
       id="path1514" />
    <path
       class="cls-26"
       d="m 925.2,1090.07 c -1.28,-2.55 -10,-8.64 -10.63,0.23 -0.63,8.87 8.53,18.42 12,16.61 3.47,-1.81 1.88,-10.39 -1.37,-16.84 z"
       id="path1516" />
    <path
       class="cls-25"
       d="m 985.59,1175.17 c -25.24,-4.44 -51.82,-10.81 -51.82,-10.81 l -47,-1.91 c 0,0 -43.15,9.5 -60.15,17.17 -1.61,0.73 -1.62,38.5 -6,48.4 l 14.09,29.73 c 0,0 8.14,58.88 9.83,85.06 0.77,12 -16.79,112.73 -16.79,112.73 0,0 18.82,5.54 50.91,9.07 32.09,3.53 112.26,-1.27 112.77,-5.06 0.51,-3.79 -15.53,-141.13 -16.24,-148.24 -1.09,-10.92 3.15,-61.35 3.15,-61.35 6.05,8.12 34.79,43.43 50.86,60.87 9.45,10.27 44.2,28.09 52.26,31.7 17.42,7.78 45.33,25.64 46.35,23.78 0.82,-1.12 19.56,-32.82 17.36,-33.55 -1.92,-0.64 -60.3,-36.34 -77,-45.18 -6.1,-3.24 -29.84,-43.95 -29.84,-43.95 0,0 -38.81,-62.2 -52.74,-68.46 z"
       id="path1518" />
    <path
       class="cls-27"
       d="m 869.77,1067.48 c 0,0 -39,10.44 11.39,58.8 z"
       id="path1520" />
    <path
       class="cls-26"
       d="m 1167.29,1373.36 c 0,0 -3.43,0.08 -5,-0.61 0,0 -2.66,-1.48 -4.62,-2.41 a 13.73,13.73 0 0 0 -1.54,-0.66 c -1.55,-0.5 -5.1,-1.14 -8.48,-3.38 -3.38,-2.24 -14.51,-11.38 -14.51,-11.38 l 6.11,-10.87 2.46,-10.53 c 0,0 24.62,0.84 28,2.57 a 10.52,10.52 0 0 1 0.94,0.54 c 2.73,1.75 4,4.19 5.36,5.26 0.48,0.4 5,4.69 4.92,6.55 a 6.13,6.13 0 0 1 -2.86,5.21 c 0,0 -0.54,5 -3,7.46 0,0 -0.35,4.68 -4.23,6.8 0.08,0 -0.84,4.71 -3.55,5.45 z"
       id="path1522" />
    <path
       class="cls-28"
       d="m 593.93,1117.22 c 3.82,12.51 -1.06,25.08 -10.9,28.08 -9.84,3 -20.9,-4.7 -24.72,-17.21 -3.82,-12.51 1.06,-25.08 10.9,-28.08 9.84,-3 20.91,4.7 24.72,17.21 z"
       id="path1524" />
    <path
       class="cls-29"
       d="m 642.12,1184.45 c 0,0 13.91,4.36 21.85,15.28 7.94,10.92 9.19,26.18 9.54,34 0.35,7.82 2.49,38 2.49,38 l -23.59,6.61 z"
       id="path1526" />
    <path
       class="cls-7"
       d="m 742.09,1790.27 c 0,0 17.7,23.82 15.27,27.6 -2.43,3.78 -21,4.31 -32.36,0 -11.36,-4.31 -11.59,-32.23 -16.71,-44.22 -2.15,-5 2.44,-19.84 8.89,-20.92 6.45,-1.08 13.48,2.08 13.48,2.08 0,0 -6.66,16.9 11.43,35.46 z"
       id="path1528" />
    <path
       class="cls-30"
       d="m 730.78,1754.62 a 112.42,112.42 0 0 1 5.08,19.83 c 1.13,8 12.6,25.08 12.06,27.24 -0.54,2.16 -15.1,4.11 -21,-1.45 -5.9,-5.56 -9.75,-21.74 -11,-31.41 a 77.46,77.46 0 0 0 -2.76,-13.46 c 0,0 11.95,-6.68 17.62,-0.75 z"
       id="path1530" />
    <path
       class="cls-7"
       d="m 588.11,1790.67 c 0,0 17,23.42 14.62,27.2 -2.38,3.78 -21,4.31 -32.35,0 -11.35,-4.31 -11.6,-32.23 -16.72,-44.22 -2.15,-5 2.44,-19.84 8.9,-20.92 6.46,-1.08 14,2.31 14,2.31 0,0 -6.56,17.06 11.55,35.63 z"
       id="path1532" />
    <path
       class="cls-30"
       d="m 576.58,1755 a 160.86,160.86 0 0 0 3.5,18.88 c 2.16,7.82 13.75,25.61 13.22,27.77 -0.53,2.16 -15.1,4.11 -21,-1.45 -5.9,-5.56 -10.51,-21.66 -11,-31.41 a 51.8,51.8 0 0 1 1.35,-16.1 c 0,0 8.27,-3.58 13.93,2.31 z"
       id="path1534" />
    <path
       class="cls-30"
       d="m 661.8,1367.29 c 0,0 15.18,70.63 18.66,88.41 3.48,17.78 13.25,103.9 14.3,118.54 1.05,14.64 15.84,69.82 15.14,75 -0.7,5.18 21.94,110.29 21.94,110.29 0,0 -7.73,6.22 -15.88,0.56 -4.19,-2.91 -49.66,-98.35 -49.66,-124.5 0,-36.15 -26.72,-83.33 -30.17,-91.42 -32,-75.12 -25.73,-98.09 -29.92,-103 -4.19,-4.91 -4.55,3 -7,13.82 -2.45,10.82 -7.66,104.25 -10.8,116.11 -3.14,11.86 -0.7,52 -2.44,72.17 -1.74,20.17 -9.4,111.69 -9.4,111.69 0,0 -5.93,9.29 -14.25,0.24 -1.79,-1.94 -14.35,-101.89 -14.7,-126 -0.35,-24.11 -0.72,-57.23 -1.4,-67.64 -6.46,-99.69 -22.33,-113.93 2.67,-184.48 46.83,-131.98 112.91,-9.79 112.91,-9.79 z"
       id="path1536" />
    <path
       class="cls-6"
       d="m 559.85,1347.56 c 0,0 -43.25,60.53 -24.63,189.29 0,0 102.58,14 157.54,-16.14 0,0 -22.73,-132.76 -31,-153.42 -8.27,-20.66 -101.91,-19.73 -101.91,-19.73 z"
       id="path1538" />
    <polygon
       class="cls-7"
       points="707.81,1771.55 707.81,1796.49 711.05,1796.49 711.05,1777.21 "
       id="polygon1540" />
    <polygon
       class="cls-7"
       points="553.18,1771.55 553.18,1796.49 556.42,1796.49 556.42,1777.21 "
       id="polygon1542" />
    <path
       class="cls-29"
       d="m 617.89,1175.55 c 0,0 18.7,7.8 24.23,8.9 5.53,1.1 24.24,28.72 28,38.91 3.76,10.19 0,25.44 -7.75,43.37 -7.75,17.93 -0.44,23.9 -4,41.83 -3.56,17.93 7.89,56.15 8.55,66.1 0.66,9.95 -104,11.57 -124.62,-6.57 0,0 20.69,-31 23.34,-35.41 2.65,-4.41 0.45,-28.55 -2,-34.75 C 561.19,1291.73 545,1239 545,1239 c 0,0 -13.26,-40.47 -1.29,-49.77 10.41,-8.07 38.75,-11 43.84,-12.72 5.09,-1.72 19.94,-2.51 30.34,-0.96 z"
       id="path1544" />
    <path
       class="cls-30"
       d="m 625.5,1157.17 c 0,0 -0.44,4 -1,9.51 -0.23,2.45 -0.47,5.2 -0.7,8 -0.65,8 -1.18,16.76 -0.87,21.19 0,0 -16.56,16.6 -35.39,-19.36 0,0 7.93,-14.83 2,-35 -5.93,-20.17 35.96,15.66 35.96,15.66 z"
       id="path1546" />
    <path
       class="cls-30"
       d="m 631.14,1065.33 c 0,0 37.13,11.67 17,75.73 -20.13,64.06 -70.86,-7.42 -65.56,-46.46 5.3,-39.04 48.56,-29.27 48.56,-29.27 z"
       id="path1548" />
    <path
       class="cls-28"
       d="m 651.91,1102.71 c 0,0 -18.45,18.1 -49.32,20.37 0,0 -11.86,13.91 -12.77,19.37 0,0 -32.31,-54 6.31,-75.1 40.87,-22.35 68.22,23.76 55.78,35.36 z"
       id="path1550" />
    <path
       class="cls-30"
       d="m 602.35,1122.71 c -0.24,-4.66 -3.11,-15.27 -10,-12.3 -6.89,2.97 0.42,24.58 5,23.25 -0.02,0 5.57,0.09 5,-10.95 z"
       id="path1552" />
    <path
       class="cls-31"
       d="m 624.55,1166.68 c -0.23,2.45 -0.47,5.2 -0.7,8 v 0 c -21.46,-10.6 -24.75,-25.88 -24.84,-26.36 16.37,18.38 25.54,18.36 25.54,18.36 z"
       id="path1554" />
    <path
       class="cls-30"
       d="m 591.52,1306.62 c 0,0 8.58,-5.68 9.91,-6.5 1.33,-0.82 6,-0.56 10.84,1 a 90.84,90.84 0 0 1 11.41,4.33 c 0.76,0.43 1.52,0.57 1.19,2.78 a 8.42,8.42 0 0 1 -1.83,3.9 c 0,0 0.88,2.92 -1.12,4.86 a 4.49,4.49 0 0 1 -1.94,4.62 c 0,0 0.61,2.73 -1.41,3.91 0,0 -4.38,0.6 -6,0.25 -2.34,-0.5 -14.6,-3.32 -23.2,-5.58 -0.03,-0.04 -3.58,-2.19 2.15,-13.57 z"
       id="path1556" />
    <path
       class="cls-30"
       d="m 621.08,1304.71 c 0,0 22.2,4.88 21.93,6.6 -0.39,2.5 -5.9,3.42 -22.76,-1.22 -16.39,-4.52 0.83,-5.38 0.83,-5.38 z"
       id="path1558" />
    <path
       class="cls-29"
       d="m 566.35,1185.55 c -5,-3 -21.85,-2.71 -28.42,13.07 -6.57,15.78 -11.94,33.75 -16.54,42 -4.6,8.25 -20.26,45.91 -15.61,50.43 4.65,4.52 14.2,9.9 28.58,13.28 14.85,3.49 57.89,19.53 57.89,19.53 l 5.49,-23.31 c 0,0 -18.93,-9 -29.85,-13.41 -9.73,-3.9 -8.52,-4.93 -24.55,-10.6 0,0 9.2,-23.45 13.34,-29.71 4.14,-6.26 32.32,-47.57 9.67,-61.28 z"
       id="path1560" />
    <path
       class="cls-9"
       d="m 625,1346.34 57.6,-4.65 a 8.16,8.16 0 0 0 6.3,-3.86 L 748.6,1241 a 8.17,8.17 0 0 0 -6.86,-12.45 L 680,1227.9 a 8.15,8.15 0 0 0 -7.26,4.26 l -55.61,102.14 a 8.17,8.17 0 0 0 7.87,12.04 z"
       id="path1562" />
    <path
       class="cls-30"
       d="m 705.62,1310.74 a 53.61,53.61 0 0 0 6.85,-8.07 c 3.23,-4.71 13.78,-22.69 12.82,-23.82 -0.96,-1.13 -16.65,-1.51 -19.49,1.05 -2.84,2.56 2.8,3.56 2.8,3.56 0,0 -8.57,0.88 -8,3.3 0.57,2.42 5.77,1.75 5.77,1.75 0,0 -6.9,1.32 -5.85,3.45 1.05,2.13 4.36,2.1 4.36,2.1 0,0 -6.11,0.77 -5.35,3.09 0.76,2.32 10.43,4.51 9.13,6.44 a 45.33,45.33 0 0 0 -3.04,7.15 z"
       id="path1564" />
    <path
       class="cls-30"
       d="m 584.86,1177.23 c 0,0 20.79,33.86 37.29,33.47 16.5,-0.39 5.24,-31.32 5.24,-31.32 0,0 -12.66,-10.13 -42.53,-2.15 z"
       id="path1566" />
    <path
       class="cls-12"
       d="m 693.18,1290.87 c -5.57,5.57 -13.09,7.07 -16.81,3.36 -3.72,-3.71 -2.2,-11.24 3.37,-16.81 5.57,-5.57 13.1,-7.08 16.81,-3.36 3.71,3.72 2.21,11.24 -3.37,16.81 z"
       id="path1568" />
    <path
       class="cls-28"
       d="m 654.92,1093.81 c 0,0 2.32,8.89 -1.59,24.44 0,0 0.61,-14.64 -2.45,-18.63 -3.06,-3.99 4.04,-5.81 4.04,-5.81 z"
       id="path1570" />
  </g>
</svg>
