<?xml version="1.0" encoding="UTF-8" standalone="no"?>
<svg
   xmlns:dc="http://purl.org/dc/elements/1.1/"
   xmlns:cc="http://creativecommons.org/ns#"
   xmlns:rdf="http://www.w3.org/1999/02/22-rdf-syntax-ns#"
   xmlns:svg="http://www.w3.org/2000/svg"
   xmlns="http://www.w3.org/2000/svg"
   xmlns:xlink="http://www.w3.org/1999/xlink"
   xmlns:sodipodi="http://sodipodi.sourceforge.net/DTD/sodipodi-0.dtd"
   xmlns:inkscape="http://www.inkscape.org/namespaces/inkscape"
   viewBox="0 0 408.14999 387.82999"
   version="1.1"
   id="svg319"
   sodipodi:docname="Model--header.svg"
   width="408.14999"
   height="387.82999"
   inkscape:version="1.0.1 (0767f8302a, 2020-10-17)">
  <metadata
     id="metadata323">
    <rdf:RDF>
      <cc:Work
         rdf:about="">
        <dc:format>image/svg+xml</dc:format>
        <dc:type
           rdf:resource="http://purl.org/dc/dcmitype/StillImage" />
        <dc:title></dc:title>
      </cc:Work>
    </rdf:RDF>
  </metadata>
  <sodipodi:namedview
     pagecolor="#ffffff"
     bordercolor="#666666"
     borderopacity="1"
     objecttolerance="10"
     gridtolerance="10"
     guidetolerance="10"
     inkscape:pageopacity="0"
     inkscape:pageshadow="2"
     inkscape:window-width="1858"
     inkscape:window-height="1016"
     id="namedview321"
     showgrid="false"
     fit-margin-top="10"
     lock-margins="true"
     fit-margin-left="10"
     fit-margin-right="10"
     fit-margin-bottom="10"
     inkscape:zoom="1.74"
     inkscape:cx="203.7"
     inkscape:cy="102.87598"
     inkscape:window-x="62"
     inkscape:window-y="27"
     inkscape:window-maximized="1"
     inkscape:current-layer="svg319" />
  <defs
     id="defs33">
    <style
       id="style2">.cls-1{fill:#6ad8d5;}.cls-13,.cls-14,.cls-15,.cls-16,.cls-2,.cls-25,.cls-28,.cls-29,.cls-31,.cls-32,.cls-34,.cls-5,.cls-6,.cls-7,.cls-8,.cls-9{fill:none;}.cls-2,.cls-7{stroke:#187a7a;}.cls-13,.cls-15,.cls-16,.cls-2,.cls-25,.cls-28,.cls-29,.cls-31,.cls-32,.cls-34,.cls-5,.cls-6,.cls-7,.cls-8,.cls-9{stroke-linecap:round;}.cls-15,.cls-16,.cls-2,.cls-25,.cls-28,.cls-31,.cls-6,.cls-7,.cls-8{stroke-linejoin:round;}.cls-2{opacity:0.7;}.cls-21,.cls-3,.cls-37,.cls-4{fill:#fff;}.cls-3{opacity:0.42;}.cls-4,.cls-5{opacity:0.46;}.cls-5,.cls-8{stroke:#fff;}.cls-13,.cls-14,.cls-29,.cls-32,.cls-34,.cls-5,.cls-9{stroke-miterlimit:10;}.cls-14,.cls-29,.cls-34,.cls-6{stroke:#ea526f;}.cls-9{stroke:#5b061b;}.cls-35,.cls-36,.cls-9{opacity:0.5;}.cls-10,.cls-12{fill:#f56e65;}.cls-10{opacity:0.63;}.cls-11{fill:#032624;}.cls-13,.cls-25{stroke:#013e53;}.cls-15,.cls-16{stroke:#fffefe;}.cls-15{stroke-width:0.88px;}.cls-17,.cls-35{fill:#ea526f;}.cls-18{fill:#25ced1;}.cls-19{fill:url(#linear-gradient);}.cls-20{fill:#187a7a;}.cls-22{fill:#013e53;}.cls-23{fill:#bbefed;}.cls-24{fill:#1faaad;}.cls-26{fill:url(#linear-gradient-2);}.cls-27{fill:#fffefe;}.cls-28{stroke:#0c3a39;}.cls-29{stroke-width:5.54px;}.cls-30{fill:#039eb0;}.cls-31,.cls-32{stroke:#039eb0;}.cls-33{fill:url(#linear-gradient-3);}.cls-34{opacity:0.48;}.cls-36{fill:#57726a;}.cls-37{opacity:0.47;}</style>
    <linearGradient
       id="linear-gradient"
       x1="-45.57"
       y1="127.02"
       x2="-28.49"
       y2="127.02"
       gradientTransform="matrix(-1,0,0,1,212.32,0)"
       gradientUnits="userSpaceOnUse">
      <stop
         offset="0"
         stop-color="#fff"
         id="stop4" />
      <stop
         offset="0.15"
         stop-color="#fff"
         stop-opacity="0.76"
         id="stop6" />
      <stop
         offset="0.32"
         stop-color="#fff"
         stop-opacity="0.53"
         id="stop8" />
      <stop
         offset="0.49"
         stop-color="#fff"
         stop-opacity="0.34"
         id="stop10" />
      <stop
         offset="0.64"
         stop-color="#fff"
         stop-opacity="0.19"
         id="stop12" />
      <stop
         offset="0.78"
         stop-color="#fff"
         stop-opacity="0.09"
         id="stop14" />
      <stop
         offset="0.91"
         stop-color="#fff"
         stop-opacity="0.02"
         id="stop16" />
      <stop
         offset="1"
         stop-color="#fff"
         stop-opacity="0"
         id="stop18" />
    </linearGradient>
    <linearGradient
       id="linear-gradient-2"
       x1="39.970001"
       y1="141.21001"
       x2="87.059998"
       y2="141.21001"
       xlink:href="#linear-gradient" />
    <linearGradient
       id="linear-gradient-3"
       x1="287.60999"
       y1="216.41"
       x2="417.47"
       y2="216.41"
       gradientUnits="userSpaceOnUse">
      <stop
         offset="0"
         stop-color="#fff"
         id="stop22" />
      <stop
         offset="0.22"
         stop-color="#fff"
         stop-opacity="0.76"
         id="stop24" />
      <stop
         offset="0.6"
         stop-color="#fff"
         stop-opacity="0.36"
         id="stop26" />
      <stop
         offset="0.87"
         stop-color="#fff"
         stop-opacity="0.1"
         id="stop28" />
      <stop
         offset="1"
         stop-color="#fff"
         stop-opacity="0"
         id="stop30" />
    </linearGradient>
    <linearGradient
       inkscape:collect="always"
       xlink:href="#linear-gradient"
       id="linearGradient1149"
       gradientUnits="userSpaceOnUse"
       gradientTransform="matrix(-1,0,0,1,212.32,0)"
       x1="-45.57"
       y1="127.02"
       x2="-28.49"
       y2="127.02" />
  </defs>
  <g
     id="OBJECTS"
     transform="translate(-46.299999,-55.169998)">
    <line
       class="cls-2"
       x1="119.46"
       y1="91.669998"
       x2="160.32001"
       y2="91.669998"
       id="line38" />
    <polyline
       class="cls-2"
       points="372.83 168.95 410.13 168.95 410.13 153.64 433.57 153.64"
       id="polyline40" />
    <polyline
       class="cls-2"
       points="129.53 210.8 107.94 210.8 107.94 202.43 81.67 202.43"
       id="polyline42" />
    <polyline
       class="cls-2"
       points="153.9 233 137.24 233 137.24 241.07"
       id="polyline44" />
    <line
       class="cls-2"
       x1="98.5"
       y1="334.92001"
       x2="129.53"
       y2="334.92001"
       id="line46" />
    <polyline
       class="cls-2"
       points="390.32 336.23 390.32 351.99 419.25 351.99 419.25 369.35"
       id="polyline48" />
    <polyline
       class="cls-2"
       points="78.44 307.69 88.25 307.69 88.25 314 98.5 314"
       id="polyline50" />
    <line
       class="cls-2"
       x1="313.42001"
       y1="81.5"
       x2="338.57999"
       y2="81.5"
       id="line52" />
    <line
       class="cls-2"
       x1="237.89"
       y1="65.669998"
       x2="248.16"
       y2="65.669998"
       id="line54" />
    <rect
       class="cls-3"
       x="340.98999"
       y="280.63"
       width="74.68"
       height="30.440001"
       rx="3"
       id="rect56"
       ry="3" />
    <rect
       class="cls-3"
       x="78.440002"
       y="249.57001"
       width="102.2"
       height="47.23"
       rx="3"
       id="rect58"
       ry="3" />
    <path
       class="cls-4"
       d="M 173.33,258.33 H 85.74 a 2.08,2.08 0 0 1 -2.08,-2.08 v 0 a 2.08,2.08 0 0 1 2.08,-2.08 h 87.59 a 2.08,2.08 0 0 1 2.08,2.08 v 0 a 2.08,2.08 0 0 1 -2.08,2.08 z"
       id="path60" />
    <path
       class="cls-4"
       d="M 173.33,266.71 H 85.74 a 2.09,2.09 0 0 1 -2.08,-2.08 v 0 a 2.09,2.09 0 0 1 2.08,-2.09 h 87.59 a 2.09,2.09 0 0 1 2.08,2.09 v 0 a 2.09,2.09 0 0 1 -2.08,2.08 z"
       id="path62" />
    <rect
       class="cls-4"
       x="83.660004"
       y="270.92001"
       width="91.75"
       height="4.1700001"
       rx="2.0799999"
       id="rect64"
       ry="2.0799999" />
    <path
       class="cls-4"
       d="M 173.33,283.46 H 85.74 a 2.08,2.08 0 0 1 -2.08,-2.08 v 0 a 2.08,2.08 0 0 1 2.08,-2.08 h 87.59 a 2.08,2.08 0 0 1 2.08,2.08 v 0 a 2.08,2.08 0 0 1 -2.08,2.08 z"
       id="path66" />
    <path
       class="cls-4"
       d="M 173.33,291.84 H 85.74 a 2.09,2.09 0 0 1 -2.08,-2.08 v 0 a 2.09,2.09 0 0 1 2.08,-2.09 h 87.59 a 2.09,2.09 0 0 1 2.08,2.09 v 0 a 2.09,2.09 0 0 1 -2.08,2.08 z"
       id="path68" />
    <rect
       class="cls-3"
       x="177.17999"
       y="94.870003"
       width="66.690002"
       height="72.139999"
       rx="3"
       id="rect70"
       ry="3" />
    <rect
       class="cls-4"
       x="180.63"
       y="99.25"
       width="59.119999"
       height="24.75"
       rx="2.8800001"
       id="rect72"
       ry="2.8800001" />
    <line
       class="cls-5"
       x1="184.49001"
       y1="103.64"
       x2="236.56"
       y2="103.64"
       id="line74" />
    <line
       class="cls-5"
       x1="184.49001"
       y1="106.97"
       x2="236.56"
       y2="106.97"
       id="line76" />
    <line
       class="cls-5"
       x1="184.49001"
       y1="110.31"
       x2="236.56"
       y2="110.31"
       id="line78" />
    <line
       class="cls-5"
       x1="184.49001"
       y1="113.65"
       x2="236.56"
       y2="113.65"
       id="line80" />
    <line
       class="cls-5"
       x1="184.49001"
       y1="116.98"
       x2="236.56"
       y2="116.98"
       id="line82" />
    <line
       class="cls-5"
       x1="184.49001"
       y1="120.32"
       x2="236.56"
       y2="120.32"
       id="line84" />
    <line
       class="cls-6"
       x1="345.5"
       y1="295.85999"
       x2="409"
       y2="295.85999"
       id="line86" />
    <path
       class="cls-7"
       d="m 345.5,292.05 c 3.53,0 3.53,7.62 7.05,7.62 3.52,0 3.53,-7.62 7.05,-7.62 3.52,0 3.53,7.62 7.06,7.62 3.53,0 3.52,-7.62 7,-7.62 3.48,0 3.53,7.62 7.06,7.62 3.53,0 3.52,-7.62 7.05,-7.62 3.53,0 3.53,7.62 7.06,7.62 3.53,0 3.53,-7.62 7.06,-7.62 3.53,0 3.53,7.62 7.06,7.62"
       id="path88" />
    <rect
       class="cls-3"
       x="305.32999"
       y="188.08"
       width="70.82"
       height="35.099998"
       rx="3"
       id="rect90"
       ry="3" />
    <rect
       class="cls-8"
       x="352.73999"
       y="195.38"
       width="14"
       height="14"
       transform="rotate(-45,359.73904,202.38121)"
       id="rect92" />
    <rect
       class="cls-9"
       x="342.29999"
       y="195.38"
       width="14"
       height="14"
       transform="rotate(-45,349.28852,202.37996)"
       id="rect94" />
    <polyline
       class="cls-8"
       points="307.67 216.41 369.64 216.41 369.64 209.22"
       id="polyline96" />
    <line
       class="cls-8"
       x1="317.13"
       y1="212.28"
       x2="337.38"
       y2="212.28"
       id="line98" />
    <line
       class="cls-8"
       x1="319.06"
       y1="209.45"
       x2="335.44"
       y2="209.45"
       id="line100" />
    <line
       class="cls-8"
       x1="320.13"
       y1="206.62"
       x2="334.38"
       y2="206.62"
       id="line102" />
    <line
       class="cls-8"
       x1="321.26001"
       y1="203.78999"
       x2="333.23999"
       y2="203.78999"
       id="line104" />
    <line
       class="cls-8"
       x1="322.95001"
       y1="200.96001"
       x2="331.54999"
       y2="200.96001"
       id="line106" />
    <line
       class="cls-8"
       x1="324.34"
       y1="198.13"
       x2="330.16"
       y2="198.13"
       id="line108" />
    <rect
       class="cls-3"
       x="414.47"
       y="183.25999"
       width="29.98"
       height="63.740002"
       rx="2.9100001"
       id="rect110"
       ry="2.9100001" />
    <rect
       class="cls-10"
       x="417.47"
       y="191.60001"
       width="22.530001"
       height="38.23"
       id="rect112" />
    <path
       class="cls-11"
       d="m 435.89,204.6 a 4.78,4.78 0 0 0 -0.95,-4.5 10,10 0 0 0 -4.31,-2.79 13,13 0 0 0 -5.83,-1 6.85,6.85 0 0 0 -5.05,2.81 2.08,2.08 0 0 0 -0.18,2.43 1.68,1.68 0 0 0 1.95,0.25 4.82,4.82 0 0 0 1.56,-1.39 1.5391231,1.5391231 0 1 0 2.34,2 1.24,1.24 0 0 0 0.95,1.23 2.43,2.43 0 0 0 2.13,-1.09 1,1 0 0 0 0.14,1.46 1.07,1.07 0 0 0 1.28,-0.08 2.57,2.57 0 0 0 -0.4,2.15 1.32,1.32 0 0 0 -2.53,0.75 1.45,1.45 0 1 0 -2.8,0.68 2.26,2.26 0 0 0 -3.59,0 3.26,3.26 0 0 0 0.39,3.91 5.86,5.86 0 0 0 3.76,1.74 10.11,10.11 0 0 0 6.7,-1.56 c 0.05,1 0.16,2 0.26,3 v 0.28 a 7.38,7.38 0 0 0 -2.3,-0.56 4.36,4.36 0 0 0 -3.31,1.08 3,3 0 0 0 -0.73,3.28 c 0.16,0 0.29,0 0.45,0 l 0.66,-1.32 a 1.5,1.5 0 0 0 0.57,1.59 l 0.45,-1.47 a 2.59,2.59 0 0 0 0.85,1.74 8.53,8.53 0 0 0 0.62,-2.86 19.93,19.93 0 0 1 3,0.56 c 0,0.31 0.07,0.61 0.11,0.92 a 4.39,4.39 0 0 0 -3.19,1.08 3,3 0 0 0 -0.72,3.29 c 0.16,0 0.29,0 0.45,0 l 0.66,-1.32 a 1.5,1.5 0 0 0 0.57,1.59 l 0.45,-1.47 a 2.55,2.55 0 0 0 0.85,1.74 8.53,8.53 0 0 0 0.62,-2.86 l 0.6,0.09 a 39.46,39.46 0 0 0 2.48,9.78 H 440 v -20.84 a 19.6,19.6 0 0 0 -4.11,-4.32 z m -3.11,-2.22 a 1,1 0 1 1 1,-1 1,1 0 0 1 -1,1 z"
       id="path114" />
    <path
       class="cls-12"
       d="m 423.75,235.17 h -5.2 a 1.09,1.09 0 0 1 -1.08,-1.09 v 0 a 1.09,1.09 0 0 1 1.08,-1.08 h 5.2 a 1.08,1.08 0 0 1 1.08,1.08 v 0 a 1.08,1.08 0 0 1 -1.08,1.09 z"
       id="path116" />
    <path
       class="cls-12"
       d="m 438,235.17 h -5.2 a 1.09,1.09 0 0 1 -1.08,-1.09 v 0 A 1.09,1.09 0 0 1 432.8,233 h 5.2 a 1.08,1.08 0 0 1 1.08,1.08 v 0 a 1.08,1.08 0 0 1 -1.08,1.09 z"
       id="path118" />
    <rect
       class="cls-12"
       x="417.47"
       y="237.00999"
       width="21.639999"
       height="2.1700001"
       rx="1.08"
       id="rect120"
       ry="1.08" />
    <rect
       class="cls-12"
       x="417.47"
       y="241.08"
       width="21.639999"
       height="2.1700001"
       rx="1.08"
       id="rect122"
       ry="1.08" />
    <rect
       class="cls-3"
       x="56.299999"
       y="109.96"
       width="73.239998"
       height="62.27"
       rx="3"
       id="rect124"
       ry="3" />
    <path
       class="cls-13"
       d="m 64.5,162.87 c 0.33,-0.2 13.83,-15.8 13.83,-15.8 h 7.17 l 6.67,-7.74 h 8.77 l 20.56,-21.25"
       id="path126" />
    <polyline
       class="cls-14"
       points="68.17 151.37 76.17 142.73 95.33 142.73 95.33 132.27 118.67 132.27"
       id="polyline128" />
    <line
       class="cls-15"
       x1="62.630001"
       y1="119.07"
       x2="65.440002"
       y2="119.07"
       id="line130" />
    <line
       class="cls-15"
       x1="62.630001"
       y1="124.45"
       x2="66.5"
       y2="124.45"
       id="line132" />
    <line
       class="cls-15"
       x1="62.630001"
       y1="129.83"
       x2="65.440002"
       y2="129.83"
       id="line134" />
    <line
       class="cls-15"
       x1="62.630001"
       y1="135.22"
       x2="66.5"
       y2="135.22"
       id="line136" />
    <line
       class="cls-15"
       x1="62.630001"
       y1="140.60001"
       x2="65.440002"
       y2="140.60001"
       id="line138" />
    <line
       class="cls-15"
       x1="62.630001"
       y1="145.98"
       x2="66.5"
       y2="145.98"
       id="line140" />
    <line
       class="cls-15"
       x1="62.630001"
       y1="151.37"
       x2="65.440002"
       y2="151.37"
       id="line142" />
    <line
       class="cls-15"
       x1="62.630001"
       y1="156.75"
       x2="66.5"
       y2="156.75"
       id="line144" />
    <polyline
       class="cls-16"
       points="62.5 115.75 62.5 165.14 114 165.14"
       id="polyline146" />
    <polyline
       class="cls-14"
       points="117.6 134.12 119.73 132.27 117.6 130.41"
       id="polyline148" />
    <polyline
       class="cls-13"
       points="116.98 118.94 121.94 117.63 121.5 122.94"
       id="polyline150" />
    <rect
       class="cls-3"
       x="302.22"
       y="91.669998"
       width="100.99"
       height="56.279999"
       rx="3"
       id="rect152"
       ry="3" />
    <rect
       class="cls-4"
       x="305.32001"
       y="94.870003"
       width="50.18"
       height="24.940001"
       rx="1.9400001"
       id="rect154"
       ry="1.9400001" />
    <path
       class="cls-4"
       d="M 396.56,99.25 H 360.19 A 2.19,2.19 0 0 1 358,97.06 v 0 a 2.19,2.19 0 0 1 2.19,-2.19 h 36.37 a 2.19,2.19 0 0 1 2.19,2.19 v 0 a 2.19,2.19 0 0 1 -2.19,2.19 z"
       id="path156" />
    <path
       class="cls-4"
       d="M 396.56,106.71 H 360.19 A 2.19,2.19 0 0 1 358,104.52 v 0 a 2.19,2.19 0 0 1 2.19,-2.19 h 36.37 a 2.19,2.19 0 0 1 2.19,2.19 v 0 a 2.19,2.19 0 0 1 -2.19,2.19 z"
       id="path158" />
    <path
       class="cls-4"
       d="M 396.56,114.17 H 360.19 A 2.19,2.19 0 0 1 358,112 v 0 a 2.19,2.19 0 0 1 2.19,-2.19 h 36.37 a 2.19,2.19 0 0 1 2.19,2.19 v 0 a 2.19,2.19 0 0 1 -2.19,2.17 z"
       id="path160" />
    <path
       class="cls-4"
       d="M 396.56,121.63 H 360.19 A 2.19,2.19 0 0 1 358,119.44 v 0 a 2.19,2.19 0 0 1 2.19,-2.19 h 36.37 a 2.19,2.19 0 0 1 2.19,2.19 v 0 a 2.19,2.19 0 0 1 -2.19,2.19 z"
       id="path162" />
    <path
       class="cls-4"
       d="M 396.56,129.09 H 360.19 A 2.2,2.2 0 0 1 358,126.9 v 0 a 2.19,2.19 0 0 1 2.19,-2.19 h 36.37 a 2.19,2.19 0 0 1 2.19,2.19 v 0 a 2.2,2.2 0 0 1 -2.19,2.19 z"
       id="path164" />
    <path
       class="cls-4"
       d="M 396.56,136.54 H 360.19 A 2.19,2.19 0 0 1 358,134.35 v 0 a 2.19,2.19 0 0 1 2.19,-2.19 h 36.37 a 2.19,2.19 0 0 1 2.19,2.19 v 0 a 2.19,2.19 0 0 1 -2.19,2.19 z"
       id="path166" />
    <rect
       class="cls-4"
       x="358"
       y="139.62"
       width="40.75"
       height="4.3800001"
       rx="2.1900001"
       id="rect168"
       ry="2.1900001" />
    <path
       class="cls-11"
       d="m 323.46,129.09 h -15.59 a 2.56,2.56 0 0 1 -2.55,-2.55 v 0 a 2.55,2.55 0 0 1 2.55,-2.54 h 15.59 a 2.54,2.54 0 0 1 2.54,2.54 v 0 a 2.55,2.55 0 0 1 -2.54,2.55 z"
       id="path170" />
    <path
       class="cls-11"
       d="m 323.46,137.21 h -15.59 a 2.56,2.56 0 0 1 -2.55,-2.55 v 0 a 2.56,2.56 0 0 1 2.55,-2.54 h 15.59 a 2.55,2.55 0 0 1 2.54,2.54 v 0 a 2.55,2.55 0 0 1 -2.54,2.55 z"
       id="path172" />
    <circle
       class="cls-17"
       cx="345.82999"
       cy="107"
       r="5.75"
       id="circle174" />
    <path
       class="cls-18"
       d="m 336.16,107 a 5.75,5.75 0 1 1 -5.75,-5.75 V 107 Z"
       id="path176" />
    <path
       class="cls-11"
       d="m 320.74,107 a 5.75,5.75 0 1 0 -5.75,5.75 V 107 Z"
       id="path178" />
  </g>
  <g
     id="Layer_4"
     data-name="Layer 4"
     transform="translate(-46.299999,-55.169998)">
    <path
       class="cls-17"
       d="m 337.36,365.35 -1.95,6.35 a 1.27,1.27 0 0 0 1.21,1.65 h 22.89 a 0.56,0.56 0 0 0 0.27,-1 l -12.58,-7 z"
       id="path181" />
    <polygon
       class="cls-11"
       points="347.2,365.35 337.36,365.35 275.34,245.73 246.03,222.63 315.53,222.63 "
       id="polygon183" />
    <path
       class="cls-17"
       d="m 220.75,365.35 2,6.35 a 1.28,1.28 0 0 1 -1.22,1.65 h -22.92 a 0.55,0.55 0 0 1 -0.27,-1 l 12.57,-7 z"
       id="path185" />
    <polygon
       class="cls-11"
       points="210.91,365.35 220.75,365.35 282.77,245.73 312.08,222.63 242.59,222.63 "
       id="polygon187" />
    <polygon
       class="cls-19"
       points="240.8,159.16 257.89,138.1 257.89,125.8 240.88,94.87 "
       id="polygon189"
       style="fill:url(#linearGradient1149)" />
    <path
       class="cls-20"
       d="m 251.74,131.94 a 6.18,6.18 0 0 0 6.15,6.15 H 273 a 6.15,6.15 0 0 0 0,-12.29 h -15.11 a 6.16,6.16 0 0 0 -6.15,6.14 z"
       id="path191" />
    <path
       class="cls-20"
       d="m 257.4,131.94 a 6.18,6.18 0 0 0 6.16,6.15 H 273 a 6.15,6.15 0 0 0 0,-12.29 h -9.4 a 6.16,6.16 0 0 0 -6.2,6.14 z"
       id="path193" />
    <path
       class="cls-21"
       d="m 282.46,155.65 0.44,0.15 a 29.6,29.6 0 0 1 -5.64,-16.8 26.29,26.29 0 0 0 -10.06,4.54 27.3,27.3 0 0 1 3,13.29 93.36,93.36 0 0 1 13,-1.19 l -1.36,0.11 z"
       id="path195" />
    <path
       class="cls-21"
       d="m 271.65,122.35 c -3,-0.53 -6.46,-1 -8.92,0.9 -1.93,1.47 -2.7,4 -3.11,6.38 a 34.45,34.45 0 0 0 -0.11,11.1 c 0.47,3.08 1.69,6.48 4.57,7.66 2.88,1.18 6,-0.32 8.41,-2.22 4,-3.2 7,-7.94 7.21,-13.08 0.21,-5.14 -2.91,-10.47 -7.81,-12 z"
       id="path197" />
    <path
       class="cls-22"
       d="m 284.18,133.85 a 16.79,16.79 0 0 1 -1.09,5.54 10.29,10.29 0 0 1 -5.09,5.61 7.28,7.28 0 0 1 -2.62,0.61 6.7,6.7 0 0 1 -1.95,-0.19 10,10 0 0 1 -4.46,-2.46 l -0.33,-0.34 a 22.25,22.25 0 0 1 -3.78,-5.44 l 0.21,-0.55 c -0.77,-0.9 -1.52,-1.8 -2.23,-2.75 a 21.39,21.39 0 0 1 -2,-3.17 11.57,11.57 0 0 1 -0.5,-1.14 9.67,9.67 0 0 1 0.49,-8.18 c 2.07,-3 6.41,-3.73 9.81,-2.48 1.44,0.52 2.78,1.34 4.25,1.77 2.17,0.61 4.67,0.38 6.51,1.71 2,1.45 2.47,4.22 2.66,6.69 0,0.55 0.09,1.09 0.11,1.63 a 30.53,30.53 0 0 1 0.01,3.14 z"
       id="path199" />
    <path
       class="cls-21"
       d="m 340.52,137.45 a 4.82,4.82 0 0 0 -2.2,-2.88 c -1,-0.65 -2.36,-1.06 -3.07,-2 -1,-1.36 -0.93,-3.15 -0.84,-4.8 0.29,-5 0.7,-8.29 1,-13.31 a 1.5,1.5 0 0 1 0.53,-1.29 1.09,1.09 0 0 1 1.35,0.38 2.89,2.89 0 0 1 0.44,1.41 c 0.5,3.84 0.83,5.92 1.22,9.77 h 7.3 a 3.23,3.23 0 0 1 3.3,3.55 c -0.39,3.24 -1.74,7.58 -4.48,9.6 z"
       id="path201" />
    <path
       class="cls-23"
       d="m 230.93,186.2 c 3.52,-14 13.32,-26.5 26.45,-32.56 13.13,-6.06 29.37,-5.26 41.45,2.7 3.43,2.26 6.51,5 10,7.22 3.49,2.22 7.52,3.82 11.61,3.4 5.67,-0.6 10.26,-5 13.19,-9.91 a 35.87,35.87 0 0 0 4.78,-22.39 h 9.12 c 3.91,12.28 8.27,25 4.47,37.31 a 31.77,31.77 0 0 1 -43.28,19.66 l 6.83,31 H 246 Z"
       id="path203" />
    <path
       class="cls-24"
       d="m 284.18,133.85 h -30.57 v -3.17 h 30.54 a 30.53,30.53 0 0 1 0.03,3.17 z"
       id="path205" />
    <path
       class="cls-21"
       d="m 262.74,136.47 a 7.74,7.74 0 0 1 0.69,-2.73 2.6,2.6 0 0 1 2.25,-1.47 3,3 0 0 1 2.38,2.08 6.11,6.11 0 0 1 -5.69,8.38"
       id="path207" />
    <path
       class="cls-25"
       d="m 303,186 a 12.17,12.17 0 0 0 5,5"
       id="path209" />
    <polygon
       class="cls-26"
       points="125.25,172.47 172.34,143.67 172.34,131.37 125.49,109.96 "
       id="polygon211"
       style="fill:url(#linear-gradient-2)" />
    <path
       class="cls-22"
       d="m 176.59,140.94 a 12.51,12.51 0 0 1 1.25,13.19 c -2.19,4.25 -6.79,7.07 -8.26,11.62 -1.61,4.93 1.17,10.49 5.42,13.46 4.25,2.97 9.61,3.83 14.79,4 2.53,0.1 5.22,0 7.32,-1.39 2.95,-2 3.87,-5.83 4.29,-9.34 A 44.16,44.16 0 0 0 200.79,156.43 24.21,24.21 0 0 0 192.42,143 c -4.28,-3.27 -10.14,-4.64 -15.24,-2.91"
       id="path213" />
    <path
       class="cls-22"
       d="m 254.64,165.78 c -1.15,14.93 -17.07,21.91 -17.07,21.91 L 203,175.23 l -8.27,-9.42 0.86,-5.09 3.62,-21.62 0.18,-1 h 11.93 c 0,0 0,0.07 0,0.2 a 5.83,5.83 0 0 0 0.13,0.84 c 0.51,2.5 3.05,8.53 15.43,7 15.54,-1.99 28.91,4.7 27.76,19.64 z"
       id="path215" />
    <path
       class="cls-21"
       d="M 123.18,149.11 V 149 a 9.1,9.1 0 0 0 -2,-5.77 c -4.12,-5 -10.21,-5.78 -16,-5.64 -3.14,0.07 -8,0.25 -11.86,0.14 a 0.59,0.59 0 0 0 -0.24,1.13 23.86,23.86 0 0 0 11,1.4 c 0.11,2.89 0.36,5.67 2.17,7.94 1.81,2.27 4.95,3.16 7.81,4 2.86,0.84 5.94,1.92 7.45,4.48 l -0.65,-0.58"
       id="path217" />
    <path
       class="cls-27"
       d="m 193.09,146.42 c 2.38,7.17 4.73,14.91 7.11,22.08 -3.59,1.22 -7.26,2.51 -10.85,3.74 a 36.69,36.69 0 0 0 -5.67,-18.81 38.31,38.31 0 0 0 9.45,-7.34"
       id="path219" />
    <path
       class="cls-17"
       d="m 253,187.79 c -7,-9.61 -18.26,-15.28 -29.6,-18.94 -12.3,-4 -26.26,-5.86 -37.76,0 -4.59,2.34 -8.54,5.81 -13.26,7.88 -9.92,4.34 -21.91,1.62 -30.68,-4.74 -8.77,-6.36 -14.24,-15.79 -18.89,-25.58 l -4.8,7.11 c -0.27,6.46 0.43,8.73 1.56,15.11 1.65,9.26 4.45,18.81 11.07,25.49 5.43,5.47 12.94,8.46 20.55,9.74 7.61,1.28 15.36,0.94 23,0.62 0,0 -5.35,15.39 -6.43,29.54 H 223 L 221.84,231 a 58.93,58.93 0 0 0 14.54,-0.37 c 6.8,-1.14 13.51,-4.21 17.82,-9.62 7.43,-9.31 5.8,-23.61 -1.2,-33.22 z m -33.68,36.26 c 0,0 -2,-6.45 -10,-12.61 -8,-6.16 4,-17.06 4,-17.06 0,0 33.6,10.26 5.96,29.67 z"
       id="path221" />
    <path
       class="cls-20"
       d="m 167.77,234.05 -35.21,131.3 h 12 l 49.2,-93.48 c 0,0 16.61,29.21 12.79,93.48 h 12.12 c 0,0 30.14,-91 4.31,-131.3 z"
       id="path223" />
    <path
       class="cls-11"
       d="M 132.56,365.35 119.32,372 a 0.72,0.72 0 0 0 0.32,1.36 h 24.63 a 1.29,1.29 0 0 0 1.28,-1.49 l -1,-6.51 z"
       id="path225" />
    <path
       class="cls-11"
       d="M 206.43,365.35 193.2,372 a 0.72,0.72 0 0 0 0.32,1.36 h 24.63 a 1.3,1.3 0 0 0 1.28,-1.49 l -1,-6.51 z"
       id="path227" />
    <path
       class="cls-21"
       d="m 219.92,225.24 1.92,5.2 c 0,0 -4.11,4.93 -12.05,4 -7.94,-0.93 -5.2,-10.82 3.11,-10.48 0,0 -0.14,-1.18 0.38,-1.26 0.52,-0.08 4.95,-0.54 6.64,2.54 z"
       id="path229" />
    <path
       class="cls-28"
       d="m 187.46,255.26 q 3,8.25 6,16.49"
       id="path231" />
    <path
       class="cls-8"
       d="m 207,191.5 6.5,3"
       id="path233" />
    <path
       class="cls-8"
       d="m 183.68,170.17 c 0,0 -9.59,8.83 -9.68,15.83 -0.09,7 3.57,8.75 3.14,12.12 a 14.3,14.3 0 0 1 -3,6.39"
       id="path235" />
    <path
       class="cls-22"
       d="m 194.33,119.58 a 14,14 0 0 0 -20,10.75 c -0.47,3.51 0.57,7.36 3.3,9.62 3.46,2.87 9,2.4 12.42,-0.47 3.42,-2.87 5,-7.62 4.68,-12.11 -0.18,-2.68 -0.94,-5.36 -0.55,-8 l -0.52,0.36"
       id="path237" />
    <path
       class="cls-27"
       d="m 196.92,131.2 c -1.18,-4.69 -6.9,-7.23 -11.56,-6 -4.66,1.23 -8.09,5.44 -9.69,10 -1.6,4.56 -1.66,9.49 -1.62,14.32 0,1.81 0.08,3.73 1.06,5.25 1.51,2.35 4.69,3 7.48,2.75 a 18.41,18.41 0 0 0 15.68,-24.91"
       id="path239" />
    <path
       class="cls-22"
       d="m 221.77,163.6 c -9,2.6 -19,2.09 -26.16,-2.88 a 21.33,21.33 0 0 1 -5.53,-5.52 c -5.32,-7.75 -6.7,-20.73 -5.24,-30 a 11.26,11.26 0 0 1 9.6,-7.1 14.88,14.88 0 0 1 11.2,4.92 22,22 0 0 1 5.25,11.27 c 0.1,0.53 0.17,1.05 0.24,1.59 0.09,0.73 0.15,1.46 0.2,2.19 a 1.12,1.12 0 0 1 0,0.2 c 0,0.27 0,0.55 0.05,0.84 0.21,3.88 0.12,7.81 0.83,11.64 1.03,5.41 4.16,11.72 9.56,12.85 z"
       id="path241" />
    <path
       class="cls-20"
       d="m 191.14,137.48 a 6.16,6.16 0 0 1 -6.15,6.16 h -15.07 a 6.17,6.17 0 0 1 -6.15,-6.16 6.18,6.18 0 0 1 6.15,-6.14 H 185 a 6.16,6.16 0 0 1 6.14,6.14 z"
       id="path243" />
    <path
       class="cls-20"
       d="m 185.48,137.48 a 6.18,6.18 0 0 1 -6.15,6.16 h -9.41 a 6.17,6.17 0 0 1 -6.15,-6.16 6.18,6.18 0 0 1 6.15,-6.14 h 9.41 a 6.17,6.17 0 0 1 6.15,6.14 z"
       id="path245" />
    <line
       class="cls-29"
       x1="167.75999"
       y1="137.49001"
       x2="181.49001"
       y2="137.49001"
       id="line247" />
    <path
       class="cls-30"
       d="m 211.48,139.1 h -21.23 v -3.23 h 20.88 c 0.09,0.73 0.15,1.46 0.2,2.19 v 0 c 0,0 0,0.07 0,0.2 a 5.83,5.83 0 0 0 0.15,0.84 z"
       id="path249" />
    <path
       class="cls-11"
       d="m 254.17,290.85 c -4.08,8.82 -0.83,19.15 2.72,28.2 3.55,9.05 7.42,18.95 4.42,28.2 -3,9.25 -12.21,15.12 -21.65,17 -9.44,1.88 -19.17,0.29 -28.67,-1.26 v 9.12 c 0,0 35.83,24.89 70.95,9.89 35.12,-15 22.18,-67.65 22.18,-67.65 z"
       id="path251" />
    <path
       class="cls-11"
       d="m 257.1,297.47 h 63.73 c 0,0 35,-4.8 48.21,11.3 13.6,16.61 14.45,50.13 -12.3,72.57 h -10.15 c 0,0 16,-23.37 1.23,-40 -14.77,-16.63 -45.6,0.92 -45.6,0.92 z"
       id="path253" />
    <path
       class="cls-21"
       d="m 403.83,237 c 0.36,-2.28 -0.24,-4.62 -0.53,-6.91 -0.14,-1 -0.56,-2.26 -1.58,-2.37 a 1.68,1.68 0 0 0 -1.62,1.15 5.7,5.7 0 0 0 -0.26,2.1 c 0,5.29 -0.72,9.32 -3.8,13.62 l -5.72,6.3 a 14.23,14.23 0 0 0 14.22,-0.55 c 1.89,-1.22 3.56,-3.1 3.69,-5.34 a 6.64,6.64 0 0 1 0.27,-2.68 3.82,3.82 0 0 1 2.45,-1.59 18,18 0 0 1 4.66,-0.72 17.36,17.36 0 0 0 6.48,-1.15 1,1 0 0 0 -0.41,-1.86 z"
       id="path255" />
    <path
       class="cls-17"
       d="m 320.83,297.47 h -69 v -6.92 c 0,0 -33.76,-2.77 -30,-32.75 3.76,-29.98 61.63,-30.67 61.63,-30.67 h 5 c 0,0 21.21,5.85 38.17,16.6 26.91,17.07 70.57,-0.92 70.57,-0.92 v 9.69 c 0,0 -25.83,31.82 -79.8,28.13 z"
       id="path257" />
    <path
       class="cls-21"
       d="m 317.82,251.28 a 17,17 0 0 1 -6.48,1.14 19,19 0 0 0 -4.67,0.72 3.83,3.83 0 0 0 -2.44,1.6 6.59,6.59 0 0 0 -0.28,2.67 c -0.12,2.25 -1.8,4.13 -3.68,5.34 a 14,14 0 0 1 -8.62,2.16 v -7.78 l 0.11,-0.12 c 3.09,-4.3 3.77,-8.32 3.81,-13.62 a 5.69,5.69 0 0 1 0.25,-2.1 1.73,1.73 0 0 1 1.62,-1.16 c 1,0.12 1.45,1.36 1.59,2.38 0.29,2.29 0.89,4.63 0.53,6.91 h 17.85 a 1,1 0 0 1 0.41,1.86 z"
       id="path259" />
    <path
       class="cls-21"
       d="m 274.42,196.21 c -0.48,6.18 -0.1,12.57 2.35,18.27 2.45,5.7 7.23,10.62 13.23,12.14 3.26,0.82 7.17,0.41 9.29,-2.2 a 11.36,11.36 0 0 0 2,-5.61 86,86 0 0 0 1,-11.34 c 0.08,-3.57 -0.13,-7.33 -2,-10.34 -2.49,-3.93 -7.48,-5.71 -12.13,-5.51 -4.65,0.2 -9,2.08 -13.23,4.11 -0.37,-0.55 -0.73,-1.11 -1.09,-1.66"
       id="path261" />
    <path
       class="cls-21"
       d="m 293.55,218.73 -4.39,12 a 5.59,5.59 0 0 1 -7.64,3.12 v 0 a 5.56,5.56 0 0 1 -2.9,-6.8 39.82,39.82 0 0 0 1.68,-18.51 97,97 0 0 0 13.17,10.34"
       id="path263" />
    <path
       class="cls-22"
       d="m 303.94,193.6 a 3.68,3.68 0 0 1 -1.12,1.64 c -1.47,1.27 -3.35,1.53 -5.18,1.77 l -19.93,2.7 a 8.54,8.54 0 0 1 2.63,4.31 8.79,8.79 0 0 1 0.24,3.23 8,8 0 0 1 -0.72,2.61 3.33,3.33 0 0 1 -3.53,1.88 11.76,11.76 0 0 1 -6.61,-3.28 9.15,9.15 0 0 1 -1,-1.21 9.81,9.81 0 0 1 -1.5,-3.23 8.37,8.37 0 0 1 0.07,-4.55 7.33,7.33 0 0 1 7.44,-5.15 19.72,19.72 0 0 1 26.22,-6 c 1.86,1.11 3.78,2.94 2.99,5.28 z"
       id="path265" />
    <path
       class="cls-24"
       d="M 346.59,381.34 342,388 a 1.18,1.18 0 0 0 1,1.85 h 32.8 a 0.48,0.48 0 0 0 0.18,-0.93 l -19.23,-7.53 z"
       id="path267" />
    <path
       class="cls-24"
       d="m 211,363 -11,-4.6 a 1.47,1.47 0 0 0 -1.82,0.58 c -2.64,4.15 -10.93,19.84 6.84,29.68 a 0.85,0.85 0 0 0 1.18,-1.1 c -2.26,-4.93 -6.18,-16.07 4.84,-15.44 z"
       id="path269" />
    <path
       class="cls-8"
       d="m 249.68,251.85 c -2.24,1.29 -3,4.38 -2.09,6.79 a 8.86,8.86 0 0 0 5.61,4.94 21.15,21.15 0 0 0 7.65,0.75 77.31,77.31 0 0 0 30.15,-7.41"
       id="path271" />
    <path
       class="cls-8"
       d="m 252.05,290.22 c 13.78,-1.47 30.28,-12.3 39.6,-25.31"
       id="path273" />
    <path
       class="cls-8"
       d="m 314,266.08 3.72,14.55"
       id="path275" />
    <path
       class="cls-31"
       d="m 304.64,329.62 a 39.33,39.33 0 0 1 1.71,10.61"
       id="path277" />
    <path
       class="cls-32"
       d="m 321.69,335.12 c 6.52,-2.24 13.19,-2.2 19.05,1.11"
       id="path279" />
    <path
       class="cls-32"
       d="m 321,297.46 c 3.2,-0.26 7.89,-0.5 11.08,-0.52"
       id="path281" />
    <path
       class="cls-31"
       d="m 219.33,364 4,0.67"
       id="path283" />
    <path
       class="cls-31"
       d="m 211.5,372.17 1.83,1.16"
       id="path285" />
    <path
       class="cls-25"
       d="m 206.74,361.18 a 19.93,19.93 0 0 0 4.6,1.78"
       id="path287" />
    <polygon
       class="cls-33"
       points="417.47,249.57 287.61,211.78 287.61,199.48 417.47,183.26 "
       id="polygon289"
       style="fill:url(#linear-gradient-3)" />
    <path
       class="cls-20"
       d="m 281.94,205.63 a 6.18,6.18 0 0 0 6.16,6.15 h 15.06 a 6.15,6.15 0 0 0 0,-12.3 H 288.1 a 6.17,6.17 0 0 0 -6.16,6.15 z"
       id="path291" />
    <path
       class="cls-20"
       d="m 287.61,205.63 a 6.18,6.18 0 0 0 6.15,6.15 h 9.4 a 6.15,6.15 0 0 0 0,-12.3 h -9.4 a 6.17,6.17 0 0 0 -6.15,6.15 z"
       id="path293" />
    <line
       class="cls-29"
       x1="305.32001"
       y1="205.63"
       x2="291.60001"
       y2="205.63"
       id="line295" />
    <path
       class="cls-21"
       d="m 279.7,211.6 a 7.65,7.65 0 0 0 -4.28,-3.72 3.68,3.68 0 0 0 -3.26,0.2 3,3 0 0 0 -1,3.27 5.31,5.31 0 0 0 2.29,2.73 8.77,8.77 0 0 0 8.48,0.44"
       id="path297" />
    <path
       class="cls-30"
       d="m 283.5,204 v 3.23 h -14.81 a 9.81,9.81 0 0 1 -1.5,-3.23 z"
       id="path299" />
    <path
       class="cls-31"
       d="m 252.17,297.5 a 19.79,19.79 0 0 0 1.1,10.19"
       id="path301" />
  </g>
  <g
     id="Layer_5"
     data-name="Layer 5"
     transform="translate(-46.299999,-55.169998)">
    <rect
       class="cls-3"
       x="174.63"
       y="326.29999"
       width="156.59"
       height="106.7"
       rx="3"
       id="rect304"
       ry="3" />
    <line
       class="cls-34"
       x1="183.3"
       y1="425.32999"
       x2="322.54001"
       y2="425.32999"
       id="line306" />
    <path
       class="cls-35"
       d="m 305.81,427.21 v 0 a 1.2,1.2 0 0 1 -1.19,-1.19 v -1.37 a 1.19,1.19 0 0 1 1.19,-1.19 v 0 a 1.19,1.19 0 0 1 1.19,1.19 V 426 a 1.19,1.19 0 0 1 -1.19,1.21 z"
       id="path308" />
    <path
       class="cls-35"
       d="m 185.44,334.38 h -2.37 a 2.45,2.45 0 0 1 -2.44,-2.44 v 0 a 2.45,2.45 0 0 1 2.44,-2.44 h 2.37 a 2.45,2.45 0 0 1 2.44,2.44 v 0 a 2.45,2.45 0 0 1 -2.44,2.44 z"
       id="path310" />
    <path
       class="cls-36"
       d="m 195.07,334.38 h -2.37 a 2.45,2.45 0 0 1 -2.44,-2.44 v 0 a 2.45,2.45 0 0 1 2.44,-2.44 h 2.37 a 2.45,2.45 0 0 1 2.44,2.44 v 0 a 2.45,2.45 0 0 1 -2.44,2.44 z"
       id="path312" />
    <path
       class="cls-17"
       d="m 270.75,360.67 v 38 A 8.67,8.67 0 0 1 257.49,406 l -30.33,-19 a 8.67,8.67 0 0 1 0,-14.7 l 30.33,-19 a 8.67,8.67 0 0 1 13.26,7.37 z"
       id="path314" />
    <circle
       class="cls-37"
       cx="252.92"
       cy="379.64999"
       r="34.209999"
       id="circle316" />
  </g>
</svg>
