<?xml version="1.0" encoding="UTF-8" standalone="no"?>
<svg
   xmlns:dc="http://purl.org/dc/elements/1.1/"
   xmlns:cc="http://creativecommons.org/ns#"
   xmlns:rdf="http://www.w3.org/1999/02/22-rdf-syntax-ns#"
   xmlns:svg="http://www.w3.org/2000/svg"
   xmlns="http://www.w3.org/2000/svg"
   xmlns:sodipodi="http://sodipodi.sourceforge.net/DTD/sodipodi-0.dtd"
   xmlns:inkscape="http://www.inkscape.org/namespaces/inkscape"
   viewBox="0 0 1886.4114 1383"
   version="1.1"
   id="svg329"
   sodipodi:docname="Notebook--header.svg"
   width="1886.4114"
   height="1383"
   inkscape:version="1.0.1 (0767f8302a, 2020-10-17)">
  <metadata
     id="metadata333">
    <rdf:RDF>
      <cc:Work
         rdf:about="">
        <dc:format>image/svg+xml</dc:format>
        <dc:type
           rdf:resource="http://purl.org/dc/dcmitype/StillImage" />
        <dc:title></dc:title>
      </cc:Work>
    </rdf:RDF>
  </metadata>
  <sodipodi:namedview
     pagecolor="#ffffff"
     bordercolor="#666666"
     borderopacity="1"
     objecttolerance="10"
     gridtolerance="10"
     guidetolerance="10"
     inkscape:pageopacity="0"
     inkscape:pageshadow="2"
     inkscape:window-width="1858"
     inkscape:window-height="1016"
     id="namedview331"
     showgrid="false"
     fit-margin-top="10"
     lock-margins="true"
     fit-margin-left="10"
     fit-margin-right="10"
     fit-margin-bottom="10"
     inkscape:zoom="0.435"
     inkscape:cx="943.22136"
     inkscape:cy="691.5"
     inkscape:window-x="62"
     inkscape:window-y="27"
     inkscape:window-maximized="1"
     inkscape:current-layer="svg329" />
  <defs
     id="defs4">
    <style
       id="style2">.cls-1{fill:#fcb4cc;}.cls-2{fill:#25ced1;}.cls-3{fill:#fff;}.cls-4{fill:#1faaad;}.cls-5{fill:#fff3f3;}.cls-6{fill:#92e7e8;}.cls-7{fill:#50bfa5;}.cls-8{fill:#57726a;}.cls-9{fill:#5b061b;}.cls-10{fill:#187a7a;}.cls-11{fill:#516b6b;}.cls-12{fill:#032624;}.cls-13{fill:#ba3a59;}.cls-14{fill:#126868;}.cls-15{fill:#3a1410;}.cls-16{fill:#ea526f;}.cls-17{fill:#662d24;}.cls-18{fill:#144a59;}.cls-19{fill:#c64e70;}.cls-20{fill:#eaa69d;}.cls-21{fill:#f7c7bf;}.cls-22{fill:#648278;}.cls-23{fill:#f484a4;}.cls-24{fill:#13375b;}.cls-25{fill:#144c59;}.cls-26{fill:#f7a491;}.cls-27{fill:#358387;}.cls-28{fill:#47aab5;}.cls-29{fill:#0e3a2e;}.cls-30{fill:#185454;}.cls-31{fill:#f79c8d;}.cls-32{fill:#f48c7f;}.cls-33{fill:#f47458;}.cls-34{fill:#184655;}.cls-35{fill:#86e0ef;}.cls-36{fill:#b5436d;}.cls-37{fill:#ffdce9;}.cls-38{fill:#c43d64;}.cls-39{fill:#efefef;}</style>
  </defs>
  <g
     id="Layer_2"
     data-name="Layer 2"
     transform="translate(-306.77864,-308.5)">
    <circle
       class="cls-2"
       cx="402.32999"
       cy="1284.73"
       r="58.389999"
       transform="rotate(-13.08,402.17783,1284.3569)"
       id="circle9" />
    <path
       class="cls-2"
       d="m 450.6,1314.81 a 56.87,56.87 0 1 1 -18.19,-78.35 56.93,56.93 0 0 1 18.19,78.35 z"
       id="path11" />
    <path
       class="cls-3"
       d="m 427.12,1245.46 a 46.44,46.44 0 1 1 -64,14.86 46.44,46.44 0 0 1 64,-14.86 z"
       id="path13" />
    <circle
       class="cls-3"
       cx="402.35001"
       cy="1284.75"
       r="44.029999"
       transform="rotate(-81.95,402.40178,1284.7805)"
       id="circle15" />
    <path
       class="cls-2"
       d="m 380.21,1315.84 -4.16,6.69 a 2.3558491,2.3558491 0 1 0 4,2.49 l 4.17,-6.69 a 2.3558491,2.3558491 0 1 0 -4,-2.49 z"
       id="path17" />
    <path
       class="cls-2"
       d="m 432.7,1303.65 a 2.35,2.35 0 0 0 0.75,3.24 l 6.69,4.17 a 2.3532106,2.3532106 0 1 0 2.48,-4 l -6.69,-4.17 a 2.35,2.35 0 0 0 -3.23,0.76 z"
       id="path19" />
    <path
       class="cls-2"
       d="m 424.68,1244.48 -4.17,6.69 a 2.3532106,2.3532106 0 1 0 4,2.48 l 4.17,-6.69 a 2.3532106,2.3532106 0 1 0 -4,-2.48 z"
       id="path21" />
    <path
       class="cls-2"
       d="m 361.33,1259.19 a 2.36,2.36 0 0 0 0.76,3.24 l 6.69,4.16 a 2.3532106,2.3532106 0 0 0 2.48,-4 l -6.69,-4.17 a 2.35,2.35 0 0 0 -3.24,0.77 z"
       id="path23" />
    <rect
       class="cls-2"
       x="359.85001"
       y="1220.2"
       width="13.35"
       height="11.99"
       rx="1.37"
       transform="matrix(0.85,-0.52,0.52,0.85,-583.89,369.1)"
       id="rect25"
       ry="1.37" />
    <path
       class="cls-2"
       d="m 329.21,1272 h 10.6 a 1.37,1.37 0 0 1 1.37,1.37 v 9.24 a 1.37,1.37 0 0 1 -1.37,1.37 h -10.6 a 1.38,1.38 0 0 1 -1.38,-1.38 v -9.24 a 1.37,1.37 0 0 1 1.38,-1.36 z"
       transform="matrix(0.09,-1,1,0.09,-968.43,1496.1)"
       id="path27" />
    <rect
       class="cls-2"
       x="331.72"
       y="1240.01"
       width="16.25"
       height="9.3299999"
       rx="1.34"
       transform="rotate(-58.08,339.86306,1244.6886)"
       id="rect29"
       ry="1.34" />
    <path
       class="cls-2"
       d="m 344.18,1252.81 a 14.61,14.61 0 1 1 4.88,-7.82 l 3.06,1.9 a 18.07,18.07 0 1 0 -4.87,7.83 z"
       id="path31" />
    <path
       class="cls-2"
       d="m 351.78,1253.24 q 1.26,-2 2.65,-3.9 l -8.15,-5.07 -4,6.36 8.05,5 c 0.48,-0.79 0.96,-1.63 1.45,-2.39 z"
       id="path33" />
    <path
       class="cls-2"
       d="m 404.56,1281 a 4.29,4.29 0 1 1 -5.9,1.38 4.28,4.28 0 0 1 5.9,-1.38 z"
       id="path35" />
    <path
       class="cls-2"
       d="m 385.77,1253.48 17.86,30.52 a 1.6113116,1.6113116 0 0 1 -2.78,1.63 c -0.07,-0.16 0.6,1.26 -15.08,-32.15 z"
       id="path37" />
    <path
       class="cls-2"
       d="m 437.62,1281 -34.92,5.32 a 1.61,1.61 0 1 1 -0.49,-3.18 c 0.14,-0.03 -1.43,0.07 35.41,-2.14 z"
       id="path39" />
    <path
       class="cls-2"
       d="m 403.22,1283.19 a 1.75,1.75 0 1 1 -2.41,0.56 1.77,1.77 0 0 1 2.41,-0.56 z"
       id="path41" />
    <path
       class="cls-4"
       d="m 1990.58,1478.55 a 4,4 0 0 0 4.16,0.51 c 6.72,-3.11 20,-2.45 26.66,-1.32 l 12.69,32.86 c -4.19,5.33 -13.56,14.72 -20.63,16.94 a 4,4 0 0 0 -2.74,3.18 l -4.27,27.35 a 4,4 0 0 0 1.63,3.86 c 6.06,4.27 12.12,16.07 14.48,22.43 l -22.11,27.42 c -6.71,-1 -19.53,-4.38 -25,-9.4 a 4,4 0 0 0 -4.11,-0.78 l -25.83,10 a 4,4 0 0 0 -2.53,3.34 c -0.66,7.38 -7.86,18.53 -12.18,23.76 l -34.8,-5.44 c -2.52,-6.3 -6,-19.11 -4.36,-26.34 a 4,4 0 0 0 -1.38,-4 l -21.56,-17.38 a 4,4 0 0 0 -4.16,-0.51 c -6.72,3.11 -20,2.45 -26.66,1.32 l -12.69,-32.86 c 4.19,-5.33 13.56,-14.72 20.63,-16.94 a 4,4 0 0 0 2.74,-3.17 l 4.27,-27.36 a 4,4 0 0 0 -1.63,-3.86 c -6.06,-4.26 -12.11,-16.07 -14.48,-22.43 l 22.11,-27.42 c 6.71,1 19.53,4.38 25,9.4 a 4,4 0 0 0 4.12,0.78 l 25.82,-10 a 4,4 0 0 0 2.53,-3.35 c 0.66,-7.38 7.86,-18.53 12.18,-23.76 l 34.8,5.44 c 2.52,6.3 6,19.11 4.36,26.34 a 4,4 0 0 0 1.38,4 z m -73.43,21.15 a 34.69,34.69 0 1 0 44.85,19.86 34.67,34.67 0 0 0 -44.85,-19.86 z m -8,-20.76 a 56.94,56.94 0 1 0 73.63,32.6 56.94,56.94 0 0 0 -73.65,-32.6 z"
       id="path43" />
    <path
       class="cls-5"
       d="m 2158,1357.71 a 4.06,4.06 0 0 0 3,3 c 7.34,1.73 17.54,10.59 22.19,15.7 l -10.48,34.29 c -6.71,1.63 -20.12,3.27 -27.17,0.61 a 4,4 0 0 0 -4.19,0.82 l -20.62,19.22 a 4.06,4.06 0 0 0 -1.11,4.12 c 2.17,7.23 -0.4,20.49 -2.5,27.07 l -34.94,8.06 c -4.77,-5 -12.89,-15.78 -14.11,-23.22 a 4.06,4.06 0 0 0 -2.81,-3.22 l -27,-8.24 a 4.07,4.07 0 0 0 -4.13,1.09 c -5.17,5.49 -17.94,9.9 -24.69,11.37 l -24.45,-26.22 c 1.94,-6.63 7.22,-19.06 13.06,-23.84 a 4,4 0 0 0 1.38,-4 l -6.34,-27.46 a 4.07,4.07 0 0 0 -3,-3 c -7.34,-1.73 -17.54,-10.59 -22.19,-15.69 l 10.48,-34.29 c 6.71,-1.64 20.12,-3.28 27.18,-0.61 a 4.06,4.06 0 0 0 4.18,-0.82 l 20.62,-19.23 a 4,4 0 0 0 1.11,-4.12 c -2.17,-7.22 0.4,-20.48 2.5,-27.06 l 34.94,-8.07 c 4.77,5 12.9,15.79 14.11,23.23 a 4.06,4.06 0 0 0 2.81,3.22 l 27,8.24 a 4,4 0 0 0 4.12,-1.1 c 5.17,-5.49 17.94,-9.89 24.69,-11.37 l 24.45,26.23 c -1.94,6.63 -7.22,19.06 -13.06,23.83 a 4.06,4.06 0 0 0 -1.38,4 z m -72.1,-29.21 a 35.31,35.31 0 1 0 23.45,44.1 35.33,35.33 0 0 0 -23.43,-44.1 z m 6.62,-21.66 a 58,58 0 1 0 38.49,72.38 58,58 0 0 0 -38.47,-72.38 z"
       id="path45" />
    <path
       class="cls-6"
       d="m 1822.91,1098.14 a 7.57,7.57 0 0 0 6.62,-4.49 c 5.76,-12.93 25.64,-28.63 36.68,-35.42 l 59.54,31.29 c 0.67,12.94 -1,38.22 -8.37,50.29 a 7.61,7.61 0 0 0 0.06,8 l 28.23,44.7 a 7.61,7.61 0 0 0 7.21,3.49 c 14.07,-1.48 37.61,7.89 49,14 l 2.67,67.21 c -10.86,7 -33.59,18.25 -47.73,17.9 a 7.57,7.57 0 0 0 -6.9,4 l -24.6,46.8 a 7.61,7.61 0 0 0 0.58,8 c 8.31,11.44 12,36.51 12.33,49.46 l -56.86,35.92 c -11.54,-5.89 -32.61,-20 -39.37,-32.39 a 7.58,7.58 0 0 0 -7,-4 l -52.83,2.1 a 7.59,7.59 0 0 0 -6.63,4.49 c -5.75,12.93 -25.64,28.63 -36.67,35.42 l -59.54,-31.29 c -0.67,-12.94 1,-38.22 8.37,-50.29 a 7.61,7.61 0 0 0 -0.06,-8 l -28.24,-44.7 a 7.57,7.57 0 0 0 -7.2,-3.49 c -14.07,1.48 -37.61,-7.89 -49,-14 l -2.68,-67.21 c 10.87,-7 33.59,-18.25 47.74,-17.9 a 7.57,7.57 0 0 0 6.9,-4 l 24.59,-46.8 a 7.59,7.59 0 0 0 -0.57,-8 c -8.32,-11.44 -12,-36.51 -12.34,-49.46 l 56.87,-35.92 c 11.54,5.89 32.6,20 39.37,32.39 a 7.58,7.58 0 0 0 7,4 z m -79,122.69 a 66.24,66.24 0 1 0 89.45,-27.82 66.24,66.24 0 0 0 -89.44,27.82 z m -37.61,-19.76 a 108.72,108.72 0 1 0 146.83,-45.67 108.73,108.73 0 0 0 -146.82,45.67 z"
       id="path47" />
    <polygon
       class="cls-7"
       points="1117.73,531.74 1099.69,534.26 1091.45,524.1 1084.94,527.39 1095.96,540.98 1113.06,538.59 1121.37,553.79 1139.26,549.45 1137.61,543.46 1125.72,546.34 "
       id="polygon49" />
    <polygon
       class="cls-2"
       points="1885.84,806.49 1889.95,803.85 1899.09,818.11 1919.65,814.48 1928.95,835.98 1942.29,831.89 1943.34,836.68 1926.19,841.94 1916.7,819.96 1896.73,823.49 "
       id="polygon51" />
    <polygon
       class="cls-2"
       points="404.19,1385.63 406.88,1389.7 392.75,1399.04 396.67,1419.55 375.29,1429.13 379.57,1442.42 374.79,1443.53 369.3,1426.46 391.14,1416.67 387.34,1396.75 "
       id="polygon53" />
    <path
       class="cls-8"
       d="m 1288.84,545.12 -7.34,-17.35 -18.45,-3.8 a 2.58,2.58 0 0 1 -1.17,-4.49 l 14.23,-12.34 -2.1,-18.72 a 2.59,2.59 0 0 1 3.91,-2.5 l 16.14,9.72 17.15,-7.78 a 2.59,2.59 0 0 1 3.59,2.95 l -4.26,18.34 12.7,13.92 a 2.58,2.58 0 0 1 -1.69,4.32 l -18.77,1.61 -9.31,16.38 a 2.59,2.59 0 0 1 -4.63,-0.26 z"
       id="path55" />
    <polygon
       class="cls-9"
       points="1834.4,468.12 1855.28,470.92 1858.27,458.88 1861.36,459.93 1857.73,474.52 1836.51,471.68 1829.98,488.72 1812.83,489.21 1812.73,485.97 1827.72,485.54 "
       id="polygon57" />
    <polygon
       class="cls-10"
       points="580.9,887.98 582.45,883.1 595.2,887.14 597.43,877.01 602.43,878.11 599,893.73 "
       id="polygon59" />
    <path
       class="cls-11"
       d="M 2083.7,1667.81 H 377.46 a 6.72,6.72 0 0 0 -6.77,6.12 6.57,6.57 0 0 0 6.55,7 H 2083.7 a 6.56,6.56 0 0 0 6.56,-6.56 v 0 a 6.56,6.56 0 0 0 -6.56,-6.56 z"
       id="path61" />
    <polygon
       class="cls-2"
       points="1588.87,475.68 1573.01,482.34 1566.16,462.43 1551.58,463 1545.39,448.06 1536.22,450.78 1535.29,446.12 1547.49,442.5 1553.96,458.11 1568.74,457.53 1575.21,476.34 1590.92,469.75 1598.78,490.01 1613.98,486.08 1622.86,501.79 1619.63,504.51 1612.23,491.44 1596.55,495.49 "
       id="polygon63" />
    <polygon
       class="cls-2"
       points="349.06,1065.11 358.57,1069.69 357.57,1081.6 369.31,1083.38 368.78,1096.5 379.48,1099.49 380.84,1110.58 378.05,1110.92 376.92,1101.69 365.89,1098.6 366.4,1085.78 354.55,1083.99 355.61,1071.38 346.22,1066.86 346.35,1057.05 339.81,1055.43 340.49,1052.7 349.19,1054.86 "
       id="polygon65" />
  </g>
  <g
     id="note"
     transform="translate(-306.77864,-308.5)">
    <rect
       class="cls-10"
       x="724.29999"
       y="839.34998"
       width="1103.4301"
       height="842.15002"
       rx="81.589996"
       id="rect68"
       ry="81.589996" />
    <rect
       class="cls-12"
       x="748.46997"
       y="859.13"
       width="1061.46"
       height="797"
       rx="43"
       id="rect70"
       ry="43" />
    <path
       class="cls-10"
       d="m 724.3,1630.77 v 28.58 c 0,12.23 26.29,22.15 58.72,22.15 H 1910.7 c 32.43,0 58.72,-9.92 58.72,-22.15 v -28.58 z"
       id="path72" />
    <rect
       class="cls-6"
       x="821.64001"
       y="886.69"
       width="917.84003"
       height="683.88"
       id="rect74" />
    <rect
       class="cls-13"
       x="853.02002"
       y="940.89001"
       width="838.53998"
       height="597.29999"
       id="rect76" />
    <rect
       class="cls-4"
       x="850.78998"
       y="895.82001"
       width="786.96997"
       height="642.38"
       id="rect78" />
    <rect
       class="cls-6"
       x="866.23999"
       y="924.78003"
       width="746.44"
       height="52.290001"
       id="rect80" />
    <rect
       class="cls-5"
       x="853.02002"
       y="473.51001"
       width="652.72998"
       height="1006.51"
       id="rect82" />
    <rect
       class="cls-2"
       x="870.22998"
       y="911.38"
       width="602.34998"
       height="52.759998"
       id="rect84" />
    <rect
       class="cls-14"
       x="901.09998"
       y="1013.27"
       width="256.97"
       height="11.25"
       id="rect86" />
    <rect
       class="cls-14"
       x="1213.87"
       y="1013.27"
       width="239.16"
       height="11.25"
       id="rect88" />
    <rect
       class="cls-14"
       x="901.09998"
       y="1041.73"
       width="256.97"
       height="11.25"
       id="rect90" />
    <rect
       class="cls-14"
       x="1213.87"
       y="1041.73"
       width="239.16"
       height="11.25"
       id="rect92" />
    <rect
       class="cls-14"
       x="901.09998"
       y="1070.1801"
       width="256.97"
       height="11.25"
       id="rect94" />
    <rect
       class="cls-14"
       x="1213.87"
       y="1070.1801"
       width="239.16"
       height="11.25"
       id="rect96" />
    <rect
       class="cls-14"
       x="901.09998"
       y="1098.64"
       width="256.97"
       height="11.25"
       id="rect98" />
    <rect
       class="cls-14"
       x="1213.87"
       y="1098.64"
       width="239.16"
       height="11.25"
       id="rect100" />
    <rect
       class="cls-14"
       x="1213.87"
       y="1127.09"
       width="239.16"
       height="11.25"
       id="rect102" />
    <rect
       class="cls-14"
       x="901.09998"
       y="1127.09"
       width="256.97"
       height="11.25"
       id="rect104" />
    <rect
       class="cls-14"
       x="901.09998"
       y="1155.54"
       width="256.97"
       height="11.25"
       id="rect106" />
    <rect
       class="cls-14"
       x="1213.87"
       y="1155.54"
       width="239.16"
       height="11.25"
       id="rect108" />
    <rect
       class="cls-14"
       x="901.09998"
       y="1184"
       width="256.97"
       height="11.25"
       id="rect110" />
    <rect
       class="cls-14"
       x="1213.87"
       y="1184"
       width="239.16"
       height="11.25"
       id="rect112" />
    <rect
       class="cls-14"
       x="901.09998"
       y="1212.45"
       width="256.97"
       height="11.25"
       id="rect114" />
    <rect
       class="cls-14"
       x="1213.87"
       y="1212.45"
       width="239.16"
       height="11.25"
       id="rect116" />
    <rect
       class="cls-14"
       x="901.09998"
       y="1240.91"
       width="256.97"
       height="11.25"
       id="rect118" />
    <rect
       class="cls-14"
       x="1213.87"
       y="1240.91"
       width="239.16"
       height="11.25"
       id="rect120" />
    <rect
       class="cls-14"
       x="901.09998"
       y="1269.36"
       width="256.97"
       height="11.25"
       id="rect122" />
    <rect
       class="cls-14"
       x="1213.87"
       y="1269.36"
       width="239.16"
       height="11.25"
       id="rect124" />
    <rect
       class="cls-14"
       x="1213.87"
       y="1297.8199"
       width="239.16"
       height="11.25"
       id="rect126" />
    <rect
       class="cls-14"
       x="901.09998"
       y="1297.8199"
       width="256.97"
       height="11.25"
       id="rect128" />
    <rect
       class="cls-14"
       x="901.09998"
       y="1326.27"
       width="256.97"
       height="11.25"
       id="rect130" />
    <rect
       class="cls-14"
       x="1213.87"
       y="1326.27"
       width="239.16"
       height="11.25"
       id="rect132" />
    <rect
       class="cls-14"
       x="1213.87"
       y="1354.73"
       width="239.16"
       height="11.25"
       id="rect134" />
    <rect
       class="cls-14"
       x="901.09998"
       y="1354.73"
       width="256.97"
       height="11.25"
       id="rect136" />
    <rect
       class="cls-14"
       x="1244.55"
       y="529.27002"
       width="202.81"
       height="11.25"
       id="rect138" />
    <rect
       class="cls-14"
       x="1244.55"
       y="557.71997"
       width="202.81"
       height="11.25"
       id="rect140" />
    <rect
       class="cls-14"
       x="1244.55"
       y="586.17999"
       width="202.81"
       height="11.25"
       id="rect142" />
    <rect
       class="cls-14"
       x="1244.55"
       y="614.63"
       width="202.81"
       height="11.25"
       id="rect144" />
    <rect
       class="cls-14"
       x="1244.55"
       y="643.09003"
       width="202.81"
       height="11.25"
       id="rect146" />
    <rect
       class="cls-14"
       x="1245.45"
       y="691.65997"
       width="202.81"
       height="11.25"
       id="rect148" />
    <rect
       class="cls-14"
       x="1245.45"
       y="720.12"
       width="202.81"
       height="11.25"
       id="rect150" />
    <rect
       class="cls-14"
       x="1245.45"
       y="748.57001"
       width="202.81"
       height="11.25"
       id="rect152" />
    <rect
       class="cls-14"
       x="1245.45"
       y="777.02002"
       width="202.81"
       height="11.25"
       id="rect154" />
    <rect
       class="cls-14"
       x="1245.45"
       y="805.47998"
       width="202.81"
       height="11.25"
       id="rect156" />
    <rect
       class="cls-14"
       x="913.76001"
       y="531.97998"
       width="277.14001"
       height="343.35999"
       id="rect158" />
    <path
       class="cls-6"
       d="m 1009.33,755 -23.66,71.64 h -30.41 l 77.38,-227.75 h 35.48 l 77.72,227.75 h -31.42 L 1090.09,755 Z m 74.67,-23 -22.3,-65.55 c -5.07,-14.87 -8.45,-28.39 -11.82,-41.56 h -0.68 c -3.38,13.51 -7.1,27.37 -11.49,41.22 l -22.3,65.89 z"
       id="path160" />
  </g>
  <g
     id="peeps"
     transform="translate(-306.77864,-308.5)">
    <path
       class="cls-12"
       d="m 1671.05,725.47 c 37.43,15.4 49.47,-18.24 48.53,-17.35 0.72,-0.77 6.35,-3.22 10,-5 15,-7.35 14.55,-33.29 14.21,-50.49 21.52,-13.1 26.91,-38.2 12.15,-53.54 4.54,-17 5.51,-27.77 -9.72,-36.41 -11.53,-20.1 -43.83,-13.28 -59.51,2.48 a 44.49,44.49 0 0 0 -12.42,31.38 c -18.45,7.64 -28.1,28 -23.91,48.49 -24.94,20.5 -17.51,64.73 20.67,80.44 z"
       id="path163" />
    <path
       class="cls-15"
       d="m 1809,783.48 c -3,-3 -8.3,-5.59 -8,-6 1.25,-1.77 14.33,11.75 13.47,7.94 -0.48,-2.12 -9.83,-13.16 -13.15,-13.57 -3.32,-0.41 -24.07,-3.69 -24.07,-3.69 l -48.16,-32 c 0,0 -2.39,-37.87 7.84,-63.38 -11.18,-3.4 -13.36,-4.14 -24.85,-3.25 -6.55,25.88 -13.6,69.46 -5.09,82.16 3.58,5.34 66.19,26 66.19,26 0,0 13.54,5.1 16.06,5.26 1.92,0.12 7.19,-0.32 9.77,0.08 5.85,0.9 13.1,9.61 13.59,8.6 0.4,-0.76 -0.53,-5.12 -3.6,-8.15 z"
       id="path165" />
    <path
       class="cls-16"
       d="m 1742.79,669.71 a 169.62,169.62 0 0 0 -9.18,-15 c -4.69,-8.37 -16.81,-12.6 -16.81,-12.6 0,0 -4.06,0.08 -8.71,0.31 a 3.8,3.8 0 0 1 -0.88,1.55 c -1.75,1.32 -11.78,-0.38 -18.26,4 -21.7,18.67 -15.7,109.17 -14,137.75 l 54.19,0.24 c 0,0 3.59,-61.11 17,-76.91 9.38,-10.98 3.36,-26.93 -3.35,-39.34 z"
       id="path167" />
    <path
       class="cls-15"
       d="m 1757.65,988.12 c 0.58,-1.07 8.12,-19.24 14.27,-27.33 8.93,-11.75 86.2,-118.15 83,-144 -1.39,-11.31 -34.87,-20.9 -38.85,-21.58 -21.3,2.86 1.08,21.2 -14.92,36.28 10.4,3.56 16.54,8 14.29,10.93 -9,11.71 -56.83,106.1 -58.91,107.32 -9.26,5.43 -12.89,2.91 -12.89,2.91 0,0 2.13,53.1 6.55,51.42 4.42,-1.68 0.91,-3.88 7.46,-15.95 z"
       id="path169" />
    <path
       class="cls-10"
       d="m 1739.75,953 8.93,53.49 c 2,6.92 5.39,6.85 6.25,5.92 1.79,-1.91 2.6,-16.19 2.82,-24.31 -4,-12.39 -3.65,-35.72 -1.17,-38.35 -6.07,0.06 -16.83,2.01 -16.83,3.25 z"
       id="path171" />
    <path
       class="cls-17"
       d="m 1771.69,821.89 c 12,-19.88 11.35,-17.36 32.21,-26.34 8.36,3.36 36.34,20.89 39.88,24.13 L 1799.29,852 c 1.45,-3.65 -14.05,-21.57 -27.6,-30.11 z"
       id="path173" />
    <path
       class="cls-17"
       d="m 1713,611.49 c 0,0 -2.76,26.47 -6.17,32.37 -1.22,2.1 14,19.86 27.68,24 13.68,4.14 -4.19,-14 -3.63,-20.74 0.56,-6.74 3.07,-38.8 3.07,-38.8 z"
       id="path175" />
    <path
       class="cls-15"
       d="m 1733.25,617.48 c 0.4,-5.3 0.69,-9.19 0.69,-9.19 l -21,3.2 c 0,0 -0.53,3.06 -1.11,7.38 8.54,4.95 16.17,3.39 21.42,-1.39 z"
       id="path177" />
    <path
       class="cls-17"
       d="m 1719.56,563.92 a 23.77,23.77 0 0 0 -13.35,9.68 c -5.1,7.8 -8.6,30.78 8.19,41.51 16.79,10.73 29.85,-4.45 30.07,-19.25 0.22,-14.8 -2.95,-34.55 -24.91,-31.94 z"
       id="path179" />
    <path
       class="cls-17"
       d="m 1748.31,591.23 c -1.43,3.57 -4.28,5.79 -6.35,4.95 -2.07,-0.84 -2.59,-4.41 -1.16,-8 1.43,-3.59 4.28,-5.79 6.35,-5 2.07,0.79 2.59,4.48 1.16,8.05 z"
       id="path181" />
    <path
       class="cls-17"
       d="m 1705.94,594.17 c 1.22,3.84 0.1,7.63 -2.49,8.46 -2.59,0.83 -5.68,-1.63 -6.9,-5.47 -1.22,-3.84 -0.1,-7.64 2.49,-8.46 2.59,-0.82 5.68,1.62 6.9,5.47 z"
       id="path183" />
    <path
       class="cls-18"
       d="m 1769.24,787.51 c -9.27,-0.85 -40,-4 -40,-4 l -54.43,-7.32 c 0,0 -9.61,23 -10,37.4 -0.66,25.22 18.36,34.72 38.21,33.5 11.81,-0.73 81.39,-2.68 96,4.72 2.7,-20.55 5.8,-42.81 19.65,-57.6 -22.15,-3 -36.85,-5.54 -49.43,-6.7 z"
       id="path185" />
    <path
       class="cls-17"
       d="m 1769.93,977.74 c 1.5,-1.54 13.44,-83.21 20.64,-117.49 A 28.83,28.83 0 0 1 1805,840.87 l 38.82,-21.19 c 13.45,12.3 -49.3,150.45 -55,164.93 -4,10 -6.44,30.57 -6.73,31.82 -3.23,14.13 1,15.33 -3,18.29 -4,2.96 -22,-48.6 -22,-48.6 0,0 4.97,-0.22 12.84,-8.38 z"
       id="path187" />
    <path
       class="cls-10"
       d="m 1782.41,1013.42 c 0,0 0.87,6.11 1.78,11.67 0.91,5.56 -0.48,14.53 -2.49,17.21 -2.01,2.68 -25.7,-52.89 -25.7,-52.89 a 4.21,4.21 0 0 1 1.07,-4.89 34.19,34.19 0 0 1 12.79,-6.68 c 0,0 -1.02,28.54 12.55,35.58 z"
       id="path189" />
    <path
       class="cls-12"
       d="m 1758.24,791.07 v 0 a 4,4 0 0 0 4.22,3.73 l 65.94,0.16 c 2.34,0 4.68,-2 5.44,-4.52 l -1.2,0.8 a 4,4 0 0 0 -4.22,-3.73 l -65.94,-0.16 a 4,4 0 0 0 -4.24,3.72 z"
       id="path191" />
    <path
       class="cls-12"
       d="m 1827.74,793.61 a 8,8 0 0 1 -1.19,-0.08 c -3.41,-0.43 -5.65,-2.61 -5,-4.86 l 25.17,-87.09 c 0.65,-2.25 3.94,-3.73 7.36,-3.3 3.42,0.43 5.65,2.61 5,4.86 l -25.17,87.09 c -0.58,1.99 -3.21,3.38 -6.17,3.38 z"
       id="path193" />
    <path
       class="cls-17"
       d="m 1808.32,781.81 c -3.78,-1.89 -9.62,-2.75 -9.46,-3.26 0.64,-2.07 17.41,8.62 15.42,5.27 -1.11,-1.87 -13.58,-11.36 -16.87,-10.72 -3.29,0.64 -24,3.95 -24,3.95 l -53.63,-19.38 c 0,0 -10.22,-33.36 -8.41,-60.77 -11.68,0.22 -19.85,2.16 -30.49,6.56 1.78,26.64 8.59,70.26 20.62,79.7 5.06,4 71,4.21 71,4.21 0,0 14.45,0.65 16.9,0 1.86,-0.48 6.74,-2.53 9.31,-2.95 5.84,-1 15.43,5.08 15.59,4 0.09,-0.82 -2.13,-4.68 -5.98,-6.61 z"
       id="path195" />
    <path
       class="cls-19"
       d="m 1715.08,667.81 c -0.75,-8.43 -1.78,-16.92 -10.37,-20.56 -5.33,-2.26 -11.69,-2.33 -16.52,0.76 -5.74,3.69 -8,11.31 -8.74,17.83 A 255.52,255.52 0 0 0 1678,711 c 10.65,-4.4 25.13,-2.07 36.82,-2.3 2.6,-13.03 1.24,-29.91 0.26,-40.89 z"
       id="path197" />
    <path
       class="cls-17"
       d="m 1800.35,773.85 c 9.16,2.35 8.65,2.17 9,2.41 6.48,4.08 6,5.85 -4,1.59 a 1.8,1.8 0 0 0 -0.79,-0.16 h -4.72 a 2,2 0 0 1 -1.32,-3.46 v 0 a 2,2 0 0 1 1.83,-0.38 z"
       id="path199" />
    <path
       class="cls-20"
       d="m 1451.48,1296.43 c 9.64,-2.72 9.9,-1 11.12,-1.42 1.45,-0.45 13.11,-15.92 13.11,-15.92 0,0 34.73,-45.35 36.5,-47.87 l 11,-58.67 32.9,-0.26 c 0,0 -13.74,63.37 -15.09,66.51 -1.35,3.14 -56.36,58.52 -61,63.56 0,0 -3,8.19 -5.09,13.25 -2.09,5.06 -6.52,8.77 -7.35,10.09 a 44.22,44.22 0 0 1 -8.45,8.51 c -4.56,3.54 -2.15,-2 -2.15,-2 0,0 7.06,-8.12 6.24,-8.6 -0.64,-0.37 -4.2,4.3 -9.2,8.27 -1.29,1 -2.56,2 -3.74,2.93 -3.1,2.39 -5.72,1.12 -3,-1.91 a 35,35 0 0 1 4,-3.87 28.32,28.32 0 0 0 3.54,-3.86 37.86,37.86 0 0 0 3.62,-4 c -0.2,-0.06 -0.14,-0.83 -1.55,0.2 -1.69,1.25 -4.58,4.72 -7.23,6.36 -1.51,0.93 -4.51,3.07 -4.51,3.07 0,0 -5.25,2.36 -5.53,2.1 -1.52,-1.41 1.49,-4 3.74,-5 a 23.59,23.59 0 0 1 4.24,-3.52 c 0,0 5.36,-5.86 4.42,-6.68 -0.4,-0.34 -4.18,2.83 -8.46,5.34 -4,2.33 -8.45,4 -9.14,3.3 -1.16,-1.23 2.92,-4.29 2.92,-4.29 0,0 3,-2 3.92,-2.73 1.1,-0.86 4.14,-3.71 4.14,-3.71 0,0 10,-10.43 9.09,-11.14 -0.91,-0.71 -4.07,-1.66 -5,-1.24 -0.93,0.42 -2,2 -2.87,2.45 a 2.79,2.79 0 0 1 -3.21,-0.83 c -0.74,-1 2.54,-4.69 2.54,-4.69 0,0 2.74,-2.94 5.53,-3.73 z"
       id="path201" />
    <path
       class="cls-21"
       d="m 1505.21,1592.74 c 0,0 -0.3,20.24 -0.29,20.28 0.43,2.57 3.6,8.92 3.6,11.26 0,8.78 -39.89,-7.45 -31,-11.34 0.81,-0.35 5,-3 5.31,-6 0.41,-4.61 1.45,-13.92 1.45,-13.92 z"
       id="path203" />
    <path
       class="cls-21"
       d="m 1594,1592.74 c 0,0 1.17,20.24 1.17,20.28 0.43,2.57 2.13,8.92 2.13,11.26 0,8.78 -39.89,-7.45 -31,-11.34 0.81,-0.35 6.3,-5 6.57,-8 0.41,-4.6 0.19,-11.93 0.19,-11.93 z"
       id="path205" />
    <path
       class="cls-9"
       d="m 1477.67,1612.86 c 0,0 9.36,2.68 14.16,3.35 4.8,0.67 11.12,-5 14.51,-3.45 3.74,1.68 3.36,18.23 3.36,18.23 0,0 -47.89,0.68 -64.12,-0.24 -5.85,-0.33 12.94,-11.64 32.09,-17.89 z"
       id="path207" />
    <path
       class="cls-9"
       d="m 1566.43,1612.86 c 0,0 9.36,2.68 14.16,3.35 4.8,0.67 11.12,-5 14.51,-3.45 3.74,1.68 3.64,18 3.64,18 0,0 -53.49,0.57 -66.53,0 -5.86,-0.27 15.07,-11.65 34.22,-17.9 z"
       id="path209" />
    <path
       class="cls-11"
       d="m 1530.76,1300.49 -16.86,7.13 -35.48,165.87 1.44,124.35 28.44,0.65 c 0,0 13.23,-108.78 13.23,-117.21 0,-8.43 61.26,-147.51 61.26,-147.51 z"
       id="path211" />
    <path
       class="cls-22"
       d="m 1543.78,1309.62 c 0,0 12.43,127.8 12.43,149.34 0,21.54 10.07,142.12 10.07,142.12 l 28.5,-0.16 c 0,0 2.06,-36.75 5.12,-90.82 0.48,-8.47 -0.62,-25.55 0,-34.32 4.43,-63 13.2,-122.4 9,-145.93 -0.67,-3.79 -1.94,-13.69 -4.41,-16.19 -18.65,-18.91 -60.71,-4.04 -60.71,-4.04 z"
       id="path213" />
    <path
       class="cls-16"
       d="m 1509,1208.76 34.49,-2.26 c 0,0 1.7,-30.19 1.7,-44.59 0,-17.47 5.44,-43.23 3.32,-42.74 -6,1.36 -16.27,6.73 -21.06,13.26 -16.54,22.57 -18.45,76.33 -18.45,76.33 z"
       id="path215" />
    <path
       class="cls-23"
       d="m 1590.73,1118.5 c 0,0 19.67,2.68 24.85,6.4 5.83,4.19 12.3,13.57 12.3,13.57 0,0 -24.15,111.77 -24.19,130.58 0,14.55 5.23,50.28 5.23,50.28 0,0 -73,4.51 -100.62,-6.17 0,0 8.72,-42.49 8.72,-53.65 0,-11.16 10.44,-112.62 12.82,-119.71 2.16,-6.43 6.1,-18 19.43,-20.83 13.33,-2.83 41.46,-0.47 41.46,-0.47 z"
       id="path217" />
    <path
       class="cls-21"
       d="m 1585.36,1088.41 4.87,31.21 c 0,0 -17.78,37.16 -28.4,33.94 -8.9,-2.71 -3.42,-35.59 -3.42,-35.59 0,0 4.85,-17.66 3.4,-26.5 -1.45,-8.84 23.55,-3.06 23.55,-3.06 z"
       id="path219" />
    <path
       class="cls-20"
       d="m 1561.81,1091.47 c -1.46,-8.83 23.55,-3.06 23.55,-3.06 l 0.4,2.58 a 14,14 0 0 1 -2.71,4.35 33.38,33.38 0 0 1 -21.87,9.63 c 0.76,-4.77 1.22,-9.87 0.63,-13.5 z"
       id="path221" />
    <path
       class="cls-21"
       d="m 1589.46,1044.25 c 0.71,-0.25 5.67,35.55 -3.74,45.4 -9.41,9.85 -27.75,13.07 -34.33,5.31 -7.27,-8.58 -6.9,-47 7.73,-57.18 14.63,-10.18 30.34,6.47 30.34,6.47 z"
       id="path223" />
    <path
       class="cls-24"
       d="m 1564.69,1018.63 a 40.77,40.77 0 0 1 21.32,11.83 c 5.14,0.59 12.12,3.35 19.33,15 8.86,14.27 2.31,30.09 -8,37.84 -10.31,7.75 -10.18,16.68 -10.18,16.68 l -1.63,-4.59 a 25.35,25.35 0 0 1 -1.29,-10.92 20.78,20.78 0 0 1 1.67,-6.56 c 2.48,-5.19 -5.33,-8.63 -7.52,-12.94 -1.69,-3.32 -1.77,-10.91 -4.43,-16.4 l -3.17,-4.18 c 0,0 -7.32,-5.54 -14.48,-4 -7.16,1.54 -6.13,-24.64 8.38,-21.76 z"
       id="path225" />
    <path
       class="cls-21"
       d="m 1578.87,1071.29 c -0.07,4.37 2,8 4.56,8 2.56,0 4.76,-3.46 4.83,-7.83 0.07,-4.37 -2,-7.94 -4.56,-8 -2.56,-0.06 -4.7,3.46 -4.83,7.83 z"
       id="path227" />
    <path
       class="cls-25"
       d="m 1540.57,1232.19 -0.47,2.67 a 2.57,2.57 0 0 1 -3,2.05 l -56.4,-9.57 a 2.52,2.52 0 0 1 -2.1,-2.91 l 0.47,-2.66 a 2.58,2.58 0 0 1 3,-2.06 l 56.4,9.57 a 2.53,2.53 0 0 1 2.1,2.91 z"
       id="path229" />
    <path
       class="cls-21"
       d="m 1620.54,1132.89 c -6.62,-0.19 -12.47,42.56 -8.28,46.77 4.19,4.21 5,56.86 5,56.86 l -62.44,-1.52 v 0 c -1.21,-0.8 -14.29,-9.4 -16.16,-11.28 -1.87,-1.88 -11.5,-1 -14,1.73 -2.5,2.73 5.61,0.49 7.85,2 2.24,1.51 -1.68,5.18 -1.68,5.18 0,0 -15.83,2.24 -18.91,-1 -3.08,-3.24 -11.32,-8.63 -12.44,-5.42 -0.58,1.65 3.67,6.66 6.06,8.76 -3,-2.19 -6.56,-4.51 -7.79,-4.11 -2.24,0.74 -1.31,3.53 -0.1,4.36 1.21,0.83 13.78,10.21 15.74,10.87 1.96,0.66 31.14,1.34 36.18,2.44 0,0 82.34,18.36 87,17.21 4.1,-1 8.21,-26.81 8.21,-46.57 0,-19.76 -3.56,-85.69 -24.24,-86.28 z"
       id="path231" />
    <path
       class="cls-23"
       d="m 1612,1123.14 c 0,0 11.52,2.6 23.42,15.69 10.82,11.9 17.63,78.56 17.63,78.56 l -37.36,5.92 -3,-32.25 -10,-14.75 z"
       id="path233" />
    <path
       class="cls-26"
       d="m 454.58,1606.64 c 0,0 -2.34,24.76 -8.35,29.31 -6.01,4.55 -14,21.37 -10,30.46 a 10.18,10.18 0 0 0 6.61,5.4 c 8.45,2.71 17.43,-1.85 21,-10.27 a 54.1,54.1 0 0 0 4.13,-18.88 c 0.9,-20.12 6.91,-30.35 6.91,-30.35 z"
       id="path235" />
    <path
       class="cls-26"
       d="m 546.93,1616.78 c 0,0 1.9,25 0.36,33.1 -0.82,4.35 -5.41,13.3 -3.31,17.39 2.1,4.09 4.51,5.12 4.51,5.12 l 54.52,0.91 c 3,0 1,-1.94 -1.39,-3.77 -3.92,-3 -7.08,-5 -19.6,-11.29 -0.82,-0.41 -3.79,-2.38 -4.86,-3.06 a 38.36,38.36 0 0 1 -7.8,-7.17 c -3.91,-4.54 -4.26,-26.54 -4.26,-26.54 z"
       id="path237" />
    <path
       class="cls-27"
       d="m 589.54,1284.67 c 0,0 6.87,40.56 2.36,67.16 -4.51,26.6 -26.14,273.11 -26.14,273.11 l -24,1.41 c 0,0 -5,-103 -4.13,-117.3 0.87,-14.3 8,-38.28 8,-38.28 l -2.39,-83.14 30.34,-109.22 z"
       id="path239" />
    <path
       class="cls-28"
       d="m 518.88,1276.13 c 0,0 -18.93,29.67 -23.44,54.22 -4.51,24.55 3.31,100 -5.36,132.16 -4.69,17.42 -22.48,44.31 -25.19,66.81 -2.71,22.5 -13.31,81.45 -13.31,81.45 l 24,5 55.85,-147.21 43.81,-133.06 11.22,-68.53 z"
       id="path241" />
    <path
       class="cls-29"
       d="m 465.48,1657.11 c -13.1,2.48 -21.81,-5.49 -26.34,-11.46 -3.33,6.76 -5.37,15.2 -2.93,20.76 2.16,4.9 8,6.23 13,6.42 a 13.94,13.94 0 0 0 12.75,-7.41 46.19,46.19 0 0 0 3.52,-8.31 z"
       id="path243" />
    <path
       class="cls-29"
       d="m 577.15,1655.18 c -14.42,3.85 -25.07,1.23 -31,-1.27 -1.53,4.53 -3.57,10.22 -2.49,13.51 1.32,4 3.21,5.25 4.87,5.3 13.17,0.36 48.24,0.52 58.28,0.65 a 1.71,1.71 0 0 0 1.28,-2.8 c -2.53,-3.1 -29.87,-14.71 -30.94,-15.39 z"
       id="path245" />
    <path
       class="cls-30"
       d="m 591.83,1062.93 c -4.26,-27.76 -29.38,-47.73 -55.65,-34.26 -5.9,3 -13.9,9.18 -18,14.42 -11.23,14.4 -14,32.25 -25.84,46.1 -10.26,11.94 -37.63,9.69 -50.42,18.88 -12.79,9.19 -21.74,25.65 -21.74,45.34 0,22 5,45.42 22,59.34 17,13.92 41.33,17.4 62.55,11.5 21.22,-5.9 39.43,-20.37 52.54,-38.07 13.11,-17.7 22.37,-37.12 28.9,-58.15 7.35,-23.49 8.41,-47.16 5.66,-65.1 z"
       id="path247" />
    <path
       class="cls-31"
       d="m 495.71,1100.59 c 0,0 -32.25,-57.56 -40.1,-69.8 -7.85,-12.24 -28.28,-60.85 -29,-62.77 -0.72,-1.92 14.07,-24.92 10.77,-25.71 -3.3,-0.79 -7,12.13 -10.49,10.59 -3.49,-1.54 -13.82,-32.65 -15.83,-31.1 -3.76,2.88 5.55,19.29 3.54,20.32 -2.01,1.03 -8.07,-18 -12,-17.49 -3.93,0.51 7.49,17.49 6.39,19 -1.1,1.51 -13,-14.46 -15.11,-11.06 -1.16,1.85 10.91,13.93 8.59,15.06 -2.32,1.13 -13.07,-6.63 -14.21,-4.43 -1.14,2.2 9.93,5.33 13.24,11.39 3.31,6.06 8.94,8.68 11.28,19.9 2.34,11.22 5.84,51.84 17.82,72.1 11.98,20.26 38.34,65.12 38.34,65.12 z"
       id="path249" />
    <path
       class="cls-32"
       d="m 586.49,1168.94 -25.85,14.85 c 0,0 49.06,64.59 51.88,67.54 l 20.65,-18.27 z"
       id="path251" />
    <path
       class="cls-4"
       d="m 565,1130.34 c 0,0 20.07,3.82 45.07,65.75 l -34.38,18.4 -24.5,-38 z"
       id="path253" />
    <path
       class="cls-32"
       d="m 629.45,1134.42 c 0,0 -4.53,-1.3 -12,5.14 -9.24,8 -9.77,69 -7.34,90.41 l 2.43,21.36 c 0,0 18.85,-6.62 23.28,-29.56 4.43,-22.94 6.14,-82.57 6.14,-82.57 z"
       id="path255" />
    <path
       class="cls-2"
       d="m 532.9,1124 c 0,0 -25.27,-1.61 -35.27,9.27 -10,10.88 22.18,96.89 24,110.74 1.82,13.85 -14.91,41.43 -14.91,41.43 0,0 69.55,32.52 86.51,21.32 0,0 -2.72,-110.92 -4.53,-120.81 -1.81,-9.89 -17,-50.09 -20.61,-54 -3.61,-3.91 -35.19,-7.95 -35.19,-7.95 z"
       id="path257" />
    <path
       class="cls-26"
       d="m 541.31,1090.31 c 0,0 -0.13,0.74 -0.37,2 -1.12,6.06 -5.46,26.17 -8.39,31.7 -3.54,6.69 12.12,28 27.2,25.4 4.49,-0.78 -3.79,-19.59 -3.39,-21.58 0.76,-3.81 1.79,-9 2.85,-14.35 0.6,-3 1.2,-6.06 1.77,-8.93 l 2.93,-14.81 z"
       id="path259" />
    <path
       class="cls-33"
       d="m 540.94,1092.32 c 0.24,-1.27 0.37,-2 0.37,-2 l 22.6,-0.56 -2.91,14.8 c -0.57,2.86 -1.17,5.89 -1.76,8.88 a 21.13,21.13 0 0 1 -10.79,-5.4 28.49,28.49 0 0 1 -8.17,-12.13 c 0.26,-1.42 0.49,-2.65 0.66,-3.59 z"
       id="path261" />
    <path
       class="cls-26"
       d="m 556.52,1039.05 c 0,0 -10.65,-1.23 -17.33,7.39 -6.68,8.62 -13.87,35.27 2.71,49.76 16.58,14.49 33,-1.91 35.41,-19.3 2.41,-17.39 3.37,-38.48 -20.79,-37.85 z"
       id="path263" />
    <path
       class="cls-26"
       d="m 582.21,1076.64 c -2,3.84 -5.3,6 -7.42,4.75 -2.12,-1.25 -2.23,-5.32 -0.25,-9.16 1.98,-3.84 5.3,-6 7.42,-4.75 2.12,1.25 2.23,5.32 0.25,9.16 z"
       id="path265" />
    <path
       class="cls-34"
       d="m 557.71,1036.2 c 0,0 -14.23,25.34 -24.41,26.51 -10.18,1.17 -11.52,14.64 -11.52,14.64 0,0 3.64,-31 13.72,-37 10.08,-6 22.21,-4.15 22.21,-4.15 z"
       id="path267" />
    <path
       class="cls-26"
       d="m 536,1069.08 c 0.83,4.5 -0.84,8.63 -3.72,9.22 -2.88,0.59 -5.89,-2.58 -6.72,-7.08 -0.83,-4.5 0.84,-8.63 3.72,-9.22 2.88,-0.59 5.86,2.58 6.72,7.08 z"
       id="path269" />
    <path
       class="cls-6"
       d="m 486.78,1081.93 c 0,0 35.68,38.29 41,53.71 5.32,15.42 -5.17,37.5 -19.63,38.47 -14.46,0.97 -46.66,-67.95 -46.66,-67.95 z"
       id="path271" />
    <path
       class="cls-28"
       d="M 662.64,1139.56 H 638 c -13.82,0 -25,11.72 -25,26.18 v 370.75 h 74.72 v -370.75 c -0.06,-14.46 -11.26,-26.18 -25.08,-26.18 z"
       id="path273" />
    <rect
       class="cls-35"
       x="635.79999"
       y="1139.5601"
       width="29"
       height="396.92999"
       id="rect275" />
    <path
       class="cls-36"
       d="m 649.4,1674.37 v 0 a 10.87,10.87 0 0 0 10.5,-8.79 l 8.45,-39.26 H 631 l 7.86,39.1 a 10.89,10.89 0 0 0 10.54,8.95 z"
       id="path277" />
    <polygon
       class="cls-37"
       points="687.66,1536.49 612.94,1536.49 631,1626.32 668.35,1626.32 "
       id="polygon279" />
    <path
       class="cls-16"
       d="m 673.07,1139.56 h -45.54 c -8.06,0 -14.59,6.83 -14.59,15.26 v 54.34 h 74.72 v -54.34 c 0,-8.43 -6.53,-15.26 -14.59,-15.26 z"
       id="path281" />
    <rect
       class="cls-35"
       x="608.42999"
       y="1209.16"
       width="83.739998"
       height="16.389999"
       rx="0.67000002"
       transform="rotate(180,650.305,1217.355)"
       id="rect283"
       ry="0.67000002" />
  </g>
  <g
     id="Layer_4"
     data-name="Layer 4"
     transform="translate(-306.77864,-308.5)">
    <path
       class="cls-6"
       d="m 601.83,593 c -80.06,32.26 -80.36,146.87 -0.35,180.22 a 65,65 0 0 1 32.86,31.18 l 23.92,47.93 a 28.31,28.31 0 0 0 35.92,13.62 l 30.33,-12.22 A 28.3,28.3 0 0 0 741,819 C 724.92,767.58 715.27,749.79 727.08,722.61 761.56,643.14 681.91,560.73 601.83,593 Z"
       id="path286" />
    <path
       class="cls-4"
       d="m 659.89,812.88 c -15.44,-43.67 -33.63,-89.36 -39.22,-102.22 -47.06,13.27 -40.18,-41 -13.63,-25.49 7.57,4.42 12.29,11.65 16.18,19.86 a 126.3,126.3 0 0 0 42.44,-23.37 c -3.24,-10.9 -6.2,-19 -4.7,-26.82 2.28,-11.74 15.19,-17.68 23,-8.49 a 17.07,17.07 0 0 1 3.86,12.86 c -1.21,9.56 -9.53,17.56 -16.88,24 10.48,35.13 22,70.31 34.28,104.74 l -4.38,1.57 c -12.09,-33.88 -23.43,-68.48 -33.77,-103 a 130.86,130.86 0 0 1 -42,22.8 c 7.09,16.46 24.63,61 39.13,102 z M 595.68,705.13 c 5.25,3.62 12.79,4 23,1.25 -3.49,-7.23 -7.67,-13.5 -14,-17.2 -14.27,-8.34 -17.82,9.88 -9,15.95 z m 69.84,-49.4 c -1.26,6.53 1.43,13.94 4,22.57 5.93,-5.39 12.76,-12 13.73,-19.68 0.69,-5.37 -2.91,-12 -8.26,-12.12 -0.59,-0.02 -8.58,4.64 -9.47,9.23 z"
       id="path288" />
    <path
       class="cls-38"
       d="m 633.69,803.22 c 0.21,0.39 0.45,0.77 0.65,1.17 l 23.92,47.93 a 28.31,28.31 0 0 0 35.92,13.62 l 30.33,-12.22 A 28.3,28.3 0 0 0 741,819 c -7.15,-22.88 -13,-39.09 -16.31,-52.44 z"
       id="path290" />
    <path
       class="cls-6"
       d="m 531.75,568.88 -35,-39.82 a 9.3046709,9.3046709 0 1 1 14,-12.26 l 35,39.81 a 9.3079657,9.3079657 0 1 1 -14,12.27 z"
       id="path292" />
    <path
       class="cls-6"
       d="m 502,690.76 -55.23,7.38 a 9.2917706,9.2917706 0 1 1 -2.46,-18.42 l 55.24,-7.37 a 9.29,9.29 0 0 1 2.45,18.41 z"
       id="path294" />
    <path
       class="cls-6"
       d="m 485.36,868.87 a 9.3,9.3 0 0 1 -2.79,-12.87 304.17,304.17 0 0 1 35.6,-45.23 9.29,9.29 0 1 1 13.44,12.82 285.25,285.25 0 0 0 -33.41,42.46 9.28,9.28 0 0 1 -12.84,2.82 z"
       id="path296" />
    <path
       class="cls-6"
       d="m 665.06,536.5 a 9.29,9.29 0 0 1 -8.9,-9.66 353,353 0 0 0 -4.56,-72.84 9.29,9.29 0 0 1 18.32,-3.08 371.31,371.31 0 0 1 4.8,76.73 9.28,9.28 0 0 1 -9.66,8.85 z"
       id="path298" />
    <path
       class="cls-6"
       d="M 736.42,593.67 A 9.3,9.3 0 0 1 740,581 l 52.53,-29.56 a 9.29,9.29 0 1 1 9.11,16.19 l -52.53,29.56 a 9.29,9.29 0 0 1 -12.69,-3.52 z"
       id="path300" />
    <path
       class="cls-6"
       d="m 862.45,722.86 a 9.26,9.26 0 0 1 -2.54,0.21 291.48,291.48 0 0 1 -61.45,-10 9.29,9.29 0 0 1 4.93,-17.91 272.72,272.72 0 0 0 57.53,9.36 9.29,9.29 0 0 1 1.53,18.34 z"
       id="path302" />
    <rect
       class="cls-10"
       x="859.23999"
       y="379.95999"
       width="589.03003"
       height="63.869999"
       rx="8.1599998"
       id="rect304"
       ry="8.1599998" />
    <path
       class="cls-3"
       d="M 1310.05,435.37 H 896.91 a 13.75,13.75 0 0 1 -13.73,-13.74 v -19.7 a 13.75,13.75 0 0 1 13.73,-13.73 h 413.14 a 13.75,13.75 0 0 1 13.74,13.73 v 19.7 a 13.75,13.75 0 0 1 -13.74,13.74 z M 896.91,392 a 10,10 0 0 0 -9.93,9.93 v 19.7 a 10,10 0 0 0 9.93,9.94 h 413.14 a 10,10 0 0 0 9.94,-9.94 v -19.7 a 10,10 0 0 0 -9.94,-9.93 z"
       id="path306" />
    <path
       class="cls-3"
       d="m 1382.37,418.17 a 16.54,16.54 0 1 1 16.54,-16.54 16.56,16.56 0 0 1 -16.54,16.54 z m 0,-29.27 a 12.74,12.74 0 1 0 12.73,12.73 12.75,12.75 0 0 0 -12.73,-12.73 z"
       id="path308" />
    <path
       class="cls-3"
       d="m 1404,434.6 -14.8,-19.84 a 1.9,1.9 0 0 1 2.93,-2.41 l 0.12,0.13 16.68,18.52 a 3.06,3.06 0 0 1 -4.55,4.09 l -0.17,-0.21 z"
       id="path310" />
    <path
       class="cls-2"
       d="m 1752,452.25 a 26.62,26.62 0 1 1 -35.16,-13.46 26.62,26.62 0 0 1 35.16,13.46 z"
       id="path312" />
    <path
       class="cls-39"
       d="m 1716.42,472.75 a 14.235168,14.235168 0 1 0 26,-11.6 z"
       id="path314" />
    <path
       class="cls-5"
       d="m 1997.66,1092.51 -10.28,-9 -13.24,3.37 a 1.88,1.88 0 0 1 -2.19,-2.56 l 5.38,-12.56 -7.33,-11.56 a 1.88,1.88 0 0 1 1.76,-2.87 l 13.61,1.24 8.73,-10.51 a 1.88,1.88 0 0 1 3.28,0.78 l 3,13.33 12.7,5.06 a 1.88,1.88 0 0 1 0.26,3.36 l -11.73,7 -0.9,13.63 a 1.87,1.87 0 0 1 -3.05,1.29 z"
       id="path316" />
    <path
       class="cls-2"
       d="m 522.36,425.1 -10.28,-9 -13.24,3.37 a 1.88,1.88 0 0 1 -2.19,-2.56 l 5.35,-12.57 -7.29,-11.56 a 1.88,1.88 0 0 1 1.76,-2.87 l 13.6,1.24 8.74,-10.51 a 1.88,1.88 0 0 1 3.28,0.79 l 3,13.32 12.7,5.07 a 1.87,1.87 0 0 1 0.26,3.35 l -11.74,7 -0.89,13.64 a 1.88,1.88 0 0 1 -3.06,1.29 z"
       id="path318" />
    <path
       class="cls-16"
       d="m 797.26,436 -10.26,-9 -13.24,3.36 a 1.88,1.88 0 0 1 -2.19,-2.56 l 5.38,-12.56 -7.29,-11.55 a 1.88,1.88 0 0 1 1.76,-2.88 L 785,402 l 8.73,-10.5 a 1.88,1.88 0 0 1 3.28,0.78 l 3,13.33 12.7,5.06 a 1.88,1.88 0 0 1 0.26,3.36 l -11.74,7 -0.89,13.64 a 1.88,1.88 0 0 1 -3.08,1.33 z"
       id="path320" />
    <path
       class="cls-9"
       d="m 1596.81,386.57 -11,6.7 11.42,51.31 a 6.63,6.63 0 0 0 9.92,4.22 v 0 a 6.63,6.63 0 0 0 3,-7.16 l -2.79,-12.05 11.55,-7 9.56,8 a 6.62,6.62 0 0 0 7.7,0.58 l 0.21,-0.13 a 6.63,6.63 0 0 0 0.8,-10.75 z m 7.45,30.92 -2.11,-9.43 7.41,6.2 z"
       id="path322" />
    <path
       class="cls-10"
       d="m 1794.41,318.5 c 5.26,0.43 15.55,2.56 25,5.26 11.57,3.31 18.34,6.46 23.41,11.81 a 19,19 0 0 1 5.38,19.3 c -2.13,7.47 -8.48,13.19 -18.93,14 l -0.07,0.25 c 8.83,5.35 13.86,14.6 10.77,25.42 a 23.21,23.21 0 0 1 -13.8,15.3 c -7.48,3.11 -18.46,2.94 -35.14,-1.83 a 153.11,153.11 0 0 1 -20.17,-7.11 z m 9.59,37.5 6.22,1.78 c 10,2.84 16.48,0.27 18.26,-5.95 1.78,-6.22 -2.08,-11.1 -10.67,-13.55 a 53.73,53.73 0 0 0 -8.22,-1.81 z m -10.63,37.2 a 59.27,59.27 0 0 0 7.27,2.35 c 8.59,2.45 17.1,1.39 19.62,-7.45 2.42,-8.46 -4.21,-14 -13.66,-16.69 l -6.47,-1.85 z"
       id="path324" />
    <path
       class="cls-16"
       d="m 1943.81,602.39 a 7.85,7.85 0 0 1 -5.78,9.39 73.33,73.33 0 0 1 -14.54,1.87 c -29.64,1 -45.52,-16.93 -46.35,-41.35 -1,-29.25 19.33,-46.24 45.27,-47.11 a 65.87,65.87 0 0 1 13.35,0.84 7.87,7.87 0 0 1 6.31,9.45 l -0.06,0.28 a 7.85,7.85 0 0 1 -9,6.06 44.19,44.19 0 0 0 -9.16,-0.64 c -15.39,0.52 -27,10.21 -26.38,29.29 0.57,17.17 11.12,27.64 28.41,27 a 50.26,50.26 0 0 0 8.68,-1.09 7.85,7.85 0 0 1 9.26,6 z"
       id="path326" />
  </g>
</svg>
