<svg xmlns="http://www.w3.org/2000/svg" viewBox="0 0 1100 800"><defs><style>.cls-1{fill:#187a7a;}.cls-2{opacity:0.3;}.cls-3{fill:#f7f7f7;}.cls-4{fill:#ea526f;}.cls-5{fill:#25ced1;}.cls-6{fill:#ffe1d4;}.cls-7{fill:#032624;}.cls-8{fill:#fff;}.cls-9{fill:#350513;}.cls-10{fill:#eacfc1;}.cls-11{fill:#995f4b;}.cls-12{fill:#ffcce3;}.cls-13{fill:#2b2b2b;}.cls-14{fill:#3b5359;}.cls-15{fill:#cc937a;}.cls-16{fill:#102d2c;}.cls-17{fill:#5b061b;}.cls-18{fill:none;}.cls-19{fill:#5b3427;}.cls-20{fill:#484f5b;}.cls-21{fill:#f5f5f5;}.cls-22{fill:#1d2b56;}.cls-23{fill:#92e7e8;}.cls-24{fill:#ffe1ef;}.cls-25{fill:#f7a9c9;}.cls-26{fill:#139999;}.cls-27{fill:#295959;}.cls-28{fill:#1faaad;}</style></defs><g id="background"><rect class="cls-1" width="1100" height="800"/></g><g id="object"><g class="cls-2"><path class="cls-3" d="M511.28,609.56c-29.64.08-59.27.71-88.86,3.62-11.15,1.09-22.07,3.51-33.25,4.48-22.33,1.94-44.26,5.57-66.67,7.24-18.05,1.35-36.17,2.14-54.17,3.85A214.8,214.8,0,0,1,216,627.34c-12.39-2-24.84-3.06-37-6.21-13.63-3.52-28.44-6-42.64-6-20.25.13-40,.14-59.36,6.36-6.8,2.18-15.13,5.77-20.3,10.35-11.82,10.49-13.42,36.65-1.61,47.53,19.89,18.3,62.34,25.49,90.22,25.83,30.55.37,60.23-1.64,90.82-2.82,28.43-1.09,56.79-2.65,85.27-2.6,58.16.12,116.33,0,174.39-3.43,54.54-3.23,109.23-2.12,163.89-2.12,56.06,0,111.74.39,167.39,7,24.25,2.87,48.95,3.87,73.32,5.88,21.83,1.8,42.8,0,64.54-1.7a170.12,170.12,0,0,0,53-12.55c13.13-5.55,36.53-22.78,40.55-36,11.29-37.12-159-36.22-185.2-36.14-29.25.09-58.74.94-88,0-12.29-.42-24.41-2.54-36.41-4.87s-24-1.73-36.12-2.71c-50.56-4.06-101.23-3.47-151.94-3.47C544.31,609.64,527.79,609.51,511.28,609.56Z"/></g></g><g id="Layer_3" data-name="Layer 3"><path class="cls-4" d="M781.7,160.52a72.29,72.29,0,0,0,.22-8.34,68.79,68.79,0,0,0-.73-8.05l-14-2.33-4.75-13.28,9.35-10.71a70.42,70.42,0,0,0-10-13L749,111.22l-11.67-7.93,1.26-14.19a69.93,69.93,0,0,0-15.26-4.49l-6.61,12.62-14.11.33-7.24-12.27a70.13,70.13,0,0,0-15.47,5.46l2.07,14.1-11.21,8.57-13.06-5.64a70.42,70.42,0,0,0-9.29,13.51l10,10.16-4,13.52-13.89,3.13a73.5,73.5,0,0,0-.26,8.56,77.27,77.27,0,0,0,.69,7.82l14,2.36,4.72,13.29-9.42,10.7a72.36,72.36,0,0,0,10,13L673,197.51l11.64,8-1.32,14.19a71.59,71.59,0,0,0,15.74,4.64l6.57-12.66,14.1-.39L727,223.52A71.44,71.44,0,0,0,742.46,218l-2.12-14.08,11.17-8.63,13.08,5.61a70.52,70.52,0,0,0,9.26-13.54l-10-10.12,3.95-13.56Zm-70.64,28.94a35,35,0,1,1,35-35A35,35,0,0,1,711.06,189.46Z"/><polygon class="cls-5" points="661.38 310.73 602.89 353.41 551.88 331.37 544.4 345.13 583.03 371.44 604.68 379.54 661.38 352.24 661.38 310.73"/><polygon class="cls-6" points="739.55 222.95 740.81 205.05 726.33 193.84 720.26 201.78 726.8 213.46 724.46 219.53 730.88 229.17 739.55 222.95"/><polygon class="cls-5" points="625.53 425.55 624.36 526.84 635.16 657.22 649.83 657.22 667.39 536.93 687.48 416.43 625.53 425.55"/><polygon class="cls-7" points="649.75 663.41 633.88 671.35 625.94 663.41 633.88 655.48 649.75 655.48 649.75 663.41"/><polygon class="cls-5" points="726.16 425.55 726.45 484.15 716.55 657.22 701.87 657.22 677.32 542.37 664.21 416.43 726.16 425.55"/><polygon class="cls-7" points="701.96 663.41 717.83 671.35 725.76 663.41 717.83 655.48 701.96 655.48 701.96 663.41"/><path class="cls-5" d="M741.42,460.83c.32,9.3.11,21.73-3.8,22.2a3.9,3.9,0,0,1-2.09-.55c-6.8-3.31-11.65-8-18.37-11.18-7-3.35-15-5.1-22.83-6.31a237,237,0,0,0-35.22-3.08c-10.08-.09-20.55,4.51-30.08,7-3.67,1-6.65,3.65-9.7,5.75-4.5,3.09-6.47,4.32-5.86-2,1-10.32,2-20.64,3.31-30.93,2.54-20.53,6-41,11.82-60.88,2.22-7.59,4.8-15.07,7.37-22.56q4.68-13.67,9.38-27.33c3.89-11.33,10.46-19.31,21.95-23.27,9.93-3.42,22.27-4.36,31.93.44,10.74,5.32,15.84,23.47,21.06,33.17,4.57,8.5,10.34,31.68,12.05,40.84,2.06,11,4,22,5.46,33A337.76,337.76,0,0,1,741,451.35C741,452.68,741.27,456.39,741.42,460.83Z"/><path class="cls-8" d="M688.37,309.75l-19.83.19s-21.28,74.37-22.07,87.19c-.76,12.58-6.14,63.61-6.14,63.61s22,.52,47.27,3.6c24.74,5.29,26.82,2.16,26.82,2.16s-13.35-53.63-13.8-69c-.45-15.76-2.47-67.81-2.47-67.81Z"/><path class="cls-4" d="M685.5,311h-9.77a2.76,2.76,0,0,0-2.19,4.43l4,5.25L666.89,419,680,431.92l9-15.32-2.46-96,1.59-6.25A2.76,2.76,0,0,0,685.5,311Z"/><path class="cls-6" d="M676.34,310.13a2.47,2.47,0,0,0,.82.47,4.43,4.43,0,0,0,1.92,0l7.88-.93c-.87-8,3.83-9.85,8.4-15s3.21-12.3,2.95-18.71a13.67,13.67,0,0,0-.91-5.25c-1.33-2.84-4.41-4.41-7.41-5.34-7.64-2.37-16.38-1.79-23.11,2.54a12.18,12.18,0,0,0-4.43,4.5c-1.5,2.92-1.12,6.41-.7,9.67a32.5,32.5,0,0,0,5,14.14c2.63,3.93,7.66,5.81,8.24,10.53A5.36,5.36,0,0,0,676.34,310.13Z"/><path class="cls-9" d="M662,276.29c.45,2,1.39,4.06.9,6.07-3.21-1.09-5.3-4.37-6.44-7.7a11.94,11.94,0,0,1-.76-4.72,5.59,5.59,0,0,1,2.09-4.1c1.76-1.27,4.92-.77,5.43,1.52S661.3,273.25,662,276.29Z"/><path class="cls-9" d="M645,258.55a7.17,7.17,0,0,1,3.16-6c1.86-1.26,4-2.3,5.14-4.3.88-1.55,1-3.48,1.88-5,1.58-2.82,5-3.65,8-4.61,7.44-2.39,11.45-5.15,19.34-2.09,5.61,2.18,12.86,2.47,18.06,5.64a18.15,18.15,0,0,1,5.54,5.83c5.26,8.22,6.52,19.79,3.1,28.36a35.45,35.45,0,0,1-2.78,5.38c-2.08,3.37-4.31,7.53-8,9.19-.23-1.59-1.42-2.47-1.79-4a12.14,12.14,0,0,1-.12-3.46c.23-4.51,1.61-11.64-2.89-13.88-5.7-2.83-16.38-.28-21.86,2.12-4.85,2.12-13,4.87-18.22,2.6C648.69,272.12,644.79,263.72,645,258.55Z"/><polygon class="cls-5" points="694.73 307.12 745.08 292.28 726.45 229.33 741.8 218.31 778.87 291.19 768.62 316.42 720.52 341.25 694.73 307.12"/><polygon class="cls-10" points="535.13 341.15 540.4 331.29 553.25 331.29 560.02 341.25 545.43 347.66 535.13 341.15"/><path class="cls-4" d="M549.22,349.13l-5.69-12.56q-7,.6-14.06,1.87t-13.82,3.19l-.9,13.77a20,20,0,0,1-31.61,14.94l-11.26-8.08a146.32,146.32,0,0,0-21.57,18.35L456.42,393a20,20,0,0,1-19.91,28.74l-13.74-1.36A146.77,146.77,0,0,0,413.18,447l11.52,7.69a20,20,0,0,1-2.86,34.85l-12.57,5.69q.6,7,1.87,14.06t3.2,13.82l13.76.9A20,20,0,0,1,443,555.65L435,566.91a146.25,146.25,0,0,0,18.34,21.57l12.39-6.11a20,20,0,0,1,28.75,19.91L493.09,616a146.41,146.41,0,0,0,26.64,9.59l7.7-11.52A20,20,0,0,1,562.27,617L568,629.52q7-.6,14.06-1.87t13.82-3.2l.9-13.76a20,20,0,0,1,31.61-14.94l11.26,8.07a145.23,145.23,0,0,0,21.57-18.34l-6.11-12.39A20,20,0,0,1,675,544.34l13.74,1.36a145.66,145.66,0,0,0,9.59-26.64l-11.52-7.7a20,20,0,0,1,2.86-34.85l12.57-5.68q-.6-7-1.87-14.06T697.16,443l-13.77-.9a20,20,0,0,1-14.94-31.61l8.07-11.26a145.23,145.23,0,0,0-18.34-21.57l-12.39,6.11a20,20,0,0,1-28.74-19.91l1.36-13.74a145.28,145.28,0,0,0-26.65-9.59L584.06,352A20,20,0,0,1,549.22,349.13ZM615,472.29a60.17,60.17,0,1,1-70-48.45A60.18,60.18,0,0,1,615,472.29Z"/><polygon class="cls-11" points="417.61 417.51 420.86 427.94 426.26 432.42 428 430.8 426.35 426.72 437.6 434.27 443.04 430.72 434.76 416.67 421.77 409.21 417.61 417.51"/><polygon class="cls-12" points="330.24 310.99 355.71 315.75 390.54 380.23 431.62 411.96 419.7 425.38 375.55 399.47 329.12 330.61 330.24 310.99"/><path class="cls-13" d="M346.37,653.92l12.31,8.72,4.1,6.67a47.4,47.4,0,0,1-7.18,2.56c-2.56.51-22.57-2.56-22.57-2.56v-11.8Z"/><path class="cls-13" d="M304.1,659.56l6.67,6.67s5.64,9.23,3.07,9.23-16.41,1.54-17.44,0-8.72-6.67-9.74-7.69-.55-10-.55-10Z"/><path class="cls-14" d="M327.69,479.52,319,567.23,304.1,659.56h-18l-2.06-96.43S269.5,483.89,268,457.73Z"/><polygon class="cls-14" points="366.38 481.06 350.99 657.51 332.52 657.51 326.88 567.23 316.28 487.31 356.63 440.03 366.38 481.06"/><path class="cls-12" d="M370,399.16c-2.89-10.21-5.17-20.58-7.12-31-1.7-9.09-2.38-18.88-6.39-27.36s-11.61-14.9-17.46-22.11c-2.48-3.05-5.13-6.23-8.82-7.69a23.39,23.39,0,0,0-8-1.16l-24.78-.7c-3-.09-6.14-.15-8.89,1.07-4.11,1.83-6.44,6.08-8.47,10-5.19,10.12-6.15,21.35-6.61,32.8,0,.1,2.38,30.82-3,55.12s-3.46,88.6,1.67,85.9c6.38-3.36,13.68-5.14,20.83-6.39a206.24,206.24,0,0,1,30.69-3.25l18.1,1.37h10.93c6.56.71,6,2.92,12.76,2.46C369.75,488,372.72,408.69,370,399.16Z"/><path class="cls-15" d="M313.76,314.47l-13.79-.6a68.35,68.35,0,0,1,.14-11c-3.89-1.13-8.4-2.9-9.29-6.85a11.54,11.54,0,0,1,0-3.8l1.83-15.7a13.89,13.89,0,0,1,1.33-5.26c1.56-2.79,4.81-4.15,7.93-4.87,7.94-1.84,16.79-.59,23.3,4.32a12.59,12.59,0,0,1,4.17,4.91c1.3,3.09.65,6.6,0,9.88q-.93,4.55-1.85,9.09c-.72,3.48-1.8,7.45-5,8.92-1.71.78-3.8.7-5.33,1.8C314.44,307.26,315.05,311.4,313.76,314.47Z"/><path class="cls-16" d="M339.23,248a13.46,13.46,0,0,1-3.12-.85c-3.33-1.45-5.66-4.36-9.2-5.72a32.42,32.42,0,0,0-23.15.6c-6.72,2.83-15.9,3.92-21.91,7.72a18.39,18.39,0,0,0-5.94,6.54,27.64,27.64,0,0,0,1.55,29.19,40.21,40.21,0,0,0,4.59,5.17c3.43,3.33,7.55,7.45,12.07,8.51-.12-4-4.44-16.35-1.56-19.78,3.81-4.55,11.3-4.44,16.67-3.94,6.39.6,11.66-1.45,18-1.13,3.25.16,6.93.82,9.42-1.28,2.88-2.41,9-10.09,10.41-13.46a8.52,8.52,0,0,0-1.78-8.93C343.41,248.59,341.37,248.35,339.23,248Z"/><path class="cls-8" d="M342.89,405.36a10.87,10.87,0,0,0-.81-4.14c-2.44-5.9-28.05-79.68-28.05-79.68a71.27,71.27,0,0,1-1.51-7.18l-8.21-.52,1.35,8.39,3.85,3.3s15.74,81.25,15.83,82.67L337,422.63Z"/><path class="cls-17" d="M422.12,255.14l-1.44-6.68q-3.46-.45-7-.56c-2.35-.08-4.7,0-7,.1l-1.88,6.57a9.91,9.91,0,0,1-16.87,3.94l-4.61-5.09a71.87,71.87,0,0,0-12.37,6.63l1.67,6.64a9.91,9.91,0,0,1-12.65,11.84l-6.52-2.09a72.39,72.39,0,0,0-7.43,11.9l4.78,4.93a9.91,9.91,0,0,1-5,16.58l-6.68,1.44q-.45,3.46-.57,7c-.07,2.36,0,4.7.11,7l6.57,1.87a9.91,9.91,0,0,1,3.93,16.88L344,348.69a72.52,72.52,0,0,0,6.64,12.36l6.63-1.66A9.91,9.91,0,0,1,369.13,372l-2.1,6.51A71.81,71.81,0,0,0,378.94,386l4.93-4.78a9.91,9.91,0,0,1,16.58,5l1.44,6.68q3.47.43,7,.56c2.35.08,4.7,0,7-.1l1.88-6.57a9.91,9.91,0,0,1,16.87-3.94l4.61,5.09a71.87,71.87,0,0,0,12.37-6.63L450,374.69a9.91,9.91,0,0,1,12.65-11.84l6.52,2.09a72.81,72.81,0,0,0,7.43-11.9l-4.78-4.93a9.91,9.91,0,0,1,5-16.58l6.68-1.45q.45-3.46.57-7c.07-2.36,0-4.7-.11-7l-6.57-1.88a9.91,9.91,0,0,1-3.93-16.87l5.09-4.61a72.15,72.15,0,0,0-6.64-12.36L465.29,282a9.91,9.91,0,0,1-11.85-12.65l2.1-6.51a71.81,71.81,0,0,0-11.91-7.43l-4.93,4.77A9.91,9.91,0,0,1,422.12,255.14Zm19,66.53a29.82,29.82,0,1,1-28.83-30.78A29.81,29.81,0,0,1,441.09,321.67Z"/><polygon class="cls-11" points="364.21 339.01 366.22 350.01 351.31 358.3 345.49 342.75 350.56 337.02 364.21 339.01"/><polygon class="cls-12" points="288.53 310.2 267.25 320.69 249.57 378.19 273.43 386.24 355.15 356.14 347.68 340.15 286.49 352 288.53 310.2"/><path class="cls-18" d="M943.93,317.09a28.66,28.66,0,0,1,3.93-13.44,35.32,35.32,0,0,0-3.15,12.56c-.29,6.66,2.15,13.71,7.48,17.76l.09.06-1.2,3.05-6-.24c-.85.19-2.11.45-3.69.82a24.52,24.52,0,0,0,2.57-4.22C947.18,326.71,943.72,323.77,943.93,317.09Z"/><path class="cls-18" d="M985.31,322.76a8.69,8.69,0,0,1-.45,4.28,4.27,4.27,0,0,1-1.15,1.82,20.93,20.93,0,0,1-2.28,1.25c-3,2-1.84,6.3-2.31,9.24a17,17,0,0,1-.6,2.44l-2.65-3.7-11.31-.46,0-.09C972.93,336.77,981,330.53,985.31,322.76Z"/><path class="cls-19" d="M823.45,301.79l-4.89-4.13-6.32,2L808.61,305l1.65,4.51,5.14,3-1.95.52.36,1.59,8.06,3.67c1.94-2,8.48-3.57,9.52-4.65L826,308.94Z"/><polygon class="cls-20" points="978.36 669.83 978.54 671.57 979.13 677.36 967.61 684.39 960.95 679.23 966.42 672.82 966.93 672.51 967.2 673.18 978.36 669.83"/><path class="cls-8" d="M930.38,545.22c13.06.86,25.17,1.22,34.7,1.34l-.34,44.66L979,669.65l-.62.18-11.16,3.35-.27-.67L929.5,580.05l-1.3-18.85Z"/><path class="cls-8" d="M927.52,551.52l.68,9.68-3.35,24.51L921,674.18H921l-.05-1.28-11.38.35-18-93.93-1-38.37c12.35,2,25.3,3.27,37.52,4.12Z"/><path class="cls-21" d="M928.11,545.07l2.27.15-2.18,16-.68-9.68Z"/><polygon class="cls-20" points="908.75 673.27 909.53 673.25 920.92 672.9 920.97 674.18 921.14 678.71 909.18 684.9 902.88 679.27 908.75 673.27"/><path class="cls-19" d="M951.08,337.08l1.2-3.05-.09-.06c-5.33-4.05-7.77-11.1-7.48-17.76a35.52,35.52,0,0,1,3.14-12.56,28,28,0,0,1,4.87-6.19c3.44-3.26,8.09-5.84,12.63-5.69,1.85.07,1.08,1.51,3.31.37a4.05,4.05,0,0,0,1-.86c.33.36.55.61.62.67,2.14,2.23,4.51,3.3,7.08,4.92,3.91,2.45,6,7.67,5.07,12.59-.39,2-1.24,4.13-.75,6.08.43,1.7,1.79,2.87,2.65,4.35a7.69,7.69,0,0,1,1,2.87c-4.27,7.77-12.38,14-20.72,14.78l0,.09c-.11.49-.22,1-.36,1.47-.61,2.14-2.07,4.4-4.29,4.55a6.72,6.72,0,0,1-3-.69l-5.73-2.32a1.58,1.58,0,0,1-1-.75,1.55,1.55,0,0,1,.14-1.07Z"/><path class="cls-22" d="M909.94,283c4.52-.27,8.51,2.38,12.18,4.93.66-4.45,4.93-7.51,9-8.71s8.42-1.19,12.43-2.76c4.82-1.89,9.58-6.06,14.37-4.7,4.31,1.22,7,6.46,9.68,11.12l.21-.23a21.68,21.68,0,0,1,7-5.3c8.6-3.55,7.61,7.18,14.22,6.61,1.59-.14,2.94-1.4,4.44-2.06,2.85-1.25,6-.26,8.55,1.28s4.78,3.64,7.52,4.8c2.43,1,5.18,1.28,7.44,2.63,3.4,2.05,2.7,5.74,3.31,9.1.67,3.73,1.69,8.75,3.71,11.84,1.45,2.23,3.69,3.68,5.58,5.5s3.5,4.35,3.1,7.14c-.38,2.64-2.48,4.78-3.08,7.38-.82,3.9-.4,6-2.13,9.87-.9,2-1.89,4.1-3.63,5.31-2.31,1.6-5.24,1.18-7.77.41s-5.1-1.82-7.75-1.3c-5.76,1.13-5.44,6.81-7.51,11.28a13.69,13.69,0,0,1-6.67,6.55,12.47,12.47,0,0,1-11.26,0c-5.08-2.83-7.38-9.42-6.36-15.5a46.61,46.61,0,0,1,2-6.34,17,17,0,0,0,.6-2.44c.47-2.94-.68-7.25,2.31-9.24a20.93,20.93,0,0,0,2.28-1.25,4.27,4.27,0,0,0,1.15-1.82,8.69,8.69,0,0,0,.45-4.28,7.69,7.69,0,0,0-1-2.87c-.86-1.48-2.22-2.65-2.65-4.35-.49-2,.36-4.05.75-6.08.94-4.92-1.16-10.14-5.07-12.59-2.57-1.62-4.94-2.69-7.08-4.92-.07-.06-.29-.31-.62-.67a4.05,4.05,0,0,1-1,.86c-2.23,1.14-1.46-.3-3.31-.37-4.54-.15-9.19,2.43-12.63,5.69a28,28,0,0,0-4.87,6.19,28.76,28.76,0,0,0-3.92,13.44c-.21,6.68,3.25,9.62.07,16.35a24.52,24.52,0,0,1-2.57,4.22,21.83,21.83,0,0,1-10.54,7.68c-.47,0-.93,0-1.39-.06a17.64,17.64,0,0,1-6.61-1.88,19.47,19.47,0,0,1-5.51-4.17,19.68,19.68,0,0,1-4.85-9.41c-.41-1.95-.6-4.12-1.89-5.54-1-1.14-2.61-1.58-3.67-2.69-4.41-4.64,4-13,2.11-19.42-1.2-4-6.15-5.59-7.23-9.66C900.65,288,905.42,283.25,909.94,283Z"/><path class="cls-23" d="M814.67,315.81c.34-.07,15.6,24.44,26.24,36.42,9.72,10.93,39.46,27.39,50.56,36.91-3.52,12.36-7.14,26.31-9.75,38.72-16.65,79-5.06,110.5-5.06,110.5,4.5,1,9.17,1.83,13.93,2.59,12.35,2,25.3,3.27,37.52,4.12l2.27.15c13.06.86,25.17,1.22,34.7,1.34,12.34.17,20.32,0,20.32,0L1013,390.12l-18.89-26.45a12.47,12.47,0,0,1-11.26,0c-5.08-2.83-7.38-9.42-6.36-15.5a46.61,46.61,0,0,1,2-6.34l-2.65-3.7-11.31-.46c-.11.49-.22,1-.36,1.47-.61,2.14-2.07,4.4-4.29,4.55a6.72,6.72,0,0,1-3-.69l-5.73-2.32a1.58,1.58,0,0,1-1-.75,1.55,1.55,0,0,1,.14-1.07l.69-1.74-6-.24c-.85.19-2.11.45-3.69.82a21.83,21.83,0,0,1-10.54,7.68c-.47,0-.93,0-1.39-.06a17.64,17.64,0,0,1-6.61-1.88,19.47,19.47,0,0,1-5.51-4.17c-13,.55-33.8,8.67-44.83,2-3.59-2.17-41.51-30-40.61-30.15,0,0-15.36,4.36-16.84,4.63Z"/><path class="cls-24" d="M872,446.55l-3.27-5q-3,.72-5.92,1.73t-5.73,2.29l.53,6A8.7,8.7,0,0,1,845,460l-5.37-2.73a63.39,63.39,0,0,0-8,9.31l3.44,4.92a8.69,8.69,0,0,1-6.65,13.66l-6,.33A63.4,63.4,0,0,0,820,497.6l5.46,2.54a8.7,8.7,0,0,1,1.07,15.17l-5,3.27c.48,2,1.05,4,1.73,5.92s1.44,3.86,2.28,5.72l6-.52a8.7,8.7,0,0,1,8.51,12.59l-2.73,5.38a63.47,63.47,0,0,0,9.31,8.05l4.92-3.44a8.69,8.69,0,0,1,13.66,6.65l.32,6a63.68,63.68,0,0,0,12.08,2.35l2.55-5.45a8.69,8.69,0,0,1,15.16-1.07l3.27,5c2-.48,4-1.06,5.92-1.73s3.87-1.44,5.73-2.29l-.52-6a8.69,8.69,0,0,1,12.59-8.51l5.37,2.73a63.45,63.45,0,0,0,8.06-9.31l-3.45-4.92A8.69,8.69,0,0,1,939,522.12l6-.33a63.4,63.4,0,0,0,2.36-12.08l-5.46-2.54A8.69,8.69,0,0,1,940.77,492l5-3.28c-.49-2-1.06-4-1.74-5.92s-1.44-3.86-2.28-5.72l-6,.52A8.69,8.69,0,0,1,927.3,465l2.72-5.38a63.91,63.91,0,0,0-9.3-8.05L915.8,455a8.7,8.7,0,0,1-13.67-6.65l-.32-6A63.53,63.53,0,0,0,889.73,440l-2.55,5.45A8.69,8.69,0,0,1,872,446.55Zm36.38,48.57a26.16,26.16,0,1,1-33.26-16.19A26.16,26.16,0,0,1,908.4,495.12Z"/><polygon class="cls-15" points="939.84 458.23 940.07 465.2 927.77 469.67 920.69 464.3 920.68 456.19 927.52 455.81 927.74 454.03 929.98 452.59 939.84 458.23"/><path class="cls-25" d="M866.29,396.87a94.53,94.53,0,0,0,1-11,88.14,88.14,0,0,0-.25-10.68l-18.29-4.33L843.71,353,857,339.67a93.14,93.14,0,0,0-12-18L827.6,329l-14.66-11.51,2.93-18.59a92.71,92.71,0,0,0-19.72-7.29l-9.85,16.05-18.62-.83L759.23,290a94.07,94.07,0,0,0-20.89,5.82l1.48,18.77-15.55,10.3-16.72-8.61a93.52,93.52,0,0,0-13.45,17l12.2,14.29L699.8,365l-18.58,2.88a93.75,93.75,0,0,0-1.12,11.26,99,99,0,0,0,.22,10.36l18.29,4.38,5,17.94L690.26,425a95.46,95.46,0,0,0,12,18.08l17.38-7.23,14.63,11.55-3,18.59a93.85,93.85,0,0,0,20.32,7.52l9.8-16.09,18.63.75L788.54,475a93.9,93.9,0,0,0,20.87-5.9l-1.53-18.75L823.38,440l16.74,8.56a93.34,93.34,0,0,0,13.42-17L841.26,417.3l6.43-17.52Zm-95.71,31.82a46.25,46.25,0,1,1,49.28-43A46.25,46.25,0,0,1,770.58,428.69Z"/><path class="cls-4" d="M193.22,663.05l-12.53-11.57c-3.63-1.84-7.48-3.12-10.59-3.08a6,6,0,0,0-5.27,2.47,6.07,6.07,0,0,0-.57,5.58,7.28,7.28,0,0,0,1.09,1.76h0c.38.47.78.91,1.19,1.35.26.28.54.58.85.89,2.59,2.81,6.93,7.38,8.66,8.42,2.52,1.51,8.09,5.56,14.66,1a.46.46,0,0,1-.07-.07A6.34,6.34,0,0,0,193.22,663.05Z"/><path class="cls-10" d="M183.38,562.3l-1,14.52-5,70.67,5,8.23s1,6.57-6.57,6.07c-2.26-.15-10.25-10.32-10.25-10.32l1.15-4.65-5.62-53.07,0-15.42-2.69-17.11Z"/><path class="cls-4" d="M104,645.1c-2.34-.73-4.51-.62-6.25.76a6.56,6.56,0,0,0-2.46,5.54,12,12,0,0,0,1.29,4c3,6.56,11.51,21.38,21.24,18.66,4.09-1.14,5.64-5.31,4.81-9C121.37,659.46,111.78,647.55,104,645.1Z"/><path class="cls-10" d="M153.05,553.82l-1.7,20.9-41,73.89s5.9,10.3,2.16,11.2S97.76,657.58,97.74,646c4.31-14.1,21.27-62,21.27-62L127,571.65l-.12-23.2Z"/><path class="cls-24" d="M106.68,483.84c-.32-6.16,1.65-22.24,3.67-28,7.39-21,8.81-31.36,8.81-48.46s-7.59-71.32-7.59-71.32l30.49-15.67,27.46.74,18.22,8.55s3,65.45,4.1,87.43c.75,15.69,1.84,29.28,3.27,47.46,0,0,4,41.46-2.19,85.91,0,0-1.39,14.76-2,16-.08.44-.13.68-.13.68H120.27V541.88q-3.49-12.2-6.68-24.49C110.88,507,107.28,495.28,106.68,483.84Z"/><path class="cls-26" d="M121.54,325l-12,9s9.12,62.44,9.61,73.34-13.56,54.44-13.56,54.44l58.17,7.59s8.55-46.51,11-69.61-32.73-79.41-32.73-79.41Z"/><path class="cls-26" d="M179.85,323.93,190.38,330s-.33,69,2.72,86.59c1.85,10.75,9.08,45.55,9.08,45.55l-18.79,6.43S171.83,425.05,169.53,402s.21-80.55.21-80.55Z"/><path class="cls-10" d="M179.43,294.09c-.34-18.35-24.68-19.37-34.15-6.18-6.17,8.6-2.71,23.47,6.53,29.5a9.48,9.48,0,0,1-.26,1,32.76,32.76,0,0,0-1.08,4.73c-.11.6,9.34,1.8,10.39,1.93a1.44,1.44,0,0,0,1.07-.14c.54-.43.49-2.23.63-2.85l.48-2.22c5.8-.77,10.65-4.84,13.25-9.73S179.53,299.61,179.43,294.09Z"/><path class="cls-27" d="M177.55,298.5c1.54,6-2,11.85-5.09,16.88-1.27,2.06-3.23,4.92-1.6,7.26,1.83,2.63,6.37,2.1,8.37.14a12.22,12.22,0,0,0,2.7-5.1c2.69-8.21,6.46-19.72,5.72-28.35-.59-6.93-9.08-19.22-17.83-14.82a9.15,9.15,0,0,0-3.47,3.77,7.27,7.27,0,0,0-1.13,2.81c-.41,4,3.46,5,6,7.2A20.18,20.18,0,0,1,177.55,298.5Z"/><path class="cls-27" d="M146.34,296.57c-.2,2.23-1.33,4.58-1.64,6.87-.58,4.2.37,9.66-1.17,13.5a25.92,25.92,0,0,1-12.62-6.19c-3.23-3-2.65-7.44-3.37-11.84-.67-4.08-1.52-8.17-1.29-12.3,1.27-22.57,23.8-34.91,43.65-24.73,7.51,3.85,10.79,13.64,5.27,20.08-5.94,6.92-18,3.92-25.13,9.05A12.11,12.11,0,0,0,146.34,296.57Z"/><polygon class="cls-28" points="186.69 327.78 198.08 334.67 214.19 386.84 255.89 392.08 245.65 404.11 196.39 409.21 179.44 357.59 186.69 327.78"/><path class="cls-25" d="M345.22,435.35l7.75-4a91.45,91.45,0,0,0-4.07-17.33l-8.68-.14a12.56,12.56,0,0,1-10.35-19.38l4.7-7.29a92.45,92.45,0,0,0-12.14-13l-7.61,4.24a12.57,12.57,0,0,1-18.66-11.61l.43-8.66q-4.11-1.68-8.4-3c-2.86-.86-5.75-1.59-8.64-2.18l-4.46,7.44a12.57,12.57,0,0,1-22-.72l-4-7.74a91.5,91.5,0,0,0-17.32,4.06l-.14,8.68a12.57,12.57,0,0,1-19.38,10.36L205,370.4a91.43,91.43,0,0,0-13,12.15l4.23,7.61a12.57,12.57,0,0,1-11.6,18.66l-8.66-.43q-1.68,4.1-3,8.39c-.87,2.87-1.59,5.75-2.18,8.65l7.44,4.45a12.57,12.57,0,0,1-.72,22l-7.75,4a91.35,91.35,0,0,0,4.07,17.32l8.68.14a12.56,12.56,0,0,1,10.35,19.38l-4.7,7.3a91.83,91.83,0,0,0,12.14,13l7.61-4.23a12.57,12.57,0,0,1,18.66,11.61l-.43,8.65q4.11,1.68,8.4,3c2.86.87,5.75,1.6,8.64,2.18l4.46-7.43a12.56,12.56,0,0,1,22,.72l4,7.74a91.5,91.5,0,0,0,17.32-4.06l.14-8.68a12.57,12.57,0,0,1,19.38-10.36l7.29,4.7a90.79,90.79,0,0,0,13-12.14L326.51,497a12.57,12.57,0,0,1,11.6-18.66l8.66.43q1.68-4.1,3-8.4c.87-2.86,1.59-5.74,2.18-8.64l-7.44-4.46A12.57,12.57,0,0,1,345.22,435.35Zm-83.84,53.39a45.14,45.14,0,1,1,45.14-45.14A45.14,45.14,0,0,1,261.38,488.74Z"/><polygon class="cls-10" points="239.33 413.16 227.75 406.59 234.9 395.29 244.2 395.06 249.57 401.13 239.33 413.16"/><polygon class="cls-28" points="109.48 333.94 120.06 342.14 133.14 420.51 170.33 446.87 164.99 461.13 115.08 437.49 100.26 389.59 109.48 333.94"/><polygon class="cls-10" points="170.26 461.13 162 458.87 167.97 446.88 178.3 445.68 183.66 452.72 170.26 461.13"/></g></svg>