<?xml version="1.0" encoding="UTF-8" standalone="no"?>
<svg
   xmlns:dc="http://purl.org/dc/elements/1.1/"
   xmlns:cc="http://creativecommons.org/ns#"
   xmlns:rdf="http://www.w3.org/1999/02/22-rdf-syntax-ns#"
   xmlns:svg="http://www.w3.org/2000/svg"
   xmlns="http://www.w3.org/2000/svg"
   xmlns:sodipodi="http://sodipodi.sourceforge.net/DTD/sodipodi-0.dtd"
   xmlns:inkscape="http://www.inkscape.org/namespaces/inkscape"
   height="512"
   viewBox="0 0 52 61"
   width="512"
   version="1.1"
   id="svg78"
   sodipodi:docname="bacteria.svg"
   inkscape:version="1.0 (262b4497e3, 2020-09-04)">
  <metadata
     id="metadata84">
    <rdf:RDF>
      <cc:Work
         rdf:about="">
        <dc:format>image/svg+xml</dc:format>
        <dc:type
           rdf:resource="http://purl.org/dc/dcmitype/StillImage" />
      </cc:Work>
    </rdf:RDF>
  </metadata>
  <defs
     id="defs82" />
  <sodipodi:namedview
     pagecolor="#ffffff"
     bordercolor="#666666"
     borderopacity="1"
     objecttolerance="10"
     gridtolerance="10"
     guidetolerance="10"
     inkscape:pageopacity="0"
     inkscape:pageshadow="2"
     inkscape:window-width="1848"
     inkscape:window-height="1014"
     id="namedview80"
     showgrid="false"
     inkscape:snap-bbox="true"
     inkscape:snap-bbox-midpoints="true"
     inkscape:zoom="1.6230469"
     inkscape:cx="256"
     inkscape:cy="305.29001"
     inkscape:window-x="72"
     inkscape:window-y="29"
     inkscape:window-maximized="1"
     inkscape:current-layer="svg78" />
  <path
     id="path74"
     d="M 51,26 H 48.971 C 48.984,25.619 49,25.239 49,24.855 v -5.54 c -0.0017,-0.534469 -0.0307,-1.068502 -0.087,-1.6 0.06187,-0.0037 0.123196,-0.01373 0.183,-0.03 l 2.22,-0.74 c 0.524671,-0.174522 0.808522,-0.74133 0.634,-1.266 -0.174522,-0.524671 -0.741329,-0.808522 -1.266,-0.634 L 48.568,15.75 C 47.994155,13.321813 46.8433,11.067785 45.213,9.179 45.227,9.167 45.244,9.163 45.257,9.15 L 46.707,7.7 C 46.966957,7.4489255 47.071213,7.0771221 46.979697,6.7274927 46.888182,6.3778632 46.615137,6.1048183 46.265507,6.0133028 45.915878,5.9217874 45.544075,6.0260434 45.293,6.286 l -1.45,1.45 C 43.837,7.742 43.836,7.749 43.83,7.755 42.491222,6.5596569 40.946949,5.6167625 39.272,4.972 39.282,4.942 39.302,4.917 39.31,4.885 L 39.97,2.234 C 40.07643,1.8799908 39.978884,1.4961436 39.716353,1.2358978 39.453823,0.97565209 39.069138,0.88146375 38.716073,0.99098372 38.363007,1.1005037 38.099159,1.3958651 38.03,1.759 L 37.373,4.4 C 36.503226,4.1923126 35.616122,4.0654399 34.723,4.021 32.788095,3.9326445 30.854487,4.2216837 29.03,4.872 29.0235,4.838141 29.01481,4.804738 29.004,4.772 L 27.9,2.553 C 27.653129,2.0587052 27.052295,1.8581288 26.558,2.1050001 26.063705,2.3518713 25.863129,2.9527052 26.11,3.447 l 1.1,2.2 C 24.929005,6.8198345 22.983456,8.5530729 21.556,10.684 21.52999,10.66103 21.5026,10.63965 21.474,10.62 L 18.454,9.11 C 17.959705,8.8631287 17.358871,9.063705 17.112,9.558 16.865129,10.052295 17.06571,10.653129 17.56,10.9 l 3.008,1.5 c -0.86851,1.75272 -1.381372,3.660065 -1.509,5.612 -0.018,0 -0.034,-0.01 -0.052,-0.01 H 16 c -0.552285,0 -1,0.447715 -1,1 0,0.552285 0.447715,1 1,1 h 2.969 c -0.07913,3.474004 -1.126433,6.856951 -3.024,9.768 -0.008,-0.006 -0.012,-0.015 -0.02,-0.02 l -2.37,-1.58 c -0.459501,-0.306518 -1.080482,-0.182501 -1.387,0.277 -0.306518,0.459501 -0.182501,1.080482 0.277,1.387 l 2.316,1.544 C 13.206727,33.211737 11.391717,34.80741 9.374,36.114 9.0078332,36.364687 8.6565723,36.636481 8.322,36.928 8.308,36.912 8.303,36.891 8.287,36.875 l -2.58,-2.58 C 5.3146211,33.916028 4.6909152,33.921448 4.3051814,34.307181 3.9194476,34.692915 3.9140278,35.316621 4.293,35.709 l 2.58,2.58 C 6.885,38.301 6.9,38.304 6.912,38.315 5.1440542,40.499685 4.1349275,43.200283 4.037,46.009 4.024,46.007 4.013,46 4,46 H 1 c -0.55228475,0 -1,0.447715 -1,1 0,0.552285 0.44771525,1 1,1 h 3 c 0.025,0 0.046,-0.012 0.07,-0.014 0.2714842,2.435281 1.3570882,4.707614 3.081,6.449 l -1.858,1.858 c -0.2599566,0.251075 -0.3642126,0.622878 -0.2726972,0.972507 0.091516,0.34963 0.3645604,0.622675 0.7141899,0.71419 C 6.0841221,58.071213 6.4559255,57.966957 6.707,57.707 l 1.88,-1.88 c 0.023535,-0.03187 0.044916,-0.06528 0.064,-0.1 1.857743,1.34451 4.064816,2.122802 6.355,2.241 C 15.0034,57.97854 15.0014,57.98923 15,58 v 2 c 0,0.552285 0.447715,1 1,1 0.552285,0 1,-0.447715 1,-1 v -2 c 0,-0.011 -0.006,-0.021 -0.007,-0.032 2.334791,-0.09228 4.653627,-0.427418 6.919,-1 0.011,0.06826 0.02876,0.135253 0.053,0.2 l 1.14,2.28 c 0.246871,0.494295 0.847705,0.694871 1.342,0.448 0.494295,-0.246871 0.694871,-0.847705 0.448,-1.342 L 25.828,56.42 c 3.835325,-1.223662 7.417185,-3.132158 10.572,-5.633 0.01603,0.02772 0.03373,0.05443 0.053,0.08 l 1.84,1.84 c 0.392379,0.378972 1.016085,0.373552 1.401819,-0.01218 0.385733,-0.385734 0.391153,-1.00944 0.01218,-1.401819 L 37.924,49.51 c 0.443,-0.4 0.878,-0.8 1.3,-1.219 2.213746,-2.196883 4.107314,-4.694372 5.625,-7.419 0.140618,0.08037 0.299075,0.124367 0.461,0.128 H 47 c 0.552285,0 1,-0.447715 1,-1 0,-0.552285 -0.447715,-1 -1,-1 h -1.187 c 1.649256,-3.466179 2.676546,-7.195226 3.035,-11.017 0.02699,0.0072 0.05437,0.01288 0.082,0.017 H 51 c 0.552285,0 1,-0.447715 1,-1 0,-0.552285 -0.447715,-1 -1,-1 z m -33.979,7.358 c 1.663727,-1.973061 2.946178,-4.238206 3.782,-6.68 0.11504,-0.338331 0.401838,-0.589588 0.75236,-0.659126 0.350523,-0.06954 0.711517,0.05321 0.947,0.322 0.235483,0.268792 0.309679,0.642795 0.19464,0.981126 -0.91538,2.675478 -2.31988,5.157598 -4.142,7.32 -0.354567,0.423602 -0.985398,0.479567 -1.409,0.125 -0.423602,-0.354567 -0.479567,-0.985398 -0.125,-1.409 z M 25,47 h -1.08 c -0.07551,0.54821 -0.216519,1.085382 -0.42,1.6 l 0.933,0.539 c 0.311951,0.177362 0.504953,0.508273 0.505742,0.867118 7.89e-4,0.358845 -0.190757,0.690602 -0.501925,0.869334 C 24.125649,51.054183 23.74257,51.052484 23.433,50.871 l -0.936,-0.54 c -0.341816,0.433149 -0.733144,0.824812 -1.166,1.167 l 0.54,0.935 c 0.181484,0.30957 0.183183,0.69265 0.0045,1.003817 -0.178732,0.311168 -0.510489,0.502714 -0.869334,0.501925 C 20.647273,53.937953 20.316362,53.744951 20.139,53.433 L 19.6,52.5 c -0.514469,0.204989 -1.051622,0.347671 -1.6,0.425 V 54 c 0,0.552285 -0.447715,1 -1,1 -0.552285,0 -1,-0.447715 -1,-1 v -1.08 c -0.548378,-0.07733 -1.085531,-0.220011 -1.6,-0.425 l -0.538,0.933 c -0.177362,0.311951 -0.508273,0.504953 -0.867118,0.505742 -0.358845,7.89e-4 -0.690602,-0.190757 -0.869334,-0.501925 C 11.946817,53.12065 11.948516,52.73757 12.13,52.428 l 0.54,-0.935 c -0.432856,-0.342188 -0.824184,-0.733851 -1.166,-1.167 l -0.936,0.54 C 10.09014,51.13769 9.4825795,50.972742 9.2077255,50.496694 8.9328714,50.020647 9.0937864,49.412006 9.568,49.134 l 0.933,-0.539 C 10.297562,48.082025 10.156224,47.546553 10.08,47 H 9 C 8.4477152,47 8,46.552285 8,46 8,45.447715 8.4477152,45 9,45 h 1.08 c 0.07751,-0.546721 0.220194,-1.082197 0.425,-1.595 L 9.572,42.866 C 9.0977864,42.587994 8.9368714,41.979353 9.2117255,41.503306 9.4865795,41.027258 10.09414,40.86231 10.572,41.134 l 0.936,0.54 c 0.341816,-0.433149 0.733144,-0.824812 1.166,-1.167 l -0.54,-0.935 C 11.86231,39.09414 12.027258,38.48658 12.503306,38.211725 12.979353,37.936871 13.587994,38.097786 13.866,38.572 l 0.538,0.933 C 14.917189,39.300318 15.452981,39.157641 16,39.08 V 38 c 0,-0.552285 0.447715,-1 1,-1 0.552285,0 1,0.447715 1,1 v 1.08 c 0.548378,0.07733 1.085531,0.220011 1.6,0.425 l 0.538,-0.933 c 0.278006,-0.474214 0.886647,-0.635129 1.362694,-0.360275 C 21.976742,38.486579 22.14169,39.09414 21.87,39.572 l -0.54,0.935 c 0.432856,0.342188 0.824184,0.733851 1.166,1.167 l 0.936,-0.54 c 0.47786,-0.27169 1.08542,-0.106742 1.360274,0.369306 0.274855,0.476047 0.11394,1.084688 -0.360274,1.362694 l -0.933,0.539 c 0.203438,0.512975 0.344775,1.048447 0.421,1.595 H 25 c 0.552285,0 1,0.447715 1,1 0,0.552285 -0.447715,1 -1,1 z M 44.118,35.35 c -1.520571,4.071144 -3.912354,7.760864 -7.008,10.811 -1.968985,1.960856 -4.196976,3.643121 -6.622,5 -0.311893,0.174346 -0.693106,0.169055 -1.00004,-0.01388 -0.306934,-0.182934 -0.492959,-0.51572 -0.488,-0.873 0.005,-0.357279 0.200147,-0.684774 0.51204,-0.85912 2.266402,-1.267752 4.348428,-2.840039 6.188,-4.673 2.890144,-2.847381 5.123519,-6.291639 6.544,-10.092 0.1933,-0.517491 0.769509,-0.7803 1.287,-0.587 0.517491,0.1933 0.7803,0.769509 0.587,1.287 z M 45,21 h -1.051 c -0.109397,1.072167 -0.39313,2.119277 -0.84,3.1 l 0.917,0.53 c 0.311951,0.177362 0.504953,0.508273 0.505742,0.867118 7.89e-4,0.358845 -0.190757,0.690602 -0.501925,0.869334 C 43.718649,26.545183 43.33557,26.543484 43.026,26.362 L 42.105,25.83 c -0.630631,0.87362 -1.39738,1.640369 -2.271,2.271 l 0.532,0.921 c 0.181484,0.30957 0.183183,0.69265 0.0045,1.003817 -0.178732,0.311168 -0.510489,0.502714 -0.869334,0.501925 C 39.142273,30.526953 38.811362,30.333951 38.634,30.022 l -0.53,-0.917 c -0.980723,0.44687 -2.027833,0.730603 -3.1,0.84 V 31 c 0,0.552285 -0.447715,1 -1,1 -0.552285,0 -1,-0.447715 -1,-1 v -1.051 c -1.072167,-0.109397 -2.119277,-0.39313 -3.1,-0.84 l -0.53,0.917 c -0.177362,0.311951 -0.508273,0.504953 -0.867118,0.505742 -0.358845,7.89e-4 -0.690602,-0.190757 -0.869334,-0.501925 C 27.458817,29.71865 27.460516,29.33557 27.642,29.026 l 0.532,-0.921 C 27.299312,27.474618 26.531536,26.707855 25.9,25.834 l -0.921,0.532 c -0.30957,0.181484 -0.69265,0.183183 -1.003817,0.0045 -0.311168,-0.17878 -0.502714,-0.510537 -0.501925,-0.869382 7.89e-4,-0.358845 0.193791,-0.689756 0.505742,-0.867118 l 0.917,-0.53 c -0.44687,-0.980723 -0.730603,-2.027833 -0.84,-3.1 H 23 c -0.552285,0 -1,-0.447715 -1,-1 0,-0.552285 0.447715,-1 1,-1 h 1.051 c 0.108955,-1.072249 0.392707,-2.11943 0.84,-3.1 l -0.917,-0.53 c -0.311951,-0.177362 -0.504953,-0.508273 -0.505742,-0.867118 -7.89e-4,-0.358845 0.190757,-0.690602 0.501925,-0.869334 0.311167,-0.178731 0.694247,-0.177032 1.003817,0.0045 l 0.921,0.532 c 0.630382,-0.874688 1.397145,-1.642463 2.271,-2.274 L 27.634,10.979 C 27.452516,10.66943 27.450817,10.28635 27.629548,9.9751826 27.80828,9.6640146 28.140037,9.472469 28.498882,9.4732579 28.857727,9.4740468 29.188638,9.6670492 29.366,9.979 l 0.53,0.917 c 0.980686,-0.446971 2.027813,-0.730709 3.1,-0.84 V 9 c 0,-0.5522847 0.447715,-1 1,-1 0.552285,0 1,0.4477153 1,1 v 1.051 c 1.072187,0.109291 2.119314,0.393029 3.1,0.84 l 0.53,-0.917 C 38.803362,9.6620492 39.134273,9.4690468 39.493118,9.4682579 39.851963,9.467469 40.18372,9.6590146 40.362452,9.9701826 40.541183,10.281351 40.539484,10.66443 40.358,10.974 l -0.532,0.921 c 0.87362,0.630631 1.640369,1.39738 2.271,2.271 l 0.921,-0.532 c 0.30957,-0.181484 0.692649,-0.183183 1.003817,-0.0045 0.311168,0.178732 0.502714,0.510489 0.501925,0.869334 -7.89e-4,0.358845 -0.193791,0.689756 -0.505742,0.867118 l -0.917,0.53 c 0.447293,0.98057 0.731045,2.027751 0.84,3.1 H 45 c 0.552285,0 1,0.447715 1,1 0,0.552285 -0.447715,1 -1,1 z"
     style="fill:#000000;fill-rule:nonzero" />
  <circle
     style="fill:none;fill-rule:evenodd;stroke:#000000;stroke-width:3.52196;stroke-miterlimit:4;stroke-dasharray:none;stroke-opacity:1"
     id="path93"
     cx="33.979675"
     cy="19.817955"
     r="10.507797" />
  <circle
     style="fill:none;fill-rule:evenodd;stroke:#000000;stroke-width:2.65801;stroke-miterlimit:4;stroke-dasharray:none;stroke-opacity:1"
     id="path93-7"
     cx="16.985033"
     cy="45.978485"
     r="7.9302025" />
</svg>
