<?xml version="1.0" encoding="UTF-8" standalone="no"?>
<svg
   xmlns:dc="http://purl.org/dc/elements/1.1/"
   xmlns:cc="http://creativecommons.org/ns#"
   xmlns:rdf="http://www.w3.org/1999/02/22-rdf-syntax-ns#"
   xmlns:svg="http://www.w3.org/2000/svg"
   xmlns="http://www.w3.org/2000/svg"
   xmlns:sodipodi="http://sodipodi.sourceforge.net/DTD/sodipodi-0.dtd"
   xmlns:inkscape="http://www.inkscape.org/namespaces/inkscape"
   height="512pt"
   viewBox="-90 0 512 512"
   width="512pt"
   version="1.1"
   id="svg1258"
   sodipodi:docname="scroll.svg"
   inkscape:version="1.0.1 (0767f8302a, 2020-10-17)">
  <metadata
     id="metadata1264">
    <rdf:RDF>
      <cc:Work
         rdf:about="">
        <dc:format>image/svg+xml</dc:format>
        <dc:type
           rdf:resource="http://purl.org/dc/dcmitype/StillImage" />
      </cc:Work>
    </rdf:RDF>
  </metadata>
  <defs
     id="defs1262" />
  <sodipodi:namedview
     pagecolor="#ffffff"
     bordercolor="#666666"
     borderopacity="1"
     objecttolerance="10"
     gridtolerance="10"
     guidetolerance="10"
     inkscape:pageopacity="0"
     inkscape:pageshadow="2"
     inkscape:window-width="1858"
     inkscape:window-height="1016"
     id="namedview1260"
     showgrid="false"
     inkscape:zoom="1.2744141"
     inkscape:cx="341.33333"
     inkscape:cy="341.33333"
     inkscape:window-x="62"
     inkscape:window-y="27"
     inkscape:window-maximized="1"
     inkscape:current-layer="svg1258" />
  <path
     d="m166.238281 430.144531-89.769531-94.898437 29.058594-27.488282 60.632812 64.097657 60.273438-64.058594 29.132812 27.410156zm165.761719-38.144531v-272c0-66.167969-53.832031-120-120-120h-92c-66.167969 0-120 53.832031-120 120v272c0 66.167969 53.832031 120 120 120h92c66.167969 0 120-53.832031 120-120zm-120-352c44.113281 0 80 35.886719 80 80v272c0 44.113281-35.886719 80-80 80h-92c-44.113281 0-80-35.886719-80-80v-272c0-44.113281 35.886719-80 80-80zm-46 41c-11.046875 0-20 8.953125-20 20s8.953125 20 20 20 20-8.953125 20-20-8.953125-20-20-20zm0 80c-11.046875 0-20 8.953125-20 20s8.953125 20 20 20 20-8.953125 20-20-8.953125-20-20-20zm0 80c-11.046875 0-20 8.953125-20 20s8.953125 20 20 20 20-8.953125 20-20-8.953125-20-20-20zm0 0"
     id="path1256"
     style="fill:#e48212;fill-opacity:1" />
</svg>
