<svg xmlns="http://www.w3.org/2000/svg" viewBox="0 0 3800 2000"><defs><style>.cls-1{fill:#032624;}.cls-2{fill:#f9b2ac;}.cls-3{fill:#185154;}.cls-4{fill:#358387;}.cls-5{fill:#f7a9c9;}.cls-6{fill:#ea526f;}.cls-7{fill:#5b061b;}.cls-8{fill:#fe875e;}.cls-9{fill:#e09490;}.cls-10{fill:#490f2c;}.cls-11{fill:#ffc9c0;}.cls-12{fill:#e0e0e0;}.cls-13{fill:#fff;}.cls-14{fill:#185454;}.cls-15{fill:#25ced1;}.cls-16{fill:#92e7e8;}.cls-17{fill:#eda89f;}.cls-18{fill:#187a7a;}.cls-19{fill:#86efef;}.cls-20{fill:#f2a497;}.cls-21{fill:#8c564d;}.cls-22{fill:#516b6b;}.cls-23{fill:#185354;}.cls-24{fill:#3c8c8e;}.cls-25{fill:#ffdcdc;}.cls-26{fill:#f48c7f;}.cls-27{fill:#145459;}.cls-28{fill:#591424;}.cls-29{fill:#f7a491;}.cls-30{fill:#873546;}.cls-31{fill:#77d8d5;}.cls-32{fill:#0d3335;}.cls-33{fill:#184655;}.cls-34{fill:#f47458;}.cls-35{fill:#47a5a2;}.cls-36{fill:#6d3d37;}.cls-37{fill:#c98883;}.cls-38{fill:#145259;}.cls-39{fill:#aa6d6a;}.cls-40{fill:#d389a7;}.cls-41{fill:#f9a0c0;}.cls-42{fill:#a86360;}.cls-43{fill:#185054;}.cls-44{fill:#b5e5e5;}.cls-45{fill:#d9fdff;}.cls-46{fill:#13375b;}.cls-47{fill:#8e5151;}.cls-48{fill:#efc3c2;}.cls-49{fill:#e8e8e8;}.cls-50{fill:#ffd7d4;}.cls-51{fill:#b5436d;}.cls-52{fill:#f25a98;}.cls-53{fill:#1faaad;}.cls-54{fill:#3c8e8e;}.cls-55{fill:#f25a8c;}.cls-56{fill:#86e8ef;}.cls-57{fill:#358785;}.cls-58{fill:#47aab5;}.cls-59{fill:#f8a492;}.cls-60{fill:#5e281f;}.cls-61{fill:#d1e3e5;}.cls-62{fill:#dcf5f7;}.cls-63{fill:#38130e;}.cls-64{fill:#911438;}.cls-65{fill:#682b21;}.cls-66{fill:#491712;}.cls-67{fill:#d8a39e;}.cls-68{fill:#ff94c5;}.cls-69{fill:#ba7b78;}.cls-70{fill:#b54372;}.cls-71{fill:#bf2c7d;}.cls-72{fill:#57726a;}.cls-73{fill:#ffe1dc;}.cls-74{fill:#e5b5ae;}.cls-75{fill:#98d5d8;}.cls-76{fill:#efefef;}.cls-77{fill:#50b5bc;}</style></defs><g id="bg"><rect class="cls-1" width="3800" height="2000"/></g><g id="Layer_2" data-name="Layer 2"><path class="cls-2" d="M1658.47,1549.85s-10.47,10.48-10.7,14.32-.93,45,3.34,48.9,16.82,6.57,12.79,10.9c-3.05,3.27-26.51,2.57-42.05,1.69-4.54-.26-10.23-37.42-12-42.88-2.61-7.93-12-25.2-9.64-30.73,1.16-2.69,9.74-8.83,17.54-14,8.2-5.43,16-17.53,16-17.53Z" transform="translate(0)"/><path class="cls-2" d="M1798.45,1575.59s-9.37,27.15-9.38,27.22c-.7,4.3-3.44,14.93-3.44,18.84,0,14.69,64.55-12.47,50.08-19-1.31-.59-5.41-5.3-5.84-10.3-.67-7.7,5.43-17.36,5.43-17.36Z" transform="translate(0)"/><path class="cls-3" d="M1906.21,1062.21s4.87,44.92,4.87,45.65c0,78.73,9.07,232.53,6.18,247.33-7.06,36.11-84.1,232.62-84.1,232.62l-39.92-5.77,53.47-232.11L1827,1261.17l-27.85-175.46Z" transform="translate(0)"/><path class="cls-4" d="M1755.75,1101.51l-7.79,46.13-21.07,189.86-103.12,192.67s15.51,24.11,32.16,27.9l146.36-194.73,79.33-243.78-2.79-54.16Z" transform="translate(0)"/><path class="cls-5" d="M1909.84,942.57l-56.9,6s-2.61-47.88-2.61-70.72c0-27.71,3.05-63,6.31-62.23,9.15,2.16,20.72,6.93,28.06,17.28C1910.09,868.66,1909.84,942.57,1909.84,942.57Z" transform="translate(0)"/><path class="cls-2" d="M1699.4,1172.56c-8.68-14.42-10.63-12.37-11.69-14.25-1.26-2.22.13-36.53.13-36.53s3.49-101.15,3.86-106.6l44.45-93.38-38.43-36.66s-45.75,103-47.24,108.79,9.1,143.3,9.66,155.43c0,0-4.46,14.66-7,24s-.9,19.35-1.22,22.08a89.8,89.8,0,0,0,1.63,21.13c1.91,9.94,4.45-.35,4.45-.35s-.38-19,1.07-18.8c1.11.19.73,10.59,2.74,21.61.51,2.83,1,5.63,1.53,8.19,1.3,6.73,5.63,7.86,5.34.6a73.28,73.28,0,0,0-1-9.82c-.65-3.25-.24-6.44-.39-9.25-.3-5.59-.58-9.66-.35-9.55s1-1,1.62,2c.77,3.6.78,11.59,2.3,16.79.86,3,2.3,9.22,2.3,9.22s3.87,9.08,4.45,9c3.16-.28,2.18-7.24.51-11.09.14-3-1.55-9.57-1.55-9.57s-.58-14,1.32-14.12c.81,0,2.16,8.53,4.74,16.73,2.39,7.62,6,14.91,7.51,14.66,2.57-.42.77-9.16.77-9.16s-1.57-6.06-2-8.11c-.44-2.4-1.23-9.7-1.23-9.7s-1.62-25.54.19-25.47,6.41,2.19,7,3.74.34,5,1,6.56,2.71,3,4.59,2.4,1.61-9.31,1.61-9.31S1701.91,1176.72,1699.4,1172.56Z" transform="translate(0)"/><path class="cls-6" d="M1881.89,872.92c1.19,8.45,29.25,235,29.25,235-103.62,51.36-171.19,35.95-171.19,35.95s7.61-184.92,3.54-206.88c-2.69-14.52-6-111,3.13-113.74,11.77-3.47,25.26-7.15,40-8.72,12.56-1.34,61.32-2.11,70.05.89C1856.64,815.39,1876.87,837.39,1881.89,872.92Z" transform="translate(0)"/><path class="cls-5" d="M1672.66,920.67l49.3,34s27.78-42.44,42.7-57.54c18.68-18.93-6.81-76.91-18.85-73.63C1718.89,830.81,1672.66,920.67,1672.66,920.67Z" transform="translate(0)"/><path class="cls-7" d="M1618.23,1537.79s24.11,69.69,33.55,73.06c2.51.89,14.54,3.16,16.81,8.62.68,1.64,0,7.14,0,7.14h-50.27s-6.36-30.71-8.87-44.2c0,0-13.31-33-11.83-36S1618.23,1537.79,1618.23,1537.79Z" transform="translate(0)"/><path class="cls-7" d="M1782,1626.5l7.39-24s15.53,6.74,23.29,5.62,22.91-5.62,22.91-5.62c31,10.47,56.37,15.55,51.75,24H1782Z" transform="translate(0)"/><path class="cls-8" d="M1983.61,1132.51c5.29,4.64,11.1,6.54,17.87,5.13C1995.15,1142.45,1986.33,1138.77,1983.61,1132.51Z" transform="translate(0)"/><path class="cls-2" d="M1800.36,767.34l-7.62,47.83s27.91,60.87,44.58,55.75c14-4.3,5.38-56.58,5.38-56.58s-7.62-28.07-5.33-42.12S1800.36,767.34,1800.36,767.34Z" transform="translate(0)"/><path class="cls-9" d="M1837.37,772.22c2.28-14.05-37-4.88-37-4.88l-.63,4.11a22.91,22.91,0,0,0,4.26,6.92c8.78,9.3,22.49,14.88,34.35,15.3C1837.16,786.1,1836.43,778,1837.37,772.22Z" transform="translate(0)"/><path class="cls-2" d="M1793.92,697.14c-1.11-.4-8.9,56.51,5.88,72.17s43.59,20.79,53.92,8.45c11.43-13.64,10.85-74.81-12.13-90.92S1793.92,697.14,1793.92,697.14Z" transform="translate(0)"/><path class="cls-10" d="M1799.34,675.21c-8.07.94-19,5.32-30.36,23.78-13.92,22.69-3.64,47.82,12.57,60.16s15.92,26.46,15.92,26.46l2.62-7.25a40.64,40.64,0,0,0,2-17.36,33.39,33.39,0,0,0-2.62-10.43c-3.9-8.24,8.37-13.71,11.81-20.57,2.65-5.27,2.78-17.34,7-26.07l5-6.65s11.5-8.81,22.75-6.33S1843.43,639.41,1799.34,675.21Z" transform="translate(0)"/><path class="cls-2" d="M1810.56,740.13c.11,7-3.09,12.63-7.16,12.7s-7.47-5.51-7.59-12.45,3.09-12.63,7.16-12.7S1810.44,733.19,1810.56,740.13Z" transform="translate(0)"/><path class="cls-11" d="M2951.81,1487.33s2.68,27.19,9.56,32.18,16.07,23.46,11.48,33.45-23.87,6.49-23.87,6.49-11.47-10.49-12.51-32.58-7.91-33.32-7.91-33.32Z" transform="translate(0)"/><path class="cls-11" d="M2842.81,1498.19s-2.17,27.43-.41,36.35c.94,4.77,6.19,14.6,3.78,19.09s-5.16,5.62-5.16,5.62l-69.88,1.12s.16-8.81,33.39-18.34c4.23-1.22,8.83-5.38,12.59-9.55,4.48-5,4.87-29.14,4.87-29.14Z" transform="translate(0)"/><path class="cls-12" d="M2792.92,1133.49s-8,44.55-2.74,73.75,27.13,301.35,27.13,301.35l33.3.35s6.12-111.42,5.07-127.14-8.32-40-8.32-40l-.67-95.24-35.22-119.94Z" transform="translate(0)"/><path class="cls-13" d="M2875,1124.12s22,32.58,27.21,59.54-3.84,109.8,6.23,145.13c5.45,19.12,32,46.36,35.18,71.07s16.29,92.4,16.29,92.4l-34.67,4.78-64.84-161.66-50.86-146.11-13-75.26Z" transform="translate(0)"/><path class="cls-6" d="M2939.32,1542.74c15,2.73,25-6,30.18-12.58,3.81,7.43,6.15,16.7,3.35,22.8-4.59,10-23.87,6.49-23.87,6.49S2943,1554,2939.32,1542.74Z" transform="translate(0)"/><path class="cls-6" d="M2804.53,1542a15.45,15.45,0,0,0,3.66-1.68c16.52,4.23,28.73,1.36,35.56-1.39,1.76,5,4.2,10.85,3.67,14.63-.63,4.57-2.68,6.23-2.68,6.23l-73.6.55S2771.3,1551.56,2804.53,1542Z" transform="translate(0)"/><path class="cls-11" d="M2699,1211.42s3.29-3.53,4.29-4.79c1.18-1.47,4.35-6.16,4.35-6.16s10.3-16.81,9-17.45-4.72,1.29-5.72,2.11-2.26,1.68-3.27,2.51a2.57,2.57,0,0,1-3.57-.38c-1.12-1.15,2.17-5.28,3.59-6.48,4.43-3.75,18.33-11.46,19.77-12.33,1.7-1,14.1-33.4,19.24-44.16h0c7.88-17.86,15.08-36.6,15.91-38.49l9.93-82.67,32.25-8.39s-9.71,91.89-10.73,96.43c-.49,2.16-22,42.18-22,42.18-11.87,19.05-22.37,35.82-24.29,39.09,0,0-3.09,11.31-4.62,18.61s-5.93,13.45-6.68,15.44a48.24,48.24,0,0,1-8,14.31c-4.93,6-3.07-1.94-3.07-1.94s7.08-12.85,6-13.24c-.87-.29-4.32,7-9.7,13.71-1.38,1.74-2.75,3.45-4,5-3.34,4.1-6.85,3.23-4.05-1.62a53,53,0,0,1,4.21-6.33c1.63-2,2.49-4.3,3.6-6.17,2.21-3.7,3.86-6.37,3.66-6.38s-.35-1-1.88.75c-1.83,2.16-4.7,7.61-7.65,10.59-1.67,1.68-5,5.42-5,5.42s-6,5.47-6.38,5.21c-2.16-1.39,1-6.52,3.56-8.52,1-2.1,4.54-5.93,4.54-5.93s5.43-9.36,4.1-10.15c-1.09-.65-18.49,19.26-20.56,17.71C2694.07,1217.64,2699,1211.42,2699,1211.42Z" transform="translate(0)"/><path class="cls-14" d="M2856.34,835.55c4.66,12.73,16.8,14.5,29.15,20.13,8.29,3.77,11,19.05,8.21,29.7-7.11,27,15.28,18.78,30.47,33.32,36.61,35-24,67.94-32.6,73.49s-41.21,16-47,16.87c-17.36,2.48-39.93-6.8-54.28-26.79s-1.86-34.39-4.13-47.42-18.44-12.36-17.51-38.31c1-28.07,9.68-50.82,22.25-62.52,20.79-19.36,50.38-15.44,59.82-6.64A21,21,0,0,1,2856.34,835.55Z" transform="translate(0)"/><path class="cls-15" d="M2800,939.6s-9.61,4.43-22.63,30.76c-12.12,24.53-14.1,81.52-14.1,81.52s19.28,6.13,30.36,4S2800,939.6,2800,939.6Z" transform="translate(0)"/><path class="cls-16" d="M2836.37,931.34s6.43.54,39.11,7.5c5.31,1.14,13.66,7.24,16.88,12.95,16.71,29.71,31.41,82.9,31.41,82.9s-27.3,8.93-36.79,8.93l-11.23-35.4s-12.77,74.67-7.5,87.32,18.48,44.74,18.48,44.74-.21,6.84-50.11,12.09c-20,2.11-45-2.18-45-2.18s4.54-48.49.51-69.57c-6.56-34.32-19.36-75.42-20-80.65-1.06-8.44,18.38-56.18,28.43-60.68,2.59-1.16,6.89-3.58,10.71-4.46A175.58,175.58,0,0,1,2836.37,931.34Z" transform="translate(0)"/><path class="cls-11" d="M2832,897.51s1.05,23.89,4.08,32.69-6.38,40.7-25.42,45.36c-17.17,4.19-4.78-25.62-2.4-38.32.26-1.39-3.07-45.63-3.07-45.63Z" transform="translate(0)"/><path class="cls-17" d="M2806.49,905.52c-1.49-7.55-2.89-13.81-2.89-13.81l28.42,5.8s.21,4.88.73,11C2822.1,913.49,2813,911.28,2806.49,905.52Z" transform="translate(0)"/><path class="cls-11" d="M2823.43,832.5A32.54,32.54,0,0,1,2841,846.6c6.44,11,9.65,42.53-14,56s-40.5-8.11-39.78-28.29S2793.58,827.44,2823.43,832.5Z" transform="translate(0)"/><path class="cls-11" d="M2785.13,867.48c1.71,5,5.44,8.18,8.33,7.18s3.85-5.83,2.14-10.79-5.45-8.18-8.34-7.18S2783.41,862.52,2785.13,867.48Z" transform="translate(0)"/><path class="cls-11" d="M2842.85,874.39c-1.93,5.16-.66,10.4,2.82,11.7s7.88-1.82,9.8-7,.67-10.4-2.82-11.7S2844.78,869.23,2842.85,874.39Z" transform="translate(0)"/><polygon class="cls-18" points="2790.55 1152.55 2871.98 1138.98 2854.48 1025.76 2768.74 1042.57 2790.55 1152.55"/><path class="cls-11" d="M2778.32,1090.31c.12-.47,6.87,1.38,11.52-.62.93-.4-3.22-2.66-3.87-3.44-.08-.1-8.14-3.26-8.14-6.47s6.56-2.41,6.56-2.41,19,4.69,22,6.69a25.24,25.24,0,0,1,4.54,3.87,17.88,17.88,0,0,0,2.82.15c16.46-1,42-9.75,80.76-23.75l-4-21c8.56-1.13,23.05-5.45,29.72-7.53,2.73,16.06,8.28,43.77,5.88,49.72-1.68,4.17-22.3,10.74-45.44,17.06-29.47,8.06-37.65,7.86-64,11.06-8,.94-18.33,5.43-22.43,6.24-6.1,1.22-8.11,2.31-11.81-.3-3.13-2.2-4.11-8.92-4.47-13.13C2777.27,1098.51,2777,1095.47,2778.32,1090.31Z" transform="translate(0)"/><path class="cls-19" d="M811.18,1203H725.77A12.76,12.76,0,0,0,713,1215.74v47.94h14.28v-45.45h83.9Z" transform="translate(0)"/><path class="cls-20" d="M827.5,1170.59,801,1142.66s-28.34,15.59-61.37,30.48c-9.09-15.81-23.91-67.8-24.71-70.28s17.36-33.73,13.3-34.51-9.33,16.68-13.63,14.91-15.33-42.28-17.92-40.07c-4.83,4.14,5.81,25.2,3.26,26.73s-9-23.34-13.93-22.28,8.31,22.65,6.86,24.72-15.29-18.18-18.15-13.48c-1.55,2.54,12.76,17.63,9.82,19.32s-15.84-7.82-17.38-4.74,12,6.29,15.8,14.08,10.62,10.82,12.9,25.55,8.49,93.46,24.54,99.79C734.43,1218.4,827.5,1170.59,827.5,1170.59Z" transform="translate(0)"/><path class="cls-21" d="M1071.7,1533.6c2.09-14.85,1.93-42.27.87-71.2,13-.65,23.91-1.48,36.86-2.33-5.39,36.94-9,75-9,75l.89,7.3.47,21.64-73.32.55s15.46-6.85,37.07-20.39C1067.12,1543.16,1070.81,1540,1071.7,1533.6Z" transform="translate(0)"/><path class="cls-19" d="M1103.75,1568.65l-77.31.92c-2.8-.25-3.48-2.52-2.51-3.91,2-2.87,10.82-5,20.75-9.56,17.41,1.82,53.83-10.08,56.58-14.08C1102.84,1550,1105.31,1568.31,1103.75,1568.65Z" transform="translate(0)"/><path class="cls-21" d="M1203.07,1518.3c-6-13.72-20.65-36.94-36.8-61,10.67-7.39,21.24-14.91,31.79-22.46,14.89,34.24,30.17,69.53,30.17,69.53l4.61,5.74,11.81,18.14-62,39.11s9.52-14,20.75-36.87C1204.21,1528.84,1205.66,1524.18,1203.07,1518.3Z" transform="translate(0)"/><path class="cls-19" d="M1247.88,1532.83l-64.32,39.89c-2.51,1.27-4.29-.3-4.2-2,.19-3.49,6.58-9.94,12.6-19.06,15.75-7.63,40.29-37.12,40.51-42C1238,1515.66,1249,1531.72,1247.88,1532.83Z" transform="translate(0)"/><path class="cls-22" d="M1172.91,914.41c5.73-28-12.25-55.68-37.47-66.08.17-15.91-5-36.06-15.84-47-21.43-21.49-62.33-29-78.09-1.63-20.81,11.78-37.18,37.28-31,60.51-20.17,20.9-12.51,58.7,16.9,76.55-.46,23.44,11.93,46.74,32.43,56.76,4.92,2.41,12.62,5.76,13.59,6.8-1.28-1.22,15.19,44.64,66.34,23.65C1192,1002.61,1206.93,942.33,1172.91,914.41Z" transform="translate(0)"/><path class="cls-23" d="M1070.35,1512.63c6.35-35.22-15.71-122.54-29.16-160.93-14-39.94-22.89-208.92-22.89-208.92l15.86-18.55,64.75-3.88s-27.55,84.64-27.55,113.72,13.4,104.15,29.14,143.22c14.52,36,8.49,111.59,4.09,136.43C1092.89,1515.62,1081.79,1514.93,1070.35,1512.63Z" transform="translate(0)"/><path class="cls-24" d="M1115.27,1128.21c3,3,20.36,23.57,20.36,38s-32.79,144-24.92,151.89,37,27.53,55.56,54.93c15.65,23.09,51.55,89.85,58.4,105.73-13.53,9.4-25.27,13.69-38.82,18.23-2.17-11.82-108.2-128.7-120.31-153.14s-18.67-136.17-24.79-151-22.45-52.54-22.45-52.54Z" transform="translate(0)"/><path class="cls-21" d="M1020.82,1032.68s-40,45.61-84.2,62.78a49.26,49.26,0,0,0-12.86,7.93c0,4.65,9.32-.88,9.32-.88s-3.81,6.7-2.35,12.22,11.1,1.86,16.35,1.86c2.4,0,14.74-13.8,31.39-21.92,19.71-9.6,43-19,45.81-21.83C1029.52,1067.6,1022.37,1031,1020.82,1032.68Z" transform="translate(0)"/><path class="cls-25" d="M1102.11,904.31s-40.22-4.08-61.21,9.31-34.4,61.1-34.4,81.47,15.13,127.45,9.32,147.82c0,0,66.47-2.91,89.21-2.91s27.4-8.73,27.4-8.73-47.22-46.56-47.22-66.93S1102.11,904.31,1102.11,904.31Z" transform="translate(0)"/><path class="cls-18" d="M552.84,1453v69.76h7.55v-63.42h50v21.77C591.06,1483.13,576,1501,576,1522.71c0,23.12,17.11,41.86,38.22,41.86s38.21-18.74,38.21-41.86c0-21.72-15.1-39.58-34.44-41.65v-21.77h10.38V1451H617.94V1425.9h10.38v-8.27H617.94v-27.94H754.76v-12.4H679.17v-71c0-19,17.44-40.2,40.78-40.2h65v-12.4H720c-27.76,0-52.11,24.58-52.11,52.6v71h-49.9v-39.85h-7.55v80.19H585.08C567.3,1417.63,552.84,1433.47,552.84,1453Zm57.55-1.93H560.45c.91-14,11.6-25.12,24.63-25.12h25.31Z" transform="translate(0)"/><path class="cls-26" d="M582.47,1463.9s1.52,26.9,1.53,27c.56,3.41,2.76,11.85,2.76,15,0,11.66-51.89-9.9-40.26-15.07,1-.47,7-6.93,8.55-10.62,2.68-6.57,3.85-19.45,3.85-19.45Z" transform="translate(0)"/><path class="cls-25" d="M546.63,1490.64s12.18,3.57,18.42,4.46,14.47-6.62,18.88-4.59c4.86,2.23,5.14,22.74,5.14,22.74s-65.23,2.17-84.18-.61C497.32,1511.53,521.72,1499,546.63,1490.64Z" transform="translate(0)"/><path class="cls-15" d="M842.28,1406.44h14.34V1133.3c0-9.22,9-16.71,20.11-16.71h129a6.1,6.1,0,0,0,6.23-6h0a6.1,6.1,0,0,0-6.23-6h-129c-19,0-34.45,12.85-34.45,28.63Z" transform="translate(0)"/><ellipse class="cls-18" cx="775.07" cy="1436.43" rx="86.52" ry="87.29"/><path class="cls-18" d="M669.72,1436.43c0,58.7,47.16,106.29,105.35,106.29s105.35-47.59,105.35-106.29-47.17-106.29-105.35-106.29S669.72,1377.73,669.72,1436.43Zm10,0c0-53.14,42.7-96.22,95.37-96.22s95.36,43.08,95.36,96.22-42.69,96.22-95.36,96.22S679.7,1489.57,679.7,1436.43Z" transform="translate(0)"/><rect class="cls-18" x="844.23" y="1151.33" width="42.33" height="163.99" transform="translate(1730.79 2466.65) rotate(180)"/><path class="cls-15" d="M634.57,1522.71h8.2V1453a27,27,0,0,1,26.8-27h46.95v-8.27H669.57a35.2,35.2,0,0,0-35,35.32Z" transform="translate(0)"/><rect class="cls-27" x="579.26" y="1325.87" width="111.31" height="19.1" transform="translate(1269.82 2670.84) rotate(180)"/><rect class="cls-15" x="638.67" y="1451.02" width="77.85" height="8.27"/><rect class="cls-15" x="701.15" y="1377.29" width="152.63" height="12.4"/><rect class="cls-27" x="687.84" y="1325.58" width="198.72" height="19.38" transform="translate(1574.4 2670.55) rotate(180)"/><path class="cls-15" d="M880.42,1421.05h12.29V1147.91c0-9.21,7.73-16.71,17.24-16.71h115.92v-11.91H910c-16.28,0-29.53,12.84-29.53,28.62Z" transform="translate(0)"/><path class="cls-27" d="M655,1522.71c0,23.12,20.65,41.86,46.12,41.86s46.13-18.74,46.13-41.86-20.65-41.86-46.13-41.86S655,1499.59,655,1522.71Z" transform="translate(0)"/><path class="cls-15" d="M673.07,1522.71c0,14.08,12.57,25.49,28.08,25.49s28.09-11.41,28.09-25.49-12.57-25.49-28.09-25.49S673.07,1508.63,673.07,1522.71Z" transform="translate(0)"/><path class="cls-15" d="M701.41,1504.8h0a10.76,10.76,0,0,1,10.76,10.76v29a0,0,0,0,1,0,0H690.65a0,0,0,0,1,0,0v-29A10.76,10.76,0,0,1,701.41,1504.8Z" transform="translate(1402.82 3049.38) rotate(-180)"/><path class="cls-28" d="M588.66,1253.65c13.34-13.34,199.24-6.91,199.24-6.91s-157.49,38.43-166.68,43.45-43.42,174.15-43.46,176.36c-9.5-2.26-15.26-.55-24.92-2.53C554.38,1434.63,567.17,1275.14,588.66,1253.65Z" transform="translate(0)"/><path class="cls-29" d="M606.78,1464.72s1.52,26.9,1.53,27c.56,3.41,2.77,11.85,2.77,15,0,11.66-51.9-9.9-40.27-15.07,1.05-.47,8.2-6.65,8.55-10.62.53-6.12.25-15.85.25-15.85Z" transform="translate(0)"/><path class="cls-25" d="M570.94,1491.46s12.18,3.56,18.42,4.46,14.47-6.62,18.89-4.59c4.85,2.23,5.13,22.74,5.13,22.74s-65.23,2.17-84.18-.61C521.63,1512.35,546,1499.77,570.94,1491.46Z" transform="translate(0)"/><path class="cls-30" d="M816.89,1284.92s-1.61,42.2-15.65,42.7-104.18,2.52-155-2l-34.16,151L572,1472.68s12.08-100.82,16.38-139.17c4.22-37.73,16.41-69.39,37.74-70.15s161.55-22.47,161.55-22.47Z" transform="translate(0)"/><path class="cls-31" d="M854.7,1087.91s22.75,5.77,19.67,50.22-27.67,178.93-73.13,189.49-75.07-85.17-75.07-85.17,28.68-9.43,40.62-53.92c8.28-30.83,30.46-100.39,36-103.74C816.59,1076.48,854.7,1087.91,854.7,1087.91Z" transform="translate(0)"/><path class="cls-15" d="M759.42,1386.83h12.3v-80.58c0-19,18.93-40.2,44.27-40.2h70.57v-12.4H816c-30.13,0-56.57,24.58-56.57,52.6Z" transform="translate(0)"/><ellipse class="cls-15" cx="886.56" cy="1447.95" rx="99.36" ry="100.25"/><path class="cls-15" d="M765.57,1448c0,67.42,54.17,122.07,121,122.07s121-54.65,121-122.07-54.17-122.08-121-122.08S765.57,1380.53,765.57,1448Zm11.46,0c0-61,49-110.51,109.53-110.51S996.09,1386.91,996.09,1448s-49,110.51-109.53,110.51S777,1509,777,1448Z" transform="translate(0)"/><ellipse class="cls-27" cx="886.56" cy="1447.95" rx="81.95" ry="82.68"/><path class="cls-32" d="M868.12,1448a18.44,18.44,0,1,0,18.44-18.61A18.52,18.52,0,0,0,868.12,1448Z" transform="translate(0)"/><rect class="cls-18" x="521.07" y="1513.75" width="125.11" height="21.67" transform="translate(1167.25 3049.18) rotate(180)"/><rect class="cls-27" x="575.16" y="1513.75" width="71.02" height="21.67" transform="translate(1221.34 3049.18) rotate(180)"/><rect class="cls-15" x="697.06" y="1344.74" width="8.19" height="190.69"/><path class="cls-32" d="M696.29,1525.14a5.06,5.06,0,1,0,5.06-5.1A5.08,5.08,0,0,0,696.29,1525.14Z" transform="translate(0)"/><path class="cls-33" d="M841,968.91s15.94-10.78,22.68,8.1a34.82,34.82,0,0,1,6.39.17c3.28,1.11,6.45,4.52,9.37,6.39,10.41,6.67,15.21,19.62,15.78,31.51.69,14.43-5.28,25-14.77,35.4-2.79,3.07-5.78,6.07-9.44,8-4.42,2.37-7.91.49-12.06,1.5-3.5.84-4.73,4.54-8.85,3.2-5.78-1.86-11.85-9.1-19-8s-23.68-5.37-23.72-5.39c-21.24-8.28-6.9-49.37-2.83-63.95C808.32,972.13,827.82,964,841,968.91Z" transform="translate(0)"/><path class="cls-29" d="M821.77,1062.28l-5.51,15-3,8.41s-.21,15,3.3,19c6,6.72,30.89-18.16,30.89-18.16l7.87-47.33Z" transform="translate(0)"/><path class="cls-34" d="M852.79,1054.54c-9.45,14.64-25.73,21.34-36.58,22.93l5.56-15.19,33.58-23.08Z" transform="translate(0)"/><path class="cls-29" d="M848.89,990.57a23.78,23.78,0,0,0-34.46,11.79,179.6,179.6,0,0,0-6.8,21.87c-4.85,20.2,1.29,42.27,10.5,44.3s37.57-5.48,44.85-34.07C867.48,1016.8,862.17,998.69,848.89,990.57Z" transform="translate(0)"/><path class="cls-29" d="M855.69,1035.24c-1,4.47,1.18,8.76,4.84,9.56s7.43-2.16,8.41-6.64-1.17-8.75-4.83-9.56S856.68,1030.76,855.69,1035.24Z" transform="translate(0)"/><path class="cls-33" d="M827.24,1043.62s12.14,4,13.14,8.42-.5,10.91-6.45,15.86-18.66,1.9-22.13-.82-6.11-14.29-2.64-20.73S827.24,1043.62,827.24,1043.62Z" transform="translate(0)"/><path class="cls-29" d="M831.21,1053s-.08,5-1.74,5.87a15.47,15.47,0,0,1-5.53,1.77,7.91,7.91,0,0,1-7.42-3.37,6.52,6.52,0,0,1-.43-.72c-1.23-2.47-1.48-6.85-1.48-6.85s5.12-1.24,8.09-.74S831.21,1053,831.21,1053Z" transform="translate(0)"/><path class="cls-21" d="M962.49,1110.9c4.81-4.8,27.11-12.22,44-24.44,7.48-5.41,21.85-12.52,35.84-20.26,10.22,5.66,19.46,12.77,26.36,21.27-25.31,11.64-52.78,23.33-57,27.5-7.87,7.86-21.57,25.61-24.78,25.61s-27.54-7.13-31.19-10.77S957.68,1115.7,962.49,1110.9Z" transform="translate(0)"/><path class="cls-5" d="M1042.34,1066.2c17.64-9.76,34.66-20.51,36.45-30.08,3.21-17.17-11.37-91.37-3.2-105.63s26.52-26.18,26.52-26.18c2.92,0,13.41,6.4,16.33,19.2s-2.34,128-5.25,138.5c-1.37,4.92-21.32,24.5-43.73,34.8C1062.57,1088.31,1052.56,1071.86,1042.34,1066.2Z" transform="translate(0)"/><path class="cls-29" d="M860.62,1221.6,790.28,1240s-20.68,14.91-30,17.87-20.67,13.21-18.44,16.35,13.91-7.53,15.81-7.21-6.86,13-8.29,21.26-4.27,16.33.49,15.68,8.2-19.32,8.2-19.32,7.3-14.11,8.48-12.44-4.88,11.35-4.88,11.35-1.43,10.48-2.07,14.16c-.47,2.75,2.06,11,4.22,8,1.27-1.78.67-8.59,2.14-12.48a61.66,61.66,0,0,1,7.95-14.29s-5.28,23.87-2,24.44,6.76-19.21,6.76-19.21,8.12-16.47,11.66-17.94,13.28-7.74,20.81-10.36,38.66,6,52.55,6.18,36.43-8.41,38.3-19.31c.57-3.32-1.5-7-4.67-10.51A36.87,36.87,0,0,0,860.62,1221.6Z" transform="translate(0)"/><path class="cls-35" d="M854.7,1087.91s21.27-3.78,40.54,30.87,6.79,124,6.79,124l-41.41-21.13Z" transform="translate(0)"/><path class="cls-21" d="M960.34,1105.89s-8.38,11.93-10.88,11.93-15.6.82-17.66-1.23,7.4-17.55,10.79-17.55-4,10.23-3.12,11.12,8.21-16.2,11.95-14.6-7.31,13.54-6.06,14.78,9.09-13.53,12.13-13.53-7.13,13.36-6.07,14.42S958.91,1104.47,960.34,1105.89Z" transform="translate(0)"/><path class="cls-21" d="M1081.22,868.4s-4.47,24.62-3.58,34.34-3.41,41-22.76,41.12-6.2-32.5-4.38-42,4.78-46.29,4.78-46.29Z" transform="translate(0)"/><path class="cls-36" d="M1054.09,869.5a86.92,86.92,0,0,1,1.76-14.47l25.37,13.37s-.91,5-1.83,11.45A23.61,23.61,0,0,1,1054.09,869.5Z" transform="translate(0)"/><path class="cls-21" d="M1081.78,796.86a33.29,33.29,0,0,1,16.83,15.74c5.93,11.85,7.89,45-16,57.77s-39.68-10.76-38.19-31.83S1052.5,789.89,1081.78,796.86Z" transform="translate(0)"/><path class="cls-21" d="M1037.28,832.68c-.63,5.46,1.3,10.11,4.31,10.4s6-3.91,6.6-9.37-1.3-10.12-4.32-10.4S1037.91,827.22,1037.28,832.68Z" transform="translate(0)"/><path class="cls-21" d="M1096.5,841.87c-2.1,5.28-1,10.83,2.34,12.39s7.84-1.46,10-6.75,1-10.83-2.34-12.39S1098.6,836.58,1096.5,841.87Z" transform="translate(0)"/><path class="cls-37" d="M2583.77,1194.18s-3.16-3.62-4.11-4.91c-1.13-1.51-4.14-6.29-4.14-6.29s-9.71-17.14-8.39-17.76,4.64,1.4,5.61,2.25,2.18,1.74,3.15,2.59a2.51,2.51,0,0,0,3.55-.31c1.14-1.13-2-5.35-3.37-6.59-4.28-3.87-17.82-11.92-19.21-12.83-1.65-1.08-13-33.91-17.81-44.85h0c-7.31-18.14-13.91-37.15-14.67-39.08L2516.82,983l-31.65-9.13s7.08,92.69,8,97.29c.42,2.19,20.61,42.92,20.63,42.91,11.21,19.43,21.13,36.53,22.94,39.86,0,0,2.74,11.44,4.06,18.83s5.49,13.66,6.18,15.68a48.2,48.2,0,0,0,7.55,14.57c4.7,6.2,3.08-1.88,3.08-1.88s-6.64-13.09-5.52-13.45c.86-.28,4.07,7.09,9.2,14,1.32,1.78,2.63,3.53,3.85,5.13,3.19,4.19,6.68,3.39,4-1.55a52.56,52.56,0,0,0-4-6.46c-1.56-2-2.33-4.39-3.38-6.29-2.08-3.77-3.65-6.49-3.45-6.49s.38-1.06,1.84.78c1.75,2.22,4.44,7.77,7.27,10.82,1.61,1.74,4.74,5.56,4.74,5.56s5.77,5.64,6.17,5.39c2.17-1.36-.8-6.59-3.29-8.65-.9-2.14-4.32-6.07-4.32-6.07s-5.11-9.53-3.78-10.3c1.1-.63,17.75,19.77,19.84,18.25C2588.5,1200.55,2583.77,1194.18,2583.77,1194.18Z" transform="translate(0)"/><path class="cls-37" d="M2263.56,1017.22c-.35-.33-1.5-2.18-2.65-3.53a34.69,34.69,0,0,0-3.22-3.29,12.73,12.73,0,0,0-.46-3.22c-.21-.82-.9-1.86-1.13-2.77s-.13-2-.36-2.86c-.64-2.27-1.73-3.95-3-3.74-1.08.17.83,14.14.83,14.14,7,8.67,10,21.3,39.31,30.65,14.31,7.35,86.94,40.46,93.83,36.71,3.85-2.11,22.85-31.78,36.87-54.79-6.78-3.41-21.16-10.67-29-14.87-7.63,16-18.44,36.29-21.05,37.21-.67.24-2.19.32-57.32-17.15-1.38-.45-2.81-.89-4.25-1.34l-12.42-4-7.61-11.61s-15-16-17.32-14.92c-1.06.5-.36,2.27.8,4.2l0,0,.52.84,0,0c1.3,2,2.86,4,3.08,4.64a13.84,13.84,0,0,1,.83,3.57c-12.92-7-10.72-7.48-13.36-11.16-.65-.93-1.66-1.66-2.27-2.54-1-1.52-1.12-3.34-1.95-4.5a6.19,6.19,0,0,0-3.57-2.41c-.68-.07-.65,1.07-.16,2.92,3.12,11,10,16.68,11.22,19.28.83,1.74-1.88-.47-4.82-5-.74-1.12-2.22-2.17-3-3.8-.54-1.08-.63-2.39-1.14-3.47s-1.18-1.83-1.61-2.63c-.58-1.05-.92-2.89-1.43-3.68-1.9-3-3.45-3.89-4-4-1.07-.17,4.24,16,4.24,16s5.7,9.47,7.24,11.36C2265.29,1017.61,2265.71,1019.16,2263.56,1017.22Z" transform="translate(0)"/><path class="cls-38" d="M2509.66,877.74c3.26-14.8,6.45-29.69-2.13-45.94a41.74,41.74,0,0,0-32.85-22.38c-39.36-4.67-42.83,30.51-80.22,45.91-16,6.58-32.36,4.7-46.64,13.2-25.77,15.35-39.46,58.43-22.37,98.55,41.86,98.25,140.55,33.94,153.24,14.6C2488.13,967.28,2507.57,887.26,2509.66,877.74Z" transform="translate(0)"/><path class="cls-39" d="M2499.38,942.66c-21.12,6.6-78.3,25.11-81.17,24.41L2366.1,925.6,2334,953.74s71.53,53,75.59,54.91c3,1.43,66-31,95.69-45.54C2504.9,953.45,2504.12,951.11,2499.38,942.66Z" transform="translate(0)"/><path class="cls-6" d="M2404,948.83l-32.65,42.28s-34.43-26.46-47.12-40.69c-15.4-17.27-32.24-54.35-29.75-55.7,7-3.81,22-6.86,32.4-4.54C2362.83,898.21,2404,948.83,2404,948.83Z" transform="translate(0)"/><path class="cls-5" d="M2490.28,1015l33-18.85s-15-63.25-41.76-65.28Z" transform="translate(0)"/><path class="cls-37" d="M2352.23,1498.34s-2.8,28.46-10,33.68-16.81,24.56-12,35c1.5,3.26,4.5,5.15,7.92,6.2a21,21,0,0,0,25.21-11.81,59.68,59.68,0,0,0,4.94-21.7c1.09-23.12,8.29-34.88,8.29-34.88Z" transform="translate(0)"/><path class="cls-37" d="M2463,1510s2.28,28.72.43,38.06c-1,5-6.48,15.28-4,20s5.4,5.87,5.4,5.87l65.37,1.06c3.56,0,1.21-2.24-1.66-4.34-4.7-3.45-8.5-5.73-23.5-13-1-.47-4.55-2.73-5.83-3.51a45.16,45.16,0,0,1-9.35-8.25c-4.7-5.21-5.11-30.5-5.11-30.5Z" transform="translate(0)"/><path class="cls-40" d="M2514.05,1128.24s8.24,46.63,2.83,77.2-31.34,313.92-31.34,313.92l-28.83,1.63s-6-118.37-5-134.83,9.63-44,9.63-44l-2.87-95.57,36.38-125.54Z" transform="translate(0)"/><path class="cls-41" d="M2429.33,1118.44s-22.7,34.09-28.1,62.31,4,114.94-6.43,151.92c-5.63,20-27,50.92-30.2,76.79s-16,93.62-16,93.62l28.82,5.7,67-169.21,52.53-152.94,13.46-78.77Z" transform="translate(0)"/><path class="cls-6" d="M2447.7,924.44s-15.56,2.57-27.15,13.92c-24.86,24.33,14.61,118.16,16.77,134.62s-17.72,54.86-17.72,54.86,74.28,13.73,94.45.4c0,0,2.38-132.07.22-143.83s-26.35-48-30.68-52.74S2447.7,924.44,2447.7,924.44Z" transform="translate(0)"/><path class="cls-37" d="M2457.71,884.36l-.43,2.39c-1.34,7.21-6.5,31.13-10,37.71-4.21,7.94,14.42,33.29,32.36,30.2,5.34-.92-4.52-23.29-4-25.66l3.39-17.07c.71-3.58,1.43-7.21,2.1-10.62l3.49-17.62Z" transform="translate(0)"/><path class="cls-42" d="M2457.28,886.75l.43-2.39,26.88-.67-3.49,17.62c-.67,3.4-1.38,7-2.09,10.56-4.15-.61-8.48-2.62-12.83-6.42a33.74,33.74,0,0,1-9.72-14.43C2456.79,889.33,2457.07,887.87,2457.28,886.75Z" transform="translate(0)"/><path class="cls-37" d="M2473.88,820.49a31.71,31.71,0,0,0-18.9,11.77c-7.94,10.25-16.5,41.94,3.22,59.17s39.22-2.27,42.11-22.95S2502.61,819.74,2473.88,820.49Z" transform="translate(0)"/><path class="cls-37" d="M2506.62,861.41c-2.35,4.57-6.31,7.1-8.83,5.65s-2.65-6.32-.3-10.89,6.31-7.1,8.83-5.65S2509,856.84,2506.62,861.41Z" transform="translate(0)"/><path class="cls-38" d="M2477.22,820s-16.93,30.14-29,31.53-13.7,17.41-13.7,17.41,4.33-36.9,16.31-44S2477.22,820,2477.22,820Z" transform="translate(0)"/><path class="cls-37" d="M2452.14,858.72c1,5.36-1,10.26-4.42,11s-7-3.07-8-8.42,1-10.26,4.43-11S2451.16,853.37,2452.14,858.72Z" transform="translate(0)"/><path class="cls-15" d="M2365.3,1556.34c-15.7,2.86-26.15-6.31-31.59-13.17-4,7.77-6.43,17.48-3.5,23.87,2.59,5.62,9.63,7.16,15.58,7.38a16.9,16.9,0,0,0,15.29-8.52A52.44,52.44,0,0,0,2365.3,1556.34Z" transform="translate(0)"/><path class="cls-15" d="M2499.2,1554.12c-17.29,4.43-30.07,1.42-37.22-1.46-1.84,5.22-4.28,11.76-3,15.53,1.59,4.62,3.85,5.66,5.84,5.71,15.79.42,57.84,1,69.88,1.14a2,2,0,0,0,1.53-3.23C2533.26,1568.25,2500.49,1554.91,2499.2,1554.12Z" transform="translate(0)"/><path class="cls-5" d="M2385.3,1024.42l46.22,5.56s17.13-45.48,13.95-69.38-12.17-26.32-17.19-26.15c-13.91.46-27.15,19-36.2,48S2385.3,1024.42,2385.3,1024.42Z" transform="translate(0)"/><path class="cls-39" d="M2382.73,1517.59s-1.52,26.81-1.53,26.87c-.55,3.4-2.75,11.81-2.75,14.91,0,11.62,51.73-9.87,40.13-15-1-.46-6.54-4-6.89-7.95-.53-6.09-1.88-18.43-1.88-18.43Z" transform="translate(0)"/><path class="cls-43" d="M2418.45,1544.23s-12.14,3.56-18.36,4.45-14.42-6.6-18.82-4.58c-4.84,2.23-3.9,28.46-3.9,28.46s67.74,5.29,86.05-.6C2470.68,1569.62,2443.28,1552.52,2418.45,1544.23Z" transform="translate(0)"/><path class="cls-39" d="M2268.77,1517.59s-1.52,26.81-1.53,26.87c-.56,3.4-2.75,11.81-2.75,14.91,0,11.62,51.72-9.87,40.13-15-1-.46-8.18-6.62-8.52-10.58-.53-6.1-.25-15.8-.25-15.8Z" transform="translate(0)"/><path class="cls-43" d="M2304.49,1544.23s-12.14,3.56-18.36,4.45-14.42-6.6-18.82-4.58c-4.84,2.23-6.09,27.9-6.09,27.9s71.89,6.66,88.18,1.94C2356.72,1571.82,2329.32,1552.52,2304.49,1544.23Z" transform="translate(0)"/><path class="cls-44" d="M2350.74,1130.54l21.87,9.43,46,219.69-1.86,164.69-36.88.85s-17.15-144.06-17.15-155.22-79.45-195.38-79.45-195.38Z" transform="translate(0)"/><path class="cls-45" d="M2333.86,1142.63s-6.11,166.65-6.11,195.18-8.71,188.93-8.71,188.93l-51.32,1.68s-2.67-48.67-6.63-120.28c-.62-11.21.8-33.84,0-45.45-5.75-83.51-17.12-162.12-11.69-193.28.87-5,2.52-18.13,5.72-21.44C2279.32,1122.93,2333.86,1142.63,2333.86,1142.63Z" transform="translate(0)"/><path class="cls-5" d="M2273,889.5s-25.51,3.54-32.22,8.47c-7.56,5.56-16,18-16,18s31.31,148,31.37,172.94c0,19.28-6.78,66.59-6.78,66.59s94.63,6,130.48-8.17c0,0-11.32-56.28-11.32-71.06S2355,927.1,2351.94,917.71c-2.8-8.51-7.91-23.81-25.2-27.58S2273,889.5,2273,889.5Z" transform="translate(0)"/><path class="cls-46" d="M2338,1040.08l.61,3.53a3.34,3.34,0,0,0,3.86,2.71l73.15-12.66a3.35,3.35,0,0,0,2.72-3.86l-.61-3.53a3.34,3.34,0,0,0-3.86-2.72l-73.15,12.67A3.34,3.34,0,0,0,2338,1040.08Z" transform="translate(0)"/><path class="cls-39" d="M2234.33,908.56c8.58-.25,16.17,56.36,10.73,61.94s-6.48,75.31-6.48,75.31l81-2v0c1.58-1,18.54-12.44,21-14.94s14.9-1.3,18.17,2.29-7.27.65-10.17,2.61,2.18,6.86,2.18,6.86,20.51,3,24.51-1.27,14.69-11.43,16.14-7.18c.75,2.19-4.76,8.82-7.86,11.61,3.87-2.9,8.51-6,10.1-5.45,2.91,1,1.7,4.68.12,5.77s-17.86,13.52-20.41,14.4-40.37,1.78-46.91,3.23c0,0-106.77,24.31-112.84,22.8-5.32-1.34-10.65-35.51-10.65-61.68S2207.51,909.34,2234.33,908.56Z" transform="translate(0)"/><path class="cls-6" d="M2245.46,895.64s-14.94,3.44-30.36,20.78c-14,15.77-22.87,104.06-22.87,104.06l48.44,7.83,3.87-42.71,12.94-19.53Z" transform="translate(0)"/><path class="cls-39" d="M2479.05,929.39a12.41,12.41,0,0,1,9.69-3.24c6.31.45,14.58,8.43,15.73,11.29.59,1.47-3.37,13.1-5.09,15.66-1,1.52-3.36,2.27-4.18,1.47-.54-.52,0-3.17.17-3.73.3-1.11,2.39-8.3,2.39-8.3s-4.08,7.24-6,7.68a2.17,2.17,0,0,1-2.84-1.7c.58-3.07,3.75-9,3.75-9s-4.78,7-7.12,6.28-1.37-3.23-1-4.08,3.62-5.68,3.62-5.68-5.18,7.17-6.2,4.6c-.61-1.56,2.77-8.35,2.77-8.35Z" transform="translate(0)"/><path class="cls-39" d="M2267.83,853.77l4,40s19.37,25.6,31.49,19.94c10.16-4.76,5.37-20.63,5.37-20.63s-1.76-7.09-4.21-15.24c-1.7-5.69-3.12-11.86-3-16.38C2301.69,850.5,2267.83,853.77,2267.83,853.77Z" transform="translate(0)"/><path class="cls-47" d="M2304.39,877.66c-1.68-5.63-3.06-11.7-2.95-16.16.25-11-33.61-7.73-33.61-7.73l.49,5a12.56,12.56,0,0,0,.69,1.58C2276.14,874.13,2293.12,881.42,2304.39,877.66Z" transform="translate(0)"/><path class="cls-33" d="M2326.73,792.73s4,22.63-1.64,37.77S2312,854.34,2312,854.34l-17.78-61Z" transform="translate(0)"/><path class="cls-39" d="M2330.28,829.17c-1.74,5.4-5.69,9-8.83,8s-4.27-6.2-2.54-11.6,5.69-9,8.83-7.95S2332,823.78,2330.28,829.17Z" transform="translate(0)"/><path class="cls-39" d="M2279,795.22c-.78-.55-19.51,42.44-11.49,58s28.53,22.84,39.32,15.43c11.93-8.2,25.88-53.28,11.58-71S2279,795.22,2279,795.22Z" transform="translate(0)"/><path class="cls-33" d="M2287.47,767.2c-13.16,4.17-20.43,8.24-33.35,20.24-15.89,14.76-8.47,40.51,1.4,53.78a93.63,93.63,0,0,1,13.58,25.2s-1.31-15.07-1.39-18.32c-.07-2.88-.08-12.66-.53-15.44-1.2-7.33-1.39-8.89,2.81-13.51,3.24-3.56,5.64-13.49,10.84-19.42l19.38,3.94s12.25,2.19,20.68-1.82C2345.08,790.35,2322.36,755.76,2287.47,767.2Z" transform="translate(0)"/><path class="cls-39" d="M2272.15,825.92c.11,5.67-2.47,10.33-5.76,10.39s-6.06-4.47-6.18-10.14,2.46-10.32,5.76-10.39S2272,820.25,2272.15,825.92Z" transform="translate(0)"/><path class="cls-48" d="M2228.18,954.82l4.12-18.75s13.48,8.56,21.35,20.78,11.61,44.82,13.86,46,27.14-37.13,31.49-43.17c5.38-7.48,7.39-16.06,10.76-22.58s15.24-8.74,19.74-7.92-6.18,19.88-6.18,19.88-27,46.86-36,72.53-37.08,37.9-41.58,34.23S2228.18,954.82,2228.18,954.82Z" transform="translate(0)"/><path class="cls-48" d="M2310.06,940.74s1.12-4.93,4.15-5.94,8.3-.11,8.64,0,6.16-3,6.16-3l-4.82,9s-9.42,11.1-12.56,7S2310.06,940.74,2310.06,940.74Z" transform="translate(0)"/><path class="cls-48" d="M2330.69,932.18s3.41,17.31,2.55,20.93-3,1.69-3.44.9c-1.68-3.25-2.84-14.35-2.84-14.35Z" transform="translate(0)"/><path class="cls-48" d="M2323.37,946.57s1.62,10.73,3.29,12c1.08.82,2.46.34,2.91-1.83s-2.17-15.4-2.17-15.4Z" transform="translate(0)"/><path class="cls-33" d="M2313.45,977l-5.64-2.75,24-49.19h0a6.28,6.28,0,0,1,2.89,8.39Z" transform="translate(0)"/><path class="cls-49" d="M2253.2,877.74c3.39-15.38,6.7-30.86-2.22-47.76-7.22-13.68-19.7-21.55-34.14-23.26-40.93-4.86-32.18,33.35-89.38,41.62-17.78,2.57-34.29,5-49.13,13.88-26.79,16-36.91,41.57-19.14,83.28,43.51,102.14,150.33,15.43,163.52-4.68C2232.52,925.86,2251,887.64,2253.2,877.74Z" transform="translate(0)"/><path class="cls-50" d="M2089.53,1522.94s-2.91,29.59-10.4,35-17.48,25.54-12.49,36.4c1.56,3.4,4.68,5.36,8.24,6.46a21.85,21.85,0,0,0,26.2-12.28,62.31,62.31,0,0,0,5.14-22.56c1.13-24,8.62-36.27,8.62-36.27Z" transform="translate(0)"/><path class="cls-50" d="M2204.66,1535.05s2.36,29.86.44,39.56c-1,5.2-6.74,15.89-4.12,20.78s5.62,6.11,5.62,6.11l68,1.1c3.7.06,1.25-2.32-1.73-4.51-4.89-3.59-8.83-6-24.44-13.49-1-.49-4.72-2.84-6.06-3.66a46.93,46.93,0,0,1-9.72-8.57c-4.88-5.42-5.3-31.71-5.3-31.71Z" transform="translate(0)"/><path class="cls-51" d="M2257.77,1138.18s8.56,48.47,2.94,80.25-32.59,326.37-32.59,326.37l-30,1.69s-6.28-123.06-5.16-140.17,10-45.75,10-45.75l-3-99.35,37.82-130.52Z" transform="translate(0)"/><path class="cls-52" d="M2169.69,1128s-23.6,35.45-29.22,64.79,4.13,119.49-6.68,157.93c-5.85,20.81-28,53-31.4,79.84s-16.6,97.33-16.6,97.33l30,5.93,69.62-175.92,54.61-159,14-81.89Z" transform="translate(0)"/><path class="cls-53" d="M2188.79,926.29s-20.66,2.35-33,15.8,20,121.52,22.22,138.64-18.42,57-18.42,57,77.22,14.27,98.2.42c0,0,2.25-123.06,0-135.28s-21-61.94-25.47-66.83S2188.79,926.29,2188.79,926.29Z" transform="translate(0)"/><path class="cls-50" d="M2159.57,952.23a10.85,10.85,0,0,1,14.64-6.4c8,3.45,19,10,24.37,21.21,9,18.74,40.46,83.12,50.2,85.57s49.45-66.83,49.45-66.83-1.13-12.22,2.24-19.15,13.49-14.26,15-11.81-5.62,8.55-5.62,9.78,3,2,7.12-.41,6.35-7.39,6.35-7.39,6.76,12.28-.36,23.28-10.11,15.48-10.11,15.48-46.08,102.28-62.94,103.5C2234.21,1100.2,2143.79,999.92,2159.57,952.23Z" transform="translate(0)"/><path class="cls-50" d="M2199.19,884.63s-.16.92-.45,2.48c-1.39,7.5-6.76,32.37-10.38,39.2-4.38,8.26,15,34.62,33.64,31.4,5.55-1-4.69-24.21-4.2-26.68.94-4.71,2.22-11.14,3.53-17.74.73-3.72,1.48-7.49,2.18-11,2-10.07,3.62-18.32,3.62-18.32Z" transform="translate(0)"/><path class="cls-48" d="M2198.74,887.11c.29-1.56.45-2.48.45-2.48l27.94-.7s-1.62,8.24-3.62,18.32c-.69,3.53-1.44,7.28-2.17,11-4.31-.64-8.82-2.73-13.34-6.68a35.1,35.1,0,0,1-10.11-15C2198.24,889.79,2198.53,888.27,2198.74,887.11Z" transform="translate(0)"/><path class="cls-50" d="M2216,818.22a33,33,0,0,0-19.65,12.24c-8.26,10.65-17.15,43.6,3.35,61.52s40.77-2.36,43.78-23.87S2245.88,817.44,2216,818.22Z" transform="translate(0)"/><path class="cls-50" d="M2250,860.77c-2.45,4.75-6.55,7.37-9.17,5.87s-2.77-6.58-.32-11.32,6.56-7.38,9.18-5.88S2252.49,856,2250,860.77Z" transform="translate(0)"/><path class="cls-49" d="M2219.47,817.72s-17.59,31.34-30.18,32.79-14.24,18.09-14.24,18.09,4.5-38.36,17-45.76S2219.47,817.72,2219.47,817.72Z" transform="translate(0)"/><path class="cls-50" d="M2193.41,858c1,5.57-1,10.67-4.6,11.4s-7.28-3.19-8.31-8.75,1-10.67,4.6-11.4S2192.38,852.41,2193.41,858Z" transform="translate(0)"/><path class="cls-54" d="M2103.12,1583.25c-16.32,3-27.19-6.56-32.84-13.7-4.15,8.08-6.69,18.17-3.64,24.81,2.69,5.85,10,7.45,16.19,7.68a17.57,17.57,0,0,0,15.9-8.86A54.25,54.25,0,0,0,2103.12,1583.25Z" transform="translate(0)"/><path class="cls-54" d="M2242.32,1580.94c-18,4.6-31.25,1.47-38.69-1.52-1.91,5.42-4.45,12.22-3.1,16.14,1.65,4.8,4,5.89,6.07,5.94,16.42.43,60.13,1,72.65,1.18a2,2,0,0,0,1.59-3.35C2277.73,1595.63,2243.66,1581.75,2242.32,1580.94Z" transform="translate(0)"/><path class="cls-29" d="M2834.74,1154.8l-.49-.34c-1.53-1-6.25-4.1-9.61-4.45a41,41,0,0,0-8.54.21l7,7.92Z" transform="translate(0)"/><path class="cls-55" d="M2841.44,1451.74a6.22,6.22,0,0,1-6.22-6.22c0-82.63,67.22-149.85,149.85-149.85a149.93,149.93,0,0,1,96.77,35.43,6.22,6.22,0,1,1-8,9.5,137.41,137.41,0,0,0-88.73-32.49c-75.77,0-137.41,61.64-137.41,137.41A6.23,6.23,0,0,1,2841.44,1451.74Z" transform="translate(0)"/><path class="cls-55" d="M2744.93,1442.68a5.17,5.17,0,0,1-4.53-2.65l-114.34-204.47a5.18,5.18,0,0,1,9.05-5.06l118.48,203.9c1.4,2.5-3.64,6.23-6.14,7.62A5.13,5.13,0,0,1,2744.93,1442.68Z" transform="translate(0)"/><path class="cls-55" d="M2881.52,1248h0a5.19,5.19,0,0,0-6.12-5.41l-217.69,40.19c-100.37,172.92-95.07,161.38-93.13,165.13,2.75,5.35-2.37,1.58,190.13,4.92C2883.33,1246.24,2881.36,1250.6,2881.52,1248ZM2749,1442.38l-170.87-1.94,86.15-148.36,201.46-37.19Z" transform="translate(0)"/><path class="cls-56" d="M2982.87,1535.54a90.13,90.13,0,0,1-90-90,89,89,0,0,1,9.93-41.14,2.08,2.08,0,0,1,3.69,1.9,84.85,84.85,0,0,0-9.47,39.24,85.91,85.91,0,0,0,121.57,78.13,2.07,2.07,0,1,1,1.73,3.77A89.31,89.31,0,0,1,2982.87,1535.54Z" transform="translate(0)"/><path class="cls-18" d="M2982.87,1578.19c-73.16,0-132.68-59.52-132.68-132.67s59.52-132.68,132.68-132.68,132.67,59.52,132.67,132.68S3056,1578.19,2982.87,1578.19Zm0-248.76A116.09,116.09,0,1,0,3099,1445.52,116.22,116.22,0,0,0,2982.87,1329.43Z" transform="translate(0)"/><path class="cls-56" d="M2982.87,1548.48a103,103,0,1,1,103-103A103.07,103.07,0,0,1,2982.87,1548.48Zm0-201.78a98.82,98.82,0,1,0,98.81,98.82A98.93,98.93,0,0,0,2982.87,1346.7Z" transform="translate(0)"/><path class="cls-55" d="M2985.07,1450.7a5.16,5.16,0,0,1-4.54-2.69L2841,1194a16.54,16.54,0,0,1-2-8V1169.6c0-3.23-.74-6.56-1.68-7.09s-4.86.15-7.63,1.82l-24.3,14.58A5.18,5.18,0,1,1,2800,1170l24.3-14.58c5.16-3.11,13.66-4.45,18.9-1.48s6.11,9.61,6.11,15.63v16.47a6.2,6.2,0,0,0,.75,3l139.57,254a5.19,5.19,0,0,1-4.54,7.68Z" transform="translate(0)"/><path class="cls-29" d="M2740.78,1061.57c-3.27-6.83-11.88-39.38-11.88-39.38l-54.06,3.44s25.62,56.25,30.94,67.19c14.95,13.41,75.62,54.27,81.28,58.83,2.51,2,6.67,5.77,8.57,9.14,4.22,7.5,5.47,11.1,9.37,18.44,4.45,8.36,30.68-4.56,30.68-11.93,0-5.07-10.3-13.35-18.47-20.08C2813.52,1144.18,2743.72,1067.71,2740.78,1061.57Z" transform="translate(0)"/><path class="cls-13" d="M2694.35,928.3c-13.66,4.42-22.92,14.14-19.06,54.2a398.12,398.12,0,0,0,12.89,69.8s39.28,6.13,62.44-9.57C2750.62,1042.73,2741.35,913.11,2694.35,928.3Z" transform="translate(0)"/><path class="cls-18" d="M2569.19,1578.19c-73.16,0-132.68-59.52-132.68-132.67s59.52-132.68,132.68-132.68,132.67,59.52,132.67,132.68S2642.34,1578.19,2569.19,1578.19Zm0-248.76a116.09,116.09,0,1,0,116.09,116.09A116.22,116.22,0,0,0,2569.19,1329.43Z" transform="translate(0)"/><path class="cls-56" d="M2569.19,1548.48a103,103,0,1,1,103-103A103.08,103.08,0,0,1,2569.19,1548.48Zm0-201.78a98.82,98.82,0,1,0,98.81,98.82A98.93,98.93,0,0,0,2569.19,1346.7Z" transform="translate(0)"/><path class="cls-56" d="M2569.19,1535.54a90.13,90.13,0,0,1-90-90,89,89,0,0,1,9.93-41.14,2.08,2.08,0,0,1,3.69,1.9,85,85,0,0,0-9.47,39.24,85.91,85.91,0,0,0,121.57,78.13,2.07,2.07,0,1,1,1.73,3.77A89.31,89.31,0,0,1,2569.19,1535.54Z" transform="translate(0)"/><path class="cls-56" d="M2633.38,1387.47a2.08,2.08,0,0,1-1.51-.65,86.21,86.21,0,0,0-62.68-27.18,2.08,2.08,0,0,1,0-4.15A90.38,90.38,0,0,1,2634.9,1384a2.07,2.07,0,0,1-.1,2.93A2,2,0,0,1,2633.38,1387.47Z" transform="translate(0)"/><path class="cls-55" d="M2661.94,1342.07a6.2,6.2,0,0,1-4-1.47,137.47,137.47,0,0,0-165.25-9.24,6.22,6.22,0,1,1-6.93-10.32A149.9,149.9,0,0,1,2666,1331.1a6.22,6.22,0,0,1-4,11Z" transform="translate(0)"/><path class="cls-33" d="M2569.19,1431.7a1.6,1.6,0,0,1-.08-3.2l182.67-8.46a1.6,1.6,0,1,1,.15,3.19l-182.67,8.47Z" transform="translate(0)"/><path class="cls-33" d="M2754.45,1471h-.08l-185.25-8.46a1.6,1.6,0,1,1,.14-3.19l185.26,8.46a1.6,1.6,0,0,1-.07,3.2Z" transform="translate(0)"/><circle class="cls-55" cx="2751.85" cy="1445.52" r="29.77"/><path class="cls-15" d="M2794.35,1518.33a2.07,2.07,0,0,1-1.76-1l-42.5-68.67a2.07,2.07,0,0,1,3.53-2.18l42.49,68.67a2.07,2.07,0,0,1-1.76,3.16Z" transform="translate(0)"/><path class="cls-33" d="M2771.54,1523.77a4.14,4.14,0,0,1-.6-8.24l45.61-6.74a4.14,4.14,0,0,1,1.21,8.2l-45.61,6.74A4.17,4.17,0,0,1,2771.54,1523.77Z" transform="translate(0)"/><path class="cls-33" d="M2602.08,1223.19h40.43a5.43,5.43,0,0,1,5.43,5.43v6.5a5.43,5.43,0,0,1-5.43,5.43h-51.05a5.42,5.42,0,0,1-4.92-7.75A17.34,17.34,0,0,1,2602.08,1223.19Z" transform="translate(0)"/><path class="cls-33" d="M2569.19,1467.66a22.14,22.14,0,1,1,22.14-22.14A22.17,22.17,0,0,1,2569.19,1467.66Z" transform="translate(0)"/><circle class="cls-15" cx="2569.19" cy="1445.52" r="18.94"/><path class="cls-33" d="M2574.54,1445.52a5.36,5.36,0,1,1-5.35-5.36A5.35,5.35,0,0,1,2574.54,1445.52Z" transform="translate(0)"/><path class="cls-15" d="M2963.92,1445.52a18.95,18.95,0,1,0,18.95-18.94A18.95,18.95,0,0,0,2963.92,1445.52Z" transform="translate(0)"/><path class="cls-33" d="M2988.22,1445.52a5.36,5.36,0,1,1-5.35-5.36A5.35,5.35,0,0,1,2988.22,1445.52Z" transform="translate(0)"/><path class="cls-29" d="M2833,1152.59a19,19,0,0,0-14.53-5.55c-8.83.7-4.53,7.58-4.53,7.89s15,7.5,15,7.5-2.81-7.31-.78-8.51A12.07,12.07,0,0,1,2833,1152.59Z" transform="translate(0)"/><path class="cls-29" d="M2715.4,1513s-1.56,27.62-1.57,27.68c-.58,3.5-2.84,12.17-2.84,15.36,0,12,53.29-10.17,41.35-15.48-1.08-.48-6.74-4.11-7.1-8.19-.55-6.28-1.94-19-1.94-19Z" transform="translate(0)"/><path class="cls-22" d="M2752.21,1540.41s-12.51,3.66-18.92,4.58-14.86-6.8-19.39-4.71c-5,2.29-4.49,24.87-4.49,24.87s66.79,3.93,85.66-2.14C2802.54,1560.6,2777.79,1548.94,2752.21,1540.41Z" transform="translate(0)"/><path class="cls-29" d="M2598,1515.61s-1.56,27.62-1.57,27.68c-.58,3.5-2.84,12.17-2.84,15.36,0,12,53.29-10.17,41.35-15.48-1.08-.48-8.43-6.82-8.78-10.9-.55-6.28-.26-16.28-.26-16.28Z" transform="translate(0)"/><path class="cls-22" d="M2634.8,1543.06s-12.51,3.66-18.92,4.58-14.86-6.8-19.39-4.71c-5,2.29-5.19,22.93-5.19,22.93s71.4,5.18,88.19.32C2687,1564,2660.38,1551.59,2634.8,1543.06Z" transform="translate(0)"/><path class="cls-57" d="M2682.44,1116.84l9.9,15,60,221-1.92,169.68-38,.88s-17.67-148.42-17.67-159.92-81.85-201.29-81.85-201.29Z" transform="translate(0)"/><path class="cls-58" d="M2680.85,1131.19s-32.4,172.49-32.4,201.88S2635,1527,2635,1527l-38.09-.22s-2.75-50.15-6.83-123.92c-.64-11.56.82-34.87,0-46.83-5.92-86-17.64-147.74-12-179.84.9-5.17,14.19-39.34,17.48-42.75C2620.46,1107.63,2680.85,1131.19,2680.85,1131.19Z" transform="translate(0)"/><path class="cls-58" d="M2683.75,896.4s-6.1-10.78-11.41-16.09-12.5-20.47-10.31-38,15.62-24.38,23-26.41,34.89-1.93,44.11,2.6,4.48,39.59,4.48,39.59l-14.69,27Z" transform="translate(0)"/><path class="cls-25" d="M2718.47,930.49c.63.62,18.14,38.89,14.81,66.39-6.09,50.25-31.71,132.22-40.94,135-74,22.3-101.05,5.63-101.05,5.63s29.33-152.54,46.25-187.09c7.05-14.38,15.67-26.62,32-29.17C2673.25,920.67,2704.1,916.11,2718.47,930.49Z" transform="translate(0)"/><path class="cls-29" d="M2715.15,901.56l3.28,30.16s.77,8.41-3.43,11.73c-7.22,5.73-34.15-23.19-34.15-23.19l3-47.45Z" transform="translate(0)"/><path class="cls-34" d="M2682.91,887.08c6.66,19.27,24.39,28.53,33.93,29.94l-1.69-15.46-31.35-28.75Z" transform="translate(0)"/><path class="cls-29" d="M2698.57,825a24.25,24.25,0,0,1,32.65,17.73,182.74,182.74,0,0,1,3.13,23.15c1.43,21.15-8.5,42.3-18.11,42.78s-36.86-11.91-39.32-41.91C2675.4,848.22,2683.83,830.91,2698.57,825Z" transform="translate(0)"/><path class="cls-29" d="M2684.12,868.77c.23,4.67-2.67,8.61-6.49,8.8s-7.1-3.44-7.34-8.11,2.68-8.61,6.5-8.8S2683.89,864.1,2684.12,868.77Z" transform="translate(0)"/><path class="cls-58" d="M2676.79,860.66a75,75,0,0,1-1.17-19.73c.94-9.69,9-23.28,18.8-25.31s32.8,1.72,35.77-4.53,3-5.63,4-6.61c2.31-2.22,16.08,7,15.45,23.43s-15.1,15.83-17.91,16.3-28.44-10.31-36.26-9.84S2676.79,860.66,2676.79,860.66Z" transform="translate(0)"/><path class="cls-59" d="M2552.23,749.63c-1.72,13.46-3.84,12.6-4,14.34-.2,2,12.1,26.74,12.1,26.74s35.8,73,37.87,76.91l63.69,53.7L2645.38,961s-67.8-60.3-70.82-64.08-40.3-108.13-43.87-117.21c0,0-8.13-9.27-13.05-15.27s-7-13.89-8.15-15.79a71.3,71.3,0,0,1-5.73-16c-1.85-7.93,3.42-1.23,3.42-1.23s6,14.09,7,13.43c.77-.5-2.94-8-5.07-16.76-.54-2.25-1.07-4.47-1.55-6.51-1.24-5.37,1.6-7.64,3.77-2.22a57.26,57.26,0,0,1,2.5,7.53c.58,2.6,1.93,4.8,2.75,6.92,1.61,4.19,2.74,7.27,2.87,7.11s1.06.4.55-2c-.61-2.9-3.23-8.76-3.81-13.08-.33-2.45-1.32-7.53-1.32-7.53s-.1-7.95.35-8.1c2.43-.84,4,4.58,4,8,1.09,2.16,2,7.54,2,7.54s4.17,10.48,5.62,9.91c.61-.24-1.2-7-2-13.84-.72-6.38-.44-12.94.77-13.26,2-.54,3.57,6.47,3.57,6.47s.82,5,1.22,6.59c.46,1.92,2.27,7.53,2.27,7.53s7.19,19.27,8.51,18.61,4-3.73,4-5.08-1.38-3.78-1.43-5.13a3.29,3.29,0,0,1,2.63-3.29c1.6-.16,4.25,6.3,4.25,6.3S2552.72,745.74,2552.23,749.63Z" transform="translate(0)"/><path class="cls-13" d="M2628.69,890.19c2.5-.6,69.67,40.45,70.49,56.42s-22.18,41.32-41.4,31.06-58.44-51.5-58.44-51.5S2620.59,892.14,2628.69,890.19Z" transform="translate(0)"/><path class="cls-60" d="M1344.37,1554.49s14,33.81,14.05,33.87c.61,3.74,3,13,3,16.38,0,12.78-56.43-10.84-43.78-16.5,1.14-.51,4.73-4.61,5.11-9,.58-6.7-4.75-15.1-4.75-15.1Z" transform="translate(0)"/><path class="cls-18" d="M1364.64,1609s-1.32-19.15-6.06-21.41c-4.45-2.11-12.5,6.43-18.78,5.45s-20.45-6.26-20.45-6.26c-25.08,9.1-43.74,14.89-40,22.22h85.29Z" transform="translate(0)"/><path class="cls-60" d="M1258,1564.69s8.18,23.61,8.19,23.67c.61,3.74,3,13,3,16.38,0,12.78-56.43-10.84-43.78-16.5,1.14-.51,4.73-4.61,5.11-9,.58-6.7-4.75-15.1-4.75-15.1Z" transform="translate(0)"/><path class="cls-61" d="M1180.09,1116.49l-20.43,53.29s-13.33,127.16-5.57,203.28c3.25,31.84,73.52,202.26,73.52,202.26l34.9-5-36.21-199.64,6.66-79.35,24.35-152.55Z" transform="translate(0)"/><path class="cls-62" d="M1204.58,1122.8l-12.52,55.68s5.19,127.76,23.88,202c7.81,31,102,189.51,102,189.51l33.81-10L1287,1367.62l6-189.5-8.87-44.44Z" transform="translate(0)"/><path class="cls-18" d="M1272.37,1609s-1.35-19-6.42-21.26c-4.8-2.16-13.62,6.28-20.4,5.3s-20-4.88-20-4.88c-27.09,9.1-49.27,13.51-45.24,20.84h92.09Z" transform="translate(0)"/><path class="cls-60" d="M1164.94,674.16c-7.79,11.19-9.37,9.42-10.33,10.88-1.14,1.73-1,29.64-1,29.64s-.15,82.24,0,86.69l34.78,78.3-33.65,27.52s-35.59-86.15-36.67-91,12.08-115.7,12.92-125.5c0,0-3.32-12.16-5.16-19.85s-.16-15.75-.35-18a69.3,69.3,0,0,1,2-17c1.92-8,3.76.54,3.76.54s-.9,15.42.33,15.31c1-.09.94-8.55,3-17.37.52-2.27,1-4.51,1.55-6.56,1.3-5.38,5-6,4.53-.18a54.83,54.83,0,0,1-1.12,7.91c-.65,2.6-.41,5.21-.62,7.48-.42,4.52-.78,7.81-.58,7.72s.8.87,1.43-1.52c.76-2.87,1-9.36,2.46-13.49.82-2.34,2.23-7.35,2.23-7.35s3.18-7.84,3.67-7.77c2.66.41,2,6.71.47,9.74,0,2.45-1.61,7.67-1.61,7.67s-.92,11.34.69,11.53c1.32.15,8.78-26.5,11.42-25.89,2.16.49.28,8.61.28,8.61s-1.52,4.82-1.9,6.46c-.45,1.93-1.34,7.8-1.34,7.8s-2.15,20.62-.61,20.67,5.49-1.41,6.06-2.63.45-4,1-5.26a3.34,3.34,0,0,1,4-1.68c1.57.62,1.07,7.64,1.07,7.64S1167.19,670.93,1164.94,674.16Z" transform="translate(0)"/><path class="cls-25" d="M1181,851.74l-47.34,29.2s18,43.61,30.31,59.23c14.88,19,42,27.77,43.86,25.49,5.13-6.42,15.3-14.28,14.79-25.32C1220.84,902.15,1181,851.74,1181,851.74Z" transform="translate(0)"/><path class="cls-63" d="M1144.89,679.44c1.66-5.91,5-10.08,10.63-12.28C1148.6,666.68,1143.9,673.59,1144.89,679.44Z" transform="translate(0)"/><path class="cls-6" d="M1270,901.72s26.34,3.68,33.27,8.81c7.8,5.77,32,32.7,32,32.7s-50.31,145.15-48.36,171,7.47,64.07,7.47,64.07-97.7,6.22-134.7-8.49c0,0,11.68-58.52,11.68-73.88s8.54-131.46,12.18-143.29c2.73-8.89,13.14-46.32,31-50.24S1270,901.72,1270,901.72Z" transform="translate(0)"/><path class="cls-60" d="M1262.8,860.28l6.41,41.41s-18.72,31.68-32.93,27.24c-11.92-3.72-9.56-27.94-9.56-27.94s6.5-24.32,4.55-36.49S1262.8,860.28,1262.8,860.28Z" transform="translate(0)"/><path class="cls-63" d="M1231.27,864.5c-2-12.17,31.53-4.22,31.53-4.22l.54,3.56a19.56,19.56,0,0,1-3.63,6c-7.47,8-19.16,12.89-29.27,13.26C1231.45,876.52,1232.07,869.49,1231.27,864.5Z" transform="translate(0)"/><path class="cls-60" d="M1268.3,799.47c.94-.34,7.58,48.95-5,62.52s-37.14,18-46,7.32c-9.73-11.82-9.25-64.8,10.34-78.75S1268.3,799.47,1268.3,799.47Z" transform="translate(0)"/><path class="cls-13" d="M1235.13,764.19a54.29,54.29,0,0,1,28.55,16.29c6.87.81,16.22,4.61,25.87,20.59,11.86,19.66,3.1,41.43-10.71,52.11s-13.55,23.16-13.55,23.16l-2.25-6.52a35.67,35.67,0,0,1-1.73-15,29.25,29.25,0,0,1,2.23-9c3.32-7.14-7.13-11.87-10.07-17.81-2.25-4.57-2.36-15-5.92-22.58l-4.25-5.77s-9.8-7.63-19.39-5.48S1215.7,760.22,1235.13,764.19Z" transform="translate(0)"/><path class="cls-60" d="M1254.12,836.71c-.1,6,2.63,10.94,6.1,11s6.37-4.77,6.47-10.78-2.64-10.94-6.11-11S1254.22,830.7,1254.12,836.71Z" transform="translate(0)"/><path class="cls-25" d="M1367.91,995.26l-44,34.6s-19.44-18.78-29.21-39.55c-9.88-21-1.22-82.41,9.3-79.56C1327.5,917.13,1367.91,995.26,1367.91,995.26Z" transform="translate(0)"/><path class="cls-33" d="M1342.29,1053.37c48.5,20.38,64.12-24.15,62.9-23,.92-1,8.22-4.26,12.89-6.6,19.44-9.73,31.19-32.36,30.75-55.13,27.89-17.33,35.15-54,16-74.34,5.89-22.57-9.64-47.33-29.37-58.77-15-26.6-52.64-15.22-73,5.65-10.31,10.58-16.27,26.08-16.11,41.53-23.91,10.11-36.42,37-31,64.18C1283.17,974,1292.79,1032.58,1342.29,1053.37Z" transform="translate(0)"/><path class="cls-6" d="M1519.53,1198.55l8.28-2.13c-.16-.64-15.89-64.45-32.65-128-9.85-37.32-18.13-67.25-24.61-89-12.76-42.77-15.6-44-18.11-45l-3.24,8.08a2.74,2.74,0,0,1-.91-.59c2,2.35,10,20,39.64,132.59C1504.28,1136.71,1519.38,1197.94,1519.53,1198.55Z" transform="translate(0)"/><path class="cls-29" d="M1239.62,1196.7s3.73-3,4.89-4.06c1.36-1.27,5.15-5.4,5.15-5.4s12.53-15,11.35-15.83-4.76.53-5.86,1.18-2.44,1.32-3.54,2a2.48,2.48,0,0,1-3.39-.94c-.91-1.31,2.9-4.86,4.46-5.83,4.86-3,19.47-8.43,21-9.07,1.8-.76,18.76-30.78,25.38-40.6h0c10.36-16.4,20.19-33.78,21.28-35.52l22.3-80.1,32.45-3.22s-23.51,89.24-25.19,93.56c-.8,2.06-27.76,38.21-27.77,38.2-14.39,17-27.12,31.86-29.48,34.8,0,0-4.72,10.68-7.32,17.65s-7.79,12.35-8.82,14.2a48.24,48.24,0,0,1-10,12.87c-5.69,5.21-2.67-2.39-2.67-2.39s8.82-11.59,7.79-12.14c-.79-.43-5.24,6.19-11.47,12-1.6,1.49-3.19,3-4.66,4.31-3.86,3.52-7.11,2.11-3.66-2.23a52.7,52.7,0,0,1,5-5.6c1.88-1.69,3.06-3.86,4.42-5.53,2.71-3.31,4.72-5.68,4.52-5.72s-.18-1.1-1.93.44c-2.1,1.84-5.71,6.78-9,9.25-1.87,1.41-5.61,4.58-5.61,4.58s-6.62,4.47-7,4.15c-1.88-1.71,2-6.29,4.74-7.85,1.27-1.93,5.3-5.16,5.3-5.16s6.68-8.38,5.52-9.37c-1-.81-20.82,16.11-22.58,14.26C1233.88,1202.06,1239.62,1196.7,1239.62,1196.7Z" transform="translate(0)"/><path class="cls-34" d="M1275.3,1172.88s-10,3.8-14.17-1.34a7.16,7.16,0,0,0,5.29,4.52C1270.43,1176.76,1275.3,1172.88,1275.3,1172.88Z" transform="translate(0)"/><path class="cls-29" d="M1414.29,1219.36l-18.37,169.94s9,35.94,7.89,46.15-20,144.14-20,144.14l.85,7.35.46,21.79-70.63.55s14.89-6.89,35.71-20.53c1.54-1,5.09-4.22,6-10.63,5.56-41.28-5.44-179-5.44-179l-8.66-179.23Z" transform="translate(0)"/><path class="cls-29" d="M1454.48,1251.56c4,1,10,146.89,13.33,153.35,20.8,41,25.74,165.58,25.74,165.58l8.58,17.45-2,16.81s-15.52,9.2-26.41,3l1.69-16.83,1.28-22.49-52.46-155.23-28.71-158.34Z" transform="translate(0)"/><path class="cls-53" d="M1320.05,1330.61l-2.5-100.63c-.43-28.44,8.73-55.73,20-81.63l23.81-41.44c7.67,2.52,11.89-21,20-20,6.08.71,10.24,2.16,15.89,2.51,10.63.65,17.09,22.15,28.48,20.8.06.69,7.13,3.4,7.3,3.88,5.45,15.21,19.36,31.48,26.78,76.64,8.43,51.26,8.39,139.36,7.34,145.38C1386.51,1339.77,1367.31,1342.69,1320.05,1330.61Z" transform="translate(0)"/><path class="cls-6" d="M1385.49,1614.34h-72.91c-2.7-.26-3.35-2.54-2.42-3.94,1.93-2.9,10.43-5,20-9.63,16.77,1.83,51.86-10.94,54.5-15C1386.18,1593.87,1387,1614,1385.49,1614.34Z" transform="translate(0)"/><path class="cls-6" d="M1502.09,1587.89s-6.48,19-13.48,18.48-13.13-15.55-13.13-15.55-2.62,12.62-1.4,19.58,11.2,14.09,18,11S1508.21,1602.16,1502.09,1587.89Z" transform="translate(0)"/><path class="cls-64" d="M1366.56,1041.79a106.77,106.77,0,0,1-19.89-4.81c-5.84-2.1-15.56-6.71-15.56-6.71s5.46-47.41,19.2-76.12c5.68-11.87,11.42-17.59,19.43-19C1369.8,935.18,1366.56,1041.79,1366.56,1041.79Z" transform="translate(0)"/><path class="cls-7" d="M1348.91,988.14c2.06-7.69,6.66-17.8,9.28-24.78,4.46-11.84,5.78-22.9,9.71-27.64,2.12-2.55,29.32-2.17,32.66-2.51,1.38-.15,6.82.21,12.09.54h0c3.08.36,33.74,2.83,38.18,4.8,22.08,22.13,32.76,51.92,49.36,84.47,0,0-12.43,7.32-22.35,11.93-4.3,2-12.56,5.2-12.56,5.2l-19.13-33c-.21-.16-1.21-1.25-1.49-.55-.44,1.1-14.42,103.8-14.42,103.8s-56.64,4.76-69.94-1.77c0,0-2.45-68.57-7.35-88.69C1351.14,1012.58,1345.59,1000.53,1348.91,988.14Z" transform="translate(0)"/><path class="cls-29" d="M1416.37,902.23s-4.24,23.92-3.39,33.35-3.24,39.84-21.59,39.94-5.88-31.57-4.15-40.81,4.53-45,4.53-45Z" transform="translate(0)"/><path class="cls-34" d="M1390.68,903.37c.28-7.83,1.09-13.61,1.09-13.61l24.6,12.47s-.87,4.89-1.74,11.12C1403.86,915.71,1395.34,910.62,1390.68,903.37Z" transform="translate(0)"/><path class="cls-29" d="M1416.9,832.75a31.83,31.83,0,0,1,16,15.28c5.62,11.51,7.47,43.74-15.2,56.11s-37.62-10.45-36.22-30.9S1389.13,826,1416.9,832.75Z" transform="translate(0)"/><path class="cls-29" d="M1377.06,866.29c1.42,5.13,4.8,8.6,7.55,7.75s3.81-5.72,2.39-10.85-4.81-8.61-7.55-7.75S1375.64,861.15,1377.06,866.29Z" transform="translate(0)"/><path class="cls-29" d="M1430.86,876.46c-2,5.14-1,10.53,2.21,12s7.44-1.42,9.44-6.55,1-10.53-2.22-12S1432.85,871.33,1430.86,876.46Z" transform="translate(0)"/><path class="cls-6" d="M1437.74,1198.17v32.63c0,17,12,30.72,26.69,30.72h27.45v-76.07h-43.09a10.29,10.29,0,0,0-7.61,3.5A13.63,13.63,0,0,0,1437.74,1198.17Z" transform="translate(0)"/><path class="cls-5" d="M1441.18,1189h.19c5.66,0,10.25,5.29,10.25,11.8v24c0,20.3,14.3,36.76,31.94,36.76h16.71c17.64,0,31.93-16.46,31.93-36.76v-23.89c0-8.52-6-15.42-13.39-15.42h-70A10.29,10.29,0,0,0,1441.18,1189Z" transform="translate(0)"/><path class="cls-6" d="M1437.66,1197.5l8.54,0c0-.6-.27-61.16.54-122.91.48-36.24,1.23-65.79,2.23-87.82,1.71-37.65,3.8-44.4,4.4-45.5a37.92,37.92,0,0,0-.93-6.73,4.83,4.83,0,0,0-4.62.5c-2.2,1.52-3.57,4.42-4.92,16.1-.84,7.23-1.59,17.49-2.23,30.49-1.08,21.8-1.89,51.69-2.41,88.84C1437.38,1133.64,1437.66,1196.87,1437.66,1197.5Z" transform="translate(0)"/><path class="cls-59" d="M1394.8,1139.51c-1.09.24-8.61.68-8.61.68s-11-6.68-12.6-3.52c-.48.95,11.43,7.73,11.43,7.73s11.51.38,14.26.3c5.12-.13,15.9-1.58,31.92-13.51,13.87-7.08,83.54-47.72,84.57-55.46.61-4.57-10-28.42-20.27-50-4.54,2.53-11.57,6.39-17.67,9.23-2.87,1.33-7.52,3.2-10.27,4.3,6.66,12.85,13,26.08,12.14,28.82-.71,2.41-60.22,47.81-60.22,47.81l-11.88-1.62s-21,2.49-21.45,5,8.84,1.84,10.08,2.22a13.19,13.19,0,0,1,3.26,1.47c-3.45,1.65-8.91,4.28-12,4.41-7,.25-15.19-.78-16.07.23-1,1.18,9.66,4.42,17.2,4.89,3.09.16,5-.78,6.3-.53,1.83.38-1.39,1.85-6.53,1.54-2.94-.19-8.07-1.81-11.3-2.28-5.32-.76-8.3-.34-8.74.13-.73.76,15.08,5.83,15.08,5.83s10.29,1.35,12.65,1.23C1396.11,1138.38,1397.53,1139,1394.8,1139.51Z" transform="translate(0)"/><path class="cls-65" d="M2007.52,1592.59c-1-7.16,1.24-19.5,6.85-38.78-11.11,0-20.45-4.9-31.81-4.72-3.1,18.13-7.91,47.92-7.91,47.92l-.51,23.54,79.08.6s-.66.34-24-14.39C2027.52,1605.67,2008.48,1599.52,2007.52,1592.59Z" transform="translate(0)"/><path class="cls-5" d="M1973.76,1626.61h81.63c3-.28,3.76-2.74,2.71-4.26-2.15-3.12-18.07-10.63-28.78-15.61-18.78,2-51.78-5.75-54.74-10.1C1969.43,1611,1972.08,1626.23,1973.76,1626.61Z" transform="translate(0)"/><path class="cls-65" d="M1909,1592.59c-1-7.16-2.71-16.14-.21-40-11.11,0-21.69-2.06-33-1.89,0,18.66.4,46.35.4,46.35l-.52,23.54,79.08.6s-.66.34-24-14.39C1929,1605.67,1910,1599.52,1909,1592.59Z" transform="translate(0)"/><path class="cls-5" d="M1875.25,1626.61h81.63c3-.28,3.76-2.74,2.71-4.26-2.15-3.12-18.07-10.63-28.78-15.61-18.77,2-51.77-5.75-54.74-10.1C1870.92,1611,1873.57,1626.23,1875.25,1626.61Z" transform="translate(0)"/><path class="cls-65" d="M1966.47,909.73l29.75-31.38s31.84,17.51,69,34.24c10.21-17.76,26.86-76.18,27.75-79s-19.5-37.88-14.94-38.76,10.49,18.74,15.32,16.75,17.23-47.51,20.13-45c5.43,4.65-6.53,28.31-3.66,30s10.13-26.23,15.66-25-9.34,25.44-7.71,27.77,17.17-20.42,20.38-15.15c1.75,2.86-14.33,19.82-11,21.71s17.8-8.78,19.53-5.32-13.52,7.06-17.75,15.82-11.94,12.16-14.49,28.71-9.54,105-27.57,112.11C2071,963.44,1966.47,909.73,1966.47,909.73Z" transform="translate(0)"/><path class="cls-31" d="M1985.69,1079l-24.12,13.46-49,75,87.69,206.39s-9.88,31-13.1,46.54c-3.36,16.23-11.62,155.48-11.62,155.48l37.41.63s35.53-148.24,41.55-196.36c7.3-58.43-37.19-197.58-37.19-197.58-8.29-28.39-26.18-86.8-26.18-86.8S1986.72,1081.48,1985.69,1079Z" transform="translate(0)"/><path class="cls-35" d="M1901.73,1050.83s2.5,17.64-7.48,37.75c-6.08,12.27-16.58,21.88-24.11,36.9-14.23,28.43-22,68.81-16.62,94.77,0,0,29.43,112.39,28.26,153.46-.43,15.15-5.63,42.44-9,60.89-2.94,16.31-3.93,139.33-3.93,139.33l41.77-1.25,32-198.46,13.52-176.41L1985.69,1079Z" transform="translate(0)"/><path class="cls-14" d="M1990.2,791.86c-3.69-17.45-7.51-35-24.84-47.52-14-10.17-29.1-13.07-45.08-7.27-45.27,16.42-20.92,52.35-77.1,90.64-17.46,11.9-24.09,16-36.62,31.91-17.54,22.19-27.12,52-18.31,76.49,18.23,50.7,74.72,65.35,104.27,54.6,55-20,100.83-89.76,103.88-108.8C1999.65,861.54,1992.58,803.09,1990.2,791.86Z" transform="translate(0)"/><path class="cls-13" d="M1999,929.44c13.31,6.16,37.42,15.4,37.42,15.4l13.72-43.38c-77.52-44.1-71.44-37-129.63-36.12-46.48.66-66-8.22-106,99.84,0,0,30.47,13.69,41.38,18.09,4.69-13.36,13.17-40,18.12-24.81a441.68,441.68,0,0,1,16.61,70c2.33,14.13,7.4,32.23,4.73,46.63,0,0,31.66,6.52,55.84,7.58a1.47,1.47,0,0,0,.21,0,189.41,189.41,0,0,0,34.3-3.63s4.74-100.24,7.28-104.42c2.8-4.63,14.65-19.59,4.57-42C1995.76,928.64,1996.24,928.17,1999,929.44Z" transform="translate(0)"/><path class="cls-65" d="M1940.79,1103.43c.55.08,3-.25,5-.2a37.78,37.78,0,0,1,5.23.48,15,15,0,0,1,3.19-1.93c.88-.4,2.3-.54,3.27-1s1.85-1.33,2.79-1.75c2.47-1.07,4.74-1.32,5.49,0,.62,1.07-13.12,9.47-13.12,9.47-12.72.08-26,6.56-55.51-12.67-16.83-7.35-98.58-47.73-100.23-56.53-.92-4.94,11.62-43.17,21.87-72.2,7.91,3.54,24.72,11,34.12,15-8.63,18.28-18.81,42.52-17.73,45.49.27.77,1.29,2.17,56.56,38.36,1.39.89,2.82,1.84,4.26,2.79l12.47,8.13,15.76-1.65s25,1.73,25.71,4.57c.33,1.3-1.74,1.94-4.28,2.32h-.08l-1.12.15h0c-2.74.32-5.64.37-6.34.62a16.67,16.67,0,0,0-3.76,1.85c15.56,6.36,14.36,4.09,19.53,3.76,1.29-.1,2.66.28,3.89.18,2.09-.18,3.76-1.42,5.38-1.52a7,7,0,0,1,4.72,1.42c.54.55-.48,1.34-2.47,2.24-12,5.21-22,3.22-25.17,4-2.14.53,1.78,1.32,7.88.67,1.53-.14,3.52.4,5.54-.07,1.35-.3,2.57-1.17,3.89-1.5s2.47-.27,3.49-.47c1.35-.25,3.22-1.27,4.29-1.4,4-.45,5.94.25,6.39.63.92.82-17.21,7.78-17.21,7.78s-12.49,1.79-15.29,1.79C1939.19,1102.18,1937.52,1102.93,1940.79,1103.43Z" transform="translate(0)"/><path class="cls-65" d="M1926.22,822.56s-3.55,28.63-5.64,38.56c-2.19,10.4-5.47,43.15,16.09,48.46s14.9-35.63,15.25-46.2,6.47-47.44,6.47-47.44Z" transform="translate(0)"/><path class="cls-66" d="M1925,831.7l.65.4c11.92,6.83,22.29,5.75,30.08.43,1.39-9.15,2.62-16.59,2.62-16.59l-32.17,6.62S1925.74,826.38,1925,831.7Z" transform="translate(0)"/><path class="cls-65" d="M1932.7,748a36.92,36.92,0,0,0-19.92,16.1c-7.29,12.55-10.92,48.59,15.9,64s45.85-9.26,45-32.3S1966.49,742.24,1932.7,748Z" transform="translate(0)"/><path class="cls-65" d="M1979.65,785.89c.29,6-2.27,11-5.73,11.16s-6.5-4.54-6.8-10.53,2.26-11,5.72-11.16S1979.35,779.89,1979.65,785.89Z" transform="translate(0)"/><path class="cls-14" d="M1936.5,747.08s-14.46,37.69-28.61,41.7-13,22.56-13,22.56S1893.06,768.49,1906,758,1936.5,747.08,1936.5,747.08Z" transform="translate(0)"/><path class="cls-65" d="M1914,796.16c2.18,5.89.75,11.87-3.2,13.36s-8.92-2.08-11.1-8-.75-11.87,3.2-13.36S1911.77,790.27,1914,796.16Z" transform="translate(0)"/><path class="cls-67" d="M1575.46,861.38s-43.8-78.18-54.45-94.79-38.42-82.65-39.41-85.26,19.12-33.85,14.63-34.92-9.46,16.48-14.25,14.38-18.77-44.33-21.5-42.24c-5.11,3.92,7.54,26.2,4.82,27.61s-11-24.52-16.32-23.75,10.17,23.75,8.67,25.78-17.6-19.63-20.51-15c-1.58,2.51,14.81,18.91,11.66,20.44s-17.73-9-19.27-6,13.48,7.23,18,15.46,12.14,11.79,15.32,27,7.93,70.41,24.21,97.93,52.07,88.43,52.07,88.43Z" transform="translate(0)"/><path class="cls-67" d="M1769.58,1238.61s-3.56-4.44-4.63-6c-1.26-1.84-4.59-7.65-4.59-7.65s-10.67-20.77-9.07-21.43,5.42,1.88,6.53,2.93,2.5,2.17,3.61,3.22a3,3,0,0,0,4.21-.19c1.4-1.28-2.1-6.43-3.67-8-4.88-4.79-20.51-15-22.12-16.12-1.9-1.36-13.77-40.78-18.91-54h0c-7.77-21.83-14.67-44.66-15.48-47l-4.89-99.12-37-12.35s3.88,110.09,4.71,115.57c.39,2.61,22.32,51.82,22.34,51.81,12.32,23.54,23.25,44.26,25.23,48.31,0,0,2.69,13.67,3.88,22.48s5.84,16.44,6.56,18.86a57.44,57.44,0,0,0,8.23,17.62c5.27,7.57,3.75-2.08,3.75-2.08s-7.24-15.82-5.89-16.19c1-.29,4.47,8.59,10.21,17,1.48,2.17,2.94,4.31,4.31,6.26,3.57,5.12,7.74,4.34,4.86-1.63a62.68,62.68,0,0,0-4.41-7.85c-1.75-2.46-2.55-5.3-3.7-7.6-2.29-4.57-4-7.87-3.77-7.87s.5-1.22,2.14,1c2,2.71,4.88,9.41,8.08,13.16,1.82,2.13,5.35,6.81,5.35,6.81s6.55,7,7,6.68c2.64-1.5-.62-7.84-3.47-10.4-1-2.58-4.82-7.4-4.82-7.4s-5.6-11.53-4-12.37c1.33-.69,20.06,24.26,22.6,22.57C1774.88,1246.38,1769.58,1238.61,1769.58,1238.61Z" transform="translate(0)"/><path class="cls-33" d="M1703.35,852.45c.9-21.62-2.28-43-12-63.1-8.32-17.32-28.91-27.15-47.69-27.17-59.64-.08-67.22,78.71-105.18,109.11-11.6,9.28-24.57,16.85-35.54,26.86-40.53,37-22.28,105.44,14.94,137.86,25.82,22.5,66.41,35.28,98.24,17.69,16.61-9.18,29.23-24.44,38.21-41.16,12.76-23.73,21-51.11,30.05-76.4C1694.07,909.22,1702.16,881.19,1703.35,852.45Z" transform="translate(0)"/><path class="cls-67" d="M1516.94,1548.55s-4.2,29.08-11.43,38.46c-2.43,3.16-6.86,7.14-9.77,12.83-4.52,8.86-2,22.06,1.32,29.32,1.71,3.73-.12,3.72,3.78,4.93,11.56,3.55,23.86-2.44,28.79-13.49a68.28,68.28,0,0,0,5.64-24.78c1.24-26.41,9.47-39.84,9.47-39.84Z" transform="translate(0)"/><path class="cls-67" d="M1643.39,1561.85s2.6,32.79.49,43.45c-1.13,5.71-7.4,17.46-4.52,22.83s6.17,6.71,6.17,6.71l74.64,1.2c4.07.07,1.38-2.54-1.9-5-5.36-3.94-9.69-6.54-26.83-14.82-1.12-.54-5.19-3.12-6.66-4a51.69,51.69,0,0,1-10.68-9.42c-5.36-5.95-5.83-34.83-5.83-34.83Z" transform="translate(0)"/><path class="cls-52" d="M1701.74,1125.92s9.39,53.25,3.22,88.16-35.79,358.48-35.79,358.48l-32.92,1.85s-6.9-135.16-5.67-154,11-50.25,11-50.25l-3.28-109.13,41.54-143.37Z" transform="translate(0)"/><path class="cls-68" d="M1605,1114.72s-25.93,38.94-32.1,71.16,4.53,131.25-7.34,173.48c-6.43,22.86-30.78,58.16-34.49,87.69S1512.83,1554,1512.83,1554l32.91,6.51,76.47-193.23,60-174.65,15.37-89.95Z" transform="translate(0)"/><path class="cls-35" d="M1626,893.19s-34.32-2.18-47.9,12.58,30.12,131.6,32.59,150.4-12.59,68.78-12.59,68.78,80.62,16.19,103.67,1c0,0,2.46-135.16,0-148.59s-23-68-28-73.4S1626,893.19,1626,893.19Z" transform="translate(0)"/><path class="cls-67" d="M1637.39,847.42s-.17,1-.49,2.73c-1.53,8.23-7.43,35.55-11.41,43.06-4.81,9.07,16.47,38,37,34.48,6.1-1.05-5.15-26.59-4.61-29.3,1-5.18,2.44-12.24,3.88-19.49.81-4.08,1.63-8.23,2.4-12.12,2.19-11.07,4-20.12,4-20.12Z" transform="translate(0)"/><path class="cls-69" d="M1636.9,850.15c.32-1.72.49-2.73.49-2.73l30.69-.76s-1.78,9.05-4,20.12c-.77,3.87-1.59,8-2.39,12.06-4.74-.7-9.69-3-14.65-7.34A38.53,38.53,0,0,1,1636,855C1636.34,853.09,1636.66,851.42,1636.9,850.15Z" transform="translate(0)"/><path class="cls-67" d="M1658.05,777.8s-14.47-1.67-23.53,10-18.84,47.89,3.68,67.57,44.78-2.59,48.08-26.21S1690.87,777,1658.05,777.8Z" transform="translate(0)"/><path class="cls-67" d="M1693,828.85c-2.69,5.22-7.21,8.11-10.08,6.45s-3-7.22-.35-12.44,7.2-8.1,10.08-6.45S1695.63,823.63,1693,828.85Z" transform="translate(0)"/><path class="cls-33" d="M1659.67,773.93s-19.33,34.42-33.15,36-15.64,19.88-15.64,19.88,4.94-42.14,18.63-50.27S1659.67,773.93,1659.67,773.93Z" transform="translate(0)"/><path class="cls-62" d="M1531.87,1614.79c-17.93,3.26-29.87-7.21-36.08-15-4.55,8.88-6.78,22.13-3.42,29.42,3,6.43,11.58,6.24,18.37,6.5,7.19.26,12.74-3.72,16.31-10A60.34,60.34,0,0,0,1531.87,1614.79Z" transform="translate(0)"/><path class="cls-62" d="M1684.77,1612.25c-19.74,5-34.33,1.62-42.5-1.67-2.1,6-4.89,13.43-3.41,17.73,1.81,5.28,4.39,6.47,6.67,6.53,18,.47,66,1.12,79.8,1.3a2.24,2.24,0,0,0,1.74-3.69C1723.66,1628.39,1686.24,1613.15,1684.77,1612.25Z" transform="translate(0)"/><path class="cls-67" d="M1630.14,818.59c1.13,6.11-1.14,11.72-5.05,12.52s-8-3.5-9.12-9.62,1.13-11.71,5-12.52S1629,812.48,1630.14,818.59Z" transform="translate(0)"/><path class="cls-35" d="M1563.34,836s48.45,52,55.65,73-7,50.93-26.67,52.24S1529,868.94,1529,868.94Z" transform="translate(0)"/><path class="cls-29" d="M3047.9,1518.05s1.82,15.68,1.82,18.34v2.66l-1.3,2.71-.52,1.08,9.38,13.16s37.68.56,38.52.56-5.05-9.1-5.05-9.1-12.46-9.39-14.7-16,1.9-20.31,1.9-20.31Z" transform="translate(0)"/><path class="cls-29" d="M2866.3,1424.19s-13.42,8.32-15.5,10l-2.09,1.65-1.31,2.71-.52,1.07-16.14.84s-23.86-29.16-24.39-29.82,6.87,1,6.87,1,15.06,2,21.61-.3,19.8-15.39,19.8-15.39Z" transform="translate(0)"/><path class="cls-70" d="M2988.24,1277l-144.54,123.1,22.27,31.51s148.53-92.22,156.3-93.27,14.07,2.52,15.54,8.19,5.22,175.86,5.22,175.86h38.59l20.12-214.27Z" transform="translate(0)"/><path class="cls-29" d="M3196.47,1101.44c10.69-7,35.81-34,44.32-43.15.09-1.08.9-7.31,7.74-15.23,4.84-5.6,8.5-18.37,11.67-14.75s-4.7,13.76-1.1,13.83,21.48-20,24.35-16.74-15.28,21.14-12.06,21.2,18-18,22-13.39-19.31,19.67-17.13,22.16,16.66-7.37,19.93-3.64-20.43,12.52-18.54,12.56,15.57-.33,15.67,2.3c.12,3-34.59,7.61-38.84,12.76h0c-9.06,14.43-25.21,40.81-41.55,52.38-20,14.15-66.22,44.19-66.22,44.19l-23-29.66S3183.79,1109.75,3196.47,1101.44Z" transform="translate(0)"/><path class="cls-26" d="M3259.1,1048.52a14.36,14.36,0,0,1,1.4,5.58,13.88,13.88,0,0,1-4.51,11.22C3258,1061.49,3260.32,1057.23,3259.1,1048.52Z" transform="translate(0)"/><path class="cls-29" d="M2984.58,1069c-8.49-9.57-25.69-42.15-31.5-53.24.2-1.06,1-7.29-3.49-16.73-3.2-6.66-3.4-19.95-7.4-17.28s.93,14.51-2.56,13.63-15.49-24.94-19.12-22.52,9.22,24.4,6.09,23.61-12.61-22.09-17.75-18.68,13.5,24,10.74,25.87-14.15-11.47-18.28-8.72,16.44,17.43,14.6,17-14.94-4.4-15.72-1.89c-.89,2.85,31.39,16.39,34.15,22.48h0c5,16.3,13.66,46,26.41,61.42,15.6,18.9,52.36,60,52.36,60l29.92-22.62S2994.64,1080.33,2984.58,1069Z" transform="translate(0)"/><path class="cls-26" d="M2938,1001.53a14.33,14.33,0,0,0-2.81,5,13.93,13.93,0,0,0,1.42,12C2935.59,1014.33,2934.51,1009.62,2938,1001.53Z" transform="translate(0)"/><path class="cls-22" d="M3048.46,1136.54h0a21.87,21.87,0,0,1,19.65-9.65c22.95,1.56,69.49,5.24,73.9,9.65,5.89,5.89,23.53,44.26,6.73,98s-26,48.18-39.78,48.18-78.43-30.53-78.43-30.53Z" transform="translate(0)"/><path class="cls-25" d="M3008.82,1090.89l-27,35.2,33.5,49.83s-3.16,37-8,48.58-32.77,59-32.77,59,67.86,41.6,134.24,35.5c0,0,18.7-96.21,23.95-105.46s55.88-55,55.88-55l-24.58-39.71-42.43,23.54s-77.57-12.54-81.3-16.27S3008.82,1090.89,3008.82,1090.89Z" transform="translate(0)"/><path class="cls-71" d="M3096.36,1018.9s-26.19-13.86-35.16,9.1c0,0-23.53-2.38-19.46,22,0,0-23.67,11.91-8.69,42.58,0,0-6.58,28.85,27.17,30.67,0,0,5,10.22,20.45,7.84s19.33-6.44,19.33-6.44,27.31,8,35.57-16.67c0,0,18.77-4.48,6.16-28.57,0,0,16.39-31.23-12.46-40.61C3129.27,1038.79,3125.91,1006.86,3096.36,1018.9Z" transform="translate(0)"/><path class="cls-29" d="M3106.94,1086.56c-2.13,5.94-.6,11.92,3.41,13.36s9-2.21,11.12-8.15.6-11.92-3.41-13.36S3109.06,1080.62,3106.94,1086.56Z" transform="translate(0)"/><path class="cls-29" d="M3036.29,1072c-.29,6.3,2.92,11.57,7.18,11.77s8-4.74,8.25-11-2.92-11.57-7.17-11.77S3036.59,1065.68,3036.29,1072Z" transform="translate(0)"/><path class="cls-29" d="M3066.25,1113.72c0,.41-3.41,15-5.21,22.76a6.2,6.2,0,0,0,3.48,7.06c7.2,3.29,21.36,7.88,31.15-1a4.09,4.09,0,0,0,1.33-3.18l-1.2-34.9Z" transform="translate(0)"/><path class="cls-26" d="M3064.42,1121.9c7.62,3.85,17.21,3.92,28-2.38a45,45,0,0,0,3.85-2.54l-.43-12.51-29.55,9.24C3066.25,1113.92,3065.45,1117.44,3064.42,1121.9Z" transform="translate(0)"/><path class="cls-29" d="M3087.2,1033.13a37.51,37.51,0,0,1,20.48,16c7.58,12.55,11.76,48.82-15.3,64.69s-46.76-8.71-46.24-32S3057,1028.87,3087.2,1033.13Z" transform="translate(0)"/><path class="cls-72" d="M3043,1127.3c-12.45,9.42-25.5,57.7-30.43,70.31l-4,23.15,50.7-89.56S3045.73,1125.27,3043,1127.3Z" transform="translate(0)"/><path class="cls-72" d="M3104.6,1139.52s-1.52,59.49,3,79.94,16.21,27.59,16.21,27.59l5.76-23.79s-5.76-52.54-7.89-80.9C3121.31,1138.05,3104.6,1139.52,3104.6,1139.52Z" transform="translate(0)"/><path class="cls-16" d="M3041,1565.64c-5.76-.73,4.18-20.68,7.38-23.88l42.33,5.7s20.38,9.45,25.21,14.28c1.15,1.15,1.3,3.16-3.67,3.9C3096.31,1568,3053.8,1567.25,3041,1565.64Z" transform="translate(0)"/><path class="cls-16" d="M2832.88,1459.46c5,3,14-16.44,14.52-20.93l-34.18-26.92s-26.38-7.57-31.7-2.24C2776.69,1414.2,2821.59,1452.68,2832.88,1459.46Z" transform="translate(0)"/><path class="cls-18" d="M2097.94,1067.87s16.81-6.09,27.68,10.94,5,15.41,10.27,23.93,7.83,32.72,9.65,45.8c18.64,133.46-204.25,144.28-117.21-25.83,8.16-16,15.07-25.55,22.41-42.58S2089.13,1063.76,2097.94,1067.87Z" transform="translate(0)"/><path class="cls-13" d="M2050.26,1192.54l-22.48-7.85s-8.92,11.4-11.6,39.93,0,45.29,0,45.29h25.43Z" transform="translate(0)"/><path class="cls-13" d="M2095.29,1177.23c-7.62.79-64.35-4.6-67.51,7.46-17,64.84,6.37,154.36,12.34,160.34s103.46-13.48,103.46-13.48S2158.88,1170.68,2095.29,1177.23Z" transform="translate(0)"/><path class="cls-73" d="M2172.71,1110.77s-6.26-3-12-13.54c-3.65-6.77-14.51-15.44-10-16.85s11.45,10,12.75,6.77-11.64-28.06-7.55-29.33,14.83,22.83,16,19.9-11-24-5.16-25.79,12,25.92,15.15,25-1.42-22.11,3.25-23.55,4,26.15,5.68,25.35c.9-.43,5-13.79,7.57-12.79,2.87,1.13-4.86,28.57-1.43,34.62s30.9,81.23,21.51,90.62c-10.24,10.24-75.35,33.71-89,29.67s-21.43-17.5-18.16-25.78,67.66-26.89,68.69-29.48S2172.71,1110.77,2172.71,1110.77Z" transform="translate(0)"/><path class="cls-74" d="M2177.93,1087a14.7,14.7,0,0,1,5.77,1,15.62,15.62,0,0,1,9.11,8.82C2189.87,1093.39,2186.61,1089.53,2177.93,1087Z" transform="translate(0)"/><path class="cls-73" d="M2228.17,1541.08s12.59,51.37,22,59.43,40,23.49,32,25.15-67.29,3-65.67-6.85,3.33-16.19,3.33-16.19l-15.68-36.69Z" transform="translate(0)"/><path class="cls-52" d="M2286.12,1627.77c-14.45,1.44-56.67,3-69,1.38,0,0-2.31-.45-.69-10.34.4-2.41.8-4.62,1.18-6.57,11.16,2.93,35.45-3.3,45.07-4.58,10.46,5,22.24,12.48,26,13.1C2294.27,1621.67,2294.26,1627,2286.12,1627.77Z" transform="translate(0)"/><path class="cls-73" d="M2089.94,1584.15s-1.32,13-1.32,18.71,5.33,21.88,2.86,24.35-73.08,2.17-73.08-.16,12.48-9.37,29.44-14.22,22.72-23.62,18.31-34.41Z" transform="translate(0)"/><path class="cls-52" d="M2017.27,1627.21c0-2.17,11.57-8.82,26.57-13.4,16,5.4,38.17.94,46.49-.65,2.55,6.66,3.36,13,2.05,14.28C2089.91,1629.92,2017.27,1629.54,2017.27,1627.21Z" transform="translate(0)"/><path class="cls-16" d="M2166.58,1367l12.66,11.23s14.25,38.59,15.08,41.14c1.16,3.54,47.33,152.35,47.33,152.35l-32.17,11.57s-31.89-62.14-37.18-83.72-58.14-111.87-58.14-111.87Z" transform="translate(0)"/><path class="cls-16" d="M2110.64,1389.91l-15.42,197.22h-35.67s-12.77-147.6-8.37-199.42Z" transform="translate(0)"/><path class="cls-6" d="M2048.1,1191.27a275,275,0,0,1,48.45-7.38c13.34-.74,31.27,2.09,31.27,2.09s16.29,36.56,21.14,66.51,31.27,126,31.27,126-53.73,41.4-132.13,14.09Z" transform="translate(0)"/><path class="cls-73" d="M2109.17,1158.53s-.7,23.38,1.49,25.58,5.27,5.84,2,11.42-17.26,2-23.79-1.18a30.84,30.84,0,0,1-10.32-8.77l3.27-37Z" transform="translate(0)"/><path class="cls-74" d="M2099.85,1168.22a32.8,32.8,0,0,1-18.44-14.49l.45-5.19,27.31,10s-.17,5.7-.08,11.74A31.5,31.5,0,0,1,2099.85,1168.22Z" transform="translate(0)"/><path class="cls-73" d="M2077.05,1122.1s-.66-13.75-9.1-11.08-2,23.42,5,22.74S2077.05,1122.1,2077.05,1122.1Z" transform="translate(0)"/><path class="cls-73" d="M2103.59,1077.19s13.22-.29,20,10,14.09,39.64,2.94,59.9-25.4,15.27-31.28,13.21-17.47-6.61-23.34-25.55S2070.27,1073.23,2103.59,1077.19Z" transform="translate(0)"/><path class="cls-13" d="M2050.62,1190.65c6,13.6,20.85,42.88,20.17,75.18-.72,33.84-26.16,55.8-26.16,55.8v16.72s28.08-4.43,38.81-48.14-15.09-103.1-15.09-103.1-3.69-2.63-11-.59C2052.48,1187.88,2050.62,1190.65,2050.62,1190.65Z" transform="translate(0)"/><path class="cls-13" d="M2112.31,1183.77s21.1,113.57,48.47,120.93l-4.76-19.36s-28.2-91.89-28.2-99.36S2112.31,1183.77,2112.31,1183.77Z" transform="translate(0)"/><polygon class="cls-15" points="2169.4 1378.11 2087.52 1378.11 2087.52 1284.81 2169.4 1288.44 2169.4 1378.11"/><path class="cls-45" d="M2169.4,1281.17h-78.24a3.63,3.63,0,0,0-3.63,3.64h0a3.63,3.63,0,0,0,3.63,3.64h78.24l-.06,0C2163.93,1286.39,2164,1283.18,2169.4,1281.17Z" transform="translate(0)"/><path class="cls-45" d="M2167.17,1282.25h-73.31a2.55,2.55,0,0,0-2.56,2.56h0a2.56,2.56,0,0,0,2.56,2.56h73.3C2164.68,1285.78,2164.68,1283.83,2167.17,1282.25Z" transform="translate(0)"/><path class="cls-53" d="M2133.52,1282.77h-5.16a2,2,0,0,0-2,2v.18h7.17Z" transform="translate(0)"/><path class="cls-53" d="M2128.57,1282.78a6.32,6.32,0,0,1,4.11,2.33l12.23,15.16h7.18l-11.63-14.43c-1.37-1.69-3.79-3.07-5.42-3.07Z" transform="translate(0)"/><path class="cls-73" d="M2048.1,1191.27s6.17,6.19,12.78,29.65,10,78.4,15.7,84.13,43.16,35.53,49.92,34.5,21.87-18.64,26.57-18.64,4.11,4.25,1.76,6.6-5.21,5.07-3.82,6.46l1.4,1.4s20.92-5.51,24.44-3.45-3.37,6.9-3.37,10.42.86,3.46.44,7.34-1.4,7-3.23,8.81-25,8.52-47.57,5.43-50.21-13.94-70.62-39.2-16.32-104.62-15.86-112.53C2037.82,1192.15,2048.1,1191.27,2048.1,1191.27Z" transform="translate(0)"/></g><g id="flyingthings"><polygon class="cls-6" points="1789.42 524.47 1770.3 526.41 1763.78 495.99 1735.47 495.38 1726.87 473.41 1715.75 477.77 1727.25 507.15 1754.08 507.73 1760.86 539.37 1789.64 536.45 1789.42 524.47"/><path class="cls-15" d="M1983.57,492.29l10.72-18.12-8.84-19.1a2.89,2.89,0,0,1,3.25-4l20.55,4.6,15.44-14.31a2.89,2.89,0,0,1,4.85,1.85l2,21,18.38,10.25a2.9,2.9,0,0,1-.26,5.19l-19.33,8.35-4.07,20.65a2.89,2.89,0,0,1-5,1.36l-13.92-15.8-20.9,2.5A2.89,2.89,0,0,1,1983.57,492.29Z" transform="translate(0)"/><path class="cls-5" d="M2316.1,488.53s1.29-8.35,9.38-11.78c7.22-3.06,15.07,1.63,18.42,9.54,3.88,9.16,1.69,22.87-11.92,39.74-21.58-2-32.95-9.93-36.83-19.09-3.35-7.91-1.25-16.81,6-19.87C2309.2,483.64,2316.1,488.53,2316.1,488.53Z" transform="translate(0)"/><path class="cls-16" d="M1565,475.91a16.6,16.6,0,0,1,10.67-9.4,12.85,12.85,0,0,1,16.17,8.89c2.36,7.85-1.73,19.21-17.17,32.66-20.3-2.7-30-9.92-32.34-17.77a12.84,12.84,0,0,1,8.58-16.33A16.61,16.61,0,0,1,1565,475.91Z" transform="translate(0)"/><path class="cls-16" d="M1505.38,497.23a170,170,0,0,0,19.21-3.58c1.91-.47,5.36-.72,6.28-2.69a2.07,2.07,0,0,0-.65-2.76c-1.8-1.24-4.52.09-6.45.56-5.87,1.45-12.58,2.8-19.44,3.78a2.42,2.42,0,0,0-1.82,2.87,2.45,2.45,0,0,0,2.87,1.82Z" transform="translate(0)"/><path class="cls-16" d="M1607.07,488.25c2.82-.64,5.63-1.34,8.44-2s6-1,8.3-2.51a2.08,2.08,0,0,0-.88-3.89c-2.78-.3-5.79.94-8.49,1.6s-5.61,1.38-8.41,2.12c-3,.79-2,5.39,1,4.7Z" transform="translate(0)"/><path class="cls-16" d="M1540.26,527.7c2.09-6.77,5.94-9.64,8.67-12.71a2,2,0,0,0-2.21-3.14c-5.67,2.36-9.38,8.85-11,14.46-.87,3,3.68,4.35,4.59,1.39Z" transform="translate(0)"/><path class="cls-16" d="M1576.26,534.67a21,21,0,0,1-.65-8.78c.25-1.82,2.48-7.25-1-7.32-3.31-.06-3.75,5.45-4,7.79a24.88,24.88,0,0,0,.92,9.36c.87,3,5.57,1.95,4.72-1.05Z" transform="translate(0)"/><path class="cls-16" d="M1595.8,511.21l5.51,2.27c1.84.75,3.73,2,5.69,1.12a2.12,2.12,0,0,0,.88-2.8c-.7-1.84-3.46-2.36-5.14-3l-5.52-2.23a2.47,2.47,0,0,0-3,1.63,2.51,2.51,0,0,0,1.63,3Z" transform="translate(0)"/><path class="cls-16" d="M1541.53,463.36c-9.44-12.92-9.35-13-10.84-13.91a2.13,2.13,0,0,0-3.16,2.25c.42,1.77.38,1.47,10.37,15a2.51,2.51,0,0,0,3.5.13,2.55,2.55,0,0,0,.13-3.5Z" transform="translate(0)"/><path class="cls-16" d="M1567.13,457a36.89,36.89,0,0,0,.23-7.86c-.19-2.44-.15-6.21-2.73-7.32a1.81,1.81,0,0,0-1.83.42c-1.67,1.84-.48,4.94-.32,7.19a42.42,42.42,0,0,1-.14,7.39,2.4,2.4,0,0,0,4.79.18Z" transform="translate(0)"/><path class="cls-16" d="M1603.89,450.6c.16-1.19-1-2-2-2.16-2.13-.3-4.21,2.19-5.61,3.55a41.62,41.62,0,0,0-4.43,5.12,2.43,2.43,0,0,0,.79,3.32,2.47,2.47,0,0,0,3.32-.78C1601.3,453,1603.51,453.55,1603.89,450.6Z" transform="translate(0)"/><path class="cls-13" d="M1271.57,539.94l4-24.12h-11.11a4.41,4.41,0,0,1-4.4-4.41h0a4.4,4.4,0,0,1,4.4-4.4h12.82l3.59-21.64h-11.87a4.4,4.4,0,0,1-4.4-4.4h0a4.4,4.4,0,0,1,4.4-4.41h13.57l4.29-24.85a4.41,4.41,0,0,1,4.34-3.65h2.07a4.41,4.41,0,0,1,4.35,5.12l-3.88,23.38h19.67l4.29-24.85a4.41,4.41,0,0,1,4.34-3.65h2.26a4.41,4.41,0,0,1,4.35,5.12l-3.88,23.38h11.11a4.4,4.4,0,0,1,4.4,4.41h0a4.4,4.4,0,0,1-4.4,4.4h-12.82l-3.4,21.64h11.87a4.4,4.4,0,0,1,4.4,4.4h0a4.41,4.41,0,0,1-4.4,4.41H1318l-4.31,25.58a4.39,4.39,0,0,1-4.34,3.67h-2.42a4.4,4.4,0,0,1-4.34-5.13l4.05-24.12H1287l-4.31,25.58a4.39,4.39,0,0,1-4.34,3.67h-2.42A4.4,4.4,0,0,1,1271.57,539.94ZM1308.36,507l3.59-21.64h-19.68L1288.68,507Z" transform="translate(0)"/><path class="cls-75" d="M595.3,1025.88l-11.83-16.31-20.16.5a2.77,2.77,0,0,1-2.31-4.4l11.86-16.3-6.7-19a2.77,2.77,0,0,1,3.47-3.56L588.8,973l16-12.25a2.77,2.77,0,0,1,4.45,2.2v20.16l16.6,11.44a2.77,2.77,0,0,1-.72,4.92L606,1005.73l-5.75,19.32A2.77,2.77,0,0,1,595.3,1025.88Z" transform="translate(0)"/><path class="cls-15" d="M984,667.58l-88.72,3.58A19,19,0,0,1,875.53,653l-2-50a19,19,0,0,1,18.18-19.71l88.72-3.59a19,19,0,0,1,19.71,18.19l2,50A19,19,0,0,1,984,667.58Z" transform="translate(0)"/><polygon class="cls-15" points="996.89 611.09 1032.79 651.36 986.65 640.44 996.89 611.09"/><path class="cls-13" d="M912.17,620.36l11.35-.75s13.8-11.37,14.06-15.17-2.47-11.68-.3-12.79a7.44,7.44,0,0,1,10,2.73c2.33,3.53,1.17,16.87,2.55,17.69.86.51,7.4.27,12.17,0a8.44,8.44,0,0,1,7.71,4.12h0a4.48,4.48,0,0,1-.82,5.6l-2.43,2.24,2.12,2.55a4.5,4.5,0,0,1-.56,6.32l-1.93,1.62,1.44,1.49a4.49,4.49,0,0,1-.48,6.68L965.38,644l.29.48a4.49,4.49,0,0,1-1.19,6l-1.73,1.27-30.23,2a20.92,20.92,0,0,1-8.34-1.16l-10.75-1.06a2.35,2.35,0,0,1-2.11-2.22L910,622.82A2.35,2.35,0,0,1,912.17,620.36Z" transform="translate(0)"/><path class="cls-13" d="M2822.48,643.88c3.46,6.77,10.82,10,16.6,7.19s7.9-10.83,4.51-17.81-10.89-10.35-16.77-7.5a10.3,10.3,0,0,0-3.78,3.17l-8.87-20,34-5.31,15.17,34.29h0l.05.12c3.39,7,10.9,10.34,16.78,7.5s7.89-10.82,4.5-17.81-10.89-10.34-16.77-7.5a10.28,10.28,0,0,0-3.77,3.17l-16.25-36.73a2.67,2.67,0,0,0-2.77-1.7l-42.41,7.77c-1.41.26-2.09,1.94-1.4,3.48l21.12,47.73Z" transform="translate(0)"/><polygon class="cls-6" points="3070.68 768.36 3042.1 755.85 3035.61 775.58 3026.16 772.47 3036.07 742.34 3064.47 754.78 3071.72 731.44 3097.86 742.34 3108.6 719.38 3117.62 723.59 3102.84 755.19 3077.98 744.83 3070.68 768.36"/><path class="cls-75" d="M2169.33,560c-2,15.89,14.54,28.51,29.26,27.51,16.27-1.1,30.07-14.44,32.45-30.43,2.58-17.31-7.82-31.16-23.91-32.43-15.66-1.23-25.68,12.71-21.16,26.78,3.24,10.09,12.45,13.85,17.09,11.06,3.61-2.17,3.39-7.64-1-8.6a4.52,4.52,0,0,0-4.5,1.94c-3.83-1.52-7.47-8.5-5-16,3.16-9.62,15.32-10.17,22.88-5.68,9.61,5.71,11.12,18,7.6,27.8-3.71,10.29-13.81,18.4-24.81,19.18a23.05,23.05,0,0,1-24.42-21.09A2.25,2.25,0,0,0,2169.33,560Z" transform="translate(0)"/><path class="cls-25" d="M720.82,706.35c52.06,9.69,89.42,43.47,83.47,75.45-3,16-16.22,28.49-35.23,35.79l12.35,51.08-37.63-44.92a146.11,146.11,0,0,1-44.52-1.61c-52-9.69-89.42-43.47-83.46-75.44S668.77,696.66,720.82,706.35Z" transform="translate(0)"/><path class="cls-6" d="M744.66,776.61A33.41,33.41,0,1,1,729,732,33.41,33.41,0,0,1,744.66,776.61Z" transform="translate(0)"/><path class="cls-76" d="M696.15,759.18a17.86,17.86,0,1,0,32.2,15.47Z" transform="translate(0)"/><path class="cls-16" d="M2649.23,549.67s20.73.22,38.13-12.2,30.26-34.87,30.26-34.87l-29.1-14S2696,519.16,2649.23,549.67Z" transform="translate(0)"/><path class="cls-15" d="M2646.05,534.07l-.65,17.59,14.11,10.51a2.41,2.41,0,0,1-.78,4.26l-16.93,4.82-5.63,16.67a2.42,2.42,0,0,1-4.3.57l-9.81-14.61-17.6-.21a2.42,2.42,0,0,1-1.87-3.91l10.87-13.84-5.24-16.8a2.42,2.42,0,0,1,3.14-3l16.52,6.06L2642.24,532A2.41,2.41,0,0,1,2646.05,534.07Z" transform="translate(0)"/><path class="cls-5" d="M1829.1,415.66a18.87,18.87,0,1,1,20.13,17.51A18.86,18.86,0,0,1,1829.1,415.66Z" transform="translate(0)"/><path class="cls-5" d="M1861.09,468.93c-1.12-5.47-1.8-11.33-3.67-16.6-1.61-4.54-8.68-3.15-8.33,1.72.44,6,2.31,12,3.56,17.85.5,2.37,3.63,3.47,5.71,2.74,2.53-.89,3.22-3.33,2.73-5.71Z" transform="translate(0)"/><path class="cls-5" d="M1893.42,445.56c-6.25-3.68-11.7-8.25-17.47-12.61-4.51-3.41-9.36,2.45-5.66,6.5,5.33,5.81,12.32,10.36,19.06,14.33,2.14,1.26,5.11,0,6.15-2.07a4.68,4.68,0,0,0-2.08-6.15Z" transform="translate(0)"/><path class="cls-5" d="M1881.58,411.79a3.24,3.24,0,0,0-.82,4.35c2.11,3.84,7.48,3.65,11.29,3.52a40.74,40.74,0,0,0,11.72-2.23c5.56-1.9,2.54-10.52-3-8.62C1889.82,412.54,1885.69,408.49,1881.58,411.79Z" transform="translate(0)"/><path class="cls-5" d="M1875.57,375.11c-5.49,8-10,10.75-9.27,15.17a3.79,3.79,0,0,0,4.94,3.25c3-.67,4.56-3.8,6.33-6s3.36-4.21,4.87-6.46c1.37-2,1.57-4.66-.45-6.42-1.68-1.46-5-1.59-6.42.45Z" transform="translate(0)"/><path class="cls-5" d="M1854.18,373.72c-1.75-4.87-2.14-6.64-4.41-8.9-2-2-6.16-.72-6.44,2.18-.32,3.38.39,4.63,2.23,9.75a4.57,4.57,0,1,0,8.62-3Z" transform="translate(0)"/><path class="cls-5" d="M1831.08,385.5c-7.92-6-9.53-7.71-12.64-7.38-1.82.19-3.86,1.94-3.47,4,.74,3.8,3,4.83,10.23,10.14a4.59,4.59,0,0,0,6.32-.44,4.51,4.51,0,0,0-.44-6.31Z" transform="translate(0)"/><path class="cls-5" d="M1799.29,413.06c-3.12,1.66-1.87,7.05,1.51,7.49s4.49-.09,20.2-3c2.43-.45,4.42-2.22,4.24-4.88-.16-2.25-2.43-4.68-4.87-4.24C1804.05,411.42,1802.42,411.4,1799.29,413.06Z" transform="translate(0)"/><path class="cls-5" d="M1823.9,438.77c-8.61,8.33-9.87,6.86-13.27,12-1.56,2.33,1,6,3.72,5.55,3.47-.64,4.41-1.23,8.93-4.82,2.64-2.08,5.15-4.32,7.57-6.65,1.79-1.72,1.31-5-.45-6.49a4.7,4.7,0,0,0-6.5.45Z" transform="translate(0)"/><polygon class="cls-77" points="1175.02 553.43 1168.25 542.58 1155.32 544.2 1148.6 531.5 1135.35 537.48 1127.11 523.45 1114.24 527.45 1104.11 515.25 1108.72 511.4 1116.29 520.52 1129.88 516.3 1137.8 529.78 1151.26 523.7 1158.69 537.72 1171.31 536.14 1177.58 546.2 1185.66 543.42 1187.59 549.11 1175.02 553.43"/><polygon class="cls-6" points="2475 553.06 2460.44 549.69 2456.58 560.07 2442.09 557.25 2436.84 566.71 2425.69 565.99 2425.64 570.47 2440.55 571.43 2445.53 562.46 2460.6 565.4 2464.39 555.19 2477.59 558.24 2475 553.06"/></g></svg>