<svg xmlns="http://www.w3.org/2000/svg" viewBox="0 0 2975 1700"><defs><style>.cls-1{fill:#1faaad;}.cls-2{opacity:0.3;}.cls-3{fill:#92e7e8;}.cls-4{fill:#032624;}.cls-5{fill:#ffd2b3;}.cls-6{fill:#25ced1;}.cls-7{fill:#187a7a;}.cls-8{fill:#5b061b;}.cls-9{fill:#eaae86;}.cls-10{fill:#ea526f;}.cls-11{fill:#fff3f3;}.cls-12{fill:#f7a9c9;}.cls-13{fill:#516b6b;}.cls-14{fill:#084f4a;}.cls-15{fill:#63422c;}.cls-16{fill:#4f321d;}.cls-17{fill:#d875a2;}.cls-18{fill:#e291b6;}.cls-19{fill:#bf558a;}.cls-20{fill:#2c3a64;}.cls-21{fill:#ea8e50;}.cls-22{fill:#1e3d70;}.cls-23{fill:#ffb07b;}.cls-24{fill:#c0fffd;}.cls-25{fill:#96e2de;}.cls-26{fill:#233862;}</style></defs><g id="_Layer_" data-name="&lt;Layer&gt;"><rect class="cls-1" width="2975" height="1700"/></g><g id="Layer_2" data-name="Layer 2" class="cls-2"><path class="cls-3" d="M541.91,1503.26S44.48,1005.4,353.39,707.73,906.45,796.49,1075.3,768C1289,732,1381.46,189.76,1701,189.24c363.53-.58,630.36,214.32,488.23,726.12-104.83,377.48,615.73,68.36,509.9,595.24Z"/></g><g id="Layer_3" data-name="Layer 3"><path class="cls-4" d="M1626.84,1438.57c-67.62-10.89-118.67,12.8-167.76,6-39.15-5.43-59.55-45-112.16-56.25,12.51-7.38,27.09-16.61,34.06-23.32,13.54-13,33-39.12,0-40.15-23.73-.74-42.22,38.79-50.72,61a161.66,161.66,0,0,0-25.41,0c10.86-35,32-102.74,37.22-115.75,7-17.71-22.56-76.75-57.45-10.49-24.48,46.47-7.86,100.18,4.25,128.11a193.78,193.78,0,0,0-27.2,6.46c-28.83-65.79-120.56-253.34-220-230-108.4,25.4,123.84,151.49,182.41,245-47.85,22.18-89.89,49.12-162.57,29.45-193.14-52.29-208.46,65.36-208.46,65.36l863.11.29S1694.46,1449.45,1626.84,1438.57Z"/><path class="cls-5" d="M1392.05,1015.23c.88,8.3,12.64,8,25.92,6s9.85,1.5,28.53,1.14,24.91-6.74,25.72-9.44c.73-2.39-8.33-4.09-18-6.11l-3.67-.78c-10.93-2.4-18.39-10.28-27.9-17.06-9-6.42-15.09-35.85-15.09-35.85L1381,953s8.34,26.62,12.69,35.88c2.55,5.44-.17,12.43-1,17.67A32.49,32.49,0,0,0,1392.05,1015.23Z"/><path class="cls-6" d="M1418,1021.24c13.28-2,9.85,1.5,28.53,1.14s24.91-6.74,25.72-9.44c.73-2.39-8.33-4.09-18-6.11l-.11.18a52.36,52.36,0,0,1-27.23,5.82c-12.57-.84-25.53-5.65-34.21-6.3a32.49,32.49,0,0,0-.59,8.7C1392.93,1023.53,1404.69,1023.23,1418,1021.24Z"/><path class="cls-5" d="M1184.46,1013.91c.58,8.33,12.33,8.48,25.68,7s9.79,1.87,28.47,2.21,25.14-5.8,26.06-8.46c.81-2.37-8.17-4.4-17.79-6.79-1.21-.29-2.42-.61-3.63-.92-10.84-2.81-18-11-27.25-18.09-8.76-6.76-1.55-34.79-1.55-34.79l-20.15-9.52s-2.77,28.89-4.27,43.5c-.61,6-3.59,12-4.64,17.21A32.68,32.68,0,0,0,1184.46,1013.91Z"/><path class="cls-6" d="M1210.14,1020.9c13.35-1.49,9.79,1.87,28.47,2.21s25.14-5.8,26.06-8.46c.81-2.37-8.17-4.4-17.79-6.79l-.11.18a52.36,52.36,0,0,1-27.44,4.78c-12.53-1.31-25.3-6.6-33.94-7.57a32.68,32.68,0,0,0-.93,8.66C1185,1022.24,1196.79,1022.39,1210.14,1020.9Z"/><path class="cls-7" d="M1229.72,597.91s-5.58,27-11.17,164.06a441.77,441.77,0,0,0-17.89,56.4c-7.52,31-12.82,160.48-12.82,160.48s3,4.32,12.1,4.87a26.32,26.32,0,0,0,13.22-2.81s52.27-169.56,77.71-235.39,40.36-159.82,40.36-159.82Z"/><path class="cls-7" d="M1292.59,609.48s4.12,27.28,46.32,157.78a442.07,442.07,0,0,0,2.75,59.1c3.69,31.71,46.41,156.56,46.41,156.56s5.67,2,14.18-.28a44.78,44.78,0,0,0,14.12-6.84s-16.38-178.45-15.3-249-17.48-163.91-17.48-163.91Z"/><path class="cls-8" d="M1367.33,231.54c-6.62-4.21-14.75-5-20.48-5a9.74,9.74,0,0,1,4.47-1.85c-3.52-.7-11.59,2.41-11.59,2.41-48.27-21.43-59.64,50.66-59.44,67.55s-.66,36.28-26,50.15c-49.83,27.3-11.63,81.21-11.63,81.21-9,25.74,24.24,57.27,24.24,57.27-.57-13.67,62.18-100.75,96-120.62,8.56-11.34,12.43-31.93,12.72-33.56-2.2,16.38-5.47,25.46-8.24,30.53C1396.41,335.5,1384.86,242.69,1367.33,231.54Z"/><path class="cls-5" d="M1356.81,353.34c.17.08-15.82,8.39-27.86,5.1-11.32-3.09-18.72-17.77-18.56-17.8,4.79-.95,6.18-7.54,6.07-35.85l2.17.43,35.13,7,1.31.25s-.83,11.47-.86,22.27c0,2.29,0,4.54.11,6.65C1354.56,347.62,1355.26,352.61,1356.81,353.34Z"/><path class="cls-9" d="M1354.21,334.7c0,2.29,0,4.54.11,6.65-20.43-.82-32.21-24.19-36.66-34.44l36.1,5.27,1.31.25S1354.24,323.9,1354.21,334.7Z"/><path class="cls-8" d="M1314.87,301.25s-10.69-16.88-13.25-31.32c-1.84-10.31,3.41-48.51,41.81-43a52.16,52.16,0,0,1,21.63,8.18c8.34,5.63,20.37,17.78,6.91,51.12l-3.49,11.26Z"/><path class="cls-5" d="M1357.22,329.41s-47.84-6.32-43.44-36.05,1.18-50.57,31.91-47.79,35,15,35.92,25.28S1369.77,330.29,1357.22,329.41Z"/><path class="cls-8" d="M1367.53,248.08s-18.26,32.93-39.08,35.1-28.71-4.5-28.71-4.5a57.43,57.43,0,0,0,23.57-30.78S1360.15,230,1367.53,248.08Z"/><path class="cls-8" d="M1363.87,250.43s8.6,9.24,9.85,17.16,0,23.67,4.62,23.81c0,0,13.37-22.23,4.31-37.29C1373,238.15,1363.87,250.43,1363.87,250.43Z"/><path class="cls-8" d="M1681.54,654.34c-10-21.26-37.94-38.85-61.44-38.86a69.84,69.84,0,0,0-44.52,15.57,11.72,11.72,0,0,1-18.83-6.66l-20.58-95.59A25.82,25.82,0,0,0,1505.5,509l-332.91,71.65a25.23,25.23,0,0,0-19.35,30l71.57,332.55a26.19,26.19,0,0,0,17.67,19.44l-4.37,1.24H1251l.1,0a26.4,26.4,0,0,0,4.79-.57l7.24-1.56h0l85.45-18.39a16.13,16.13,0,0,0,8.8-26.34,69.23,69.23,0,1,1,116-18.35,11,11,0,0,0,3.24,13l-5,2.43h11.55a11.14,11.14,0,0,0,2.66-.25l102-22a25.82,25.82,0,0,0,19.82-30.68l-20.45-95a12.1,12.1,0,0,1,14.84-14.26,68.82,68.82,0,0,0,31.73.6C1676.51,743.28,1701.47,696.55,1681.54,654.34Z"/><path class="cls-10" d="M1608.34,615.48a69.84,69.84,0,0,0-44.52,15.57,11.72,11.72,0,0,1-18.83-6.66l-20.57-95.59A25.82,25.82,0,0,0,1493.75,509l-332.91,71.65a25.22,25.22,0,0,0-19.35,30l71.57,332.55a26.19,26.19,0,0,0,31.11,20.09l92.69-20a16.13,16.13,0,0,0,8.8-26.34,69.23,69.23,0,1,1,116-18.35,11.05,11.05,0,0,0,12.48,15.15l102-22a25.82,25.82,0,0,0,19.81-30.68l-20.44-95a12.09,12.09,0,0,1,14.83-14.26,68.86,68.86,0,0,0,31.74.6c42.69-9.18,67.64-55.91,47.71-98.12C1659.74,633.08,1631.85,615.49,1608.34,615.48Z"/><path class="cls-5" d="M1486.53,489.06s20.77,3.4,26.21,16.9-2.16,22.65-5.08,22.62-8.53-2.19-11.15-9.2S1486.53,489.06,1486.53,489.06Z"/><path class="cls-5" d="M1200.66,549.31s23.31,0,31.7,13.75,1.73,25.15-1.47,25.64-9.72-.86-13.85-8S1200.66,549.31,1200.66,549.31Z"/><path class="cls-11" d="M1487.11,504.73c-2.06-.44-11.1-1.5-22.59-3.31-21.17-3.32-50.67-9.17-60.57-18.3-2.68-2.48-8.93-16.12-15.42-31.76-6.56,34.62-6.93,61.18-5.19,81.39l-143,30.79c12.26-24.79,31.25-55.54,27.69-80.42-1.32-9.22-6.38-21.88-8.27-36.1-.15-1.22-.29-2.45-.4-3.69-20.06,16.52-43.23,34.74-43.79,38.38-.92,6.11,14.7,73.73,14.7,73.73-3.88,8.93-20.73,7-20.73,7-15.78-11.27-39-75.15-37.14-89.3s59.42-94.8,73.35-114.07c13.76-19.05,64-18.57,65.21-18.56h0c40,24,43.55,4.05,43.55,4.05s36,6.85,42.24,17.5,33.37,91.4,35.29,94.24c4,5.95,69.69,29.74,70.87,36.63S1493,506,1487.11,504.73Z"/><path class="cls-12" d="M1290.17,552.86l-49.87,10.68c12.42-24.72,28.74-55.52,25.17-80.25-1.33-9.23-4.33-20.15-5.77-34.44-.14-1.37-.38-5.52-.38-5.52s35.32,27.8,35.94,57.88C1295.59,516.82,1292.86,537.23,1290.17,552.86Z"/><path class="cls-12" d="M1465.84,501.6c-21.42-3.32-51.29-9.17-61.31-18.3-2.71-2.49-9-16.14-15.61-31.8,0,0-2.3-25.17,4.28-24.23s16.26,45.58,23.17,48.4C1422.55,478.2,1456.73,491.32,1465.84,501.6Z"/><g id="man"><path class="cls-13" d="M2521.1,1460.52c-3,10.18-17,17-18.84,29.4a27,27,0,0,1-6.06,14h-43.4c.44-2.39,2.34-5,8-6.19,12.06-2.64,16.6-17.25,15.86-30.82a175.62,175.62,0,0,1,.11-17.78c.38-7.77,1-13.87,1-13.87l25.62-6,2.69,3.46,2.58,3.33S2524.11,1450.35,2521.1,1460.52Z"/><path class="cls-13" d="M2319,1503.94h-87.81c2-2.33,5.36-4.58,11.07-5.51,13.51-2.19,36.91-10,42.13-27.31.17-.55.32-1.12.45-1.7,4.14-18.46,34.29,5.66,34.29,5.66s.09.74.23,2C2319.89,1482.27,2321.06,1496.37,2319,1503.94Z"/><path class="cls-14" d="M2245.85,1014.77s4.57,57.12,10,125.78c7.31,93.27,16.1,207.84,17,229.54,1.51,37.69,7.54,98,7.54,98s14.31,14.32,43,8.29c0,0,25.52-86.06,32.82-177.11.11-1.5.22-3,.34-4.5,6.78-92.7,17.32-287.88,17.32-287.88Z"/><path class="cls-4" d="M2245.85,1014.77s4.57,57.12,10,125.78l100.29,158.69c.11-1.5.22-3,.34-4.5,6.78-92.7,17.32-287.88,17.32-287.88Z"/><path class="cls-14" d="M2266.75,1021.55s82.52,206.87,136.78,304.08S2474.75,1450,2474.75,1450s31.09-12.44,33.91-20.92c0,0-20.75-187.68-57.08-233.43-20.54-25.85-44.66-103.43-45.79-130.56s-7.34-80.82-7.34-80.82Z"/><path class="cls-15" d="M2309.08,702.23c-3.67-21.66-3.79-34.5-3.79-34.5L2347.16,634c-1.55,46.39,28.18,68.71,28.18,68.71s-55.8,27.46-88.05,17.29A77.25,77.25,0,0,1,2309.08,702.23Z"/><path class="cls-16" d="M2295.43,667s53.27,8.85,58.27-24.4,15.24-54.51-18.56-61.57-42.32,4.64-46.69,15.34S2281.71,663.81,2295.43,667Z"/><path class="cls-17" d="M2108.36,735.52l-11.34-7s-14.14-20.88-38.29-7.91c0,0-9.56,6.1-3.15,11.21s4.7,2.22,13.59,9.62,20.4,10,27.83,6l9.52-.9Z"/><path class="cls-18" d="M2094.9,737.71c2.92-9.14,4.31-10,4.31-10s91.7,10.84,100.35,11.48,128.71-24.1,128.71-24.1L2385,784s-167.15,6.3-189,4.25c-36.15-3.38-101.71-37-101.71-37A26.67,26.67,0,0,1,2094.9,737.71Z"/><path class="cls-12" d="M2404.74,994.82c.16,3.55-7.16,7.45-10.34,8.88-23.94,10.73-46.23,18.19-71.42,20.61-29.88,3.07-65.19-3.65-77.3-3.49a5.18,5.18,0,0,1-3.39-1.29c-.81-.65-1.46-37.15-.81-83.16,0-1.78,0-3.73.16-5.5v-.64c.05-4.79.12-9.66.23-14.58.3-13.45.8-27.26,1.39-41,.87-20.22,2.07-40.1,3.74-57.72,1.74-18.39,3.94-34.32,6.75-45.62,6.46-26,21.32-43.12,34.88-55.72l11.14-9.84a52.81,52.81,0,0,0,34.72-4.2c12.76-6.3,26.65-13.08,28.9-11.47,17.22,12.87,28.81,42.08,34.75,79.21a409.18,409.18,0,0,1,4.67,65.5q0,13.38-.82,27.11c-2.88,49,.07,91.54,1.76,116.25C2404.24,985.28,2404.63,990.93,2404.74,994.82Z"/><path class="cls-4" d="M2121.58,541.53,1784.74,488a26.26,26.26,0,0,0-30.06,21.81l-14.91,93.89c-.69,4.35.42,16.57.42,16.57l12.14,1.81a16.35,16.35,0,0,0,2.1.31h0a16.12,16.12,0,0,0,6.78-.92,69.42,69.42,0,1,1-24.83,115.08,10.92,10.92,0,0,0-6.57-3.11h0l-12.71-1.9-15.82,114.52a25.9,25.9,0,0,0,21.52,29.64L1819,891a12.13,12.13,0,0,1,8,19,69.24,69.24,0,0,0-12,29.45c-6.87,43.24,27.78,83.49,74.47,80.14,23.51-1.68,50.06-21.4,58.58-43.37a70,70,0,0,0,1.56-47.26,11.75,11.75,0,0,1,13-15.2l96.82,15.38a25.89,25.89,0,0,0,29.63-21.5l53.55-337.22A25.28,25.28,0,0,0,2121.58,541.53Z"/><path class="cls-19" d="M2364.62,768.31s-25.81,120.5-122.75,147.34c.3-13.45.8-27.26,1.39-41,.87-20.22,2.07-40.1,3.74-57.72a32.64,32.64,0,0,1,4.84-2.07C2284.73,804,2364.62,768.31,2364.62,768.31Z"/><path class="cls-7" d="M1935.52,974.39a70,70,0,0,0,1.57-47.26,11.75,11.75,0,0,1,13.05-15.2L2047,927.31a25.88,25.88,0,0,0,29.62-21.5l53.56-337.22a25.29,25.29,0,0,0-21-28.94l-336.85-53.5a26.26,26.26,0,0,0-30,21.81l-14.91,93.89a16.17,16.17,0,0,0,21.44,17.77,69.41,69.41,0,1,1-24.84,115.08,11.07,11.07,0,0,0-18.68,6.17l-16.41,103.34a25.9,25.9,0,0,0,21.51,29.64l96.23,15.28a12.13,12.13,0,0,1,8,19,68.93,68.93,0,0,0-12,29.45c-6.87,43.24,27.78,83.49,74.47,80.14C1900.46,1016.08,1927,996.36,1935.52,974.39Z"/><path class="cls-15" d="M2108.75,813.2l-13.85-2.29s-15.79-22.84-43.31-10c0,0-10.91,6.11-3.69,11.82s5.29,2.57,15.29,10.83,23,11.56,31.46,7.52l10.8-.56Z"/><path class="cls-18" d="M2098.16,820.24c.45-10.19,5.88-11.28,5.88-11.28S2209,802,2218,800.27s92.61-71,92.61-71,32.31-29,54.95-19.24c19.68,8.52,25.84,25.32,26.83,40.77a44.9,44.9,0,0,1-25.93,43.43c-37.52,17.53-112.57,51.94-129.66,54.9-38,6.61-135.82-14.56-135.82-14.56A32.15,32.15,0,0,1,2098.16,820.24Z"/><path class="cls-20" d="M2288.45,596.33s-21.62-16-7.52-40.94c0,0,17,5.64,41.16,0s45.78,2.35,48.6,10.8c0,0,9.4,3.77,10.34,17.86s-27.33,58.51-27.33,58.51-6-7.52-4.4-12.69,6.82-16.68.47-16.68-8.45,9.4-11,5.64,2.12-19.5-5.4-22.09S2296.91,601.08,2288.45,596.33Z"/></g><path class="cls-12" d="M1553.67,1491.94l-95.22-432.33h26.21a11.33,11.33,0,0,0,11.3-11.3v-14.6a11.32,11.32,0,0,0-11.3-11.29H1152.17a11.32,11.32,0,0,0-11.29,11.29v14.6a11.32,11.32,0,0,0,11.29,11.3h33.75l-95.22,432.33a10.79,10.79,0,1,0,21.07,4.67l96.25-437h228.33l96.25,437a10.82,10.82,0,0,0,12.86,8.23h0A10.85,10.85,0,0,0,1553.67,1491.94Z"/><path class="cls-12" d="M2185.11,1227.18c-35.25-33.83-162.12,179.65-162.12,179.65S2220.35,1261,2185.11,1227.18Z"/><path class="cls-12" d="M2180.88,1325.87c-31.2-12.48-130.91,92.64-153.37,116.91a498.53,498.53,0,0,0-56.69-4.13c-157.89-2.82-229.51,68.69-229.51,68.69l440.45,1.5s-39-49.54-149.7-65.43c27.05-12.77,107-50,136.13-57.13C2203.44,1377.61,2216.12,1340,2180.88,1325.87Z"/><path class="cls-8" d="M2056.65,1111.61h-95.07a16.16,16.16,0,0,0-14.18,24c5.74,10.4-14.47,100.49-57.05,102.84a69.43,69.43,0,0,1-60.5-109.31,11.07,11.07,0,0,0-9-17.48H1716.18a25.89,25.89,0,0,0-25.89,25.89s-9.49,112.31-17.55,108.28a69,69,0,0,0-27.37-7.18h-.09c-1.17-.06-2.34-.09-3.53-.09s-18.41-.3-18.41-.3L1620.73,1377l15,.16c14.22-.43,26.57-1.76,37.55-7.35a11.75,11.75,0,0,1,17,10.5v98a25.88,25.88,0,0,0,25.88,25.88h341.44a25.29,25.29,0,0,0,25.29-25.29V1137.86A26.25,26.25,0,0,0,2056.65,1111.61Z"/><path class="cls-10" d="M1607.9,1375.37a70,70,0,0,0,46.92-5.87,11.76,11.76,0,0,1,17.06,10.51v98a25.89,25.89,0,0,0,25.88,25.89H2039.2a25.29,25.29,0,0,0,25.29-25.29V1137.57a26.26,26.26,0,0,0-26.25-26.26h-95.07a16.17,16.17,0,0,0-14.18,24,69.42,69.42,0,1,1-117.55-6.47,11.08,11.08,0,0,0-9-17.49H1697.77a25.9,25.9,0,0,0-25.89,25.9v97.43a12.13,12.13,0,0,1-17.55,10.85,69.15,69.15,0,0,0-31-7.29c-43.78,0-78.09,40.54-67.46,86.13C1561.23,1347.28,1584.86,1370.41,1607.9,1375.37Z"/><path class="cls-12" d="M619.29,1505.84l61.37.45s-2.14-14.85-43.45-18.68h0c-16-44.48-63.06-164.15-103.91-158.5-40.34,5.59,55.19,115.38,94.06,158.07a98,98,0,0,0-15.36,1.21c-9.36-18.64-27.92-45-57.72-43.79-31.7,1.28,11.49,30.24,41.23,48-15.06,5.4-23.2,12.88-23.2,12.88l46.29.34.84.45Z"/><path class="cls-21" d="M838.55,1010l9.08,7.37s24.83-8.91,30.44,20.61c0,0,1.49,12.58-6.48,12.6s-4.68-1.37-16-1-20.63-5.62-22.29-14.78L828,1027Z"/><path class="cls-22" d="M837.52,1025.78c7.24-7.56,6.66-13.15,6.66-13.15S760.3,944,751.79,938.36c-5.8-3.82-67.57-58.58-96.45-92C641,829.83,623.27,836.25,603,842.08l-16.71,4.79c-20.19,5.8-25.44,34-8.88,47.75,46.65,38.63,124.25,82.09,138.76,91.22,36.05,22.68,106.6,49.62,106.6,49.62A44.67,44.67,0,0,0,837.52,1025.78Z"/><path class="cls-8" d="M935.69,1447s20.36,15.25,51.55,7.2c0,0,25.15-5.74,30.66,6.81,0,0-38.57,19.59-48.33,25-7.35,4-15,10.41-20.46,15.34a10.11,10.11,0,0,1-14.64-1.13c-1.7-2.08-3.64-4.57-5.77-7.45-6-8.06-19.8-34.09-19.8-34.09Z"/><path class="cls-12" d="M945.2,1440s-12.4,28.58-41,23.33c0,0-58.39-48.22-98.44-98.31-13-16.27-24.08-32.74-30.59-47.81-26.56-61.49-98.24-153.2-143.82-199.68l114-41.25s36.52,73.47,85.12,163.72C865.51,1305,906.79,1378.73,945.2,1440Z"/><path class="cls-10" d="M830.49,1240l-24.74,125c-13-16.27-24.08-32.74-30.59-47.81-26.56-61.49-98.24-153.2-143.82-199.68l114-41.25S781.89,1149.72,830.49,1240Z"/><path class="cls-8" d="M737,1463.23s-1.24,22.8,26.41,25.85c0,0,15.8.08,15.84,14.59l-80.35.26s-2.34-5.86-2.9-18.4c-.44-9.63,9.33-34.81,9.33-34.81Z"/><path class="cls-12" d="M708,1076.25s50.8,55.82,83,156.38c17.55,54.71-32.15,192.28-41.84,240.07,0,0-33.34,2.83-56.14-6,0,0-1.73-98.72,11.6-174.81,7.46-42.58-66.89-91.07-99.37-168-22.1-52.34,4.78-51.45,37.83-52.71Z"/><path class="cls-23" d="M649.33,827.22c-28.27,16-86.12,1.24-86.12,1.24S586.7,801.6,576,758.34l22.19,11.27,23.83,12.1a197.72,197.72,0,0,1,2.61,21.37c.28,3.53.52,7.48.69,11.79A74.23,74.23,0,0,1,649.33,827.22Z"/><path class="cls-24" d="M753,1073.37c0,5-5.72,7.34-6.94,7.58-11.39,2.09-43.22,14.47-71.9,17.31-24.14,2.53-46.55.12-71.18-4.82-3.26-.66-10.92-2.72-11.46-5.84-.68-3.42-95-192.26-21.67-273.38,1.72-1.9,16.19,1.53,29.42,4.67a54.38,54.38,0,0,0,33.45-2.73l12.41,6.53c15.24,8.49,44.08,38.66,47.45,62.34,1.72,12,8.6,21,10.6,31.55q1.11,5.88,2.26,11.47,2.25,11,4.64,20.9c4.32,17.91,8.87,33.32,13.34,46.64,4.75,14.14,9.42,25.9,13.58,35.74,5.41,12.76,10,22.29,12.83,29.6C751.81,1066.07,753,1070.1,753,1073.37Z"/><path class="cls-25" d="M749.79,1060.93C616.66,998.2,570.56,877.77,570.56,877.77s108.16,39.9,134.84,50.28q2.25,11,4.64,20.9c4.32,17.91,8.87,33.32,13.34,46.64,4.75,14.14,9.42,25.9,13.58,35.74C742.37,1044.09,746.94,1053.62,749.79,1060.93Z"/><path class="cls-4" d="M1125.83,927.53l-28.52-90.42a16.16,16.16,0,0,0-19.79-10.7h0c-.42.12-.84.27-1.25.42l-10,3.34s-15.66,16.12-26.89,19.37c-34.54,10-67.32-8.41-79.92-42.08-14-37.46,2.24-78.59,39.89-90.46,12.88-4.06,38.23,3.51,38.23,3.51l10.18-3.38a11,11,0,0,0,7.35-13.91L1023.7,603.7a25.82,25.82,0,0,0-32.4-16.87l-92.67,29.23a12.09,12.09,0,0,1-15.58-13.44A69,69,0,0,0,880.68,571c-13.13-41.65-62-62.13-102.15-38.34-20.23,12-35.14,41.39-32.95,64.79a69.76,69.76,0,0,0,19.66,42.87,11.72,11.72,0,0,1-4.88,19.37l-93.25,29.41a25.83,25.83,0,0,0-16.86,32.39l102.43,324.77a25.22,25.22,0,0,0,31.64,16.46l324.41-102.31A26.18,26.18,0,0,0,1125.83,927.53Z"/><path class="cls-7" d="M735.71,600.71a69.76,69.76,0,0,0,19.66,42.87A11.72,11.72,0,0,1,750.49,663l-93.25,29.41a25.81,25.81,0,0,0-16.85,32.39l102.42,324.77A25.22,25.22,0,0,0,774.45,1066l324.41-102.31a26.18,26.18,0,0,0,17.1-32.85l-28.52-90.42a16.12,16.12,0,0,0-27-6.3,69.24,69.24,0,1,1-29.1-113.75,11.05,11.05,0,0,0,13.92-13.84L1013.83,607a25.83,25.83,0,0,0-32.4-16.86l-92.67,29.23a12.09,12.09,0,0,1-15.58-13.44,69,69,0,0,0-2.37-31.66c-13.13-41.64-62-62.12-102.15-38.34C748.43,547.89,733.52,577.31,735.71,600.71Z"/><path class="cls-23" d="M827.68,1024.58l11.5,4.22s23-16.29,37.38,10.2c0,0,5.19,11.57-3,14.08s-5.23.15-16.77,4-22.91,1.07-27.27-7.17l-7.82-5.74Z"/><path class="cls-24" d="M837.15,1040.85c4.25-11.1,6.19-16.13,6.19-16.13s-86.92-70.85-95.78-76.93c-6-4.14-66.12-49-95.42-84.06a61.3,61.3,0,0,0-59.6-20.65l-18.25,3.83c-22,4.62-29.19,32.51-12.1,47.16,48.14,41.27,129.33,89.13,144.47,99.09,37.58,24.71,120.71,59.34,120.71,59.34S833.81,1049.56,837.15,1040.85Z"/><path class="cls-21" d="M624.66,803.08c-27.79,1.56-45.86-21.39-45.86-21.39s12.56-7,19.42-12.08l23.83,12.1A197.72,197.72,0,0,1,624.66,803.08Z"/><path class="cls-23" d="M636.51,774.54s-42.12,30.22-60.53,3.71-36.26-40.47-10.15-60.89,38.42-14,46.72-6.61S647,766,636.51,774.54Z"/><path class="cls-26" d="M617,686.8a67.71,67.71,0,0,0-4.91-17.36s-2.64,10.95-22.65,9.44-51.71,2-62.28,24.76c-.67,1.45-1.27,3-1.81,4.47-1.91-5.05-2.37-12.62-2.37-12.62-3.8,9.81,0,22.09,0,22.09h0c-.06.35-.1.71-.16,1.07-4.41,3.73-8.12,15.34-8.12,15.34,1.33-3.24,4.58-5.35,7.48-6.65-.09,17.74,7.1,35.08,19.73,40.24,18.47,7.55,18.32,1.79,36.89,14.11,0,0,5-6.18,1.58-10.33s-16.23-10.19-9.06-16.23,9.82.75,12.46-3.4-10.57-16.23,6.42-27.56S618.51,697,617,686.8Z"/><path class="cls-7" d="M1701.06,1504.09s-21.3-31.48-54.62-28.94c-10.13.77-26.59,3.24-45.71,5.87-14.42-50.32-54.16-169.92-107.77-176.66-54.74-6.87,52.39,126.14,96.2,178.22-8,1.05-16.29,2.08-24.66,3-23.2-24.77-63.62-61.46-97.37-58.64s29.51,37.81,75.24,60.69c-28.06,2.1-54.66,1.87-70.91-4.41-39.81-15.39-76.4,20.88-76.4,20.88Z"/><rect class="cls-4" x="200" y="1503.93" width="2574.99" height="6.83" rx="2.92"/></g></svg>