<?xml version="1.0" encoding="UTF-8" standalone="no"?>
<svg
   xmlns:dc="http://purl.org/dc/elements/1.1/"
   xmlns:cc="http://creativecommons.org/ns#"
   xmlns:rdf="http://www.w3.org/1999/02/22-rdf-syntax-ns#"
   xmlns:svg="http://www.w3.org/2000/svg"
   xmlns="http://www.w3.org/2000/svg"
   xmlns:sodipodi="http://sodipodi.sourceforge.net/DTD/sodipodi-0.dtd"
   xmlns:inkscape="http://www.inkscape.org/namespaces/inkscape"
   viewBox="0 0 3161 2000"
   version="1.1"
   id="svg428"
   sodipodi:docname="communication.svg"
   inkscape:version="1.0.1 (0767f8302a, 2020-10-17)">
  <metadata
     id="metadata432">
    <rdf:RDF>
      <cc:Work
         rdf:about="">
        <dc:format>image/svg+xml</dc:format>
        <dc:type
           rdf:resource="http://purl.org/dc/dcmitype/StillImage" />
      </cc:Work>
    </rdf:RDF>
  </metadata>
  <sodipodi:namedview
     pagecolor="#ffffff"
     bordercolor="#666666"
     borderopacity="1"
     objecttolerance="10"
     gridtolerance="10"
     guidetolerance="10"
     inkscape:pageopacity="0"
     inkscape:pageshadow="2"
     inkscape:window-width="1858"
     inkscape:window-height="1016"
     id="namedview430"
     showgrid="false"
     inkscape:zoom="0.38975008"
     inkscape:cx="1580.5"
     inkscape:cy="1000"
     inkscape:window-x="62"
     inkscape:window-y="27"
     inkscape:window-maximized="1"
     inkscape:current-layer="svg428" />
  <defs
     id="defs4">
    <style
       id="style2">.cls-1{isolation:isolate;}.cls-2{fill:#92e7e8;}.cls-25,.cls-3{fill:#032624;}.cls-3{opacity:0.1;}.cls-4{fill:#187a7a;}.cls-5{fill:#57726a;}.cls-6{fill:#25ced1;}.cls-7{fill:#1faaad;}.cls-8{fill:#516b6b;}.cls-9{fill:#ea526f;}.cls-10{fill:#f3fcff;}.cls-11{fill:#fff;}.cls-12,.cls-22{fill:#daeef7;}.cls-12,.cls-21,.cls-22{opacity:0.3;}.cls-13,.cls-15,.cls-16{fill:#3cb4c5;}.cls-13{opacity:0.2;}.cls-14{fill:#ffbdce;}.cls-16{opacity:0.5;}.cls-16,.cls-21,.cls-22{mix-blend-mode:multiply;}.cls-17{fill:#dd83ac;}.cls-18{fill:#ffc2c2;}.cls-19{fill:#ffabab;}.cls-20{fill:#64d8d5;}.cls-21{fill:#3c8f7c;}.cls-23{fill:#0e2e35;}.cls-24{fill:#ffbcb3;}.cls-26{fill:#063f3b;}.cls-27{fill:#ff7898;}.cls-28{fill:#e08f86;}.cls-29{fill:#13375b;}.cls-30{fill:#662014;}.cls-31{fill:#49150e;}.cls-32{fill:#246270;}.cls-33{fill:#144959;}.cls-34{fill:#47140e;}.cls-35{fill:#184655;}.cls-36{fill:#fff3f3;}.cls-37{fill:#f9bbdc;}.cls-38{fill:#f79c8d;}.cls-39{fill:#5b061b;}.cls-40{fill:#f7a491;}.cls-41{fill:#096861;}.cls-42{fill:#f47458;}.cls-43{fill:#6db1b5;}</style>
  </defs>
  <rect
     class="cls-2"
     width="3161"
     height="2000"
     id="rect6"
     x="0"
     y="0"
     style="isolation:isolate" />
  <g
     id="Layer_7"
     data-name="Layer 7"
     style="isolation:isolate">
    <path
       class="cls-3"
       d="m 1041,126.33 c 447.17,-25.95 916,109.21 847.09,305.13 -68.91,195.92 368.44,-69.59 543,1.05 124.26,50.29 74.59,203.39 134.7,265.08 137.85,141.41 278.81,-36.67 454.21,70.2 175.4,106.87 -183.73,1104.3 -367,1109.87 L 562.82,1865 l -150,-13.48 c 0,0 -414.92,-226.93 -118.11,-436.23 C 495.4,1273.76 351,1171 329.17,1106.2 304.11,1031.81 245.63,901.9 500.41,806.55 755.19,711.2 689.41,503.76 683.14,460.8 676.87,417.84 593.88,152.27 1041,126.33 Z"
       id="path9" />
  </g>
  <g
     id="Layer_3"
     data-name="Layer 3"
     style="isolation:isolate">
    <path
       class="cls-4"
       d="m 533,1423.68 c -48.08,-71.67 -59.72,-159.89 -61,-221.28 -1.41,-66.64 8.72,-116.94 8.82,-117.44 l -3.33,-1.07 c -0.1,0.5 -10.32,51.17 -8.91,118.25 1.3,62 13.07,151.11 61.75,223.68 z"
       id="path12" />
    <path
       class="cls-4"
       d="m 491.55,1072.38 c -0.58,15.11 -6.59,28 -15.63,36.08 -8.33,-10.21 -13.3,-24.42 -12.72,-39.54 0.58,-15.12 6.59,-28 15.63,-36.07 8.33,10.2 13.3,24.42 12.72,39.53 z"
       id="path14" />
    <path
       class="cls-4"
       d="m 462.06,1108.27 c 8.18,12.77 11.1,27.53 9.09,40.51 -11.91,-2.48 -23.65,-10.6 -31.83,-23.36 -8.18,-12.76 -11.09,-27.53 -9.08,-40.51 11.91,2.48 23.65,10.6 31.82,23.36 z"
       id="path16" />
    <path
       class="cls-4"
       d="m 446.12,1149.84 a 56.6,56.6 0 0 1 24.41,32.71 c -11.26,3.76 -24.68,2.23 -36.95,-5.39 a 56.54,56.54 0 0 1 -24.41,-32.71 c 11.26,-3.75 24.68,-2.22 36.95,5.39 z"
       id="path18" />
    <ellipse
       class="cls-4"
       cx="447.23999"
       cy="1220.3199"
       rx="14.86"
       ry="28.709999"
       transform="rotate(-55.4,447.16236,1220.2401)"
       id="ellipse20" />
    <path
       class="cls-4"
       d="m 490.29,1137.7 a 37.61,37.61 0 0 1 32.73,-3.14 42.42,42.42 0 0 1 -19.55,28.21 37.61,37.61 0 0 1 -32.73,3.14 42.42,42.42 0 0 1 19.55,-28.21 z"
       id="path22" />
    <path
       class="cls-4"
       d="m 490.52,1177.12 a 37.6,37.6 0 0 1 32.73,-3.14 42.38,42.38 0 0 1 -19.55,28.2 37.59,37.59 0 0 1 -32.74,3.15 42.47,42.47 0 0 1 19.56,-28.21 z"
       id="path24" />
    <path
       class="cls-5"
       d="M 483.45,1775.69 C 382.66,1738.99 312.16,1651.46 270.77,1584.49 225.83,1511.8 204.53,1446.95 204.32,1446.3 l -4.45,1.77 c 0.21,0.65 21.66,66 66.88,139.18 41.79,67.63 113,156 215.06,193.2 z"
       id="path26" />
    <path
       class="cls-5"
       d="m 208.26,1422.75 a 72.82,72.82 0 0 1 5.86,54 c -16,-3.91 -30.87,-15.24 -40.05,-32.53 a 72.81,72.81 0 0 1 -5.86,-54 c 16.02,3.9 30.87,15.24 40.05,32.53 z"
       id="path28" />
    <path
       class="cls-5"
       d="m 198.39,1488.86 a 64.27,64.27 0 0 1 36.61,36.86 61.43,61.43 0 0 1 -51.06,2.43 64.25,64.25 0 0 1 -36.59,-36.86 61.43,61.43 0 0 1 51.04,-2.43 z"
       id="path30" />
    <ellipse
       class="cls-5"
       cx="209.28"
       cy="1569.95"
       rx="47.369999"
       ry="20.799999"
       transform="matrix(0.99,-0.14,0.14,0.99,-219.45,45.24)"
       id="ellipse32" />
    <ellipse
       class="cls-5"
       cx="244.82001"
       cy="1627.76"
       rx="47.369999"
       ry="20.799999"
       transform="rotate(-8.11,244.94612,1628.292)"
       id="ellipse34" />
    <path
       class="cls-5"
       d="m 240.15,1517 c 1,-18.25 8.64,-34.73 19.84,-46 10,10.86 15.74,27.1 14.72,45.36 -1.02,18.26 -8.63,34.73 -19.83,46 -9.97,-10.89 -15.75,-27.13 -14.73,-45.36 z"
       id="path36" />
    <path
       class="cls-5"
       d="m 277.26,1576.81 c 0.75,-18.26 8.12,-34.88 19.16,-46.33 10.13,10.67 16.15,26.79 15.4,45.06 -0.75,18.27 -8.13,34.88 -19.16,46.32 -10.13,-10.67 -16.16,-26.79 -15.4,-45.05 z"
       id="path38" />
    <path
       class="cls-5"
       d="m 303.59,1666.8 a 24.89,24.89 0 0 1 21.67,-1 28.72,28.72 0 0 1 -14.14,17.89 24.9,24.9 0 0 1 -21.67,1 28.68,28.68 0 0 1 14.14,-17.89 z"
       id="path40" />
    <path
       class="cls-4"
       d="m 725.15,1678.63 c 0,0 78.35,-173 52.16,-211.6 -36.2,-53.34 -81.22,110.35 -83.41,96 -20.73,-135.88 -16.4,-307.25 -113.36,-333.22 -55.12,-14.77 3.65,128 -3.2,164.76 -6.85,36.76 -98.54,-94.53 -155,-164 -56.46,-69.47 -91.05,-31.15 -58.32,53.14 31.66,81.5 146.33,177 120.66,185.17 -25.67,8.17 -169.61,-105.36 -191.3,-63.52 -26.6,51.3 195.13,141.86 172.89,152.08 -22.24,10.22 -127.88,-37.82 -127.88,3 0,40.82 146,51.08 142.16,68.75 -6.14,28.61 -97.83,-44.64 -105,-4.94 -7.32,40.6 124.46,43.68 119.86,75.44 -2.64,18.25 -35.84,-0.85 -41.84,24.24 -13.69,57.22 194,137.39 194,137.39 z"
       id="path42" />
    <path
       class="cls-6"
       d="m 866.79,1716.73 c 31.53,14.77 23,51.45 23,51.45 0,0 85.48,-66.75 117.44,-27.79 31.96,38.96 15.16,115.32 -22.32,127.73 -37.48,12.41 -363.48,3.72 -363.48,3.72 0,0 217,-168.4 245.36,-155.11 z"
       id="path44" />
    <path
       class="cls-6"
       d="m 643.42,1810.83 3,-2.58 c -68.49,-83.43 -97.74,-188 -110.21,-261.07 -13.54,-79.26 -10.8,-139.54 -10.77,-140.14 l -4.16,-0.75 c 0,0.61 -2.79,61.29 10.82,141 12.59,73.71 42.1,179.21 111.32,263.54 z"
       id="path46" />
    <path
       class="cls-6"
       d="m 534.62,1393.79 c 2,18 -2.63,33.57 -11.63,43.56 a 80.83,80.83 0 0 1 -21.79,-46.54 c -2,-18 2.63,-33.56 11.63,-43.56 a 80.83,80.83 0 0 1 21.79,46.54 z"
       id="path48" />
    <path
       class="cls-6"
       d="m 507.9,1435.73 c 11.74,14.86 17.76,32.31 17.75,47.84 -14.23,-2.48 -29.25,-11.66 -41,-26.53 -11.75,-14.87 -17.76,-32.31 -17.75,-47.84 14.23,2.48 29.26,11.67 41,26.53 z"
       id="path50" />
    <path
       class="cls-6"
       d="m 496.88,1485.83 a 79.26,79.26 0 0 1 34.08,38 c -12.36,4.92 -28.16,3.64 -43.7,-4.93 a 79.18,79.18 0 0 1 -34.09,-37.95 c 12.36,-4.95 28.16,-3.69 43.71,4.88 z"
       id="path52" />
    <path
       class="cls-6"
       d="m 524.67,1568.31 a 33,33 0 0 1 15.3,14.92 c -5,2.49 -11.57,2.47 -18.29,-0.64 a 33,33 0 0 1 -15.3,-14.92 c 4.98,-2.49 11.62,-2.47 18.29,0.64 z"
       id="path54" />
    <path
       class="cls-6"
       d="m 533.1,1599.07 a 33,33 0 0 1 15.31,14.93 c -5,2.48 -11.58,2.46 -18.29,-0.65 a 33,33 0 0 1 -15.31,-14.92 c 4.98,-2.5 11.58,-2.43 18.29,0.64 z"
       id="path56" />
    <path
       class="cls-6"
       d="m 545.81,1469.62 c 11,-7.88 24.63,-9.25 37.31,-5 -0.6,13.73 -6.61,26.47 -17.58,34.34 -10.97,7.87 -24.62,9.26 -37.31,5 0.61,-13.73 6.61,-26.47 17.58,-34.34 z"
       id="path58" />
    <path
       class="cls-6"
       d="m 553.12,1516.52 c 11,-7.88 24.62,-9.25 37.3,-5 -0.6,13.73 -6.61,26.47 -17.58,34.34 -10.97,7.87 -24.62,9.25 -37.31,5 0.61,-13.74 6.61,-26.47 17.59,-34.34 z"
       id="path60" />
    <path
       class="cls-6"
       d="m 557.91,1584.24 c 7.15,-5.12 16,-6 24.29,-3.29 -0.39,8.94 -4.3,17.23 -11.45,22.36 -7.15,5.13 -16,6 -24.28,3.29 0.39,-8.95 4.3,-17.23 11.44,-22.36 z"
       id="path62" />
    <path
       class="cls-7"
       d="m 695.07,1873.44 c 0,0 -100.13,-128.55 -142,-148.25 -44.6,-21 -5.93,51.74 -5.93,51.74 0,0 -95.36,-93.68 -117.76,-70.29 -22.4,23.39 1.52,45.28 1.52,45.28 0,0 -79.86,-14.83 -91.5,15.08 -17.89,46 113.45,68.83 113.45,68.83 0,0 -62.85,-13.83 -50.31,14.65 18.98,42.92 292.53,22.96 292.53,22.96 z"
       id="path64" />
    <path
       class="cls-6"
       d="m 339.42,1767 c 11.64,-29.91 91.5,-15.08 91.5,-15.08 0,0 -23.92,-21.92 -1.52,-45.28 22.4,-23.36 97.05,31.85 97.05,31.85 0,0 -11.57,-50.77 44.5,-10.83 40.06,28.52 117.36,134.93 117.36,134.93 z"
       id="path66" />
    <path
       class="cls-5"
       d="m 621.45,1871.51 c 0,0 159.54,11.28 190.62,-17.29 31.08,-28.57 0.24,-80.32 0.24,-80.32 0,0 54.75,-43.28 53.9,-71.54 -0.85,-28.26 -36.53,-13.92 -36.53,-13.92 0,0 60.46,-77.84 46.12,-92.65 -26.71,-27.57 -96.61,53.34 -96.61,53.34 0,0 20.75,-38.49 -1.14,-44.6 -33,-9.22 -57.27,85.71 -57.27,85.71 0,0 6.15,-37.49 -16.59,-32.51 -40.82,8.93 -82.74,213.78 -82.74,213.78 z"
       id="path68" />
    <path
       class="cls-7"
       d="m 2246.93,1431.65 12.88,-31.23 c 10,-23 35.57,-33.94 57.12,-24.5 v 0 c 54.31,23.79 77.92,90 52.74,147.88 l -18.41,42.33 c -8.07,18.54 -5.26,38.93 5.62,53.32 9.87,13.06 11.49,31.22 4.64,47 l -9.71,22.32 a 88.55,88.55 0 0 1 -55.21,49.42 53.72,53.72 0 0 0 -33.33,30.22 l -13.75,31.6 c -15.19,34.92 -54.07,51.6 -86.84,37.25 L 2144,1829 c -32.77,-14.35 -47,-54.3 -31.82,-89.23 v 0 c 24.57,-41.76 22.61,-72.93 13.9,-94.07 a 126.88,126.88 0 0 1 1.2,-98.69 l 1.94,-4.46 a 125.31,125.31 0 0 1 76.46,-69.43 c 14.83,-4.72 30.32,-16.3 41.25,-41.47 z"
       id="path70" />
    <path
       class="cls-6"
       d="m 2012.86,1870.39 c 26.35,-34.29 172.8,-216.39 267,-247 104,-33.79 6,100.41 6,100.41 0,0 184.52,-202.46 252.24,-184.21 62.07,16.73 0,142.23 0,142.23 0,0 69.91,-69.5 154.69,-69.5 82.51,0 -57.29,252.67 -64.85,265.87 z"
       id="path72" />
    <path
       class="cls-8"
       d="m 2568.81,1480.68 c -75.4,118.15 -130.32,255.25 -161.78,394.68 l -7.47,-0.09 c 31.33,-136.51 88.19,-274.68 163.45,-392.7 17.49,-27.43 36.38,-60 69.14,-70.67 0.63,-0.2 0.87,0.76 0.27,1 -29.92,11.3 -47.25,42.1 -63.61,67.78 z"
       id="path74" />
    <path
       class="cls-8"
       d="m 2424.17,1875.61 a 1532.55,1532.55 0 0 1 309.4,-314.82 c 1.21,-0.92 2.85,1.21 1.63,2.15 a 1516.47,1516.47 0 0 0 -303.32,312.73 z"
       id="path76" />
    <path
       class="cls-8"
       d="m 2575.7,1407.41 c 1.94,2.87 9.37,10.34 11.55,20.15 2.93,9.31 0.62,21 0.37,20.55 -0.56,0.24 8.59,-7.53 11.45,-19.89 3.71,-11.85 1.12,-28.28 -3.49,-33.73 -8,-12.31 -21.86,-13.56 -24.55,-7.59 -2.87,5.93 0.76,14 4.67,20.51 z"
       id="path78" />
    <path
       class="cls-8"
       d="m 2593.73,1512.87 c -2.81,-2 -10.11,-9.6 -19.84,-12 -9.22,-3.12 -20.88,-1 -20.48,-0.77 -0.24,0.56 7.68,-8.48 20.05,-11.1 11.88,-3.48 28.21,-0.56 33.54,4.17 12.11,8.22 13.08,22.19 7.08,24.78 -5.97,2.77 -13.93,-1.03 -20.35,-5.08 z"
       id="path80" />
    <path
       class="cls-8"
       d="m 2566.51,1559.09 c -2.81,-2 -10.11,-9.6 -19.84,-12 -9.22,-3.13 -20.88,-1 -20.48,-0.78 -0.24,0.56 7.68,-8.47 20,-11.1 11.88,-3.48 28.21,-0.56 33.54,4.17 12.11,8.22 13.08,22.19 7.08,24.78 -5.91,2.78 -13.88,-1.02 -20.3,-5.07 z"
       id="path82" />
    <path
       class="cls-8"
       d="m 2663.6,1666.3 c -2.81,-2 -10.11,-9.6 -19.85,-12 -9.21,-3.13 -20.87,-1 -20.47,-0.78 -0.24,0.56 7.68,-8.47 20,-11.1 11.88,-3.48 28.21,-0.56 33.54,4.17 12.11,8.22 13.08,22.19 7.08,24.78 -5.9,2.78 -13.9,-1.02 -20.3,-5.07 z"
       id="path84" />
    <path
       class="cls-8"
       d="m 2713.2,1622.46 c -2.81,-2 -10.11,-9.61 -19.84,-12 -9.22,-3.13 -20.88,-1 -20.48,-0.78 -0.24,0.56 7.68,-8.47 20,-11.1 11.88,-3.48 28.21,-0.55 33.54,4.17 12.11,8.23 13.08,22.2 7.08,24.79 -5.91,2.76 -13.88,-1.04 -20.3,-5.08 z"
       id="path86" />
    <path
       class="cls-8"
       d="m 2537.61,1459.71 c 2.37,2.52 10.88,8.72 14.58,18.07 4.35,8.73 3.9,20.6 3.59,20.24 -0.52,0.32 7.3,-8.8 8.19,-21.45 1.79,-12.29 -3.35,-28.11 -8.76,-32.76 -9.79,-10.9 -23.71,-9.93 -25.43,-3.61 -1.9,6.3 2.95,13.7 7.83,19.51 z"
       id="path88" />
    <path
       class="cls-8"
       d="m 2497.59,1512.13 c 3.37,1.79 15.13,5 21,13.88 6.7,7.86 7.55,21.31 7.11,21 -0.63,0.58 8.38,-13 8,-27.48 0.84,-14.49 -7.74,-29.93 -15.3,-32.78 -14,-8 -31.89,-0.86 -33.36,6.94 -1.65,7.9 5.53,14.05 12.55,18.44 z"
       id="path90" />
    <path
       class="cls-8"
       d="m 2455.46,1591.52 c 3.62,1.2 15.77,2.42 23.08,10.13 7.92,6.62 11,19.74 10.53,19.54 -0.52,0.68 6.1,-14.2 3.28,-28.43 -1.61,-14.43 -12.65,-28.2 -20.58,-29.74 -15.12,-5.47 -31.58,4.54 -31.73,12.47 -0.34,8.04 7.77,12.89 15.42,16.03 z"
       id="path92" />
    <path
       class="cls-8"
       d="m 2580.12,1646.83 c 2.63,1.65 12,5 16.34,12.49 5,6.78 4.93,17.77 4.58,17.52 -0.55,0.43 7.56,-10.07 8.07,-21.89 1.5,-11.74 -4.6,-24.79 -10.59,-27.55 -10.93,-7.26 -25.9,-2.52 -27.54,3.74 -1.82,6.3 3.68,11.72 9.14,15.69 z"
       id="path94" />
    <path
       class="cls-8"
       d="m 2645,1426 c -1.57,-1.31 -5.56,-6.12 -11.21,-8 -5.32,-2.26 -12.31,-1.53 -12.08,-1.36 -0.17,0.32 4.91,-4.68 12.34,-5.69 7.18,-1.53 16.71,0.91 19.66,3.94 6.81,5.4 6.77,13.71 3.11,15 -3.66,1.29 -8.19,-1.22 -11.82,-3.89 z"
       id="path96" />
    <path
       class="cls-8"
       d="m 2629.9,1392.26 c 0.07,2.06 1.44,8.16 -0.56,13.78 -1.47,5.6 -6.31,10.71 -6.31,10.42 -0.35,-0.06 6.69,-1 12,-6.33 5.59,-4.77 9.48,-13.84 8.89,-18 -0.1,-8.7 -6.68,-13.75 -9.92,-11.61 -3.24,2.14 -4,7.23 -4.1,11.74 z"
       id="path98" />
    <path
       class="cls-8"
       d="m 2748.92,1577.79 c -1.57,-1.31 -5.56,-6.12 -11.21,-8 -5.32,-2.25 -12.31,-1.53 -12.08,-1.36 -0.17,0.32 4.91,-4.67 12.34,-5.68 7.18,-1.54 16.71,0.9 19.66,3.94 6.81,5.39 6.77,13.7 3.11,15 -3.66,1.3 -8.2,-1.23 -11.82,-3.9 z"
       id="path100" />
    <path
       class="cls-8"
       d="m 2730.69,1543.76 c 0.24,2 2.1,8 0.56,13.78 -1,5.7 -5.41,11.19 -5.43,10.91 -0.35,0 6.59,-1.6 11.47,-7.3 5.19,-5.22 8.32,-14.57 7.39,-18.71 -0.81,-8.66 -7.78,-13.15 -10.83,-10.75 -3.05,2.4 -3.43,7.57 -3.16,12.07 z"
       id="path102" />
    <path
       class="cls-4"
       d="m 2648.62,1739.71 c 0.5,3.17 3.79,12.37 1.76,21.46 -1.2,9 -7.73,17.81 -7.77,17.37 -0.57,0 10.16,-2.91 17.42,-12.13 7.76,-8.47 12,-23.27 10.33,-29.66 -1.82,-13.47 -13,-20 -17.59,-16.08 -4.59,3.92 -4.86,12.03 -4.15,19.04 z"
       id="path104" />
    <path
       class="cls-4"
       d="m 2580.8,1764.07 c 0.5,3.17 3.79,12.37 1.76,21.46 -1.2,9 -7.73,17.82 -7.78,17.38 -0.56,0 10.17,-2.92 17.43,-12.14 7.76,-8.47 12.05,-23.27 10.33,-29.66 -1.83,-13.46 -13,-20 -17.59,-16.08 -4.59,3.92 -4.86,12.04 -4.15,19.04 z"
       id="path106" />
    <path
       class="cls-4"
       d="m 2511.88,1794.89 c 0.51,3.17 3.8,12.37 1.77,21.46 -1.21,9 -7.73,17.82 -7.78,17.38 -0.56,0 10.17,-2.91 17.43,-12.14 7.76,-8.47 12,-23.27 10.33,-29.66 -1.83,-13.46 -13,-20 -17.6,-16.08 -4.6,3.92 -4.85,12.04 -4.15,19.04 z"
       id="path108" />
    <path
       class="cls-4"
       d="m 2668.86,1803.29 c -1.39,-2.62 -4.08,-11.24 -10.64,-16.8 -5.87,-5.93 -15.6,-8.8 -15.39,-8.45 -0.39,0.33 9.12,-3.55 19.59,-0.82 10.43,1.9 21.83,10.4 24.12,16.07 6.14,11 1.56,22 -4,21.71 -5.56,-0.29 -10.3,-6.15 -13.68,-11.71 z"
       id="path110" />
    <path
       class="cls-4"
       d="m 2598.32,1828.34 c -1.39,-2.61 -4.09,-11.24 -10.64,-16.8 -5.87,-5.93 -15.6,-8.8 -15.39,-8.45 -0.4,0.34 9.11,-3.55 19.59,-0.81 10.43,1.89 21.83,10.4 24.11,16.07 6.14,10.94 1.56,22 -4,21.7 -5.64,-0.17 -10.3,-6.15 -13.67,-11.71 z"
       id="path112" />
    <path
       class="cls-4"
       d="m 2722.59,1777.5 c -1.22,-1.46 -4.05,-6.52 -8.89,-9.14 -4.47,-2.95 -11,-3.46 -10.78,-3.27 -0.21,0.26 5.25,-3.43 12.19,-3.11 6.8,-0.19 15.08,3.64 17.26,6.9 5.3,6.06 3.88,13.62 0.33,14.16 -3.55,0.54 -7.26,-2.5 -10.11,-5.54 z"
       id="path114" />
    <path
       class="cls-4"
       d="m 2714.45,1744.22 c -0.28,1.88 0,7.68 -2.82,12.46 -2.27,4.85 -7.53,8.7 -7.48,8.44 -0.31,-0.12 6.27,0.17 12,-3.76 5.89,-3.4 10.95,-11 11.11,-14.93 1.35,-8 -3.8,-13.65 -7.11,-12.24 -3.31,1.41 -4.86,5.94 -5.7,10.03 z"
       id="path116" />
    <path
       class="cls-4"
       d="m 2718,1763 a 392,392 0 0 0 -64.3,11.5 c -38.49,10.12 -75.51,25.06 -111.94,40.94 -17.91,7.81 -35.94,15.51 -53.51,24.07 -8.21,4 -16.48,8 -24,13.14 -10.2,6.91 -26.12,20.76 -28,23 l 8.36,0.25 c 5.72,-4.66 26.7,-22.38 55.83,-36.41 69,-33.25 140.72,-67.35 217.7,-75.81 A 0.3471311,0.3471311 0 0 0 2718,1763 Z"
       id="path118" />
  </g>
  <g
     id="Layer_6"
     data-name="Layer 6"
     style="isolation:isolate">
    <path
       class="cls-9"
       d="m 1669.4,271.51 v 0 l -0.2,-0.07 c -1.87,-0.68 -3.77,-1.28 -5.7,-1.83 -0.66,-0.19 -1.31,-0.39 -2,-0.57 -0.69,-0.18 -1.4,-0.34 -2.11,-0.51 l -2.14,-0.5 c -0.68,-0.15 -1.36,-0.28 -2,-0.41 -0.64,-0.13 -1.53,-0.28 -2.31,-0.41 l -2,-0.31 c -0.84,-0.12 -1.68,-0.22 -2.52,-0.32 l -1.84,-0.2 c -1,-0.1 -1.93,-0.16 -2.9,-0.22 l -1.53,-0.11 c -1.49,-0.07 -3,-0.11 -4.5,-0.11 H 946 q -2.41,0 -4.8,0.12 a 91.13,91.13 0 0 0 -9.41,1 c -1.54,0.23 -3.07,0.51 -4.59,0.82 a 93.54,93.54 0 0 0 -74,82.11 c -0.31,3.15 -0.48,6.34 -0.48,9.57 v 1418.31 a 93.6,93.6 0 0 0 61.53,88 v 0 l 0.48,0.16 c 1.78,0.64 3.59,1.21 5.41,1.74 0.66,0.19 1.32,0.39 2,0.56 0.68,0.17 1.4,0.35 2.11,0.52 l 2.14,0.5 2.05,0.41 2.31,0.41 2,0.31 c 0.84,0.12 1.68,0.22 2.52,0.32 l 1.84,0.2 c 1,0.09 1.93,0.16 2.9,0.22 0.51,0 1,0.08 1.53,0.1 1.49,0.07 3,0.12 4.5,0.12 h 691.64 a 93.26,93.26 0 0 0 92.79,-84 c 0.31,-3.14 0.48,-6.33 0.48,-9.56 V 359.52 a 93.6,93.6 0 0 0 -61.55,-88.01 z"
       id="path121" />
    <rect
       class="cls-10"
       x="897.96002"
       y="393.48001"
       width="787.75"
       height="1350.42"
       id="rect123" />
    <rect
       class="cls-11"
       x="1123.9399"
       y="334.12"
       width="337.09"
       height="16.92"
       rx="0.87"
       id="rect125" />
    <ellipse
       class="cls-12"
       cx="1291.39"
       cy="1808.96"
       rx="38.689999"
       ry="38.82"
       id="ellipse127" />
    <rect
       class="cls-13"
       x="897.96002"
       y="1687.24"
       width="787.75"
       height="56.66"
       id="rect129" />
    <rect
       class="cls-13"
       x="897.96002"
       y="393.48001"
       width="787.75"
       height="71.660004"
       id="rect131" />
    <rect
       class="cls-14"
       x="1503.53"
       y="840.59998"
       width="734.22998"
       height="1030.64"
       rx="37.790001"
       id="rect133" />
    <rect
       class="cls-15"
       x="1569.64"
       y="925.37"
       width="608.92999"
       height="157.23"
       id="rect135" />
    <polygon
       class="cls-16"
       points="2178.57,925.37 1569.64,925.37 1569.64,1082.6 1585.8,1082.6 1585.8,948.01 2178.57,948.01 "
       id="polygon137" />
    <rect
       class="cls-9"
       x="1569.64"
       y="1127.45"
       width="174.72"
       height="56.639999"
       rx="2.9100001"
       id="rect139" />
    <rect
       class="cls-9"
       x="1786.75"
       y="1127.45"
       width="174.72"
       height="56.639999"
       rx="2.9100001"
       id="rect141" />
    <rect
       class="cls-9"
       x="2003.85"
       y="1127.45"
       width="174.72"
       height="56.639999"
       rx="2.9100001"
       id="rect143" />
    <rect
       class="cls-9"
       x="1569.64"
       y="1228.9399"
       width="135.22"
       height="126.98"
       rx="6.5100002"
       id="rect145" />
    <rect
       class="cls-9"
       x="1569.64"
       y="1385.49"
       width="135.22"
       height="126.98"
       rx="6.5100002"
       id="rect147" />
    <rect
       class="cls-9"
       x="1569.64"
       y="1542.03"
       width="135.22"
       height="126.98"
       rx="6.5100002"
       id="rect149" />
    <rect
       class="cls-9"
       x="1569.64"
       y="1698.58"
       width="135.22"
       height="126.98"
       rx="6.5100002"
       id="rect151" />
    <rect
       class="cls-9"
       x="2043.36"
       y="1698.58"
       width="135.22"
       height="126.98"
       rx="6.5100002"
       id="rect153" />
    <rect
       class="cls-17"
       x="1727.55"
       y="1228.9399"
       width="135.22"
       height="126.98"
       rx="6.5100002"
       id="rect155" />
    <rect
       class="cls-17"
       x="1885.45"
       y="1228.9399"
       width="135.22"
       height="126.98"
       rx="6.5100002"
       id="rect157" />
    <rect
       class="cls-17"
       x="1727.55"
       y="1385.49"
       width="135.22"
       height="126.98"
       rx="6.5100002"
       id="rect159" />
    <rect
       class="cls-17"
       x="1885.45"
       y="1385.49"
       width="135.22"
       height="126.98"
       rx="6.5100002"
       id="rect161" />
    <path
       class="cls-17"
       d="m 2151,1228.94 h -80.1 a 27.59,27.59 0 0 0 -27.54,27.64 v 228.25 a 27.59,27.59 0 0 0 27.54,27.64 h 80.1 a 27.59,27.59 0 0 0 27.54,-27.64 V 1256.58 A 27.59,27.59 0 0 0 2151,1228.94 Z"
       id="path163" />
    <rect
       class="cls-17"
       x="1727.55"
       y="1542.03"
       width="135.22"
       height="126.98"
       rx="6.5100002"
       id="rect165" />
    <rect
       class="cls-17"
       x="1885.45"
       y="1542.03"
       width="135.22"
       height="126.98"
       rx="6.5100002"
       id="rect167" />
    <rect
       class="cls-17"
       x="2043.36"
       y="1542.03"
       width="135.22"
       height="126.98"
       rx="6.5100002"
       id="rect169" />
    <rect
       class="cls-17"
       x="1727.55"
       y="1698.58"
       width="135.22"
       height="126.98"
       rx="6.5100002"
       id="rect171" />
    <rect
       class="cls-17"
       x="1885.45"
       y="1698.58"
       width="135.22"
       height="126.98"
       rx="6.5100002"
       id="rect173" />
    <path
       class="cls-11"
       d="m 1660.4,1572.16 v 6.42 l -31.22,65.52 h -10 l 31.11,-63.64 v -0.22 h -35.08 v -8.08 z"
       id="path175" />
    <path
       class="cls-11"
       d="m 1771.48,1625.84 c 0,-9.08 5.41,-15.5 14.23,-19.26 l -0.11,-0.33 c -7.94,-3.76 -11.36,-10 -11.36,-16.16 0,-11.4 9.6,-19.15 22.17,-19.15 13.9,0 20.85,8.75 20.85,17.71 0,6.09 -3,12.62 -11.8,16.83 v 0.33 c 8.93,3.54 14.45,9.85 14.45,18.59 0,12.51 -10.7,20.92 -24.38,20.92 -15,0 -24.05,-8.97 -24.05,-19.48 z m 38.61,-0.44 c 0,-8.75 -6.07,-13 -15.77,-15.72 -8.39,2.44 -12.91,8 -12.91,14.83 -0.33,7.31 5.18,13.73 14.34,13.73 8.71,0 14.34,-5.43 14.34,-12.84 z m -26.69,-36 c 0,7.19 5.4,11.06 13.67,13.28 6.18,-2.11 10.92,-6.53 10.92,-13.06 0,-5.76 -3.42,-11.73 -12.13,-11.73 -8.05,0.03 -12.46,5.34 -12.46,11.54 z"
       id="path177" />
    <path
       class="cls-11"
       d="m 1820,1762 c 0,24.46 -9,38 -24.93,38 -14,0 -23.5,-13.17 -23.72,-37 0,-24.12 10.37,-37.41 24.93,-37.41 15.13,-0.03 23.72,13.48 23.72,36.41 z m -38.94,1.1 c 0,18.71 5.74,29.33 14.56,29.33 9.93,0 14.67,-11.62 14.67,-30 0,-17.71 -4.52,-29.33 -14.56,-29.33 -8.47,-0.01 -14.65,10.39 -14.65,29.98 z"
       id="path179" />
    <path
       class="cls-11"
       d="m 1938.16,1637.24 a 40.56,40.56 0 0 0 7.83,-0.33 27,27 0 0 0 15,-7 c 4.74,-4.31 8.16,-10.62 9.48,-19.14 h -0.33 a 21,21 0 0 1 -16.88,7.75 c -12.9,0 -21.17,-9.75 -21.17,-22 0,-13.61 9.81,-25.57 24.48,-25.57 14.67,0 23.72,12 23.72,30.33 0,15.83 -5.3,26.89 -12.35,33.76 a 35.86,35.86 0 0 1 -20.85,9.63 45.37,45.37 0 0 1 -8.94,0.55 z m 3.53,-41.39 c 0,9 5.41,15.27 13.79,15.27 6.51,0 11.58,-3.21 14.12,-7.53 a 6.44,6.44 0 0 0 0.88,-3.54 c 0,-12.28 -4.52,-21.69 -14.67,-21.69 -8.27,0 -14.12,7.3 -14.12,17.49 z"
       id="path181" />
    <path
       class="cls-11"
       d="m 1643.85,1484.49 v -19.59 h -33.31 v -6.42 l 32,-45.93 H 1653 v 44.72 h 10 v 7.63 h -10 v 19.59 z m 0,-27.22 v -24 c 0,-3.76 0.11,-7.53 0.33,-11.29 h -0.33 c -2.2,4.21 -4,7.3 -5.95,10.62 l -17.54,24.4 v 0.23 z"
       id="path183" />
    <path
       class="cls-11"
       d="m 1815.16,1420.74 h -27.35 l -2.76,18.48 a 38.52,38.52 0 0 1 5.85,-0.44 30.19,30.19 0 0 1 15.44,3.88 c 5.62,3.21 10.26,9.4 10.26,18.48 0,14.06 -11.14,24.57 -26.7,24.57 -7.83,0 -14.45,-2.21 -17.87,-4.43 l 2.43,-7.41 a 32.06,32.06 0 0 0 15.33,4 c 9.16,0 17,-6 17,-15.6 -0.11,-9.3 -6.29,-15.94 -20.63,-15.94 a 74.16,74.16 0 0 0 -9.92,0.77 l 4.63,-34.53 h 34.3 z"
       id="path185" />
    <path
       class="cls-11"
       d="m 1973.46,1419.41 a 34.54,34.54 0 0 0 -7.28,0.45 c -15.22,2.54 -23.27,13.72 -24.93,25.56 h 0.33 a 21.34,21.34 0 0 1 17.32,-8.3 c 12.68,0 21.62,9.19 21.62,23.25 0,13.17 -8.94,25.34 -23.83,25.34 -15.33,0 -25.37,-12 -25.37,-30.66 0,-14.17 5.08,-25.34 12.14,-32.43 a 39,39 0 0 1 22.94,-10.62 45.64,45.64 0 0 1 7.06,-0.56 z m -2.76,41.51 c 0,-10.3 -5.84,-16.49 -14.78,-16.49 a 16,16 0 0 0 -13.9,8.85 8.35,8.35 0 0 0 -1.1,4.32 c 0.22,11.84 5.62,20.58 15.77,20.58 8.39,0 14.01,-6.97 14.01,-17.26 z"
       id="path187" />
    <path
       class="cls-11"
       d="m 1634.92,1268.67 h -0.22 l -12.47,6.75 -1.87,-7.42 15.66,-8.41 h 8.27 v 71.94 h -9.37 z"
       id="path189" />
    <path
       class="cls-11"
       d="m 1772.37,1331.53 v -6 l 7.61,-7.42 c 18.31,-17.48 26.58,-26.78 26.69,-37.63 0,-7.3 -3.53,-14 -14.23,-14 -6.51,0 -11.91,3.32 -15.22,6.08 l -3.09,-6.86 a 31.36,31.36 0 0 1 20.3,-7.3 c 15.44,0 22,10.62 22,20.91 0,13.29 -9.6,24 -24.71,38.63 l -5.74,5.31 v 0.22 h 32.21 v 8.08 z"
       id="path191" />
    <path
       class="cls-11"
       d="m 1934.85,1320.36 a 32.41,32.41 0 0 0 15.89,4.53 c 12.46,0 16.32,-8 16.21,-13.94 -0.11,-10.07 -9.15,-14.39 -18.53,-14.39 H 1943 v -7.31 h 5.4 c 7.06,0 16,-3.65 16,-12.17 0,-5.75 -3.65,-10.85 -12.58,-10.85 a 26.3,26.3 0 0 0 -14.34,4.76 l -2.54,-7.08 c 3.75,-2.77 11,-5.53 18.75,-5.53 14.12,0 20.52,8.41 20.52,17.15 0,7.42 -4.41,13.72 -13.23,16.93 v 0.23 c 8.82,1.77 16,8.41 16,18.48 0,11.51 -8.94,21.58 -26.14,21.58 -8,0 -15.11,-2.54 -18.64,-4.87 z"
       id="path193" />
    <ellipse
       class="cls-11"
       cx="1637.25"
       cy="1789.24"
       rx="8.6499996"
       ry="8.6800003"
       id="ellipse195" />
    <polygon
       class="cls-11"
       points="2116.82,1329.62 2105.11,1329.62 2105.11,1375.29 2059.6,1375.29 2059.6,1387.03 2105.11,1387.03 2105.11,1432.7 2116.82,1432.7 2116.82,1387.03 2162.33,1387.03 2162.33,1375.29 2116.82,1375.29 "
       id="polygon197" />
    <polygon
       class="cls-11"
       points="1983.35,1740.74 1977.16,1734.53 1953.06,1758.7 1928.96,1734.53 1922.77,1740.74 1946.86,1764.92 1922.77,1789.1 1928.96,1795.32 1953.06,1771.14 1977.16,1795.32 1983.35,1789.1 1959.26,1764.92 "
       id="polygon199" />
    <rect
       class="cls-11"
       x="2070.04"
       y="1603.03"
       width="76.220001"
       height="11.71"
       id="rect201" />
    <rect
       class="cls-11"
       x="2072.8501"
       y="1738.39"
       width="76.220001"
       height="11.71"
       id="rect203" />
    <rect
       class="cls-11"
       x="2072.8501"
       y="1767.87"
       width="76.220001"
       height="11.71"
       id="rect205" />
    <path
       class="cls-18"
       d="m 1095,905.44 c 0,0 -152.68,22 -129.35,169.39 21.75,137.39 152.69,109.49 186.31,102.6 33.62,-6.89 -56.96,-271.99 -56.96,-271.99 z"
       id="path207" />
    <path
       class="cls-19"
       d="m 1152,1177.43 c 15.66,-3.2 4.39,-62.39 -12.13,-124.74 -56.21,11 -118.83,23.32 -172,33.81 27.13,124.1 151.48,97.62 184.13,90.93 z"
       id="path209" />
    <path
       class="cls-2"
       d="m 1182.87,1202.91 c 0,0 33.54,119.74 24.71,212.77 -8.24,86.76 4.12,101.22 36.37,98.47 32.25,-2.75 110.49,-22 111.86,-53 1.37,-31 -13,-190.05 -67.25,-275.43 -54.25,-85.38 -105.69,17.19 -105.69,17.19 z"
       id="path211" />
    <path
       class="cls-20"
       d="m 1235,1153 c -21.5,14.45 -52.12,49.94 -52.12,49.94 0,0 33.54,119.74 24.71,212.77 -8.24,86.76 4.12,101.22 36.37,98.47 11.83,-1 29.84,-4.25 48,-9.46 C 1304.8,1291.45 1249.79,1177.1 1235,1153 Z"
       id="path213" />
    <path
       class="cls-2"
       d="m 1557.56,615.21 c 0,0 -253.22,184.37 -335.06,240.14 l -47.86,71.27 34,207.61 81.83,40.28 399.91,79 -9.26,-44.93 -72.57,-201.41 -37.06,-229.3 -10.81,-141 z"
       id="path215" />
    <polygon
       class="cls-20"
       points="1194.11,1045.62 1208.61,1134.23 1290.44,1174.51 1690.35,1253.52 1681.09,1208.59 1608.52,1007.18 1598.8,947.07 "
       id="polygon217" />
    <path
       class="cls-6"
       d="m 1222.5,855.35 c 0,0 -33.45,176.11 67.94,319.16 0,0 5.66,13.25 -6.69,21.52 l -75.48,19.28 c 0,0 -35,12.39 -64.51,-37.88 -29.51,-50.27 -81.67,-163.19 -50.78,-287.82 0,0 7.54,-33.74 48.72,-39.94 l 54.9,-10.33 c 0,0 24.4,-3.79 25.9,16.01 z"
       id="path219" />
    <path
       class="cls-7"
       d="m 1557.56,615.21 c 0,0 65.88,-48.55 104,-47.51 38.12,1.04 76.17,51.64 100.88,92.95 24.71,41.31 89.55,203.48 95.73,313 6.18,109.52 5.15,265.45 -48.38,284 -53.53,18.55 -119.41,-4.13 -119.41,-4.13 0,0 -86.47,-74.36 -136.9,-305.73 -50.43,-231.37 4.08,-332.58 4.08,-332.58 z"
       id="path221" />
    <path
       class="cls-2"
       d="m 1771.84,1263.85 c 0,0 61.58,-80 30.2,-296.16 -49.41,-340.27 -174,-391.73 -174,-391.73 0,0 -92.15,70.25 -4.04,399.04 72.53,271 147.84,288.85 147.84,288.85 z"
       id="path223" />
    <path
       class="cls-18"
       d="m 1594.48,836.67 c 6,40.06 15.43,85.91 29.48,138.37 7,26.25 14.09,50.11 21.1,71.82 38.29,-13.3 100.23,-46.64 73.78,-131.21 -24.51,-78.36 -88.31,-83.15 -124.36,-78.98 z"
       id="path225" />
    <path
       class="cls-19"
       d="m 1624,975 c 7,26.25 14.09,50.11 21.1,71.82 37.76,-13.12 98.51,-45.73 74.82,-127.74 l -104.09,24.07 q 3.77,15.55 8.17,31.85 z"
       id="path227" />
    <path
       class="cls-21"
       d="m 1290.44,1174.51 c -31.77,-44.83 -50.3,-92.91 -60.77,-137.8 l -133.78,25.34 a 459.27,459.27 0 0 0 47.87,115.38 c 29.51,50.27 64.51,37.88 64.51,37.88 l 75.48,-19.28 c 12.35,-8.27 6.69,-21.52 6.69,-21.52 z"
       id="path229" />
    <path
       class="cls-22"
       d="M 1056.78,426.51 H 372.64 a 42.86,42.86 0 0 0 -42.79,42.94 v 283.29 a 42.86,42.86 0 0 0 42.79,42.93 h 538.62 c 21.8,30.52 61.33,85.18 64.81,85.18 3.27,0 -3,-51.62 -7.45,-85.18 h 88.16 a 42.86,42.86 0 0 0 42.79,-42.93 V 469.45 a 42.86,42.86 0 0 0 -42.79,-42.94 z"
       id="path231" />
    <path
       class="cls-7"
       d="M 1028.53,353 H 344.39 a 42.85,42.85 0 0 0 -42.78,43 v 283.25 a 42.86,42.86 0 0 0 42.78,42.94 H 883 c 21.8,30.52 61.32,85.18 64.81,85.18 3.26,0 -3,-51.63 -7.46,-85.18 h 88.16 a 42.86,42.86 0 0 0 42.79,-42.94 V 396 a 42.85,42.85 0 0 0 -42.77,-43 z"
       id="path233" />
    <rect
       class="cls-11"
       x="372.35001"
       y="444.88"
       width="337.31"
       height="18.700001"
       rx="0.95999998"
       id="rect235" />
    <rect
       class="cls-11"
       x="372.35001"
       y="494.23001"
       width="145.31"
       height="18.700001"
       rx="0.95999998"
       id="rect237" />
    <rect
       class="cls-11"
       x="534.03998"
       y="494.23001"
       width="452.23001"
       height="18.700001"
       rx="0.95999998"
       id="rect239" />
    <rect
       class="cls-11"
       x="744.14001"
       y="444.88"
       width="243.5"
       height="18.700001"
       rx="0.95999998"
       id="rect241" />
    <rect
       class="cls-11"
       x="372.35001"
       y="590.96997"
       width="615.28998"
       height="18.700001"
       rx="0.95999998"
       id="rect243" />
    <rect
       class="cls-11"
       x="372.35001"
       y="543.59003"
       width="317.85999"
       height="18.700001"
       rx="0.95999998"
       id="rect245" />
    <rect
       class="cls-11"
       x="708.66998"
       y="543.59003"
       width="278.97"
       height="18.700001"
       rx="0.95999998"
       id="rect247" />
    <rect
       class="cls-11"
       x="1588.95"
       y="255.55"
       width="210.28999"
       height="16.709999"
       rx="0.86000001"
       transform="rotate(180,1694.09,263.91)"
       id="rect249" />
    <path
       class="cls-22"
       d="m 1527.18,208.53 h 611.2 a 38.29,38.29 0 0 1 38.23,38.36 V 500 a 38.29,38.29 0 0 1 -38.23,38.35 h -481.19 c -19.48,27.27 -54.79,76.1 -57.91,76.1 -2.91,0 2.7,-46.12 6.66,-76.1 h -78.76 A 38.29,38.29 0 0 1 1489,500 V 246.89 a 38.29,38.29 0 0 1 38.18,-38.36 z"
       id="path251" />
    <path
       class="cls-4"
       d="m 1552.42,142.88 h 611.2 a 38.3,38.3 0 0 1 38.23,38.36 v 253.09 a 38.29,38.29 0 0 1 -38.23,38.35 h -481.2 c -19.47,27.27 -54.78,76.1 -57.9,76.1 -2.92,0 2.7,-46.12 6.66,-76.1 h -78.76 a 38.29,38.29 0 0 1 -38.23,-38.35 V 181.24 a 38.29,38.29 0 0 1 38.23,-38.36 z"
       id="path253" />
    <rect
       class="cls-11"
       x="1936.54"
       y="224.94"
       width="186.86"
       height="16.709999"
       rx="0.86000001"
       transform="rotate(180,2029.97,233.295)"
       id="rect255" />
    <rect
       class="cls-11"
       x="1997.1801"
       y="279.51999"
       width="126.22"
       height="16.709999"
       rx="0.86000001"
       transform="rotate(180,2060.29,287.87)"
       id="rect257" />
    <rect
       class="cls-11"
       x="1826.61"
       y="279.51999"
       width="155.32001"
       height="16.709999"
       rx="0.86000001"
       transform="rotate(180,1904.275,287.87)"
       id="rect259" />
    <rect
       class="cls-11"
       x="1589.86"
       y="279.51999"
       width="217.08"
       height="16.709999"
       rx="0.86000001"
       transform="rotate(180,1698.4,287.87)"
       id="rect261" />
    <rect
       class="cls-11"
       x="1588.95"
       y="224.94"
       width="313.39999"
       height="16.709999"
       rx="0.86000001"
       transform="rotate(180,1745.65,233.295)"
       id="rect263" />
    <rect
       class="cls-11"
       x="1588.95"
       y="386.41"
       width="534.45001"
       height="16.709999"
       rx="0.86000001"
       transform="rotate(180,1856.175,394.765)"
       id="rect265" />
    <rect
       class="cls-11"
       x="1847.3"
       y="333.59"
       width="276.10001"
       height="16.709999"
       rx="0.86000001"
       transform="rotate(180,1985.35,341.945)"
       id="rect267" />
    <rect
       class="cls-11"
       x="1588.95"
       y="333.59"
       width="244.66"
       height="16.709999"
       rx="0.86000001"
       transform="rotate(180,1711.28,341.945)"
       id="rect269" />
  </g>
  <g
     id="Layer_1"
     data-name="Layer 1"
     style="isolation:isolate">
    <path
       class="cls-23"
       d="m 763.38,1015.08 c 1,-23.81 -2.5,-47.34 -13.08,-69.51 -9.1,-19.08 -31.61,-29.91 -52.14,-29.93 -65.19,-0.09 -73.48,86.71 -115,120.19 -12.68,10.23 -26.85,18.56 -38.85,29.6 -44.31,40.74 -24.31,116.15 16.35,151.86 28.24,24.79 72.6,38.87 107.4,19.49 18.16,-10.11 32,-26.92 41.77,-45.34 13.94,-26.14 22.93,-56.31 32.85,-84.17 10.55,-29.65 19.4,-60.53 20.7,-92.19 z"
       id="path272" />
    <path
       class="cls-24"
       d="m 623.57,1024.91 c 0,0 -47.88,-86.11 -59.57,-104.42 -11.69,-18.31 -42,-91 -43.08,-93.91 -1.08,-2.91 20.9,-37.29 16,-38.47 -4.9,-1.18 -10.3,18.15 -15.54,15.89 -5.24,-2.26 -20.53,-48.84 -23.51,-46.53 -5.58,4.32 8.24,28.86 5.27,30.41 -2.97,1.55 -12,-27 -17.84,-26.17 -5.84,0.83 11.12,26.17 9.48,28.41 -1.64,2.24 -19.24,-21.63 -22.42,-16.54 -1.73,2.76 16.19,20.83 12.74,22.52 -3.45,1.69 -19.37,-10 -21.06,-6.61 -1.69,3.39 14.74,8 19.65,17 4.91,9 13.28,13 16.75,29.78 3.47,16.78 8.67,77.56 26.46,107.87 17.79,30.31 56.93,97.42 56.93,97.42 z"
       id="path274" />
    <path
       class="cls-24"
       d="m 876.94,1341.81 -74.45,-57 c 0,0 -7.49,-53.14 -17.49,-100.32 -12.57,3.56 -23.9,13.45 -36.48,16.9 l 18.91,105.61 97.57,50.54 27.56,35.54 6.27,-36.49 z"
       id="path276" />
    <path
       class="cls-24"
       d="m 559.59,1781.91 c 0,0 -4.59,32 -12.49,42.37 -2.65,3.47 -7.5,7.86 -10.68,14.13 -4.95,9.77 -2.21,24.3 1.44,32.3 1.88,4.11 -0.13,4.1 4.14,5.43 12.64,3.92 26.08,-2.69 31.46,-14.86 a 75.91,75.91 0 0 0 6.18,-27.3 C 581,1804.89 590,1790.1 590,1790.1 Z"
       id="path278" />
    <path
       class="cls-24"
       d="m 697.83,1796.56 c 0,0 2.84,36.13 0.54,47.87 -1.24,6.28 -8.1,19.23 -5,25.14 3.1,5.91 6.74,7.4 6.74,7.4 l 81.6,1.32 c 4.45,0.07 1.51,-2.8 -2.07,-5.45 -5.87,-4.34 -10.6,-7.21 -29.34,-16.33 -1.22,-0.59 -5.67,-3.44 -7.28,-4.42 a 56.58,56.58 0 0 1 -11.67,-10.37 c -5.86,-6.56 -6.37,-38.38 -6.37,-38.38 z"
       id="path280" />
    <path
       class="cls-25"
       d="m 761.61,1316.34 c 0,0 10.27,58.65 3.53,97.11 -6.74,38.46 -39.14,394.91 -39.14,394.91 l -36,2 c 0,0 -7.54,-148.9 -6.19,-169.61 1.35,-20.71 12,-55.35 12,-55.35 l -3.59,-120.22 45.42,-157.94 z"
       id="path282" />
    <path
       class="cls-26"
       d="m 655.84,1304 c 0,0 -28.33,42.89 -35.08,78.39 -6.75,35.5 5,144.59 -8,191.11 -7,25.18 -33.65,64.06 -37.7,96.6 -4.05,32.54 -19.92,117.78 -19.92,117.78 l 36,7.17 83.59,-212.87 65.57,-192.4 16.8,-99.09 z"
       id="path284" />
    <path
       class="cls-9"
       d="m 774,1130.42 c -20.37,-62 -43.14,-59.34 -43.14,-59.34 l 17.61,130.31 c 12.58,-3.45 29,-11.13 41.51,-14.69 -4.13,-19.59 -10.98,-41.01 -15.98,-56.28 z"
       id="path286" />
    <path
       class="cls-9"
       d="m 610.32,997 c 0,0 53,57.28 60.83,80.36 7.83,23.08 -7.67,56.1 -29.15,57.55 -21.48,1.45 -69.26,-101.66 -69.26,-101.66 z"
       id="path288" />
    <path
       class="cls-27"
       d="m 678.78,1060 c 0,0 -37.52,-2.41 -52.36,13.86 -14.84,16.27 32.93,145 35.63,165.68 2.7,20.68 -13.76,75.76 -13.76,75.76 0,0 88.13,17.84 113.32,1.08 0,0 2.7,-148.9 0,-163.69 -2.7,-14.79 -25.19,-75 -30.59,-80.86 -5.4,-5.86 -52.24,-11.83 -52.24,-11.83 z"
       id="path290" />
    <path
       class="cls-24"
       d="m 691.27,1009.54 c 0,0 -0.19,1.11 -0.54,3 -1.67,9.07 -8.12,39.17 -12.47,47.44 -5.26,10 18,41.88 40.4,38 6.66,-1.16 -5.64,-29.3 -5,-32.28 1.14,-5.7 2.67,-13.49 4.24,-21.47 0.88,-4.5 1.78,-9.07 2.62,-13.36 2.4,-12.19 4.35,-22.16 4.35,-22.16 z"
       id="path292" />
    <path
       class="cls-28"
       d="m 690.73,1012.54 c 0.35,-1.89 0.54,-3 0.54,-3 l 33.55,-0.84 c 0,0 -2,10 -4.35,22.16 -0.83,4.27 -1.72,8.81 -2.61,13.29 -5.18,-0.77 -10.59,-3.3 -16,-8.08 a 42.65,42.65 0 0 1 -12.13,-18.15 c 0.39,-2.13 0.74,-3.92 1,-5.38 z"
       id="path294" />
    <path
       class="cls-24"
       d="m 713.85,932.84 c 0,0 -15.85,-1.84 -25.72,11.06 -9.87,12.9 -20.6,52.77 4,74.44 24.6,21.67 49,-2.86 52.57,-28.87 3.57,-26.01 5.03,-57.57 -30.85,-56.63 z"
       id="path296" />
    <path
       class="cls-24"
       d="m 752,989.08 c -2.94,5.75 -7.87,8.93 -11,7.11 -3.13,-1.82 -3.31,-8 -0.37,-13.7 2.94,-5.7 7.87,-8.93 11,-7.11 3.13,1.82 3.31,7.96 0.37,13.7 z"
       id="path298" />
    <path
       class="cls-24"
       d="m 683.34,977.78 c 1.23,6.73 -1.24,12.91 -5.52,13.79 -4.28,0.88 -8.74,-3.86 -10,-10.59 -1.26,-6.73 1.24,-12.91 5.52,-13.79 4.28,-0.88 8.78,3.81 10,10.59 z"
       id="path300" />
    <path
       class="cls-23"
       d="m 715.62,928.58 c 0,0 -21.12,37.92 -36.24,39.67 -15.12,1.75 -17.1,21.9 -17.1,21.9 0,0 5.41,-46.43 20.37,-55.38 14.96,-8.95 32.97,-6.19 32.97,-6.19 z"
       id="path302" />
    <path
       class="cls-27"
       d="m 575.91,1854.88 c -19.6,3.59 -32.64,-7.94 -39.43,-16.57 -5,9.78 -7.42,24.37 -3.75,32.4 3.23,7.08 12.66,6.88 20.09,7.16 7.85,0.29 13.93,-4.1 17.82,-11 a 65.84,65.84 0 0 0 5.27,-11.99 z"
       id="path304" />
    <path
       class="cls-27"
       d="m 743.06,1852.08 c -21.58,5.57 -37.53,1.78 -46.46,-1.83 -2.3,6.55 -5.35,14.78 -3.73,19.53 2,5.81 4.8,7.12 7.29,7.19 19.72,0.52 72.21,1.23 87.24,1.42 a 2.47,2.47 0 0 0 1.91,-4.06 c -3.73,-4.47 -44.64,-21.26 -46.25,-22.25 z"
       id="path306" />
    <path
       class="cls-11"
       d="m 701.64,998.92 24.9,4.76 c 0,0 -2.37,9.38 -13.38,7.6 -13.43,-2.17 -11.52,-12.36 -11.52,-12.36 z"
       id="path308" />
    <path
       class="cls-29"
       d="m 1960.47,1161.74 -2.76,2.48 a 3.39,3.39 0 0 1 -4.77,-0.12 l -49,-54.07 a 3.34,3.34 0 0 1 0.37,-4.74 l 2.76,-2.49 a 3.39,3.39 0 0 1 4.77,0.12 l 49,54.08 a 3.35,3.35 0 0 1 -0.37,4.74 z"
       id="path310" />
    <path
       class="cls-30"
       d="m 2126.67,1117.81 c -6.56,-5.35 -57.22,17 -56.58,24.73 0.64,7.73 -35.36,83 -35.36,83 l -62.21,-49.77 v 0 c -0.55,-1.8 -6.45,-21.15 -6.74,-24.62 -0.3,-3.63 -10.81,-10 -15.69,-9 -4.88,1 4.17,7.08 4.77,8.21 1.62,3.07 -4.64,4.22 -4.64,4.22 0,0 -18,-9.9 -18.36,-15.72 -0.36,-5.82 -4.09,-18 -8,-15.47 -2,1.32 -2,10 -1.36,14.08 -1.15,-4.66 -2.79,-9.92 -4.38,-10.45 -2.91,-1 -4.35,2.76 -3.82,4.59 0.53,1.83 5.22,21.61 6.65,23.84 1.43,2.23 30.42,25.64 34.6,30.74 0,0 80.47,92.3 86.2,94.71 5,2.12 22.95,-29.69 39.88,-50.8 16.93,-21.11 65.51,-95.59 45.04,-112.29 z"
       id="path312" />
    <path
       class="cls-31"
       d="m 2289,1796.49 c 0,0 11,10.83 11.31,14.8 0.31,3.97 1,46.54 -3.54,50.51 -4.54,3.97 -17.77,6.79 -13.51,11.26 3.22,3.38 28,2.66 44.44,1.75 4.79,-0.26 10.8,-38.65 12.7,-44.3 2.76,-8.19 9.47,-26.65 7,-32.36 -1.22,-2.78 -7.07,-8.5 -15.3,-13.84 -8.67,-5.62 -17,-18.12 -17,-18.12 z"
       id="path314" />
    <path
       class="cls-30"
       d="m 2174.49,1821.7 c 0,0 9.89,28 9.9,28.12 0.74,4.45 3.64,15.43 3.64,19.47 0,15.17 -68.21,-12.89 -52.93,-19.61 1.39,-0.61 5.73,-5.47 6.18,-10.64 0.7,-8 -5.74,-17.94 -5.74,-17.94 z"
       id="path316" />
    <path
       class="cls-32"
       d="m 2067.48,1299.41 c 0,0 -5,50.28 -5,51 0,81.34 -16.07,240.22 -13,255.51 7.45,37.3 87.69,227.57 87.69,227.57 l 43.36,-5.2 -56.53,-227.78 20.8,-91.69 29.43,-181.26 z"
       id="path318" />
    <path
       class="cls-33"
       d="m 2213,1343.88 8.23,47.66 22.27,196.13 84.78,191.7 c 0,0 -11.92,27.89 -29.52,31.81 l -134.94,-196.81 -83.82,-251.84 2.94,-56 z"
       id="path320" />
    <path
       class="cls-20"
       d="m 2050.19,1179.68 60.13,6.16 c 0,0 2.76,-49.46 2.76,-73.06 0,-28.62 -2.43,-65.5 -5.88,-64.7 -9.67,2.22 -22.69,7.58 -30.44,18.27 -26.83,36.99 -26.57,113.33 -26.57,113.33 z"
       id="path322" />
    <path
       class="cls-2"
       d="m 2079.73,1107.73 c -1.26,8.73 -24.38,246 -24.38,246 109.49,53.06 169.91,9.45 169.91,9.45 0,0 -3.58,-166.63 0.71,-189.31 2.84,-15 6.39,-114.71 -3.3,-117.5 -12.44,-3.58 -26.7,-7.39 -42.24,-9 -13.27,-1.38 -64.8,-2.18 -74,0.93 -0.02,0.01 -21.43,22.7 -26.7,59.43 z"
       id="path324" />
    <path
       class="cls-33"
       d="m 2331.55,1784 c 0,0 -25.48,72 -35.46,75.47 -2.65,0.93 -15.36,3.27 -17.76,8.91 -0.72,1.7 0,7.37 0,7.37 h 53.12 c 0,0 6.72,-31.72 9.38,-45.66 0,0 14.06,-34.06 12.5,-37.15 -1.56,-3.09 -21.78,-8.94 -21.78,-8.94 z"
       id="path326" />
    <path
       class="cls-33"
       d="m 2191.91,1874.29 -7.82,-24.75 c 0,0 -16.4,7 -24.6,5.8 -8.2,-1.2 -24.22,-5.8 -24.22,-5.8 -32.74,10.81 -59.56,16 -54.68,24.75 z"
       id="path328" />
    <path
       class="cls-34"
       d="m 2041.75,1280.91 a 12.67,12.67 0 0 1 -1.65,-1.23 c 1.94,-23.25 1.59,-45.77 -5.68,-53.39 l 3.42,-7.27 c 8.43,6.54 12.43,23.92 10.86,52.12 a 46.17,46.17 0 0 1 -1.11,5.84 c -2.44,2.69 -4.66,4.43 -5.84,3.93 z"
       id="path330" />
    <path
       class="cls-30"
       d="m 2333.7,1356.26 a 6.53,6.53 0 0 0 0,-1.53 c -1.61,-16.43 -15.21,-154.42 -17.5,-160.28 -2.07,-5.3 -63.05,-92.82 -63.05,-92.82 l -30,41 58.65,78.5 c 1.32,5 22.48,98.13 22.48,98.13 0,0 4.34,17 6.28,27.15 -0.89,2.45 -1.76,4.77 -2.53,6.67 a 61.28,61.28 0 0 1 -6.32,10.19 c -2.62,3.52 -7,11.22 -7.49,13.29 -0.62,2.39 -1.74,7.37 -2.37,10.38 -0.63,3.01 -1.5,6.5 -1.65,8.13 a 15.9,15.9 0 0 1 -1.89,4.38 2.62,2.62 0 0 0 3.09,3.78 c 2.13,-0.71 3.78,-3.47 4.81,-5.2 2.88,-4.87 4.42,-13.75 5.14,-13.28 0.72,0.47 3.25,15.55 3.65,17.25 0.4,1.7 3.43,19.22 5.14,22.42 1.71,3.2 4,2.66 4.58,0.66 0.52,-1.73 -1.89,-26.23 -1.89,-26.23 0,0 -0.3,-3.12 1.06,-2.15 1.36,0.97 3.6,23.22 4.55,26.47 0.95,3.25 3.11,5 4.94,2.37 2.24,-3.18 -1.6,-26.77 -1.6,-26.77 0,0 -0.43,-3 0.83,-2.69 1.26,0.31 2.84,19.23 3.83,20.87 0.99,1.64 3.46,2.23 4.64,-0.51 1.39,-3.22 -2.21,-24.25 -2.21,-24.25 0,0 0.17,-1.67 1,-1.11 0.83,0.56 3.29,16.61 4.92,18.1 a 1.72,1.72 0 0 0 2.5,0 c 3,-2 -1.59,-17.33 -1.54,-24.92 0.05,-7.59 -3.47,-16.14 -2.42,-25.18 0.07,-0.55 0.26,-1.94 0.37,-2.82 z"
       id="path332" />
    <path
       class="cls-20"
       d="m 2300.82,1157.06 -52.09,35.1 c 0,0 -29.36,-43.84 -45.12,-59.45 -19.75,-19.55 7.19,-79.45 19.91,-76.06 28.48,7.58 77.3,100.41 77.3,100.41 z"
       id="path334" />
    <path
       class="cls-30"
       d="m 2176.6,996.08 7.79,51.53 c 0,0 -28.45,61.36 -45.44,56 -14.25,-4.47 -5.48,-58.76 -5.48,-58.76 0,0 7.76,-29.15 5.43,-43.74 -2.33,-14.59 37.7,-5.03 37.7,-5.03 z"
       id="path336" />
    <path
       class="cls-34"
       d="m 2138.9,1001.15 c -2.32,-14.59 37.7,-5.07 37.7,-5.07 l 0.65,4.28 a 23.92,23.92 0 0 1 -4.34,7.18 c -8.94,9.65 -22.92,15.45 -35,15.89 1.21,-7.87 1.95,-16.3 0.99,-22.28 z"
       id="path338" />
    <path
       class="cls-30"
       d="m 2183.17,923.18 c 1.13,-0.41 9.07,58.69 -6,75 -15.07,16.31 -44.4,21.59 -54.93,8.78 -11.64,-14.17 -11,-77.69 12.36,-94.42 23.36,-16.73 48.57,10.64 48.57,10.64 z"
       id="path340" />
    <path
       class="cls-35"
       d="m 2143.52,880.88 a 65,65 0 0 1 34.13,19.53 c 8.22,1 19.39,5.53 30.92,24.69 14.18,23.56 3.71,49.67 -12.8,62.48 -16.51,12.81 -16.28,27.6 -16.28,27.6 l -2.61,-7.65 a 43,43 0 0 1 -2.07,-18 35.49,35.49 0 0 1 2.67,-10.83 c 4,-8.56 -8.53,-14.24 -12,-21.36 -2.7,-5.48 -2.83,-18 -7.09,-27.07 l -5.07,-6.92 c 0,0 -11.72,-9.14 -23.18,-6.56 -11.46,2.58 -9.85,-40.67 13.38,-35.91 z"
       id="path342" />
    <path
       class="cls-30"
       d="m 2166.22,967.83 c -0.12,7.21 3.14,13.11 7.29,13.19 4.15,0.08 7.61,-5.72 7.73,-12.93 0.12,-7.21 -3.14,-13.09 -7.24,-13.19 -4.1,-0.1 -7.66,5.72 -7.78,12.93 z"
       id="path344" />
    <path
       class="cls-11"
       d="m 2141.76,984.49 -22.7,-1.18 c 0,0 0.07,8.68 10,9.49 12.2,0.99 12.7,-8.31 12.7,-8.31 z"
       id="path346" />
    <polygon
       class="cls-23"
       points="1085.28,1614.68 1074.18,1616.79 1122.15,1872.11 1133.25,1869.99 "
       id="polygon348" />
    <polygon
       class="cls-23"
       points="1034.84,1614.68 1045.94,1616.79 998.42,1873.27 985.07,1873.27 "
       id="polygon350" />
    <polygon
       class="cls-23"
       points="790.35,1614.68 801.46,1616.79 753.94,1873.27 740.59,1873.27 "
       id="polygon352" />
    <polygon
       class="cls-23"
       points="838.75,1615.84 827.64,1617.95 875.61,1873.27 886.46,1873.4 "
       id="polygon354" />
    <path
       class="cls-36"
       d="m 924.05,1266.43 c -44,4.72 -100.86,9.71 -158,107 -62.42,106.29 -29.56,265.07 19.71,309.19 49.27,44.12 210.18,98.6 345.45,17 0,0 81.68,-49.42 39.76,-131.45 -64.5,-126.23 -55.39,-152.56 -84.23,-202 -28.84,-49.44 -69.37,-109.77 -162.69,-99.74 z"
       id="path356" />
    <path
       class="cls-37"
       d="m 766.08,1373.39 c 39,-66.38 77.86,-89.77 112.6,-99.44 -13.44,14 -27.06,31.9 -40.69,55.12 -62.43,106.29 -29.57,265.07 19.7,309.19 43.7,39.13 175.19,86.38 298.74,39.7 a 125.28,125.28 0 0 1 -25.19,21.66 c -135.27,81.56 -296.18,27.08 -345.45,-17 -49.27,-44.08 -82.13,-202.94 -19.71,-309.23 z"
       id="path358" />
    <polygon
       class="cls-38"
       points="1042.06,1448.41 1065.19,1427.99 1076.49,1462 "
       id="polygon360" />
    <path
       class="cls-39"
       d="m 1029.69,1326.77 c 2.3,0.09 8.59,2.2 17.79,19.58 11.75,22.2 28.92,89.27 28.92,89.27 l -51.25,19.09 -6.59,-14 -10.84,-107.77 c 0,0 21.34,-6.2 21.97,-6.17 z"
       id="path362" />
    <path
       class="cls-9"
       d="m 962,1317.1 c 14.65,0 50.91,4.29 67.74,9.67 0,0 12.37,106.27 -11.13,187 -5.26,18.08 4.35,74.94 4.35,74.94 l -151.86,-2 c 0,0 18,-137.45 11.21,-159.65 -6.79,-22.2 -6.94,-99.58 -6.94,-99.58 l 34.12,-5.88 a 343.56,343.56 0 0 1 52.51,-4.5 z"
       id="path364" />
    <path
       class="cls-40"
       d="m 944.25,1786 c 0,0 3.36,38.77 9.54,49.51 6.18,10.74 -0.33,29 -0.65,31.5 -0.32,2.5 -13,6.09 -33.17,3.94 -20.17,-2.15 -19.83,-6.8 -18.2,-14.32 1.63,-7.52 12.35,-17.18 13,-24.34 0.65,-7.16 -6.18,-32.93 -6.18,-32.93 z"
       id="path366" />
    <path
       class="cls-26"
       d="m 1005.78,1556.72 c 0,0 104.83,-5.82 128.24,8.36 23.41,14.18 -4.23,43.29 -4.23,43.29 0,0 -85.35,37.1 -228.23,45.35 -33.83,2 -36.75,-88.22 -30.42,-95.68 6.33,-7.46 134.64,-1.32 134.64,-1.32 z"
       id="path368" />
    <path
       class="cls-35"
       d="m 917.46,1873.93 c -20.76,-2.21 -18.19,-12.41 -16.52,-20.15 1,-4.85 7,-10.56 10.56,-16 1.85,1.47 4.87,4.08 13.88,6.75 9.36,2.76 22.19,-2.71 30.37,-6.14 a 100.21,100.21 0 0 1 2.78,26.78 c -0.34,2.62 -20.31,10.97 -41.07,8.76 z"
       id="path370" />
    <path
       class="cls-41"
       d="m 928.92,1631.72 c 4.18,31.69 24.92,189.47 24.92,189.47 l -48.12,6 c 0,0 -59.17,-205.93 -56.13,-237.43 3.04,-31.5 25.18,-34.15 25.18,-34.15 0,0 43.06,-7.79 54.15,76.11 z"
       id="path372" />
    <path
       class="cls-40"
       d="m 873.67,1339.3 c 14.2,-5.33 21.14,122.61 23.06,175.27 25.14,2.42 69,0 79.88,-0.8 5.14,-0.39 17,-4.72 22.07,-5.39 5.07,-0.67 10,-1 12.55,-0.59 0.94,0.16 27.15,10.88 29.39,13.23 2.79,2.91 10.3,10.27 9,13.45 -1.3,3.18 -14.45,-8.86 -14.45,-8.86 l -6.45,-3.62 c 8,7.84 23.33,18.16 21.12,21.92 -2.21,3.76 -15.95,-6.81 -25.79,-14 8.44,7.62 18.92,21.27 16.51,23.39 -2.17,1.91 -14.1,-13.88 -26.84,-18.43 -4.73,-1.68 -9.44,3 -13.15,3.55 -2.73,0.41 -7,1.29 -9.63,0.53 l -13.8,-3.91 c -4.7,0.43 -4.82,3.21 -9.56,4.22 -5.51,1.17 -14.56,2.41 -21.57,4.12 -40.42,9.88 -53.9,14.46 -66.27,14.45 -37.46,0.03 -39.63,-205.94 -6.07,-218.53 z"
       id="path374" />
    <path
       class="cls-39"
       d="m 846.72,1459.41 c -2.66,-53.94 -2.27,-120.42 28,-131.77 11.93,-4.47 33,22.44 29.18,132.87 -16.17,1.33 -39.9,2.4 -57.18,-1.1 z"
       id="path376" />
    <polygon
       class="cls-38"
       points="966.47,1550.1 969.66,1549.62 1015.89,1436.23 1012.81,1436.23 "
       id="polygon378" />
    <path
       class="cls-40"
       d="m 1085,1819.14 c 0,0 -4.19,13.46 3.32,22.36 7.51,8.9 38.76,17.64 42.86,22.46 4.1,4.82 3.79,8.92 3.79,8.92 l -87.68,-2.41 1,-26.48 4,-19 z"
       id="path380" />
    <path
       class="cls-35"
       d="m 1093.73,1845.94 c 0,0 -22.53,9.11 -33.41,3.72 -10.88,-5.39 -10.56,-6.89 -13.71,-4.88 -3.15,2.01 -4.27,26.83 -4.27,26.83 l 98.59,2.9 c 6.86,-0.16 10.33,-5.21 4.75,-9.54 -3.82,-3 -8.23,-5 -10.74,-6.39 -7.72,-4.42 -41.21,-12.64 -41.21,-12.64 z"
       id="path382" />
    <path
       class="cls-41"
       d="m 1081.63,1581.57 c 6.78,-14.26 22.19,-32.83 49.31,-21.65 25.86,10.67 32.81,36.88 24.65,63.72 -8.16,26.84 -61.89,184.64 -63.76,206.34 l -42.89,0.28 c 0,0 7.79,-124.94 9.7,-155.14 1.84,-29.06 11.26,-68.87 22.99,-93.55 z"
       id="path384" />
    <path
       d="m 1151.27,1436.23 h -143.39 a 9.35,9.35 0 0 0 -8.65,5.83 l -44.15,108 H 876 a 4,4 0 0 0 -4,4 v 0 a 4,4 0 0 0 4,4 h 225 a 15.71,15.71 0 0 0 14.33,-9.31 l 44.45,-99.36 a 9.38,9.38 0 0 0 -8.51,-13.16 z"
       id="path386" />
    <path
       class="cls-11"
       d="m 1074.07,1499.15 c -1,4.85 -5.19,8.1 -9.43,7.25 -4.24,-0.85 -6.88,-5.47 -5.91,-10.33 0.97,-4.86 5.19,-8.1 9.42,-7.25 4.23,0.85 6.85,5.48 5.92,10.33 z"
       id="path388" />
    <path
       class="cls-23"
       d="m 996,1187.3 a 108.44,108.44 0 0 1 -12.68,-5.07 c -4.65,-2.24 -10.67,-4.87 -14.47,-5.45 -8,-1.24 -21.75,-0.41 -29.34,7.82 -9.46,10.26 -26.26,1.85 -22.88,55.59 3.84,60.82 37.65,54.14 38.48,53.11 0.83,-1.03 30.16,-38.91 30.16,-38.91 0,0 10.26,22.44 10.26,21.62 0,-0.82 52.4,-71.22 0.47,-88.71 z"
       id="path390" />
    <path
       class="cls-40"
       d="m 970.35,1297.8 2.92,21.73 c 0,0 6.54,31.31 -1.88,37.35 -8.42,6.04 -35.78,-38.24 -35.78,-38.24 l 2.89,-55.07 z"
       id="path392" />
    <path
       class="cls-42"
       d="m 937.57,1281.41 c 6.95,18.79 23.5,30.33 35.25,34.81 l -2.47,-18.42 -31.85,-34.23 z"
       id="path394" />
    <path
       class="cls-40"
       d="m 968.62,1203.64 c 17.83,-2.88 33.82,11.46 33.37,29.31 a 219.77,219.77 0 0 1 -2.44,27.87 c -3.88,25.09 -21,47.18 -32.31,45.21 -11.31,-1.97 -39.79,-23.61 -34.78,-59.32 3.1,-22.04 17.45,-40.05 36.16,-43.07 z"
       id="path396" />
    <path
       class="cls-40"
       d="m 940.31,1251 c -0.95,5.52 -5.37,9.36 -9.87,8.57 -4.5,-0.79 -7.36,-5.89 -6.41,-11.4 0.95,-5.51 5.38,-9.36 9.87,-8.57 4.49,0.79 7.37,5.86 6.41,11.4 z"
       id="path398" />
    <path
       class="cls-23"
       d="m 933.9,1239.57 c 0,0 13.69,3.4 18.76,-5.4 5.07,-8.8 23.24,-27.8 46.32,-19.92 23.08,7.88 -20.31,-19.15 -22.16,-19.15 -1.85,0 -24,-0.15 -24,-0.15 0,0 -17.08,14 -17.7,15.59 -0.62,1.59 -5.54,18.38 -5.54,18.38 z"
       id="path400" />
    <path
       class="cls-11"
       d="m 958.94,1276.29 24.9,4.76 c 0,0 -2.38,9.38 -13.39,7.6 -13.45,-2.16 -11.51,-12.36 -11.51,-12.36 z"
       id="path402" />
  </g>
  <g
     id="Layer_4"
     data-name="Layer 4"
     style="isolation:isolate">
    <path
       class="cls-19"
       d="m 2355.19,858.46 c 4.14,0.51 7.66,-4.1 6.63,-8 -1.66,-6.22 -3.22,-12.47 -4.82,-18.71 -3.52,-13.79 -4.09,-14.22 -3.12,-15.38 2.31,-2.78 7.87,0.45 9.81,1.84 4.3,3.06 7.85,7.24 12.75,9.41 9.56,4.21 19,-1.23 17.49,-12.16 -1.42,-10 -3.43,-20 -5.49,-30 10,5.34 19.85,11 29.91,16.18 A 4.48,4.48 0 0 0 2425,797 c -1.07,-8.8 -4.23,-34.84 -5.27,-43.43 -0.27,-2.22 -2.75,-12.42 -0.51,-13.56 2,-1 8.72,3.17 10.32,3.91 8.86,4.1 12,5.43 41.15,18.11 3.47,1.51 7.95,-2.51 6.69,-6.14 -12.32,-35.77 -7.84,-37.35 -14.13,-43.72 -1.41,-1.43 -3.35,-0.76 -4.13,0.9 -2,4.23 -2.17,5.38 1.59,21.81 q 1.47,6.38 3.24,12.66 c -35.06,-16.07 -43.52,-21 -50.92,-14.22 -5.13,4.68 -3.93,6.72 2.19,56 -10.19,-6.15 -20.7,-11.64 -31.17,-17.38 a 5.1,5.1 0 0 0 -7.63,5.37 c 5.27,35.82 6.86,36.54 6.48,39.82 0,0.09 1.77,1.1 -1,0 -4.73,-1.88 -11.58,-11.62 -21.21,-13.31 -8.48,-1.49 -18.27,2.88 -19.07,12.36 -0.47,5.51 0.92,7.92 5.5,28.15 a 132.19,132.19 0 0 0 -31.3,0.84 c -4.72,0.67 -7.74,1.72 -11.46,4.73 -3,2.47 -1.9,8.26 2,9.19 11.03,2.61 18.24,-4.39 48.83,-0.63 z"
       id="path405" />
    <path
       class="cls-9"
       d="m 2521.6,1002.72 a 163.37,163.37 0 0 1 6.49,-28.27 c 0.59,-1.81 1.28,-5.31 3.47,-5.9 5.26,-1.43 9.64,8.18 25.6,17 6.93,3.82 20.92,12.34 27.14,3.35 3.18,-4.6 4,-11.37 5.58,-16.67 1.18,-4 2.52,-8 3.77,-12 25.4,16.08 23.34,17.23 30.44,16.36 a 3.7,3.7 0 0 0 2.92,-4.3 c -1.91,-6.77 -1.66,-4.92 -33.49,-25.52 -2.9,-1.88 -7.47,-0.84 -8.52,2.78 -1.6,5.45 -7.5,30.5 -8.71,33.46 -0.23,-0.28 -1.63,-0.42 -1.92,-0.52 -11.45,-3.85 -19.94,-10.94 -29.16,-18.4 -7.55,-6.11 -19.22,-9.66 -25.19,0.56 -3.24,5.54 -6.31,18.06 -8.25,27.82 -15.27,-10.43 -30.48,-21 -45.81,-31.29 -3,-2 -8.49,-1 -9.4,3.06 -2.53,11.24 -5.44,22.36 -8.43,33.47 a 106.61,106.61 0 0 1 -23.58,-22.49 c -4.92,-6.39 -15.51,0 -2,15.29 a 102.65,102.65 0 0 0 25.84,22.21 c 3.27,2 8.2,1 9.43,-3.07 3.28,-10.91 6.07,-22 8.64,-33.09 15.35,10.2 30.8,20.24 46.14,30.44 3.78,2.52 8.4,0 9,-4.28 z"
       id="path407" />
    <path
       class="cls-15"
       d="m 2514.18,1241.27 c -0.94,3.38 0.57,6.16 3.57,7.68 14.67,7.41 29.59,13.41 45.95,15.4 8.51,1 9.21,-11.89 1,-13.39 -12.81,-2.36 -25.84,-5.46 -37.9,-10.8 a 134.45,134.45 0 0 1 12,-26.42 c 1.89,-3.17 1,-8.45 -3.06,-9.53 -10.09,-2.71 -48.61,-11.78 -49.06,-11.47 a 2.19,2.19 0 0 0 0.27,-1 c 0.46,-4.25 7.49,-17 9.05,-23.39 1.74,-7.12 -6.83,-12.45 -12.32,-14.67 -11.13,-4.52 -26.3,0 -36.14,-7.8 -9.46,-7.48 7.63,-20.73 2.89,-36.47 -3.65,-12.13 -16,-12.49 -35.19,-14.39 -4.7,-0.47 -9.29,-0.87 -12.83,2.83 a 3.21,3.21 0 0 0 -0.72,3.71 c 3.94,6.69 11.16,6.35 28.53,8.54 2.21,0.28 6.14,0.09 7.55,2.21 4.7,7 -8.69,18.58 -4.87,32.8 3,11.09 14,16.24 24.15,18 7.94,1.36 18.74,-0.28 25.71,4.8 -2.41,6.54 -5,13.08 -6.92,19.75 -2.07,7.3 0.13,13.46 7.27,16.24 7.89,3.08 16.64,4.47 24.82,6.5 5.51,1.37 11,2.76 16.53,4.08 a 151.36,151.36 0 0 0 -10.28,26.79 z"
       id="path409" />
    <path
       class="cls-15"
       d="m 2194,685.48 c -32.74,-48.41 -64.32,-23 -56.24,-4.56 3.46,7.9 12.79,11.24 19.7,5.52 3.17,-2.63 1.55,-9 -2.91,-8.94 -3.68,0.06 -3.34,-4 0.68,-4.43 5.42,-0.56 10.23,4.72 13.73,8.16 8.18,8 18.89,18.32 16.92,31 -3,18.88 -27.12,32.6 -51.33,13.87 -34.91,-27 -13.81,-91 31.22,-89.27 24.5,0.94 46.09,17.9 54.48,40.78 1.64,4.47 7.79,1.64 7.41,-2.47 -2.88,-31.12 -35.22,-52.28 -64.94,-50.87 -30.48,1.44 -52.89,26.45 -57.14,55.8 -4.46,30.78 13.46,62.83 45.17,68.84 34.81,6.57 66.18,-29.58 43.25,-63.43 z"
       id="path411" />
    <path
       class="cls-4"
       d="m 2465.37,1333.79 c -5.6,-7 -19.27,-14.42 -26.88,-6.21 -3.54,3.81 -3.95,9.7 0.75,13 4.7,3.3 10.14,1.86 12.67,7.73 2.17,5 -1.58,10.23 -5.74,12.93 -12.65,8.24 -31.61,-1.09 -41,-10.54 -14.88,-15 -10.41,-41.38 12.39,-47.85 7.14,-2 14.35,-0.77 21.6,-0.34 4,0.24 7.58,-5.15 4.21,-8.33 -12.93,-12.22 -34.66,-7.94 -47.53,2.32 -13.51,10.77 -18.9,30.24 -14.24,46.71 5.2,18.39 22.68,32 40.54,37.08 37.11,10.55 61.36,-23.68 43.23,-46.5 z"
       id="path413" />
    <path
       class="cls-9"
       d="m 2580.94,467.25 -0.61,66.33 42,-39.57 132.48,-90 -108.13,23.59 c 0,0 -54,20.47 -56.72,23.58 -2.72,3.11 -9.02,16.07 -9.02,16.07 z"
       id="path415" />
    <polygon
       class="cls-27"
       points="2580.93,467.25 2527.66,433.84 2754.84,404.03 "
       id="polygon417" />
    <polygon
       class="cls-27"
       points="2754.84,404.03 2662.1,523.86 2596.62,483.21 "
       id="polygon419" />
    <path
       class="cls-43"
       d="m 2292.85,741 a 145.22,145.22 0 0 1 1,-15.95 c 0.58,-4.89 1.42,-9.85 2.5,-14.73 l 5.27,1.17 c -1,4.71 -1.85,9.49 -2.41,14.2 a 137,137 0 0 0 -1,15.37 c 0,1.49 0,3 0,4.47 l -5.39,0.12 c 0.03,-1.54 0.02,-3.11 0.03,-4.65 z m 14.81,-64.26 A 204.47,204.47 0 0 1 2325,646 l 4.45,3.06 a 200.31,200.31 0 0 0 -16.92,30 z M 2476.14,645 c -0.34,-0.15 -0.67,-0.32 -1,-0.49 l 2.42,-4.83 c 0.29,0.14 0.58,0.29 0.83,0.4 a 2.8,2.8 0 0 0 0.56,0.11 c 3,0.36 10.66,-0.6 14.64,-3.7 a 22.91,22.91 0 0 0 7.45,-10.93 l 5.1,1.77 a 28.54,28.54 0 0 1 -9.24,13.43 c -5.52,4.31 -14.83,5.25 -18.59,4.8 A 6.84,6.84 0 0 1 2476.14,645 Z M 2347,618.39 a 281.31,281.31 0 0 1 25.39,-24.4 l 3.48,4.13 A 274.47,274.47 0 0 0 2351,622.06 Z m 102.63,-12.63 a 66.55,66.55 0 0 1 0,-16 79.37,79.37 0 0 1 1.62,-9 l 5.25,1.27 a 72.52,72.52 0 0 0 -1.51,8.36 60.25,60.25 0 0 0 0,14.7 50.73,50.73 0 0 0 2.28,9.9 l -5.1,1.75 a 55.68,55.68 0 0 1 -2.57,-10.98 z m 22.37,-30.54 -0.72,-0.25 1.68,-5.14 0.78,0.26 c 11.71,4 21.92,11.79 28,21.38 l -4.54,2.91 c -5.48,-8.57 -14.67,-15.55 -25.2,-19.16 z m -68.77,1.12 c 5.72,-2.56 16.16,-7 21.82,-8 4.39,-0.76 8.44,-1.31 12.37,-1.67 l 0.49,5.39 c -3.78,0.35 -7.69,0.88 -11.95,1.61 -3.71,0.64 -11.2,3.41 -20.54,7.58 z m 62.62,-28.16 a 121,121 0 0 1 23.72,-26.49 l 3.44,4.17 a 115.33,115.33 0 0 0 -22.66,25.31 z"
       id="path421" />
    <path
       class="cls-43"
       d="m 2522,508.3 a 103.76,103.76 0 0 1 16.51,-5.29 l -1.2,-5.28 a 109.1,109.1 0 0 0 -17.37,5.56 z"
       id="path423" />
  </g>
</svg>
