<?xml version="1.0" encoding="UTF-8" standalone="no"?>
<svg
   xmlns:dc="http://purl.org/dc/elements/1.1/"
   xmlns:cc="http://creativecommons.org/ns#"
   xmlns:rdf="http://www.w3.org/1999/02/22-rdf-syntax-ns#"
   xmlns:svg="http://www.w3.org/2000/svg"
   xmlns="http://www.w3.org/2000/svg"
   xmlns:sodipodi="http://sodipodi.sourceforge.net/DTD/sodipodi-0.dtd"
   xmlns:inkscape="http://www.inkscape.org/namespaces/inkscape"
   viewBox="0 0 2901.01 1490.7528"
   version="1.1"
   id="svg11824"
   sodipodi:docname="enterpernueshisdjnc.svg"
   width="2901.01"
   height="1490.7528"
   inkscape:version="1.0.1 (0767f8302a, 2020-10-17)">
  <metadata
     id="metadata11828">
    <rdf:RDF>
      <cc:Work
         rdf:about="">
        <dc:format>image/svg+xml</dc:format>
        <dc:type
           rdf:resource="http://purl.org/dc/dcmitype/StillImage" />
        <dc:title></dc:title>
      </cc:Work>
    </rdf:RDF>
  </metadata>
  <sodipodi:namedview
     pagecolor="#ffffff"
     bordercolor="#666666"
     borderopacity="1"
     objecttolerance="10"
     gridtolerance="10"
     guidetolerance="10"
     inkscape:pageopacity="0"
     inkscape:pageshadow="2"
     inkscape:window-width="1858"
     inkscape:window-height="1016"
     id="namedview11826"
     showgrid="false"
     fit-margin-top="10"
     fit-margin-left="10"
     fit-margin-right="10"
     fit-margin-bottom="10"
     inkscape:zoom="0.4078125"
     inkscape:cx="1422.02"
     inkscape:cy="764.97282"
     inkscape:window-x="62"
     inkscape:window-y="27"
     inkscape:window-maximized="1"
     inkscape:current-layer="svg11824" />
  <defs
     id="defs11240">
    <style
       id="style11238">.cls-1{fill:#032624;}.cls-2{opacity:0.2;}.cls-3{fill:#92e7e8;}.cls-4{fill:#1faaad;}.cls-5{fill:#f7a9c9;}.cls-6{fill:#ea526f;}.cls-7{fill:#2ae8e8;}.cls-8{fill:#26bfbb;}.cls-9{fill:#25ced1;}.cls-10{fill:#5b061b;}.cls-11{opacity:0.3;}.cls-12{fill:#ffb27d;}.cls-13{fill:#2b8789;}.cls-14{fill:#245e60;}.cls-15{fill:#ed985f;}.cls-16{fill:#b53150;}.cls-17{fill:#d873a1;}.cls-18{fill:#aff7f9;}.cls-19{fill:#ffdbc2;}.cls-20{fill:#187a7a;}.cls-21{fill:#7f213c;}.cls-22{fill:#e2b596;}.cls-23{fill:#fff;}.cls-24{fill:#ebf3ff;}.cls-25{fill:#5e3c25;}.cls-26{fill:#1e3d70;}.cls-27{fill:#d67fa6;}.cls-28{fill:#422715;}.cls-29{fill:#050505;}</style>
  </defs>
  <path
     class="cls-3"
     d="m 195.22,1477.1528 c 0,0 -348.38,-349.56 -58.92,-727.99998 256.83,-335.78 556.27,-312.82 776,-176.56 93.57,58 363.34,7.15 593,-334.52 313.04,-465.94 1398.45,-183.35 1200.54,533.52 -95.77,346.90998 291.47,359.51998 94.16,706.28998 z"
     id="path11245"
     style="opacity:0.2" />
  <g
     id="Layer_3"
     data-name="Layer 3"
     transform="translate(-177.98,-235.02718)">
    <path
       class="cls-4"
       d="m 1926.82,1565.55 c 0,-0.2 1.1,-22.77 -9.8,-28 l 0.77,-0.74 c 5,1.74 10.53,7.13 12.74,14.75 1.65,5.66 0.4,6.9 0.41,7.11 z"
       transform="translate(-0.01,-0.01)"
       id="path11248" />
    <path
       class="cls-4"
       d="m 1854.54,1507.05 c 0,0 3.73,29.06 21.45,37.57 17.72,8.51 42.72,-6.77 42.72,-6.77 0,0 -3.73,-29.06 -21.45,-37.56 -17.72,-8.5 -42.72,6.76 -42.72,6.76 z"
       transform="translate(-0.01,-0.01)"
       id="path11250" />
    <path
       class="cls-4"
       d="m 1925,1607.89 c -0.2,-1.13 -4.14,-27.72 5.92,-57.34 9.67,-28.47 4.32,-52.6 4.28,-52.84 h 7.11 c 0.18,1 0.68,24.72 -6.9,57.18 -6.82,29.22 5.91,53 3.2,53 z"
       transform="translate(-0.01,-0.01)"
       id="path11252" />
    <path
       class="cls-4"
       d="m 1939.9,1529.42 c 0,-0.16 3.43,-19.63 12.57,-21.85 v 0 a 17,17 0 0 0 -12.18,8.9 c -2.15,4 -1.4,5.19 -1.44,5.35 z"
       transform="translate(-0.01,-0.01)"
       id="path11254" />
    <path
       class="cls-4"
       d="m 1969.22,1531.43 c -13.66,-2.76 -21.28,-22.07 -21.28,-22.07 0,0 14.52,-14.84 28.18,-12.09 13.66,2.75 21.27,22.07 21.27,22.07 0,0 -14.52,14.85 -28.17,12.09 z"
       transform="translate(-0.01,-0.01)"
       id="path11256" />
    <path
       class="cls-5"
       d="m 1863.14,1468.49 a 71.58,71.58 0 1 1 99.15,20.41 71.59,71.59 0 0 1 -99.15,-20.41 z"
       transform="translate(-0.01,-0.01)"
       id="path11258" />
    <path
       class="cls-6"
       d="m 1959.26,1484.29 a 65.22,65.22 0 1 1 28,-41.32 64.77,64.77 0 0 1 -28,41.32 z m -69.61,-105.68 a 61.33,61.33 0 1 0 84.95,17.49 61.4,61.4 0 0 0 -84.95,-17.49 z"
       transform="translate(-0.01,-0.01)"
       id="path11260" />
    <path
       class="cls-6"
       d="m 1941.29,1440.7 a 10.55,10.55 0 0 0 -2.21,-3.08 7.84,7.84 0 0 0 -3.06,-1.75 15.51,15.51 0 0 0 -4.23,-0.6 39.69,39.69 0 0 0 -5.67,0.41 102.42,102.42 0 0 1 -10.42,0.84 32.51,32.51 0 0 1 -8.79,-0.89 19,19 0 0 1 -7.12,-3.45 21.6,21.6 0 0 1 -7.51,-14.57 18.16,18.16 0 0 1 1.13,-7.47 22.7,22.7 0 0 1 4.15,-6.86 30.3,30.3 0 0 1 7,-5.83 l -4.85,-9.68 7.79,-3.9 4.92,9.81 a 26.82,26.82 0 0 1 8.7,-1.59 20.47,20.47 0 0 1 14.81,5.91 27.32,27.32 0 0 1 5.38,7.52 l -14.07,7 c -1.82,-3.61 -4,-5.92 -6.48,-6.91 a 9.24,9.24 0 0 0 -7.8,0.54 11.8,11.8 0 0 0 -3.47,2.5 7.88,7.88 0 0 0 -1.76,3 7.49,7.49 0 0 0 -0.26,3.27 10.8,10.8 0 0 0 1.08,3.36 9.9,9.9 0 0 0 2,2.79 7.32,7.32 0 0 0 2.93,1.67 14.94,14.94 0 0 0 4.25,0.58 50.62,50.62 0 0 0 6,-0.34 q 5.61,-0.6 10.41,-0.69 a 32.4,32.4 0 0 1 8.78,1 19.2,19.2 0 0 1 7.13,3.47 19.39,19.39 0 0 1 5.34,6.83 19.66,19.66 0 0 1 2.19,7.84 18,18 0 0 1 -1.18,7.44 21.56,21.56 0 0 1 -4.25,6.76 32.61,32.61 0 0 1 -7,5.8 l 4.5,9 -7.74,3.88 -4.48,-9 a 36.21,36.21 0 0 1 -8.7,2.15 23,23 0 0 1 -8.65,-0.56 20.56,20.56 0 0 1 -7.91,-4.1 25.44,25.44 0 0 1 -6.42,-8.44 l 14.08,-7 a 15.49,15.49 0 0 0 3.58,4.91 10,10 0 0 0 4.13,2.23 9.64,9.64 0 0 0 4.34,0.09 16.3,16.3 0 0 0 4.18,-1.44 13.88,13.88 0 0 0 3.72,-2.6 9.27,9.27 0 0 0 2.08,-3.08 7.25,7.25 0 0 0 0.52,-3.34 8.86,8.86 0 0 0 -1.09,-3.43 z"
       transform="translate(-0.01,-0.01)"
       id="path11262" />
    <polygon
       class="cls-7"
       points="1995.06,1622.96 1989.76,1704.37 1890.69,1704.37 1884.85,1624.07 1883.25,1601.94 1883.18,1600.97 1996.49,1600.97 1996.48,1601.03 "
       id="polygon11264" />
    <path
       class="cls-8"
       d="m 1996.49,1601 -1.43,21.93 a 173.48,173.48 0 0 0 -55.22,-8.85 c -34.13,0 -55,10 -55,10 l -1.61,-22.13 z"
       transform="translate(-0.01,-0.01)"
       id="path11266" />
    <polygon
       class="cls-7"
       points="1878.21,1598.57 2001.46,1598.57 1999.93,1612.56 1879.58,1612.56 "
       id="polygon11268" />
    <polygon
       class="cls-8"
       points="1887.38,1703.84 1992.59,1703.84 1991.28,1708.71 1888.56,1708.71 "
       id="polygon11270" />
    <rect
       class="cls-6"
       x="187.98"
       y="1708.14"
       width="2881.01"
       height="7.6399999"
       rx="3.26"
       id="rect11272"
       ry="3.26" />
    <path
       class="cls-4"
       d="m 1597.21,1277.36 c 0,-0.6 3.31,-68.61 -29.55,-84.26 l 2.32,-2.22 c 15,5.25 31.73,21.5 38.41,44.44 5,17 1.19,20.79 1.21,21.43 z"
       transform="translate(-0.01,-0.01)"
       id="path11274" />
    <path
       class="cls-4"
       d="m 1511.41,1142.65 c 0,0 -3.75,35 14.57,49.87 18.32,14.87 51.79,4 51.79,4 0,0 3.76,-35 -14.57,-49.86 -18.33,-14.86 -51.79,-4.01 -51.79,-4.01 z"
       transform="translate(-0.01,-0.01)"
       id="path11276" />
    <path
       class="cls-4"
       d="m 1591.6,1404.93 c -0.62,-3.42 -12.47,-83.51 17.84,-172.77 29.13,-85.76 13,-158.47 12.87,-159.19 h 21.44 c 0.55,3.1 2,74.47 -20.79,172.28 -20.54,88 17.82,159.68 9.65,159.68 z"
       transform="translate(-0.01,-0.01)"
       id="path11278" />
    <path
       class="cls-4"
       d="m 1636.61,1168.48 c 0.11,-0.45 10.34,-59.14 37.86,-65.81 v 0 c -12.3,1.6 -27.93,10.41 -36.67,26.81 -6.5,12.19 -4.23,15.64 -4.35,16.13 z"
       transform="translate(-0.01,-0.01)"
       id="path11280" />
    <path
       class="cls-4"
       d="m 1526.47,1012.83 c 0,0 -29.69,-41.91 -63.4,-54.22 0,0 12.6,98.31 -5.83,99.53 -18.43,1.22 -6.15,-110.56 -6.15,-110.56 0,0 -87.83,-48.76 -123.49,-47.41 0,0 50.49,98.23 32.32,94.87 -18.17,-3.36 -75.46,-103.14 -75.46,-103.14 0,0 -91.65,-22.58 -109.74,31.45 -18.09,54.03 4.33,82.9 17.85,87.14 13.52,4.24 101.68,8.25 98.72,19.56 -2.96,11.31 -63.51,26.12 -96.08,13.88 0,0 31.31,92.52 79.62,90.76 48.31,-1.76 64.93,-30.64 94.81,-31.18 29.88,-0.54 51.14,8.74 35.8,15.87 -15.34,7.13 -65.36,-1.19 -90.58,17.82 -25.22,19.01 -45.4,30.46 -1.33,42.23 44.07,11.77 110.61,-1.52 142.18,-22.56 0.09,-0.06 25.85,-2.11 46.13,117.13 7.82,46 1.8,114.16 1.8,114.16 l 16.36,-2.5 c 9.08,-133.65 -39.16,-244.77 -39.16,-244.77 0,0 81.84,-60.51 45.63,-128.06 z"
       transform="translate(-0.01,-0.01)"
       id="path11282" />
    <path
       class="cls-4"
       d="m 1794.13,1189.23 c 0,0 -98.61,-41.43 -63.32,-116.81 0,0 29.73,-47.19 65.56,-62.51 0,0 -7.89,107.33 12.17,107.56 20.06,0.23 0.17,-120.23 0.17,-120.23 0,0 92.36,-58 131.11,-58.67 0,0 -49,109.48 -29.47,104.77 19.53,-4.71 75.75,-116.27 75.75,-116.27 0,0 98.05,-29.88 120.84,27.64 22.79,57.52 0.19,90.15 -14.23,95.53 -14.42,5.38 -109.76,14.93 -105.89,27 3.87,12.07 70.41,24.59 105,9.4 0,0 -28.51,102.15 -81,103.09 -52.49,0.94 -72.2,-29.4 -104.62,-28.23 -32.42,1.17 -54.94,12.48 -37.89,19.31 17.05,6.83 70.8,-5.14 99.26,14 28.46,19.14 51,30.35 3.92,45.7 -47.08,15.35 -134.35,19 -155.86,-16.16 z"
       transform="translate(-0.01,-0.01)"
       id="path11284" />
    <path
       class="cls-9"
       d="m 2063.29,978.44 c 0,0 -250.13,113.47 -269.16,210.79 0,0 6,41.9 -14.51,93.06 l 2.09,18.54 c 0,0 20.07,-66.13 33.92,-76.46 0,0 -67.34,-75.03 247.66,-245.93 z"
       transform="translate(-0.01,-0.01)"
       id="path11286" />
    <path
       class="cls-9"
       d="m 1779.62,1282.29 c 0,0 -33.16,65.34 -2,136.77 l 10,-3.93 c 0,0 -19.23,-80.4 -2.92,-123.77 16.31,-43.37 -5.08,-9.07 -5.08,-9.07 z"
       transform="translate(-0.01,-0.01)"
       id="path11288" />
    <path
       class="cls-4"
       d="m 1418.16,740.42 c 40.41,43 19.39,128.41 19.39,128.41 0,0 -86.56,15.68 -127,-27.32 -40.44,-43 -19.39,-128.42 -19.39,-128.42 0,0 86.58,-15.68 127,27.33 z"
       transform="translate(-0.01,-0.01)"
       id="path11290" />
    <path
       class="cls-9"
       d="m 1418.16,740.42 c 40.41,43 19.39,128.41 19.39,128.41 L 1291.19,713.09 c 0,0 86.55,-15.68 126.97,27.33 z"
       transform="translate(-0.01,-0.01)"
       id="path11292" />
    <path
       class="cls-4"
       d="m 1939.38,904.23 c -21.09,24.43 -68.74,17.86 -68.74,17.86 0,0 -13.46,-46.19 7.63,-70.62 21.09,-24.43 68.73,-17.86 68.73,-17.86 0,0 13.47,46.19 -7.62,70.62 z"
       transform="translate(-0.01,-0.01)"
       id="path11294" />
    <path
       class="cls-4"
       d="m 1690.11,1119.15 c -14.14,3.92 -30.5,-10.58 -30.5,-10.58 0,0 6.56,-20.86 20.69,-24.78 14.13,-3.92 30.51,10.58 30.51,10.58 0,0 -6.56,20.86 -20.7,24.78 z"
       transform="translate(-0.01,-0.01)"
       id="path11296" />
    <path
       class="cls-4"
       d="m 1440.45,660.66 c 9.69,23 -11.2,53.73 -11.2,53.73 0,0 -36.6,-6.51 -46.29,-29.49 -9.69,-22.98 11.2,-53.74 11.2,-53.74 0,0 36.6,6.52 46.29,29.5 z"
       transform="translate(-0.01,-0.01)"
       id="path11298" />
    <circle
       class="cls-10"
       cx="1635.0601"
       cy="854.92999"
       r="215.66"
       transform="rotate(-45,1635.0531,854.92882)"
       id="circle11300" />
    <circle
       class="cls-5"
       cx="1616.4"
       cy="857.28003"
       r="215.66"
       transform="rotate(-45,1616.3872,857.2805)"
       id="circle11302" />
    <path
       class="cls-6"
       d="m 1641.26,1054.76 a 196.51,196.51 0 1 1 130.66,-74.46 195.21,195.21 0 0 1 -130.66,74.46 z m -47.63,-378.28 c -101.08,12.73 -173,105.33 -160.24,206.41 12.76,101.08 105.32,173 206.41,160.24 101.09,-12.76 173,-105.32 160.24,-206.4 -12.76,-101.08 -105.32,-172.97 -206.41,-160.25 z"
       transform="translate(-0.01,-0.01)"
       id="path11304" />
    <path
       class="cls-6"
       d="m 1650.68,913 a 32.26,32.26 0 0 0 -1.89,-11.26 23.56,23.56 0 0 0 -6,-8.8 45,45 0 0 0 -10.63,-7.24 118.88,118.88 0 0 0 -15.88,-6.44 309.05,309.05 0 0 1 -29.29,-11.6 97.67,97.67 0 0 1 -22.57,-14.09 57.48,57.48 0 0 1 -14.66,-18.79 q -5.25,-10.78 -5.35,-25.72 a 59.21,59.21 0 0 1 4.42,-23.66 54.65,54.65 0 0 1 13,-18.68 68.08,68.08 0 0 1 20.34,-13 91,91 0 0 1 26.61,-6.51 l -0.23,-32.62 26.25,-0.18 0.24,33.07 a 81.43,81.43 0 0 1 25.64,7.28 61.64,61.64 0 0 1 32.17,35.66 82.1,82.1 0 0 1 4.54,27.48 l -47.41,0.34 q -0.13,-18.29 -8.32,-27.3 -8.19,-9.01 -21.8,-8.91 a 35.12,35.12 0 0 0 -12.7,2.15 23.91,23.91 0 0 0 -8.74,5.7 22.2,22.2 0 0 0 -5,8.49 33,33 0 0 0 -1.57,10.53 30,30 0 0 0 1.72,10.2 22.21,22.21 0 0 0 5.72,8.42 45,45 0 0 0 10.71,7.24 154.89,154.89 0 0 0 16.54,7 q 16,5.82 29,12 a 98.69,98.69 0 0 1 22.49,14.24 58.3,58.3 0 0 1 14.66,18.87 q 5.23,10.79 5.35,25.57 a 59.55,59.55 0 0 1 -4.5,24.11 54,54 0 0 1 -13.03,18.45 65.76,65.76 0 0 1 -20.5,12.65 98.24,98.24 0 0 1 -26.78,6.29 l 0.22,30.32 -26.09,0.19 -0.21,-30.18 a 109.56,109.56 0 0 1 -26.38,-5.75 69.81,69.81 0 0 1 -22.65,-13 62.4,62.4 0 0 1 -15.91,-21.61 q -6,-13 -6.13,-31.35 l 47.42,-0.34 q 0.07,10.83 3.16,18 a 30.36,30.36 0 0 0 8.2,11.53 29.44,29.44 0 0 0 11.61,6 50.39,50.39 0 0 0 13.22,1.66 42.06,42.06 0 0 0 13.52,-2.08 28,28 0 0 0 9.73,-5.56 22.27,22.27 0 0 0 5.84,-8.35 27.17,27.17 0 0 0 1.9,-10.42 z"
       transform="translate(-0.01,-0.01)"
       id="path11306" />
    <polygon
       class="cls-7"
       points="1802.81,1450.34 1786.84,1695.62 1488.35,1695.62 1470.77,1453.69 1465.93,1387.02 1465.72,1384.1 1807.12,1384.1 1807.1,1384.27 "
       id="polygon11308" />
    <path
       class="cls-8"
       d="m 1807.11,1384.28 -4.3,66.06 c -22.49,-7.83 -85,-26.65 -166.39,-26.65 -102.81,0 -165.64,30 -165.64,30 l -4.84,-66.67 z"
       transform="translate(-0.01,-0.01)"
       id="path11310" />
    <polygon
       class="cls-7"
       points="1450.74,1376.86 1822.1,1376.86 1817.49,1419.02 1454.89,1419.02 "
       id="polygon11312" />
    <polygon
       class="cls-8"
       points="1478.4,1694.03 1795.36,1694.03 1791.43,1708.71 1481.94,1708.71 "
       id="polygon11314" />
    <path
       class="cls-4"
       d="m 1256.06,1572.08 c -0.28,-1.54 -5.61,-37.57 8,-77.72 13.1,-38.57 5.84,-71.28 5.79,-71.61 h 9.64 c 0.24,1.4 0.91,33.5 -9.35,77.5 -9.24,39.59 8,71.83 4.34,71.83 z"
       transform="translate(-0.01,-0.01)"
       id="path11316" />
    <path
       class="cls-4"
       d="m 1276.31,1465.72 c 0,-0.2 4.65,-26.6 17,-29.6 v 0 c -5.53,0.72 -12.56,4.68 -16.49,12.05 -2.92,5.49 -1.9,7 -1.95,7.26 z"
       transform="translate(-0.01,-0.01)"
       id="path11318" />
    <path
       class="cls-4"
       d="m 1253.43,1459.55 c 0,0 -12.11,-19.68 -26.89,-26.18 0,0 2.82,44.5 -5.5,44.51 -8.32,0.01 0.45,-49.81 0.45,-49.81 0,0 -38,-24.43 -54.06,-24.86 0,0 19.82,45.56 11.76,43.53 -8.06,-2.03 -30.88,-48.49 -30.88,-48.49 0,0 -40.49,-12.79 -50.17,10.94 -9.68,23.73 -0.46,37.34 5.49,39.63 5.95,2.29 45.4,6.65 43.74,11.64 -1.66,4.99 -29.27,9.89 -43.53,3.45 0,0 11.37,42.44 33.11,43 21.74,0.56 30,-11.87 43.46,-11.25 13.46,0.62 22.7,5.4 15.61,8.16 -7.09,2.76 -29.3,-2.43 -41.17,5.37 -11.87,7.8 -21.27,12.36 -1.82,18.92 19.45,6.56 49.69,2.52 64.47,-6 0,0 11.66,-0.2 17.31,53.91 2.18,20.86 -2.49,51.3 -2.49,51.3 l 7.41,-0.65 c 8,-59.73 -10.49,-111 -10.49,-111 0,0 38.49,-24.75 24.19,-56.12 z"
       transform="translate(-0.01,-0.01)"
       id="path11320" />
    <path
       class="cls-4"
       d="m 1300.37,1443.53 c -6.36,1.76 -13.72,-4.76 -13.72,-4.76 0,0 2.95,-9.38 9.31,-11.15 6.36,-1.77 13.72,4.76 13.72,4.76 0,0 -2.95,9.39 -9.31,11.15 z"
       transform="translate(-0.01,-0.01)"
       id="path11322" />
    <path
       class="cls-4"
       d="m 1373.53,1300.13 c -22.21,14.54 -22,54.11 -22,54.11 0,0 36.19,16 58.4,1.44 22.21,-14.56 22,-54.11 22,-54.11 0,0 -36.19,-15.99 -58.4,-1.44 z"
       transform="translate(-0.01,-0.01)"
       id="path11324" />
    <path
       class="cls-9"
       d="m 1373.53,1300.13 c -22.21,14.54 -22,54.11 -22,54.11 l 80.42,-52.67 c 0,0 -36.21,-15.99 -58.42,-1.44 z"
       transform="translate(-0.01,-0.01)"
       id="path11326" />
    <path
       class="cls-4"
       d="m 1372.2,1262.9 c -6.66,9 -0.78,24.68 -0.78,24.68 0,0 16.69,1 23.35,-8 6.66,-9 0.78,-24.67 0.78,-24.67 0,0 -16.69,-1.04 -23.35,7.99 z"
       transform="translate(-0.01,-0.01)"
       id="path11328" />
    <circle
       class="cls-10"
       cx="1275.61"
       cy="1324.6801"
       r="97.010002"
       transform="rotate(-45,1275.5915,1324.6827)"
       id="circle11330" />
    <circle
       class="cls-5"
       cx="1267.21"
       cy="1325.74"
       r="97.010002"
       transform="rotate(-3.73,1268.5976,1327.3005)"
       id="circle11332" />
    <path
       class="cls-6"
       d="m 1278.4,1414.57 a 88.39,88.39 0 1 1 58.77,-33.49 87.8,87.8 0 0 1 -58.77,33.49 z M 1257,1244.42 a 83.11,83.11 0 1 0 92.85,72.07 83.2,83.2 0 0 0 -92.85,-72.07 z"
       transform="translate(-0.01,-0.01)"
       id="path11334" />
    <path
       class="cls-6"
       d="m 1282.63,1350.81 a 14.55,14.55 0 0 0 -0.84,-5.07 10.74,10.74 0 0 0 -2.69,-4 20,20 0 0 0 -4.78,-3.25 52.91,52.91 0 0 0 -7.15,-2.9 141.3,141.3 0 0 1 -13.17,-5.22 43.57,43.57 0 0 1 -10.15,-6.34 25.89,25.89 0 0 1 -6.6,-8.45 29.26,29.26 0 0 1 -0.41,-22.21 24.41,24.41 0 0 1 5.84,-8.4 30.51,30.51 0 0 1 9.15,-5.86 40.73,40.73 0 0 1 12,-2.93 l -0.11,-14.67 11.81,-0.09 0.11,14.88 a 36.52,36.52 0 0 1 11.53,3.28 27.66,27.66 0 0 1 14.47,16 37.06,37.06 0 0 1 2.05,12.36 l -21.33,0.15 q -0.06,-8.22 -3.74,-12.28 a 12.5,12.5 0 0 0 -9.81,-4 15.92,15.92 0 0 0 -5.71,1 10.56,10.56 0 0 0 -3.93,2.56 10,10 0 0 0 -2.26,3.82 14.9,14.9 0 0 0 -0.71,4.74 13.69,13.69 0 0 0 0.77,4.58 10.06,10.06 0 0 0 2.58,3.79 20.2,20.2 0 0 0 4.82,3.26 68.09,68.09 0 0 0 7.44,3.13 q 7.17,2.63 13.06,5.39 a 44.61,44.61 0 0 1 10.12,6.41 25,25 0 0 1 9,20 26.63,26.63 0 0 1 -2,10.84 24.31,24.31 0 0 1 -5.88,8.34 29.5,29.5 0 0 1 -9.22,5.69 44.45,44.45 0 0 1 -12,2.83 l 0.09,13.64 -11.73,0.08 -0.1,-13.57 a 49.64,49.64 0 0 1 -11.86,-2.59 31.37,31.37 0 0 1 -10.19,-5.86 28.07,28.07 0 0 1 -7.15,-9.72 34.13,34.13 0 0 1 -2.76,-14.1 l 21.33,-0.15 a 20.9,20.9 0 0 0 1.42,8.11 13.48,13.48 0 0 0 3.69,5.19 13.16,13.16 0 0 0 5.22,2.7 23,23 0 0 0 6,0.75 18.89,18.89 0 0 0 6.08,-0.94 12.49,12.49 0 0 0 4.37,-2.5 10,10 0 0 0 2.63,-3.75 12.12,12.12 0 0 0 0.7,-4.67 z"
       transform="translate(-0.01,-0.01)"
       id="path11336" />
    <polygon
       class="cls-7"
       points="1351.06,1592.49 1343.88,1702.82 1209.61,1702.82 1201.71,1594 1199.53,1564.01 1199.43,1562.7 1353,1562.7 1352.99,1562.78 "
       id="polygon11338" />
    <path
       class="cls-8"
       d="m 1353,1562.79 -1.93,29.71 c -10.12,-3.52 -38.23,-12 -74.85,-12 -46.24,0 -74.51,13.5 -74.51,13.5 l -2.17,-30 z"
       transform="translate(-0.01,-0.01)"
       id="path11340" />
    <polygon
       class="cls-7"
       points="1192.7,1559.44 1359.73,1559.44 1357.66,1578.41 1194.57,1578.41 "
       id="polygon11342" />
    <polygon
       class="cls-8"
       points="1205.14,1702.11 1347.71,1702.11 1345.94,1708.71 1206.73,1708.71 "
       id="polygon11344" />
    <g
       class="cls-11"
       id="g11348">
      <path
         class="cls-9"
         d="m 2104.55,410.57 -19.85,4.33 -0.47,0.11 a 4.83,4.83 0 0 0 -3.77,5.23 l 1.79,16.87 a 5.68,5.68 0 0 1 0,0.82 4.76,4.76 0 0 1 -3.17,4.18 84.54,84.54 0 0 0 -28.69,17.22 5.46,5.46 0 0 1 -1.13,0.76 4.91,4.91 0 0 1 -4.83,-0.33 l -11.74,-7.91 a 4.92,4.92 0 0 0 -5.11,-0.17 5.5,5.5 0 0 0 -1.31,1.08 l -13.37,15.87 a 5,5 0 0 0 0.3,6.69 l 13.33,13.31 a 4.79,4.79 0 0 1 1.12,5 c -0.88,2.53 -1.66,5.09 -2.31,7.73 a 83.93,83.93 0 0 0 -2.3,14.79 v 0 a 4.88,4.88 0 0 1 -3.44,4.38 l -18.27,5.66 -0.92,0.29 a 4.77,4.77 0 0 0 -3.26,5.58 l 4.41,20.3 a 5,5 0 0 0 5.38,3.88 l 18.78,-2 a 4.84,4.84 0 0 1 4.93,2.81 85,85 0 0 0 14.56,21.76 4.86,4.86 0 0 1 0.42,6 l -9.35,13.94 a 5,5 0 0 0 0.94,6.55 l 15.92,13.43 a 4.72,4.72 0 0 0 6.39,-0.27 l 15.66,-15.65 a 5,5 0 0 1 5.08,-1.19 q 3.3,1.11 6.73,2 a 84.86,84.86 0 0 0 12.89,2.17 4.71,4.71 0 0 1 4.15,3.34 l 6.78,22 a 4.86,4.86 0 0 0 5.67,3.31 l 20.37,-4.42 a 4.89,4.89 0 0 0 3.8,-4.54 4.19,4.19 0 0 0 0,-0.7 l -2.2,-20.83 a 4.82,4.82 0 0 1 2.42,-4.76 3.17,3.17 0 0 1 0.45,-0.23 12.36,12.36 0 0 0 1.38,-0.65 84.66,84.66 0 0 0 15.52,-9.26 4.7,4.7 0 0 1 5.53,-0.12 l 14.73,9.87 a 4.93,4.93 0 0 0 6.52,-0.94 l 3,-3.52 10.32,-12.34 a 4.87,4.87 0 0 0 -0.27,-6.58 l -13.13,-13.12 a 4.68,4.68 0 0 1 -0.93,-5.3 85.24,85.24 0 0 0 5.22,-15 83,83 0 0 0 2,-11.73 l 3.84,-1.18 15.73,-4.88 a 4.71,4.71 0 0 0 3.35,-4.32 4.32,4.32 0 0 0 -0.12,-1.24 l -4.4,-20.45 a 4.91,4.91 0 0 0 -5.26,-3.78 l -12.83,1.39 a 4.86,4.86 0 0 1 -5,-3.11 85.22,85.22 0 0 0 -13.13,-23.42 4.7,4.7 0 0 1 -0.24,-5.63 L 2185,446 a 4.68,4.68 0 0 0 -0.88,-6.17 L 2168,426.26 a 4.75,4.75 0 0 0 -6.44,0.26 l -16.29,16.28 a 4.83,4.83 0 0 1 -5.34,1 82.22,82.22 0 0 0 -12.34,-4.08 c -2.31,-0.57 -4.63,-1 -6.94,-1.42 a 4.84,4.84 0 0 1 -3.85,-3.33 L 2110.28,414 a 4.94,4.94 0 0 0 -5.73,-3.43 z m -39.91,95.15 a 52.32,52.32 0 0 1 9,-15.34 30.89,30.89 0 0 1 3.12,-3.19 c 5.16,-4.54 12.7,-8.65 18.56,-9.9 44.84,-9.49 74.57,38.83 46.69,74.39 -0.47,0.58 -0.93,1.16 -1.42,1.73 -4.53,5.38 -13.92,11 -20.77,12.53 a 56.49,56.49 0 0 1 -10.46,1.32 c -33.72,0.89 -55.79,-31.53 -44.72,-61.54 z"
         transform="translate(-0.01,-0.01)"
         id="path11346" />
    </g>
    <g
       class="cls-11"
       id="g11352">
      <path
         class="cls-9"
         d="m 2407.7,479.4 -31.24,2.82 -0.75,0.07 a 7.48,7.48 0 0 0 -6.78,7.3 l -0.49,26.19 a 7.34,7.34 0 0 1 -5.77,7.05 130.75,130.75 0 0 0 -47.27,20.88 7.5,7.5 0 0 1 -9.2,-0.47 l -16.47,-14.38 a 7.62,7.62 0 0 0 -7.8,-1.24 8.19,8.19 0 0 0 -2.21,1.41 l -23.53,21.75 a 7.64,7.64 0 0 0 -0.82,10.3 l 17.87,22.92 a 7.39,7.39 0 0 1 0.75,7.88 c -1.83,3.72 -3.52,7.48 -5,11.4 a 129.89,129.89 0 0 0 -6.36,22.22 v 0 a 7.52,7.52 0 0 1 -6.1,6.05 l -29.08,5.17 -1.46,0.27 a 7.36,7.36 0 0 0 -6.07,7.93 l 2.87,31.93 a 7.7,7.7 0 0 0 7.5,7 l 29.15,0.55 a 7.44,7.44 0 0 1 7,5.24 131.11,131.11 0 0 0 18.13,36.14 7.49,7.49 0 0 1 -0.5,9.24 l -17,19.56 a 7.64,7.64 0 0 0 0.17,10.21 l 21.76,23.68 a 7.3,7.3 0 0 0 9.84,0.8 l 27,-21 a 7.65,7.65 0 0 1 8,-0.86 q 4.83,2.34 9.92,4.3 a 133.27,133.27 0 0 0 19.33,5.8 7.27,7.27 0 0 1 5.73,5.9 l 6.17,35 a 7.5,7.5 0 0 0 8.05,6.16 l 32,-2.87 a 7.54,7.54 0 0 0 6.69,-6.22 5.32,5.32 0 0 0 0.1,-1.07 l 0.62,-32.35 a 7.42,7.42 0 0 1 4.62,-6.81 3.89,3.89 0 0 1 0.74,-0.28 20.72,20.72 0 0 0 2.23,-0.73 130.83,130.83 0 0 0 25.66,-11.24 7.22,7.22 0 0 1 8.49,0.88 l 20.67,17.93 a 7.61,7.61 0 0 0 10.18,-0.18 l 5.24,-4.83 18.23,-16.89 a 7.51,7.51 0 0 0 0.84,-10.14 l -17.6,-22.61 a 7.24,7.24 0 0 1 -0.42,-8.31 132.45,132.45 0 0 0 10.88,-22 129.55,129.55 0 0 0 5.38,-17.58 l 6.1,-1.08 25,-4.45 a 7.26,7.26 0 0 0 6,-6 6.55,6.55 0 0 0 0.06,-1.93 l -2.82,-32.16 a 7.58,7.58 0 0 0 -7.34,-6.8 l -19.91,-0.34 a 7.48,7.48 0 0 1 -7.11,-5.72 131.64,131.64 0 0 0 -15.63,-38.39 7.25,7.25 0 0 1 0.71,-8.68 L 2524.14,549 a 7.22,7.22 0 0 0 -0.17,-9.61 l -22.09,-23.85 a 7.3,7.3 0 0 0 -9.91,-0.83 l -28.08,21.82 a 7.45,7.45 0 0 1 -8.37,0.56 128,128 0 0 0 -18.13,-8.61 q -5.16,-2 -10.35,-3.5 a 7.54,7.54 0 0 1 -5.27,-5.85 l -5.93,-33.51 a 7.61,7.61 0 0 0 -8.14,-6.22 z m -79.39,138.11 a 80.83,80.83 0 0 1 16.69,-21.77 47.25,47.25 0 0 1 5.39,-4.3 c 8.78,-6 21.11,-10.81 30.33,-11.6 70.51,-5.94 106.8,73.78 57.26,122.92 -0.82,0.8 -1.64,1.59 -2.5,2.38 -8,7.36 -23.44,14.17 -34.22,15.2 a 86.81,86.81 0 0 1 -16.28,0 c -51.78,-5.07 -79.39,-58.98 -56.67,-102.83 z"
         transform="translate(-0.01,-0.01)"
         id="path11350" />
    </g>
  </g>
  <g
     id="Layer_4"
     data-name="Layer 4"
     transform="translate(-177.98,-235.02718)">
    <path
       class="cls-12"
       d="m 1906.23,1141.59 c 0,0 -15.33,-3 -18.83,0 -3.5,3 -20.14,19.88 -16.58,25.43 3.56,5.55 20.63,-4.59 24.18,-5.55 3.55,-0.96 13.47,-4.83 13.47,-4.83 z"
       transform="translate(-0.01,-0.01)"
       id="path11355" />
    <path
       class="cls-13"
       d="m 2069.16,1683.67 16.44,6.12 c 0,0 71.39,-99 80.18,-186.13 1.57,-15.55 1,-30.62 -2.35,-44.54 0,0 0.7,-4 1.92,-11 0.56,-3.29 1.26,-7.24 2.05,-11.78 2.32,-13.3 5.52,-31.49 9.17,-52.21 8.4,-47.68 19.28,-108.63 27.73,-153.43 l -4.42,-1.43 -47.88,-15.48 -9.91,-31.46 -35.68,-9.39 c 0,0 -8,15.59 -15.09,89.25 -1.32,9.66 -2.51,20.31 -3.41,31.87 a 630.76,630.76 0 0 0 3.39,129 q 2.46,19.2 6.27,39.6 c 1.88,10 2.16,23.52 1.37,39.1 -3.64,71.24 -29.78,181.91 -29.78,181.91 z"
       transform="translate(-0.01,-0.01)"
       id="path11357" />
    <path
       class="cls-14"
       d="m 2087.87,1294.06 77.48,154 c 0.56,-3.29 1.26,-7.24 2.05,-11.78 2.32,-13.3 5.52,-31.49 9.17,-52.21 8.4,-47.68 19.28,-108.63 27.73,-153.43 l -4.42,-1.43 -47.88,-15.42 -9.91,-31.46 -35.68,-9.39 c 0,0 -8,15.59 -15.09,89.25 -1.32,9.66 -2.55,20.31 -3.45,31.87 z"
       transform="translate(-0.01,-0.01)"
       id="path11359" />
    <path
       class="cls-13"
       d="m 2122,1192.71 1.8,-15.39 c 30.05,8 110.34,-22.3 110.34,-22.3 0,0 29.11,25.59 25.29,86.93 -1.87,29.94 -5.28,157.16 -8.84,194.81 -1.28,13.64 -2.41,23.35 -2.87,27.23 a 5.38,5.38 0 0 0 0.87,3.33 176.56,176.56 0 0 1 13.14,27.63 c 34.93,93.09 -5.38,207.73 -5.38,207.73 l -10.46,-4.22 c 0,0 -22.94,-127.58 -41.58,-183.94 -3.17,-9.56 -6.2,-17.07 -9,-21.56 -8.1,-13.08 -15.63,-34.46 -22.45,-59.88 -12.9,-48.06 -23.29,-110.58 -30.2,-158.84 -1,0.09 -20.66,-81.53 -20.66,-81.53 z"
       transform="translate(-0.01,-0.01)"
       id="path11361" />
    <path
       class="cls-12"
       d="m 1906.23,1141.59 2.24,15.05 c 0,0 1,0 2.74,-0.13 5.47,-0.37 18.78,-1.12 33.83,-2.73 22.64,-2.24 49.51,-6.22 60.21,-12.81 16.29,-10 43,-40.43 60.45,-70.9 a 21.83,21.83 0 0 0 1.24,-2.24 c 9.08,-16.17 15.42,-32.22 15.92,-45 a 64.62,64.62 0 0 0 -2.11,-20.4 52.06,52.06 0 0 0 -9.21,-18.41 9.31,9.31 0 0 0 -1.74,-2.11 43,43 0 0 0 -11.8,-10.11 c -3,-1.24 -6.22,0.25 -9.57,3.86 v 0.12 a 57.32,57.32 0 0 0 -8.59,12.69 c -0.12,0.12 -0.24,0.25 -0.24,0.37 -0.63,1.12 -1.25,2.37 -2,3.73 a 3.24,3.24 0 0 0 -0.49,0.88 q -2.05,4.29 -4.11,8.95 c -15.3,33.34 -31.59,83.84 -45.15,98.89 -5.84,6.46 -32.59,19.15 -53.86,28.61 -15.32,6.71 -27.76,11.69 -27.76,11.69 z"
       transform="translate(-0.01,-0.01)"
       id="path11363" />
    <path
       class="cls-12"
       d="m 2064.55,1006.14 c 9.43,4.38 20.82,7.36 34.6,8.11 51.67,2.83 63.39,-42.46 65.53,-72.52 a 43.31,43.31 0 0 0 -17.73,-2.24 c -3.66,0.2 -7.49,0.58 -10.64,1 -6.32,-3.3 -17.67,-19.34 -24.23,-46.16 l -2.23,1 -37.28,17.52 c 0,0 4,12.13 6.89,23.74 2.28,9.09 3.91,17.86 2.54,20.32 -2.93,1.19 -4.69,1.94 -4.69,1.94 a 256.4,256.4 0 0 0 -12.76,47.29 z"
       transform="translate(-0.01,-0.01)"
       id="path11365" />
    <path
       class="cls-6"
       d="m 2051.62,1040 c 0.39,1 0.82,2 1.29,3.07 13.09,28.18 37.31,144.91 37.31,144.91 -3.45,21 157.72,-4.12 158.14,-23.23 5.67,-20.26 -20.14,-52.81 -34.7,-69.14 a 47.14,47.14 0 0 1 -4.89,-6.58 45.84,45.84 0 0 1 -6.6,-19.27 c -2.86,-27.09 -1.77,-52.47 -2,-67.91 v 0 c -2.85,-2.11 -5.6,-4 -8.16,-5.91 a 71.46,71.46 0 0 1 -9.93,-8.24 c -2.81,-3 -4.56,-6 -4.77,-9.37 a 50.71,50.71 0 0 1 0.21,-7.87 c 0.12,-1.25 0.28,-2.49 0.47,-3.74 a 106.68,106.68 0 0 1 7.48,-25 c -13.86,-5.61 -38.51,-2.27 -38.51,-2.27 0,0 0,1.37 0,3.61 0.08,9 0,32.12 -2.88,36.5 -3.61,5.45 -69.65,29.32 -73.14,21.93 -3.49,-7.39 6,-41.35 6.32,-42.64 -22.12,8.69 -30,16 -30,16 13.36,8.61 -5.94,37.85 4.36,65.15 z"
       transform="translate(-0.01,-0.01)"
       id="path11367" />
    <path
       class="cls-10"
       d="m 2096.1,796.54 c 0.09,-2.24 1.82,-26.37 38.58,-27.63 0,0 -18.08,2.15 -21.2,10.1 0,0 12.31,-9.82 22.33,-6.66 10.02,3.16 15.92,20.72 16,26.5 0.08,5.78 -5.52,24.39 -11.88,26 a 19.38,19.38 0 0 1 -7.7,0 88.16,88.16 0 0 1 4.94,8.81 c 14.66,30.11 -0.46,59.54 -12.88,56.29 -8,-2.08 -10.22,11.51 -10.22,11.51 l -77.38,-62.65 c 0,0 28.4,-58.81 59.41,-42.27 z"
       transform="translate(-0.01,-0.01)"
       id="path11369" />
    <path
       class="cls-15"
       d="m 2072.57,912.86 c 0,0 4,12.12 6.88,23.74 21.79,-6.08 28.41,-29 30.4,-41.26 z"
       transform="translate(-0.01,-0.01)"
       id="path11371" />
    <path
       class="cls-12"
       d="m 2068,925.69 c 0,0 52.13,-12.06 44.12,-44.41 -8.01,-32.35 -6.68,-55.69 -40.31,-49.36 -33.63,6.33 -37,20.28 -37,31.73 0,11.45 19.4,64.35 33.19,62.04 z"
       transform="translate(-0.01,-0.01)"
       id="path11373" />
    <path
       class="cls-10"
       d="m 2031.9,845.28 c 5.61,-11.72 12.2,-11.1 16.33,-9 24.5,-22.66 48.52,-4.15 48.52,-4.15 9.25,22.34 29.29,31.47 29.29,31.47 0,0 -8,8.2 -31.22,8 -7.09,-0.06 -14.22,-3.31 -20.7,-7.8 a 124.63,124.63 0 0 0 27.18,20.28 c -29.06,-5.56 -48.54,-39.2 -50.54,-42.77 -2.46,3.63 -7.17,11.37 -7.56,17.9 -0.54,8.88 2.51,26.12 -2.57,26.78 0,0.01 -17.13,-23.13 -8.73,-40.71 z"
       transform="translate(-0.01,-0.01)"
       id="path11375" />
    <path
       class="cls-10"
       d="m 2047.28,974.82 c 0,0 -12.55,21.89 -14.43,27.53 0,0 16.28,-0.63 22.86,11.89 0,0 1.57,-36.47 -8.43,-39.42 z"
       transform="translate(-0.01,-0.01)"
       id="path11377" />
    <path
       class="cls-16"
       d="m 2133.61,1148.8 c 31.79,-0.34 58.71,-33.35 75.16,-59.73 a 45.84,45.84 0 0 1 -6.6,-19.27 c -2.86,-27.09 -1.77,-52.47 -2,-67.91 v 0 c -2.85,-2.11 -5.6,-4 -8.16,-5.91 a 71.46,71.46 0 0 1 -9.93,-8.24 c -26.08,44.01 -91.57,161.51 -48.47,161.06 z"
       transform="translate(-0.01,-0.01)"
       id="path11379" />
    <path
       class="cls-12"
       d="m 2013.45,1166.09 4.36,15.92 c 0,0 5.47,-1 14.18,-2.61 2.61,-0.5 4.1,-0.87 4.1,-0.87 7,-1.37 15.3,-3.23 24.38,-5.22 h 0.13 c 15.54,-3.74 33,-8.21 47.64,-13.19 10.32,-3.61 19.28,-7.46 25.37,-11.32 a 15.58,15.58 0 0 0 1.74,-1.24 c 14.55,-10.57 31.84,-41.67 45.28,-75 1.86,-4.6 3.6,-9.2 5.35,-13.68 a 340.82,340.82 0 0 0 14.18,-47.26 133.35,133.35 0 0 0 3.35,-22.52 54.75,54.75 0 0 0 0.13,-6.34 c -0.25,-36.07 -18.16,-41 -18.16,-41 -0.37,-0.12 -0.75,-0.25 -1.25,-0.37 -3.11,-0.5 -6.34,1.61 -9.7,5.72 -4.23,5.1 -8.7,13.43 -13.31,23.51 -7.09,16 -14.55,36.82 -21.51,57.47 -3.86,11.31 -7.59,22.63 -11.32,33.08 -2.12,6.34 -4.23,12.31 -6.22,17.79 -3.86,10.45 -7.34,18.9 -10.45,24.25 -2,3.48 -7.71,8.34 -15.3,13.81 -13.19,9.58 -32.46,21.15 -49.26,30.6 -7,4 -13.55,7.59 -19,10.57 -8.86,4.81 -14.71,7.9 -14.71,7.9 z"
       transform="translate(-0.01,-0.01)"
       id="path11381" />
    <path
       class="cls-10"
       d="m 2161.27,970.61 c 23.94,-6.6 42.41,12.09 42.41,12.09 -0.3,-36 -18.22,-40.94 -18.22,-40.94 -7.21,-2.98 -15.57,9.51 -24.19,28.85 z"
       transform="translate(-0.01,-0.01)"
       id="path11383" />
    <path
       class="cls-1"
       d="m 2195.47,1711.26 h 82.78 c 0,0 2,-12.61 -2.34,-22.19 -4.14,-9.18 -10.63,-13.36 -9.08,-24.47 -5.26,5.42 -13.83,11.48 -25.8,9.87 -1.46,2.38 -9.46,15.1 -14.36,18.62 -5.41,3.91 -29.53,2.5 -31.2,18.17 z"
       transform="translate(-0.01,-0.01)"
       id="path11385" />
    <path
       class="cls-1"
       d="m 2017.72,1711.26 h 82.79 c 0,0 3.09,-13.2 -2.34,-22.19 -4.81,-8 -3,-12.47 0.59,-19 a 32.17,32.17 0 0 1 -13.94,2.62 c -4.12,-0.23 -8.49,-2.1 -12.31,-4.33 -3.56,4.07 -18.82,21.36 -23.59,24.78 -5.41,3.86 -29.53,2.45 -31.2,18.12 z"
       transform="translate(-0.01,-0.01)"
       id="path11387" />
    <path
       class="cls-5"
       d="m 2008.53,1239.86 -19.67,-48 a 13.31,13.31 0 0 0 -15.81,-7.76 82,82 0 0 0 -25.67,-29.19 c -10.72,-7.38 -22.76,-11.45 -34.64,-11.4 a 49,49 0 0 0 -18.49,3.66 c -28,11.46 -40.5,46.8 -30.24,81.51 l -1.53,0.62 c 0,0 -4.78,-0.33 -12.8,-0.33 -25.33,0 -82.92,3.37 -123.33,31.43 a 11.15,11.15 0 0 0 -2.63,6.83 10.51,10.51 0 0 0 0.85,4.53 c 0,0 64.86,-42 124.84,1.16 q 5.53,4 10.74,7.35 l 5.38,13.14 a 42.89,42.89 0 0 0 55.8,23.35 l 54.94,-22.51 11.45,-4.69 a 38.2,38.2 0 0 0 20.81,-49.7 z M 1902,1201 l -22.38,9.18 a 13.1,13.1 0 0 0 -7.71,15.31 l -2.4,1 c -9.1,-31.62 2,-63.51 27,-73.74 a 42.3,42.3 0 0 1 10.76,-2.85 c 11.5,-1.51 23.49,1.58 34.26,8.3 a 75.43,75.43 0 0 1 26,28.14 l -3.31,1.35 a 13.11,13.11 0 0 0 -16.23,-5.49 l -22.39,9.18 a 11.08,11.08 0 0 0 -10.26,-6.86 11.21,11.21 0 0 0 -4.14,0.81 l -3.1,1.28 A 11.07,11.07 0 0 0 1902,1201 Z"
       transform="translate(-0.01,-0.01)"
       id="path11389" />
    <path
       class="cls-17"
       d="m 1860.15,1280.28 q -5.22,-3.4 -10.74,-7.35 c -60,-43.16 -124.84,-1.16 -124.84,-1.16 a 10.51,10.51 0 0 1 -0.85,-4.53 c 9.07,-6 43.1,-25.87 85.27,-19.07 49.4,7.97 58.34,14.83 51.16,32.11 z"
       transform="translate(-0.01,-0.01)"
       id="path11391" />
    <path
       class="cls-17"
       d="m 1987.72,1289.57 -11.45,4.69 c 17.16,-9.37 -4.09,-49 -16.52,-75.1 -12.43,-26.1 -31.24,-14.19 -31.24,-14.19 -4.31,-8.76 -13.54,-8.28 -13.54,-8.28 -0.48,-8.44 -6.92,-10.14 -6.92,-10.14 l 3.1,-1.28 a 11.21,11.21 0 0 1 4.14,-0.81 11.08,11.08 0 0 1 10.26,6.86 l 22.39,-9.18 a 13.11,13.11 0 0 1 16.23,5.49 l 3.31,-1.35 a 75.43,75.43 0 0 0 -26,-28.14 c -10.77,-6.72 -22.76,-9.81 -34.26,-8.3 a 24.18,24.18 0 0 0 5.47,-6.32 c 11.88,0 23.92,4 34.64,11.4 a 82,82 0 0 1 25.67,29.19 13.31,13.31 0 0 1 15.81,7.76 l 19.67,48 a 38.2,38.2 0 0 1 -20.76,49.7 z"
       transform="translate(-0.01,-0.01)"
       id="path11393" />
    <path
       class="cls-12"
       d="m 1962,1181.52 c 8,3.35 19.15,15 37.07,8 a 277.87,277.87 0 0 1 33,-10.08 c 2.61,-0.5 4.1,-0.87 4.1,-0.87 l -7.09,-20.65 a 3.58,3.58 0 0 1 -0.87,0.25 c -4.6,1 -28,6 -38.93,3.48 -12.31,-2.86 -33,11.94 -33,11.94 0,0 -2.28,4.69 5.72,7.93 z"
       transform="translate(-0.01,-0.01)"
       id="path11395" />
    <path
       class="cls-18"
       d="m 1737.23,1306.43 c 0,-7.47 -13.52,-30.53 -13.52,-30.53 0,0 -13.53,23.06 -13.53,30.53 a 13.53,13.53 0 1 0 27,0 z"
       transform="translate(-0.01,-0.01)"
       id="path11397" />
    <path
       class="cls-5"
       d="m 925.54,1684.08 v 17.42 a 5.91,5.91 0 0 1 -1.37,3.75 8,8 0 0 1 -3.75,2.52 8.86,8.86 0 0 1 -1.46,0.34 9.39,9.39 0 0 1 -1.42,0.11 H 587 c -4.26,0 -7.77,-2.84 -8,-6.37 0,-0.11 0,-0.23 0,-0.35 v -17.42 c 0,-0.12 0,-0.23 0,-0.35 0.22,-3.53 3.73,-6.37 8,-6.37 h 330.54 a 9.39,9.39 0 0 1 1.42,0.11 8.88,8.88 0 0 1 1.46,0.35 7.9,7.9 0 0 1 3.75,2.51 5.91,5.91 0 0 1 1.37,3.75 z"
       transform="translate(-0.01,-0.01)"
       id="path11399" />
    <path
       class="cls-6"
       d="M 763.24,1708.22 H 586.17 a 7,7 0 0 1 -7.13,-6.37 c 0,-0.11 0,-0.23 0,-0.35 v -17.42 c 0,-0.12 0,-0.23 0,-0.35 a 7,7 0 0 1 7.13,-6.37 H 741.5 a 54.09,54.09 0 0 0 21.74,30.86 z"
       transform="translate(-0.01,-0.01)"
       id="path11401" />
    <rect
       class="cls-6"
       x="881.56"
       y="1677.36"
       width="3.76"
       height="30.860001"
       id="rect11403" />
    <rect
       class="cls-6"
       x="868.84003"
       y="1677.36"
       width="3.76"
       height="30.860001"
       id="rect11405" />
    <rect
       class="cls-6"
       x="853.59998"
       y="1677.36"
       width="3.76"
       height="30.860001"
       id="rect11407" />
    <rect
       class="cls-6"
       x="830.21997"
       y="1677.36"
       width="3.76"
       height="30.860001"
       id="rect11409" />
    <rect
       class="cls-6"
       x="805.51001"
       y="1677.36"
       width="3.76"
       height="30.860001"
       id="rect11411" />
    <rect
       class="cls-6"
       x="767.62"
       y="1677.36"
       width="3.76"
       height="30.860001"
       id="rect11413" />
    <rect
       class="cls-6"
       x="732.14001"
       y="1677.36"
       width="3.76"
       height="30.860001"
       id="rect11415" />
    <rect
       class="cls-6"
       x="700.46002"
       y="1677.36"
       width="3.76"
       height="30.860001"
       id="rect11417" />
    <rect
       class="cls-6"
       x="893.65997"
       y="1677.36"
       width="3.76"
       height="30.860001"
       id="rect11419" />
    <rect
       class="cls-6"
       x="901.65997"
       y="1677.36"
       width="3.76"
       height="30.860001"
       id="rect11421" />
    <rect
       class="cls-6"
       x="909.38"
       y="1677.36"
       width="3.76"
       height="30.860001"
       id="rect11423" />
    <path
       class="cls-6"
       d="m 919,1677.47 v 30.64 a 9.39,9.39 0 0 1 -1.42,0.11 h -2.38 v -30.86 h 2.34 a 9.39,9.39 0 0 1 1.46,0.11 z"
       transform="translate(-0.01,-0.01)"
       id="path11425" />
    <path
       class="cls-6"
       d="m 924.17,1680.33 v 24.92 a 8,8 0 0 1 -3.75,2.52 v -30 a 7.9,7.9 0 0 1 3.75,2.56 z"
       transform="translate(-0.01,-0.01)"
       id="path11427" />
    <path
       class="cls-5"
       d="m 890.2,1653.22 v 17.43 a 5.91,5.91 0 0 1 -1.37,3.75 8,8 0 0 1 -3.75,2.51 8.88,8.88 0 0 1 -1.46,0.35 9.36,9.36 0 0 1 -1.41,0.1 H 551.69 c -4.26,0 -7.77,-2.83 -8,-6.37 0,-0.11 0,-0.23 0,-0.34 v -17.43 c 0,-0.11 0,-0.23 0,-0.34 0.22,-3.54 3.73,-6.37 8,-6.37 h 330.52 0.63 0.27 0.3 0.21 a 8.86,8.86 0 0 1 1.46,0.34 l 0.21,0.07 0.2,0.08 0.4,0.16 0.23,0.11 0.21,0.1 c 0.13,0.06 0.25,0.13 0.37,0.2 l 0.41,0.25 0.31,0.22 v 0 l 0.2,0.15 a 7.2,7.2 0 0 1 0.58,0.5 l 0.16,0.16 c 0.06,0 0.1,0.11 0.16,0.16 l 0.29,0.34 a 6,6 0 0 1 1.39,3.87 z"
       transform="translate(-0.01,-0.01)"
       id="path11429" />
    <path
       class="cls-6"
       d="M 727.9,1677.36 H 550.83 a 7,7 0 0 1 -7.13,-6.37 c 0,-0.11 0,-0.23 0,-0.34 v -17.43 c 0,-0.11 0,-0.23 0,-0.34 a 7,7 0 0 1 7.13,-6.37 h 155.32 c 0.07,0.25 0.15,0.5 0.22,0.76 a 54,54 0 0 0 21.53,30.09 z"
       transform="translate(-0.01,-0.01)"
       id="path11431" />
    <rect
       class="cls-6"
       x="846.21997"
       y="1646.5"
       width="3.76"
       height="30.860001"
       id="rect11433" />
    <rect
       class="cls-6"
       x="833.51001"
       y="1646.5"
       width="3.76"
       height="30.860001"
       id="rect11435" />
    <rect
       class="cls-6"
       x="818.26001"
       y="1646.5"
       width="3.76"
       height="30.860001"
       id="rect11437" />
    <rect
       class="cls-6"
       x="794.89001"
       y="1646.5"
       width="3.76"
       height="30.860001"
       id="rect11439" />
    <rect
       class="cls-6"
       x="770.16998"
       y="1646.5"
       width="3.76"
       height="30.860001"
       id="rect11441" />
    <rect
       class="cls-6"
       x="732.28003"
       y="1646.5"
       width="3.76"
       height="30.860001"
       id="rect11443" />
    <rect
       class="cls-6"
       x="696.79999"
       y="1646.5"
       width="3.76"
       height="30.860001"
       id="rect11445" />
    <rect
       class="cls-6"
       x="665.12"
       y="1646.5"
       width="3.76"
       height="30.860001"
       id="rect11447" />
    <rect
       class="cls-6"
       x="858.33002"
       y="1646.5"
       width="3.76"
       height="30.860001"
       id="rect11449" />
    <rect
       class="cls-6"
       x="866.32001"
       y="1646.5"
       width="3.76"
       height="30.860001"
       id="rect11451" />
    <rect
       class="cls-6"
       x="874.03998"
       y="1646.5"
       width="3.76"
       height="30.860001"
       id="rect11453" />
    <path
       class="cls-6"
       d="m 883.62,1646.62 v 30.64 a 9.36,9.36 0 0 1 -1.41,0.1 h -2.35 v -30.85 h 2.35 a 8.21,8.21 0 0 1 1.41,0.11 z"
       transform="translate(-0.01,-0.01)"
       id="path11455" />
    <path
       class="cls-6"
       d="m 888.83,1649.47 v 24.93 a 8,8 0 0 1 -3.75,2.51 v -30 a 8,8 0 0 1 3.75,2.56 z"
       transform="translate(-0.01,-0.01)"
       id="path11457" />
    <path
       class="cls-5"
       d="m 907.28,1623.13 v 17.42 a 5.91,5.91 0 0 1 -1.37,3.75 8,8 0 0 1 -3.75,2.52 8.74,8.74 0 0 1 -1.47,0.34 9.26,9.26 0 0 1 -1.41,0.11 H 568.77 a 9.12,9.12 0 0 1 -3.69,-0.76 6.84,6.84 0 0 1 -4.27,-5.31 1.53,1.53 0 0 1 0,-0.3 c 0,-0.11 0,-0.23 0,-0.35 v -17.42 c 0,-0.12 0,-0.23 0,-0.35 0.22,-3.53 3.73,-6.37 8,-6.37 h 330.47 a 9.26,9.26 0 0 1 1.41,0.11 8.76,8.76 0 0 1 1.47,0.35 7.9,7.9 0 0 1 3.75,2.51 5.91,5.91 0 0 1 1.37,3.75 z"
       transform="translate(-0.01,-0.01)"
       id="path11459" />
    <path
       class="cls-6"
       d="M 745,1647.27 H 567.91 a 7.4,7.4 0 0 1 -3.29,-0.76 6.73,6.73 0 0 1 -3.81,-5.31 1.53,1.53 0 0 1 0,-0.3 c 0,-0.11 0,-0.23 0,-0.35 v -17.42 c 0,-0.12 0,-0.23 0,-0.35 a 7,7 0 0 1 7.13,-6.37 h 155.3 a 54.1,54.1 0 0 0 20.65,30.1 z"
       transform="translate(-0.01,-0.01)"
       id="path11461" />
    <rect
       class="cls-6"
       x="863.29999"
       y="1616.4"
       width="3.76"
       height="30.860001"
       id="rect11463" />
    <rect
       class="cls-6"
       x="850.58002"
       y="1616.4"
       width="3.76"
       height="30.860001"
       id="rect11465" />
    <rect
       class="cls-6"
       x="835.34003"
       y="1616.4"
       width="3.76"
       height="30.860001"
       id="rect11467" />
    <rect
       class="cls-6"
       x="811.96002"
       y="1616.4"
       width="3.76"
       height="30.860001"
       id="rect11469" />
    <rect
       class="cls-6"
       x="787.25"
       y="1616.4"
       width="3.76"
       height="30.860001"
       id="rect11471" />
    <rect
       class="cls-6"
       x="749.35999"
       y="1616.4"
       width="3.76"
       height="30.860001"
       id="rect11473" />
    <rect
       class="cls-6"
       x="713.88"
       y="1616.4"
       width="3.76"
       height="30.860001"
       id="rect11475" />
    <rect
       class="cls-6"
       x="682.20001"
       y="1616.4"
       width="3.76"
       height="30.860001"
       id="rect11477" />
    <rect
       class="cls-6"
       x="875.40002"
       y="1616.4"
       width="3.76"
       height="30.860001"
       id="rect11479" />
    <rect
       class="cls-6"
       x="883.40002"
       y="1616.4"
       width="3.76"
       height="30.860001"
       id="rect11481" />
    <rect
       class="cls-6"
       x="891.12"
       y="1616.4"
       width="3.76"
       height="30.860001"
       id="rect11483" />
    <path
       class="cls-6"
       d="m 900.69,1616.52 v 30.64 a 9.26,9.26 0 0 1 -1.41,0.11 h -2.34 v -30.86 h 2.34 a 9.26,9.26 0 0 1 1.41,0.11 z"
       transform="translate(-0.01,-0.01)"
       id="path11485" />
    <path
       class="cls-6"
       d="m 905.91,1619.38 v 24.92 a 8,8 0 0 1 -3.75,2.52 v -30 a 7.9,7.9 0 0 1 3.75,2.56 z"
       transform="translate(-0.01,-0.01)"
       id="path11487" />
    <path
       class="cls-5"
       d="m 915.2,1592.27 v 17.43 a 6,6 0 0 1 -1.37,3.75 8,8 0 0 1 -3.76,2.51 8.41,8.41 0 0 1 -1.46,0.35 9.36,9.36 0 0 1 -1.41,0.1 H 576.68 c -4.26,0 -7.77,-2.83 -8,-6.37 0,-0.11 0,-0.23 0,-0.34 v -17.43 c 0,-0.11 0,-0.23 0,-0.34 0.2,-3.27 3.21,-5.94 7,-6.32 a 7.3,7.3 0 0 1 0.94,0 H 907.2 a 9.36,9.36 0 0 1 1.41,0.11 8.41,8.41 0 0 1 1.46,0.34 8,8 0 0 1 3.76,2.51 6,6 0 0 1 1.37,3.7 z"
       transform="translate(-0.01,-0.01)"
       id="path11489" />
    <path
       class="cls-6"
       d="M 752.9,1616.41 H 575.83 a 7,7 0 0 1 -7.13,-6.37 c 0,-0.11 0,-0.23 0,-0.34 v -17.43 c 0,-0.11 0,-0.23 0,-0.34 a 6.91,6.91 0 0 1 6.28,-6.32 6,6 0 0 1 0.85,0 h 155.32 v 0 a 54.05,54.05 0 0 0 21.75,30.8 z"
       transform="translate(-0.01,-0.01)"
       id="path11491" />
    <rect
       class="cls-6"
       x="871.21997"
       y="1585.55"
       width="3.76"
       height="30.85"
       id="rect11493" />
    <rect
       class="cls-6"
       x="858.5"
       y="1585.55"
       width="3.76"
       height="30.85"
       id="rect11495" />
    <rect
       class="cls-6"
       x="843.25"
       y="1585.55"
       width="3.76"
       height="30.85"
       id="rect11497" />
    <rect
       class="cls-6"
       x="819.88"
       y="1585.55"
       width="3.76"
       height="30.85"
       id="rect11499" />
    <rect
       class="cls-6"
       x="795.15997"
       y="1585.55"
       width="3.76"
       height="30.85"
       id="rect11501" />
    <rect
       class="cls-6"
       x="757.27002"
       y="1585.55"
       width="3.76"
       height="30.85"
       id="rect11503" />
    <rect
       class="cls-6"
       x="721.79999"
       y="1585.55"
       width="3.76"
       height="30.85"
       id="rect11505" />
    <rect
       class="cls-6"
       x="690.12"
       y="1585.55"
       width="3.76"
       height="30.85"
       id="rect11507" />
    <rect
       class="cls-6"
       x="883.32001"
       y="1585.55"
       width="3.76"
       height="30.85"
       id="rect11509" />
    <rect
       class="cls-6"
       x="891.32001"
       y="1585.55"
       width="3.76"
       height="30.85"
       id="rect11511" />
    <rect
       class="cls-6"
       x="899.03998"
       y="1585.55"
       width="3.76"
       height="30.85"
       id="rect11513" />
    <path
       class="cls-6"
       d="m 908.61,1585.67 v 30.63 a 8.21,8.21 0 0 1 -1.41,0.11 h -2.35 v -30.85 h 2.35 a 8.21,8.21 0 0 1 1.41,0.11 z"
       transform="translate(-0.01,-0.01)"
       id="path11515" />
    <path
       class="cls-6"
       d="m 913.83,1588.52 v 24.93 a 8,8 0 0 1 -3.76,2.51 v -30 a 8,8 0 0 1 3.76,2.56 z"
       transform="translate(-0.01,-0.01)"
       id="path11517" />
    <path
       class="cls-5"
       d="m 890.9,1561.47 v 17.42 a 6,6 0 0 1 -1.37,3.75 7.88,7.88 0 0 1 -3.76,2.51 8.41,8.41 0 0 1 -1.46,0.35 l -0.46,0.06 h -0.26 -0.26 -331 c -4.26,0 -7.77,-2.84 -8,-6.37 0,-0.12 0,-0.23 0,-0.35 v -17.42 c 0,-0.12 0,-0.23 0,-0.35 a 2.46,2.46 0 0 1 0,-0.28 c 0.32,-2.84 2.78,-5.19 6,-5.88 h 0.25 a 9.65,9.65 0 0 1 1.72,-0.16 h 330.6 0.72 0.32 v 0 h 0.37 a 8.41,8.41 0 0 1 1.46,0.34 8,8 0 0 1 3.76,2.52 6,6 0 0 1 1.37,3.86 z"
       transform="translate(-0.01,-0.01)"
       id="path11519" />
    <path
       class="cls-6"
       d="M 728.6,1585.61 H 551.53 a 7,7 0 0 1 -7.13,-6.37 c 0,-0.12 0,-0.23 0,-0.35 v -17.42 c 0,-0.12 0,-0.23 0,-0.35 a 2.46,2.46 0 0 1 0,-0.28 6.89,6.89 0 0 1 5.54,-5.92 l 0.3,-0.06 a 7.5,7.5 0 0 1 1.27,-0.11 h 155.34 l 0.06,0.22 a 54.06,54.06 0 0 0 21.62,30.59 z"
       transform="translate(-0.01,-0.01)"
       id="path11521" />
    <rect
       class="cls-6"
       x="846.91998"
       y="1554.74"
       width="3.76"
       height="30.860001"
       id="rect11523" />
    <rect
       class="cls-6"
       x="834.20001"
       y="1554.74"
       width="3.76"
       height="30.860001"
       id="rect11525" />
    <rect
       class="cls-6"
       x="818.95001"
       y="1554.74"
       width="3.76"
       height="30.860001"
       id="rect11527" />
    <rect
       class="cls-6"
       x="795.58002"
       y="1554.74"
       width="3.76"
       height="30.860001"
       id="rect11529" />
    <rect
       class="cls-6"
       x="770.85999"
       y="1554.74"
       width="3.76"
       height="30.860001"
       id="rect11531" />
    <rect
       class="cls-6"
       x="732.96997"
       y="1554.74"
       width="3.76"
       height="30.860001"
       id="rect11533" />
    <rect
       class="cls-6"
       x="697.5"
       y="1554.74"
       width="3.76"
       height="30.860001"
       id="rect11535" />
    <rect
       class="cls-6"
       x="665.82001"
       y="1554.74"
       width="3.76"
       height="30.860001"
       id="rect11537" />
    <rect
       class="cls-6"
       x="859.02002"
       y="1554.74"
       width="3.76"
       height="30.860001"
       id="rect11539" />
    <rect
       class="cls-6"
       x="867.02002"
       y="1554.74"
       width="3.76"
       height="30.860001"
       id="rect11541" />
    <rect
       class="cls-6"
       x="874.73999"
       y="1554.74"
       width="3.76"
       height="30.860001"
       id="rect11543" />
    <path
       class="cls-6"
       d="m 884.31,1554.86 v 30.64 a 9.36,9.36 0 0 1 -1.41,0.11 h -2.35 v -30.86 h 2.35 a 9.36,9.36 0 0 1 1.41,0.11 z"
       transform="translate(-0.01,-0.01)"
       id="path11545" />
    <path
       class="cls-6"
       d="m 889.53,1557.72 v 24.92 a 7.88,7.88 0 0 1 -3.76,2.51 v -30 a 8,8 0 0 1 3.76,2.57 z"
       transform="translate(-0.01,-0.01)"
       id="path11547" />
    <path
       class="cls-5"
       d="m 890.2,1530.83 v 17.42 a 5.91,5.91 0 0 1 -1.37,3.75 8,8 0 0 1 -3.75,2.52 8.65,8.65 0 0 1 -1.14,0.29 v 0 h -0.31 a 9.36,9.36 0 0 1 -1.41,0.11 H 551.69 a 8.64,8.64 0 0 1 -1,-0.06 l -0.4,-0.05 c -3.59,-0.55 -6.37,-3.13 -6.56,-6.26 0,-0.12 0,-0.23 0,-0.35 v -17.42 c 0,-0.12 0,-0.23 0,-0.35 0.22,-3.53 3.73,-6.37 8,-6.37 h 330.48 q 0.31,0 0.63,0 h 0.27 0.3 0.21 a 8.88,8.88 0 0 1 1.46,0.35 l 0.21,0.07 0.2,0.07 0.4,0.17 0.44,0.2 0.37,0.2 0.41,0.26 0.31,0.21 v 0 a 1.49,1.49 0 0 1 0.2,0.15 5.63,5.63 0 0 1 0.58,0.5 l 0.16,0.16 0.16,0.16 c 0.1,0.11 0.2,0.22 0.29,0.34 a 5.91,5.91 0 0 1 1.39,3.93 z"
       transform="translate(-0.01,-0.01)"
       id="path11549" />
    <path
       class="cls-6"
       d="m 727.9,1555 h -177.49 -0.45 a 6.93,6.93 0 0 1 -6.26,-6.32 c 0,-0.12 0,-0.23 0,-0.35 v -17.42 c 0,-0.12 0,-0.23 0,-0.35 a 7,7 0 0 1 7.13,-6.37 h 155.32 c 0.07,0.26 0.15,0.51 0.22,0.77 a 54,54 0 0 0 21.22,29.87 z"
       transform="translate(-0.01,-0.01)"
       id="path11551" />
    <rect
       class="cls-6"
       x="846.21997"
       y="1524.11"
       width="3.76"
       height="30.85"
       id="rect11553" />
    <rect
       class="cls-6"
       x="833.51001"
       y="1524.11"
       width="3.76"
       height="30.85"
       id="rect11555" />
    <rect
       class="cls-6"
       x="818.26001"
       y="1524.11"
       width="3.76"
       height="30.85"
       id="rect11557" />
    <rect
       class="cls-6"
       x="794.89001"
       y="1524.11"
       width="3.76"
       height="30.85"
       id="rect11559" />
    <rect
       class="cls-6"
       x="770.16998"
       y="1524.11"
       width="3.76"
       height="30.85"
       id="rect11561" />
    <rect
       class="cls-6"
       x="732.28003"
       y="1524.11"
       width="3.76"
       height="30.85"
       id="rect11563" />
    <rect
       class="cls-6"
       x="696.79999"
       y="1524.11"
       width="3.76"
       height="30.85"
       id="rect11565" />
    <rect
       class="cls-6"
       x="665.12"
       y="1524.11"
       width="3.76"
       height="30.85"
       id="rect11567" />
    <rect
       class="cls-6"
       x="858.33002"
       y="1524.11"
       width="3.76"
       height="30.85"
       id="rect11569" />
    <rect
       class="cls-6"
       x="866.32001"
       y="1524.11"
       width="3.76"
       height="30.85"
       id="rect11571" />
    <rect
       class="cls-6"
       x="874.03998"
       y="1524.11"
       width="3.76"
       height="30.85"
       id="rect11573" />
    <path
       class="cls-6"
       d="m 883.62,1524.22 v 30.64 a 9.36,9.36 0 0 1 -1.41,0.11 h -2.35 v -30.85 h 2.35 a 9.36,9.36 0 0 1 1.41,0.1 z"
       transform="translate(-0.01,-0.01)"
       id="path11575" />
    <path
       class="cls-6"
       d="M 888.83,1527.08 V 1552 a 8,8 0 0 1 -3.75,2.52 v -30 a 8,8 0 0 1 3.75,2.56 z"
       transform="translate(-0.01,-0.01)"
       id="path11577" />
    <path
       class="cls-5"
       d="m 907.28,1500.74 v 17.42 a 5.91,5.91 0 0 1 -1.37,3.75 8,8 0 0 1 -3.75,2.51 8.76,8.76 0 0 1 -1.47,0.35 9.26,9.26 0 0 1 -1.41,0.11 H 568.77 a 9.12,9.12 0 0 1 -3.69,-0.77 6.82,6.82 0 0 1 -4.27,-5.3 1.55,1.55 0 0 1 0,-0.31 c 0,-0.11 0,-0.22 0,-0.34 v -17.42 c 0,-0.12 0,-0.24 0,-0.35 0.22,-3.53 3.73,-6.37 8,-6.37 h 330.47 a 9.26,9.26 0 0 1 1.41,0.11 8.74,8.74 0 0 1 1.47,0.34 8,8 0 0 1 3.75,2.52 5.91,5.91 0 0 1 1.37,3.75 z"
       transform="translate(-0.01,-0.01)"
       id="path11579" />
    <path
       class="cls-6"
       d="M 745,1524.88 H 567.91 a 7.41,7.41 0 0 1 -3.29,-0.77 6.71,6.71 0 0 1 -3.81,-5.3 1.55,1.55 0 0 1 0,-0.31 c 0,-0.11 0,-0.22 0,-0.34 v -17.42 c 0,-0.12 0,-0.24 0,-0.35 a 7,7 0 0 1 7.13,-6.37 h 155.3 a 54.12,54.12 0 0 0 20.65,30.09 z"
       transform="translate(-0.01,-0.01)"
       id="path11581" />
    <rect
       class="cls-6"
       x="863.29999"
       y="1494.01"
       width="3.76"
       height="30.860001"
       id="rect11583" />
    <rect
       class="cls-6"
       x="850.58002"
       y="1494.01"
       width="3.76"
       height="30.860001"
       id="rect11585" />
    <rect
       class="cls-6"
       x="835.34003"
       y="1494.01"
       width="3.76"
       height="30.860001"
       id="rect11587" />
    <rect
       class="cls-6"
       x="811.96002"
       y="1494.01"
       width="3.76"
       height="30.860001"
       id="rect11589" />
    <rect
       class="cls-6"
       x="787.25"
       y="1494.01"
       width="3.76"
       height="30.860001"
       id="rect11591" />
    <rect
       class="cls-6"
       x="749.35999"
       y="1494.01"
       width="3.76"
       height="30.860001"
       id="rect11593" />
    <rect
       class="cls-6"
       x="713.88"
       y="1494.01"
       width="3.76"
       height="30.860001"
       id="rect11595" />
    <rect
       class="cls-6"
       x="682.20001"
       y="1494.01"
       width="3.76"
       height="30.860001"
       id="rect11597" />
    <rect
       class="cls-6"
       x="875.40002"
       y="1494.01"
       width="3.76"
       height="30.860001"
       id="rect11599" />
    <rect
       class="cls-6"
       x="883.40002"
       y="1494.01"
       width="3.76"
       height="30.860001"
       id="rect11601" />
    <rect
       class="cls-6"
       x="891.12"
       y="1494.01"
       width="3.76"
       height="30.860001"
       id="rect11603" />
    <path
       class="cls-6"
       d="m 900.69,1494.13 v 30.64 a 9.26,9.26 0 0 1 -1.41,0.11 h -2.34 V 1494 h 2.34 a 9.26,9.26 0 0 1 1.41,0.13 z"
       transform="translate(-0.01,-0.01)"
       id="path11605" />
    <path
       class="cls-6"
       d="m 905.91,1497 v 24.92 a 7.9,7.9 0 0 1 -3.75,2.51 v -30 a 8,8 0 0 1 3.75,2.57 z"
       transform="translate(-0.01,-0.01)"
       id="path11607" />
    <path
       class="cls-5"
       d="m 934.29,1469.88 v 17.42 a 5.91,5.91 0 0 1 -1.37,3.75 8,8 0 0 1 -3.75,2.52 8.74,8.74 0 0 1 -1.47,0.34 9.26,9.26 0 0 1 -1.41,0.11 H 595.78 c -4.26,0 -7.77,-2.84 -8,-6.37 0,-0.12 0,-0.23 0,-0.35 v -17.42 c 0,-0.12 0,-0.23 0,-0.35 0.2,-3.26 3.22,-5.94 7,-6.32 0.31,0 0.63,0 0.95,0 h 330.56 a 9.26,9.26 0 0 1 1.41,0.11 8.76,8.76 0 0 1 1.47,0.35 7.9,7.9 0 0 1 3.75,2.51 5.91,5.91 0 0 1 1.37,3.7 z"
       transform="translate(-0.01,-0.01)"
       id="path11609" />
    <path
       class="cls-6"
       d="M 772,1494 H 594.92 a 7,7 0 0 1 -7.13,-6.37 c 0,-0.12 0,-0.23 0,-0.35 v -17.42 c 0,-0.12 0,-0.23 0,-0.35 a 6.93,6.93 0 0 1 6.29,-6.32 7.58,7.58 0 0 1 0.84,0 h 155.32 v 0 A 54.12,54.12 0 0 0 772,1494 Z"
       transform="translate(-0.01,-0.01)"
       id="path11611" />
    <rect
       class="cls-6"
       x="890.31"
       y="1463.16"
       width="3.76"
       height="30.860001"
       id="rect11613" />
    <rect
       class="cls-6"
       x="877.59003"
       y="1463.16"
       width="3.76"
       height="30.860001"
       id="rect11615" />
    <rect
       class="cls-6"
       x="862.34998"
       y="1463.16"
       width="3.76"
       height="30.860001"
       id="rect11617" />
    <rect
       class="cls-6"
       x="838.96997"
       y="1463.16"
       width="3.76"
       height="30.860001"
       id="rect11619" />
    <rect
       class="cls-6"
       x="814.26001"
       y="1463.16"
       width="3.76"
       height="30.860001"
       id="rect11621" />
    <rect
       class="cls-6"
       x="776.37"
       y="1463.16"
       width="3.76"
       height="30.860001"
       id="rect11623" />
    <rect
       class="cls-6"
       x="740.89001"
       y="1463.16"
       width="3.76"
       height="30.860001"
       id="rect11625" />
    <rect
       class="cls-6"
       x="709.21002"
       y="1463.16"
       width="3.76"
       height="30.860001"
       id="rect11627" />
    <rect
       class="cls-6"
       x="902.40997"
       y="1463.16"
       width="3.76"
       height="30.860001"
       id="rect11629" />
    <rect
       class="cls-6"
       x="910.40997"
       y="1463.16"
       width="3.76"
       height="30.860001"
       id="rect11631" />
    <rect
       class="cls-6"
       x="918.13"
       y="1463.16"
       width="3.76"
       height="30.860001"
       id="rect11633" />
    <path
       class="cls-6"
       d="m 927.71,1463.27 v 30.64 a 9.39,9.39 0 0 1 -1.42,0.11 H 924 v -30.86 h 2.34 a 9.39,9.39 0 0 1 1.37,0.11 z"
       transform="translate(-0.01,-0.01)"
       id="path11635" />
    <path
       class="cls-6"
       d="m 932.92,1466.13 v 24.92 a 8,8 0 0 1 -3.75,2.52 v -30 a 7.9,7.9 0 0 1 3.75,2.56 z"
       transform="translate(-0.01,-0.01)"
       id="path11637" />
    <path
       class="cls-5"
       d="m 890.9,1439.07 v 17.43 a 6,6 0 0 1 -1.37,3.75 8,8 0 0 1 -3.76,2.51 7.58,7.58 0 0 1 -1.46,0.34 3.62,3.62 0 0 1 -0.46,0.06 h -0.37 -0.19 -330.91 c -4.26,0 -7.77,-2.83 -8,-6.37 0,-0.11 0,-0.23 0,-0.34 v -17.43 c 0,-0.11 0,-0.23 0,-0.34 0.21,-3.54 3.72,-6.37 8,-6.37 h 331 c 0.33,0 0.66,0.05 1,0.09 a 8.41,8.41 0 0 1 1.46,0.35 7.23,7.23 0 0 1 0.7,0.26 l 0.41,0.18 v 0 a 4,4 0 0 1 0.41,0.21 c 0,0 0,0 0.06,0 a 2.16,2.16 0 0 1 0.36,0.22 6.52,6.52 0 0 1 0.8,0.58 l 0.22,0.19 v 0 l 0.14,0.13 v 0 l 0.23,0.25 0.32,0.36 a 6,6 0 0 1 1.41,3.94 z"
       transform="translate(-0.01,-0.01)"
       id="path11639" />
    <path
       class="cls-6"
       d="M 728.6,1463.21 H 551.53 a 7,7 0 0 1 -7.13,-6.37 c 0,-0.11 0,-0.23 0,-0.34 v -17.43 c 0,-0.11 0,-0.23 0,-0.34 a 7,7 0 0 1 7.13,-6.37 h 155.32 c 0.06,0.23 0.13,0.47 0.21,0.71 a 53.89,53.89 0 0 0 21.47,30.09 z"
       transform="translate(-0.01,-0.01)"
       id="path11641" />
    <rect
       class="cls-6"
       x="846.91998"
       y="1432.35"
       width="3.76"
       height="30.860001"
       id="rect11643" />
    <rect
       class="cls-6"
       x="834.20001"
       y="1432.35"
       width="3.76"
       height="30.860001"
       id="rect11645" />
    <rect
       class="cls-6"
       x="818.95001"
       y="1432.35"
       width="3.76"
       height="30.860001"
       id="rect11647" />
    <rect
       class="cls-6"
       x="795.58002"
       y="1432.35"
       width="3.76"
       height="30.860001"
       id="rect11649" />
    <rect
       class="cls-6"
       x="770.85999"
       y="1432.35"
       width="3.76"
       height="30.860001"
       id="rect11651" />
    <rect
       class="cls-6"
       x="732.96997"
       y="1432.35"
       width="3.76"
       height="30.860001"
       id="rect11653" />
    <rect
       class="cls-6"
       x="697.5"
       y="1432.35"
       width="3.76"
       height="30.860001"
       id="rect11655" />
    <rect
       class="cls-6"
       x="665.82001"
       y="1432.35"
       width="3.76"
       height="30.860001"
       id="rect11657" />
    <rect
       class="cls-6"
       x="859.02002"
       y="1432.35"
       width="3.76"
       height="30.860001"
       id="rect11659" />
    <rect
       class="cls-6"
       x="867.02002"
       y="1432.35"
       width="3.76"
       height="30.860001"
       id="rect11661" />
    <rect
       class="cls-6"
       x="874.73999"
       y="1432.35"
       width="3.76"
       height="30.860001"
       id="rect11663" />
    <path
       class="cls-6"
       d="m 884.31,1432.46 v 30.64 a 9.36,9.36 0 0 1 -1.41,0.11 h -2.35 v -30.85 h 2.35 a 9.36,9.36 0 0 1 1.41,0.1 z"
       transform="translate(-0.01,-0.01)"
       id="path11665" />
    <path
       class="cls-6"
       d="m 889.53,1435.32 v 24.93 a 8,8 0 0 1 -3.76,2.51 v -30 a 8,8 0 0 1 3.76,2.56 z"
       transform="translate(-0.01,-0.01)"
       id="path11667" />
    <path
       class="cls-5"
       d="m 915.2,1408.93 v 17.42 a 6,6 0 0 1 -1.37,3.75 8,8 0 0 1 -3.76,2.52 8.41,8.41 0 0 1 -1.46,0.34 9.36,9.36 0 0 1 -1.41,0.11 H 576.68 a 9.28,9.28 0 0 1 -3.57,-0.71 6.87,6.87 0 0 1 -4.39,-5.39 2.45,2.45 0 0 1 0,-0.27 c 0,-0.12 0,-0.23 0,-0.35 v -17.42 c 0,-0.12 0,-0.23 0,-0.35 0.2,-3.27 3.21,-5.94 7,-6.32 0.31,0 0.62,0 0.94,0 H 907.2 a 9.36,9.36 0 0 1 1.41,0.11 8.41,8.41 0 0 1 1.46,0.35 7.88,7.88 0 0 1 3.76,2.51 6,6 0 0 1 1.37,3.7 z"
       transform="translate(-0.01,-0.01)"
       id="path11669" />
    <path
       class="cls-6"
       d="M 752.9,1433.07 H 575.83 a 7.5,7.5 0 0 1 -3.19,-0.71 6.76,6.76 0 0 1 -3.92,-5.39 2.45,2.45 0 0 1 0,-0.27 c 0,-0.12 0,-0.23 0,-0.35 v -17.42 c 0,-0.12 0,-0.23 0,-0.35 a 6.92,6.92 0 0 1 6.28,-6.32 7.92,7.92 0 0 1 0.85,0 h 155.3 v 0 a 54.08,54.08 0 0 0 20.71,30.1 c 0.35,0.24 0.69,0.48 1.04,0.71 z"
       transform="translate(-0.01,-0.01)"
       id="path11671" />
    <rect
       class="cls-6"
       x="871.21997"
       y="1402.2"
       width="3.76"
       height="30.860001"
       id="rect11673" />
    <rect
       class="cls-6"
       x="858.5"
       y="1402.2"
       width="3.76"
       height="30.860001"
       id="rect11675" />
    <rect
       class="cls-6"
       x="843.25"
       y="1402.2"
       width="3.76"
       height="30.860001"
       id="rect11677" />
    <rect
       class="cls-6"
       x="819.88"
       y="1402.2"
       width="3.76"
       height="30.860001"
       id="rect11679" />
    <rect
       class="cls-6"
       x="795.15997"
       y="1402.2"
       width="3.76"
       height="30.860001"
       id="rect11681" />
    <rect
       class="cls-6"
       x="757.27002"
       y="1402.2"
       width="3.76"
       height="30.860001"
       id="rect11683" />
    <rect
       class="cls-6"
       x="721.79999"
       y="1402.2"
       width="3.76"
       height="30.860001"
       id="rect11685" />
    <rect
       class="cls-6"
       x="690.12"
       y="1402.2"
       width="3.76"
       height="30.860001"
       id="rect11687" />
    <rect
       class="cls-6"
       x="883.32001"
       y="1402.2"
       width="3.76"
       height="30.860001"
       id="rect11689" />
    <rect
       class="cls-6"
       x="891.32001"
       y="1402.2"
       width="3.76"
       height="30.860001"
       id="rect11691" />
    <rect
       class="cls-6"
       x="899.03998"
       y="1402.2"
       width="3.76"
       height="30.860001"
       id="rect11693" />
    <path
       class="cls-6"
       d="M 908.61,1402.32 V 1433 a 9.36,9.36 0 0 1 -1.41,0.11 h -2.35 v -30.86 h 2.35 a 9.36,9.36 0 0 1 1.41,0.07 z"
       transform="translate(-0.01,-0.01)"
       id="path11695" />
    <path
       class="cls-6"
       d="m 913.83,1405.18 v 24.92 a 8,8 0 0 1 -3.76,2.52 v -29.95 a 7.88,7.88 0 0 1 3.76,2.51 z"
       transform="translate(-0.01,-0.01)"
       id="path11697" />
    <path
       class="cls-5"
       d="m 925.54,1378.12 v 17.43 a 6,6 0 0 1 -1.37,3.75 8,8 0 0 1 -3.75,2.51 8.86,8.86 0 0 1 -1.46,0.34 3.78,3.78 0 0 1 -0.47,0.06 H 918.23 587 c -4.26,0 -7.77,-2.83 -8,-6.37 0,-0.11 0,-0.23 0,-0.34 v -17.43 c 0,-0.11 0,-0.23 0,-0.34 0.22,-3.54 3.73,-6.37 8,-6.37 h 330.54 a 9.4,9.4 0 0 1 1.42,0.1 8.88,8.88 0 0 1 1.46,0.35 8,8 0 0 1 3.75,2.51 5.93,5.93 0 0 1 1.37,3.8 z"
       transform="translate(-0.01,-0.01)"
       id="path11699" />
    <path
       class="cls-6"
       d="M 763.24,1402.26 H 586.17 a 7,7 0 0 1 -7.13,-6.37 c 0,-0.11 0,-0.23 0,-0.34 v -17.43 c 0,-0.11 0,-0.23 0,-0.34 a 7,7 0 0 1 7.13,-6.37 H 741.5 a 54.07,54.07 0 0 0 21.67,30.8 z"
       transform="translate(-0.01,-0.01)"
       id="path11701" />
    <rect
       class="cls-6"
       x="881.56"
       y="1371.4"
       width="3.76"
       height="30.860001"
       id="rect11703" />
    <rect
       class="cls-6"
       x="868.84998"
       y="1371.4"
       width="3.76"
       height="30.860001"
       id="rect11705" />
    <rect
       class="cls-6"
       x="853.59998"
       y="1371.4"
       width="3.76"
       height="30.860001"
       id="rect11707" />
    <rect
       class="cls-6"
       x="830.21997"
       y="1371.4"
       width="3.76"
       height="30.860001"
       id="rect11709" />
    <rect
       class="cls-6"
       x="805.51001"
       y="1371.4"
       width="3.76"
       height="30.860001"
       id="rect11711" />
    <rect
       class="cls-6"
       x="767.62"
       y="1371.4"
       width="3.76"
       height="30.860001"
       id="rect11713" />
    <rect
       class="cls-6"
       x="732.14001"
       y="1371.4"
       width="3.76"
       height="30.860001"
       id="rect11715" />
    <rect
       class="cls-6"
       x="700.46002"
       y="1371.4"
       width="3.76"
       height="30.860001"
       id="rect11717" />
    <rect
       class="cls-6"
       x="893.65997"
       y="1371.4"
       width="3.76"
       height="30.860001"
       id="rect11719" />
    <rect
       class="cls-6"
       x="901.65997"
       y="1371.4"
       width="3.76"
       height="30.860001"
       id="rect11721" />
    <rect
       class="cls-6"
       x="909.38"
       y="1371.4"
       width="3.76"
       height="30.860001"
       id="rect11723" />
    <path
       class="cls-6"
       d="m 919,1371.51 v 30.64 a 9.36,9.36 0 0 1 -1.41,0.11 h -2.39 v -30.85 h 2.35 a 9.36,9.36 0 0 1 1.45,0.1 z"
       transform="translate(-0.01,-0.01)"
       id="path11725" />
    <path
       class="cls-6"
       d="m 924.17,1374.37 v 24.92 a 8,8 0 0 1 -3.75,2.52 v -30 a 8,8 0 0 1 3.75,2.56 z"
       transform="translate(-0.01,-0.01)"
       id="path11727" />
    <circle
       class="cls-10"
       cx="559.87"
       cy="1551.22"
       r="157.08"
       transform="rotate(-45,559.85633,1551.2199)"
       id="circle11729" />
    <circle
       class="cls-5"
       cx="546.15997"
       cy="1551.22"
       r="157.08"
       transform="rotate(-45,546.14946,1551.2275)"
       id="circle11731" />
    <path
       class="cls-6"
       d="m 546.16,1696.19 a 143.12,143.12 0 1 1 101.2,-41.92 142.2,142.2 0 0 1 -101.2,41.92 z m 0,-277.7 c -74.2,0 -134.58,60.38 -134.58,134.58 0,74.2 60.42,134.58 134.58,134.58 74.16,0 134.58,-60.37 134.58,-134.58 0,-74.21 -60.37,-134.58 -134.58,-134.58 z"
       transform="translate(-0.01,-0.01)"
       id="path11733" />
    <path
       class="cls-6"
       d="m 565.87,1594.61 a 23.75,23.75 0 0 0 -0.34,-8.31 17.18,17.18 0 0 0 -3.52,-6.9 32.5,32.5 0 0 0 -7,-6.2 86.07,86.07 0 0 0 -10.89,-6.1 225.61,225.61 0 0 1 -20.11,-11 71,71 0 0 1 -15,-12.23 41.79,41.79 0 0 1 -8.88,-14.92 q -2.82,-8.26 -1.53,-19.07 a 42.93,42.93 0 0 1 5.35,-16.69 39.76,39.76 0 0 1 11.05,-12.38 49.69,49.69 0 0 1 15.88,-7.56 66.26,66.26 0 0 1 19.82,-2.28 l 2.8,-23.59 19,2.25 -2.84,23.92 a 59.14,59.14 0 0 1 17.87,7.6 44.8,44.8 0 0 1 20,28.7 59.6,59.6 0 0 1 0.79,20.27 l -34.3,-4.07 q 1.57,-13.23 -3.52,-20.49 -5.09,-7.26 -15,-8.42 a 25.68,25.68 0 0 0 -9.37,0.4 17.35,17.35 0 0 0 -6.84,3.32 16.26,16.26 0 0 0 -4.4,5.68 23.85,23.85 0 0 0 -2.09,7.47 21.91,21.91 0 0 0 0.31,7.52 16.2,16.2 0 0 0 3.37,6.61 32.7,32.7 0 0 0 7.08,6.2 108.27,108.27 0 0 0 11.32,6.54 q 11,5.67 19.9,11.31 a 71.84,71.84 0 0 1 15,12.34 40.44,40.44 0 0 1 10.42,33.93 43.31,43.31 0 0 1 -5.45,17 39.35,39.35 0 0 1 -11.14,12.21 48.05,48.05 0 0 1 -16,7.27 71.6,71.6 0 0 1 -19.93,2.11 l -2.6,21.93 -18.87,-2.24 2.59,-21.82 a 80.06,80.06 0 0 1 -18.53,-6.56 50.67,50.67 0 0 1 -15.19,-11.47 45.51,45.51 0 0 1 -9.53,-17.06 q -3.15,-10 -1.58,-23.21 l 34.3,4.07 a 34.12,34.12 0 0 0 0.64,13.32 22.1,22.1 0 0 0 4.88,9.07 21.47,21.47 0 0 0 7.85,5.41 36.58,36.58 0 0 0 9.4,2.39 30.15,30.15 0 0 0 10,-0.27 20.33,20.33 0 0 0 7.53,-3.13 16.32,16.32 0 0 0 5,-5.5 20,20 0 0 0 2.3,-7.37 z"
       transform="translate(-0.01,-0.01)"
       id="path11735" />
    <path
       class="cls-10"
       d="m 835,1335.53 c -16.09,28 -36.32,38.8 -36.32,38.8 h -84.15 c 0,0 132.75,-60.15 120.47,-38.8 z"
       transform="translate(-0.01,-0.01)"
       id="path11737" />
    <path
       class="cls-19"
       d="m 770.37,1552.13 a 7.79,7.79 0 0 0 -1.39,8.32 v 0 c 2,5.55 8.64,11.74 16.35,17.93 1,0.79 1.86,1.51 2.62,2.18 l 0.59,0.53 0.45,0.41 c 7.18,6.62 4.48,8.14 17.39,21.58 14.71,15.31 24.84,15.58 27.72,14.19 2.44,-1.19 -2.51,-9.31 -8,-18.44 l -0.8,-1.33 c -0.73,-1.21 -1.46,-2.45 -2.18,-3.66 -6.44,-11 -4.78,-16.14 -3.26,-32.49 1.24,-13.28 20.67,-74.21 20.67,-74.21 l -28.2,-4.86 c 0,0 -8.5,48.52 -17.85,56 -5,4 -10.61,4 -15.41,7 l -1,0.63 a 37.18,37.18 0 0 0 -7.7,6.22 z"
       transform="translate(-0.01,-0.01)"
       id="path11739" />
    <path
       class="cls-20"
       d="m 770.37,1552.13 a 7.79,7.79 0 0 0 -1.39,8.32 v 0 c 2.46,5.54 8.93,11.7 16.37,17.87 1,0.81 1.83,1.55 2.6,2.24 l 0.59,0.53 0.45,0.41 c 7.18,6.62 4.48,8.14 17.39,21.58 14.71,15.31 24.84,15.58 27.72,14.19 2.44,-1.19 -2.51,-9.31 -8,-18.44 a 62.63,62.63 0 0 1 -26.23,-19.33 c -8.86,-11.3 -14.77,-25.83 -20.8,-34.25 l -1,0.63 a 37.18,37.18 0 0 0 -7.7,6.25 z"
       transform="translate(-0.01,-0.01)"
       id="path11741" />
    <path
       class="cls-19"
       d="m 997.75,1534.51 c 1.75,8.71 14.15,7.26 28,3.87 13.85,-3.39 10.56,0.64 30.29,-1.55 19.73,-2.19 25.71,-9.54 26.31,-12.47 0.54,-2.6 -9.21,-3.52 -19.67,-4.73 -1.31,-0.14 -2.63,-0.31 -4,-0.47 -11.81,-1.48 -20.45,-9.1 -31.18,-15.35 -10.15,-5.93 -25.31,-30.07 -25.31,-30.07 l -27.06,2.14 c 0,0 14.2,21.56 19.69,30.94 3.23,5.51 3.06,12.81 2.66,18.44 a 35,35 0 0 0 0.27,9.25 z"
       transform="translate(-0.01,-0.01)"
       id="path11743" />
    <path
       class="cls-20"
       d="m 1025.77,1538.38 c 13.86,-3.39 10.56,0.64 30.29,-1.55 19.73,-2.19 25.71,-9.54 26.31,-12.47 0.54,-2.6 -9.21,-3.52 -19.67,-4.73 l -0.09,0.21 a 55.75,55.75 0 0 1 -28.26,8.78 c -13.38,0.32 -27.56,-3.51 -36.8,-3.36 a 35,35 0 0 0 0.2,9.25 c 1.75,8.71 14.15,7.26 28.02,3.87 z"
       transform="translate(-0.01,-0.01)"
       id="path11745" />
    <path
       class="cls-10"
       d="m 894.07,1361.51 -25.3,68.06 -33,88.86 a 53.37,53.37 0 0 1 -17.54,-1.6 c -7.9,-2.28 -17,-8.26 -17,-8.26 0,0 9.17,-95.41 26.28,-150.19 4.38,-14.06 9.29,-25.43 14.71,-31.83 26.53,-31.34 51.85,34.96 51.85,34.96 z"
       transform="translate(-0.01,-0.01)"
       id="path11747" />
    <path
       class="cls-21"
       d="m 868.35,1253.42 c -16.57,-5.35 -63.83,1.52 -111.31,10.81 l -9.94,-16.4 -102.54,-8 c 0,0 -33.84,75 -15.31,122.85 2.72,7 9.46,10 18.68,10.14 v 0 c 0,0 61.19,1.5 81,1.5 51,0 107.93,-35.06 115.29,-36.53 12.06,-2.41 16.88,21.7 28.93,47 12.05,25.3 113.31,112.11 113.31,112.11 0,0 15.57,0.15 22,-2.26 6.92,-2.59 9.45,-6 9.45,-6 0,0 -112.19,-223.17 -149.56,-235.22 z"
       transform="translate(-0.01,-0.01)"
       id="path11749" />
    <path
       class="cls-1"
       d="m 736.21,946.71 a 36.32,36.32 0 0 0 -19.72,-5.09 59.51,59.51 0 0 1 -9.79,-0.65 c -38.86,-5.22 -62.25,51.25 -63.62,68.36 -2.54,31.53 -19.22,36.34 -42.7,56.09 -47.09,39.6 -33.28,85.62 -7.53,102.71 15.44,10.26 42.67,0 42.67,0 0.39,0.27 74.47,-41.41 111,-61.51 54.72,-7.79 11.68,-146.82 -10.31,-159.91 z"
       transform="translate(-0.01,-0.01)"
       id="path11751" />
    <path
       class="cls-19"
       d="m 715.9,1089.5 c 0.16,0.11 -18,6.29 -30.09,0.93 -11.41,-5 -20,-23.8 -19.87,-23.81 5.18,-0.24 10.88,-4.78 15.26,-34.54 l 2.21,0.8 37.14,13.36 c 0,0 -2.69,11.92 -4.43,23.26 -1.47,9.5 -2.25,18.65 -0.22,20 z"
       transform="translate(-0.01,-0.01)"
       id="path11753" />
    <path
       class="cls-22"
       d="m 720.55,1046.24 c 0,0 -2.69,11.92 -4.43,23.26 -21.33,-3.84 -29.7,-25.09 -32.71,-36.62 z"
       transform="translate(-0.01,-0.01)"
       id="path11755" />
    <path
       class="cls-19"
       d="m 726.08,1058.07 c 0,0 -50.81,-6.82 -46.08,-38.4 4.73,-31.58 1.37,-53.73 34,-50.71 32.63,3.02 37.13,16 38.11,26.94 0.98,10.94 -12.69,63.1 -26.03,62.17 z"
       transform="translate(-0.01,-0.01)"
       id="path11757" />
    <path
       class="cls-1"
       d="m 750.27,978.59 c 0,0 -32.53,28 -54.66,30.29 -22.13,2.29 -30.5,-4.84 -30.5,-4.84 a 86.46,86.46 0 0 0 20.89,-28.3 15.56,15.56 0 0 1 12.83,-9.17 c 15.8,-1.37 45.74,-1.99 51.44,12.02 z"
       transform="translate(-0.01,-0.01)"
       id="path11759" />
    <path
       class="cls-1"
       d="m 729.93,976.08 c 0,0 10.89,10.52 14.31,18.33 3.31,7.53 4.3,25.54 1.67,32.69 0,0 17,-33 7.35,-49 -10.18,-16.97 -23.33,-2.02 -23.33,-2.02 z"
       transform="translate(-0.01,-0.01)"
       id="path11761" />
    <path
       class="cls-23"
       d="m 758.68,1164.35 c -1.53,102.86 -0.42,81.37 -11.67,91.13 -2.71,2.35 -10.33,3.75 -20.36,4.41 -31.54,2.09 -87,-3.1 -89.09,-8.93 -7.28,-20.17 -2.14,-26.44 -8.21,-57.31 -0.64,-3.29 -1.42,-6.84 -2.34,-10.71 -5.06,-21.21 -10,-28.42 8,-62.49 16.28,-30.86 33.2,-55.91 34.72,-55 42.95,25.5 46.42,4.07 46.42,4.07 0,0 43.28,44.66 42.53,94.83 z"
       transform="translate(-0.01,-0.01)"
       id="path11763" />
    <path
       class="cls-21"
       d="m 868.77,1429.57 -33,88.86 a 53.37,53.37 0 0 1 -17.54,-1.6 c -7.9,-2.28 -17,-8.26 -17,-8.26 0,0 9.17,-95.41 26.28,-150.19 z"
       transform="translate(-0.01,-0.01)"
       id="path11765" />
    <path
       class="cls-23"
       d="m 716.12,1069.5 c 0,0 44.2,7.5 49.39,26.53 5.19,19.03 35.73,130.9 35.73,130.9 0,0 -22.47,4 -32.85,-6.34 -10.38,-10.34 -36.12,-96.31 -36.12,-96.31 z"
       transform="translate(-0.01,-0.01)"
       id="path11767" />
    <path
       class="cls-24"
       d="m 726.65,1259.89 c -31.54,2.09 -87,-3.1 -89.09,-8.93 -7.28,-20.17 -2.14,-26.44 -8.21,-57.31 l 15.21,-42.84 c 0,0 -2.52,47.7 11.55,60.25 14.07,12.55 57.6,24.22 64.44,34.7 3.29,5.03 5.45,10.08 6.1,14.13 z"
       transform="translate(-0.01,-0.01)"
       id="path11769" />
    <path
       class="cls-19"
       d="m 690.51,1239.83 c 0,0 31.11,-6.93 36.14,-4.17 5.03,2.76 17.29,12.82 18.82,16.32 1.53,3.5 -11.18,-2.66 -15.31,-3.77 -2.68,-0.72 -9.73,1.73 -13.22,2.9 -14.68,4.89 -23.68,2.37 -23.68,2.37 z"
       transform="translate(-0.01,-0.01)"
       id="path11771" />
    <path
       class="cls-23"
       d="m 669.67,1065.42 c 0,0 -41.78,2.57 -56.24,22.75 -20.36,28.39 -60.75,149.41 -37.6,165.55 26.06,18.18 118.63,4.76 118.63,4.76 0,0 3.08,-14.4 -1.2,-21.37 -4.28,-6.97 -73.94,-18.22 -77.15,-21.43 -3.21,-3.21 40.18,-62.69 40.18,-72.33 0,-9.64 13.38,-77.93 13.38,-77.93 z"
       transform="translate(-0.01,-0.01)"
       id="path11773" />
    <path
       class="cls-19"
       d="m 728.15,1244.32 c 0,0 6.52,8.41 8.66,9.41 a 6.37,6.37 0 0 0 3.52,0.76 l -4.4,-7.91 z"
       transform="translate(-0.01,-0.01)"
       id="path11775" />
    <path
       class="cls-19"
       d="m 726.65,1235.66 19,9.2 a 3.4,3.4 0 0 1 -3.14,1.22 c -2.33,-0.11 -8.22,-2.26 -8.22,-2.26 z"
       transform="translate(-0.01,-0.01)"
       id="path11777" />
    <polygon
       class="cls-1"
       points="931.85,1154.44 782.14,1154.44 736.8,1266.61 886.74,1266.61 "
       id="polygon11779" />
    <polygon
       class="cls-1"
       points="690.5,1266.61 886.74,1266.61 888.5,1262.24 690.5,1262.24 "
       id="polygon11781" />
    <path
       class="cls-23"
       d="m 848.9,1210.53 c 1.13,-3.94 -1.15,-7.13 -5.09,-7.13 a 10.22,10.22 0 0 0 -9.19,7.13 c -1.13,4 1.15,7.14 5.09,7.14 a 10.22,10.22 0 0 0 9.19,-7.14 z"
       transform="translate(-0.01,-0.01)"
       id="path11783" />
    <path
       class="cls-25"
       d="m 2611.62,1184.52 -9.62,7.81 c 0,0 -26.31,-9.43 -32.25,21.83 0,0 -1.58,13.33 6.86,13.35 8.44,0.02 5,-1.45 16.91,-1.1 11.91,0.35 21.86,-6 23.61,-15.65 l 5.72,-8.22 z"
       transform="translate(-0.01,-0.01)"
       id="path11785" />
    <path
       class="cls-26"
       d="m 2612.71,1201.29 c -7.68,-8 -7.06,-13.94 -7.06,-13.94 0,0 88.86,-72.75 97.87,-78.68 6.14,-4 71.58,-62.05 102.18,-97.42 15.17,-17.55 34,-10.74 55.47,-4.57 l 17.71,5.08 c 21.38,6.14 26.94,36 9.4,50.58 -49.42,40.93 -131.62,87 -147,96.64 -38.18,24 -112.92,52.56 -112.92,52.56 a 47.39,47.39 0 0 1 -15.65,-10.25 z"
       transform="translate(-0.01,-0.01)"
       id="path11787" />
    <path
       class="cls-10"
       d="m 2511.3,1648.26 c 0,0 -21.57,16.16 -54.61,7.62 0,0 -26.64,-6.07 -32.48,7.21 0,0 40.86,20.76 51.19,26.44 7.8,4.28 15.93,11 21.68,16.25 a 10.71,10.71 0 0 0 15.51,-1.2 c 1.8,-2.2 3.86,-4.84 6.11,-7.89 6.3,-8.54 21,-36.12 21,-36.12 z"
       transform="translate(-0.01,-0.01)"
       id="path11789" />
    <circle
       class="cls-10"
       cx="2606.5601"
       cy="1057.98"
       r="150.78"
       transform="rotate(-82.24,2606.4767,1058.009)"
       id="circle11791" />
    <circle
       class="cls-5"
       cx="2619.71"
       cy="1057.98"
       r="150.78"
       transform="rotate(-45,2619.6929,1057.9877)"
       id="circle11793" />
    <path
       class="cls-6"
       d="m 2522.57,1156.9 a 137.37,137.37 0 1 1 97.14,40.24 136.48,136.48 0 0 1 -97.14,-40.24 z m -32,-97.14 a 129.18,129.18 0 0 0 258.36,0 c 0,-71.22 -57.95,-129.17 -129.18,-129.17 -71.23,0 -129.22,57.95 -129.22,129.17 z"
       transform="translate(-0.01,-0.01)"
       id="path11795" />
    <path
       class="cls-6"
       d="m 2603,1106.72 a 15.58,15.58 0 0 0 4.78,5.28 19.68,19.68 0 0 0 7.23,3 29.69,29.69 0 0 0 9.56,0.26 35.1,35.1 0 0 0 9,-2.31 20.37,20.37 0 0 0 7.53,-5.18 21.22,21.22 0 0 0 4.69,-8.71 32.82,32.82 0 0 0 0.62,-12.79 l 32.92,-3.91 q 1.5,12.7 -1.52,22.28 a 43.5,43.5 0 0 1 -9.15,16.38 48.62,48.62 0 0 1 -14.57,11 77,77 0 0 1 -17.79,6.29 l 2.48,21 -18.11,2.14 -2.5,-21 a 69,69 0 0 1 -19.12,-2 46.43,46.43 0 0 1 -15.33,-7 37.81,37.81 0 0 1 -10.68,-11.72 45.62,45.62 0 0 1 -3.76,-34.53 40.89,40.89 0 0 1 8.52,-14.37 68.79,68.79 0 0 1 14.36,-11.84 q 8.55,-5.42 19.1,-10.85 a 107.79,107.79 0 0 0 10.87,-6.28 31.56,31.56 0 0 0 6.8,-6 15.62,15.62 0 0 0 3.23,-6.34 20.94,20.94 0 0 0 0.3,-7.22 22.9,22.9 0 0 0 -2,-7.17 15.46,15.46 0 0 0 -4.22,-5.45 16.76,16.76 0 0 0 -6.56,-3.19 24.59,24.59 0 0 0 -9,-0.38 q -9.45,1.11 -14.35,8.08 -4.9,6.97 -3.38,19.66 l -32.92,3.91 a 57.73,57.73 0 0 1 0.75,-19.46 43.07,43.07 0 0 1 19.2,-27.54 57.24,57.24 0 0 1 17.16,-7.3 l -2.73,-23 18.23,-2.16 2.68,22.64 a 63.7,63.7 0 0 1 19,2.2 47.59,47.59 0 0 1 15.24,7.26 38.11,38.11 0 0 1 10.65,11.82 45.48,45.48 0 0 1 3.67,34.33 40.13,40.13 0 0 1 -8.53,14.32 68,68 0 0 1 -14.43,11.74 214.43,214.43 0 0 1 -19.3,10.61 83.34,83.34 0 0 0 -10.45,5.85 31.39,31.39 0 0 0 -6.74,6 16.61,16.61 0 0 0 -3.38,6.63 22.82,22.82 0 0 0 -0.32,8 18.91,18.91 0 0 0 2.27,7.02 z"
       transform="translate(-0.01,-0.01)"
       id="path11797" />
    <path
       class="cls-4"
       d="m 2498.64,1640.05 c 0,0 13.13,30.28 43.44,24.71 0,0 61.85,-51.08 104.28,-104.14 13.78,-17.24 25.51,-34.68 32.41,-50.64 28.13,-65.14 104.07,-162.29 152.35,-211.53 l -120.8,-43.7 c 0,0 -38.69,77.83 -90.17,173.43 -37.1,68.88 -80.83,146.99 -121.51,211.87 z"
       transform="translate(-0.01,-0.01)"
       id="path11799" />
    <path
       class="cls-20"
       d="m 2620.15,1428.18 26.21,132.44 c 13.78,-17.24 25.51,-34.68 32.41,-50.64 28.13,-65.14 104.07,-162.29 152.35,-211.53 l -120.8,-43.7 c 0,0 -38.69,77.83 -90.17,173.43 z"
       transform="translate(-0.01,-0.01)"
       id="path11801" />
    <path
       class="cls-10"
       d="m 2718.89,1665.83 c 0,0 1.32,24.16 -28,27.38 0,0 -16.74,0.09 -16.79,15.47 l 85.13,0.27 c 0,0 2.47,-6.2 3.07,-19.49 0.46,-10.2 -9.89,-36.87 -9.89,-36.87 z"
       transform="translate(-0.01,-0.01)"
       id="path11803" />
    <path
       class="cls-4"
       d="m 2749.94,1254.75 c 0,0 -53.81,59.13 -88,165.66 -18.58,58 34.07,203.68 44.33,254.31 0,0 35.32,3 59.47,-6.34 0,0 1.84,-104.57 -12.29,-185.17 -7.9,-45.11 70.85,-96.47 105.27,-178 23.41,-55.45 -5.07,-54.51 -40.07,-55.84 z"
       transform="translate(-0.01,-0.01)"
       id="path11805" />
    <path
       class="cls-25"
       d="m 2812.06,990.94 c 29.94,16.91 91.24,1.32 91.24,1.32 0,0 -24.89,-28.46 -13.58,-74.29 l -23.51,11.94 -25.21,12.82 a 210.84,210.84 0 0 0 -2.77,22.63 c -0.29,3.75 -0.55,7.93 -0.73,12.5 a 78.62,78.62 0 0 0 -25.44,13.08 z"
       transform="translate(-0.01,-0.01)"
       id="path11807" />
    <path
       class="cls-5"
       d="m 2702.28,1251.69 c 0,5.27 6.06,7.79 7.35,8 12.08,2.21 45.79,15.32 76.17,18.33 25.57,2.68 49.32,0.14 75.41,-5.1 3.45,-0.7 11.56,-2.88 12.14,-6.19 0.71,-3.62 100.62,-203.66 23,-289.6 -1.83,-2 -17.16,1.62 -31.18,5 a 57.52,57.52 0 0 1 -35.43,-2.9 l -13.15,6.92 c -16.14,9 -46.69,41 -50.27,66 -1.81,12.76 -9.11,22.2 -11.22,33.42 q -1.17,6.23 -2.4,12.16 -2.38,11.63 -4.91,22.14 c -4.57,19 -9.39,35.3 -14.13,49.4 -5,15 -10,27.44 -14.39,37.86 -5.73,13.52 -10.57,23.62 -13.59,31.35 -2.18,5.52 -3.4,9.75 -3.4,13.21 z"
       transform="translate(-0.01,-0.01)"
       id="path11809" />
    <path
       class="cls-27"
       d="m 2705.64,1238.51 c 141,-66.44 189.87,-194 189.87,-194 0,0 -114.58,42.26 -142.85,53.27 q -2.38,11.63 -4.91,22.14 c -4.57,19 -9.39,35.3 -14.13,49.4 -5,15 -10,27.44 -14.39,37.86 -5.73,13.5 -10.57,23.6 -13.59,31.33 z"
       transform="translate(-0.01,-0.01)"
       id="path11811" />
    <path
       class="cls-25"
       d="m 2623.13,1200 -12.19,4.47 c 0,0 -24.4,-17.26 -39.6,10.81 0,0 -5.49,12.26 3.21,14.92 8.7,2.66 5.53,0.16 17.76,4.23 12.23,4.07 24.27,1.14 28.89,-7.6 l 8.29,-6.08 z"
       transform="translate(-0.01,-0.01)"
       id="path11813" />
    <path
       class="cls-5"
       d="m 2613.1,1217.24 -6.56,-17.08 c 0,0 92.08,-75.05 101.46,-81.49 6.39,-4.39 70.05,-52 101.08,-89.05 a 65,65 0 0 1 63.14,-21.88 l 19.33,4.06 c 23.34,4.89 30.93,34.44 12.82,50 -51,43.71 -137,94.42 -153,105 -39.81,26.18 -127.87,62.87 -127.87,62.87 0,0 -6.86,-3.19 -10.4,-12.43 z"
       transform="translate(-0.01,-0.01)"
       id="path11815" />
    <path
       class="cls-28"
       d="m 2838.19,965.36 c 29.44,1.66 48.59,-22.65 48.59,-22.65 0,0 -13.31,-7.37 -20.57,-12.8 L 2841,942.73 a 210.84,210.84 0 0 0 -2.81,22.63 z"
       transform="translate(-0.01,-0.01)"
       id="path11817" />
    <path
       class="cls-25"
       d="m 2825.65,935.14 c 0,0 44.61,32 64.12,3.92 19.51,-28.08 38.4,-42.87 10.74,-64.5 -27.66,-21.63 -40.69,-14.79 -49.48,-7 -8.79,7.79 -36.49,58.53 -25.38,67.58 z"
       transform="translate(-0.01,-0.01)"
       id="path11819" />
    <path
       class="cls-29"
       d="m 2846.31,842.19 a 71.85,71.85 0 0 1 5.2,-18.39 c 0,0 2.8,11.59 24,10 21.2,-1.59 54.79,2.09 66,26.24 0.72,1.54 1.35,3.12 1.92,4.74 2,-5.36 2.51,-13.38 2.51,-13.38 4,10.4 0,23.4 0,23.4 v 0 c 0.06,0.38 0.11,0.76 0.16,1.14 4.68,4 8.61,16.25 8.61,16.25 -1.41,-3.43 -4.86,-5.67 -7.92,-7 0.09,18.8 -7.53,37.17 -20.91,42.64 -19.56,8 -19.4,1.89 -39.07,14.94 0,0 -5.28,-6.55 -1.68,-11 3.6,-4.45 17.2,-10.79 9.6,-17.19 -7.6,-6.4 -10.4,0.8 -13.2,-3.6 -2.8,-4.4 11.2,-17.19 -6.79,-29.19 -17.99,-12 -30.03,-28.79 -28.43,-39.6 z"
       transform="translate(-0.01,-0.01)"
       id="path11821" />
  </g>
</svg>
