<svg xmlns="http://www.w3.org/2000/svg" viewBox="0 0 750 500"><defs><style>.cls-1{fill:#c5fffd;}.cls-2{opacity:0.2;}.cls-10,.cls-3{fill:#187a7a;}.cls-17,.cls-18,.cls-4,.cls-6{fill:none;}.cls-4{stroke:#187a7a;}.cls-11,.cls-17,.cls-18,.cls-4,.cls-6{stroke-miterlimit:10;}.cls-17,.cls-4{stroke-width:1.42px;}.cls-5,.cls-8{fill:#1faaad;}.cls-10,.cls-5,.cls-6{opacity:0.54;}.cls-11,.cls-6{stroke:#1faaad;}.cls-7{opacity:0.28;}.cls-9{fill:#57726a;}.cls-11{fill:#f2d06c;}.cls-12{opacity:0.03;}.cls-13{fill:#ea526f;}.cls-14{fill:#5b061b;}.cls-15{opacity:0.05;}.cls-16{opacity:0.13;}.cls-17{stroke:#ea526f;}.cls-18{stroke:#5b061b;}.cls-19,.cls-36{fill:#fff;}.cls-20{fill:#c4c5c6;}.cls-21{fill:#f5feff;}.cls-22{fill:#f7a9c9;}.cls-23{fill:#92e7e8;}.cls-24{fill:#376e7a;}.cls-25{fill:#f2dae8;}.cls-26{fill:#7a3752;}.cls-27{fill:#dbb4cc;}.cls-28{fill:#724637;}.cls-29{fill:#032624;}.cls-30{fill:#38303b;}.cls-31{fill:#512a20;}.cls-32{opacity:0.5;}.cls-33{fill:#e5bfb3;}.cls-34{fill:#ebf0fe;}.cls-35{fill:#55a1a3;}.cls-36{opacity:0.31;}.cls-37{fill:#25ced1;}.cls-38{fill:#143d3f;}.cls-39{fill:#487272;}.cls-40{fill:#cc9c8f;}</style></defs><g id="BACKGROUND"><rect class="cls-1" width="750" height="500"/></g><g id="OBJECTS"><g class="cls-2"><circle class="cls-3" cx="670.24" cy="300.28" r="21.7" transform="translate(-61.13 367.23) rotate(-29.36)"/><path class="cls-3" d="M640.8,326.16a9.48,9.48,0,1,1,.21-13.41A9.47,9.47,0,0,1,640.8,326.16Z"/><line class="cls-4" x1="642.85" y1="314.82" x2="651.46" y2="310.69"/><path class="cls-5" d="M626.66,295a5.59,5.59,0,1,1,.12-7.91A5.59,5.59,0,0,1,626.66,295Z"/><line class="cls-6" x1="630.25" y1="310.39" x2="624.68" y2="295.28"/></g><g class="cls-7"><path class="cls-8" d="M476.12,357.55a20.61,20.61,0,1,1,28.41,6.56A20.61,20.61,0,0,1,476.12,357.55Z"/><path class="cls-9" d="M413.22,334a20.61,20.61,0,1,1,28.41,6.56A20.61,20.61,0,0,1,413.22,334Z"/><path class="cls-10" d="M432.13,430a20.61,20.61,0,1,1,28.41,6.55A20.6,20.6,0,0,1,432.13,430Z"/><path class="cls-9" d="M465.4,309.57a6.67,6.67,0,1,1,9.39.84A6.66,6.66,0,0,1,465.4,309.57Z"/><path class="cls-11" d="M512.4,389.3a6.67,6.67,0,1,1,8.14,4.77A6.67,6.67,0,0,1,512.4,389.3Z"/><line class="cls-4" x1="472.99" y1="338.06" x2="449.98" y2="330.99"/><line class="cls-4" x1="484.65" y1="366.35" x2="461.66" y2="402.03"/><line class="cls-4" x1="504.74" y1="364.22" x2="515.13" y2="381.31"/><line class="cls-4" x1="472.55" y1="310.37" x2="482.93" y2="327.46"/></g><g class="cls-12"><path class="cls-13" d="M695.9,410.84c-9.15-11.51-24.92-16.14-39.12-14-15.49,2.34-28.45,14.84-44.71,13-12.65-1.46-24.63-11.05-29.29-22.95-5.81-14.85.46-30.43,3-45.41,1.37-8.13,1.76-16.55-.59-24.54a43.45,43.45,0,0,0-11.89-19.35,44.3,44.3,0,0,0-4.59-3.71,2.85,2.85,0,0,0-3.87,1,2.89,2.89,0,0,0,1,3.88,37,37,0,0,1,12.82,16.59c2.79,7.21,3.06,14.94,2,22.54-2.25,15.69-9,31.59-4.32,47.52A43.52,43.52,0,0,0,605,414.06a37.9,37.9,0,0,0,22.56-.32c7.81-2.44,15-6.55,22.64-9.32,12.79-4.6,28.11-2.69,38.28,6.71a32.66,32.66,0,0,1,3.43,3.72c1,1.2,3,1,4,0a2.92,2.92,0,0,0,0-4Z"/><path class="cls-13" d="M652.81,456.17c-10.95-7.46-16.17-22.14-14.27-35,1.22-8.22,5-15.87,7.46-23.74s3.42-15.73,1.29-23.68c-3.65-13.58-14.63-24.79-27.89-29.24-15.3-5.12-30.59,1.1-45.29,5.22-7.34,2.05-15.15,3.63-22.79,2.49A37.78,37.78,0,0,1,531.74,343a39.13,39.13,0,0,1-3.93-4.11,2.84,2.84,0,0,0-4,4A43.1,43.1,0,0,0,543,356c7.74,2.65,15.89,2.65,23.88,1.24,7.79-1.37,15.23-4.11,22.83-6.23,7.13-2,15.06-3.59,22.29-2.48a37.64,37.64,0,0,1,28.91,23.72,31.37,31.37,0,0,1,2,9.83A39.1,39.1,0,0,1,641.1,394c-2.29,8-6.06,15.61-7.7,23.8-2.84,14.14,1.48,30.06,12.28,39.91a37.24,37.24,0,0,0,4.27,3.35,2.83,2.83,0,1,0,2.86-4.89Z"/><path class="cls-13" d="M597.68,397l10.46-11.26,16.66-17.93,3.82-4.12c2.48-2.68-1.52-6.69-4-4l-10.45,11.25L597.5,388.87,593.68,393c-2.49,2.67,1.51,6.69,4,4Z"/><path class="cls-13" d="M621.36,403.93l14-15,2-2.12a2.84,2.84,0,0,0-4-4l-14,15-2,2.11a2.84,2.84,0,0,0,4,4Z"/><path class="cls-13" d="M589.47,374.31l13.95-15,2-2.12a2.84,2.84,0,1,0-4-4l-14,15-2,2.11a2.84,2.84,0,0,0,4,4Z"/><path class="cls-13" d="M651.56,440.19l21.11-22.73,3-3.24c2.48-2.67-1.52-6.69-4-4l-21.11,22.73-3,3.24c-2.48,2.67,1.52,6.69,4,4Z"/><path class="cls-13" d="M548.43,344.41l21.11-22.73,3-3.23c2.48-2.67-1.52-6.69-4-4l-21.11,22.73-3,3.23c-2.48,2.68,1.52,6.69,4,4Z"/><path class="cls-14" d="M609.47,401.1l21.11-22.73,3-3.23c2.48-2.67-1.52-6.69-4-4l-21.11,22.73-3,3.24c-2.49,2.67,1.51,6.69,4,4Z"/><path class="cls-14" d="M593.31,386.09l21.11-22.73,3-3.24c2.48-2.67-1.52-6.68-4-4L592.3,378.85l-3,3.23c-2.48,2.67,1.52,6.69,4,4Z"/><path class="cls-14" d="M655.93,451.1l10.46-11.26,16.66-17.94,3.82-4.12c2.48-2.67-1.52-6.69-4-4L672.41,425,655.75,443l-3.82,4.12c-2.48,2.67,1.52,6.69,4,4Z"/><path class="cls-14" d="M647.72,428.41l13.95-15,2-2.12a2.84,2.84,0,0,0-4-4l-14,15-2,2.12a2.84,2.84,0,0,0,4,4Z"/><path class="cls-14" d="M536.64,340.31l10.45-11.26,16.66-17.94,3.83-4.12c2.48-2.67-1.52-6.69-4-4l-10.45,11.26-16.66,17.94-3.83,4.12c-2.48,2.67,1.52,6.69,4,4Z"/><path class="cls-14" d="M560.32,347.24l13.95-15,2-2.12a2.84,2.84,0,0,0-4-4l-14,15-2,2.12a2.84,2.84,0,0,0,4,4Z"/></g><g class="cls-15"><path class="cls-13" d="M225.21,407.48c17.78-12.71,26.62-35.63,24.28-57.1-1.34-12.33-6.59-23.59-10.91-35.09a98.89,98.89,0,0,1-5.31-18.21,46.2,46.2,0,0,1-.62-8.31c0-1.42.11-2.83.26-4.23a32.16,32.16,0,0,1,.5-3.23,53.32,53.32,0,0,1,2-7.44c.38-1.1.79-2.19,1.24-3.27l.19-.44.36-.8c.3-.64.6-1.27.92-1.89a59.55,59.55,0,0,1,3.83-6.5c.36-.54.73-1.06,1.11-1.59l.52-.71s.71-.92.3-.4c.79-1,1.62-2,2.48-3a61.61,61.61,0,0,1,5.49-5.47c.88-.78,1.78-1.53,2.71-2.25l.4-.3.56-.42c.62-.45,1.24-.89,1.87-1.32a59,59,0,0,1,6.51-3.82c.52-.27,1-.52,1.57-.77l1-.44s1.07-.47.44-.2c1.18-.5,2.39-.95,3.6-1.36a53.25,53.25,0,0,1,7.44-2c.58-.11,1.16-.2,1.73-.29-.07,0,1.07-.15.58-.09s.64-.07.57-.06c1.37-.15,2.74-.25,4.12-.3a80.46,80.46,0,0,1,17.92,1.43c11.77,2.19,23.1,6.18,34.76,8.85,12,2.74,24.45,4.05,36.57,1.39a64.43,64.43,0,0,0,30.49-16.32,57.5,57.5,0,0,0,5.5-6.07,3.66,3.66,0,0,0,0-5c-1.23-1.23-3.82-1.51-5,0a56.83,56.83,0,0,1-26.48,18.79,53.78,53.78,0,0,1-16.11,3,81.86,81.86,0,0,1-17.8-1.48c-23.19-4.35-46-15.53-70.09-10.37-20.74,4.45-38.28,20.51-45.61,40.24a56.29,56.29,0,0,0-3.33,15.27,56.93,56.93,0,0,0,2,18.64c3.13,12.21,9,23.5,12.57,35.55a64.92,64.92,0,0,1,1.92,8.25,59.66,59.66,0,0,1,.62,7.55A55.68,55.68,0,0,1,241.1,371a54.15,54.15,0,0,1-5.35,14,47.3,47.3,0,0,1-8.95,12c-.83.81-1.69,1.6-2.58,2.36a27.6,27.6,0,0,1-2.58,2,3.65,3.65,0,0,0-1.28,4.85c.9,1.53,3.29,2.38,4.85,1.27Z"/><path class="cls-13" d="M160.94,339.05c.69-.92-.42.5.3-.39l.66-.81c.37-.45.75-.89,1.14-1.33.86-.95,1.75-1.87,2.68-2.76s1.8-1.66,2.75-2.45,1.5-1.2,2.8-2.11a55.87,55.87,0,0,1,6.4-3.84q1.76-.9,3.57-1.68c-.47.2.08,0,.15-.07l1-.4c.68-.26,1.35-.51,2-.75a62.35,62.35,0,0,1,7.7-2.15q1.8-.39,3.6-.66s1.21-.17.52-.08l.73-.09c.79-.09,1.58-.16,2.38-.23a63.41,63.41,0,0,1,7.92-.12c1.3.06,2.59.17,3.88.31l.92.11c-.68-.09.53.08.53.08.73.11,1.47.24,2.2.38,12,2.29,22.92,8.22,34.23,12.52a82.25,82.25,0,0,0,17.82,4.87,53.68,53.68,0,0,0,17.52-.52c20.85-4,38.63-19.76,46.38-39.33,4.21-10.64,4.64-22.22,3.16-33.47-1.58-12.06-5.19-23.67-7.84-35.52a107.78,107.78,0,0,1-2.69-17.66,76.24,76.24,0,0,1,0-9.07,45.37,45.37,0,0,1,1.08-7.88,56.75,56.75,0,0,1,21-33.36,3.66,3.66,0,0,0,1.27-4.85c-.88-1.51-3.31-2.43-4.85-1.27a64.86,64.86,0,0,0-21.28,27.8c-4.54,11.24-5.24,23.42-3.68,35.35,1.59,12.15,5.23,23.83,7.89,35.76a107.62,107.62,0,0,1,2.63,17.17,76.08,76.08,0,0,1,0,9.43c-.07,1.12-.24,2.94-.33,3.65s-.43,2.54-.68,3.68a54.72,54.72,0,0,1-2.18,7.38c-.21.54-.42,1.08-.64,1.62-.42,1,.15-.32-.12.29l-.36.8q-.8,1.75-1.71,3.45a58.22,58.22,0,0,1-4.08,6.55,52.84,52.84,0,0,1-4.58,5.54,55.91,55.91,0,0,1-11.29,9.45,61.45,61.45,0,0,1-6.6,3.65c-.59.27-1.17.54-1.76.79s.76-.29-.28.12l-1,.39c-1.2.46-2.41.88-3.64,1.26a53.55,53.55,0,0,1-7.49,1.75l-.58.09-.57.07c-.58.07-1.17.13-1.75.18a44.87,44.87,0,0,1-4.64.16A57.83,57.83,0,0,1,256,327.5c-11.84-3.91-22.89-10.05-34.95-13.32-21-5.7-45.5-.24-61.1,15.3a55.31,55.31,0,0,0-5.13,6c-1.15,1.53-.24,4,1.27,4.85,1.82,1.06,3.7.26,4.85-1.27Z"/><path class="cls-14" d="M254.94,260.89l16.12,16.52,25.69,26.32,5.89,6a3.54,3.54,0,0,0,5-5l-16.12-16.52-25.69-26.32-5.89-6a3.54,3.54,0,0,0-5,5Z"/><path class="cls-14" d="M242.79,295.9l21.5,22,3.06,3.13a3.54,3.54,0,0,0,5-5l-21.5-22-3.05-3.13a3.55,3.55,0,0,0-5,5Z"/><path class="cls-14" d="M289.59,250.23l21.5,22,3.05,3.13a3.55,3.55,0,1,0,5-5l-21.5-22-3-3.13a3.54,3.54,0,0,0-5,5Z"/><path class="cls-14" d="M186.17,338.53l12.59,12.9,20,20.46,4.62,4.73a3.54,3.54,0,1,0,5-5l-12.59-12.89-20-20.47-4.62-4.73a3.54,3.54,0,0,0-5,5Z"/><path class="cls-14" d="M337.47,190.87l12.58,12.9,20,20.46,4.62,4.73a3.54,3.54,0,0,0,5-5l-12.59-12.89-20-20.47-4.62-4.73a3.54,3.54,0,0,0-5,5Z"/><path class="cls-13" d="M247.91,278.27l12.59,12.9,20,20.46,4.62,4.74a3.54,3.54,0,1,0,5-5l-12.59-12.9-20-20.47-4.62-4.73a3.54,3.54,0,0,0-5,5Z"/><path class="cls-13" d="M271.63,255.12,284.22,268l20,20.47,4.62,4.73a3.54,3.54,0,1,0,5-5l-12.59-12.9-20-20.46-4.62-4.74a3.54,3.54,0,0,0-5,5Z"/><path class="cls-13" d="M169.48,344.29l16.12,16.52,25.69,26.33,5.89,6a3.54,3.54,0,0,0,5-5l-16.12-16.52-25.69-26.33-5.89-6a3.54,3.54,0,1,0-5,5Z"/><path class="cls-13" d="M204.13,333.63l21.5,22,3.05,3.13a3.54,3.54,0,0,0,5-5l-21.5-22-3.05-3.13a3.54,3.54,0,0,0-5,5Z"/><path class="cls-13" d="M344.5,173.48,360.62,190l25.69,26.33,5.89,6a3.54,3.54,0,1,0,5-5l-16.12-16.52-25.7-26.33-5.88-6a3.54,3.54,0,0,0-5,5Z"/><path class="cls-13" d="M332.35,208.49l21.5,22,3,3.13a3.54,3.54,0,0,0,5-5l-21.49-22-3.06-3.13a3.54,3.54,0,0,0-5,5Z"/></g><g class="cls-16"><circle class="cls-3" cx="430.43" cy="65.59" r="25.76" transform="translate(45.61 269.27) rotate(-36.56)"/><path class="cls-3" d="M395.49,96.32a11.26,11.26,0,1,1,.24-15.92A11.26,11.26,0,0,1,395.49,96.32Z"/><line class="cls-4" x1="397.91" y1="82.86" x2="408.14" y2="77.95"/><path class="cls-10" d="M378.69,59.36a6.64,6.64,0,1,1,.14-9.39A6.64,6.64,0,0,1,378.69,59.36Z"/><line class="cls-4" x1="382.96" y1="77.59" x2="376.34" y2="59.65"/></g><path class="cls-3" d="M635.84,74.13A14.17,14.17,0,1,1,655.21,69,14.16,14.16,0,0,1,635.84,74.13Z"/><path class="cls-8" d="M590,79.92a14.17,14.17,0,1,1,19.37-5.11A14.16,14.16,0,0,1,590,79.92Z"/><path class="cls-3" d="M632.29,132.28a14.17,14.17,0,1,1,19.38-5.11A14.17,14.17,0,0,1,632.29,132.28Z"/><path class="cls-3" d="M614,48.39a4.58,4.58,0,1,1,6-2.5A4.59,4.59,0,0,1,614,48.39Z"/><path class="cls-8" d="M668.07,81.82a4.58,4.58,0,1,1,6.47.29A4.59,4.59,0,0,1,668.07,81.82Z"/><line class="cls-17" x1="627.7" y1="63.28" x2="611.44" y2="66.35"/><line class="cls-17" x1="643.84" y1="76.75" x2="641.29" y2="105.81"/><line class="cls-17" x1="655.38" y1="69.02" x2="667.17" y2="76.09"/><line class="cls-4" x1="618.56" y1="46.58" x2="630.35" y2="53.66"/><circle class="cls-3" cx="123.39" cy="137.51" r="33.54" transform="translate(-60.05 115.51) rotate(-41.26)"/><path class="cls-13" d="M69.13,110.56A14.65,14.65,0,1,1,88.43,103,14.65,14.65,0,0,1,69.13,110.56Z"/><line class="cls-4" x1="86.54" y1="106.85" x2="97.5" y2="116.75"/><path class="cls-10" d="M105.37,72.1a8.65,8.65,0,1,1,11.38-4.46A8.65,8.65,0,0,1,105.37,72.1Z"/><line class="cls-4" x1="85.51" y1="86.23" x2="103.86" y2="69.41"/><path class="cls-18" d="M136,176.15A14.17,14.17,0,1,1,155.41,171,14.16,14.16,0,0,1,136,176.15Z"/></g><g id="Layer_3" data-name="Layer 3"><rect class="cls-19" x="381.89" y="238.88" width="273.45" height="28.17"/><rect class="cls-19" x="387.25" y="247.14" width="102.64" height="17.26"/><rect class="cls-19" x="547.34" y="247.14" width="102.64" height="17.26"/><path class="cls-20" d="M442.1,256.1a3.49,3.49,0,1,1-3.48-3.49A3.49,3.49,0,0,1,442.1,256.1Z"/><path class="cls-20" d="M613,256.1a3.49,3.49,0,1,1-3.49-3.49A3.49,3.49,0,0,1,613,256.1Z"/><polygon class="cls-19" points="383.17 461.1 374.99 461.1 367.85 243.57 383.17 243.57 383.17 461.1"/><polygon class="cls-19" points="654.83 461.1 662.46 461.1 669.13 243.57 654.83 243.57 654.83 461.1"/><rect class="cls-3" x="326.74" y="231.23" width="371.49" height="13.79" rx="2.6"/><path class="cls-21" d="M654.35,160.57h-16v5.62h2a6.83,6.83,0,0,0-.06.78v47.86a6,6,0,0,0,6,5.95h0a5.94,5.94,0,0,0,5.94-5.95V167a6.81,6.81,0,0,0-.05-.78h2.21Z"/><path class="cls-21" d="M676,160.71h-16v5.62h2a4.9,4.9,0,0,0-.06.77V215a6,6,0,0,0,5.95,5.95h0a5.94,5.94,0,0,0,5.94-5.95V167.1a4.9,4.9,0,0,0-.06-.77H676Z"/><path class="cls-21" d="M633.54,160.71H617.59v5.62h2a6.48,6.48,0,0,0-.06.77V215a6,6,0,0,0,6,5.95h0a5.94,5.94,0,0,0,5.94-5.95V167.1a6.49,6.49,0,0,0,0-.77h2.21Z"/><path class="cls-13" d="M652.22,197.46A8.69,8.69,0,0,1,644.8,196c-1.33-1-2.32-2.43-3.69-3.4a6.32,6.32,0,0,0-.81-.46V215a6,6,0,0,0,11.92,0Z"/><path class="cls-22" d="M646.26,220.91a6,6,0,0,0,6-5.95V191.23a4.85,4.85,0,0,0-1.05.37,17,17,0,0,0-3.69,3,13,13,0,0,1-7.18,3.62V215A6,6,0,0,0,646.26,220.91Z"/><path class="cls-8" d="M673.86,197.46a8.67,8.67,0,0,1-7.41-1.44c-1.32-1-2.31-2.43-3.67-3.4a7.08,7.08,0,0,0-.81-.46V215a5.95,5.95,0,1,0,11.89,0Z"/><path class="cls-23" d="M667.92,220.91a5.94,5.94,0,0,0,5.94-5.95V191.23a4.85,4.85,0,0,0-1.05.37,16.7,16.7,0,0,0-3.68,3,13,13,0,0,1-7.16,3.62V215A6,6,0,0,0,667.92,220.91Z"/><path class="cls-14" d="M631.38,197.46A8.65,8.65,0,0,1,624,196c-1.32-1-2.32-2.43-3.68-3.4a6.32,6.32,0,0,0-.81-.46V215a5.95,5.95,0,1,0,11.89,0Z"/><path class="cls-13" d="M625.44,220.91a5.94,5.94,0,0,0,5.94-5.95V191.23a4.85,4.85,0,0,0-1,.37,16.93,16.93,0,0,0-3.68,3,12.91,12.91,0,0,1-7.16,3.62V215A6,6,0,0,0,625.44,220.91Z"/><rect class="cls-24" x="603.51" y="225.81" width="86.64" height="6.87" rx="1.57"/><rect class="cls-24" x="585.88" y="204.03" width="49.69" height="3.19" rx="1.26" transform="translate(816.35 -405.11) rotate(90)"/><rect class="cls-24" x="657.84" y="204.03" width="49.69" height="3.19" rx="1.26" transform="translate(888.3 -477.06) rotate(90)"/><rect class="cls-24" x="603.51" y="180.77" width="86.64" height="3.93" rx="1.55"/></g><g id="Layer_4" data-name="Layer 4"><path class="cls-22" d="M488.44,200.37c-8.05-5.16-16.41-10.63-21.21-18.91a5,5,0,0,1-.92-3.51c.59-2.5,4.19-2.8,6.48-1.63s4.23,3.19,6.78,3.56,5.19-1.2,6.83-3.28,2.55-4.61,3.59-7c3.69-8.54,13.06-22.44,20.16-28.46,1.32-1.12,4.07,1.28,5.78,1,2.82-.43.56,4.34,1.8,6.9s1.29,5.52,1.21,8.36a138.11,138.11,0,0,1-5.15,32.08c-1.37,5.07-3.11,10.36-7,13.85s-10.71,4.29-14.16.32"/><path class="cls-25" d="M428.62,157.27c1.41-.21,1.84-1.15,3.31-1.3,17-1.75,26.66,9.71,26.66,25.7,0,5.87-3.45,12.67-7.56,16.82a5.64,5.64,0,0,0-1.22,1.95l-.32.87,0,21.61h29.85l-11.62-23.7h-.28a37.64,37.64,0,0,0,7.46-22.55c0-20.9-10.86-36.76-31.76-36.76"/><path class="cls-26" d="M423.48,167h10.23a0,0,0,0,1,0,0v11.49a1,1,0,0,1-1,1h-8.23a1,1,0,0,1-1-1V167A0,0,0,0,1,423.48,167Z" transform="translate(187.84 -221.38) rotate(36.6)"/><path class="cls-25" d="M454.09,148.22h0l6.39-8.59a2.74,2.74,0,0,0,.51-1.29l.81-6.5a.67.67,0,0,1,.15-.38l11.13-15a.27.27,0,0,0-.05-.38l-6.41-4.76a.27.27,0,0,0-.37.06l-11.1,15a1.12,1.12,0,0,1-.42.33l-6,2.65a2.76,2.76,0,0,0-1.08.86l-6.39,8.62L423.91,162.2a1.88,1.88,0,0,0-.36,1.19l.14,2.62a2.4,2.4,0,0,0,1,1.87l9.76,7.26a2.47,2.47,0,0,0,2.09.4l2.59-.67a1.8,1.8,0,0,0,1-.68l12.29-16.55Z"/><rect class="cls-25" x="405.64" y="201.24" width="61.69" height="4.54" rx="1.33"/><rect class="cls-26" x="402.66" y="220.62" width="80.44" height="8.57" rx="3.14"/><rect class="cls-26" x="405.7" y="227.1" width="7.8" height="5.11" rx="2.51"/><rect class="cls-26" x="472.52" y="226.75" width="7.8" height="5.11" rx="2.51"/><path class="cls-26" d="M451.11,202.15a2.74,2.74,0,1,1-3.87,0A2.75,2.75,0,0,1,451.11,202.15Z"/><path class="cls-27" d="M447.68,161.08l-13,11-10.31-4.47a2.09,2.09,0,0,0,.28.24l9.76,7.26a2.47,2.47,0,0,0,2.09.4l2.59-.67a1.8,1.8,0,0,0,1-.68L448.47,163Z"/><path class="cls-26" d="M453.89,159.08a6.37,6.37,0,1,1-6.36-6.37A6.36,6.36,0,0,1,453.89,159.08Z"/><path class="cls-25" d="M452.09,159.08a4.56,4.56,0,1,1-4.56-4.56A4.56,4.56,0,0,1,452.09,159.08Z"/><path class="cls-27" d="M467.47,199.22a37.64,37.64,0,0,0,7.46-22.55c0-8.2-1.41-16.52-5.85-22.72,2.16,6,2.85,13.46,3.39,19.7,1.32,15.12-8.18,26.22-8.18,26.22s9.21,21.72,9.62,23h5.46l-11.62-23.7Z"/><path class="cls-28" d="M480.7,183c-2.51-2.3-17.87-14.06-20.89-15.55-3.25-1.62-6.84-2.79-9.57-5.19-.54-.46,3.34-1.66,4.61-1.38.72.16,1.34-.88.91-1.51a4.94,4.94,0,0,0-1.24-1.18c-2.79-1.95-4.74-3.89-7.52-5.83a23.51,23.51,0,0,1-3.92-3.18c-.45-.53.13-.86.8-.72s2.63,1.06,2.41.87c-.5-.42-.11-1.46.91-1.2,4.32,1.09,10.47,3.7,13.07,5.59,6.56,4.78,15.49,17.88,24.86,22.3"/><path class="cls-19" d="M544.43,343.47l-42.16-1c-2.52-.07-5.32-.25-7-2.08-1.41-1.49-1.72-3.68-1.94-5.71-4.94-44.61-3.17-89.64-1.4-134.48.38-9.59.77-19.24,2.89-28.6,4.19-18.49,16.69-36.29,35-41.35"/><path class="cls-13" d="M527.64,126.73a125.21,125.21,0,0,1-15.18,4.66,2,2,0,0,0-1.12.5,1.33,1.33,0,0,0-.23.7,37.67,37.67,0,0,0,.09,8.51,2.38,2.38,0,0,0,2.62,1.83c8.8-.82,15.18-4.41,19.59-10.24a6.26,6.26,0,0,0,1.46-3.2A3.9,3.9,0,0,0,533.1,126c-1.29-.88-3.33-1-4.18-.14"/><path class="cls-28" d="M548.3,430.41q.76,4.51,1.51,9a5.88,5.88,0,0,1,.12,1.77c-.31,2.3-3,3.55-4.07,5.64a1.38,1.38,0,0,0-.19.71c.08.79,1.14,1,2,1.05l7.22.26c.91,0,2,0,2.49-.74a2.53,2.53,0,0,0,.34-1.12L560,429.94"/><path class="cls-28" d="M513.61,430.41q.75,4.51,1.48,9a5.88,5.88,0,0,1,.12,1.77c-.3,2.3-3,3.55-4,5.64a1.37,1.37,0,0,0-.18.71c.08.79,1.13,1,1.93,1.05l7.11.26c.89,0,2,0,2.45-.74a2.52,2.52,0,0,0,.33-1.12q1.15-8.53,2.3-17.07"/><path class="cls-29" d="M489.44,458l16.62.6a10.77,10.77,0,0,0,5.3-.69c.88-.45,1.76-1.17,2.74-1,.75.15,1.28.81,2,1.14a4.69,4.69,0,0,0,2,.32l6.18.13a2.91,2.91,0,0,0,1.94-.43,2.61,2.61,0,0,0,.61-2.18,33.74,33.74,0,0,0-1.7-9.06c-.22-.67-.55-1.42-1.24-1.62a2.49,2.49,0,0,0-1.87.47c-2.33,1.28-5.4,2.18-7.55.63a8.87,8.87,0,0,0-1.67-1.21,4.07,4.07,0,0,0-2.27,0,77,77,0,0,0-18.89,6,8.11,8.11,0,0,0-3.57,2.6,2.9,2.9,0,0,0,.52,3.94"/><path class="cls-3" d="M503.68,250c-8.4,41.89,1.47,119.57,8.29,179.2,5,0,8.19.57,13.15.63.5-50.74,1-101.76,8.9-151.68,3.09,49.08,6.73,98.15,12.92,146.83a7.22,7.22,0,0,0,.91,3.16,4.79,4.79,0,0,0,3.79,1.68c4,.31,5,.48,8.85-1.09.27-52.85,4.36-98.57,4.81-151.41.08-10.15.78-19-.34-27.66"/><path class="cls-29" d="M545.66,427.75c.25,1.25.29,1.06.54,2.31a2.19,2.19,0,0,0,.37,1,1.57,1.57,0,0,0,1.21.42l12.39.41a1.2,1.2,0,0,0,.72-.13,1.74,1.74,0,0,0,.56-1.11l.56-2.41a1.68,1.68,0,0,0-1.44-2.19c-2.71,0-4.87,0-8-.16-1.79-.08-3.83-.28-5.46-.28l-.31,0a1.62,1.62,0,0,0-1.24,1.6Z"/><path class="cls-29" d="M510.45,427a1.26,1.26,0,0,0-.22.93c.16,1.09.25,1.89.43,3.1a1.47,1.47,0,0,0,.28.78,1,1,0,0,0,.69.24q6.69.48,13.38.5a1.23,1.23,0,0,0,.79-.19,1.63,1.63,0,0,0,.43-.88,24.14,24.14,0,0,0,.5-2.67,1.56,1.56,0,0,0-1.42-1.86,122,122,0,0,1-14.07-.34.87.87,0,0,0-.79.39Z"/><path class="cls-29" d="M524.15,458.12l16.62.61a10.77,10.77,0,0,0,5.3-.69c.88-.45,1.76-1.17,2.74-1,.75.15,1.28.81,2,1.14a5.11,5.11,0,0,0,2,.32l6.18.13a2.91,2.91,0,0,0,1.94-.43,2.61,2.61,0,0,0,.61-2.18,33.81,33.81,0,0,0-1.7-9.07c-.23-.66-.56-1.41-1.24-1.62a2.55,2.55,0,0,0-1.87.48c-2.33,1.27-5.4,2.18-7.55.63a8.87,8.87,0,0,0-1.67-1.21,4.07,4.07,0,0,0-2.27,0,76.54,76.54,0,0,0-18.89,6,8.11,8.11,0,0,0-3.57,2.6,2.89,2.89,0,0,0,.51,3.94"/><path class="cls-30" d="M565.79,184.23a21.28,21.28,0,0,0,22.6-6,22,22,0,0,0,3.08-23.45c-5.37-11-19.22-15.81-24.26-27-3.67-8.14-2-18.41-7.32-25.56-2.9-3.9-7.4-6.16-11.07-9.32-4.67-4-7.93-9.44-11.93-14.14s-9.31-8.91-15.44-9.09c-7.83-.22-14.63,6.59-16.52,14.28s.18,15.86,3.51,23,7.87,13.71,11.29,20.83c7.21,15,10.7,34,25.25,41.75"/><path class="cls-30" d="M518.73,119.92c7.84.14,2.08-1.48,7.39-.31,12,2.67,19.6-11.83,18.72-23.48a33,33,0,0,0-6.91-17.31c-2.8-3.65-8-6.88-14.63-7.94-4.46-.72-8.76-1-12.95.28a31.58,31.58,0,0,0-7.7,3.31c-3.68,2.09-6.85,7.78-7.58,9.32-2.54,5.41,1.58,5.06,3,10.7.8,3.16,3.82,5.77,4.17,9.26,1.29,12.73,1,17.46,11.3,16"/><path class="cls-28" d="M530.46,139a5.58,5.58,0,0,0,1.71-5.14c-1.14-5-2.78-12.44-3.56-15.84-.33-1.4-.65-2.79-1-4.18a1.75,1.75,0,0,0-.42-.85,1.09,1.09,0,0,0-.69-.22c-2.31-.11-4.2,1.57-6.28,2.48-2.55,1.11-5.48,1.08-8.07,2.08a1.14,1.14,0,0,0-.75.65,1.52,1.52,0,0,0,0,.67c.59,4.08,2.06,12.72,2.85,17.85.18,1.15.06,2.79.94,3.52l1.58,1.57c2.51,2.09,7.41,2.13,9.83.31A23.68,23.68,0,0,0,530.46,139Z"/><path class="cls-31" d="M526.74,111.3a1.08,1.08,0,0,0-.68-.22c-2.32-.12-4.2,1.56-6.29,2.47-2.55,1.12-5.47,1.08-8.07,2.09a1.07,1.07,0,0,0-.74.65,1.68,1.68,0,0,0,0,.67c.33,2.28.67,4.56,1,6.84a15.47,15.47,0,0,0,8.13,1.23,11,11,0,0,0,8.55-6.71c-.16-.66-.31-1.33-.46-2-.32-1.4-.64-2.8-1-4.18A1.56,1.56,0,0,0,526.74,111.3Z"/><path class="cls-28" d="M531.35,103.17c2.58-1.54,4.39-4.11,3.88-6.32s-3.74-3.6-6.61-2.51"/><path class="cls-28" d="M531.53,107.18c-1.88,11.27-9.67,13.21-17.7,16.4a15.89,15.89,0,0,1-5.43.86c-3.88-.16-6-3.64-7.12-6.63a68.53,68.53,0,0,1-3.78-16c-.41-3.73-.49-7.57,1-11.12a13.4,13.4,0,0,1,9.25-7.81c5.56-1.29,11.53,1.06,15.72,4.29,6.18,4.75,9.86,11.88,8.29,18.64"/><path class="cls-30" d="M527.12,91.23c-1.29-.26-7.45-.81-8.81-1-.37,0-3.44-6.33-3.82-6.36s2,6.21,1.57,6.19a50.43,50.43,0,0,0-16.76,2c-.57.17-.69-2.69-.68-5a28.86,28.86,0,0,0-1,5.14c-.13,1-1.73,1.28-2.52,1.63a1,1,0,0,1-.92.07,1.36,1.36,0,0,1-.39-1c-.62-6.77,2.46-13.29,7.38-16.6a15.7,15.7,0,0,1,5.48-1.83,12.1,12.1,0,0,1,9.12,2.5c2.74,2,.07.19,1.91,3.29"/><path class="cls-22" d="M502.93,252.77q-.62-29.69-1.21-59.37c-.21-10.27-.4-20.65,1.7-30.71s6.74-19.91,14.69-26.42a25,25,0,0,1,13-5.84c10.33-1.09,20.06,6.37,24.79,15.61s5.49,20,6,30.32a745.38,745.38,0,0,1-.48,75.34"/><g class="cls-32"><path class="cls-22" d="M541.66,193.39c-2.09-13-4.18-25.94-7.31-38.69L515,139.21c-.24.25-.48.51-.71.77a43.26,43.26,0,0,1,3.35,11.73,98.92,98.92,0,0,1,.57,13c.19,27,3.67,53.84,7.14,80.61.3,2.34.61,4.69,1,7l24.83-.46Q546.38,222.64,541.66,193.39Z"/></g><path class="cls-19" d="M520.53,141.44c2.58,68.05,24,131.64,32.83,199.2a7.82,7.82,0,0,0,1.38,4.15c1.41,1.67,3.91,1.92,6.13,2a149.67,149.67,0,0,0,29.75-2,6.46,6.46,0,0,0,5.46-7.25c-9.17-61.83-19.89-115.76-31.12-181.46-1.28-7.47-6.46-16.77-12.26-21.79s-18.2-6.29-21.7.46"/><path class="cls-22" d="M522.48,187.74c3.12-10.58,5.4-17.34,9-27.65,1.88-5.4,5.87-14.11,10.31-18.13s9.6-5.91,15.18-3.58,6.06,7.23,5.66,12.79-3.47,13-6.19,18c-4.93,9.15-9,17.26-14.89,25.84-4,5.87-7.53,11.6-15.13,13.12-4.58.92-8.12-.76-12.35-2.44a187,187,0,0,1-27.91-14,14.17,14.17,0,0,1-5.72-6.82c-1-3.09,0-4.12,1.79-7,1-1.58,2.18-3.32,4.11-3.73a7.63,7.63,0,0,1,4,.58c10.37,3.51,21.55,9.68,31.92,13.19"/><path class="cls-13" d="M531.38,127a126,126,0,0,1-15,6,2.13,2.13,0,0,0-1.09.6,1.33,1.33,0,0,0-.17.73,37.31,37.31,0,0,0,1,8.47,2.5,2.5,0,0,0,2.86,1.59c8.91-1.61,15.47-5.08,19.37-11.29a7.94,7.94,0,0,0,.76-4,3.93,3.93,0,0,0-2.16-3.28c-1.4-.76-3.5-.73-4.27.24"/><path class="cls-33" d="M318.9,155.7c2.33-3.32,5-6.88,9.87-8.51,3.46-1.15,7.48-1.13,11.26-1.65s7.82-1.91,8.79-4.44a1.35,1.35,0,0,0-.15-1.44c-.81-.92-2.81-.73-4.36-.52-7.24,1-14.69-.36-22.07-.42-1.92,0-4.37.34-4.69,1.62a3.61,3.61,0,0,0,.32,1.62,4.82,4.82,0,0,1-.49,2.83L313,156.25"/><path class="cls-34" d="M350.21,137.41H317.88V88.92a16.16,16.16,0,0,1,16.17-16.16h0a16.16,16.16,0,0,1,16.16,16.16Z"/><path class="cls-3" d="M317.86,137.56a27.54,27.54,0,0,1,32.35-.34"/><path class="cls-3" d="M334.43,132.31a22.3,22.3,0,0,0,2.46-18.65c-1.1-3.42-3.24-6.37-4.26-9.83s-1.14-7.31.66-10.61c.39-.71-.69-1.33-1.07-.63a14.2,14.2,0,0,0-1.29,9.5c.65,3.54,2.43,6.49,3.91,9.72a21,21,0,0,1-1.49,19.88c-.43.67.64,1.29,1.08.62Z"/><path class="cls-3" d="M331.64,97.16a8.54,8.54,0,0,0-4.39-3.92,4.17,4.17,0,0,0-3.68.05c-1.07.67-1.48,2.41-.51,3.23a2.58,2.58,0,0,0,2.17.36c.74-.16,1.45-.47,2.21-.56A4,4,0,0,1,331,97.9"/><path class="cls-3" d="M332.49,105.17a6.74,6.74,0,0,1,5.63-4.12,3.55,3.55,0,0,1,3,1,1.89,1.89,0,0,1-.33,2.82c-.83.43-1.81,0-2.7-.31a8.53,8.53,0,0,0-3-.44,2.55,2.55,0,0,0-2.4,1.22"/><path class="cls-3" d="M336.09,113.83a6.15,6.15,0,0,0-3.53-2,5,5,0,0,0-3.27.26,2.85,2.85,0,0,0-1.62,2.69,2,2,0,0,0,2.38,1.71,3.18,3.18,0,0,0,1-.59,9.12,9.12,0,0,1,2.64-1.46,3.78,3.78,0,0,1,2.95.22"/><path class="cls-3" d="M337.13,120.34a5.11,5.11,0,0,1,2.9-3.24,3.7,3.7,0,0,1,4.12,1,1.26,1.26,0,0,1,.32,1,1.29,1.29,0,0,1-1,.83,5.36,5.36,0,0,1-2.22,0,5.78,5.78,0,0,0-2.23-.06,1.84,1.84,0,0,0-1.47,1.47"/><path class="cls-3" d="M332.12,93.65a27.61,27.61,0,0,1,2.29-4.7,5.16,5.16,0,0,1,2.15-2.23,2,2,0,0,1,2.68.92,2.51,2.51,0,0,1-1.23,3,30.32,30.32,0,0,1-3.09,1.19,5.67,5.67,0,0,0-2.75,2.93"/><path class="cls-35" d="M353.74,141.16H314a1.94,1.94,0,0,1-1.94-1.94h0a1.94,1.94,0,0,1,1.94-1.93h39.7a1.93,1.93,0,0,1,1.93,1.93h0A1.93,1.93,0,0,1,353.74,141.16Z"/><path class="cls-36" d="M350.09,87a16.19,16.19,0,0,0-9.76-13L318,86.91a16.68,16.68,0,0,0-.13,2v16.67Z"/><polygon class="cls-36" points="317.88 127.6 350.21 108.94 350.21 99.56 317.88 118.22 317.88 127.6"/><path class="cls-37" d="M286.08,173c-7.38-7.71-12.36-12.52-20.08-19.8-4-3.81-11.47-9.55-17.36-11.07s-11.57-.88-15.89,3.55-2.73,8.84,0,13.44,8.71,9.62,13.4,12.77c8.5,5.7,15.79,10.87,24.93,15.68,6.24,3.29,12,6.68,19.83,4.67,4.73-1.21,7.39-4.19,10.71-7.48a197.69,197.69,0,0,0,20.64-24.15,13.49,13.49,0,0,0,2.58-8.34c-.33-3.1-1.74-3.53-4.62-5.22-1.59-.93-3.45-1.9-5.47-1.41a8.68,8.68,0,0,0-3.56,2.25c-8.37,7.53-16.41,17.7-24.78,25.23"/><path class="cls-19" d="M227.44,325.49c15.62,2.46,38.08.15,52-2,2.49-.39,5.24-.92,6.74-2.85,1.22-1.58,1.26-3.66,1.23-5.6-.52-42.35-7.75-84.24-14.95-125.94-1.55-8.92-3.1-17.9-6.34-26.38-6.41-16.75-21-31.79-39.7-34.16"/><path class="cls-8" d="M224.18,123.84a149,149,0,0,0,19,3.3,2.49,2.49,0,0,1,1.42.44,1.63,1.63,0,0,1,.4.81,47.21,47.21,0,0,1,1.19,10.29,2.92,2.92,0,0,1-2.89,2.61c-10.75.36-19-3-25.22-9.37a7.52,7.52,0,0,1-2.25-3.64,4.74,4.74,0,0,1,1.61-4.44c1.42-1.26,3.86-1.76,5-.8"/><path class="cls-33" d="M208,430q-1.4,3.94-2.81,7.88a5.82,5.82,0,0,0-.4,1.58c-.13,2.11,2,3.67,2.52,5.72a1.28,1.28,0,0,1,0,.67c-.2.69-1.15.73-1.85.63l-6.21-.93c-.78-.11-1.7-.33-2-1.06a2.36,2.36,0,0,1-.11-1.06l.9-15.73"/><path class="cls-14" d="M227.29,458.57l-16.21-2.48a11.38,11.38,0,0,1-5-1.6c-.78-.56-1.52-1.37-2.49-1.37-.76,0-1.38.49-2.11.66a5,5,0,0,1-2-.07l-6-1a3,3,0,0,1-1.81-.74,2.28,2.28,0,0,1-.21-2.07,28.81,28.81,0,0,1,3.17-7.84,2.1,2.1,0,0,1,1.48-1.23,2.63,2.63,0,0,1,1.73.76c2,1.57,4.86,2.95,7.21,1.95a8.64,8.64,0,0,1,1.82-.79,4.38,4.38,0,0,1,2.21.39,80,80,0,0,1,17.29,8.81,8,8,0,0,1,3,3,2.51,2.51,0,0,1-1.16,3.45"/><path class="cls-33" d="M299.52,427c-.07,3.05-.13,6.1-.2,9.15a6.58,6.58,0,0,0,.13,1.77c.6,2.24,3.32,3.13,4.59,5.06a1.34,1.34,0,0,1,.27.68c0,.79-.93,1.16-1.7,1.3l-6.76,1.18a2.6,2.6,0,0,1-2.44-.41,2.67,2.67,0,0,1-.48-1.07L288.43,428"/><path class="cls-14" d="M327,454.32l-17.33,1a11.89,11.89,0,0,1-5.55-.58c-.93-.43-1.86-1.13-2.88-.92-.78.17-1.32.84-2,1.18a5.06,5.06,0,0,1-2.06.37l-6.45.27a3.13,3.13,0,0,1-2-.39,2.52,2.52,0,0,1-.67-2.16,31.79,31.79,0,0,1,1.58-9.1,2.23,2.23,0,0,1,1.26-1.65,2.72,2.72,0,0,1,1.95.43c2.47,1.22,5.69,2.06,7.9.46a9.56,9.56,0,0,1,1.72-1.25,4.52,4.52,0,0,1,2.37-.08,83,83,0,0,1,19.84,5.56,8.48,8.48,0,0,1,3.78,2.52,2.81,2.81,0,0,1-.45,4"/><path class="cls-38" d="M270.83,240.16,301,435.39l-11.76-.85s-16.42-63-21.12-83.9S247.72,284,245.64,280s-3.12-6.19-3.12-6.19-10.14,59.46-13.07,70.14c-3.72,13.56-4.5,16.95-10.38,40.89-7.14,29.15-9.19,47.46-9.19,47.46l-14.29-1.69,10.91-96.06s.52-64.69.52-75.43,2.09-37.29,2.09-37.29Z"/><path class="cls-39" d="M288.74,437.22l11.43-1.14a3.8,3.8,0,0,0,3.42-4.06h0a3.81,3.81,0,0,0-4.17-3.51L288,429.65a3.8,3.8,0,0,0-3.42,4.05h0A3.81,3.81,0,0,0,288.74,437.22Z"/><path class="cls-39" d="M196.36,436.78l11.4,1a3.81,3.81,0,0,0,4.13-3.51h0a3.81,3.81,0,0,0-3.47-4.08l-11.39-1a3.82,3.82,0,0,0-4.14,3.52h0A3.82,3.82,0,0,0,196.36,436.78Z"/><path class="cls-37" d="M211.73,261.35l63.69-2.41q-4.76-30.48-8.16-61.19c-1.41-12.77-2.69-25.75-7.18-37.65s-12.74-22.82-24-26.85-25.51.73-30.44,12.43c-1.68,4-2.22,8.44-2.59,12.82-3,35.33,3.42,70.7,9.8,105.49"/><path class="cls-8" d="M239.4,133.79c-.22-1.23-3.93,3.88-4.15,2.62-1.61-.95,2.59-2.53.82-3.16a24.84,24.84,0,0,0-9.13-1.38,11,11,0,0,0-.93,1.5c-2.24,4.5-2,9.91-1.9,15,.48,21.39-1.9,42.72-2.25,64.1-.26,16.23.73,32.78,4.87,48.29,6.72-.25,23.59-.51,30.31-.76C253.93,220.33,246.66,173.5,239.4,133.79Z"/><path class="cls-30" d="M232.64,117.54c-8.23,2.45-16.73.84-22-2.78s-7.78-9-9.31-14.44c-1.33-4.73-2-9.77-.28-14.95s6.14-10.58,12.75-13.77A42.77,42.77,0,0,1,228.23,68c3.18-.3,6.44-.39,9,.46a11.09,11.09,0,0,1,5.32,4c4.53,5.74,9.56,7.28,6.9,12.41-.81,1.55-9.87,7.26-11.6,11.87-1.56,4.18,4.38,16.64-.83,19.35"/><path class="cls-33" d="M223.24,140.8a5.81,5.81,0,0,1-3.18-4.7c-.28-5.39-.71-13.33-.88-17-.07-1.5-.14-3-.15-4.5a1.69,1.69,0,0,1,.18-1,1.16,1.16,0,0,1,.63-.41c2.3-.77,4.68.39,7,.72,2.88.4,5.82-.46,8.72-.17a1.15,1.15,0,0,1,.94.44,1.71,1.71,0,0,1,.18.68c.55,4.28,1.51,13.41,2.16,18.8.14,1.21.73,2.83.05,3.82l-1.15,2c-1.94,2.81-6.87,4.23-9.82,3.08A24.89,24.89,0,0,1,223.24,140.8Z"/><path class="cls-40" d="M219.21,113.64a1.16,1.16,0,0,1,.63-.41c2.3-.77,4.68.39,7,.72,2.88.4,5.82-.46,8.72-.17a1.15,1.15,0,0,1,.94.44,1.71,1.71,0,0,1,.18.68l.93,7.18a16.21,16.21,0,0,1-7.86,3.53,11.51,11.51,0,0,1-10.51-4.35c0-.71-.07-1.43-.1-2.14-.07-1.5-.14-3-.15-4.5A1.69,1.69,0,0,1,219.21,113.64Z"/><path class="cls-33" d="M211.72,106.44c-3.07-.67-5.72-2.63-5.95-5s2.53-4.82,5.74-4.69"/><path class="cls-33" d="M213.22,110.84c5.08,10.83,13.48,10.6,22.47,11.54a16.43,16.43,0,0,0,5.72-.66c3.87-1.26,5.05-5.37,5.31-8.7A71.11,71.11,0,0,0,246,95.81c-.64-3.87-1.64-7.77-4.14-10.93a14.08,14.08,0,0,0-11.53-5.27c-6,.28-11.33,4.33-14.64,8.77-4.89,6.54-6.59,14.76-3.1,21.14"/><path class="cls-30" d="M233.42,75.67c9.64-7.36,8.76-15.13,6.47-13-5.82,5.35-12.39,6.15-20.17,7.56-1.86.33-4.43,5-6.28,5.38-5,1-8.44,5.91-8.91,10.73s.1,5.35,2.71,9.41l4.09.5s.16,1.64.53,3.34a7.6,7.6,0,0,0,.75,2.66,1.36,1.36,0,0,0,2.4-.63c1.06-6.53,3.11-12.36,8.48-15.71a25.4,25.4,0,0,1,4.63-1.69c3.59-.92,2.61-1,6.23-1.72s7.32-2.22,9.63-5C246.51,74.35,230.35,78,233.42,75.67Z"/><path class="cls-30" d="M235.5,69.25a7.87,7.87,0,0,0,2.43-.1,11.68,11.68,0,0,0,2.76-1l8.7-4a1.33,1.33,0,0,1,1-.16c.6.23.85,1.07.93,1.76A9.66,9.66,0,0,1,249.4,73a10,10,0,0,0,6.8-2.62,7.4,7.4,0,0,1,.09,6.49,9.12,9.12,0,0,1-4.21,4,16.91,16.91,0,0,1-12.51,1,2.68,2.68,0,0,1,.73,3.54,4,4,0,0,1-3.08,1.42,19.66,19.66,0,0,1-7.89-.83,3.21,3.21,0,0,1-.64,4.18,5.15,5.15,0,0,1-4.08.47,18.59,18.59,0,0,1-6.56-2.77"/><path class="cls-19" d="M233,138.44c5.92,13,19.61,123.72,25.1,188.17a7.73,7.73,0,0,1-.4,4.12c-.91,1.81-3,2.51-5,3-8.65,2.14-31.15,5-40.07,5.3-3.21.1-11.64-3.64-11.86-6.95-4.09-59.18-4.6-109.88-2.65-173.28.22-7.16,2.37-16.78,6.46-22.52s14.71-9.21,19.09-3.57"/><path class="cls-8" d="M218.52,123.48a156.24,156.24,0,0,0,18.54,6.7,2.58,2.58,0,0,1,1.35.68,1.64,1.64,0,0,1,.23.87,45.28,45.28,0,0,1-.81,10.35c-.22,1.29-1.87,2.27-3.42,2-10.9-1.59-19-5.54-24-12.93a9.82,9.82,0,0,1-1.09-4.85,4.8,4.8,0,0,1,2.49-4.08c1.68-1,4.24-1,5.21.11"/><path class="cls-3" d="M302.84,104c-.91-11.11-5-19.84-9.15-19.5s-6.75,9.62-5.84,20.74c.83,10.05,4.26,18.16,8,19.36,0,.08,0,.16,0,.24L298.23,154c.1,1.27.57,2.27,1,2.23l.77-.06c.47,0,.77-1.1.66-2.37l-2.39-29.13a2.91,2.91,0,0,0,0-.31C301.66,122.39,303.66,113.93,302.84,104Z"/><path class="cls-34" d="M300.19,104.11c.76,9.21-.94,16.86-3.79,17.1s-5.78-7-6.54-16.25.94-16.86,3.8-17.1S299.44,94.9,300.19,104.11Z"/><path class="cls-36" d="M300.19,104.11a48.7,48.7,0,0,0-.83-5.93l-8.49,13.53c.82,3.68,2,6.61,3.28,8.19l6.2-9.86A50.14,50.14,0,0,0,300.19,104.11Z"/><path class="cls-36" d="M296.42,89.87l-6.74,10.73c0,1.4.06,2.86.18,4.36.08,1,.19,1.93.31,2.86l8.3-13.21A19.78,19.78,0,0,0,296.42,89.87Z"/><path class="cls-33" d="M285.53,151.71c5.24-5.35,7.08-13.2,11.67-19.13.58-.75,1.4-1.53,2.31-1.32a1.78,1.78,0,0,1,1.23,1.56,5.32,5.32,0,0,1-.31,2.08,1.75,1.75,0,0,1,1.66,1.56,5.1,5.1,0,0,1-.43,2.45c1.72-.28,2.1,1.76,1,3.42-.3.42,2.68,1.28-.26,4.21a31.76,31.76,0,0,1-4.41,4,12.52,12.52,0,0,0-2.06,2.18l-4.67,5.86"/><path class="cls-37" d="M256,177c-7-8.52-11.71-13.87-19-22-3.83-4.24-10.9-10.72-16.56-12.7s-11.13-1.71-15.37,2.61-2.77,9-.24,14,8.24,10.61,12.71,14.21c8.1,6.51,15,12.39,23.77,18,6,3.84,11.44,7.76,19,6.2,4.57-.94,7.18-3.85,10.43-7.05A187.25,187.25,0,0,0,291,166.53a14.29,14.29,0,0,0,2.62-8.51c-.27-3.24-1.62-3.79-4.37-5.74-1.52-1.08-3.3-2.21-5.24-1.85a7.75,7.75,0,0,0-3.48,2.1c-8.18,7.27-16.09,17.3-24.28,24.57"/></g></svg>