<svg xmlns="http://www.w3.org/2000/svg" xmlns:xlink="http://www.w3.org/1999/xlink" viewBox="0 0 750 500"><defs><style>.cls-1{isolation:isolate;}.cls-2,.cls-31{fill:#fff;}.cls-3{fill:#fff3f3;}.cls-4{fill:#edb9c7;}.cls-5{fill:#ea526f;}.cls-6{fill:#1faaad;}.cls-7{fill:#cfe6e6;}.cls-8{fill:url(#linear-gradient);}.cls-9{fill:#25ced1;}.cls-10{fill:#933149;opacity:0.35;}.cls-11{fill:#16b596;}.cls-12{fill:#07514c;}.cls-13{fill:#ffc5ad;}.cls-14{fill:#f9835f;opacity:0.3;}.cls-15{fill:#f56e65;}.cls-16{fill:#ffc6bb;}.cls-17{fill:#332012;}.cls-18{fill:#e8a39a;}.cls-19{fill:#f7ab8d;}.cls-20{fill:#187a7a;}.cls-21{fill:#0f4947;opacity:0.25;}.cls-22{fill:#d8886c;}.cls-23{fill:#bf516b;}.cls-24{fill:url(#linear-gradient-2);}.cls-25{fill:#0e8c8c;}.cls-26{fill:url(#linear-gradient-3);}.cls-27{fill:#105b59;}.cls-28{fill:#15b8b5;}.cls-29,.cls-32{opacity:0.6;mix-blend-mode:multiply;}.cls-30{fill:#032624;}.cls-31{opacity:0.21;mix-blend-mode:overlay;}.cls-32{fill:#c7dee0;}.cls-33{fill:#14967d;}.cls-34{fill:#077773;}.cls-35{fill:#4c321c;}</style><linearGradient id="linear-gradient" x1="542.35" y1="402.07" x2="540.6" y2="394.82" gradientUnits="userSpaceOnUse"><stop offset="0" stop-color="#c7e2e2"/><stop offset="1" stop-color="#e1efef"/></linearGradient><linearGradient id="linear-gradient-2" x1="147.6" y1="396" x2="147.85" y2="386" xlink:href="#linear-gradient"/><linearGradient id="linear-gradient-3" x1="185.52" y1="401.75" x2="186.93" y2="398.08" xlink:href="#linear-gradient"/></defs><g class="cls-1"><g id="BACKGROUND"><rect class="cls-2" width="750" height="500"/></g><g id="OBJECTS"><path class="cls-3" d="M571.36,371c-13-4.33-35.32-7.19-60.66-7.19-7.17,0-14.08.23-20.62.66q-2.43-.95-5.4-1.81c-20.05-8.29-69.07-14.14-126.37-14.14-75.15,0-136.06,10.06-136.06,22.48,0,.06,0,.13,0,.2-8.86-.37-18.08-.56-27.54-.56-68.79,0-124.55,10.14-124.55,22.66S125.93,416,194.72,416q5.28,0,10.46-.08c7.68,4.71,20.18,9,36.3,12.48-3.21,1.86-5.06,4-5.06,6.38,0,6.74,15.42,12.21,34.44,12.21,16.88,0,30.91-4.31,33.86-10,17.25,1.28,35.85,2,55.24,2a710.08,710.08,0,0,0,75.9-3.88c12.95,2.42,29.69,3.88,48,3.88,41.05,0,74.33-7.36,74.33-16.43,0-1.47-.89-2.9-2.54-4.26q6.4.18,13,.18c58.27,0,105.51-10.62,105.51-23.73C674.17,381.81,628.38,371.32,571.36,371Z"/><path class="cls-3" d="M162.4,420.39c-12.11,0-21.93,2.73-21.93,6.1s9.82,6.11,21.93,6.11,21.93-2.73,21.93-6.11S174.51,420.39,162.4,420.39Z"/><ellipse class="cls-3" cx="209.63" cy="436.04" rx="10.15" ry="3.44"/><ellipse class="cls-3" cx="594.71" cy="428.79" rx="12.75" ry="3.81"/><ellipse class="cls-4" cx="537.4" cy="399.36" rx="61.33" ry="11.39"/><ellipse class="cls-4" cx="173.2" cy="395.6" rx="61.33" ry="11.39"/><ellipse class="cls-4" cx="588.39" cy="384.84" rx="13.76" ry="3.13"/><path class="cls-4" d="M492.4,419.11c0,1.29-3,2.34-6.66,2.34s-6.67-1.05-6.67-2.34,3-2.33,6.67-2.33S492.4,417.83,492.4,419.11Z"/><path class="cls-4" d="M466.07,406.87c0,2.79-10.84,5.05-24.22,5.05s-24.22-2.26-24.22-5.05,10.84-5.05,24.22-5.05S466.07,404.08,466.07,406.87Z"/><ellipse class="cls-4" cx="384.03" cy="405.18" rx="24.22" ry="5.05"/><path class="cls-4" d="M359.18,411.92c0,2.78-10.85,5-24.22,5s-24.22-2.26-24.22-5,10.84-5.05,24.22-5.05S359.18,409.13,359.18,411.92Z"/><ellipse class="cls-4" cx="294.78" cy="397.89" rx="24.22" ry="5.05"/><ellipse class="cls-4" cx="269.64" cy="391.68" rx="24.22" ry="5.05"/><ellipse class="cls-4" cx="367.64" cy="391.68" rx="79.56" ry="5.05"/><ellipse class="cls-4" cx="265.2" cy="414.35" rx="6.63" ry="2.43"/><ellipse class="cls-4" cx="460.61" cy="374.33" rx="9.46" ry="2.74"/><path class="cls-4" d="M240.93,382.72c0,.82-2.28,1.49-5.09,1.49s-5.1-.67-5.1-1.49,2.28-1.49,5.1-1.49S240.93,381.9,240.93,382.72Z"/><path class="cls-4" d="M363.35,420.45c0,.92-1.48,1.66-3.3,1.66s-3.31-.74-3.31-1.66,1.48-1.67,3.31-1.67S363.35,419.53,363.35,420.45Z"/><ellipse class="cls-4" cx="418.26" cy="417.37" rx="7.83" ry="3.02"/></g><g id="Layer_3" data-name="Layer 3"><path class="cls-5" d="M527.2,399.59c-.08,1.37-.17,2.23-.17,2.23H501.21c.31-10,10.75-8.66,10.75-8.66l1.8-4.56H527A61.61,61.61,0,0,1,527.2,399.59Z"/><path class="cls-6" d="M505.73,276.59,511,387.87s9.75,3.38,18.24,0l6.47-93.18L527,267Z"/><path class="cls-7" d="M527.2,399.59c-.08,1.37-.17,2.23-.17,2.23H501.21c.31-10,10.75-8.66,10.75-8.66l2.76,6.43Z"/><path class="cls-5" d="M550.76,400c-.14,1.35-.25,2.22-.25,2.22h-17c-1.34-7.81,4.38-8.09,4.38-8.09a10.23,10.23,0,0,0,1-6.79h11.32A51.58,51.58,0,0,1,550.76,400Z"/><path class="cls-8" d="M550.76,400c-.14,1.35-.25,2.22-.25,2.22h-17c-3.74-10.84,14.79-10.89,13-2.23h4.22Z"/><path class="cls-9" d="M526.06,273.28l8.74,114.58a72.48,72.48,0,0,0,19.66-.65l1.12-118.41Z"/><path class="cls-5" d="M557.66,271.86c-22.55,15.17-53,5.85-53,5.85l2.5-27.56-12.38-12c0-31,13.09-41.35,32.29-44.11s25,9.6,25,9.6L551,229.06l-.18,4.24,4.91,27.63Z"/><path class="cls-10" d="M555.72,260.93a33.17,33.17,0,0,1-8.36,6.06c-9.88,4.73-24.5,4.17-24.5,4.17l-1-36.05c20.86-3.48,19.12-20.32,19.12-20.32l10,14.27-.18,4.24Z"/><path class="cls-10" d="M506.71,235.11c.14-.7.42-14.48-.14-21.16,0,0,.55,15.59-8.22,21.16Z"/><path class="cls-11" d="M505.12,216.88c-2.61-4.23,1-6,1.56-8.29C506.68,208.59,510.17,213.63,505.12,216.88Z"/><path class="cls-11" d="M501.16,219.89c-4.27.77-3.85-3.95-5.16-5.66C496,214.23,501.28,212.9,501.16,219.89Z"/><path class="cls-11" d="M505.25,230.48c3.68,2.78,4.81-1.77,6.57-2.71C511.82,227.77,507.4,224,505.25,230.48Z"/><path class="cls-12" d="M503.57,244.32a.29.29,0,0,1-.25-.31V232.08a75.17,75.17,0,0,1,1.2-13.42l.93-5.2a.26.26,0,0,1,.3-.23.3.3,0,0,1,.19.36l-.93,5.2a74.72,74.72,0,0,0-1.18,13.29V244A.29.29,0,0,1,503.57,244.32Z"/><path class="cls-12" d="M503.65,229.08a.27.27,0,0,1-.25-.29,18.08,18.08,0,0,0-4.7-11.6.38.38,0,0,1-.05-.44.23.23,0,0,1,.35-.06,18.77,18.77,0,0,1,4.9,12.06.3.3,0,0,1-.24.33Z"/><path class="cls-12" d="M503.57,235.82a.27.27,0,0,1-.24-.25c0-.17-.68-4.23,4.39-7.08a.24.24,0,0,1,.33.15.34.34,0,0,1-.12.41c-4.69,2.63-4.14,6.24-4.11,6.39a.32.32,0,0,1-.19.37Z"/><path class="cls-11" d="M487.14,219.2c3.2-4.23-1.19-6-1.91-8.29C485.23,210.91,480.94,216,487.14,219.2Z"/><path class="cls-11" d="M492,222.21c5.24.78,4.72-4,6.34-5.66C498.34,216.55,491.86,215.22,492,222.21Z"/><path class="cls-11" d="M487,232.8c-4.51,2.78-5.9-1.77-8.06-2.71C478.92,230.09,484.35,226.32,487,232.8Z"/><path class="cls-12" d="M489,246.64a.31.31,0,0,0,.31-.31V234.4A61.86,61.86,0,0,0,487.88,221l-1.14-5.2a.31.31,0,0,0-.61.14l1.15,5.19a61.91,61.91,0,0,1,1.45,13.29v11.93A.31.31,0,0,0,489,246.64Z"/><path class="cls-12" d="M489,231.4a.31.31,0,0,0,.31-.29,16.82,16.82,0,0,1,5.76-11.6.31.31,0,0,0,.06-.44.3.3,0,0,0-.43,0,17.48,17.48,0,0,0-6,12,.31.31,0,0,0,.29.33Z"/><path class="cls-12" d="M489,238.14a.31.31,0,0,0,.3-.24c0-.18.84-4.24-5.38-7.09a.31.31,0,1,0-.26.56c5.75,2.63,5.07,6.24,5,6.4a.3.3,0,0,0,.24.36Z"/><path class="cls-11" d="M531.57,218.44c3-4.22-1.12-6.05-1.79-8.28C529.78,210.16,525.79,215.19,531.57,218.44Z"/><path class="cls-11" d="M536.09,221.46c4.89.77,4.41-4,5.91-5.67C542,215.79,536,214.46,536.09,221.46Z"/><path class="cls-11" d="M531.42,232c-4.21,2.78-5.51-1.77-7.52-2.7C523.9,229.34,529,225.56,531.42,232Z"/><path class="cls-12" d="M533.34,245.89a.3.3,0,0,0,.28-.31V233.65a67.17,67.17,0,0,0-1.36-13.43L531.19,215a.3.3,0,0,0-.35-.24.31.31,0,0,0-.21.37l1.07,5.2a66.44,66.44,0,0,1,1.35,13.29v11.93A.3.3,0,0,0,533.34,245.89Z"/><path class="cls-12" d="M533.25,230.64a.3.3,0,0,0,.29-.29,17.18,17.18,0,0,1,5.37-11.6.32.32,0,0,0,.06-.43.28.28,0,0,0-.41-.06A17.84,17.84,0,0,0,533,230.32a.29.29,0,0,0,.26.32Z"/><path class="cls-12" d="M533.34,237.38a.3.3,0,0,0,.28-.24c0-.17.78-4.24-5-7.09a.28.28,0,0,0-.38.16.31.31,0,0,0,.14.41c5.35,2.63,4.72,6.24,4.69,6.39a.3.3,0,0,0,.23.36Z"/><path class="cls-11" d="M511.24,232.12c3.2-4.23-1.19-6.05-1.92-8.29C509.32,223.83,505,228.87,511.24,232.12Z"/><path class="cls-11" d="M516.1,235.13c5.24.78,4.72-3.95,6.33-5.66C522.43,229.47,516,228.14,516.1,235.13Z"/><path class="cls-11" d="M511.08,245.72c-4.51,2.78-5.9-1.77-8.06-2.71C503,243,508.45,239.24,511.08,245.72Z"/><path class="cls-12" d="M513.14,259.56a.31.31,0,0,0,.31-.31V247.32A61.86,61.86,0,0,0,512,233.9l-1.14-5.2a.31.31,0,0,0-.61.14l1.15,5.19a61.91,61.91,0,0,1,1.45,13.29v11.93A.31.31,0,0,0,513.14,259.56Z"/><path class="cls-12" d="M513.05,244.32a.31.31,0,0,0,.31-.29,16.82,16.82,0,0,1,5.76-11.6.32.32,0,0,0,.06-.44.3.3,0,0,0-.43-.05,17.48,17.48,0,0,0-6,12.05.31.31,0,0,0,.29.33Z"/><path class="cls-12" d="M513.14,251.06a.31.31,0,0,0,.3-.24c0-.18.84-4.24-5.38-7.09a.31.31,0,0,0-.41.15.3.3,0,0,0,.15.41c5.75,2.63,5.07,6.24,5,6.4a.3.3,0,0,0,.24.36Z"/><rect class="cls-13" x="480.82" y="235.11" width="35.07" height="31.88"/><polygon class="cls-14" points="515.89 266.99 480.82 266.99 480.82 254.4 515.89 266.99"/><path class="cls-15" d="M489,254.63l.06-4.29a21.82,21.82,0,0,0-.31-4.28.54.54,0,0,1,.46-.27,1.68,1.68,0,0,1,.81.2,1.62,1.62,0,0,1,.6.53,2.71,2.71,0,0,1,.47,1.56,3.29,3.29,0,0,1-.38,1.6,2.63,2.63,0,0,1-1.12,1.12l.1,3.73c0,.34-.14.5-.4.5a.24.24,0,0,1-.22-.12A.55.55,0,0,1,489,254.63Zm.56-4.42a2.68,2.68,0,0,0,.92-2h0a2,2,0,0,0-.17-1,2.36,2.36,0,0,0-.13-.2,1.21,1.21,0,0,0-.2-.2l-.56-.41c0,.42,0,1.05.07,1.9S489.51,249.79,489.51,250.21Z"/><path class="cls-15" d="M493.92,250.43v.43c0,.69.05,1.74.05,3.13v.3h.91c.17.12.26.23.26.34a.39.39,0,0,1-.09.26.24.24,0,0,1-.18.1.69.69,0,0,1-.22,0l-.23,0h-.38a.41.41,0,0,1-.31.14.47.47,0,0,1-.31-.11.39.39,0,0,1-.13-.27l.08-.53c0-.91,0-2.27-.12-4.09s-.12-3.18-.12-4.09a.2.2,0,0,1,.09-.18.32.32,0,0,1,.22-.07.37.37,0,0,1,.24.1.34.34,0,0,1,.11.25Z"/><path class="cls-15" d="M499.86,255c-.25,0-.37-.1-.37-.31v-1.56a1.58,1.58,0,0,0-.61-.2,7,7,0,0,0-.79-.11,2.07,2.07,0,0,0-.2.61c-.06.27-.11.53-.17.8a2,2,0,0,1-.22.64c-.31,0-.49-.08-.53-.24a11.11,11.11,0,0,0,.53-2.39c.25-1.45.45-2.57.61-3.39a18,18,0,0,1,.51-2.05c.19-.56.36-.83.53-.83a.63.63,0,0,1,.39.1c0,.29.08,1.06.23,2.32s.24,2.07.24,2.44,0,1,.12,1.84.13,1.5.13,1.93A.35.35,0,0,1,499.86,255Zm-.5-3.92c-.07-.7-.14-1.38-.19-2s-.09-1-.09-1.17a1,1,0,0,1,0-.23,7.5,7.5,0,0,0-.55,2.15,24.8,24.8,0,0,0-.37,2.48,3.25,3.25,0,0,0,.83.13,2.64,2.64,0,0,0,.48,0C499.47,252.19,499.43,251.75,499.36,251Z"/><path class="cls-15" d="M502.46,248.68l.08-2.2v-.08q0-.6.27-.6c.16,0,.37.37.64,1.12a59.32,59.32,0,0,1,1.77,6.67v.06l0-4.19v-3.55a.36.36,0,0,1,.39-.29c.22,0,.32.15.32.46v.07a1,1,0,0,0-.07.36l-.07,4.43v3.67a.81.81,0,0,1-.1.36.3.3,0,0,1-.25.17c-.17,0-.5-.82-1-2.47s-1-3.41-1.45-5.31v3.94c0,.38,0,.95.08,1.71s.09,1.33.09,1.71a.22.22,0,0,1-.14.19.82.82,0,0,1-.34.07c-.14,0-.21-.06-.21-.19l.06-.86c0-.41,0-1.09-.07-2s-.08-1.49-.08-1.7Z"/><path class="cls-15" d="M509.72,248l0,1.55.11,2.76.1,2.15c0,.39-.12.59-.35.59a.3.3,0,0,1-.29-.19.91.91,0,0,1-.09-.41l.09-1.92c0-.41,0-1-.08-1.87s-.08-1.45-.08-1.87v-1a3.38,3.38,0,0,0-.11-1.12l-.65.07a.44.44,0,0,1-.27-.09.29.29,0,0,1-.12-.24c0-.09.1-.17.29-.24a3.05,3.05,0,0,1,.7-.15,10,10,0,0,1,1.21-.09.45.45,0,0,1,.27.1.31.31,0,0,1,.12.24.3.3,0,0,1-.11.24.41.41,0,0,1-.25.08l-.43,0h-.12A13.77,13.77,0,0,1,509.72,248Z"/><rect class="cls-15" x="515.89" y="235.11" width="22.29" height="31.88"/><path class="cls-16" d="M544.65,232.25v4L526.2,260.55s-4-3.86-5.67-4.07.73,7.1.73,7.1l-3,3.41h-6s4.42,4,7.66,4.14,9,.28,11.76-5.46c0,0,18.69-12,23.6-20.05s3.76-14.1,3.76-14.1Z"/><path class="cls-5" d="M543.05,233.71a18.35,18.35,0,0,0,17.68-2.5s-2.32-32.87-14.48-28.54C536.08,206.29,543.6,223,543.05,233.71Z"/><path class="cls-16" d="M480.81,256.48s7.71-.73,8.5.41-1.52,2.25-1.52,2.25,2.51.63,2.56,1.93-2,1.57-2,1.57,1.78.89,1.73,2.19-2.72,1.15-2.72,1.15,1.83,1.36.32,2.35-6.16.48-7.21.32-.36-2.62-.36-2.62a2,2,0,0,1-.94-2.71s-2-2.09.15-3.55C479.28,259.77,477.59,256.68,480.81,256.48Z"/><path class="cls-17" d="M530.4,177.34s3.27-7.09,2.23-11.34-3.37-3-3.37-3,1.87-9.25-11.6-8.38c-10.19.65-20.13,8.77-14.67,15.5,0,0-1.59,5.21,3.87,11C514.79,189.49,530.26,180.72,530.4,177.34Z"/><path class="cls-16" d="M536.56,193.84c-3.84,9.92-11.68,11.11-21.52,8a7.08,7.08,0,0,0,2.26-2h0a6.67,6.67,0,0,0,.75-6.51c-2.06-5.95,10.88-12.21,10.88-12.21s1.83,11.39,3,12S536.56,193.84,536.56,193.84Z"/><path class="cls-18" d="M517.3,199.83h0a6.67,6.67,0,0,0,.75-6.51c-2.06-5.95,10.88-12.21,10.88-12.21C531.58,203.34,517.3,199.83,517.3,199.83Z"/><path class="cls-16" d="M505.65,172.75s1.46,23.28,11.8,23.49,11.69-11.8,11.48-15.14c0,0,1.88-.52,1.47-3.76s-4.29-3.44-3.55,1.67c0,0-3.87-.31-3.45-7.2,0,0-2.4.83-8.46,2.71S505.65,172.75,505.65,172.75Z"/></g><g id="Layer_4" data-name="Layer 4"><path class="cls-19" d="M221.64,314.91A124.64,124.64,0,0,1,231,325.36c3.34,4.45,9.4,18.08,9.4,18.08l-9.26,4.19s-11.24-9.42-14.2-16.1-9-11.74-9-11.74"/><path class="cls-20" d="M224.29,313.8s-3.44,8.95-11.88,12.6a18.11,18.11,0,0,1-2.18.79c-10,2.9-38.28,27.26-38.28,27.26l-24.82,7.23-.53.15-6.12-5.29s-3.34-3.48-3.07-7.1,3.06-2.92,3.06-2.92,1.82-33.14,19.92-51.1,29.6-17.4,39.09-8.21c0,0,3.51,1.53,9.5,9.19S224.29,313.8,224.29,313.8Z"/><path class="cls-21" d="M213.41,325.31l-1,1.09a18.11,18.11,0,0,1-2.18.79c-10,2.9-38.28,27.26-38.28,27.26l-24.82,7.23L144.45,359c24.22-14.51,17.61-49.81,17.61-49.81l18.06-1.47c7.49,16.29,21.63,18.17,21.63,18.17.49-8.77,6-23,6-23C205,318.53,213.41,325.31,213.41,325.31Z"/><path class="cls-19" d="M248.51,354.45a8.19,8.19,0,0,1-6.26,5.16c-4,.83-15.46-4.46-15.46-4.46l-.44-.1c-4-.91-33.45-7.66-39.93-11-7-3.62-13.22-12.11-13.22-12.11L191,327.19l2.71,2.9,34.93,16.35,2.52,1.19s13.37-2.78,14.62-1.81-5,4.18-5,4.18,12.39-1.12,12.8,0S249.21,352.78,248.51,354.45Z"/><path class="cls-6" d="M248.51,354.45a8.19,8.19,0,0,1-6.26,5.16c-4,.83-15.46-4.46-15.46-4.46l-.44-.1a17.81,17.81,0,0,1,2.24-8.61l2.52,1.19s13.37-2.78,14.62-1.81-5,4.18-5,4.18,12.39-1.12,12.8,0S249.21,352.78,248.51,354.45Z"/><path class="cls-20" d="M191.16,326.61s-7.52-10.72-10.59-21.58-16.71-8.39-18.36,2.37c-1.84,12,14.19,30.35,14.19,30.35S188.23,335.8,191.16,326.61Z"/><path class="cls-19" d="M201.56,286.77a8.46,8.46,0,0,0-2.61,4.3,15.52,15.52,0,0,1,.44,3.61c-.1,2.76-1.73,4-7.12,1-7.42-4.17-7.94-11-7.94-11,4.5-2.71,4.92-8.87,4.92-8.87S203.55,285.22,201.56,286.77Z"/><path class="cls-17" d="M186.23,271.76s-2.28-9.13,0-13.79a3.77,3.77,0,0,1,4.93-2.16s1.49-7.56,7.93-8.28c6.27-.7,11.14,1.74,15,7.87s8.28,6.54,8.28,6.54-2.3,4.11-5.36,4.39c0,0,3.27,2.22,5.36,1.81,0,0-3,4.65-7.17,3.27a4.63,4.63,0,0,1-3.82,3.57C207.93,275.72,186.23,271.76,186.23,271.76Z"/><path class="cls-22" d="M201.56,286.77a8.46,8.46,0,0,0-2.61,4.3,15.52,15.52,0,0,1,.44,3.61c-2.59-.63-10.41-3.77-10.14-18.85C189.25,275.83,203.55,285.22,201.56,286.77Z"/><path class="cls-19" d="M212.73,270.08s-4.49,18.59-10.23,19.84-13.15-5.63-13.26-14.09c0,0-4.49-3.34-2.5-5.75s4.69,0,4.49,2.82c0,0,4.07-.62,4.07-8.14a13.25,13.25,0,0,0,11.48,2.61S207.62,270.29,212.73,270.08Z"/><path class="cls-6" d="M144.45,397.73s8.07.9,14-2.48v-13s-8.56-.42-12.9-1.84Z"/><path class="cls-5" d="M213.09,397.41l-.56.06c-11.7.84-40.1,0-40.1,0H159.27s-5.63-8.11,1.67-19.61a10.06,10.06,0,0,1,.63-.87c8.6-11.06,44.9-19.11,44.9-19.11s15.66,13.91,17.54,19.75S224.27,396.21,213.09,397.41Z"/><path class="cls-23" d="M213.09,397.41l-.56.06c-11.7.84-40.1,0-40.1,0H159.27s-5.63-8.11,1.67-19.61a10.06,10.06,0,0,1,.63-.87l20.88,6.07S205.4,386.19,213.09,397.41Z"/><path class="cls-24" d="M144.45,380.36v17.37s5.14.14,6-3.06,1.38-9.48.5-11.83S144.45,380.36,144.45,380.36Z"/><path class="cls-25" d="M169.51,389.12s-2.39,4.38-1.61,13.05h19.67s-3-8.67-2.61-12.32S169.51,389.12,169.51,389.12Z"/><path class="cls-23" d="M218,343.44c-3.76,10.18-32.58,49-32.58,49l-17.49-2.26,2.24-6.09a21.74,21.74,0,0,1-20.67-5.64c-9.61-9.19-9-21.93-9-21.93s6.06,7.73,17.75-2.92c0,0,25.5-26,42-29.86a14.91,14.91,0,0,1,4.83-.42,26.34,26.34,0,0,1,8.4,2c3.58,1.6,5.45,4,6.09,7C220.21,335.48,219.48,339.32,218,343.44Z"/><path class="cls-5" d="M218,343.44c-3.76,10.18-32.58,49-32.58,49a35.43,35.43,0,0,1-17.49-2.26l2.24-6.09s15.16-49.51,30.05-60.35a14.91,14.91,0,0,1,4.83-.42,26.34,26.34,0,0,1,8.4,2c3.58,1.6,5.45,4,6.09,7C220.21,335.48,219.48,339.32,218,343.44Z"/><path class="cls-26" d="M177.13,402.17h17.75s-.1-6.68-6.58-7.2S175.46,396.32,177.13,402.17Z"/><path class="cls-17" d="M252.31,350.17s-.73-2.5-2.09-3.44-1.88-2.19-3.24-3.29-2.82-.16-4.07-1.31-1.43-1.36-3-1.36-2.68,3.35-3.83,2.67-2.71-.26-3.86.47-3.34-.08-3.76,1.71,1.05,5.39,1.05,5.39S244.89,353.72,252.31,350.17Z"/><path class="cls-11" d="M240.93,327.19s-4.25-3.54-1-10.54C240,316.65,246.46,320.91,240.93,327.19Z"/><path class="cls-11" d="M242.65,333.2a3.92,3.92,0,0,1,2.14-4.33c2.87-1.62,2.87-2.82,2.87-2.82S248.55,334.92,242.65,333.2Z"/><path class="cls-12" d="M245.48,330.37a.42.42,0,0,0-.55.21c-.72,1.65-2.67,2.39-3.59,2.66v-13a.41.41,0,0,0-.41-.41.41.41,0,0,0-.42.41v22.66a.42.42,0,0,0,.42.42.41.41,0,0,0,.41-.42v-8.75c.91-.23,3.43-1.05,4.36-3.19A.42.42,0,0,0,245.48,330.37Z"/></g><g id="Layer_5" data-name="Layer 5"><path class="cls-27" d="M340.79,283.28l26.61-1.72s-16.74,48-15.84,62.67Z"/><path class="cls-27" d="M377.48,182.42s17.78-28.53,66.55-41.09c0,0,7.89,77.08-31.34,114.15Z"/><path class="cls-27" d="M309,269.46s-23.71,1.5-40.52-51.71-28.94-57.57-28.94-57.57,57.16-9.11,79.9,35.51S309,269.46,309,269.46Z"/><path class="cls-28" d="M386.56,286.72a87.13,87.13,0,1,1,33-128.4,87.25,87.25,0,0,1-33,128.4Z"/><g class="cls-29"><path class="cls-30" d="M432.63,213.72s-1.82,1.3-2.1,1.57-1.1.81-1.27,1.31-.5.1-1.44,1-1.38.82-1.31-.72-.53-1.65-1.08-2.48.51-2-1.75-1.06-2.58.58-3.69,2.22-1.9,3.11-1.9,3.11l-2-.12a21.29,21.29,0,0,0-3.07-1,11,11,0,0,0-1.71.7,5.46,5.46,0,0,1-1.14-2c-.26-1.1-.75-1.27-1.25-.61s-1.39,1.91-1.39,1.91a11.76,11.76,0,0,0-2.77,2.45c-.89,1.25-.78,1.75-2.88,2.5s-1.34,2.57-3.37,2.33-3-.19-4-.64-1.27.21-.48,1.26,2.12.13.87,1.35-2.37.89-1.26,2.47,1.74,2.7,1.24,2.94a1.7,1.7,0,0,1-1.93-2c.34-1.53-.78-1.74-.78-1.74s0-1,.47-1.39.35-1.81-.62-1.13-1.15.15-1,1.22a1.84,1.84,0,0,1-.84,2.19c-.91.79-1.16.57-1.66,1.5s.38.77-.78,1.34-1.33,1.06-.9,1.94.08,1.13-.15,1.92-.28,1-.45,1.59a1.57,1.57,0,0,0,0,1.07c.05.25-.33.57-.66.6s-1-.28-2.28-.46a4.9,4.9,0,0,0-3.27.44c-1.16.57-1,3.42-3,3.43a12.93,12.93,0,0,1-3.12-.38c-1.24-.15-1-.39-1.59-1.14s-.95-.69-.83-1.57-.05-1.35-.78-2.7-.6-3.74-1.86-3.81.83-1.22-2.36.2-2.92.47-4.85,1.83a29.38,29.38,0,0,1-3.59,2.44c-.64.24-1.68.48-1.06-1s1.32-1.06.65-2.3-1.61-2-.75-2,1-.76,1.16-1.53-1.55-1.36-.85-2.86,1.42-2.54-.34-1.68-.74-.66-2.95.69-2.21,1.22-2,2-2.08.2-.45,1.59,2.12,2.24,1.46,2.7a16.5,16.5,0,0,0-1.74,1.19c-1.55,1.17-2,2.9-2.85,2.29s-.23-1.19-1.5-.57-1.19,1.2-2.47-.29-3.91-2.12-3.08-2.53.28-1.23-.56-2a9.72,9.72,0,0,1-1.84-3.06c-.49-1-1.38-2.68-.37-2.42s.88-.16.37-1.21-1.75-1.33-1.54-2.59-.49-.86.68-2.11.69-1.09,2.1-1.85,1.48-.45,1.74-1.33-.81-1.79.2-1.54.55.28,2-.56,2.56-.63,2.17-1.84-1.05-1,.66-2a35.18,35.18,0,0,1,3.28-1.82c.8-.32.59-.9,1.21,0s1.32,0,1.93-.4.23-1.34,1.11-1.08,2.49.21,3.09.74a2.56,2.56,0,0,1,1.25,1.85c.24,1.18-.13,1.84.81,2.06s1.12-.21,1.58.59,1.48,1.2,1.72,1.56,1.26.2,1.48-.05.92-1.75-1.33-4.26-1.82-2.87-3-4.29-1.52-1.44-1.23-3.36.27-2.52,1.16-3.64a5.43,5.43,0,0,0,1.34-3.39,6.35,6.35,0,0,1,1.71-3.64c.86-1-.15-.71-.39-1.28s.61-.64.93-1.17.64-.79.18-1.11-.83.54-.93.14.76-1.6.29-1.78a1.08,1.08,0,0,0-1.37.47c-.43.58-1.13.69-1.06.21s.73-.12.08-1.17-2.07-2.06-2-2.82-.08-1.36.8.3,1.49,3.47,2,2.6,1-1.61.09-2.4-1.79-1-.86-1.06,1.31,1.14,1.57.2.7-2.06-.06-2.37-.7-1.13-.84-1.5-1-.57-.1-1,2-.36,2-1.33.29-1.37-.28-1-1,1.24-1.44,1.32.36-1,1.18-1.64-.14-.44.73-.9,2-.72,1.78-1.32-1.4-.82-1.63-.46-.55.27-.78-.27.26-1.15.19-1.91a6.46,6.46,0,0,1,.74-2.62c.21-.34,1.61-.22,1.44-1.13s-.29-1.24-.17-1.38.65-.06.66-.69-.18-1.91.27-1.17.27,1,.67.09.3-1.79.57-1.33.67.68.79.21.49.36.12.63-1.58-.27-1.07.59-.18.42.11,1.24,1.1,2.47,1.66,1.19.11-1.8.54-2.62a16,16,0,0,1,1.24-1.85l.41-1.75s.52-.85-.35-.42-.67.14-1.24.7-.92.66-1.44.51-.5-.29-1.25.12-.82.62-1.77-.39.3-1.51-.95-1a3.25,3.25,0,0,0-1.72,1.1c-.6.58-1,.52-.69-.09s1-.71,1.43-1.32,1.56-1,.58-1.44a3.32,3.32,0,0,0-2.11-.1l-1.93,2.21-.86,2.09s-.28,1.45-.44,2.31-.68,1.76-.61.77a16.42,16.42,0,0,1,.37-3.49,21.2,21.2,0,0,1,1-2.24c.33-.79-.35-2,.41-2.57s1.59-.85,3-1.73a20.06,20.06,0,0,0,3.4-2.35c.39-.53.23-1,.19-1.64s0-.53.74-1.12.25-1.55,0-2-1.21-.23-1.66-.78-.51-1.17-.81-.61.24,1.3-.18,1.09-.21-1.45-1-.78-.53.13-.91,1.59-1,1.54-.88.42a5.52,5.52,0,0,1,1.31-2.51c.28-.36-.89-.06-2.12.32a5,5,0,0,1-2.64.1,1.53,1.53,0,0,0-1,.18c-.11,0-.5-.27-2.16-.77s-3.81-1.19-4.94-1.64-1.88-1.59-1.5-.36,1.27,1.48.73,2.24-.15.85-.75,1.41-.43.31-1.14.38-1.1.86-1.37.4,1.3-.41-.32-.94-.71-.24-1.07-1.07-2-.16-3,.07-.79-.49-2.07,0a15,15,0,0,1-2.53.83c-.35.08-2.69.72-2.69.72s-1.31-.64-.73.63.63,1.38.88,1.9a3.24,3.24,0,0,0,1.23,1s.51-.94.89-.58-1,1.34-1.23,1.81-.54.36.61.62,1.95.07,2.34.39,1.09.9,1.09.9,1.15.19.74.46-.26.37-.47,1.49a5.08,5.08,0,0,1-1.27,2.57c-.5.52-.55.62.05,1.28s1.2.23,1.69.88-.12.4.88,1.09l1,.68s-.82-.26-.12.35.95,1.24.16.74-.68-.83-.87-.26-.23.66.36,1,1.42,1.09.77.75-1-.93-1.43-.35-.64,1.27-1,1.35-.35-.79-.35-.79v-1.33l-1.19-.27s-1.1,1-.91.2-.67-.56-.92-.44-1.34-.09-.71-.4.74-.3.79-.87-.7-.92-1.07-1.18-.4-1.31-1.23-.9-2.13,1.31-2.5,1.25a4.25,4.25,0,0,0-1.75-.16,5.17,5.17,0,0,0-1.71,1c-.29.18-.34-.41-.7-.58a3,3,0,0,0-1.51.05l-.62.2a1.08,1.08,0,0,1-1-.64c-.33-.69-1.11-1.09-1.34-.5a10.92,10.92,0,0,0-.36,1.2s-1.43-.74-1.56-1.29.46-.53.18-1.11,0-.08.13-1.05-.18-1.69.67-2,1.45-.39,1-1.5-1-2.37-.51-3.13.14,0,.7-1,1-1.61.35-1.5-.81.64-1.42.45-1.46-.13-.49-.51,1.71,0,2.08-.37a3.11,3.11,0,0,0,.67-1.56c0-.27.3,0,.4-.43s-.22-.61.56-.62,1.07,0,.84-.58.33-1,.11-1.45-.59.12-1.15-.53a3.14,3.14,0,0,0-1.5-1.18c-.4-.05-1-.29-1.31.26s-.51.69-.21,1.1a1.89,1.89,0,0,1,.31,1,5.34,5.34,0,0,0-.42,1c-.27.78.34,1.81-.7.82s-1.14-1.5-1.63-1.39a1.33,1.33,0,0,0-.82.36,2.45,2.45,0,0,1-1,.49c-.61.23-1,0-.84.45s.38.84.62.78,0,.2-.47.85a6.37,6.37,0,0,0-.67,1s1,.06.64.54-.19.58-.51.56-.93,0-.93-.57a3.14,3.14,0,0,1,0-.84c.08-.66.39-1.08.35-1.23s-.56-.38-1.23-.42-1.29-.4-1.53.16a10.12,10.12,0,0,0-.54,1.26c0,.22.63-.17.92-.21s.75.42.75.42a.56.56,0,0,1-.13.57c-.25.26-.61.71-.61.71s.89.22-.8.32a33.88,33.88,0,0,1-3.86-.13c-1.48,0-1.82-.57-1.86.17s.64.54-.23,1.13-1,.57-1.07,1a3.41,3.41,0,0,0,.16,1.09l.18.52a2.46,2.46,0,0,1-.18.74,1.18,1.18,0,0,1-.63.1c-.15,0-.16-.81-.23-1a5.69,5.69,0,0,0-.82-.62s-.72-.5-1.16-.15a13.87,13.87,0,0,1-1.25.81s-1.56.22-1.57,0,.73-.6.61-.71.07-.4-.86-.07-2.46.63-2.78,0-.89-.49-1.65-.08-.36-.68-1.12.07a1.59,1.59,0,0,1-1.39.59s.15-.53-1.19.16-.87.53-1.37,1-.61.37-.84,0-.89-.15-1.27.11a1.72,1.72,0,0,0-.57.72,3.14,3.14,0,0,0-.91-.95c-.71-.54-.15-.58-1.07-.44s-2,.18-1.56-.39,1.07-1.66.18-1.8-.8-.3-1.78.49-1.57.5-1.7,1.21.29.44-.68,1.46-.82.64-1,1.68-.08,1.31-.39,1.08-.46-1.21-.23-2.07a11,11,0,0,0,.21-1.77c-.78,1-1.54,2.05-2.27,3.1a1.43,1.43,0,0,0-.09,1c.37,1.14,1.31,1.29.58,1.84s-.7,1.27-1.12,1.52-.31-.26-1.42.19c-.54.22-.86.25-1.17.39-1.12,1.87-2.16,3.77-3.14,5.71a3,3,0,0,1,1.64,1.42l-1.37,2.36-2.32,2.09a3.35,3.35,0,0,0,2.79-.87c1.46-1.22,1.51-3.63,1.83-2.84s-.44,1.63-.67,2.41,1.62-1,1.79-1.79-.33-3.05.49-2.91a2.12,2.12,0,0,1,1.28.81l-.47,1.39h1.71l2.57.08s.11,0,.3.61-.12,1,.18,1.12.27.14.2.86a13.13,13.13,0,0,0-.15,1.85c0,.27.57.2.53-.26s-.05-1.14-.05-1.14.07-1.61.31-1.54a1.67,1.67,0,0,1,.56.39l.08,1.62s.12.38.21.74.23.39.12.63-.84-.23-.11.23.58.54.47,1-.36.63.11.76.55-.81.84-.68.42-.16.53.33.8.48.49.95-1.22.14-1.41.32-.32.22-.24.56-.11.62.33.67.18.56.25.79,1.64-1.57,1.21-.59-.56,1.09-.49,1.79-.08,1.41.39,1.17.53-1.07.82-1.21.26.28.06.79-1,.44-1,1a2.06,2.06,0,0,1-.27,1.13c-.18.46-.11.51.51.66s1.49-.91,1.4-.68-.27.31-.36.65-.16.8.21.54a2.07,2.07,0,0,0,.71-.72c.1-.25.52-.87.38-.35s-.41.52-.22.8.21,0,.32.33.2.49.38.49.45-.33.45-.52.33-.43.29-.05-.3.79,0,1,.6.37.6.37l0,.71.43,1a10.43,10.43,0,0,1,.22,1.67c0,.64.14,2,.14,2l-.51.25-.82-1.94a6.69,6.69,0,0,0-.9-1.09c-.16-.06-.47,0-.47.42a4.67,4.67,0,0,0,.11,1,1.41,1.41,0,0,1,.21.79,3.42,3.42,0,0,0,.16,1.08,2.84,2.84,0,0,0-.46,2c.12,1.36-.18,1.5.07,2.56s.88,1.43.27,2.42-.93.72-.68,1.88.69,1,.66,2.18-.32,1.3,0,2.1.37,1.71.69,2.35.08,1.38.77,1.59.43.29.7.2,0-.38.7-.34.87-.56.66,0-.27.86-.27.86-.4-.17-.25.4-.36.76-.16,1a2.85,2.85,0,0,0,.86.44s-.85.51,0,1.18.71.52,1.05,1.21a4.24,4.24,0,0,0,.76,1.09l1.15.75.89.44s-.46.27.68.44.5-.92,1.37.29a8.43,8.43,0,0,1,1.07,1.8l1,.48a3.62,3.62,0,0,1,.85,1.31c.42.94.17.34.73,1.48a3.63,3.63,0,0,0,1.5,1.95c.82.56,2,.44,2.39.79a5.32,5.32,0,0,1,.85,1.27s.2.31.58.81.12.44-.63.12-.84.51-.84.51a1.21,1.21,0,0,0,.83.77l2,.73s.18-.36.87.49.8.47,1.17,1.25.56,1.91,2.31,2.33.88.3,2,1.22a6.07,6.07,0,0,0,2.72,1.46c.71.15,3.05,1,1.1-.54s-2.39-1.2-3.14-1.68-.66-1.43-2.15-3-3.34-2.92-4.19-4.1a17,17,0,0,0-3.44-4.24c-2-1.7-3.22-2.67-2.05-2.51s1.77-1.41,2.45-.2,1.68,3.05,1.68,3.05a10.28,10.28,0,0,0,1.91,1.85,5,5,0,0,0,2.84,1.53,5.24,5.24,0,0,1,1.42,1.22s1.94-.13,2.23.46-.52.61.75,1.54-.11.33,1.28.93a14.56,14.56,0,0,1,2.51,1.41l3.68,1.75a3.92,3.92,0,0,0,1.16,1.26c.84.59,1.57.15,1.37,1s-.78,1.34-.35,1.37.56.1.42.44,1.17.83,2.08,1.76,1.47.78,2.49,1.1a4.59,4.59,0,0,1,1.81.89c.82.56,0,.24,1.66.05a8,8,0,0,1,3.08.32c.44.06,1.19-.12,4.15-.07s3.93.33,5.27.15,1.76.24,2.53-.41,1-1.37,1.66-1.36.68.83,1.24,0,.7-.8,1.17-.39a7.52,7.52,0,0,0,2.37.64s-.86,1,1.5,1.25c2.15.19,4.17.22,4.69-.23.08.09.32.16.83.19a9.79,9.79,0,0,1,3.7.86,3.68,3.68,0,0,1,1.63,1.52,1.13,1.13,0,0,0,1.23.7c.74,0,1.49-.59,2.37-.48s.13.69,1.61.65a7,7,0,0,0,2.17-.31l.53-.6,1.9-.59s1,.07,1.21.37-.09.79.7.75a1.41,1.41,0,0,0,1.11-.54s1.57-1.11.94-1.56-1.78.26-1.17-.72.89-1.4,1.17-1.81.36-.65,1.35-.31,1-.63,1,.33.08,1.2.67,1a2.11,2.11,0,0,1,1.14-.08s.86-.05,1,.32-.42.53-.12,1-.61.71,0,1,0,.88.56,1.3-.25.87.73,1.35.92,1.32,0,2.19-.93-.22-1,1.23.15,1.43-.29,1.83a15.45,15.45,0,0,0-1.53,1.89c-.67.87-1-.06-.8,1.44s.63,1.29.1,2.45a2,2,0,0,0,0,1.94s3.15-2,2.24-.54a6.1,6.1,0,0,0-1,2.18,7.55,7.55,0,0,0-.21,1.06l-.06,1.36.46,1.32s.17-.4,1.49-.23,1.55.11,1.81.26a11.24,11.24,0,0,0,3,1.51,19.71,19.71,0,0,0,3,.87c.68.15,1.1-.26,1.36.43s.08.44,1.54.2a12.57,12.57,0,0,0,3.36-.68c.88-.43,3.08-1.1,3.69-1.4s1-.54.79.09a26.44,26.44,0,0,1-.55,4c-.48,1.4-.49,2.08-1.6,3.17s-1.69,1.86-2.38,2.54a3.43,3.43,0,0,0-.65,2.16,87.32,87.32,0,0,0,35.2-68.34l-1.5,1ZM353,149.87c.2-.29.73-.13,1.12-.05a1,1,0,0,0,1.24-.47c.41-.61.84-.57,1.51-.6s.17.53-.41,1.16,0,.32-.65.63,0,.45-.1.82-1-.22-2-.45S352.58,150.47,353,149.87Zm-21.55,26c1.8-1.77,1-2.05,2.79-1.69s2.06-.54,2.71.37,2.5,1,2.5,1l2.17-.59,3.28-.84a2.08,2.08,0,0,1,1.6.47c.54.6,1.3.58.08,1.16a12,12,0,0,1-3,.82s-.17.42.47,1.61,1.08.71.6,1.83-2.11,2.67-.64,1.89,2.24-2.13,3.12-2,.82-1.09,1.46-1.47-.35-.45.18-1.46.4-1.49,1.68-2,.87-.76,2-1.33,2.58,0,1.14.94-1.79.81-2.76,1.9-1.35.32-1.08,1.56,1.23.56,0,1.84-.59.46-2.18,1.56-1.14,1-2.57,1.58-2.59,1.13-2.44-.24,2-1.82,1.07-2.85-1.46-.59-2.09.07-.15-1.2-.35-1.66a1.52,1.52,0,0,0-1.83-.57c-.91.25-1.28-.51-1.45,1s-.56.68-.52,1.46-.47.15.47,2.08,1.92,2.93.43,4.09-3-1.48-2.8-2.93.45-2.58-.41-2.1-.72-1.6.19-2.27,1.38-.8,2.15-1.33,1.48-.75,1.48-1a2,2,0,0,0-2.45-.27c-.9.68-.09.38-1.28,1.15s-2.52,1.15-2.36.63.45-.67-.63-.55S331.47,175.86,331.47,175.86Zm-11.89-4.69c.58-.4-.17-.53-.36-1.21s.53-.67,1.84-1.27c0,0,.44.34-.08.77s-.17.4-.14.84a2.87,2.87,0,0,0,.38,1.23c.34.79.37,1,1.16,1.35s.56.5,1.35,1.64-.24.91-.92,1.48,0,0-.35-.61-.28-1.14-1.14-1.79-.85,0-1.23-.56-.09-.73-.87-1S319,171.57,319.58,171.17Zm-1.94,1s1.08.62.82,1.21,0,.92.78.93.78-.16.83.5.55.65,1.2,1.51-.65.82-1.07,0-.65-.48-1.42-.66-.83-.41-.93-.91-.11-.76-1.21-1.14S316.14,172.79,317.64,172.14Zm-5.62-5c-.42-1.06-.54-.74.56-1.09.39-.12.85,0,1,1.18s-.31.63-1,1.6S312.44,168.19,312,167.12Zm-7.08,34.23c.06,1.3-.28.75-1.31,1.36s-.27-.55-1-2-.61-.92.87-1.73C304.13,198.64,304.89,200,304.94,201.35Zm-10.59-40.58s.37-.36,1.38-1.16.12-.26-.7-.23-.56.17-2.09.67.93-.76,2.34-1.51.36-.25,1.92-.74c.62-.19.23.6,1.17.49s.09.19.31.63-.05.68-1,.57-.55.27-.67.57-.7,1.44-.7,1.44a12,12,0,0,1-2.16.06C293.26,161.47,294.35,160.77,294.35,160.77Zm9.71.71c-.4.23-.47.64-.72,1.45a1.71,1.71,0,0,1-1.17,1.25c-.6.3-.66.47-1.88,1.54s-.88.64-1.87.51-1.14-.1-1.34-.3,1.16-.5,1.42-.94a5.65,5.65,0,0,0,.47-1.29.89.89,0,0,1,0-1.29c.3-.27.42.24.95.7s.92.61,1.78.07.77-1.08,2-1.84S304.46,161.25,304.06,161.48Zm57.51,80.71c.26-.58.65-1.27.91-.85C362.64,241.59,361.94,241.91,361.57,242.19Z"/><path class="cls-30" d="M325.62,148.89c-.71-.13-1.21-.51-.88.15s-.26.74.54,1.11.85.4.38.63-.47.57.1.91.39,1.07,1,.42a6.36,6.36,0,0,0,1.11-1.71c.18-.46-.09-.67.66-.6a1.66,1.66,0,0,0,1.63-.52c.36-.45.61-1.12-.33-.66s-1.18.58-1.36.22.16-.66-1-.31A7.25,7.25,0,0,1,325.62,148.89Z"/><path class="cls-30" d="M329.15,150.58c-.86.34-1.25.32-1.29,1.08s.29,1.42.87.66.56-.75.87-1.16S329.74,150.34,329.15,150.58Z"/><path class="cls-30" d="M332.2,149c-1.19.55-1.46,1-.7,1.23s1.28.39,1.18-.24S332.62,148.8,332.2,149Z"/><path class="cls-30" d="M336.25,156.2c-.34.19-.26.49-.21.93s.12.23-.09.65.07.47.54.45.93-.11.66-.65-.54-.55-.27-1S336.57,156,336.25,156.2Z"/><path class="cls-30" d="M365.3,154.53c-1.83.95-4.34,1-2.73,1.34s2.16.52,3,.08S365.3,154.53,365.3,154.53Z"/><path class="cls-30" d="M370,156c-.62.24-.05.17-.16,1.25-.09.79-.33,1.77-.16,1.83s.27-.2.36-.36a1.64,1.64,0,0,0,.21-.94A11,11,0,0,0,370,156Z"/><path class="cls-30" d="M371.63,157.28c.46.17.71.14.55.57s-.07.06-.15.67.13,1.16-.35.78a1.58,1.58,0,0,1-.49-1.51A.77.77,0,0,1,371.63,157.28Z"/><path class="cls-30" d="M368.5,148.37a1.05,1.05,0,0,0-.16,1.21,4.65,4.65,0,0,1,.21,1l.1.77a.91.91,0,0,1,.49.65,2.86,2.86,0,0,0,.26.87s-.39.27-.37.51-1,.09,0,.49.77.23.8.64.5.74.85.4-.55-.28,1.05-.88,1.4-1.51,1.71-1.22.39.29.46-.09.75-1.22.59-.46-.68,1.71-.06,1.55,1.34-.92.85-1.51-.68-1.39-.08-.8.62,1.34,1.17,1,.74-.18,1.15-.17,1-.25.23-.85-1-1.75-1.25-1.09-.66,1-1.21.46-.52-.64-1.15-.81-.23-1.22-1.13-.81-.63,1.19-1.35,1.13-1-.7-1.19,0-.22,1.34-.61,1-.72,0-.73-.72S368.87,148,368.5,148.37Z"/><path class="cls-30" d="M297.86,152.11c-1.44-.25-3,1-1.71-.8s1.55-1.49,2-2.35a3.59,3.59,0,0,1,1.15-1.28s1.91-.94,2.46-.75,1.52-.06.65.5a7.5,7.5,0,0,0-1.49,1.32l-.85,1.06-.73,1.4Z"/><path class="cls-30" d="M303.55,148.28c-.14-.36-.18-.73-.8-.15s-1.2.63-1.6,1,0,.2-.38.73-.86,1.24-.86,1.24l1.09-.22s1.23-.1.46.28-2.81,1.24-1.77,1.14,2-.84,2.86-.85.87.12-.16.62-2.88.55-1.61.79,1.73-.48,1.6.18,0,.86,1.06.21.85-.21,1.74-.82a8,8,0,0,0,1.55-1.48,1.06,1.06,0,0,1,1.27-.85c1.12.14,2.69.74,3.31.34s.37-.64-.19-.86-.55-.46-.05-.84,1.05-.93.12-.88a1.28,1.28,0,0,1-1.42-1,1.93,1.93,0,0,0-1-.94c-.28-.09.1-1.37-.39.14s-.28,2.33-.64,2a2.42,2.42,0,0,1-.52-1.16s-.18-.73-.71-.33-.4.1-.74.72-.32,1-.61.62,0-1-.49-.63-.62.4-.7.62S303.71,148.7,303.55,148.28Z"/><path class="cls-30" d="M313.08,144.15a5.82,5.82,0,0,1,1.33.48s.9-.41.53.52-.32,1-.68,1.4.11,1-.68.57-.67-.53-1.09-.55-1.16-.27-.49-.66.78-.49.62-1S313.08,144.15,313.08,144.15Z"/><path class="cls-30" d="M316.32,144.7c-.54.56-1.34,1.22-1.2,1.66a3.55,3.55,0,0,0,.9,1.07,5.08,5.08,0,0,0,.79-.69,2.62,2.62,0,0,1,1-.7c.53-.25,1-.62.33-.93A6.17,6.17,0,0,0,316.32,144.7Z"/><path class="cls-30" d="M315.12,143.15c-.19.3-.15.39.08.85s.22.89.49.65.25-.32.52-.53-.43.66.44-.21.82-1.12.88-1.42.84-1-.2-.42S315.12,143.15,315.12,143.15Z"/><path class="cls-30" d="M320.64,140.18c-.54,0-.36.21-.66.58s-.53-.27-.81.69-.72.48-.28,1a3,3,0,0,0,.8.65s.75-.21.81.27.58.55.75.26a2.53,2.53,0,0,1,1.07-.81A18.24,18.24,0,0,1,324,142c.45-.15,1.23-.53,1.23-.53s.68.62,1.05,0-.11-1.27.77-1.16a4.25,4.25,0,0,0,1.45,0l1.15.11,1.41,1.12,1.37-.68a2.32,2.32,0,0,1,.74.25c.18.15,0-1.75.86-1a2.56,2.56,0,0,1,.94,1.28s-.54.44-.47.92.46.33.05.74a3.15,3.15,0,0,1-.95.79c-.59.32.31.14-1,.49s-1.34,0-1.56.52-.51.45-.1,1a1.72,1.72,0,0,0,1.32.55s1.93-.6,2.06-1.32.91-.44,1.75-.68a4.82,4.82,0,0,1,2.58,0c.49.24-.25.4,1.61-.2s2-.67,2.79-.86,1.7-.25,1.47-.36a3.57,3.57,0,0,0-2.19-.41c-.89.13-2-.07-1.4-.21s1.77-.22,1.77-.22a14.15,14.15,0,0,1,2-.2c.28.07,1.95.28.75-.22s-1.34-.78-1.34-.78l-1.86-.86a3.75,3.75,0,0,0-1.24.12,3.47,3.47,0,0,1-1.49-.06s-.31-.7-.88-.53.05-.81.6-.67a2.75,2.75,0,0,0,1.47.28c.7-.11.15-.38,1.23-.2s1.3-.43,1.3-.43l-.34-.89-.63-.87s-1,.48-1.49.72a1.4,1.4,0,0,1-1.16-.13l-.89.2-1.69.52s-1.35.46-1.34,0a2.69,2.69,0,0,0-.19-1l-.92-.2a11.94,11.94,0,0,0-1.2.56,1.92,1.92,0,0,1-1.1,0s-.18-.36-1.26.14a7,7,0,0,1-1.34.55c-.28.06-.53-.94-1.92-.36s-1.87,0-2.24.75-.42,1.43-1.29,1-.88-1.17-1.79-.69-1.74.75-1.16,1.23a8.71,8.71,0,0,0,1.4.91c-.38.76-.14.75-.54,1s-.57,0-.73-.36,0-.29-.39-.87Z"/><path class="cls-30" d="M323.75,137.87c-.23.73-.41,1,.14,1s1.16-.08,1.35-.66,1-1.29.16-1.13A4.1,4.1,0,0,0,323.75,137.87Z"/><path class="cls-30" d="M314.68,140.7c.34.49.54.76.54.76a8.88,8.88,0,0,0,.86.3,1.61,1.61,0,0,0,1.35-.19c.29-.24-.15-.29.4-.77a13.7,13.7,0,0,1,1.68-1c.81-.51,1.77-1,2.15-1.27a1.25,1.25,0,0,0,.4-.84s0-.39-1.58.39-1.24.82-2.11,1.1-1.25-.48-1.47.18.44.69,0,1.17-.25.9-.86.42-.58-.56-.7-.81S314.68,140.7,314.68,140.7Z"/><path class="cls-30" d="M324,132.34c-1.62.74-2.48,1.18-2.48,1.18l-2.1,1s-.72.07-.71.51-.52.76-.52.76-1.72-.79-1.29-.13l.42.65s1,.35,1.08.54a5.12,5.12,0,0,1,.22.86l-.6.29-.25-.51,1.75.88.67-.32-.91.32-1.93.31s-.07.76.94.26.79-.14,1.91-1.2a7.67,7.67,0,0,1,2.07-1.68c.7-.35-.6.54,1.11-.57s2.1-1.28,1.81-1.75a7.33,7.33,0,0,1-.59-.85C324.33,132.43,324.54,132.07,324,132.34Z"/><path class="cls-30" d="M313.11,139.87a.55.55,0,0,1,.44-.22.48.48,0,0,1,.36.19c.14.22,0,.55-.24.71s-.45.23-.62.09S312.92,140.09,313.11,139.87Z"/><path class="cls-30" d="M312,141.79c.22,0,.42.31.46.37a1,1,0,0,1,.08.78c0,.14-.11.38-.32.45a.59.59,0,0,1-.66-.31c-.09-.19,0-.37.06-.67S311.78,141.82,312,141.79Z"/><path class="cls-30" d="M313.74,142.22a.75.75,0,0,1,1.06-.2c.13.18-.06.53-.1.6s-.21.39-.44.4A.67.67,0,0,1,313.74,142.22Z"/><path class="cls-30" d="M313.09,141.47c0,.11.19.16.22.17.32.08.74-.24.71-.47s-.15-.19-.25-.22C313.44,140.86,313,141.26,313.09,141.47Z"/><path class="cls-30" d="M310.18,140a2,2,0,0,0-.89.34c-.52.28-.78.42-.77.56s.5.35.76.38a1.76,1.76,0,0,0,1.24-.31c.17-.12.5-.35.46-.59S310.49,140,310.18,140Z"/><path class="cls-30" d="M311.82,139.65a.51.51,0,0,0-.16.72.48.48,0,0,0,.49.15.51.51,0,0,0,.32-.66A.49.49,0,0,0,311.82,139.65Z"/><path class="cls-30" d="M307.52,143.26c.19,0,.19.31.51.48s.38,0,.46.16,0,.48-.18.66a.85.85,0,0,1-1.18,0,.83.83,0,0,1-.1-.75C307.11,143.56,307.31,143.24,307.52,143.26Z"/><path class="cls-30" d="M302.92,145.69c0-.31.29-.49.6-.72a3.42,3.42,0,0,1,.84-.44,2.88,2.88,0,0,1,.93-.25,1.57,1.57,0,0,1,1.12.34s.34.33.26.54-.33.19-.69.22c-.73.07-1-.1-1.37.08a4.05,4.05,0,0,0-.46.32c-.66.47-.77.61-.93.56S302.89,146,302.92,145.69Z"/><path class="cls-30" d="M300,145.91c-.09-.21.41-.58.51-.66.3-.22.54-.4.78-.31s.43.4.35.56-.37,0-.75.23a1.39,1.39,0,0,0-.6.61s-.43,0-.44,0S300,146.08,300,145.91Z"/><path class="cls-30" d="M302.85,143.86c-.07.08-.28.33-.2.48s.52.19.82,0a.87.87,0,0,0,.41-.5c0-.09.09-.32,0-.42S303.14,143.51,302.85,143.86Z"/><path class="cls-30" d="M305.72,142.61c-.39,0-.77.38-.72.58s.39.24.63.22c.4,0,.8-.37.75-.57S306,142.58,305.72,142.61Z"/><path class="cls-30" d="M309.22,145a.79.79,0,0,1,1.14-.22.72.72,0,0,1,.14.64.78.78,0,0,1-.6.61A.81.81,0,0,1,309.22,145Z"/><path class="cls-30" d="M329.86,141.21a.88.88,0,0,1,.9.58,1,1,0,0,1-.32.88c-.41.37-1.14.42-1.38.12A1.21,1.21,0,0,1,329.86,141.21Z"/><path class="cls-30" d="M367,158.88c.46-.1.78.58,1.4.48.39-.06.57-.39.69-.31s.05.65-.29.86-.54,0-1.15,0-1.09.46-1.26.32S366.48,159,367,158.88Z"/><path class="cls-30" d="M368.51,205.31c-.16.31.13.88.54,1.1s.57,0,.84.23.12.62.46,1c.19.18.51.35.71.24s.2-.87.16-1.17a2.05,2.05,0,0,0-.46-1.23C370.1,204.77,368.74,204.85,368.51,205.31Z"/><path class="cls-30" d="M367,207.48a.72.72,0,0,1,1-.1.69.69,0,0,1-.65,1.18A.76.76,0,0,1,367,207.48Z"/><path class="cls-30" d="M369.94,209.26c.17-.07.37.09.72.37.53.42.9.71.87,1.13a1,1,0,0,1-.85.87c-.47,0-.74-.58-.83-.78C369.56,210.23,369.62,209.38,369.94,209.26Z"/><path class="cls-30" d="M372.17,207.39c-.35.2-.56.71-.41.93s.66,0,1.07.34c.21.18.18.33.38.41a.66.66,0,0,0,.76-.23c.16-.29-.07-.65-.16-.79C373.48,207.54,372.7,207.09,372.17,207.39Z"/><path class="cls-30" d="M374.38,210.23a.6.6,0,0,0,.14.75.53.53,0,1,0-.14-.75Z"/><path class="cls-30" d="M376.36,209.53c-.21.25,0,.77.16,1a1.22,1.22,0,0,0,.91.64c.07,0,.54,0,.73-.26s-.1-.79-.14-.85C377.62,209.44,376.63,209.22,376.36,209.53Z"/><path class="cls-30" d="M381.48,211.81c-.41.31-.67,1-.39,1.34a.89.89,0,0,0,.71.24,1.1,1.1,0,0,0,1-.85.9.9,0,0,0-.29-.87A1,1,0,0,0,381.48,211.81Z"/><path class="cls-30" d="M359.74,224.37c-.38-.47,1.05-2.43,2.45-3.75a14.57,14.57,0,0,1,4.6-2.89,22.14,22.14,0,0,1,4-1.25,19.52,19.52,0,0,1,3.85-.7,2.76,2.76,0,0,0,1-.14c.7-.24.83-.63,1.33-.64s.43.27,1,.41a3,3,0,0,0,1.72-.21c.8-.27,1-.59,1.32-.46a1,1,0,0,1,.51,1c-.08.7-.9,1.11-1.63,1.52-3.24,1.81-4.23,3.29-5,2.81-.57-.35-.42-1.4-.9-1.47s-.61.73-1.26.8-.71-.51-1.38-.6c-.39-.05-.55.1-1.88.82-1.48.81-1.85.93-2.27.94s-.39-.1-1.06-.12-1.84.05-1.91.38.46.45.4.63-1-.13-1.69.28c-.33.18-.26.31-1,1.31s-1.08,1.21-1.37,1.3C360.57,224.4,359.94,224.61,359.74,224.37Z"/><path class="cls-30" d="M382.67,214.85c.1-.61,1.16-.52,2.6-1.4,1-.63,1-1,2.24-1.71a4.44,4.44,0,0,1,1.65-.68c.71-.09.81.13,1.76.1s1.55-.34,1.81-.07a1,1,0,0,1,0,1c-.45.9-1.64.47-2.79,1.56-.32.32-.33.45-.8.88s-.87.58-1,.95.08.38.08,1a1.88,1.88,0,0,1-.12.88c-.36.57-1.34,0-2.56.63-.6.29-.63.55-1.13.62-.77.12-1.56-.35-1.53-.61s1.1-.13,1.65-.81.53-1.39.23-1.62-1,.48-1.62.18A.92.92,0,0,1,382.67,214.85Z"/><path class="cls-30" d="M331.33,127.8c-.83.6-1.48.76-2.62,1.63a1.92,1.92,0,0,0-.83,1.09c-.08.34,0,.44-.06.71-.24.66-1.08.68-1.08,1s1,.68,1.58.87a3.4,3.4,0,0,0,1.37.28c.93-.14,1-1,2.16-1.46a4.06,4.06,0,0,1,1.34-.18,15.23,15.23,0,0,1,2.91.21c2.93.38,3.25.44,3.71.17a2.45,2.45,0,0,1,1.15-.43c.09,0,.82,0,1,.29s-.55.78-.39,1.15.68.3,1,.31a1.4,1.4,0,0,0,1.05-.24c.29-.29.16-.65.39-.74s.32.07.95.56l.77.58a4.82,4.82,0,0,0,1.28.81c.53.18.65,0,1.32.18a4.84,4.84,0,0,1,1.12.47,4.26,4.26,0,0,0,2.85.38c0-.09-.73-.26-.71-.33a15.69,15.69,0,0,1,2.77.35c2.36.36,2.76.39,3.35.28.88-.17.8-.38,1.73-.51a11.15,11.15,0,0,0,2.31-.31,2.63,2.63,0,0,0,.77-.38c.29-.19.65-.44.67-.73s-.59-.75-1.12-1c-1.44-.77-2-.5-3.06-1.23-.6-.42-.52-.59-1-.81-.88-.39-1.54-.06-1.89-.51-.15-.19-.15-.45-.13-1,0-1.07.4-1.29.23-1.62s-1.17-.47-3.07-.55c-.73,0-1,0-1.26-.2-.59-.38-.43-.93-1.06-1.6-.38-.41-1.14-1-1.67-.76-.14.06-.2.15-1,1.45-.26.43-.36.59-.52.6s-.62-.46-.65-.91.37-.85.25-1-.81.11-2.23.48c-1,.27-1.37.29-1.59.09s-.08-.58-.38-.9-.64-.29-1.37-.29a2.89,2.89,0,0,0-1.92.39c-.39.31-.32.54-.64.66s-.81-.22-1.56-.4a3.78,3.78,0,0,0-1.57,0,6.31,6.31,0,0,0-3,1.38C331.94,126.94,332.31,127.1,331.33,127.8Z"/><path class="cls-30" d="M359.15,154.75c1.77,2.54-1.13,6.11-.11,9a7.31,7.31,0,0,1,1.15-3.83,4.06,4.06,0,0,1,1.91-1.69,2.17,2.17,0,0,1,2.38.49c.28.32.43.74.74,1,.8.76,2.11.3,3.14-.12s2.5-.61,3,.39c.4.8-.19,1.74-.85,2.34s-1.48,1.17-1.67,2a5.2,5.2,0,0,0,.33,2.15,1.77,1.77,0,0,1-.56,2,5,5,0,0,0-2.33-4.71l-.57,5.13a1.89,1.89,0,0,1-.32,1c-.33.4-.9.45-1.38.64a1.93,1.93,0,0,0-1,2.8c1.06,1.31,3.73.36,4.48,1.86a2,2,0,0,1-.61,2.21c-.57.57-1.32,1-1.9,1.52a4.16,4.16,0,0,0-1.05,4.13,3.6,3.6,0,0,1,.37,1.9c-.44,1.66-3.55,1.1-4.06,2.74.43.73,1.5.6,2.32.82,1.51.42,2.21,2.31,1.87,3.85a9.17,9.17,0,0,1-2.48,4,9.6,9.6,0,0,0-2.5,3.95c-1.08,4.53,4.56,8.45,3.94,13.06-.95.54-2.13-.23-2.76-1.13s-1.07-2-2-2.54c-2-1.1-4.95.81-6.46-.85-.55-.6-.86-1.64-1.68-1.65a1.49,1.49,0,0,0-.78.29,4.56,4.56,0,0,0-1.95,3.16,10.17,10.17,0,0,1-.21,1.92c-.46,1.44-2.06,2.07-3.37,2.82a11.08,11.08,0,0,0-5.31,10.8c.16,1.23.49,2.63-.3,3.58a2.67,2.67,0,0,1-2,.83c-2.58.12-4.83-2-5.66-4.48s-.55-5.11-.19-7.67c.46-3.3,1.23-6.92,3.9-8.93.92-.7,2-1.15,2.92-1.9,3.16-2.63,2.78-7.94,5.83-10.7,1.58-1.43,3.91-2,5.15-3.71a8.4,8.4,0,0,0,1.16-4.28c.21-2.49.42-5.08,1.63-7.27s3.34-3.81,4.41-6.09c1.46-3.1.7-6.89,2.14-10a6.77,6.77,0,0,0,.8-2,7.85,7.85,0,0,0-.63-2.78A5.78,5.78,0,0,1,359,156"/><path class="cls-30" d="M358.68,165.73a7.79,7.79,0,0,1,0-7.56,11.37,11.37,0,0,1,5.94-5,1.92,1.92,0,0,0,1-.67c.44-.75-.39-1.64-.38-2.5,0-1.09,1.31-1.91,1.13-3s-1.89-1.32-3-.82-2.17,1.35-3.33,1.08c-.84-.19-1.44-.91-2.19-1.34-2.5-1.42-6,.73-8.43-.85-.6-.39-1.17-1-1.87-.91-.93.14-1.2,1.35-1.93,1.93-1,.8-2.46.19-3.71-.13a7.46,7.46,0,0,0-8,3.23l1.77,3.79c-1.26.11-1.1,2.1-.25,3s2.12,1.88,1.86,3.11c-.31,1.49-2.42,1.61-3.84,1.07s-3-1.39-4.33-.65-1.58,2.61-2.9,3.27c-1.05.52-2.3,0-3.34-.48-1.72-.86-3.63-2.46-3.08-4.31s3.43-2.39,4.07-4.31c.51-1.54-.69-3.3-.07-4.79.32-.78,1.11-1.36,1.2-2.2.11-1.12-1.21-2-2.3-1.75a3.9,3.9,0,0,0-2.45,2.14,1.63,1.63,0,0,1-.53.68c-.52.3-1.14-.09-1.71-.25-1.5-.4-2.91.89-3.72,2.21-.31.5-.62,1.07-1.18,1.27a3.94,3.94,0,0,1-1.67-.06c-2.83-.3-4.76,2.91-5.16,5.74a2.1,2.1,0,0,1-.41,1.18c-.67.7-1.91,0-2.28-.88s-.31-1.94-.76-2.8a2.74,2.74,0,0,0-4.37-.39c-.56.73-.84,1.82-1.73,2s-1.57-.52-2.29-1a4.31,4.31,0,0,0-5.77,1.3c-.4.65-.74,1.51-1.5,1.63-1.89.32-1.55-3.85-3.45-4a1.78,1.78,0,0,0-1.3.61c-3,3,.22,9-2.89,11.8l16,12.69a5.26,5.26,0,0,1,1.72,1.89,5.56,5.56,0,0,1,.16,2.87c-.47,4.22,0,9.36,3.72,11.41a7.31,7.31,0,0,0-1.93,8.64c2,4.08,7.26,5.27,11.81,5.26a3.25,3.25,0,0,0,2.48-.75c.95-1,.29-2.83,1.06-4a3.87,3.87,0,0,1,2.21-1.3l17.58-5.44c2.1-.65,4.36-1.31,6.46-.67,1.5.45,2.74,1.51,4.16,2.17s3.32.81,4.38-.35c1.44,1.11-.29,4,1.22,5a3.49,3.49,0,0,0,1.48.38A5,5,0,0,1,356,207c-2.66.51-5.44-.22-8.07.39a11,11,0,0,0-6.79,5.56,32.68,32.68,0,0,0-2.94,8.5Z"/></g><path class="cls-31" d="M279.78,250.1a87.15,87.15,0,0,1,101.6-122.28,87.15,87.15,0,1,0-56.44,164.59A86.86,86.86,0,0,1,279.78,250.1Z"/><path class="cls-32" d="M386.56,286.72a87.2,87.2,0,0,1-123.43-59.53c22.64,15.55,55.55,28.84,93.55,15.56,46.33-16.19,59.45-57.18,62.91-84.43a87.25,87.25,0,0,1-33,128.4Z"/><path class="cls-32" d="M426.55,170.13a87.15,87.15,0,0,1-110.8,119.16c101.11-14.82,104.82-130.23,78.46-154.92A86.79,86.79,0,0,1,426.55,170.13Z"/><path class="cls-20" d="M351.72,323.28s2.92-55.29-26-67.8-57.9-3.89-80.58-31.25c0,0,.32,89.46,89.65,78.67,0,0,13.95,9.25,12,70.61H353Z"/><path class="cls-20" d="M356.46,373.51s-4.92-45.63,7-62.18S432,304.68,446,267s28.47-44.75,28.47-44.75-65.58-14.84-94.53,22.88S350.82,335,351,373.51Z"/><path class="cls-11" d="M361.41,299.46A120.55,120.55,0,0,0,383,281.86c6.51-6.62,12.43-13.8,18.6-20.87,3.12-3.51,6.29-7,9.71-10.27a77,77,0,0,1,11.08-8.94,51.3,51.3,0,0,1,12.84-6.16,49.44,49.44,0,0,1,13.93-2.22A60.2,60.2,0,0,0,435.71,237a55.83,55.83,0,0,0-12,6.7,86.68,86.68,0,0,0-10.42,9c-3.27,3.26-6.38,6.7-9.44,10.22s-6.15,7-9.31,10.5-6.43,6.88-9.92,10.06A89.29,89.29,0,0,1,361.41,299.46Z"/><path class="cls-33" d="M339.71,292.64a54,54,0,0,0-10.63-7.86,73.68,73.68,0,0,0-12-5.38c-4.14-1.46-8.37-2.73-12.64-3.94s-8.55-2.49-12.8-3.93a96.92,96.92,0,0,1-12.46-5.24,65.06,65.06,0,0,1-11.36-7.42,60.37,60.37,0,0,1-9.46-9.65,72.5,72.5,0,0,1-7.16-11.33,103.22,103.22,0,0,0,8.28,10.38,69.29,69.29,0,0,0,9.78,8.75,84,84,0,0,0,23.36,11.68c8.3,2.91,17,5.06,25.3,8.52a64.25,64.25,0,0,1,11.93,6.32A44.9,44.9,0,0,1,339.71,292.64Z"/><path class="cls-17" d="M405.28,391.7l-15.26.18c-13.26.13-33.17.3-51.45.29H301.22c.37-3.87,3.53-10.64,7.35-11.35a7.53,7.53,0,0,0,2.32-.58c1.56-.88,1.8-3,2.57-4.59a6.67,6.67,0,0,1,6.18-3.68,4.86,4.86,0,0,0,1.66,0c1.39-.4,1.75-2.14,2.43-3.41a7.34,7.34,0,0,1,5.54-3.42,26.68,26.68,0,0,1,6.73.28,28.62,28.62,0,0,0,3.07.22,11.93,11.93,0,0,0,3.66-.49,32.59,32.59,0,0,0,4.46-2.14,21.11,21.11,0,0,1,18.8.2,5.28,5.28,0,0,0,2.2.8,6.21,6.21,0,0,0,2.13-.55,8.72,8.72,0,0,1,8.13,1.47c1.17,1,2.13,2.26,3.53,2.83a11.19,11.19,0,0,0,3.11.52,14.52,14.52,0,0,1,11.44,8.39c.75,1.71,1.18,3.59,2.31,5.08a33.43,33.43,0,0,0,3.22,3.07C403.9,386.62,405.28,391.7,405.28,391.7Z"/><path class="cls-34" d="M405.28,391.24q-11.7.15-23.4.25-17.25.17-34.5.21H305.69c-1.4,0-2.87-.12-4.28,0h-.19l.48.42a16.43,16.43,0,0,1,1.54-5.14,13.7,13.7,0,0,1,3.18-4.55,5,5,0,0,1,2-1.13,7.8,7.8,0,0,0,3-.87c1.64-1.19,1.74-3.37,2.68-5a6.14,6.14,0,0,1,5.42-3,3.71,3.71,0,0,0,2.87-.59,6.62,6.62,0,0,0,1.42-2.38,6.56,6.56,0,0,1,4.91-3.79c2.76-.58,5.59.06,8.34.3a14,14,0,0,0,7.53-1.12c1.17-.57,2.29-1.26,3.48-1.78a19.83,19.83,0,0,1,3.33-1.14,20.67,20.67,0,0,1,14.17,1.58,5,5,0,0,0,3.34.86,23.56,23.56,0,0,1,3.52-.89,8.41,8.41,0,0,1,6.36,2.38,11.82,11.82,0,0,0,2.6,2.13,9.77,9.77,0,0,0,3.58.72,13.75,13.75,0,0,1,6,2.19,14.13,14.13,0,0,1,4.39,4.55c1.21,2,1.57,4.45,2.95,6.38,1.22,1.72,3.21,2.7,4.3,4.53a21.45,21.45,0,0,1,1.94,4.61c.09.3.19.59.27.89.16.58,1.09.23.94-.32-.77-2.8-1.83-5.8-4.05-7.76A14.33,14.33,0,0,1,399,381a17.32,17.32,0,0,1-1.5-3.38,15.43,15.43,0,0,0-3.48-5.56,15.08,15.08,0,0,0-5.37-3.46,13.86,13.86,0,0,0-3-.78c-1.31-.19-2.7-.11-3.88-.79a19.48,19.48,0,0,1-2.75-2.39,8.84,8.84,0,0,0-3-1.66,9.57,9.57,0,0,0-3.32-.46,12.54,12.54,0,0,0-3.37.79c-1.44.47-2.51-.36-3.77-.94a20.9,20.9,0,0,0-3.42-1.25,21.73,21.73,0,0,0-7.32-.67,20.86,20.86,0,0,0-7,1.77c-1.15.51-2.24,1.16-3.37,1.72a10.86,10.86,0,0,1-4.12,1.15c-5,.36-10.84-2.23-15.26,1.29a6.53,6.53,0,0,0-1.88,2.38c-.39.83-.69,2-1.48,2.52a2.86,2.86,0,0,1-1.85.21,6.79,6.79,0,0,0-1.56.1,7.26,7.26,0,0,0-2.89,1.22,7.08,7.08,0,0,0-2.06,2.23,21.53,21.53,0,0,0-1.16,2.87,3.19,3.19,0,0,1-2.06,2.16,13.85,13.85,0,0,0-2.78.72,9.92,9.92,0,0,0-3.73,3.74,19.83,19.83,0,0,0-2.33,5.29,13.71,13.71,0,0,0-.46,2.38c0,.27.26.41.49.41H343q17.58,0,35.14-.18,13.34-.1,26.67-.28h.52A.46.46,0,1,0,405.28,391.24Z"/><path class="cls-35" d="M405.28,391.7l-15.26.18a51.21,51.21,0,0,0-2.89-6.57c-2.67-4.33-6-4.16-13.84-4.16s-15.83-.34-22.35-8.34a18.91,18.91,0,0,0-11.87-7.2,11.93,11.93,0,0,0,3.66-.49,32.59,32.59,0,0,0,4.46-2.14,21.11,21.11,0,0,1,18.8.2,5.28,5.28,0,0,0,2.2.8,6.21,6.21,0,0,0,2.13-.55,8.72,8.72,0,0,1,8.13,1.47c1.17,1,2.13,2.26,3.53,2.83a11.19,11.19,0,0,0,3.11.52,14.52,14.52,0,0,1,11.44,8.39c.75,1.71,1.18,3.59,2.31,5.08a33.43,33.43,0,0,0,3.22,3.07C403.9,386.62,405.28,391.7,405.28,391.7Z"/><ellipse class="cls-35" cx="337.77" cy="378.54" rx="2.81" ry="1.19"/><ellipse class="cls-35" cx="350.2" cy="384.92" rx="2.74" ry="1.19"/><ellipse class="cls-35" cx="322.89" cy="383.98" rx="6.31" ry="2.75"/><ellipse class="cls-35" cx="375.71" cy="387.61" rx="2.75" ry="1.5"/><path class="cls-17" d="M283.71,392.17s-.73-4.33-2.08-5.27-1.88-2.19-3.24-3.29-2.82-.16-4.07-1.31-1.43-1.35-3-1.35-2.68,3.35-3.83,2.66a3.86,3.86,0,0,0-3.86.47c-.7.44-1.52,0-2.26.35-.49.2-.58,1.83-1.3,1.91a2,2,0,0,0-1.66,2.09s-1.28.72-1.59,1a2.35,2.35,0,0,0-.63,2.78Z"/><path class="cls-11" d="M269.63,369.39s-4.25-3.54-1-10.54C268.66,358.85,275.17,363.11,269.63,369.39Z"/><path class="cls-11" d="M271.35,375.4a3.92,3.92,0,0,1,2.15-4.33c2.87-1.62,2.87-2.82,2.87-2.82S277.25,377.12,271.35,375.4Z"/><path class="cls-12" d="M274.18,372.57a.42.42,0,0,0-.55.21c-.71,1.65-2.66,2.39-3.58,2.66v-13a.42.42,0,0,0-.84,0v22.66a.42.42,0,0,0,.84,0v-8.75c.91-.23,3.42-1.05,4.35-3.19A.41.41,0,0,0,274.18,372.57Z"/><path class="cls-17" d="M322.9,411.92s.73-4.34,2.08-5.28,1.88-2.18,3.24-3.28,2.82-.16,4.07-1.31,1.43-1.36,3-1.36,2.68,3.35,3.83,2.67a3.86,3.86,0,0,1,3.86.46c.7.45,1.52,0,2.26.35.49.21.58,1.83,1.3,1.92a2,2,0,0,1,1.66,2.08s1.28.73,1.59,1a2.36,2.36,0,0,1,.63,2.79Z"/><path class="cls-11" d="M337,389.13s4.25-3.54,1-10.53C338,378.6,331.44,382.85,337,389.13Z"/><path class="cls-11" d="M335.26,395.15a3.92,3.92,0,0,0-2.15-4.33c-2.87-1.62-2.87-2.82-2.87-2.82S329.36,396.87,335.26,395.15Z"/><path class="cls-12" d="M332.43,392.31a.43.43,0,0,1,.55.22c.71,1.64,2.66,2.39,3.58,2.66v-13a.42.42,0,0,1,.42-.42.41.41,0,0,1,.41.42v22.66a.41.41,0,0,1-.41.42.42.42,0,0,1-.42-.42v-8.75c-.91-.24-3.42-1.06-4.35-3.2A.41.41,0,0,1,332.43,392.31Z"/><path class="cls-17" d="M391.33,404.12s-.73-4.33-2.08-5.27-1.88-2.19-3.24-3.29-2.82-.16-4.07-1.31-1.44-1.36-3-1.36-2.68,3.36-3.83,2.67a3.86,3.86,0,0,0-3.86.47c-.7.44-1.52,0-2.27.35-.48.2-.57,1.82-1.29,1.91a2,2,0,0,0-1.66,2.09s-1.28.72-1.59.95a2.36,2.36,0,0,0-.63,2.79Z"/><path class="cls-11" d="M377.25,381.33s-4.25-3.53-1-10.53C376.27,370.8,382.79,375.06,377.25,381.33Z"/><path class="cls-11" d="M379,387.35a3.92,3.92,0,0,1,2.14-4.33C384,381.4,384,380.2,384,380.2S384.87,389.07,379,387.35Z"/><path class="cls-12" d="M381.8,384.51a.43.43,0,0,0-.55.22c-.71,1.64-2.66,2.39-3.58,2.66v-13a.42.42,0,0,0-.84,0V397a.42.42,0,0,0,.84,0v-8.75c.91-.23,3.42-1.06,4.35-3.2A.43.43,0,0,0,381.8,384.51Z"/><path class="cls-17" d="M308.85,397.89s-.73-4.33-2.08-5.27-1.88-2.19-3.24-3.29-2.82-.16-4.07-1.31-1.43-1.36-3-1.36-2.68,3.36-3.83,2.67a3.86,3.86,0,0,0-3.86.47c-.7.44-1.52,0-2.26.35-.49.2-.58,1.83-1.3,1.91a2,2,0,0,0-1.66,2.09s-1.28.72-1.59,1a2.36,2.36,0,0,0-.63,2.79Z"/><path class="cls-11" d="M294.77,375.1s-4.25-3.53-1-10.53C293.8,364.57,300.31,368.83,294.77,375.1Z"/><path class="cls-11" d="M296.49,381.12a3.92,3.92,0,0,1,2.15-4.33c2.87-1.62,2.87-2.82,2.87-2.82S302.39,382.84,296.49,381.12Z"/><path class="cls-12" d="M299.32,378.28a.44.44,0,0,0-.55.22c-.71,1.64-2.66,2.39-3.58,2.66v-13a.42.42,0,1,0-.84,0v22.66a.42.42,0,0,0,.84,0V382c.91-.23,3.42-1.06,4.35-3.2A.42.42,0,0,0,299.32,378.28Z"/><path class="cls-17" d="M397.23,391.82s.73-4.33,2.09-5.27,1.88-2.18,3.24-3.29,2.82-.16,4.07-1.31,1.43-1.35,3-1.35,2.68,3.35,3.83,2.66a3.86,3.86,0,0,1,3.86.47c.69.44,1.52,0,2.26.35.49.2.57,1.83,1.29,1.92a2,2,0,0,1,1.67,2.08s1.28.72,1.58,1a2.33,2.33,0,0,1,.63,2.78Z"/><path class="cls-11" d="M411.31,369s4.26-3.54,1-10.54C412.29,358.5,405.78,362.76,411.31,369Z"/><path class="cls-11" d="M409.59,375.05a3.92,3.92,0,0,0-2.14-4.33c-2.87-1.62-2.87-2.82-2.87-2.82S403.69,376.77,409.59,375.05Z"/><path class="cls-12" d="M406.76,372.22a.42.42,0,0,1,.55.21c.72,1.65,2.67,2.4,3.59,2.66v-13a.42.42,0,0,1,.83,0v22.66a.42.42,0,1,1-.83,0V376c-.91-.23-3.42-1-4.35-3.19A.41.41,0,0,1,406.76,372.22Z"/><path class="cls-17" d="M449.26,405.18s-.73-4.33-2.09-5.27-1.88-2.18-3.23-3.28-2.82-.17-4.08-1.31-1.43-1.36-3-1.36-2.67,3.35-3.82,2.67a3.85,3.85,0,0,0-3.87.46c-.69.44-1.51,0-2.26.35-.48.2-.57,1.83-1.29,1.92a2,2,0,0,0-1.67,2.08s-1.27.72-1.58,1a2.33,2.33,0,0,0-.63,2.78Z"/><path class="cls-11" d="M435.18,382.4s-4.25-3.54-1-10.53C434.2,371.87,440.71,376.12,435.18,382.4Z"/><path class="cls-11" d="M436.9,388.41a3.92,3.92,0,0,1,2.14-4.33c2.87-1.62,2.87-2.82,2.87-2.82S442.8,390.13,436.9,388.41Z"/><path class="cls-12" d="M439.73,385.58a.41.41,0,0,0-.55.22c-.71,1.64-2.67,2.39-3.58,2.66v-13a.42.42,0,0,0-.84,0v22.65a.42.42,0,0,0,.84,0v-8.75c.9-.23,3.42-1.05,4.35-3.19A.42.42,0,0,0,439.73,385.58Z"/></g></g></svg>