<svg xmlns="http://www.w3.org/2000/svg" xmlns:xlink="http://www.w3.org/1999/xlink" viewBox="0 0 500 500"><defs><style>.cls-1{fill:#6ad8d5;}.cls-13,.cls-14,.cls-15,.cls-16,.cls-2,.cls-25,.cls-28,.cls-29,.cls-31,.cls-32,.cls-34,.cls-5,.cls-6,.cls-7,.cls-8,.cls-9{fill:none;}.cls-2,.cls-7{stroke:#187a7a;}.cls-13,.cls-15,.cls-16,.cls-2,.cls-25,.cls-28,.cls-29,.cls-31,.cls-32,.cls-34,.cls-5,.cls-6,.cls-7,.cls-8,.cls-9{stroke-linecap:round;}.cls-15,.cls-16,.cls-2,.cls-25,.cls-28,.cls-31,.cls-6,.cls-7,.cls-8{stroke-linejoin:round;}.cls-2{opacity:0.7;}.cls-21,.cls-3,.cls-37,.cls-4{fill:#fff;}.cls-3{opacity:0.42;}.cls-4,.cls-5{opacity:0.46;}.cls-5,.cls-8{stroke:#fff;}.cls-13,.cls-14,.cls-29,.cls-32,.cls-34,.cls-5,.cls-9{stroke-miterlimit:10;}.cls-14,.cls-29,.cls-34,.cls-6{stroke:#ea526f;}.cls-9{stroke:#5b061b;}.cls-35,.cls-36,.cls-9{opacity:0.5;}.cls-10,.cls-12{fill:#f56e65;}.cls-10{opacity:0.63;}.cls-11{fill:#032624;}.cls-13,.cls-25{stroke:#013e53;}.cls-15,.cls-16{stroke:#fffefe;}.cls-15{stroke-width:0.88px;}.cls-17,.cls-35{fill:#ea526f;}.cls-18{fill:#25ced1;}.cls-19{fill:url(#linear-gradient);}.cls-20{fill:#187a7a;}.cls-22{fill:#013e53;}.cls-23{fill:#bbefed;}.cls-24{fill:#1faaad;}.cls-26{fill:url(#linear-gradient-2);}.cls-27{fill:#fffefe;}.cls-28{stroke:#0c3a39;}.cls-29{stroke-width:5.54px;}.cls-30{fill:#039eb0;}.cls-31,.cls-32{stroke:#039eb0;}.cls-33{fill:url(#linear-gradient-3);}.cls-34{opacity:0.48;}.cls-36{fill:#57726a;}.cls-37{opacity:0.47;}</style><linearGradient id="linear-gradient" x1="-45.57" y1="127.02" x2="-28.49" y2="127.02" gradientTransform="matrix(-1, 0, 0, 1, 212.32, 0)" gradientUnits="userSpaceOnUse"><stop offset="0" stop-color="#fff"/><stop offset="0.15" stop-color="#fff" stop-opacity="0.76"/><stop offset="0.32" stop-color="#fff" stop-opacity="0.53"/><stop offset="0.49" stop-color="#fff" stop-opacity="0.34"/><stop offset="0.64" stop-color="#fff" stop-opacity="0.19"/><stop offset="0.78" stop-color="#fff" stop-opacity="0.09"/><stop offset="0.91" stop-color="#fff" stop-opacity="0.02"/><stop offset="1" stop-color="#fff" stop-opacity="0"/></linearGradient><linearGradient id="linear-gradient-2" x1="39.97" y1="141.21" x2="87.06" y2="141.21" xlink:href="#linear-gradient"/><linearGradient id="linear-gradient-3" x1="287.61" y1="216.41" x2="417.47" y2="216.41" gradientUnits="userSpaceOnUse"><stop offset="0" stop-color="#fff"/><stop offset="0.22" stop-color="#fff" stop-opacity="0.76"/><stop offset="0.6" stop-color="#fff" stop-opacity="0.36"/><stop offset="0.87" stop-color="#fff" stop-opacity="0.1"/><stop offset="1" stop-color="#fff" stop-opacity="0"/></linearGradient></defs><g id="BACKGROUND"><rect class="cls-1" width="500" height="500"/></g><g id="OBJECTS"><line class="cls-2" x1="119.46" y1="91.67" x2="160.32" y2="91.67"/><polyline class="cls-2" points="372.83 168.95 410.13 168.95 410.13 153.64 433.57 153.64"/><polyline class="cls-2" points="129.53 210.8 107.94 210.8 107.94 202.43 81.67 202.43"/><polyline class="cls-2" points="153.9 233 137.24 233 137.24 241.07"/><line class="cls-2" x1="98.5" y1="334.92" x2="129.53" y2="334.92"/><polyline class="cls-2" points="390.32 336.23 390.32 351.99 419.25 351.99 419.25 369.35"/><polyline class="cls-2" points="78.44 307.69 88.25 307.69 88.25 314 98.5 314"/><line class="cls-2" x1="313.42" y1="81.5" x2="338.58" y2="81.5"/><line class="cls-2" x1="237.89" y1="65.67" x2="248.16" y2="65.67"/><rect class="cls-3" x="340.99" y="280.63" width="74.68" height="30.44" rx="3"/><rect class="cls-3" x="78.44" y="249.57" width="102.2" height="47.23" rx="3"/><path class="cls-4" d="M173.33,258.33H85.74a2.08,2.08,0,0,1-2.08-2.08h0a2.08,2.08,0,0,1,2.08-2.08h87.59a2.08,2.08,0,0,1,2.08,2.08h0A2.08,2.08,0,0,1,173.33,258.33Z"/><path class="cls-4" d="M173.33,266.71H85.74a2.09,2.09,0,0,1-2.08-2.08h0a2.09,2.09,0,0,1,2.08-2.09h87.59a2.09,2.09,0,0,1,2.08,2.09h0A2.09,2.09,0,0,1,173.33,266.71Z"/><rect class="cls-4" x="83.66" y="270.92" width="91.75" height="4.17" rx="2.08"/><path class="cls-4" d="M173.33,283.46H85.74a2.08,2.08,0,0,1-2.08-2.08h0a2.08,2.08,0,0,1,2.08-2.08h87.59a2.08,2.08,0,0,1,2.08,2.08h0A2.08,2.08,0,0,1,173.33,283.46Z"/><path class="cls-4" d="M173.33,291.84H85.74a2.09,2.09,0,0,1-2.08-2.08h0a2.09,2.09,0,0,1,2.08-2.09h87.59a2.09,2.09,0,0,1,2.08,2.09h0A2.09,2.09,0,0,1,173.33,291.84Z"/><rect class="cls-3" x="177.18" y="94.87" width="66.69" height="72.14" rx="3"/><rect class="cls-4" x="180.63" y="99.25" width="59.12" height="24.75" rx="2.88"/><line class="cls-5" x1="184.49" y1="103.64" x2="236.56" y2="103.64"/><line class="cls-5" x1="184.49" y1="106.97" x2="236.56" y2="106.97"/><line class="cls-5" x1="184.49" y1="110.31" x2="236.56" y2="110.31"/><line class="cls-5" x1="184.49" y1="113.65" x2="236.56" y2="113.65"/><line class="cls-5" x1="184.49" y1="116.98" x2="236.56" y2="116.98"/><line class="cls-5" x1="184.49" y1="120.32" x2="236.56" y2="120.32"/><line class="cls-6" x1="345.5" y1="295.86" x2="409" y2="295.86"/><path class="cls-7" d="M345.5,292.05c3.53,0,3.53,7.62,7.05,7.62s3.53-7.62,7.05-7.62,3.53,7.62,7.06,7.62,3.52-7.62,7-7.62,3.53,7.62,7.06,7.62,3.52-7.62,7.05-7.62,3.53,7.62,7.06,7.62,3.53-7.62,7.06-7.62,3.53,7.62,7.06,7.62"/><rect class="cls-3" x="305.33" y="188.08" width="70.82" height="35.1" rx="3"/><rect class="cls-8" x="352.74" y="195.38" width="14" height="14" transform="translate(-37.74 313.65) rotate(-45)"/><rect class="cls-9" x="342.3" y="195.38" width="14" height="14" transform="translate(-40.8 306.26) rotate(-45)"/><polyline class="cls-8" points="307.67 216.41 369.64 216.41 369.64 209.22"/><line class="cls-8" x1="317.13" y1="212.28" x2="337.38" y2="212.28"/><line class="cls-8" x1="319.06" y1="209.45" x2="335.44" y2="209.45"/><line class="cls-8" x1="320.13" y1="206.62" x2="334.38" y2="206.62"/><line class="cls-8" x1="321.26" y1="203.79" x2="333.24" y2="203.79"/><line class="cls-8" x1="322.95" y1="200.96" x2="331.55" y2="200.96"/><line class="cls-8" x1="324.34" y1="198.13" x2="330.16" y2="198.13"/><rect class="cls-3" x="414.47" y="183.26" width="29.98" height="63.74" rx="2.91"/><rect class="cls-10" x="417.47" y="191.6" width="22.53" height="38.23"/><path class="cls-11" d="M435.89,204.6a4.78,4.78,0,0,0-.95-4.5,10,10,0,0,0-4.31-2.79,13,13,0,0,0-5.83-1,6.85,6.85,0,0,0-5.05,2.81,2.08,2.08,0,0,0-.18,2.43,1.68,1.68,0,0,0,1.95.25,4.82,4.82,0,0,0,1.56-1.39,1.53,1.53,0,1,0,2.34,2,1.24,1.24,0,0,0,.95,1.23,2.43,2.43,0,0,0,2.13-1.09,1,1,0,0,0,.14,1.46,1.07,1.07,0,0,0,1.28-.08,2.57,2.57,0,0,0-.4,2.15,1.32,1.32,0,0,0-2.53.75,1.45,1.45,0,1,0-2.8.68,2.26,2.26,0,0,0-3.59,0,3.26,3.26,0,0,0,.39,3.91,5.86,5.86,0,0,0,3.76,1.74,10.11,10.11,0,0,0,6.7-1.56c.05,1,.16,2,.26,3l0,.28a7.38,7.38,0,0,0-2.3-.56,4.36,4.36,0,0,0-3.31,1.08,3,3,0,0,0-.73,3.28c.16,0,.29,0,.45,0l.66-1.32a1.5,1.5,0,0,0,.57,1.59l.45-1.47a2.59,2.59,0,0,0,.85,1.74,8.53,8.53,0,0,0,.62-2.86,19.93,19.93,0,0,1,3,.56c0,.31.07.61.11.92a4.39,4.39,0,0,0-3.19,1.08,3,3,0,0,0-.72,3.29c.16,0,.29,0,.45,0l.66-1.32a1.5,1.5,0,0,0,.57,1.59l.45-1.47a2.55,2.55,0,0,0,.85,1.74,8.53,8.53,0,0,0,.62-2.86l.6.09a39.46,39.46,0,0,0,2.48,9.78H440V208.92A19.6,19.6,0,0,0,435.89,204.6Zm-3.11-2.22a1,1,0,1,1,1-1A1,1,0,0,1,432.78,202.38Z"/><path class="cls-12" d="M423.75,235.17h-5.2a1.09,1.09,0,0,1-1.08-1.09h0a1.09,1.09,0,0,1,1.08-1.08h5.2a1.08,1.08,0,0,1,1.08,1.08h0A1.08,1.08,0,0,1,423.75,235.17Z"/><path class="cls-12" d="M438,235.17h-5.2a1.09,1.09,0,0,1-1.08-1.09h0a1.09,1.09,0,0,1,1.08-1.08H438a1.08,1.08,0,0,1,1.08,1.08h0A1.08,1.08,0,0,1,438,235.17Z"/><rect class="cls-12" x="417.47" y="237.01" width="21.64" height="2.17" rx="1.08"/><rect class="cls-12" x="417.47" y="241.08" width="21.64" height="2.17" rx="1.08"/><rect class="cls-3" x="56.3" y="109.96" width="73.24" height="62.27" rx="3"/><path class="cls-13" d="M64.5,162.87c.33-.2,13.83-15.8,13.83-15.8H85.5l6.67-7.74h8.77l20.56-21.25"/><polyline class="cls-14" points="68.17 151.37 76.17 142.73 95.33 142.73 95.33 132.27 118.67 132.27"/><line class="cls-15" x1="62.63" y1="119.07" x2="65.44" y2="119.07"/><line class="cls-15" x1="62.63" y1="124.45" x2="66.5" y2="124.45"/><line class="cls-15" x1="62.63" y1="129.83" x2="65.44" y2="129.83"/><line class="cls-15" x1="62.63" y1="135.22" x2="66.5" y2="135.22"/><line class="cls-15" x1="62.63" y1="140.6" x2="65.44" y2="140.6"/><line class="cls-15" x1="62.63" y1="145.98" x2="66.5" y2="145.98"/><line class="cls-15" x1="62.63" y1="151.37" x2="65.44" y2="151.37"/><line class="cls-15" x1="62.63" y1="156.75" x2="66.5" y2="156.75"/><polyline class="cls-16" points="62.5 115.75 62.5 165.14 114 165.14"/><polyline class="cls-14" points="117.6 134.12 119.73 132.27 117.6 130.41"/><polyline class="cls-13" points="116.98 118.94 121.94 117.63 121.5 122.94"/><rect class="cls-3" x="302.22" y="91.67" width="100.99" height="56.28" rx="3"/><rect class="cls-4" x="305.32" y="94.87" width="50.18" height="24.94" rx="1.94"/><path class="cls-4" d="M396.56,99.25H360.19A2.19,2.19,0,0,1,358,97.06h0a2.19,2.19,0,0,1,2.19-2.19h36.37a2.19,2.19,0,0,1,2.19,2.19h0A2.19,2.19,0,0,1,396.56,99.25Z"/><path class="cls-4" d="M396.56,106.71H360.19a2.19,2.19,0,0,1-2.19-2.19h0a2.19,2.19,0,0,1,2.19-2.19h36.37a2.19,2.19,0,0,1,2.19,2.19h0A2.19,2.19,0,0,1,396.56,106.71Z"/><path class="cls-4" d="M396.56,114.17H360.19A2.19,2.19,0,0,1,358,112h0a2.19,2.19,0,0,1,2.19-2.19h36.37a2.19,2.19,0,0,1,2.19,2.19h0A2.19,2.19,0,0,1,396.56,114.17Z"/><path class="cls-4" d="M396.56,121.63H360.19a2.19,2.19,0,0,1-2.19-2.19h0a2.19,2.19,0,0,1,2.19-2.19h36.37a2.19,2.19,0,0,1,2.19,2.19h0A2.19,2.19,0,0,1,396.56,121.63Z"/><path class="cls-4" d="M396.56,129.09H360.19A2.2,2.2,0,0,1,358,126.9h0a2.19,2.19,0,0,1,2.19-2.19h36.37a2.19,2.19,0,0,1,2.19,2.19h0A2.2,2.2,0,0,1,396.56,129.09Z"/><path class="cls-4" d="M396.56,136.54H360.19a2.19,2.19,0,0,1-2.19-2.19h0a2.19,2.19,0,0,1,2.19-2.19h36.37a2.19,2.19,0,0,1,2.19,2.19h0A2.19,2.19,0,0,1,396.56,136.54Z"/><rect class="cls-4" x="358" y="139.62" width="40.75" height="4.38" rx="2.19"/><path class="cls-11" d="M323.46,129.09H307.87a2.56,2.56,0,0,1-2.55-2.55h0a2.55,2.55,0,0,1,2.55-2.54h15.59a2.54,2.54,0,0,1,2.54,2.54h0A2.55,2.55,0,0,1,323.46,129.09Z"/><path class="cls-11" d="M323.46,137.21H307.87a2.56,2.56,0,0,1-2.55-2.55h0a2.56,2.56,0,0,1,2.55-2.54h15.59a2.55,2.55,0,0,1,2.54,2.54h0A2.55,2.55,0,0,1,323.46,137.21Z"/><circle class="cls-17" cx="345.83" cy="107" r="5.75"/><path class="cls-18" d="M336.16,107a5.75,5.75,0,1,1-5.75-5.75V107Z"/><path class="cls-11" d="M320.74,107a5.75,5.75,0,1,0-5.75,5.75V107Z"/></g><g id="Layer_4" data-name="Layer 4"><path class="cls-17" d="M337.36,365.35l-1.95,6.35a1.27,1.27,0,0,0,1.21,1.65h22.89a.56.56,0,0,0,.27-1l-12.58-7Z"/><polygon class="cls-11" points="246.03 222.63 315.53 222.63 347.2 365.35 337.36 365.35 275.34 245.73 246.03 222.63"/><path class="cls-17" d="M220.75,365.35l2,6.35a1.28,1.28,0,0,1-1.22,1.65H198.61a.55.55,0,0,1-.27-1l12.57-7Z"/><polygon class="cls-11" points="312.08 222.63 242.59 222.63 210.91 365.35 220.75 365.35 282.77 245.73 312.08 222.63"/><polygon class="cls-19" points="257.89 125.8 240.88 94.87 240.8 159.16 257.89 138.1 257.89 125.8"/><path class="cls-20" d="M251.74,131.94a6.18,6.18,0,0,0,6.15,6.15H273a6.15,6.15,0,0,0,0-12.29H257.89A6.16,6.16,0,0,0,251.74,131.94Z"/><path class="cls-20" d="M257.4,131.94a6.18,6.18,0,0,0,6.16,6.15H273a6.15,6.15,0,0,0,0-12.29h-9.4A6.16,6.16,0,0,0,257.4,131.94Z"/><path class="cls-21" d="M282.46,155.65l.44.15A29.6,29.6,0,0,1,277.26,139a26.29,26.29,0,0,0-10.06,4.54,27.3,27.3,0,0,1,3,13.29,93.36,93.36,0,0,1,13-1.19l-1.36.11Z"/><path class="cls-21" d="M271.65,122.35c-3-.53-6.46-1-8.92.9-1.93,1.47-2.7,4-3.11,6.38a34.45,34.45,0,0,0-.11,11.1c.47,3.08,1.69,6.48,4.57,7.66s6-.32,8.41-2.22c4-3.2,7-7.94,7.21-13.08s-2.91-10.47-7.81-12Z"/><path class="cls-22" d="M284.18,133.85a16.79,16.79,0,0,1-1.09,5.54A10.29,10.29,0,0,1,278,145a7.28,7.28,0,0,1-2.62.61,6.7,6.7,0,0,1-1.95-.19,10,10,0,0,1-4.46-2.46l-.33-.34a22.25,22.25,0,0,1-3.78-5.44l.21-.55c-.77-.9-1.52-1.8-2.23-2.75a21.39,21.39,0,0,1-2-3.17,11.57,11.57,0,0,1-.5-1.14,9.67,9.67,0,0,1,.49-8.18c2.07-3,6.41-3.73,9.81-2.48,1.44.52,2.78,1.34,4.25,1.77,2.17.61,4.67.38,6.51,1.71,2,1.45,2.47,4.22,2.66,6.69,0,.55.09,1.09.11,1.63A30.53,30.53,0,0,1,284.18,133.85Z"/><path class="cls-21" d="M340.52,137.45a4.82,4.82,0,0,0-2.2-2.88c-1-.65-2.36-1.06-3.07-2-1-1.36-.93-3.15-.84-4.8.29-5,.7-8.29,1-13.31a1.5,1.5,0,0,1,.53-1.29,1.09,1.09,0,0,1,1.35.38,2.89,2.89,0,0,1,.44,1.41c.5,3.84.83,5.92,1.22,9.77l7.3,0a3.23,3.23,0,0,1,3.3,3.55c-.39,3.24-1.74,7.58-4.48,9.6Z"/><path class="cls-23" d="M230.93,186.2c3.52-14,13.32-26.5,26.45-32.56s29.37-5.26,41.45,2.7c3.43,2.26,6.51,5,10,7.22s7.52,3.82,11.61,3.4c5.67-.6,10.26-5,13.19-9.91a35.87,35.87,0,0,0,4.78-22.39h9.12c3.91,12.28,8.27,25,4.47,37.31a31.77,31.77,0,0,1-43.28,19.66l6.83,31H246Z"/><path class="cls-24" d="M284.18,133.85H253.61v-3.17h30.54A30.53,30.53,0,0,1,284.18,133.85Z"/><path class="cls-21" d="M262.74,136.47a7.74,7.74,0,0,1,.69-2.73,2.6,2.6,0,0,1,2.25-1.47,3,3,0,0,1,2.38,2.08,6.11,6.11,0,0,1-5.69,8.38"/><path class="cls-25" d="M303,186a12.17,12.17,0,0,0,5,5"/><polygon class="cls-26" points="172.34 131.37 125.49 109.96 125.25 172.47 172.34 143.67 172.34 131.37"/><path class="cls-22" d="M176.59,140.94a12.51,12.51,0,0,1,1.25,13.19c-2.19,4.25-6.79,7.07-8.26,11.62-1.61,4.93,1.17,10.49,5.42,13.46s9.61,3.83,14.79,4c2.53.1,5.22,0,7.32-1.39,2.95-2,3.87-5.83,4.29-9.34a44.16,44.16,0,0,0-.61-16.05A24.21,24.21,0,0,0,192.42,143c-4.28-3.27-10.14-4.64-15.24-2.91"/><path class="cls-22" d="M254.64,165.78c-1.15,14.93-17.07,21.91-17.07,21.91L203,175.23l-8.27-9.42.86-5.09,3.62-21.62.18-1h11.93s0,.07,0,.2a5.83,5.83,0,0,0,.13.84c.51,2.5,3.05,8.53,15.43,7C242.42,144.15,255.79,150.84,254.64,165.78Z"/><path class="cls-21" d="M123.18,149.11V149a9.1,9.1,0,0,0-2-5.77c-4.12-5-10.21-5.78-16-5.64-3.14.07-8,.25-11.86.14a.59.59,0,0,0-.24,1.13,23.86,23.86,0,0,0,11,1.4c.11,2.89.36,5.67,2.17,7.94s4.95,3.16,7.81,4,5.94,1.92,7.45,4.48l-.65-.58"/><path class="cls-27" d="M193.09,146.42c2.38,7.17,4.73,14.91,7.11,22.08-3.59,1.22-7.26,2.51-10.85,3.74a36.69,36.69,0,0,0-5.67-18.81,38.31,38.31,0,0,0,9.45-7.34"/><path class="cls-17" d="M253,187.79c-7-9.61-18.26-15.28-29.6-18.94-12.3-4-26.26-5.86-37.76,0-4.59,2.34-8.54,5.81-13.26,7.88-9.92,4.34-21.91,1.62-30.68-4.74s-14.24-15.79-18.89-25.58l-4.8,7.11c-.27,6.46.43,8.73,1.56,15.11,1.65,9.26,4.45,18.81,11.07,25.49,5.43,5.47,12.94,8.46,20.55,9.74s15.36.94,23,.62c0,0-5.35,15.39-6.43,29.54H223L221.84,231a58.93,58.93,0,0,0,14.54-.37c6.8-1.14,13.51-4.21,17.82-9.62C261.63,211.7,260,197.4,253,187.79Zm-33.68,36.26s-2-6.45-10-12.61,4-17.06,4-17.06S246.92,204.64,219.28,224.05Z"/><path class="cls-20" d="M167.77,234.05l-35.21,131.3h12l49.2-93.48s16.61,29.21,12.79,93.48h12.12s30.14-91,4.31-131.3Z"/><path class="cls-11" d="M132.56,365.35,119.32,372a.72.72,0,0,0,.32,1.36h24.63a1.29,1.29,0,0,0,1.28-1.49l-1-6.51Z"/><path class="cls-11" d="M206.43,365.35,193.2,372a.72.72,0,0,0,.32,1.36h24.63a1.3,1.3,0,0,0,1.28-1.49l-1-6.51Z"/><path class="cls-21" d="M219.92,225.24l1.92,5.2s-4.11,4.93-12.05,4-5.2-10.82,3.11-10.48c0,0-.14-1.18.38-1.26S218.23,222.16,219.92,225.24Z"/><path class="cls-28" d="M187.46,255.26q3,8.25,6,16.49"/><path class="cls-8" d="M207,191.5l6.5,3"/><path class="cls-8" d="M183.68,170.17S174.09,179,174,186s3.57,8.75,3.14,12.12a14.3,14.3,0,0,1-3,6.39"/><path class="cls-22" d="M194.33,119.58a14,14,0,0,0-20,10.75c-.47,3.51.57,7.36,3.3,9.62,3.46,2.87,9,2.4,12.42-.47s5-7.62,4.68-12.11c-.18-2.68-.94-5.36-.55-8l-.52.36"/><path class="cls-27" d="M196.92,131.2c-1.18-4.69-6.9-7.23-11.56-6s-8.09,5.44-9.69,10-1.66,9.49-1.62,14.32c0,1.81.08,3.73,1.06,5.25,1.51,2.35,4.69,3,7.48,2.75a18.41,18.41,0,0,0,15.68-24.91"/><path class="cls-22" d="M221.77,163.6c-9,2.6-19,2.09-26.16-2.88a21.33,21.33,0,0,1-5.53-5.52c-5.32-7.75-6.7-20.73-5.24-30a11.26,11.26,0,0,1,9.6-7.1,14.88,14.88,0,0,1,11.2,4.92,22,22,0,0,1,5.25,11.27c.1.53.17,1.05.24,1.59.09.73.15,1.46.2,2.19a1.12,1.12,0,0,1,0,.2c0,.27,0,.55.05.84.21,3.88.12,7.81.83,11.64C213.24,156.16,216.37,162.47,221.77,163.6Z"/><path class="cls-20" d="M191.14,137.48a6.16,6.16,0,0,1-6.15,6.16H169.92a6.17,6.17,0,0,1-6.15-6.16,6.18,6.18,0,0,1,6.15-6.14H185A6.16,6.16,0,0,1,191.14,137.48Z"/><path class="cls-20" d="M185.48,137.48a6.18,6.18,0,0,1-6.15,6.16h-9.41a6.17,6.17,0,0,1-6.15-6.16,6.18,6.18,0,0,1,6.15-6.14h9.41A6.17,6.17,0,0,1,185.48,137.48Z"/><line class="cls-29" x1="167.76" y1="137.49" x2="181.49" y2="137.49"/><path class="cls-30" d="M211.48,139.1H190.25v-3.23h20.88c.09.73.15,1.46.2,2.19h0s0,.07,0,.2A5.83,5.83,0,0,0,211.48,139.1Z"/><path class="cls-11" d="M254.17,290.85c-4.08,8.82-.83,19.15,2.72,28.2s7.42,18.95,4.42,28.2-12.21,15.12-21.65,17-19.17.29-28.67-1.26v9.12S246.82,397,281.94,382s22.18-67.65,22.18-67.65Z"/><path class="cls-11" d="M257.1,297.47h63.73s35-4.8,48.21,11.3c13.6,16.61,14.45,50.13-12.3,72.57H346.59s16-23.37,1.23-40-45.6.92-45.6.92Z"/><path class="cls-21" d="M403.83,237c.36-2.28-.24-4.62-.53-6.91-.14-1-.56-2.26-1.58-2.37a1.68,1.68,0,0,0-1.62,1.15,5.7,5.7,0,0,0-.26,2.1c0,5.29-.72,9.32-3.8,13.62l-5.72,6.3a14.23,14.23,0,0,0,14.22-.55c1.89-1.22,3.56-3.1,3.69-5.34a6.64,6.64,0,0,1,.27-2.68,3.82,3.82,0,0,1,2.45-1.59,18,18,0,0,1,4.66-.72,17.36,17.36,0,0,0,6.48-1.15,1,1,0,0,0-.41-1.86Z"/><path class="cls-17" d="M320.83,297.47h-69v-6.92s-33.76-2.77-30-32.75,61.63-30.67,61.63-30.67h5s21.21,5.85,38.17,16.6c26.91,17.07,70.57-.92,70.57-.92v9.69s-25.83,31.82-79.8,28.13Z"/><path class="cls-21" d="M317.82,251.28a17,17,0,0,1-6.48,1.14,19,19,0,0,0-4.67.72,3.83,3.83,0,0,0-2.44,1.6,6.59,6.59,0,0,0-.28,2.67c-.12,2.25-1.8,4.13-3.68,5.34a14,14,0,0,1-8.62,2.16v-7.78l.11-.12c3.09-4.3,3.77-8.32,3.81-13.62a5.69,5.69,0,0,1,.25-2.1,1.73,1.73,0,0,1,1.62-1.16c1,.12,1.45,1.36,1.59,2.38.29,2.29.89,4.63.53,6.91h17.85A1,1,0,0,1,317.82,251.28Z"/><path class="cls-21" d="M274.42,196.21c-.48,6.18-.1,12.57,2.35,18.27S284,225.1,290,226.62c3.26.82,7.17.41,9.29-2.2a11.36,11.36,0,0,0,2-5.61,86,86,0,0,0,1-11.34c.08-3.57-.13-7.33-2-10.34-2.49-3.93-7.48-5.71-12.13-5.51s-9,2.08-13.23,4.11c-.37-.55-.73-1.11-1.09-1.66"/><path class="cls-21" d="M293.55,218.73l-4.39,12a5.59,5.59,0,0,1-7.64,3.12h0a5.56,5.56,0,0,1-2.9-6.8,39.82,39.82,0,0,0,1.68-18.51,97,97,0,0,0,13.17,10.34"/><path class="cls-22" d="M303.94,193.6a3.68,3.68,0,0,1-1.12,1.64c-1.47,1.27-3.35,1.53-5.18,1.77l-19.93,2.7a8.54,8.54,0,0,1,2.63,4.31,8.79,8.79,0,0,1,.24,3.23,8,8,0,0,1-.72,2.61,3.33,3.33,0,0,1-3.53,1.88,11.76,11.76,0,0,1-6.61-3.28,9.15,9.15,0,0,1-1-1.21,9.81,9.81,0,0,1-1.5-3.23,8.37,8.37,0,0,1,.07-4.55,7.33,7.33,0,0,1,7.44-5.15,19.72,19.72,0,0,1,26.22-6C302.81,189.43,304.73,191.26,303.94,193.6Z"/><path class="cls-24" d="M346.59,381.34,342,388a1.18,1.18,0,0,0,1,1.85h32.8a.48.48,0,0,0,.18-.93l-19.23-7.53Z"/><path class="cls-24" d="M211,363l-11-4.6a1.47,1.47,0,0,0-1.82.58c-2.64,4.15-10.93,19.84,6.84,29.68a.85.85,0,0,0,1.18-1.1c-2.26-4.93-6.18-16.07,4.84-15.44Z"/><path class="cls-8" d="M249.68,251.85c-2.24,1.29-3,4.38-2.09,6.79a8.86,8.86,0,0,0,5.61,4.94,21.15,21.15,0,0,0,7.65.75A77.31,77.31,0,0,0,291,256.92"/><path class="cls-8" d="M252.05,290.22c13.78-1.47,30.28-12.3,39.6-25.31"/><path class="cls-8" d="M314,266.08l3.72,14.55"/><path class="cls-31" d="M304.64,329.62a39.33,39.33,0,0,1,1.71,10.61"/><path class="cls-32" d="M321.69,335.12c6.52-2.24,13.19-2.2,19.05,1.11"/><path class="cls-32" d="M321,297.46c3.2-.26,7.89-.5,11.08-.52"/><path class="cls-31" d="M219.33,364l4,.67"/><path class="cls-31" d="M211.5,372.17l1.83,1.16"/><path class="cls-25" d="M206.74,361.18a19.93,19.93,0,0,0,4.6,1.78"/><polygon class="cls-33" points="287.61 199.48 417.47 183.26 417.47 249.57 287.61 211.78 287.61 199.48"/><path class="cls-20" d="M281.94,205.63a6.18,6.18,0,0,0,6.16,6.15h15.06a6.15,6.15,0,0,0,0-12.3H288.1A6.17,6.17,0,0,0,281.94,205.63Z"/><path class="cls-20" d="M287.61,205.63a6.18,6.18,0,0,0,6.15,6.15h9.4a6.15,6.15,0,0,0,0-12.3h-9.4A6.17,6.17,0,0,0,287.61,205.63Z"/><line class="cls-29" x1="305.32" y1="205.63" x2="291.6" y2="205.63"/><path class="cls-21" d="M279.7,211.6a7.65,7.65,0,0,0-4.28-3.72,3.68,3.68,0,0,0-3.26.2,3,3,0,0,0-1,3.27,5.31,5.31,0,0,0,2.29,2.73,8.77,8.77,0,0,0,8.48.44"/><path class="cls-30" d="M283.5,204v3.23H268.69a9.81,9.81,0,0,1-1.5-3.23Z"/><path class="cls-31" d="M252.17,297.5a19.79,19.79,0,0,0,1.1,10.19"/></g><g id="Layer_5" data-name="Layer 5"><rect class="cls-3" x="174.63" y="326.3" width="156.59" height="106.7" rx="3"/><line class="cls-34" x1="183.3" y1="425.33" x2="322.54" y2="425.33"/><path class="cls-35" d="M305.81,427.21h0a1.2,1.2,0,0,1-1.19-1.19v-1.37a1.19,1.19,0,0,1,1.19-1.19h0a1.19,1.19,0,0,1,1.19,1.19V426A1.19,1.19,0,0,1,305.81,427.21Z"/><path class="cls-35" d="M185.44,334.38h-2.37a2.45,2.45,0,0,1-2.44-2.44h0a2.45,2.45,0,0,1,2.44-2.44h2.37a2.45,2.45,0,0,1,2.44,2.44h0A2.45,2.45,0,0,1,185.44,334.38Z"/><path class="cls-36" d="M195.07,334.38H192.7a2.45,2.45,0,0,1-2.44-2.44h0a2.45,2.45,0,0,1,2.44-2.44h2.37a2.45,2.45,0,0,1,2.44,2.44h0A2.45,2.45,0,0,1,195.07,334.38Z"/><path class="cls-17" d="M270.75,360.67v38A8.67,8.67,0,0,1,257.49,406l-30.33-19a8.67,8.67,0,0,1,0-14.7l30.33-19A8.67,8.67,0,0,1,270.75,360.67Z"/><circle class="cls-37" cx="252.92" cy="379.65" r="34.21"/></g></svg>