<svg xmlns="http://www.w3.org/2000/svg" xmlns:xlink="http://www.w3.org/1999/xlink" viewBox="0 0 750 500.16"><defs><style>.cls-1{fill:#032321;}.cls-2{fill:#1faaad;}.cls-3{fill:#187a7a;}.cls-4{fill:#1ca090;}.cls-5{fill:#10776d;}.cls-6{fill:#084c47;}.cls-7{fill:#032624;}.cls-8{fill:#25ced1;}.cls-9{fill:#105151;}.cls-10{fill:#92e7e8;}.cls-11{fill:#5b061b;}.cls-12{fill:#ea526f;}.cls-13{fill:#d86888;}.cls-14{fill:#fff;}.cls-15{fill:#bcbec0;}.cls-16{fill:#b73756;}.cls-17{fill:#ff6c8f;}.cls-18{fill:url(#linear-gradient);}.cls-19{fill:url(#linear-gradient-2);}.cls-20{fill:url(#linear-gradient-3);}.cls-21{fill:#e0a46e;}.cls-22{fill:#c9844b;}.cls-23{fill:#e5a8b6;}.cls-24{fill:#f7a9c9;}.cls-25{fill:#f9d7e4;}</style><linearGradient id="linear-gradient" x1="624.14" y1="-139.22" x2="624.14" y2="304.31" gradientUnits="userSpaceOnUse"><stop offset="0" stop-color="#fff"/><stop offset="1" stop-color="#fff" stop-opacity="0"/></linearGradient><linearGradient id="linear-gradient-2" x1="712.57" y1="-139.22" x2="712.57" y2="304.31" gradientTransform="matrix(-1, 0, 0, 1, 838.43, 0)" xlink:href="#linear-gradient"/><linearGradient id="linear-gradient-3" x1="378.76" y1="-143.56" x2="378.76" y2="305" xlink:href="#linear-gradient"/></defs><g id="BACKGROUND"><rect class="cls-1" x="0.01" y="243.39" width="749.99" height="256.77"/></g><g id="OBJECTS"><path class="cls-2" d="M631.69,500.16h-4V457.59A39.72,39.72,0,0,0,616,429.3l-16.64-16.64a43.71,43.71,0,0,1-12.89-31.11V288.41h4v93.14a39.75,39.75,0,0,0,11.72,28.28l16.64,16.64a43.72,43.72,0,0,1,12.89,31.12Z"/><path class="cls-2" d="M592.75,500.16h-4V479A21.29,21.29,0,0,1,595,463.84l12.07-12.07a17.36,17.36,0,0,0,5.11-12.33V304.26h4V439.44a21.31,21.31,0,0,1-6.28,15.16l-12.07,12.07A17.33,17.33,0,0,0,592.75,479Z"/><path class="cls-2" d="M145.45,500.16h-4V481.24a25.85,25.85,0,0,0-7.63-18.4l-9.65-9.65A29.82,29.82,0,0,1,115.38,432V310.5h4V432a25.84,25.84,0,0,0,7.62,18.4l9.65,9.65a29.83,29.83,0,0,1,8.8,21.23Z"/><path class="cls-2" d="M746.2,500h-4V482.35a18.36,18.36,0,0,0-5.4-13.05l-15.72-15.71a22.3,22.3,0,0,1-6.57-15.87v-75h4v75a18.34,18.34,0,0,0,5.4,13l15.72,15.72a22.31,22.31,0,0,1,6.57,15.87Z"/><path class="cls-2" d="M69.34,500.16h-4V465.57a22.15,22.15,0,0,0-6.54-15.78L48.48,439.46a26.15,26.15,0,0,1-7.71-18.61v-45h4v45a22.15,22.15,0,0,0,6.54,15.78L61.63,447a26.15,26.15,0,0,1,7.71,18.61Z"/><path class="cls-2" d="M15.78,500.16h-4V487.51a26.86,26.86,0,0,1,7.92-19.12,22.87,22.87,0,0,0,6.74-16.29V371.78h4V452.1a26.86,26.86,0,0,1-7.91,19.12,22.86,22.86,0,0,0-6.75,16.29Z"/><path class="cls-3" d="M117.27,373a5.22,5.22,0,0,0-5.22,5.21v26.5a5.22,5.22,0,0,0,10.43,0V378.2A5.21,5.21,0,0,0,117.27,373Z"/><path class="cls-3" d="M716.46,399a5.21,5.21,0,0,0-5.21,5.21v26.5a5.21,5.21,0,1,0,10.42,0v-26.5A5.21,5.21,0,0,0,716.46,399Z"/><path class="cls-3" d="M585.22,500.16h-.5V449.25a28.29,28.29,0,0,0-8.33-20.12l-8.69-8.68A28.79,28.79,0,0,1,559.23,400V332.63h.5V400a28.25,28.25,0,0,0,8.33,20.12l8.68,8.68a28.76,28.76,0,0,1,8.48,20.47Z"/><path class="cls-3" d="M656.2,500.16h-.5V449.25a28.29,28.29,0,0,0-8.33-20.12l-8.68-8.68A28.76,28.76,0,0,1,630.21,400V332.63h.5V400A28.29,28.29,0,0,0,639,420.1l8.68,8.68a28.76,28.76,0,0,1,8.48,20.47Z"/><path class="cls-3" d="M111.5,500.16H111V471a17.84,17.84,0,0,1,5.26-12.7l17.36-17.36a17.34,17.34,0,0,0,5.12-12.35V332.63h.5v95.92a17.84,17.84,0,0,1-5.26,12.7l-17.37,17.37A17.35,17.35,0,0,0,111.5,471Z"/><polygon class="cls-3" points="750 332.63 643.2 398.95 643.2 300.7 750 332.63"/><polygon class="cls-2" points="643.2 398.95 694.14 398.95 750 367.56 750 332.63 643.2 398.95"/><polygon class="cls-3" points="0.01 332.63 106.81 398.95 106.81 300.7 0.01 332.63"/><polygon class="cls-2" points="106.81 398.95 55.88 398.95 0.01 367.56 0.01 332.63 106.81 398.95"/><rect class="cls-4" width="750" height="316.73"/><path class="cls-5" d="M375,182.94c222.47,0,304.93,44.94,375,84.88V32.65H0V267.83C70.06,227.89,166.2,182.94,375,182.94Z"/><path class="cls-6" d="M375,146.4c163.3,0,304.93,23.81,375,58.63V0H0V205C70.06,170.21,211.69,146.4,375,146.4Z"/><path class="cls-7" d="M375,65.69c163.3,0,304.93,10.68,375,26.3V0H0V92C70.06,76.37,211.69,65.69,375,65.69Z"/><rect class="cls-8" y="316.73" width="750" height="15.9"/><rect class="cls-8" x="289.88" y="112.81" width="1.9" height="68.74"/><path class="cls-8" d="M290.82,175.36a3.13,3.13,0,0,0-3.13,3.13v20.64H294V178.49A3.13,3.13,0,0,0,290.82,175.36Z"/><rect class="cls-9" x="209.7" y="182.35" width="162.24" height="66.26"/><rect class="cls-10" x="344.78" y="222.76" width="21.58" height="8.63"/><rect class="cls-10" x="215.28" y="187.25" width="8.63" height="8.63"/><rect class="cls-10" x="228.23" y="187.25" width="8.63" height="8.63"/><rect class="cls-10" x="241.18" y="187.25" width="8.63" height="8.63"/><rect class="cls-10" x="254.13" y="187.25" width="8.63" height="8.63"/><rect class="cls-10" x="267.08" y="187.25" width="8.63" height="8.63"/><rect class="cls-10" x="280.03" y="187.25" width="8.63" height="8.63"/><rect class="cls-10" x="305.93" y="187.25" width="8.63" height="8.63"/><rect class="cls-10" x="318.88" y="187.25" width="8.63" height="8.63"/><rect class="cls-10" x="331.83" y="187.25" width="8.63" height="8.63"/><rect class="cls-10" x="357.73" y="187.25" width="8.63" height="8.63"/><rect class="cls-10" x="215.28" y="199.09" width="8.63" height="8.63"/><rect class="cls-10" x="228.23" y="199.09" width="8.63" height="8.63"/><rect class="cls-10" x="254.13" y="199.09" width="8.63" height="8.63"/><rect class="cls-10" x="280.03" y="199.09" width="8.63" height="8.63"/><rect class="cls-10" x="292.98" y="199.09" width="8.63" height="8.63"/><rect class="cls-10" x="318.88" y="199.09" width="8.63" height="8.63"/><rect class="cls-11" x="292.98" y="187.25" width="8.63" height="8.63"/><rect class="cls-11" x="344.78" y="187.25" width="8.63" height="8.63"/><rect class="cls-11" x="305.93" y="199.09" width="8.63" height="8.63"/><rect class="cls-11" x="331.83" y="199.09" width="8.63" height="8.63"/><rect class="cls-11" x="280.03" y="210.92" width="8.63" height="8.63"/><rect class="cls-10" x="344.78" y="199.09" width="8.63" height="8.63"/><rect class="cls-10" x="215.28" y="210.92" width="21.58" height="8.63"/><rect class="cls-10" x="241.18" y="210.92" width="8.63" height="8.63"/><rect class="cls-10" x="267.08" y="210.92" width="8.63" height="8.63"/><rect class="cls-10" x="292.98" y="210.92" width="8.63" height="8.63"/><rect class="cls-10" x="305.93" y="210.92" width="8.63" height="8.63"/><rect class="cls-10" x="331.83" y="210.92" width="8.63" height="8.63"/><rect class="cls-10" x="215.28" y="222.76" width="21.58" height="8.63"/><rect class="cls-10" x="241.18" y="222.76" width="8.63" height="8.63"/><rect class="cls-10" x="254.13" y="222.76" width="8.63" height="8.63"/><rect class="cls-10" x="267.08" y="222.76" width="8.63" height="8.63"/><rect class="cls-10" x="280.03" y="222.76" width="8.63" height="8.63"/><rect class="cls-10" x="292.98" y="222.76" width="8.63" height="8.63"/><rect class="cls-10" x="318.88" y="222.76" width="8.63" height="8.63"/><polygon class="cls-12" points="357.73 199.09 357.73 210.92 344.78 210.92 344.78 219.56 366.37 219.56 366.37 210.92 366.37 199.09 357.73 199.09"/><rect class="cls-12" x="241.18" y="199.09" width="8.63" height="8.63"/><rect class="cls-12" x="267.08" y="199.09" width="8.63" height="8.63"/><rect class="cls-12" x="254.13" y="210.92" width="8.63" height="8.63"/><rect class="cls-12" x="318.88" y="210.92" width="8.63" height="8.63"/><rect class="cls-12" x="305.93" y="222.76" width="8.63" height="8.63"/><rect class="cls-12" x="331.83" y="222.76" width="8.63" height="8.63"/><rect class="cls-12" x="267.08" y="234.6" width="47.48" height="8.63"/><rect class="cls-10" x="215.28" y="234.6" width="8.63" height="8.63"/><rect class="cls-10" x="228.23" y="234.6" width="8.63" height="8.63"/><rect class="cls-10" x="241.18" y="234.6" width="8.63" height="8.63"/><rect class="cls-10" x="254.13" y="234.6" width="8.63" height="8.63"/><rect class="cls-10" x="318.88" y="234.6" width="8.63" height="8.63"/><rect class="cls-10" x="331.83" y="234.6" width="8.63" height="8.63"/><rect class="cls-10" x="344.78" y="234.6" width="8.63" height="8.63"/><rect class="cls-10" x="357.73" y="234.6" width="8.63" height="8.63"/><path class="cls-7" d="M498.89,189.3a8.37,8.37,0,0,1,8,5.8l5.33,16.57A18.28,18.28,0,0,1,512.5,222c-1.51,5.6-5.44,12.82-15.65,12.82-16.68,0-16.6-13.29-16.6-19.26V196.13a6.83,6.83,0,0,1,6.84-6.83Z"/><path class="cls-8" d="M495.31,192.24a2.11,2.11,0,0,0-1.66,2.5l1.7,8.5a2.12,2.12,0,0,0,4.16-.83l-1.7-8.5A2.13,2.13,0,0,0,495.31,192.24Z"/><polygon class="cls-10" points="480.25 208.88 488.71 212.46 488.71 208.99 480.25 205.45 480.25 208.88"/><path class="cls-11" d="M488.71,215.83l-8.46-3.55v3.43l8.46,3.58Z"/><path class="cls-10" d="M488.71,226.13v-3.47l-8.38-3.52a28.15,28.15,0,0,0,.42,3.62Z"/><polygon class="cls-3" points="679.11 254.41 633.46 300.06 375 300.06 116.54 300.06 70.89 254.41 0 254.41 0 323.64 375 323.64 750 323.64 750 254.41 679.11 254.41"/><polygon class="cls-3" points="650.98 273.96 644.33 273.96 622.47 295.83 629.11 295.83 650.98 273.96"/><polygon class="cls-3" points="127.53 295.83 105.67 273.96 99.03 273.96 120.89 295.83 127.53 295.83"/><path class="cls-13" d="M336,117.32V144.6a9.39,9.39,0,0,0,9.38,9.39h59.35a9.4,9.4,0,0,0,9.39-9.39V117.32Z"/><path class="cls-12" d="M513.88,14.42h0a9.32,9.32,0,0,0-9.3-8.83H245.45a9.32,9.32,0,0,0-9.3,8.83h0v.19a4.34,4.34,0,0,0,0,.51v13.5h4.64l28.55,73.51a13.65,13.65,0,0,0,12.73,8.71H467.94a13.65,13.65,0,0,0,12.73-8.71l28.55-73.51h4.66Z"/><path class="cls-7" d="M375,19.76H245.45a9.33,9.33,0,0,0-8.69,12.7l32.57,83.85A13.65,13.65,0,0,0,282.06,125H467.94a13.65,13.65,0,0,0,12.73-8.71l32.57-83.85a9.33,9.33,0,0,0-8.69-12.7Z"/><path class="cls-14" d="M282.06,116.32a4.93,4.93,0,0,1-4.62-3.16L244.87,29.31a.54.54,0,0,1,.07-.57.56.56,0,0,1,.51-.27h259.1a.56.56,0,0,1,.51.27.54.54,0,0,1,.07.57l-32.57,83.85a4.93,4.93,0,0,1-4.62,3.16Z"/><path class="cls-15" d="M505.06,28.74a.56.56,0,0,0-.51-.27h-1.79L471,110.32a4.92,4.92,0,0,1-4.62,3.16H283.66a4.92,4.92,0,0,1-4.62-3.16l-31.8-81.85h-1.79a.56.56,0,0,0-.51.27.54.54,0,0,0-.07.57l32.57,83.85a4.93,4.93,0,0,0,4.62,3.16H467.94a4.93,4.93,0,0,0,4.62-3.16l32.57-83.85A.54.54,0,0,0,505.06,28.74Z"/><path class="cls-10" d="M440.43,119.59h-5.79a1.26,1.26,0,1,0,0,2.51h5.79a1.26,1.26,0,0,0,0-2.51Z"/><path class="cls-12" d="M453.66,119.59h-5.79a1.26,1.26,0,1,0,0,2.51h5.79a1.26,1.26,0,0,0,0-2.51Z"/><rect class="cls-16" x="335.95" y="125.02" width="78.12" height="9.45"/><path class="cls-13" d="M525.19,132.34l-6.82,19.35a10.34,10.34,0,0,0,6.49,13.25L573.31,181a10.33,10.33,0,0,0,13-6.38l7-19.71Z"/><polygon class="cls-16" points="588.75 167.72 593.26 154.94 525.19 132.34 520.68 145.13 588.75 167.72"/><path class="cls-12" d="M721.56,89V76.88a11,11,0,0,0-7.63-10.37L544.23,9.64a13.43,13.43,0,0,0-16.61,7.21l-36,83.48a26.1,26.1,0,0,0-2.13,10.3v9.2l115.94,1.72Z"/><path class="cls-7" d="M531.34,27l-41.16,88.62a7.61,7.61,0,0,0,4.65,10.41l155,51.61a8.05,8.05,0,0,0,9-2.8l61.24-83.07a7.58,7.58,0,0,0-3.91-11.73L541.07,22.92A8,8,0,0,0,531.34,27Z"/><polygon class="cls-14" points="498.48 118.36 538.98 31.15 712.37 87.75 652.1 169.51 498.48 118.36"/><polygon class="cls-15" points="709.84 86.92 651.16 166.53 499.55 116.05 498.48 118.36 652.1 169.51 712.37 87.75 709.84 86.92"/><path class="cls-10" d="M621.63,162.33l-5.47-1.86a1.27,1.27,0,0,0-1.6.75,1.21,1.21,0,0,0,.77,1.55l5.47,1.86a1.28,1.28,0,0,0,1.6-.75A1.21,1.21,0,0,0,621.63,162.33Z"/><path class="cls-12" d="M634.11,166.57l-5.46-1.86a1.26,1.26,0,0,0-1.6.75,1.2,1.2,0,0,0,.77,1.55l5.46,1.86a1.27,1.27,0,0,0,1.6-.75A1.2,1.2,0,0,0,634.11,166.57Z"/><path class="cls-17" d="M534.46,11.88A2,2,0,0,0,532.57,14l.27,5.84a2,2,0,1,0,4-.19l-.27-5.84A2,2,0,0,0,534.46,11.88Z"/><path class="cls-13" d="M224.81,132.34l6.82,19.35a10.34,10.34,0,0,1-6.49,13.25L176.69,181a10.33,10.33,0,0,1-13-6.38l-6.95-19.71Z"/><polygon class="cls-16" points="161.25 167.72 156.74 154.94 224.81 132.34 229.31 145.13 161.25 167.72"/><path class="cls-12" d="M28.44,89V76.88a11,11,0,0,1,7.63-10.37L205.77,9.64a13.43,13.43,0,0,1,16.61,7.21l36,83.48a26.1,26.1,0,0,1,2.13,10.3v9.2l-115.94,1.72Z"/><path class="cls-7" d="M218.66,27l41.16,88.62a7.61,7.61,0,0,1-4.65,10.41l-155,51.61a8.05,8.05,0,0,1-9-2.8L29.92,91.81a7.58,7.58,0,0,1,3.91-11.73l175.1-57.16A8,8,0,0,1,218.66,27Z"/><polygon class="cls-14" points="251.53 118.36 211.02 31.15 37.63 87.75 97.9 169.51 251.53 118.36"/><polygon class="cls-15" points="40.16 86.92 98.84 166.53 250.45 116.05 251.53 118.36 97.9 169.51 37.63 87.75 40.16 86.92"/><path class="cls-10" d="M229,129.41l-5.47,1.84a1.29,1.29,0,0,0-.82,1.57,1.22,1.22,0,0,0,1.56.76l5.47-1.84a1.26,1.26,0,0,0,.81-1.57A1.21,1.21,0,0,0,229,129.41Z"/><path class="cls-12" d="M241.5,125.19,236,127a1.26,1.26,0,0,0-.82,1.56,1.2,1.2,0,0,0,1.55.77l5.47-1.85a1.26,1.26,0,0,0,.82-1.56A1.2,1.2,0,0,0,241.5,125.19Z"/><path class="cls-17" d="M215.54,11.88A2,2,0,0,1,217.43,14l-.27,5.84a2,2,0,1,1-4-.19l.27-5.84A2,2,0,0,1,215.54,11.88Z"/><polygon class="cls-18" points="750 433.3 712.37 87.75 538.98 31.15 498.28 119.59 513.88 453.83 750 433.3"/><polygon class="cls-19" points="0 433.3 37.63 87.75 211.02 31.15 251.72 119.59 236.12 453.83 0 433.3"/><polygon class="cls-20" points="550.87 456.21 206.64 456.21 244.94 28.74 505.18 28.74 550.87 456.21"/></g><g id="Layer_6" data-name="Layer 6"><path class="cls-12" d="M436.15,328.62H313.86V372A61.14,61.14,0,0,0,375,433.15h0A61.14,61.14,0,0,0,436.15,372Z"/><path class="cls-21" d="M355,288.41v40a20,20,0,0,0,20,20h0a20,20,0,0,0,20-20v-40Z"/><path class="cls-22" d="M355,283.63v40a20,20,0,0,0,20,20h0a20,20,0,0,0,20-20v-40Z"/><path class="cls-12" d="M317.22,267.59a19.9,19.9,0,0,0-19.91,19.91v6.21a19.91,19.91,0,0,0,19.91,19.91h26.12v-46Z"/><rect class="cls-8" x="317.22" y="267.59" width="3.69" height="46.03"/><path class="cls-12" d="M432.78,267.59a19.9,19.9,0,0,1,19.91,19.91v6.21a19.91,19.91,0,0,1-19.91,19.91H406.66v-46Z"/><rect class="cls-8" x="429.09" y="267.59" width="3.69" height="46.03" transform="translate(861.87 581.21) rotate(180)"/><path class="cls-7" d="M361.24,215.38a38.17,38.17,0,0,0-37.87,42.93l3.95,31.38A56.56,56.56,0,0,0,375,338.56h0a56.56,56.56,0,0,0,47.68-48.87l3.95-31.38a38.17,38.17,0,0,0-37.87-42.93Z"/><path class="cls-7" d="M426.58,215.38H386.1v21.1h40.48a10.56,10.56,0,0,0,10.55-10.55h0A10.55,10.55,0,0,0,426.58,215.38Z"/><path class="cls-7" d="M408.05,195.16l-28.63,28.62,14.92,14.92L423,210.07a10.54,10.54,0,0,0,0-14.91h0A10.54,10.54,0,0,0,408.05,195.16Z"/><path class="cls-12" d="M426.05,261.94h0A29.89,29.89,0,0,0,396.16,232H353.84A29.89,29.89,0,0,0,324,261.94h0s-.23,15.26,1.8,15.26a32.41,32.41,0,0,1,32.41-32.41h33.68a32.41,32.41,0,0,1,32.41,32.41C426.28,277.2,426.05,261.94,426.05,261.94Z"/><path class="cls-21" d="M497.62,245.06l-2.41-1.58a25.4,25.4,0,0,1-10.31-13.67L481,217.39a3.65,3.65,0,0,1,2.69-4.57h0a3.66,3.66,0,0,1,4,1.7l7.25,12.23V198.48a4.75,4.75,0,0,1,4.75-4.75h0a4.74,4.74,0,0,1,4.74,4.75v4.91h5.19a4.18,4.18,0,0,1,4.18,4.17v2.77h6.14a5.59,5.59,0,0,1,5.59,5.59v15.94a22.43,22.43,0,0,1-4.62,13.64l-5.62,7.33Z"/><path class="cls-22" d="M510.44,232.57a18.59,18.59,0,0,0-19.38,7.48,25,25,0,0,0,4.15,3.43l2.41,1.58,17.66,7.77,5.62-7.33a22.58,22.58,0,0,0,2-3.14A18.5,18.5,0,0,0,510.44,232.57Z"/><path class="cls-12" d="M436.15,328.62,472,318.4l15.17-64a18.61,18.61,0,0,1,22.24-13.85h0a18.6,18.6,0,0,1,13.92,22.57l-17.6,71.65a32.37,32.37,0,0,1-19.41,22.33l-59.41,23.76Z"/><path class="cls-17" d="M476.86,320.06l.16,0c8.32,1.18,9.21,12.9,1.21,15.46l-29.16,9.33a8,8,0,0,1-10.4-7.14c0-.08,0-.15,0-.23a8,8,0,0,1,5.6-8.08l29.22-9.07A7.88,7.88,0,0,1,476.86,320.06Z"/><path class="cls-21" d="M252.38,245.06l2.41-1.58a25.4,25.4,0,0,0,10.31-13.67L269,217.39a3.65,3.65,0,0,0-2.69-4.57h0a3.66,3.66,0,0,0-4,1.7l-7.25,12.23V198.48a4.75,4.75,0,0,0-4.75-4.75h0a4.74,4.74,0,0,0-4.74,4.75v4.91h-5.2a4.17,4.17,0,0,0-4.17,4.17v2.77h-6.14a5.59,5.59,0,0,0-5.59,5.59v15.94a22.43,22.43,0,0,0,4.62,13.64l5.62,7.33Z"/><path class="cls-22" d="M239.56,232.57a18.59,18.59,0,0,1,19.38,7.48,25.4,25.4,0,0,1-4.15,3.43l-2.41,1.58-17.66,7.77-5.62-7.33a22.58,22.58,0,0,1-2-3.14A18.5,18.5,0,0,1,239.56,232.57Z"/><path class="cls-12" d="M313.85,328.62,278,318.4l-15.17-64a18.61,18.61,0,0,0-22.24-13.85h0a18.6,18.6,0,0,0-13.92,22.57l17.6,71.65a32.35,32.35,0,0,0,19.41,22.33l59.41,23.76Z"/><path class="cls-17" d="M273.14,320.06l-.16,0c-8.32,1.18-9.21,12.9-1.21,15.46l29.16,9.33a8,8,0,0,0,10.4-7.14c0-.08,0-.15,0-.23a8,8,0,0,0-5.6-8.08l-29.22-9.07A7.88,7.88,0,0,0,273.14,320.06Z"/><path class="cls-11" d="M426.5,356.09v-4h0V328.62H403v11.32c0,14.75-11.4,27.31-26.14,28-.48,0-1,0-1.46,0h0c-.5,0-1,0-1.47,0-14.73-.67-26.14-13.23-26.14-28V328.62H323.5v27.47h0c0,17.79-8.88,21-9.4,21.19A61.14,61.14,0,0,0,375,433.15h0a61.14,61.14,0,0,0,60.9-55.86C435.65,377.21,426.5,374.15,426.5,356.09Z"/></g><g id="Layer_4" data-name="Layer 4"><path class="cls-12" d="M375,121c-43.92,0-79.66-16.58-79.66-37s35.74-37,79.66-37,79.66,16.58,79.66,37S418.92,121,375,121Zm0-71.92c-42.82,0-77.66,15.69-77.66,35s34.84,35,77.66,35,77.66-15.68,77.66-35S417.82,49.11,375,49.11Z"/><path class="cls-23" d="M422.2,67.74c-2.13-.95-4.43-1.84-6.83-2.65l.54-1.59c2.44.83,4.79,1.75,7,2.72Z"/><path class="cls-23" d="M375,118.15c-37.34,0-67.72-13.63-67.72-30.38S337.66,57.38,375,57.38a146.19,146.19,0,0,1,21.27,1.52L396,60.55a145.71,145.71,0,0,0-21-1.5c-36.42,0-66,12.88-66,28.72s29.62,28.71,66,28.71,66-12.88,66-28.71c0-4.93-3-9.81-8.62-14.12l1-1.33c6.08,4.64,9.29,10,9.29,15.45C442.72,104.52,412.34,118.15,375,118.15Z"/><path class="cls-12" d="M375,136.66c-31.68,0-56.5-10.51-56.5-23.92S343.32,88.82,375,88.82s56.5,10.51,56.5,23.92S406.68,136.66,375,136.66Zm0-45.94c-30.11,0-54.6,9.88-54.6,22s24.49,22,54.6,22,54.6-9.88,54.6-22S405.11,90.72,375,90.72Z"/><path class="cls-23" d="M375,134.14c-25.07,0-44.71-7.59-44.71-17.27h1.43c0,8.58,19.82,15.84,43.28,15.84s43.28-7.26,43.28-15.84S398.46,101,375,101V99.59c25.07,0,44.71,7.59,44.71,17.28S400.07,134.14,375,134.14Z"/><path class="cls-23" d="M375,161.54c-13.26,0-23.65-4.1-23.65-9.34s10.39-9.35,23.65-9.35,23.65,4.11,23.65,9.35S388.26,161.54,375,161.54Zm0-17.94c-12.63,0-22.9,3.86-22.9,8.6s10.27,8.59,22.9,8.59,22.9-3.85,22.9-8.59S387.63,143.6,375,143.6Z"/><polygon class="cls-12" points="494.73 167.18 479.28 167.18 480.88 164.18 492.94 164.18 543.03 71.43 525.79 69.23 526.17 66.26 547.75 69.01 494.73 167.18"/><polyline class="cls-12" points="543.03 71.43 524.78 69.1 526.17 66.26"/><polygon class="cls-12" points="255.28 167.18 270.72 167.18 269.12 164.18 257.06 164.18 206.97 71.43 224.21 69.23 223.82 66.26 202.25 69.01 255.28 167.18"/><polyline class="cls-12" points="206.97 71.43 225.22 69.1 223.82 66.26"/><path class="cls-12" d="M470,161.54l10.73-17a2.55,2.55,0,0,1,2.17-1.06h0c1.11,0,1.83.94,1.33,1.73L474,161.54Z"/><path class="cls-12" d="M462.84,161.54l5.36-8.39a2.53,2.53,0,0,1,2.17-1.07h0c1.11,0,1.83.94,1.33,1.74l-4.94,7.72Z"/><path class="cls-11" d="M455.64,161.54l10.73-17a2.55,2.55,0,0,1,2.16-1.06h0c1.12,0,1.84.94,1.34,1.73l-10.31,16.33Z"/><path class="cls-12" d="M449.12,161.54l15-23.81a2.53,2.53,0,0,1,2.17-1.07h0c1.11,0,1.83.94,1.33,1.73l-14.55,23.15Z"/><path class="cls-11" d="M441.93,161.54l8.32-13.11a2.58,2.58,0,0,1,2.17-1.06h0c1.12,0,1.84.94,1.34,1.73l-7.91,12.44Z"/></g><g id="chair"><path class="cls-3" d="M518.91,358.37H499.06a9.8,9.8,0,0,0-9.64,9.95V500h39.13V368.32A9.79,9.79,0,0,0,518.91,358.37Z"/><path class="cls-3" d="M251,358.37H231.1a9.8,9.8,0,0,0-9.64,9.95V500h39.13V368.32A9.79,9.79,0,0,0,251,358.37Z"/><path class="cls-2" d="M500,365.14h0a4.84,4.84,0,0,0-4.77,4.93v56A4.84,4.84,0,0,0,500,431h0a4.85,4.85,0,0,0,4.78-4.93v-56A4.85,4.85,0,0,0,500,365.14Z"/><path class="cls-2" d="M230.88,365.14h0a4.85,4.85,0,0,0-4.78,4.93v56a4.85,4.85,0,0,0,4.78,4.93h0a4.85,4.85,0,0,0,4.78-4.93v-56A4.85,4.85,0,0,0,230.88,365.14Z"/><path class="cls-24" d="M499.37,500h0q-3.44-27.17-6.91-54.32c-2.34-10.64-4.76-21.2-13-28.88-6.09-6-10.42-14.6-12.54-24.91-.16-.74-.23-1.11-.38-1.85-3.55-18.73-23.11-25.68-39.43-20.88A277.46,277.46,0,0,1,375,375.42a277,277,0,0,1-52.09-6.26c-15.79-4.07-36.64,1.65-39.42,20.88l-.38,1.85c-2.13,10.31-6.45,18.94-12.54,24.91-8.26,7.68-10.69,18.24-13,28.88q-3.47,27.15-6.91,54.32H499.37Z"/><path class="cls-25" d="M253.24,500q2.14-16.9,4.31-33.82c2.34-10.64,5-21.19,13-28.88,6.08-5.81,10.41-14.61,12.54-24.91l.38-1.85c2.78-19.23,23.63-25,39.42-20.88A277.86,277.86,0,0,0,375,395.92a277.46,277.46,0,0,0,52.08-6.26c16.32-4.8,35.88,2.14,39.43,20.88.15.74.22,1.11.38,1.85,2.12,10.3,6.45,19.1,12.54,24.91,8.06,7.69,10.68,18.24,13,28.88L496.78,500h2.59q-3.44-27.17-6.91-54.32c-2.34-10.64-5-21.19-13-28.88C473.35,411,469,402.2,466.9,391.89c-.16-.74-.23-1.11-.38-1.85-3.55-18.73-23.11-25.68-39.43-20.88A277.46,277.46,0,0,1,375,375.42a277,277,0,0,1-52.09-6.26c-15.79-4.07-36.64,1.65-39.42,20.88l-.38,1.85C281,402.2,276.66,411,270.58,416.8c-8.06,7.69-10.69,18.24-13,28.88q-3.47,27.15-6.91,54.32h2.6Z"/><path class="cls-16" d="M420.48,428.82a398.61,398.61,0,0,1-91,0c-6.24-.82-11.28,3.58-11.28,10s5,12.54,11.28,13.35a398.61,398.61,0,0,0,91,0c6.24-.81,11.28-6.89,11.28-13.35S426.72,428,420.48,428.82Z"/></g></svg>