<?xml version="1.0" standalone="no"?>
<!DOCTYPE svg PUBLIC "-//W3C//DTD SVG 1.1//EN" "http://www.w3.org/Graphics/SVG/1.1/DTD/svg11.dtd">
<svg xmlns="http://www.w3.org/2000/svg">
<defs >
<font id="DancingScript" horiz-adv-x="497" ><font-face
    font-family="Dancing Script SemiBold"
    units-per-em="1000"
    panose-1="0 0 0 0 0 0 0 0 0 0"
    ascent="920"
    descent="-280"
    alphabetic="0" />
<glyph unicode=" " horiz-adv-x="260" />
<glyph unicode="!" horiz-adv-x="283" d="M108 295Q128 347 151 405T198 519T245 620T291 693T332 720Q342 720 349 712T357 692Q357 678 342 639T300 543T241 424T176 299T113 186T62 103Q60 104 58 105T53 107Q57 139 66 173T87 240T108 295ZM30 -10Q15 -10
4 -3T-7 22Q-7 40 13 53T56 67Q70 67 78 61T87 38Q87 22 70 6T30 -10Z" />
<glyph unicode="&quot;" horiz-adv-x="262" d="M285 576Q272 583 266 594T260 618Q260 638 269 662T292 703T323 721Q334 721 343 712T353 687Q329 663 312 633T285 576ZM169 576Q156 583 150 594T144 618Q144 638 153 662T176 703T207 721Q218 721 227 712T237
687Q213 663 196 633T169 576Z" />
<glyph unicode="#" horiz-adv-x="703" d="M110 -162Q130 -138 149 -89T188 26T224 167Q190 166 156 163T78 157L16 152Q18 181 47 197T126 221T238 230Q240 241 243 257T249 284Q219 283 187 281T115 274L52 269Q54 298 82 314T158 338T264 347Q285 450 300 534T327
672Q330 687 339 700T383 721Q379 702 369 647T345 514T314 349Q348 348 377 348T438 345Q460 448 475 533T502 672Q505 687 514 700T558 721Q555 706 549 670T533 583T512 470T487 342Q541 340 599 336T704 332Q668 301 640 296T587 290Q555 290 528 290T478 289Q474
272 471 255T465 223Q513 221 567 218T666 214Q630 184 603 179T551 173Q523 173 500 173T455 172Q433 62 413 -12T363 -124T285 -162Q305 -138 325 -88T364 28T400 169H278Q256 60 236 -14T187 -125T110 -162ZM413 227L426 288Q388 288 359 288T302 286L291 230Q323
230 353 230T413 227Z" />
<glyph unicode="$" horiz-adv-x="554" d="M145 -162Q159 -144 172 -117T197 -57Q148 -52 105 -35T36 16T9 97Q9 143 32 173T89 217T154 231Q123 199 108 164T93 95Q93 47 124 19T211 -15Q229 44 246 114T279 261Q244 280 212 302T158 355T136 432Q136 487 166
533T246 611T358 653Q359 666 365 680T385 705T419 720Q416 709 413 694T405 656Q473 655 498 625T523 548Q523 509 510 466T473 384Q452 389 441 402T430 431Q430 448 439 474T457 528T466 577Q466 598 452 610T399 622Q385 547 372 473T343 322Q380 304 413 282T469
227T491 145Q491 85 459 42T374 -26T259 -57Q240 -108 212 -135T145 -162ZM272 -15Q338 -7 374 28T411 115Q411 158 387 186T327 235Q309 146 296 80T272 -15ZM298 346Q313 422 327 494T351 617Q307 607 276 581T227 522T209 456Q209 416 235 391T298 346Z" />
<glyph unicode="%" horiz-adv-x="726" d="M85 -87Q109 -63 146 -11T226 111T315 260T401 416T475 560T525 672Q529 683 544 693T578 712T615 720Q610 705 591 663T542 561T477 436T407 305T341 186T288 97Q235 15 187 -36T85 -87ZM195 342Q150 342 128 375T105
454Q105 487 115 524T146 595T194 649T256 670Q297 670 322 641T348 562Q348 530 337 492T306 420T258 364T195 342ZM201 389Q219 389 234 406T261 451T279 509T286 568Q286 593 280 608T257 624Q236 624 220 606T193 560T177 503T171 450Q171 423 179 406T201
389ZM533 -1Q487 -1 465 32T443 111Q443 144 453 181T483 252T531 306T593 327Q635 327 660 298T685 219Q685 188 674 150T644 78T596 21T533 -1ZM538 47Q556 47 571 64T599 108T617 167T624 225Q624 250 617 266T594 282Q573 282 557 264T530 217T514 159T508
106Q508 79 516 63T538 47Z" />
<glyph unicode="&amp;" horiz-adv-x="655" d="M218 -87Q155 -87 108 -62T36 5T10 98Q10 143 29 186T83 266T165 326T267 357Q230 389 212 429T193 510Q193 564 220 611T295 689T408 719Q466 719 496 691T526 610Q526 572 514 536T483 477T445 453Q432 453 421
464T401 491Q437 522 461 555T486 624Q486 653 470 671T418 690Q373 690 342 663T294 593T278 499Q278 476 282 448T301 393T346 341Q275 330 224 291T144 200T115 97Q115 66 127 34T168 -21T244 -44Q298 -44 347 -18T436 51T503 148T536 260Q516 259 499 257T459
251T402 240Q403 288 435 304T512 320Q543 320 569 316T622 308T677 303Q662 274 651 268T627 262Q610 262 597 262T571 261Q564 193 533 131T453 19T344 -58T218 -87Z" />
<glyph unicode="&apos;" horiz-adv-x="146" d="M169 576Q156 583 150 594T144 618Q144 638 153 662T176 703T207 721Q218 721 227 712T237 687Q213 663 195 632T169 576Z" />
<glyph unicode="(" horiz-adv-x="283" d="M166 -87Q139 -72 118 -31T83 68T70 191Q70 286 93 367T152 514T231 625T314 695T383 720Q319 672 273 608T197 472T153 323T139 175Q139 97 153 37T191 -61Q186 -71 180 -77T166 -87Z" />
<glyph unicode=")" horiz-adv-x="299" d="M-13 -87Q-21 -86 -29 -76T-43 -56Q29 -8 87 67T181 242T217 461Q217 525 202 590T134 723Q165 716 199 680T256 581T279 434Q279 344 257 265T199 121T123 10T47 -62T-13 -87Z" />
<glyph unicode="*" horiz-adv-x="408" d="M378 404Q359 424 334 459T283 531Q258 484 231 449T168 413Q185 436 196 456T218 498T239 542Q198 542 165 548T123 583Q147 585 177 586T239 588Q219 620 206 648T193 695Q193 709 201 715T212 728Q234 686 248 658T281
603Q298 649 321 683T383 727Q372 694 354 660T318 589Q342 589 367 588T416 580T461 554L328 542Q340 525 351 508T370 466T378 404Z" />
<glyph unicode="+" horiz-adv-x="430" d="M164 -8Q169 22 170 46T172 95T173 150Q143 150 119 150T69 147T10 139Q21 171 65 183T172 197V241Q172 265 178 292T208 353Q210 330 214 287T220 197Q271 196 319 193T392 187Q360 165 328 158T274 150H221Q220 109
216 75T199 18T164 -8Z" />
<glyph unicode="," horiz-adv-x="209" d="M24 -88Q12 -81 6 -70T0 -46Q0 -26 9 -2T32 40T62 58Q74 58 83 49T92 27Q67 -1 54 -27T24 -88Z" />
<glyph unicode="-" horiz-adv-x="499" d="M49 143Q55 162 74 174T120 192T172 199T218 201Q235 201 263 200T323 198T379 196T418 193Q398 170 363 159T289 148Q266 148 235 150T172 152Q149 152 125 151T81 147T49 143Z" />
<glyph unicode="." horiz-adv-x="233" d="M61 -10Q41 -10 31 0T21 24Q21 35 31 46T55 65T83 73Q94 73 103 67T113 45Q113 36 107 23T89 0T61 -10Z" />
<glyph unicode="/" horiz-adv-x="347" d="M-65 -162Q-43 -141 -15 -95T45 15T109 151T173 299T233 445T285 574T323 672Q327 683 342 693T379 711T422 719Q418 707 403 671T365 581T316 465T262 337T209 211T162 102T129 23Q91 -65 38 -113T-65 -162Z" />
<glyph unicode="0" horiz-adv-x="650" d="M263 -87Q194 -87 149 -51T82 47T60 181Q60 247 76 321T124 466T201 594T304 686T429 720Q493 720 540 689T613 598T640 453Q640 377 622 300T569 154T489 31T385 -55T263 -87ZM277 -44Q322 -44 363 -10T439 80T499 206T539
348T554 486Q554 543 542 587T502 658T429 684Q384 684 347 658T278 589T224 491T186 378T162 264T154 163Q154 69 187 13T277 -44Z" />
<glyph unicode="1" horiz-adv-x="383" d="M58 -87Q29 -87 5 -74T-38 -36Q-24 -37 -15 -38T7 -39Q31 -39 59 -36T113 -28Q130 12 146 72T176 200T203 338T227 468T249 571Q194 534 171 523T136 511Q123 511 116 518T108 548Q128 558 164 583T245 644T329 719Q335
714 337 704T340 683Q340 659 332 633T318 574Q308 507 295 431T264 275T224 121T172 -20Q182 -19 190 -19T209 -18Q247 -18 275 -30T312 -84Q289 -81 267 -80T225 -78Q195 -78 164 -80T106 -84T58 -87Z" />
<glyph unicode="2" horiz-adv-x="586" d="M425 -87Q393 -87 353 -75T269 -46T182 -12Q150 -32 121 -43T65 -54Q32 -54 11 -38T-10 5Q-10 28 9 42T71 56Q93 56 120 53T178 43Q224 82 271 141T357 269T420 410T444 544Q444 617 414 650T337 684Q292 684 262 657T217
588T202 498Q202 475 206 457T219 417Q216 417 212 417T204 418Q174 423 152 443T130 512Q130 566 158 613T235 690T350 720Q406 720 445 695T504 626T524 528Q524 485 513 439T482 348Q457 289 418 231T334 121T239 30Q307 15 360 5T448 -5Q471 -5 489 1T535 24Q520
-33 494 -60T425 -87ZM63 -18Q78 -18 94 -12T129 7Q109 13 92 17T62 21Q43 21 37 15T30 2Q31 -6 41 -12T63 -18Z" />
<glyph unicode="3" horiz-adv-x="531" d="M191 -87Q126 -87 88 -64T32 -7T15 60Q15 86 24 111T53 153T101 170Q106 170 112 170T130 167Q113 153 103 125T92 71Q92 42 105 15T142 -29T199 -46Q238 -46 274 -19T334 55T358 165Q358 204 347 241T308 308T231 350Q285
373 324 414T384 503T405 593Q405 643 378 663T315 684Q288 684 263 673T220 639T203 584Q203 569 208 552T222 516Q216 505 203 494T176 483Q163 483 153 496T137 529T132 568Q132 617 161 650T235 702T327 720Q369 720 406 705T468 659T492 583Q492 552 480 518T446
453T393 398T327 361Q382 344 413 312T458 242T472 169Q472 122 452 77T393 -6T304 -65T191 -87Z" />
<glyph unicode="4" horiz-adv-x="498" d="M326 -87Q284 -84 261 -71T238 -35Q238 -31 239 -16T247 33T263 127Q267 143 272 171T284 232Q263 233 242 234T210 235Q194 235 171 234T122 232T71 228T27 224T-1 218Q-1 240 10 255T39 286Q76 323 129 374T242 483T354
603T446 720Q453 717 459 710T466 688Q466 664 447 633Q442 610 432 561T408 443T379 293Q385 293 391 293T403 293Q434 293 452 295T490 303Q468 272 438 252T379 231Q377 231 374 231T367 231Q366 224 364 211T358 179Q354 153 349 117T338 42T330 -31T326 -87ZM106
295Q127 297 150 297T200 298Q227 298 251 298T298 296Q311 358 325 418T354 528Q322 497 286 464T213 398T146 334Q135 324 125 314T106 295Z" />
<glyph unicode="5" horiz-adv-x="503" d="M185 -87Q117 -87 78 -64T22 -8T5 59Q5 85 14 110T43 153T91 170Q96 170 102 170T121 167Q103 153 93 126T82 68Q82 40 92 14T125 -29T185 -46Q224 -46 254 -27T306 25T339 95T351 172Q351 212 337 247T294 303T215 325Q197
325 171 322T115 313Q119 344 129 387T152 479T178 573T203 656T219 714Q252 707 280 704T331 701Q374 701 413 707T494 721Q496 710 498 702T500 686Q500 657 480 641T430 617T369 610Q332 610 305 616T257 622Q251 622 248 619T240 608Q231 593 222 566T204 506T187
442T174 387T165 354Q185 358 206 360T248 363Q319 363 365 338T435 269T458 169Q458 98 424 40T328 -52T185 -87Z" />
<glyph unicode="6" horiz-adv-x="582" d="M272 -87Q195 -87 147 -54T77 37T55 165Q55 231 72 307T123 456T204 588T314 684T447 720Q492 720 521 705T550 658Q550 643 540 629T495 605Q495 613 496 620T497 636Q497 657 487 672T444 688Q396 688 355 656T280 570T221
451T179 321Q212 349 256 364T346 379Q398 379 442 358T513 294T540 181Q540 105 507 45T413 -51T272 -87ZM277 -46Q315 -46 345 -26T397 28T430 102T442 185Q442 238 425 271T378 319T311 335Q254 335 220 308T171 237T155 143Q155 116 160 84T179 22T216 -27T277
-46Z" />
<glyph unicode="7" horiz-adv-x="427" d="M115 -87Q100 -87 88 -75T75 -37Q75 -10 92 39T138 153T205 294Q186 294 161 293T111 289T65 284Q66 315 87 330T141 352T213 359Q220 359 226 359T239 359Q270 411 311 480T400 626Q378 626 351 625T296 622T245 620Q181
620 157 635T132 672Q132 692 148 719Q178 714 207 709T268 702T338 699Q386 699 435 705T523 723Q510 705 495 684T465 643Q422 581 383 512T302 355Q325 353 345 352T387 351Q402 351 415 352T441 356Q420 327 398 311T349 294Q333 294 315 294T274 294Q256 253
236 204T202 106T187 20Q187 7 190 -4T202 -21Q184 -58 157 -72T115 -87Z" />
<glyph unicode="8" horiz-adv-x="550" d="M225 -87Q172 -87 136 -71T79 -30T48 25T38 82Q38 125 58 160T109 224T179 281T254 337Q226 367 199 399T156 469T139 553Q139 613 167 649T241 702T331 719Q403 719 448 682T493 571Q493 523 474 484T423 412T351 348Q385
315 415 281T463 208T482 124Q482 60 445 13T350 -61T225 -87ZM235 -39Q271 -39 306 -20T365 36T389 119Q389 173 359 216T288 302Q244 271 203 238T136 167T110 83Q110 46 128 18T175 -24T235 -39ZM318 384Q364 423 394 468T425 571Q425 627 398 655T333 683Q311
683 287 672T245 634T228 565Q228 512 254 469T318 384Z" />
<glyph unicode="9" horiz-adv-x="587" d="M204 -87Q160 -87 130 -72T99 -23Q99 -8 109 6T152 30Q152 23 152 16T153 1Q155 -21 166 -38T207 -55Q254 -55 294 -23T366 63T421 182T457 312Q425 285 382 270T293 255Q238 255 193 277T120 346T93 461Q93 536 125 594T215
686T350 720Q433 720 483 683T554 583T576 447Q576 379 560 305T512 162T436 36T332 -53T204 -87ZM329 298Q404 298 439 345T474 470Q474 503 469 539T449 607T409 659T346 679Q310 679 281 660T232 608T201 537T190 457Q190 403 208 368T258 315T329 298Z" />
<glyph unicode=":" horiz-adv-x="239" d="M120 232Q106 232 94 239T82 263Q82 282 103 295T145 308Q159 308 167 302T175 279Q175 264 158 248T120 232ZM62 -10Q48 -10 37 -3T25 21Q25 40 45 53T88 66Q101 66 109 60T118 37Q118 22 101 6T62 -10Z" />
<glyph unicode=";" horiz-adv-x="238" d="M40 -88Q28 -81 22 -70T16 -46Q16 -25 25 0T49 44T81 63Q93 63 102 54T112 31Q86 3 72 -24T40 -88ZM119 233Q104 233 93 240T82 264Q82 283 102 296T144 309Q158 309 167 303T176 281Q176 265 159 249T119 233Z" />
<glyph unicode="&lt;" horiz-adv-x="322" d="M195 44Q176 44 150 56T97 88T51 127T27 163Q63 176 99 201T166 258T220 321Q224 317 227 308T231 289Q231 269 216 250T176 212T123 177T69 147Q90 133 109 121T157 97T232 67Q226 59 216 52T195 44Z" />
<glyph unicode="=" horiz-adv-x="512" d="M57 198Q63 223 90 235T158 251T246 255Q281 255 315 253T379 249T426 245Q393 222 362 215T310 208H212Q182 208 159 208T111 205T57 198ZM59 106Q63 131 90 143T158 159T248 163Q282 163 317 161T381 157T427 153Q395
130 364 123T311 116H214Q184 116 161 116T113 113T59 106Z" />
<glyph unicode="&gt;" horiz-adv-x="333" d="M110 44Q97 44 87 51T71 67Q117 84 145 96T192 121T231 147Q206 160 177 176T122 211T81 249T64 289Q64 296 67 304T73 319Q95 291 128 261T200 204T273 163Q269 148 251 128T207 88T155 57T110 44Z" />
<glyph unicode="?" horiz-adv-x="454" d="M254 121Q231 133 224 143T216 174Q216 221 235 259T282 333T339 403T387 480T406 572Q406 627 384 655T329 684Q294 684 260 657T203 583T180 481Q180 464 182 449T190 416Q145 424 130 445T115 498Q115 555 141 605T217
688T332 720Q398 720 437 685T477 584Q477 540 461 506T421 442T369 382T318 318T281 237Q271 203 269 177T254 121ZM212 -10Q197 -10 186 -2T175 21Q175 40 195 53T237 67Q251 67 260 61T269 40Q269 22 252 6T212 -10Z" />
<glyph unicode="@" horiz-adv-x="603" d="M233 -121Q156 -121 107 -91T34 -13T10 91Q10 147 33 201T98 299T201 369T336 395Q412 395 461 369T535 300T559 211Q559 174 545 138T507 72T451 24T380 6Q349 6 333 19T312 55Q310 62 310 68T310 82Q276 41 244 17T181
-7Q155 -7 136 10T116 63Q116 98 136 140T189 221T263 284T344 309Q377 309 400 292T423 251Q423 233 414 225T394 215T375 213Q377 218 377 224T378 235Q378 253 372 267T344 281Q316 281 287 258T233 198T194 125T179 61Q179 45 184 39T196 33Q210 33 234 50T284
95T333 152T368 205Q379 204 393 197T407 181Q407 170 396 151T373 111T361 70Q361 62 366 53T392 43Q423 43 451 66T499 127T518 205Q518 241 500 276T441 334T337 357Q273 357 221 334T132 271T75 184T55 87Q55 44 73 4T132 -62T242 -89Q294 -89 349 -70T459
-2L470 -16Q430 -61 371 -91T233 -121Z" />
<glyph unicode="A" horiz-adv-x="618" d="M36 -87Q9 -72 2 -56T-6 -28Q-6 -1 14 45T67 151T143 276Q110 278 83 279T20 280H-3Q10 314 39 327T109 341Q126 341 144 339T183 335Q233 408 283 475T377 595T455 680Q497 721 518 721Q531 721 547 711T581 685Q571
677 556 644T523 559T488 447T456 324T434 204T425 103Q425 64 433 44T461 24Q485 24 518 59T593 173L608 157Q578 75 530 23T427 -29Q381 -29 362 10T342 119Q342 145 345 177T356 251Q312 258 278 262T212 270Q164 185 119 94T36 -87ZM365 295Q379 357 397 419T436
539T476 642Q446 619 408 573T327 463T242 324Q273 317 304 310T365 295Z" />
<glyph unicode="B" horiz-adv-x="636" d="M153 -87Q94 -87 64 -68T34 -3Q34 5 43 5Q51 5 69 0T139 -5Q227 -5 300 14T428 65T512 138T542 222Q542 262 519 286T457 322T374 339T285 344Q266 344 247 344T211 343Q189 265 168 184T123 25Q95 25 75 40T54 77Q54
87 58 102T68 135Q74 154 88 199T123 305T169 433T221 565T274 681Q233 673 207 661T165 639T141 629Q136 629 127 635T111 650T104 664Q157 686 213 703T351 720Q386 720 428 715T508 693T570 644T595 558Q595 513 576 481T525 426T455 389T380 367Q446 361 488
344T555 303T589 255T599 206Q599 148 569 101T488 19T378 -39T259 -75T153 -87ZM220 376Q275 378 329 388T428 421T498 478T525 566Q525 616 500 642T433 679T346 690Q343 690 341 690T337 689Q302 621 274 541T220 376Z" />
<glyph unicode="C" horiz-adv-x="558" d="M240 -87Q165 -87 119 -51T51 41T29 159Q29 238 53 317T119 469T214 598T328 686T449 719Q492 719 520 699T549 630Q549 600 539 563T512 492T472 436T428 414Q419 414 409 420T391 442Q406 459 424 484T460 537T488 591T499
639Q499 657 489 668T453 680Q409 680 363 646T273 556T195 430T140 287T120 147Q120 99 134 55T181 -16T263 -44Q317 -44 370 -14T468 65T539 171L561 156Q527 90 479 35T370 -54T240 -87Z" />
<glyph unicode="D" horiz-adv-x="676" d="M182 -87Q148 -87 118 -78T65 -39Q71 -7 83 42T113 150T148 269T184 383T216 477T237 537Q240 545 247 561T264 593T289 621T320 633Q336 633 354 621Q323 550 292 464T232 287T180 110T140 -48Q150 -51 163 -52T188 -54Q253
-54 312 -23T421 60T509 178T567 315T588 452Q588 533 561 584T487 660T377 684Q312 684 260 660T179 594T149 499Q149 487 151 476T157 454Q117 454 100 472T83 516Q83 551 108 586T178 652T282 701T409 720Q505 720 562 683T646 583T672 442Q672 356 645 277T569
132T458 17T325 -60T182 -87Z" />
<glyph unicode="E" horiz-adv-x="521" d="M199 -87Q137 -87 90 -62T18 6T-8 99Q-8 144 11 187T66 266T147 326T249 357Q212 389 194 429T175 511Q175 564 202 611T277 689T389 719Q448 719 479 690T511 606Q511 568 498 533T465 475T427 453Q414 453 403 464T383
491Q419 522 444 556T470 627Q470 657 451 673T398 689Q353 689 322 662T275 591T259 499Q259 458 273 415T328 341Q257 330 206 291T126 200T97 97Q97 66 109 33T150 -23T226 -46Q280 -46 333 -16T430 64T501 171L524 156Q488 87 439 32T330 -55T199 -87Z" />
<glyph unicode="F" horiz-adv-x="509" d="M176 -87Q125 -83 111 -62T96 -7Q96 30 109 82T144 194T191 314Q179 313 159 311T116 307T72 300Q75 330 94 346T145 370T214 379Q241 453 269 523T325 651Q318 652 310 652T288 653Q226 653 192 640T146 602T133 540Q133
516 137 496T151 454Q108 461 90 483T71 538Q71 590 109 629T211 692T356 715Q409 715 460 708T559 701Q582 701 603 704T651 714Q606 665 578 648T521 631Q497 631 460 637T378 648Q365 615 350 572T318 479T286 378Q337 374 380 369T469 362Q458 347 446 339T414
327T360 321T268 318Q261 291 252 261T236 208T227 177Q201 87 189 25T176 -87Z" />
<glyph unicode="G" horiz-adv-x="575" d="M228 -87Q174 -87 129 -58T56 28T29 163Q29 240 53 319T118 469T214 597T327 686T447 719Q489 719 514 703T550 660T561 603Q561 568 549 534T515 476T469 453Q458 453 449 459T431 483Q445 493 463 518T496 575T510 631Q510
652 497 666T454 680Q410 680 363 646T272 556T195 429T140 287T119 149Q119 58 158 7T253 -44Q294 -44 328 -17T389 53T432 148T453 247Q424 253 399 255T347 258Q332 258 317 258T283 257Q291 290 310 304T359 319Q388 319 418 310T479 289T538 272L529 240Q510
187 499 150T481 87T473 39T470 -2Q470 -22 471 -43T474 -91Q448 -86 435 -74T416 -45T410 -11Q410 -4 410 3T413 18Q378 -28 332 -57T228 -87Z" />
<glyph unicode="H" horiz-adv-x="648" d="M66 -87Q72 -51 80 -15T99 67T129 171T172 309Q157 308 140 306T107 302Q107 332 130 348T193 372Q198 388 202 401T212 430T225 469T246 528T276 617Q279 624 284 639T289 669Q289 677 287 680T276 683Q254 683 233 665T195
618T168 559T158 505Q158 496 159 487T166 463Q127 463 110 481T93 526Q93 560 113 594T166 656T234 702T300 720Q330 720 341 704T353 667Q353 656 351 645T345 624L270 380Q283 381 296 381T323 381Q371 381 414 379T496 373Q519 450 537 506T570 602T595 666Q599
674 606 687T627 710T661 721Q648 685 630 628T593 503T556 368Q572 368 595 367T639 365Q611 336 588 330T545 323Q535 280 527 241T512 167Q498 96 492 45T485 -40Q485 -54 486 -65T489 -87Q442 -82 425 -63T408 1Q408 25 412 57T426 129Q434 164 448 212T481
322Q420 322 380 321T310 319T250 315Q243 293 235 266T214 200T186 109T145 -20Q135 -56 110 -71T66 -87Z" />
<glyph unicode="I" horiz-adv-x="488" d="M-25 -88Q-21 -47 2 -29T63 -5T144 1Q162 40 179 94T212 211T243 338T271 463T297 573T320 653Q268 652 230 650T158 642T87 630Q96 676 147 697T303 719Q355 719 410 715T511 706T583 697Q553 668 524 661T474 654Q441
654 415 654T365 653Q359 623 351 576T332 472T311 358T290 249T270 163Q256 107 238 64T194 0Q247 -4 302 -10T417 -19Q381 -53 347 -61T290 -70Q232 -70 190 -70T113 -72T46 -78T-25 -88Z" />
<glyph unicode="J" horiz-adv-x="430" d="M95 -86Q70 -86 43 -77T-3 -39T-22 47Q-22 87 -13 126T14 191T58 218Q71 218 93 208Q74 161 65 121T56 47Q56 6 72 -18T118 -42Q143 -42 163 -20T204 59Q220 102 237 163T271 293T303 431T331 559T351 658Q302 658 267
656T202 649T141 636Q147 679 188 698T315 718Q356 718 400 714T481 705T538 696Q524 672 497 666T452 659Q434 659 417 659T389 658Q398 650 401 638T405 617Q405 604 398 560T379 454T349 321T311 183T266 62Q239 4 212 -28T155 -73T95 -86Z" />
<glyph unicode="K" horiz-adv-x="621" d="M526 -87Q503 -87 473 -62T409 4T343 94T282 192T233 280L140 -20Q133 -44 116 -54T79 -66T39 -69Q52 -39 66 -4T97 82T139 204T199 377T283 617Q285 624 290 637T295 662Q295 672 291 677T274 683Q250 683 229 664T190
617T163 558T153 505Q153 484 162 463Q122 463 105 481T88 526Q88 560 109 594T162 656T230 702T296 720Q327 720 337 703T348 665Q348 654 346 644T340 624L263 374Q275 385 292 398T338 433Q390 474 442 522T539 621T615 722Q625 713 628 697T632 671Q632 640
607 604T540 528T449 451T352 379T264 321Q296 271 325 227T389 139T471 50T586 -48Q577 -64 560 -75T526 -87Z" />
<glyph unicode="L" horiz-adv-x="597" d="M424 -87Q387 -87 342 -72T249 -36T156 5Q131 -23 103 -38T41 -53Q7 -53 -17 -38T-54 -1T-67 38Q-67 57 -50 71T12 86Q38 86 70 81T137 66Q160 106 180 161T219 276T258 396Q209 412 182 442T155 504Q155 524 164 543T191
575T232 588Q221 574 218 555T214 522Q214 487 229 464T268 426Q287 484 308 537T356 631T415 696T487 720Q509 720 533 711T575 679T593 614Q593 580 579 541T535 467T457 408T343 383Q341 383 339 383T331 383Q311 324 290 264T244 148T191 51Q233 39 280 25T373
1T456 -9Q479 -9 498 -4T539 11Q520 -41 492 -64T424 -87ZM33 -19Q58 -19 75 -7T108 23Q77 35 50 43T0 51Q-19 51 -27 45T-35 28Q-35 12 -15 -3T33 -19ZM340 411Q384 413 419 438T478 499T516 573T529 639Q529 666 519 676T495 686Q465 686 439 648T389 548T340
411Z" />
<glyph unicode="M" horiz-adv-x="792" d="M-9 -87Q-4 -72 21 -17T89 130T187 344T311 615Q314 622 317 632T320 650Q320 661 314 667T289 674Q247 674 221 648T181 582T168 506Q168 496 169 486T171 463Q149 463 135 477T114 512T106 551Q106 584 124 614T172
668T238 706T309 720Q344 720 369 700T407 629T420 480Q420 416 416 349T406 220T401 112Q419 172 448 239T512 372T581 498T642 600T682 665Q696 686 707 697T736 708Q750 708 776 698Q767 679 755 640T729 547Q714 486 699 413T671 264T651 122T643 5Q643 -20
645 -34T652 -58T661 -87Q621 -87 600 -75T572 -35T565 37Q565 151 592 278T655 541Q627 502 597 447T536 329T480 205T432 91T400 3Q392 0 389 -1T381 -2Q349 -2 340 37T330 145Q330 185 331 233T335 333T339 433T341 523Q341 540 341 554T340 581Q262 401 209
274T120 67T53 -50T-9 -87Z" />
<glyph unicode="N" horiz-adv-x="663" d="M53 -87Q67 -38 85 21T129 162T187 354T265 617Q266 621 269 633T272 657Q272 665 269 669T258 674Q236 674 216 657T181 613T156 558T147 506Q147 484 156 463Q115 463 99 481T82 526Q82 560 103 594T156 656T223 702T287
720Q320 720 341 695T377 625T400 525T418 407Q428 337 434 289T446 208T455 149T463 100Q473 148 486 203T513 317T541 430T570 534T596 617T617 669Q625 684 644 702T692 721Q675 675 654 609T610 465T568 307T531 151T506 14T495 -87Q460 -87 438 -70T405 -3Q401
17 393 59T376 156T356 271T337 389T319 493T306 566Q260 399 228 284T171 96T129 -17T92 -72T53 -87Z" />
<glyph unicode="O" horiz-adv-x="644" d="M232 -87Q175 -87 129 -57T55 30T28 163Q28 240 52 318T119 469T216 597T333 686T458 719Q471 719 489 716T524 696Q517 697 512 697T500 698Q448 698 395 665T294 575T209 449T149 302T127 154Q127 102 141 57T185 -16T266
-44Q321 -44 369 -11T457 80T524 206T567 350T583 492Q583 521 579 554T565 610T538 634Q520 634 500 613T461 558T427 488T406 422Q375 429 362 443T348 477Q348 504 367 537T415 600T478 651T538 671Q567 671 585 650T612 597T626 528T630 459Q630 355 605 269T538
116T444 5T337 -64T232 -87Z" />
<glyph unicode="P" horiz-adv-x="548" d="M107 -87Q79 -87 54 -72T29 -32Q29 -20 33 -5T42 23Q73 119 100 202T155 363T214 519T283 682Q245 675 218 662T173 639T148 629Q143 629 134 635T119 650T112 664Q139 676 176 689T256 711T342 720Q388 720 436 708T524
671T589 610T614 525Q614 472 591 435T528 371T444 329T353 305T273 294T220 291H213Q184 191 157 92T107 -87ZM220 317Q276 321 332 336T434 378T508 446T536 541Q536 593 510 625T443 673T355 690Q318 619 285 521T220 317Z" />
<glyph unicode="Q" horiz-adv-x="716" d="M545 -119Q497 -119 457 -94T379 -38Q354 -50 328 -57T274 -64Q237 -64 214 -54T179 -28T163 2T158 26Q158 45 175 64T237 84Q279 84 318 66T400 22Q444 61 477 120T534 248T570 382T582 500Q582 582 551 633T447 684Q389
684 339 651T249 562T181 437T137 294T121 153Q121 132 123 108T132 58Q96 58 77 78T49 131T41 200Q41 275 61 349T117 490T204 609T316 690T446 720Q547 720 605 654T663 474Q663 412 646 345T599 214T529 94T439 0Q473 -17 509 -29T584 -41Q609 -41 620 -37T651
-27Q639 -67 621 -87T582 -113T545 -119ZM262 -35Q287 -35 309 -28T347 -12Q318 13 288 31T226 50Q205 50 196 42T187 21Q187 11 193 -2T216 -25T262 -35Z" />
<glyph unicode="R" horiz-adv-x="603" d="M491 -121Q468 -121 438 -95T374 -25T309 69T249 172T201 265Q174 171 149 80T101 -88Q74 -88 50 -73T26 -32Q26 -21 31 -6T40 23Q68 107 91 176T135 305T179 424T228 546T288 684Q248 677 218 664T169 640T143 629Q139
629 130 635T113 649T106 664Q134 675 170 688T251 710T342 720Q386 720 433 710T520 676T584 617T608 529Q608 481 587 447T530 388T452 349T367 326T289 315T231 311Q263 260 293 211T357 114T438 18T549 -81Q544 -98 526 -109T491 -121ZM222 337Q277 340 332
354T432 394T504 458T531 549Q531 602 505 632T438 676T352 690Q318 622 285 530T222 337Z" />
<glyph unicode="S" horiz-adv-x="557" d="M223 -87Q166 -87 115 -67T33 -7T1 95Q1 148 23 178T80 220T146 232Q116 200 100 164T84 95Q84 60 101 30T153 -20T240 -39Q285 -39 327 -23T397 23T425 100Q425 142 402 172T343 225T267 270T190 317T131 374T108 453Q108
494 128 540T186 628T277 694T397 720Q463 720 489 691T515 617Q515 580 503 538T472 459T436 394Q416 399 406 411T396 442Q396 463 405 489T425 544T445 599T454 647Q454 666 443 676T399 687Q352 687 312 666T243 611T197 542T180 476Q180 440 202 414T261 367T336
325T412 277T470 216T493 128Q493 76 470 36T407 -31T320 -72T223 -87Z" />
<glyph unicode="T" horiz-adv-x="523" d="M218 -87Q166 -87 147 -66T126 -12Q126 17 137 57T162 135Q183 198 208 266T261 401T313 530T362 643Q294 642 246 640T158 633T74 621Q78 660 111 681T202 711T332 720Q381 720 422 717T500 711T573 705Q604 690 614
686T619 682Q595 664 561 656T489 645T418 643Q375 538 335 413T257 154Q244 104 235 68T220 1T215 -60Q215 -65 215 -71T218 -87Z" />
<glyph unicode="U" horiz-adv-x="735" d="M572 -99Q535 -99 510 -67T485 11Q485 21 486 38T490 76Q453 4 401 -42T276 -88Q210 -88 174 -48T138 59Q138 101 150 153T180 263T217 378T247 491T259 593Q259 683 205 683Q178 683 159 666T127 622T108 569T101 522Q101
507 104 491T113 463Q68 463 49 484T30 537Q30 568 45 600T87 659T151 702T229 719Q288 719 314 685T340 593Q340 556 331 511T308 418T280 324Q255 245 238 183T221 72Q221 26 240 -6T305 -38Q346 -38 380 -13T439 54T483 141T510 226Q524 285 541 352T576 485T614
603T651 687T687 719Q696 719 712 710T746 683Q738 676 721 641T683 550T641 427T602 290T573 156T562 43Q562 -21 582 -42T651 -64Q637 -81 615 -90T572 -99Z" />
<glyph unicode="V" horiz-adv-x="657" d="M233 -87Q218 -87 196 -81T158 -56T141 -1Q141 29 153 74T183 174T220 293T250 423T263 557Q263 592 259 621T242 666T202 683Q175 683 157 668T127 627T110 575T104 525Q104 508 107 493T117 463Q71 463 51 485T31 541Q31
571 46 602T87 660T147 703T221 720Q287 720 320 671T354 537Q354 481 342 420T311 298T274 179T242 73T229 -11Q229 -27 234 -37T255 -47Q283 -47 320 -20T396 55T472 163T539 288T587 417T605 535Q605 587 587 613T542 649Q556 677 574 689T608 702Q633 702 656
671T679 578Q679 524 659 455T602 310T521 165T426 37T327 -53T233 -87Z" />
<glyph unicode="W" horiz-adv-x="937" d="M234 -87Q224 -87 209 -84T177 -73T151 -47T141 -1Q141 27 153 73T189 195Q206 252 223 310T251 428T263 553Q263 593 259 622T241 668T202 684Q177 684 159 670T128 633T110 583T104 530Q104 490 117 463Q71 463 51 485T31
541Q31 571 46 602T87 660T147 703T221 720Q287 720 320 671T354 533Q354 462 335 386T289 224Q277 186 263 146T239 65T229 -11Q229 -30 234 -38T254 -47Q280 -47 310 -24T372 39T432 126T485 225T526 321T547 401Q583 401 601 382T620 344Q620 332 610 305T581
233Q565 196 549 154T521 71T510 -7Q510 -27 515 -37T536 -47Q564 -47 601 -19T677 57T753 165T820 291T868 419T886 535Q886 588 868 611T822 643Q839 671 857 683T891 696Q914 696 937 668T960 578Q960 524 940 455T884 311T803 165T707 37T606 -53T510 -87Q486
-87 466 -78T433 -50T421 -5Q421 8 425 24T434 59Q385 -6 334 -46T234 -87Z" />
<glyph unicode="X" horiz-adv-x="691" d="M38 -112Q41 -85 47 -68T64 -38T89 -9Q122 26 149 56T203 115T257 178T318 253Q315 287 313 316T308 371T306 423T304 479Q301 551 298 597T284 665T245 687Q220 687 202 672T171 632T152 580T145 528Q145 494 157 469Q111
469 93 490T74 542Q74 574 90 605T132 663T194 706T267 722Q312 722 338 699T378 637T395 551T399 455T402 361Q480 468 535 560T624 726Q632 721 641 705T650 675Q650 655 631 616T577 526T499 414T403 292Q406 229 412 170T430 65T458 -9T499 -36Q530 -36 573
20T673 175L691 160Q651 80 618 27T550 -54T473 -82Q430 -82 403 -57T360 10T336 100T323 193Q265 123 209 61T107 -47T38 -112Z" />
<glyph unicode="Y" horiz-adv-x="693" d="M276 -187Q216 -187 175 -162T134 -90Q134 -60 151 -37T204 -5Q199 -28 197 -42T194 -69Q194 -109 216 -132T284 -155Q320 -155 348 -141T397 -103T434 -47T461 17T480 82Q494 136 503 195T525 300Q486 233 435 190T313
147Q249 147 222 183T195 272Q195 310 205 354T228 444T250 532T260 609Q260 639 249 661T205 683Q178 683 159 667T126 625T107 571T101 516Q101 501 103 490T111 463Q66 463 48 484T29 537Q29 567 44 599T86 659T149 703T227 720Q267 720 292 705T328 666T340
613Q340 589 332 555T310 471Q296 422 286 377T275 291Q275 249 291 223T346 196Q380 196 410 216T468 271T517 349T556 439Q569 483 582 531T611 623T644 693T680 720Q690 720 708 711T744 684Q722 651 707 621T678 556T650 474T619 358T579 193Q566 142 550 88T511
-15T456 -103T380 -164T276 -187Z" />
<glyph unicode="Z" horiz-adv-x="664" d="M476 -87Q436 -87 391 -73T302 -38T218 1Q183 -25 151 -39T86 -54Q55 -54 33 -41T-2 -8T-14 31Q-14 52 4 69T69 86Q98 86 133 79T208 61Q255 109 304 176T398 316Q367 315 338 313T265 304L234 300Q236 332 257 349T313
373T389 380Q402 380 412 380T434 378Q473 443 502 502T548 603Q529 609 511 615T469 630Q399 656 351 669T267 683Q236 683 211 670T171 626T156 536Q156 538 157 532T160 518T164 505Q128 511 112 530T96 582Q96 649 148 684T297 720Q352 720 399 711T490 689T573
667T654 657Q664 657 676 657T698 660Q679 641 665 631T639 616Q618 566 586 503T513 371Q549 368 573 366T625 363Q610 343 595 334T554 322T482 318Q434 241 379 169T269 44Q334 25 398 8T510 -9Q533 -9 553 -4T593 11Q573 -43 545 -65T476 -87ZM79 -23Q98 -23
119 -11T165 22Q134 35 106 44T56 53Q35 53 26 46T17 27Q17 11 34 -6T79 -23Z" />
<glyph unicode="[" horiz-adv-x="423" d="M221 -87Q188 -87 153 -83T88 -74T42 -66Q44 -61 47 -54T54 -30T66 23T84 118T112 271T152 497Q168 582 191 626T239 687T287 704Q301 704 320 703T362 701Q388 701 416 705T469 723Q468 682 452 663T411 637T357 631Q332
631 305 637T250 648Q236 606 222 548T196 424T171 291T149 162T129 52T112 -23Q166 -23 202 -22T263 -19T310 -13T355 -2Q354 -45 322 -66T221 -87Z" />
<glyph unicode="\" horiz-adv-x="589" d="M470 -165Q423 -157 392 -112T333 26Q323 61 312 109T287 215T260 336T232 466T202 598T170 723Q196 723 217 707T245 672Q260 633 277 572T312 435T348 281T383 128T416 -9T446 -113T470 -165Z" />
<glyph unicode="]" horiz-adv-x="441" d="M5 -88Q7 -55 24 -38T66 -14T118 -7Q144 -7 177 -10T242 -15Q259 32 275 103T307 254T337 414T364 559T386 667H321Q262 666 214 662T118 644Q118 693 153 707T249 721Q292 721 337 716T429 700Q428 684 423 647T410 558T393
450T375 335T357 226T340 135Q336 111 328 77T305 9T267 -47T207 -70Q151 -70 99 -72T5 -88Z" />
<glyph unicode="^" horiz-adv-x="208" d="M186 406Q170 434 153 452T114 491Q85 482 62 470T13 440Q6 445 4 451T1 463Q1 478 14 493T47 520T85 541T115 549Q127 549 142 539T173 511T198 476T208 442Q208 432 203 422T186 406Z" />
<glyph unicode="_" horiz-adv-x="873" d="M-8 -71Q-3 -33 39 -14T154 12T321 19Q392 19 448 17T553 11T647 4T743 1Q694 -31 650 -43T575 -56Q496 -56 429 -55T311 -51T226 -50Q184 -50 154 -51T99 -54T48 -61T-8 -71Z" />
<glyph unicode="`" horiz-adv-x="134" d="M113 403Q91 431 64 457T-2 515Q0 534 8 542T27 551Q42 551 60 537T96 503T124 464T135 436Q135 430 130 419T113 403Z" />
<glyph unicode="a" horiz-adv-x="441" d="M53 -47Q21 -47 -2 -26T-26 39Q-26 75 -10 116T34 197T98 270T174 323T255 343Q297 343 325 322T354 265Q354 238 337 227T295 220Q297 228 298 237T300 256Q300 277 291 293T256 309Q228 309 199 290T143 240T95 172T62
99T50 35Q50 1 75 1Q98 1 125 23T181 79T236 148T281 211Q285 216 288 216Q293 215 304 212T324 202T333 186Q333 176 324 161T304 126T284 88T275 51Q275 38 282 26T307 13Q332 13 375 49T464 169L480 153Q457 99 424 58T353 -6T279 -30Q239 -30 220 -6T199 48Q199
51 199 54T200 61Q159 10 125 -18T53 -47Z" />
<glyph unicode="b" horiz-adv-x="404" d="M101 -73Q46 -73 18 -38T-11 58Q-11 107 6 174T51 315T113 460T184 588T251 680T305 714Q324 714 333 692T343 647Q343 619 331 579T297 494T246 405T183 325T112 267Q106 255 95 222T75 147T66 64Q66 23 78 -4T119 -32Q146
-32 176 -9T226 50Q189 70 171 106T152 181Q152 230 178 259T240 289Q271 289 291 265T311 192Q311 162 303 129T279 63Q284 62 288 62T300 61Q335 61 359 79T401 124T428 171L442 153Q416 91 379 63T290 34Q284 34 278 34T265 36Q238 -9 197 -41T101 -73ZM241
79Q250 100 255 122T260 169Q260 205 252 223T230 241Q216 241 206 222T196 176Q196 153 205 125T241 79ZM129 322Q155 345 179 376T225 443T262 513T289 574T300 618Q300 621 300 622T299 624Q290 622 269 596T222 526T171 429T129 322Z" />
<glyph unicode="c" horiz-adv-x="330" d="M111 -56Q60 -56 27 -24T-6 75Q-6 124 13 171T65 256T136 316T215 338Q257 338 274 316T292 267Q292 238 279 213T242 188Q223 188 211 206Q223 213 234 234T245 282Q245 292 241 297T225 302Q199 302 172 279T120 220T81
143T66 68Q66 39 81 15T138 -9Q177 -9 217 13T294 75T351 170L369 154Q345 94 304 47T212 -28T111 -56Z" />
<glyph unicode="d" horiz-adv-x="485" d="M66 -30Q47 -30 29 -21T-3 8T-16 58Q-16 91 0 132T43 214T107 289T183 344T263 365Q285 365 297 358T310 333Q310 328 309 323T302 313Q297 320 288 322T266 325Q233 325 203 307T148 258T104 194T75 127T65 71Q65 51
73 39T98 27Q125 27 163 59T240 152T312 296Q334 353 358 412T406 527T453 626T497 694T536 720Q546 720 553 712T561 692Q561 676 545 638T502 548T447 434T392 308T350 183T333 69Q333 44 337 34T354 23Q376 23 403 40T458 91T509 171L525 158Q504 104 471 63T399
-2T323 -26Q284 -26 269 -1T253 57Q253 73 256 93T264 136Q233 88 198 51T130 -8T66 -30Z" />
<glyph unicode="e" horiz-adv-x="338" d="M113 -44Q50 -44 17 -10T-16 75Q-16 120 6 169T67 262T150 333T241 361Q266 361 288 348T311 296Q311 258 289 225T230 165T149 123T60 102Q59 96 58 90T57 74Q57 66 59 53T69 26T93 3T135 -6Q177 -6 219 18T299 81T361
169L378 155Q351 95 309 51T217 -19T113 -44ZM69 133Q95 138 128 153T191 192T240 244T260 301Q260 312 256 317T242 322Q218 322 193 305T143 260T99 199T69 133Z" />
<glyph unicode="f" horiz-adv-x="324" d="M-5 -280Q-16 -280 -30 -273T-56 -246T-67 -187Q-67 -143 -52 -74T-12 81T48 255T122 427T204 576T287 681T367 720Q391 720 398 706T406 671Q406 628 383 577T320 475T233 377T135 298Q131 287 127 277T118 255Q129 251
135 242T143 221Q151 177 159 143T183 90T231 70Q266 70 292 96T346 169L365 155Q336 92 297 64T226 35Q208 35 190 42T154 64Q153 1 140 -60T104 -170T53 -250T-5 -280ZM22 -223Q33 -223 46 -204T71 -153T94 -83T111 -8T118 60Q118 90 111 113T87 167Q63 96 45
30T16 -89T5 -178Q5 -223 22 -223ZM160 358Q222 416 266 472T334 572T358 634Q358 644 348 644Q324 644 292 606T226 502T160 358Z" />
<glyph unicode="g" horiz-adv-x="398" d="M46 -280Q22 -280 2 -266T-19 -218Q-19 -187 -1 -162T48 -115T113 -75T180 -41Q192 -11 203 23T224 98Q188 50 149 19T68 -13Q30 -13 8 14T-15 87Q-15 140 11 186T79 269T168 326T258 347Q289 347 304 336T319 311Q319
300 313 294T304 286Q296 296 286 299T261 303Q222 303 186 281T122 224T78 152T62 83Q62 62 71 51T94 39Q123 39 163 76T240 167Q243 177 244 185T248 202Q256 234 269 252T307 271Q312 271 319 271T334 268Q334 250 324 209T297 112T258 -1Q290 13 321 37T380
94T421 167L437 152Q422 106 389 69T317 4T246 -39Q218 -105 187 -160T121 -247T46 -280ZM42 -239Q61 -239 93 -203T164 -81Q126 -100 94 -119T42 -161T22 -208Q22 -222 28 -230T42 -239Z" />
<glyph unicode="h" horiz-adv-x="488" d="M46 -38Q25 -38 15 -5T5 72Q5 119 21 184T63 321T121 463T188 589T254 680T308 714Q328 714 338 692T348 646Q348 618 336 579T301 494T250 405T186 325T115 267Q103 235 95 204T84 143T80 88Q80 81 80 75T82 63Q89 81
100 110T128 173T167 236T219 284T283 303Q315 303 333 289T359 252T367 207Q367 176 357 148T336 94T325 45Q325 27 333 19T353 11Q375 11 404 33T463 91T512 172L527 157Q505 107 475 66T407 1T329 -24Q292 -24 273 -5T254 44Q254 65 261 90T276 142T283 191Q283
215 273 225T247 235Q222 235 202 215T166 164T135 99T108 33T79 -18T46 -38ZM134 323Q160 346 185 378T231 447T269 517T294 578T305 620Q305 622 305 623T303 624Q297 624 277 599T231 530T178 433T134 323Z" />
<glyph unicode="i" horiz-adv-x="243" d="M77 -29Q35 -29 14 -4T-7 59Q-7 82 1 117T23 190T57 263T97 318T140 340Q152 340 160 333T168 313Q168 300 153 274T116 213T80 142T64 71Q64 38 76 27T111 16Q145 16 184 50T267 169L280 155Q247 67 193 19T77 -29ZM196
425Q178 425 164 433T149 461Q149 485 174 501T227 518Q244 518 255 510T266 483Q266 462 244 444T196 425Z" />
<glyph unicode="j" horiz-adv-x="224" d="M-136 -280Q-164 -280 -179 -264T-195 -224Q-195 -185 -160 -143T-68 -68Q-52 -60 -36 -52T-1 -36Q17 8 32 62T60 182Q49 163 39 147T21 117L6 140Q24 173 38 209T64 277T91 329T122 349Q135 349 143 339T151 314Q151
303 146 273T132 199T108 104T76 1Q105 18 133 36T189 84T246 163L262 153Q233 90 198 56T128 1T62 -38Q40 -99 10 -154T-57 -245T-136 -280ZM-146 -237Q-128 -237 -93 -198T-20 -81Q-90 -116 -125 -152T-160 -217Q-160 -228 -156 -232T-146 -237ZM138 428Q120
428 106 437T91 464Q91 481 103 494T134 514T170 522Q186 522 197 514T208 489Q208 465 187 447T138 428Z" />
<glyph unicode="k" horiz-adv-x="457" d="M310 -38Q280 -38 258 -19T223 31T204 92T197 146Q210 148 231 154T274 170T311 197T326 237Q326 256 313 267T280 279Q251 279 225 260T178 209T139 141T109 71T87 13Q78 -13 68 -22T40 -31Q30 -31 21 -24T8 1T3 50Q3
108 20 179T65 326T128 470T196 594T261 681T310 714Q326 714 336 694T347 644Q347 610 332 568T290 484T225 403T141 338Q112 267 97 200T78 82Q95 122 118 167T169 251T231 315T301 340Q340 340 368 313T397 245Q397 215 381 193T342 156T294 135T254 128Q256
116 261 96T276 56T299 21T332 7Q359 7 385 29T436 89T481 173L494 158Q478 109 449 64T383 -10T310 -38ZM166 396Q200 425 231 464T283 544T305 619Q305 622 305 623T304 624Q294 622 272 590T221 508T166 396Z" />
<glyph unicode="l" horiz-adv-x="242" d="M85 -30Q39 -30 21 1T2 75Q2 124 20 190T67 328T132 470T203 596T269 686T318 720Q330 720 338 707T352 676T357 642Q357 615 344 572T306 476T248 369T174 265T88 179Q84 154 81 129T77 83Q77 46 88 29T120 11Q146 11
172 35T223 95T265 171L286 159Q244 72 193 21T85 -30ZM103 232Q138 268 169 312T226 403T273 492T304 570T316 625Q316 629 315 630T314 632Q306 632 288 609T245 545T194 453T144 344T103 232Z" />
<glyph unicode="m" horiz-adv-x="655" d="M517 -31Q479 -31 461 -9T443 45Q443 69 450 92T464 139T472 181Q472 199 465 206T447 213Q423 213 393 177T317 72Q301 48 288 22T264 -23Q256 -23 242 -20T218 -12T207 1Q207 10 217 36T240 97T262 166T272 225Q272
240 267 248T250 257Q229 257 199 232T136 165T75 74T28 -27Q17 -27 2 -23T-24 -13T-35 -2Q-35 1 -27 29T-8 98T14 182T31 258Q35 267 52 275T83 283Q97 283 105 275T114 253Q114 242 109 219T96 167Q117 196 141 225T191 279T244 317T297 332Q332 332 344 307T357
251Q357 234 354 217T346 183T335 150Q355 182 378 209T429 253T487 270Q524 270 538 248T552 199Q552 173 544 144T526 88T517 42Q517 31 522 22T544 13Q571 13 596 38T642 99T678 169L694 151Q678 109 653 67T593 -3T517 -31Z" />
<glyph unicode="n" horiz-adv-x="471" d="M332 -20Q295 -20 276 -1T256 47Q256 68 263 90T277 136T284 182Q284 206 273 215T247 224Q217 224 186 199T124 137T68 58T23 -15Q5 -15 -11 -9T-38 12Q-37 17 -27 42T-3 104T20 180T31 252Q38 259 52 267T81 275Q113
275 113 246Q113 233 107 205T91 143Q118 180 149 214T216 270T287 292Q328 292 347 264T367 200Q367 170 357 144T338 94T328 47Q328 30 335 23T354 15Q378 15 403 38T452 97T494 169L509 156Q488 107 462 67T404 4T332 -20Z" />
<glyph unicode="o" horiz-adv-x="370" d="M67 -32Q23 -32 6 -4T-11 61Q-11 93 -1 126T26 188T64 235T107 253Q113 253 121 251T134 244Q123 232 111 210T88 163T71 112T64 65Q64 42 72 29T98 16Q118 16 145 37T198 90Q167 117 153 152T138 233Q138 258 149 286T183
333T243 352Q285 352 301 329T318 272Q318 235 299 189T252 100Q266 92 283 92Q298 92 319 99T359 122T391 166L407 154Q386 105 350 83T279 60Q266 60 253 62T229 70Q195 28 153 -2T67 -32ZM221 120Q246 155 262 195T279 270Q279 295 272 306T251 318Q231 318
211 291T191 221Q191 197 198 168T221 120Z" />
<glyph unicode="p" horiz-adv-x="406" d="M-58 -280Q-66 -280 -74 -274T-89 -261T-95 -251Q-74 -186 -58 -138T-30 -44T-6 54T16 178T39 352Q41 363 44 368T62 373Q91 373 104 357T117 322Q117 311 113 283T100 215Q118 245 143 273T199 321T266 340Q314 340 344
308T375 222Q375 183 358 140T309 58T233 -5T135 -30Q105 -30 87 -23T69 -7Q69 -1 76 0T93 2Q138 2 175 21T241 72T285 139T301 211Q301 241 288 263T245 286Q219 286 194 270T146 229T107 177T81 129Q62 60 46 -6T15 -129T-14 -224T-43 -274Q-50 -280 -58 -280Z"
/>
<glyph unicode="q" horiz-adv-x="412" d="M209 -280Q193 -280 181 -264T168 -203Q168 -171 174 -122T192 -19T218 84Q178 32 140 -1T66 -34Q49 -34 30 -25T-1 4T-14 56Q-14 91 2 132T46 213T111 285T189 337T273 357Q310 357 334 342T359 303Q359 295 356 285T343
270Q335 265 321 269Q321 290 307 304T265 319Q232 319 202 300T146 252T103 188T74 122T64 68Q64 49 73 36T98 23Q117 23 140 42T187 91T235 158T284 230Q292 242 298 249T311 262Q318 267 332 264T351 256Q358 249 358 239Q358 220 342 194T305 129T270 29Q312
34 354 65T435 166L451 152Q415 77 367 43T270 1Q278 -24 282 -51T287 -107Q287 -155 277 -194T250 -257T209 -280ZM232 -218Q238 -218 242 -200T249 -155T251 -100Q251 -82 250 -69T246 -43Q237 -88 232 -126T226 -195Q226 -208 227 -213T232 -218Z" />
<glyph unicode="r" horiz-adv-x="358" d="M181 -26Q145 -26 123 -7T101 44Q101 72 115 104T143 168T158 225Q158 251 142 266T106 293Q83 236 57 184T13 104L0 129Q14 155 37 203T81 313Q71 323 71 339Q71 366 87 388T117 410Q128 410 132 398T137 380Q137 375
132 362T126 343Q126 331 142 321T179 296T216 261T232 208Q232 178 219 148T193 91T180 45Q180 29 188 24T207 19Q231 19 257 34T307 72T351 120T380 167L400 152Q381 109 346 68T268 1T181 -26Z" />
<glyph unicode="s" horiz-adv-x="349" d="M113 -51Q64 -51 35 -31T-7 21T-20 84Q-20 113 -12 129T8 153T30 165T45 173Q72 202 98 237T143 313V324Q143 363 156 379T186 395Q197 395 202 390T207 377Q207 372 205 363T202 339Q202 308 216 270T244 188T258 100Q258
87 257 77T253 56Q286 63 316 89T374 169L385 160Q366 103 330 71T246 31Q230 -11 194 -31T113 -51ZM109 -10Q126 -10 144 -1T173 32Q131 41 99 64T48 113Q32 110 32 83Q32 49 51 20T109 -10ZM180 58Q182 66 182 76T183 94Q182 140 171 184T150 274Q130 240 106
205T60 147Q75 118 106 93T180 58Z" />
<glyph unicode="t" horiz-adv-x="287" d="M89 -46Q45 -46 20 -21T-6 57Q-6 99 10 161T50 289Q42 291 33 292T15 298V325Q28 323 38 322T61 320Q82 373 106 423T155 512T201 574T239 597Q249 597 257 590T265 570Q265 551 245 514T194 426T135 317Q143 317 151
317T168 317Q208 317 244 318T317 324V296Q262 290 217 287T132 284Q129 284 126 284T119 284Q97 233 82 180T66 77Q66 35 79 18T121 0Q171 0 223 46T313 170L327 160Q302 102 264 55T182 -19T89 -46Z" />
<glyph unicode="u" horiz-adv-x="440" d="M76 -30Q42 -30 21 1T-1 73Q-1 101 8 139T32 213T61 274T89 298Q96 298 109 291T133 274Q122 258 107 224T79 152T67 81Q67 76 68 61T76 32T99 19Q116 19 136 37T176 86T216 151T251 218T277 272Q285 271 298 268T322
258T333 241Q333 238 324 216T301 163T279 100T269 44Q269 29 275 18T298 7Q319 7 348 26T409 81T464 168L478 157Q456 103 422 61T348 -6T271 -30Q243 -30 228 -18T208 15T202 56Q202 63 202 71T204 86Q187 57 167 31T124 -13T76 -30Z" />
<glyph unicode="v" horiz-adv-x="409" d="M71 -39Q36 -39 23 -7T9 78Q9 86 10 114T13 201Q15 230 20 240T49 251Q71 251 75 243T80 208Q80 177 77 140T74 68Q74 38 77 24T93 9Q111 9 132 29T176 80T218 148T253 218Q255 286 268 309T303 332Q326 332 335 317T344
290Q344 276 336 263T319 228T311 163Q311 148 313 131T325 103T355 91Q375 91 394 107T433 165L445 155Q422 102 395 82T341 61Q308 61 287 87T257 156Q233 109 202 65T137 -9T71 -39Z" />
<glyph unicode="w" horiz-adv-x="626" d="M288 -38Q255 -38 244 -9T231 61Q231 75 232 97T235 136Q214 96 189 58T135 -5T76 -30Q43 -30 21 0T-1 73Q-1 102 8 140T32 214T62 275T89 299Q96 299 113 292T132 273Q121 256 106 223T79 151T67 80Q67 74 68 59T77 31T99
19Q121 19 146 46T196 116T244 202Q253 244 259 263T271 287T286 292Q303 292 313 286T323 266Q323 264 322 258T319 250Q312 228 307 196T298 129T295 60Q295 36 298 23T314 9Q328 9 347 26T387 73T428 136T464 205Q464 257 471 284T491 321T517 332Q540 332 549
317T558 291Q558 282 554 274T546 258Q539 243 532 221T525 164Q525 147 528 130T541 101T570 89Q589 89 607 105T647 165L664 151Q642 100 615 82T562 63Q530 63 508 86T473 146Q448 102 417 60T353 -10T288 -38Z" />
<glyph unicode="x" horiz-adv-x="426" d="M51 -59Q44 -59 40 -53T36 -41Q36 -27 57 3T112 74T185 157Q178 206 170 234T140 263Q117 263 98 242T61 187T23 120L9 144Q23 170 35 198T63 253T100 295T157 311Q197 311 217 287T246 223Q292 269 329 300T380 332Q386
332 396 327T411 311Q398 311 374 293T319 244T254 176Q257 156 259 130T266 78T281 35T310 18Q327 18 347 33T386 71T422 120T449 168L463 154Q447 110 418 69T354 0T281 -27Q250 -27 233 -8T206 40T192 101Q151 54 118 13T67 -51Q60 -59 51 -59Z" />
<glyph unicode="y" horiz-adv-x="396" d="M46 -280Q21 -280 1 -265T-20 -219Q-20 -187 -2 -162T45 -115T108 -76T177 -41Q189 -10 203 35T228 124Q197 78 162 44T83 9Q65 9 46 16T13 42T0 91Q0 118 9 155T33 227T63 285T91 309Q96 309 107 305T128 294T141 279Q132
267 121 244T100 193T84 138T77 92Q77 76 83 65T108 54Q129 54 152 72T199 118T240 177Q243 186 245 199T251 228Q255 244 267 259T303 275Q310 275 316 274T332 271Q332 256 322 213T294 112T255 -4Q299 13 344 53T417 165L433 153Q418 103 388 67T319 5T243 -38Q216
-103 185 -158T120 -247T46 -280ZM38 -245Q56 -245 90 -205T161 -79Q126 -97 93 -118T38 -164T16 -216Q16 -225 21 -235T38 -245Z" />
<glyph unicode="z" horiz-adv-x="326" d="M4 -280Q-30 -280 -49 -267T-69 -224Q-69 -191 -48 -164T10 -113T91 -63T179 -8Q179 25 162 54T100 116Q138 127 164 151T203 204T217 259Q217 278 208 293T177 308Q146 308 120 282T71 215T26 127L9 141Q31 200 55 248T112
324T192 353Q230 353 257 331T285 266Q285 233 269 203T227 149T171 109Q194 91 211 69T237 24Q274 53 303 87T348 165L361 150Q346 106 316 68T246 1Q248 -6 249 -14T250 -32Q250 -77 230 -120T175 -200T96 -258T4 -280ZM-8 -245Q10 -245 38 -231T97 -191T149
-128T178 -42Q140 -67 102 -88T32 -130T-17 -172T-36 -216Q-36 -231 -28 -238T-8 -245Z" />
<glyph unicode="{" horiz-adv-x="289" d="M127 -87Q86 -87 70 -66T54 -17Q54 10 65 40T90 104T116 171T127 236Q127 261 118 287T80 335Q120 339 139 366T166 434T177 521Q180 558 184 593T197 657T226 703T279 720Q291 720 305 715T329 697T333 657Q319 665 311
668T296 672Q276 672 265 648T249 586T237 506Q232 462 226 423T207 356T170 322Q182 309 187 294T192 254Q192 211 181 173T156 100T130 35T118 -25Q118 -38 126 -45T149 -53Q166 -53 179 -44Q177 -71 161 -79T127 -87Z" />
<glyph unicode="|" horiz-adv-x="282" d="M70 -132Q83 -98 93 -42T111 85T125 230T137 379T148 517T158 629T170 698Q187 691 194 677T204 648T206 620Q206 582 205 525T200 401T194 268T187 146T180 54Q172 -31 147 -81T70 -132Z" />
<glyph unicode="}" horiz-adv-x="286" d="M59 -87Q46 -87 32 -81T7 -61T-3 -21Q21 -37 37 -37Q57 -37 68 -12T86 52T97 132Q102 176 109 220T131 298T172 348Q159 364 154 381T148 418Q148 450 158 485T183 555T207 617T218 663Q218 674 213 678T199 682Q193 682
185 679T167 669Q165 690 182 708T233 726Q259 726 273 715T288 683Q288 664 277 636T252 575T226 505T215 433Q215 408 223 382T260 337Q221 327 201 297T172 224T160 134Q157 94 154 54T141 -17T113 -68T59 -87Z" />
<glyph unicode="~" horiz-adv-x="463" d="M290 125Q266 125 233 135T165 156T104 167Q95 167 81 166T53 159Q70 180 91 193T138 207Q156 207 180 201T230 187T282 173T329 167Q337 167 347 168T378 173Q352 146 331 136T290 125Z" />
<glyph unicode="&#xa0;" horiz-adv-x="260" />
<glyph unicode="&#xa1;" horiz-adv-x="286" d="M-41 -250Q-50 -250 -58 -242T-66 -222Q-66 -208 -51 -168T-9 -73T50 46T115 171T178 284T229 367Q231 366 233 365T238 363Q235 332 226 297T205 231T183 175Q163 123 140 65T93 -49T46 -150T0 -223T-41 -250ZM235
404Q221 404 213 410T204 432Q204 449 222 464T261 480Q276 480 287 473T298 449Q298 431 278 418T235 404Z" />
<glyph unicode="&#xa2;" horiz-adv-x="418" d="M73 -162Q87 -146 104 -106T138 -10T172 111Q123 113 90 146T57 241Q57 286 74 328T121 407T187 468T261 504Q271 553 279 597T291 672Q293 686 302 700T346 721L308 511Q348 511 367 489T387 431Q387 404 376 382T341
359Q323 359 309 377Q320 383 328 402T337 442Q337 456 327 465T300 473Q286 394 271 314T241 162Q272 168 302 182T360 221L380 199Q347 169 310 148T233 118Q214 32 195 -31T147 -128T73 -162ZM184 159Q204 234 220 308T252 454Q217 433 190 396T146 316T130
236Q130 210 142 187T184 159Z" />
<glyph unicode="&#xa3;" horiz-adv-x="677" d="M477 -87Q441 -87 396 -72T303 -36T209 5Q184 -23 156 -38T95 -53Q61 -53 37 -38T-1 -1T-14 38Q-14 57 3 71T65 86Q92 86 124 81T190 66Q224 131 252 215T311 396Q264 412 237 441T209 504Q209 523 218 542T244 575T285
588Q275 575 272 557T268 524Q268 489 282 465T322 426Q348 505 378 571T449 679T541 720Q562 720 586 711T628 679T646 614Q646 580 632 540T586 464T505 405T384 383Q359 307 337 247T294 139T245 51Q290 37 337 24T429 1T509 -9Q533 -9 552 -4T592 11Q574 -41
546 -64T477 -87ZM84 -20Q106 -20 126 -8T162 23Q131 35 103 43T53 51Q36 51 26 46T16 32Q16 23 25 11T50 -11T84 -20ZM123 215Q130 237 158 252T228 274T320 282Q375 282 427 276T519 266Q504 246 480 237T413 227T294 225Q236 225 193 223T123 215ZM394 411Q438
413 473 438T532 499T569 573T582 639Q582 666 572 676T548 686Q519 686 493 648T442 548T394 411Z" />
<glyph unicode="&#xa4;" horiz-adv-x="722" d="M631 21Q610 55 572 87T484 168Q459 136 427 117T358 97Q330 97 309 107T272 135Q225 86 178 66T88 46Q113 70 137 86T188 124T243 186Q239 201 236 217T233 251Q233 292 244 337T277 425Q243 461 212 490T157 539Q148
547 143 565T136 603Q136 612 138 622T145 643Q159 630 204 585T309 476Q335 509 368 529T440 550Q477 550 505 533T549 486Q574 517 592 544T635 587T701 604Q706 604 713 604T727 601Q714 581 673 535T568 416Q569 410 569 405T570 394Q570 352 556 306T518 217Q568
173 601 130T636 49Q636 45 636 39T631 21ZM365 160Q390 160 415 184T460 247T493 329T506 411Q506 446 486 468T443 491Q413 491 387 465T341 398T311 316T300 242Q300 205 322 183T365 160Z" />
<glyph unicode="&#xa5;" horiz-adv-x="849" d="M369 -187Q329 -187 295 -176T241 -143T221 -89Q221 -61 238 -40T292 -7Q288 -22 286 -40T283 -71Q283 -107 305 -130T370 -153Q410 -153 439 -135T491 -87T529 -25Q493 -25 455 -27T374 -37Q387 -3 434 9T548 22Q552
36 556 48T565 74Q520 73 473 72T372 62Q382 87 410 99T482 117T577 122Q585 153 593 204T612 307Q587 262 556 226T486 169T401 147Q339 147 311 181T283 271Q283 310 292 354T315 445T338 533T348 608Q348 638 336 661T292 685Q265 685 246 669T213 626T194 572T188
520Q188 488 199 463Q154 463 135 484T116 537Q116 568 131 600T174 659T237 703T314 720Q355 720 380 704T416 664T428 614Q428 587 418 549T395 466T373 376T363 292Q363 249 379 223T432 196Q467 196 498 218T556 276T605 355T643 439Q661 512 680 576T722 680T767
720Q779 720 797 710T831 684Q806 644 787 604T754 521T726 430T700 327T670 205Q665 184 659 163T647 119Q681 118 712 116T760 111Q727 89 694 82T635 74Q630 61 626 48T616 21Q656 20 691 18T761 13Q728 -11 697 -18T642 -25H596Q574 -71 543 -108T470 -166T369
-187Z" />
<glyph unicode="&#xa6;" horiz-adv-x="283" d="M71 -132Q84 -99 93 -48T109 66T123 198Q132 208 145 215T175 222Q185 222 188 213T191 195Q189 93 179 20T144 -92T71 -132ZM130 287Q138 378 144 461T156 607T171 698Q188 692 195 679T204 653T207 631Q207 593
204 525T200 381Q200 371 194 349T166 312L130 287Z" />
<glyph unicode="&#xa7;" horiz-adv-x="434" d="M159 -87Q123 -87 90 -74T37 -35T16 31Q16 66 31 85T69 112T114 120Q94 100 83 76T72 31Q72 -2 97 -27T171 -53Q200 -53 226 -43T270 -14T287 34Q287 65 266 87T214 129T152 170T100 221T79 291Q79 330 99 363T157
415T252 433Q229 447 208 462T173 497T159 546Q159 573 172 603T209 659T268 702T345 719Q388 719 405 701T422 651Q422 627 414 601T395 550T371 508Q354 510 349 519T343 540Q343 559 352 583T370 631T379 672Q379 683 373 689T348 695Q308 695 276 672T226 618T208
561Q208 533 227 515T274 482T330 447T377 398T396 320Q396 276 377 247T325 203T252 188Q243 188 237 188T225 191Q240 182 259 171T297 143T328 105T340 53Q340 10 313 -21T243 -70T159 -87ZM234 232Q281 232 305 254T329 315Q329 349 309 373T242 398Q203 398
172 377T141 313Q141 301 147 282T173 247T234 232Z" />
<glyph unicode="&#xa8;" horiz-adv-x="233" d="M439 410Q423 410 411 418T399 443Q399 462 421 476T465 490Q480 490 490 484T500 459Q500 442 481 426T439 410ZM295 430Q279 430 267 438T254 463Q254 482 276 496T321 511Q336 511 345 505T355 480Q355 463 337
447T295 430Z" />
<glyph unicode="&#xa9;" horiz-adv-x="611" d="M337 100Q293 100 249 116T168 164T109 244T85 358Q85 425 108 474T168 556T251 604T340 620Q384 620 429 604T512 556T573 476T597 362Q597 295 574 246T511 164T427 116T337 100ZM337 137Q402 137 452 165T531
245T560 362Q560 426 532 475T455 554T340 583Q277 583 228 555T150 477T122 361Q122 297 148 246T223 166T337 137ZM344 207Q307 207 281 228T254 300V430Q254 481 278 502T340 523Q373 523 392 510T420 479T429 449Q429 435 423 431T410 427Q400 427 396 432T390
443Q388 452 385 462T372 479T342 487Q318 487 306 473T294 430V300Q294 270 305 256T346 242Q365 242 374 250T387 268T393 287Q394 294 398 298T409 302Q431 302 431 283Q430 252 408 230T344 207Z" />
<glyph unicode="&#xaa;" horiz-adv-x="401" d="M174 447Q152 447 135 462T118 509Q118 540 135 576T180 645T243 699T314 720Q343 720 363 706T383 667Q383 651 370 643T339 635Q341 642 342 648T344 660Q344 673 337 683T312 693Q289 693 265 674T221 625T188
564T176 508Q176 485 191 485Q206 485 225 501T265 542T303 590T333 632Q348 628 358 623T369 610Q369 601 359 585T339 552T329 518Q329 510 333 501T349 492Q367 492 396 519T458 600L467 587Q445 529 406 494T330 459Q306 459 296 472T283 503Q282 508 282 513T282
524Q253 488 227 468T174 447Z" />
<glyph unicode="&#xab;" horiz-adv-x="465" d="M340 44Q322 44 295 56T242 88T196 127T172 163Q208 178 244 203T312 258T367 318Q369 316 373 305T377 289Q377 269 362 250T322 212T269 177T214 147Q235 133 255 121T303 97T377 67Q371 59 361 52T340 44ZM188
44Q170 44 143 56T90 88T44 127T20 163Q56 178 92 203T160 258T215 318Q217 316 221 305T225 289Q225 269 210 250T170 212T117 177T62 147Q83 133 103 121T151 97T225 67Q219 59 209 52T188 44Z" />
<glyph unicode="&#xac;" horiz-adv-x="673" d="M493 28Q499 54 501 77T505 128T506 190Q494 189 482 189T461 188Q393 187 345 187T260 187T192 185T125 182T44 175Q59 200 102 213T211 230T354 235Q395 235 434 235T508 232Q511 245 519 258T542 287Q543 275
545 262T550 230Q574 229 594 229T628 226Q610 211 591 205T552 194Q552 171 552 145T546 95T529 53T493 28Z" />
<glyph unicode="&#xad;" horiz-adv-x="485" d="M40 143Q47 162 66 174T111 192T163 199T209 201Q227 201 255 200T314 198T371 196T409 193Q397 174 366 162T293 148Q270 148 233 150T159 151Q137 151 114 150T72 147T40 143Z" />
<glyph unicode="&#xae;" horiz-adv-x="610" d="M336 100Q292 100 248 116T167 164T108 244T85 358Q85 425 108 474T170 556T253 604T342 620Q386 620 431 604T514 556T574 476T597 362Q597 295 573 246T510 164T426 116T336 100ZM336 137Q400 137 450 165T530
245T560 363Q560 426 533 475T458 554T344 583Q281 583 231 555T151 477T122 359Q122 296 148 246T222 166T336 137ZM282 208Q275 208 269 213T262 227L259 505Q259 512 264 517T278 522H342Q366 522 388 515T423 488T437 435Q437 399 421 379T378 352Q390 328
401 305T423 264T437 236Q438 235 439 232T440 226Q440 219 434 214T420 208Q410 208 403 219T391 238L337 348H302V227Q302 218 296 213T282 208ZM301 384H344Q368 384 382 396T397 435Q397 463 382 475T344 487H301V384Z" />
<glyph unicode="&#xaf;" horiz-adv-x="411" d="M311 420Q288 420 255 425T186 439T116 454T60 464Q71 493 109 493Q145 493 187 486T273 467T351 444Q338 420 311 420Z" />
<glyph unicode="&#xb0;" horiz-adv-x="284" d="M182 396Q142 396 124 412T105 452Q105 476 121 501T166 544T229 562Q272 562 290 546T309 506Q309 483 292 457T246 414T182 396ZM186 423Q206 423 225 437T256 470T269 506Q269 519 260 526T229 534Q208 534 189
521T159 489T147 453Q147 441 156 432T186 423Z" />
<glyph unicode="&#xb1;" horiz-adv-x="473" d="M194 109Q200 144 202 176T204 244Q177 244 156 244T111 242T57 235Q67 261 108 271T204 284V318Q204 336 210 359T236 407Q239 389 242 355T248 284Q279 284 310 282T366 279T405 276Q373 256 344 250T295 244H248Q247
194 237 158T194 109ZM55 27Q60 49 87 59T154 74T237 78Q287 78 335 75T408 69Q384 57 363 51T313 42T237 39Q208 38 187 38T146 36T105 33T55 27Z" />
<glyph unicode="&#xb2;" horiz-adv-x="384" d="M307 302Q292 302 272 307T229 320T187 338Q154 318 129 318Q111 318 98 327T85 352Q85 382 131 382Q143 382 155 380T183 375Q213 402 242 443T290 531T310 620Q310 654 297 669T263 684Q235 684 219 659T203 594Q203
584 205 576T213 552H198Q177 557 166 568T154 602Q154 631 168 655T209 695T271 711Q312 711 337 683T363 615Q363 572 345 526T295 439T227 367Q255 361 278 356T319 351Q327 351 338 356T371 374Q362 337 347 320T307 302ZM128 345Q133 345 137 347T147 352Q141
354 136 354T128 355Q122 355 120 354T118 351Q118 349 121 347T128 345Z" />
<glyph unicode="&#xb3;" horiz-adv-x="322" d="M188 314Q138 314 117 339T96 390Q96 410 108 429T145 449Q148 449 153 448T170 443Q159 435 154 422T148 397Q148 377 159 359T192 340Q219 340 242 368T265 440Q265 468 250 494T193 531Q223 544 244 564T276 608T288
651Q288 673 277 684T250 696Q231 696 216 682T201 644Q201 637 203 630T210 613Q206 605 197 599T181 593Q169 593 162 608T155 638Q155 676 186 697T256 718Q289 718 316 701T343 649Q343 629 334 607T308 566T269 537Q304 522 318 495T333 443Q333 412 315 382T264
333T188 314Z" />
<glyph unicode="&#xb4;" horiz-adv-x="136" d="M112 404Q101 409 96 419T91 435Q91 443 101 462T127 501T161 537T194 552Q204 552 212 545T222 518Q186 485 160 459T112 404Z" />
<glyph unicode="&#xb5;" horiz-adv-x="606" d="M4 -280Q-6 -280 -14 -270T-27 -250T-33 -237Q-19 -188 -5 -150T25 -72T54 21T82 154T109 352Q111 363 114 368T133 373Q161 373 173 358T187 323Q165 226 153 161T141 60Q141 15 167 15Q186 15 206 34T246 85T285
151T320 219T348 273Q355 272 368 269T392 259T404 242Q404 241 394 220T371 166T349 101T339 41Q339 25 345 15T368 5Q389 5 419 24T480 79T536 167L556 153Q534 98 499 56T425 -10T347 -34Q309 -34 290 -12T270 44Q270 51 270 57T273 71Q246 28 216 -3T148 -34Q137
-34 125 -29T106 -16Q70 -144 45 -212T4 -280Z" />
<glyph unicode="&#xb6;" horiz-adv-x="672" d="M348 -87Q352 -34 357 27T367 153Q341 155 304 160T225 176T148 208T90 260T68 336Q68 392 96 435T172 509T274 558T384 580Q381 649 373 707Q384 712 392 714T407 716Q424 716 433 702T445 667T449 623T451 581Q460
580 472 579T493 575Q492 615 490 649T485 706Q494 712 501 714T516 716Q529 716 538 694T552 637T559 559Q585 551 607 542T647 525Q644 519 635 511T615 497T599 491Q594 491 586 496T561 509Q563 481 564 455T565 403Q565 202 561 91T552 -35Q545 -59 522 -73T473
-87Q474 -84 476 -54T482 25T488 137T492 269T494 407T493 538Q485 541 474 543T454 546Q456 503 457 465T459 391T460 319Q460 251 459 190T455 80T451 1T447 -34Q442 -49 426 -61T388 -80T348 -87Z" />
<glyph unicode="&#xb7;" horiz-adv-x="230" d="M89 118Q69 118 60 128T51 152Q51 163 61 173T85 191T113 198Q125 198 134 193T144 171Q144 162 137 150T118 128T89 118Z" />
<glyph unicode="&#xb8;" horiz-adv-x="227" d="M79 -226Q50 -226 33 -213T15 -186Q15 -178 22 -168T44 -147Q51 -171 62 -181T84 -192Q102 -192 120 -178T152 -143T166 -107Q166 -99 162 -94T150 -88Q137 -88 121 -97T91 -117T69 -127Q60 -127 55 -119T50 -104Q50
-102 59 -90T81 -59T107 -25T131 0H146L97 -77Q106 -72 121 -67T155 -61Q178 -61 192 -73T206 -108Q206 -136 189 -163T142 -208T79 -226Z" />
<glyph unicode="&#xb9;" horiz-adv-x="292" d="M134 314Q123 314 108 322T80 347Q108 347 123 347T158 351Q169 375 178 413T194 493T207 571T220 627Q199 615 190 611T175 606Q166 606 161 611T155 632Q164 637 183 650T225 681T271 717H275Q278 715 278 713T280
708Q281 702 281 696T279 685Q278 675 272 646T258 576T240 487L228 427Q223 403 218 386T205 356Q229 357 246 350T268 315Q258 316 244 317T219 318Q192 318 174 316T134 314Z" />
<glyph unicode="&#xba;" horiz-adv-x="300" d="M182 452Q154 452 137 469T120 515Q120 543 134 577T173 644T229 698T293 719Q306 719 313 716T326 706Q342 705 349 695T357 676Q357 666 351 652T337 623T330 593Q330 585 335 583T347 580Q356 580 361 581T372
583Q371 569 359 561T333 553Q317 553 307 563Q285 514 252 483T182 452ZM198 489Q214 489 231 503T264 540T292 589Q290 598 289 606T288 627Q288 649 290 662T296 682Q269 680 247 662T208 617T182 565T173 522Q173 507 180 498T198 489Z" />
<glyph unicode="&#xbb;" horiz-adv-x="480" d="M253 44Q242 44 233 51T216 67Q263 84 291 96T339 121T379 147Q354 160 326 176T272 211T232 249T216 289Q216 294 220 305T226 318Q248 288 280 258T349 203T421 163Q417 147 398 127T352 88T299 57T253 44ZM101
44Q90 44 81 51T64 67Q111 84 139 96T187 121T227 147Q202 160 174 176T120 211T80 249T64 289Q64 294 68 305T74 318Q96 288 128 258T197 203T269 163Q265 147 246 127T200 88T147 57T101 44Z" />
<glyph unicode="&#xbc;" horiz-adv-x="671" d="M50 -87Q74 -63 111 -11T191 111T280 260T366 416T440 560T490 672Q494 683 509 693T545 709T584 713Q579 699 559 658T508 559T443 435T372 305T306 186T253 97Q200 15 151 -36T50 -87ZM543 -27Q515 -25 500 -17T485
5Q485 11 489 38T508 132Q501 133 493 133T474 133Q444 133 417 131T368 123Q368 136 371 144T379 156Q411 183 452 220T532 299T594 381Q612 379 613 362Q613 354 600 312T569 171H581Q589 171 600 173T628 178Q613 157 595 144T562 131Q561 122 558 102T551 58T546
11T543 -27ZM441 173Q454 174 473 174T518 173Q523 198 526 213T532 240T539 265L505 234Q490 220 480 211T460 193T441 173ZM130 314Q119 314 104 322T76 347Q104 347 119 347T154 351Q165 375 174 413T190 493T203 571T216 627Q195 615 186 611T171 606Q162 606
157 611T151 632Q160 637 179 650T221 681T267 717H271Q274 715 274 713T276 708Q277 702 277 696T275 685Q273 670 261 607T224 427Q219 403 214 386T201 356Q224 357 241 350T264 315Q254 316 240 317T215 318Q188 318 170 316T130 314Z" />
<glyph unicode="&#xbd;" horiz-adv-x="728" d="M57 -87Q81 -63 118 -11T198 111T287 260T374 416T447 560T498 672Q502 683 516 693T550 712T587 720Q583 705 563 663T514 561T450 436T380 305T313 186T260 97Q207 15 159 -36T57 -87ZM408 17Q413 17 417 18T428
24Q422 26 417 26T408 27Q402 27 400 26T398 22Q398 20 401 19T408 17ZM587 -27Q572 -27 552 -22T509 -8T468 10Q435 -11 410 -11Q392 -11 379 -2T366 23Q366 53 411 53Q423 53 435 52T463 47Q493 73 522 114T571 202T590 291Q590 326 577 341T543 356Q515 356
499 330T483 266Q483 256 485 248T494 224H478Q457 229 446 240T434 274Q434 302 449 326T490 366T551 382Q592 382 617 355T643 287Q643 243 625 198T575 111T508 38Q535 32 558 28T599 23Q607 23 618 28T651 45Q642 9 627 -9T587 -27ZM132 314Q121 314 106 322T78
347Q106 347 121 347T156 351Q167 375 176 413T192 493T205 571T218 627Q197 615 188 611T173 606Q164 606 159 611T153 632Q162 637 181 650T223 681T269 717H273Q276 715 276 713T278 708Q279 702 279 696T277 685Q275 670 263 607T226 427Q221 403 216 386T203
356Q226 357 243 350T266 315Q256 316 242 317T217 318Q190 318 172 316T132 314Z" />
<glyph unicode="&#xbe;" horiz-adv-x="717" d="M96 -87Q142 -33 186 31T273 165T353 306T426 444T488 569T536 672Q541 684 556 694T590 712T626 720Q622 704 603 664T556 567T493 446T424 316T356 195T298 98Q246 15 198 -36T96 -87ZM185 309Q151 309 131 321T101
352T92 386Q92 407 104 426T141 445Q146 445 151 445T167 441Q155 432 149 419T143 392Q143 372 156 355T190 337Q216 337 239 366T263 437Q263 466 248 493T190 529Q220 542 241 563T274 607T286 650Q286 673 274 684T247 695Q229 695 214 681T198 646Q198 639
200 631T207 613Q203 605 194 599T178 592Q166 592 159 607T151 637Q151 663 166 681T204 708T253 718Q286 718 313 701T341 647Q341 628 332 606T306 564T267 535Q301 521 316 494T331 440Q331 409 313 379T261 329T185 309ZM590 -27Q562 -25 547 -17T532 5Q532
11 536 38T554 132Q547 133 539 133T520 133Q490 133 463 131T414 123Q414 136 418 144T426 156Q457 183 498 220T578 299T641 381Q658 379 659 362Q659 354 647 312T615 171H627Q635 171 646 173T675 178Q660 157 642 144T608 131Q607 122 604 102T598 58T592
11T590 -27ZM487 173Q500 174 519 174T564 173Q569 198 572 213T578 240T585 265L552 234Q537 220 526 211T507 193T487 173Z" />
<glyph unicode="&#xbf;" horiz-adv-x="430" d="M101 -280Q36 -280 -4 -246T-44 -148Q-44 -110 -28 -80T12 -25T64 26T115 82T152 153Q163 187 165 212T179 266Q202 254 209 245T217 215Q217 173 198 139T151 75T94 13T46 -55T27 -137Q27 -190 49 -217T104 -245Q139
-245 173 -219T230 -147T253 -49Q253 -32 251 -18T243 14Q288 7 303 -14T318 -65Q318 -120 292 -169T216 -249T101 -280ZM195 320Q181 320 172 326T163 347Q163 366 180 381T220 397Q235 397 246 390T257 366Q257 347 237 334T195 320Z" />
<glyph unicode="&#xc0;" horiz-adv-x="618" d="M36 -87Q9 -72 2 -56T-6 -28Q-6 -1 14 45T67 151T143 276Q110 278 83 279T20 280H-3Q10 314 39 327T109 341Q126 341 144 339T183 335Q233 408 283 475T377 595T455 680Q497 721 518 721Q531 721 547 711T581 685Q571
677 556 644T523 559T488 447T456 324T434 204T425 103Q425 64 433 44T461 24Q485 24 518 59T593 173L608 157Q578 75 530 23T427 -29Q381 -29 362 10T342 119Q342 145 345 177T356 251Q312 258 278 262T212 270Q164 185 119 94T36 -87ZM365 295Q379 357 397 419T436
539T476 642Q446 619 408 573T327 463T242 324Q273 317 304 310T365 295ZM569 748Q547 776 520 802T454 860Q456 879 464 887T483 896Q498 896 516 882T552 848T580 809T591 781Q591 775 586 764T569 748Z" />
<glyph unicode="&#xc1;" horiz-adv-x="618" d="M36 -87Q9 -72 2 -56T-6 -28Q-6 -1 14 45T67 151T143 276Q110 278 83 279T20 280H-3Q10 314 39 327T109 341Q126 341 144 339T183 335Q233 408 283 475T377 595T455 680Q497 721 518 721Q531 721 547 711T581 685Q571
677 556 644T523 559T488 447T456 324T434 204T425 103Q425 64 433 44T461 24Q485 24 518 59T593 173L608 157Q578 75 530 23T427 -29Q381 -29 362 10T342 119Q342 145 345 177T356 251Q312 258 278 262T212 270Q164 185 119 94T36 -87ZM365 295Q379 357 397 419T436
539T476 642Q446 619 408 573T327 463T242 324Q273 317 304 310T365 295ZM575 748Q564 753 559 763T554 779Q554 787 564 806T590 845T624 881T657 896Q667 896 675 889T685 862Q649 829 623 803T575 748Z" />
<glyph unicode="&#xc2;" horiz-adv-x="618" d="M36 -87Q9 -72 2 -56T-6 -28Q-6 -1 14 45T67 151T143 276Q110 278 83 279T20 280H-3Q10 314 39 327T109 341Q126 341 144 339T183 335Q233 408 283 475T377 595T455 680Q497 721 518 721Q531 721 547 711T581 685Q571
677 556 644T523 559T488 447T456 324T434 204T425 103Q425 64 433 44T461 24Q485 24 518 59T593 173L608 157Q578 75 530 23T427 -29Q381 -29 362 10T342 119Q342 145 345 177T356 251Q312 258 278 262T212 270Q164 185 119 94T36 -87ZM365 295Q379 357 397 419T436
539T476 642Q446 619 408 573T327 463T242 324Q273 317 304 310T365 295ZM665 744Q650 772 633 791T593 830Q564 820 540 807T490 776Q484 781 481 789T478 801Q478 816 491 831T525 859T564 880T594 888Q606 888 622 878T653 850T678 815T688 780Q688 770 683
760T665 744Z" />
<glyph unicode="&#xc3;" horiz-adv-x="618" d="M36 -87Q9 -72 2 -56T-6 -28Q-6 -1 14 45T67 151T143 276Q110 278 83 279T20 280H-3Q10 314 39 327T109 341Q126 341 144 339T183 335Q233 408 283 475T377 595T455 680Q497 721 518 721Q531 721 547 711T581 685Q571
677 556 644T523 559T488 447T456 324T434 204T425 103Q425 64 433 44T461 24Q485 24 518 59T593 173L608 157Q578 75 530 23T427 -29Q381 -29 362 10T342 119Q342 145 345 177T356 251Q312 258 278 262T212 270Q164 185 119 94T36 -87ZM365 295Q379 357 397 419T436
539T476 642Q446 619 408 573T327 463T242 324Q273 317 304 310T365 295ZM652 757Q624 757 595 769T536 792T478 804Q463 804 448 802T417 791Q432 820 454 833T506 847Q534 847 563 835T623 811T685 799Q710 799 735 808Q720 782 700 770T652 757Z" />
<glyph unicode="&#xc4;" horiz-adv-x="618" d="M36 -87Q9 -72 2 -56T-6 -28Q-6 -1 14 45T67 151T143 276Q110 278 83 279T20 280H-3Q10 314 39 327T109 341Q126 341 144 339T183 335Q233 408 283 475T377 595T455 680Q497 721 518 721Q531 721 547 711T581 685Q571
677 556 644T523 559T488 447T456 324T434 204T425 103Q425 64 433 44T461 24Q485 24 518 59T593 173L608 157Q578 75 530 23T427 -29Q381 -29 362 10T342 119Q342 145 345 177T356 251Q312 258 278 262T212 270Q164 185 119 94T36 -87ZM365 295Q379 357 397 419T436
539T476 642Q446 619 408 573T327 463T242 324Q273 317 304 310T365 295ZM648 753Q632 753 620 761T608 786Q608 805 630 819T674 833Q689 833 699 827T709 802Q709 785 690 769T648 753ZM504 773Q488 773 476 781T463 806Q463 825 485 839T530 854Q545 854 554
848T564 823Q564 806 546 790T504 773Z" />
<glyph unicode="&#xc5;" horiz-adv-x="618" d="M36 -87Q9 -72 2 -56T-6 -28Q-6 -1 14 45T67 151T143 276Q110 278 83 279T20 280H-3Q10 314 39 327T109 341Q126 341 144 339T183 335Q233 408 283 475T377 595T455 680Q497 721 518 721Q531 721 547 711T581 685Q571
677 556 644T523 559T488 447T456 324T434 204T425 103Q425 64 433 44T461 24Q485 24 518 59T593 173L608 157Q578 75 530 23T427 -29Q381 -29 362 10T342 119Q342 145 345 177T356 251Q312 258 278 262T212 270Q164 185 119 94T36 -87ZM365 295Q379 357 397 419T436
539T476 642Q446 619 408 573T327 463T242 324Q273 317 304 310T365 295ZM568 754Q529 754 511 770T492 810Q492 834 508 859T552 902T616 920Q659 920 677 904T696 864Q696 841 679 815T633 772T568 754ZM577 784Q595 784 611 796T638 825T649 857Q649 869 641
878T611 887Q593 887 577 876T550 849T540 816Q541 806 549 795T577 784Z" />
<glyph unicode="&#xc6;" horiz-adv-x="776" d="M36 -87Q8 -72 1 -56T-6 -29Q-6 -2 13 45T66 151T142 276Q107 278 82 279T40 280H-3Q10 314 39 327T109 341Q126 341 144 339T182 335Q234 411 286 480T385 604T466 690T518 721Q559 721 606 719T699 713T783 705T843
698Q837 680 810 670T744 657T662 654Q635 654 609 654T559 656Q542 622 520 559T479 420Q550 419 603 410T693 397Q686 378 660 369T595 356T513 352Q495 352 484 352T461 353Q445 282 435 215T424 98Q424 87 425 79T427 62Q460 57 500 54T580 47T655 41T710 32Q704
13 677 4T612 -9T530 -12Q488 -12 447 -12T375 -8Q357 9 349 43T341 119Q341 149 345 182T356 251Q312 258 277 262T211 270Q163 185 119 94T36 -87ZM365 295Q378 357 396 419T435 539T475 642Q445 619 407 573T327 463T241 324Q274 317 306 309T365 295Z" />
<glyph unicode="&#xc7;" horiz-adv-x="558" d="M240 -87Q165 -87 119 -51T51 41T29 159Q29 238 53 317T119 469T214 598T328 686T449 719Q492 719 520 699T549 630Q549 600 539 563T512 492T472 436T428 414Q419 414 409 420T391 442Q406 459 424 484T460 537T488
591T499 639Q499 657 489 668T453 680Q409 680 363 646T273 556T195 430T140 287T120 147Q120 99 134 55T181 -16T263 -44Q317 -44 370 -14T468 65T539 171L561 156Q527 90 479 35T370 -54T240 -87ZM378 -226Q349 -226 332 -213T314 -186Q314 -178 321 -168T343
-147Q350 -171 361 -181T383 -192Q401 -192 419 -178T451 -143T465 -107Q465 -99 461 -94T449 -88Q436 -88 420 -97T390 -117T368 -127Q359 -127 354 -119T349 -104Q349 -102 358 -90T380 -59T406 -25T430 0H445L396 -77Q405 -72 420 -67T454 -61Q477 -61 491 -73T505
-108Q505 -136 488 -163T441 -208T378 -226Z" />
<glyph unicode="&#xc8;" horiz-adv-x="521" d="M199 -87Q137 -87 90 -62T18 6T-8 99Q-8 144 11 187T66 266T147 326T249 357Q212 389 194 429T175 511Q175 564 202 611T277 689T389 719Q448 719 479 690T511 606Q511 568 498 533T465 475T427 453Q414 453 403
464T383 491Q419 522 444 556T470 627Q470 657 451 673T398 689Q353 689 322 662T275 591T259 499Q259 458 273 415T328 341Q257 330 206 291T126 200T97 97Q97 66 109 33T150 -23T226 -46Q280 -46 333 -16T430 64T501 171L524 156Q488 87 439 32T330 -55T199 -87ZM440
748Q418 776 391 802T325 860Q327 879 335 887T354 896Q369 896 387 882T423 848T451 809T462 781Q462 775 457 764T440 748Z" />
<glyph unicode="&#xc9;" horiz-adv-x="521" d="M199 -87Q137 -87 90 -62T18 6T-8 99Q-8 144 11 187T66 266T147 326T249 357Q212 389 194 429T175 511Q175 564 202 611T277 689T389 719Q448 719 479 690T511 606Q511 568 498 533T465 475T427 453Q414 453 403
464T383 491Q419 522 444 556T470 627Q470 657 451 673T398 689Q353 689 322 662T275 591T259 499Q259 458 273 415T328 341Q257 330 206 291T126 200T97 97Q97 66 109 33T150 -23T226 -46Q280 -46 333 -16T430 64T501 171L524 156Q488 87 439 32T330 -55T199 -87ZM446
748Q435 753 430 763T425 779Q425 787 435 806T461 845T495 881T528 896Q538 896 546 889T556 862Q520 829 494 803T446 748Z" />
<glyph unicode="&#xca;" horiz-adv-x="521" d="M199 -87Q137 -87 90 -62T18 6T-8 99Q-8 144 11 187T66 266T147 326T249 357Q212 389 194 429T175 511Q175 564 202 611T277 689T389 719Q448 719 479 690T511 606Q511 568 498 533T465 475T427 453Q414 453 403
464T383 491Q419 522 444 556T470 627Q470 657 451 673T398 689Q353 689 322 662T275 591T259 499Q259 458 273 415T328 341Q257 330 206 291T126 200T97 97Q97 66 109 33T150 -23T226 -46Q280 -46 333 -16T430 64T501 171L524 156Q488 87 439 32T330 -55T199 -87ZM536
744Q521 772 504 791T464 830Q435 820 411 807T361 776Q355 781 352 789T349 801Q349 816 362 831T396 859T435 880T465 888Q477 888 493 878T524 850T549 815T559 780Q559 770 554 760T536 744Z" />
<glyph unicode="&#xcb;" horiz-adv-x="521" d="M199 -87Q137 -87 90 -62T18 6T-8 99Q-8 144 11 187T66 266T147 326T249 357Q212 389 194 429T175 511Q175 564 202 611T277 689T389 719Q448 719 479 690T511 606Q511 568 498 533T465 475T427 453Q414 453 403
464T383 491Q419 522 444 556T470 627Q470 657 451 673T398 689Q353 689 322 662T275 591T259 499Q259 458 273 415T328 341Q257 330 206 291T126 200T97 97Q97 66 109 33T150 -23T226 -46Q280 -46 333 -16T430 64T501 171L524 156Q488 87 439 32T330 -55T199 -87ZM519
753Q503 753 491 761T479 786Q479 805 501 819T545 833Q560 833 570 827T580 802Q580 785 561 769T519 753ZM375 773Q359 773 347 781T334 806Q334 825 356 839T401 854Q416 854 425 848T435 823Q435 806 417 790T375 773Z" />
<glyph unicode="&#xcc;" horiz-adv-x="488" d="M-25 -88Q-21 -47 2 -29T63 -5T144 1Q162 40 179 94T212 211T243 338T271 463T297 573T320 653Q268 652 230 650T158 642T87 630Q96 676 147 697T303 719Q355 719 410 715T511 706T583 697Q553 668 524 661T474 654Q441
654 415 654T365 653Q359 623 351 576T332 472T311 358T290 249T270 163Q256 107 238 64T194 0Q247 -4 302 -10T417 -19Q381 -53 347 -61T290 -70Q232 -70 190 -70T113 -72T46 -78T-25 -88ZM362 747Q340 775 313 801T247 859Q249 878 257 886T276 895Q291 895 309
881T345 847T373 808T384 780Q384 774 379 763T362 747Z" />
<glyph unicode="&#xcd;" horiz-adv-x="488" d="M-25 -88Q-21 -47 2 -29T63 -5T144 1Q162 40 179 94T212 211T243 338T271 463T297 573T320 653Q268 652 230 650T158 642T87 630Q96 676 147 697T303 719Q355 719 410 715T511 706T583 697Q553 668 524 661T474 654Q441
654 415 654T365 653Q359 623 351 576T332 472T311 358T290 249T270 163Q256 107 238 64T194 0Q247 -4 302 -10T417 -19Q381 -53 347 -61T290 -70Q232 -70 190 -70T113 -72T46 -78T-25 -88ZM369 747Q358 752 353 762T348 778Q348 786 358 805T384 844T418 880T451
895Q461 895 469 888T479 861Q443 828 417 802T369 747Z" />
<glyph unicode="&#xce;" horiz-adv-x="488" d="M-25 -88Q-21 -47 2 -29T63 -5T144 1Q162 40 179 94T212 211T243 338T271 463T297 573T320 653Q268 652 230 650T158 642T87 630Q96 676 147 697T303 719Q355 719 410 715T511 706T583 697Q553 668 524 661T474 654Q441
654 415 654T365 653Q359 623 351 576T332 472T311 358T290 249T270 163Q256 107 238 64T194 0Q247 -4 302 -10T417 -19Q381 -53 347 -61T290 -70Q232 -70 190 -70T113 -72T46 -78T-25 -88ZM458 743Q443 771 426 790T386 829Q357 819 333 806T283 775Q277 780 274
788T271 800Q271 815 284 830T318 858T357 879T387 887Q399 887 415 877T446 849T471 814T481 779Q481 769 476 759T458 743Z" />
<glyph unicode="&#xcf;" horiz-adv-x="488" d="M-25 -88Q-21 -47 2 -29T63 -5T144 1Q162 40 179 94T212 211T243 338T271 463T297 573T320 653Q268 652 230 650T158 642T87 630Q96 676 147 697T303 719Q355 719 410 715T511 706T583 697Q553 668 524 661T474 654Q441
654 415 654T365 653Q359 623 351 576T332 472T311 358T290 249T270 163Q256 107 238 64T194 0Q247 -4 302 -10T417 -19Q381 -53 347 -61T290 -70Q232 -70 190 -70T113 -72T46 -78T-25 -88ZM441 752Q425 752 413 760T401 785Q401 804 423 818T467 832Q482 832 492
826T502 801Q502 784 483 768T441 752ZM297 772Q281 772 269 780T256 805Q256 824 278 838T323 853Q338 853 347 847T357 822Q357 805 339 789T297 772Z" />
<glyph unicode="&#xd0;" horiz-adv-x="677" d="M183 -87Q148 -87 118 -78T66 -39Q80 30 103 115T151 280Q124 279 94 276T29 268Q43 298 79 310T166 326Q188 396 208 454T237 537Q240 545 247 561T265 593T290 621T320 633Q336 633 355 621Q327 557 299 482T245
328Q298 328 347 324T422 318Q389 295 357 288T303 281H230Q202 192 179 108T141 -48Q153 -50 161 -51T180 -52Q244 -52 304 -24T415 55T506 169T566 305T588 450Q588 570 530 627T377 684Q312 684 261 660T179 593T149 499Q149 487 151 476T157 454Q117 454 101
472T84 516Q84 551 109 586T179 652T282 701T408 720Q504 720 562 682T646 580T672 439Q672 352 645 274T569 130T459 16T326 -60T183 -87Z" />
<glyph unicode="&#xd1;" horiz-adv-x="663" d="M53 -87Q67 -38 85 21T129 162T187 354T265 617Q266 621 269 633T272 657Q272 665 269 669T258 674Q236 674 216 657T181 613T156 558T147 506Q147 484 156 463Q115 463 99 481T82 526Q82 560 103 594T156 656T223
702T287 720Q320 720 341 695T377 625T400 525T418 407Q428 337 434 289T446 208T455 149T463 100Q473 148 486 203T513 317T541 430T570 534T596 617T617 669Q625 684 644 702T692 721Q675 675 654 609T610 465T568 307T531 151T506 14T495 -87Q460 -87 438 -70T405
-3Q401 17 393 59T376 156T356 271T337 389T319 493T306 566Q260 399 228 284T171 96T129 -17T92 -72T53 -87ZM580 757Q552 757 523 769T464 792T406 804Q391 804 376 802T345 791Q360 820 382 833T434 847Q462 847 491 835T551 811T613 799Q638 799 663 808Q648
782 628 770T580 757Z" />
<glyph unicode="&#xd2;" horiz-adv-x="644" d="M232 -87Q175 -87 129 -57T55 30T28 163Q28 240 52 318T119 469T216 597T333 686T458 719Q471 719 489 716T524 696Q517 697 512 697T500 698Q448 698 395 665T294 575T209 449T149 302T127 154Q127 102 141 57T185
-16T266 -44Q321 -44 369 -11T457 80T524 206T567 350T583 492Q583 521 579 554T565 610T538 634Q520 634 500 613T461 558T427 488T406 422Q375 429 362 443T348 477Q348 504 367 537T415 600T478 651T538 671Q567 671 585 650T612 597T626 528T630 459Q630 355
605 269T538 116T444 5T337 -64T232 -87ZM532 748Q510 776 483 802T417 860Q419 879 427 887T446 896Q461 896 479 882T515 848T543 809T554 781Q554 775 549 764T532 748Z" />
<glyph unicode="&#xd3;" horiz-adv-x="644" d="M232 -87Q175 -87 129 -57T55 30T28 163Q28 240 52 318T119 469T216 597T333 686T458 719Q471 719 489 716T524 696Q517 697 512 697T500 698Q448 698 395 665T294 575T209 449T149 302T127 154Q127 102 141 57T185
-16T266 -44Q321 -44 369 -11T457 80T524 206T567 350T583 492Q583 521 579 554T565 610T538 634Q520 634 500 613T461 558T427 488T406 422Q375 429 362 443T348 477Q348 504 367 537T415 600T478 651T538 671Q567 671 585 650T612 597T626 528T630 459Q630 355
605 269T538 116T444 5T337 -64T232 -87ZM539 748Q528 753 523 763T518 779Q518 787 528 806T554 845T588 881T621 896Q631 896 639 889T649 862Q613 829 587 803T539 748Z" />
<glyph unicode="&#xd4;" horiz-adv-x="644" d="M232 -87Q175 -87 129 -57T55 30T28 163Q28 240 52 318T119 469T216 597T333 686T458 719Q471 719 489 716T524 696Q517 697 512 697T500 698Q448 698 395 665T294 575T209 449T149 302T127 154Q127 102 141 57T185
-16T266 -44Q321 -44 369 -11T457 80T524 206T567 350T583 492Q583 521 579 554T565 610T538 634Q520 634 500 613T461 558T427 488T406 422Q375 429 362 443T348 477Q348 504 367 537T415 600T478 651T538 671Q567 671 585 650T612 597T626 528T630 459Q630 355
605 269T538 116T444 5T337 -64T232 -87ZM628 744Q613 772 596 791T556 830Q527 820 503 807T453 776Q447 781 444 789T441 801Q441 816 454 831T488 859T527 880T557 888Q569 888 585 878T616 850T641 815T651 780Q651 770 646 760T628 744Z" />
<glyph unicode="&#xd5;" horiz-adv-x="644" d="M232 -87Q175 -87 129 -57T55 30T28 163Q28 240 52 318T119 469T216 597T333 686T458 719Q471 719 489 716T524 696Q517 697 512 697T500 698Q448 698 395 665T294 575T209 449T149 302T127 154Q127 102 141 57T185
-16T266 -44Q321 -44 369 -11T457 80T524 206T567 350T583 492Q583 521 579 554T565 610T538 634Q520 634 500 613T461 558T427 488T406 422Q375 429 362 443T348 477Q348 504 367 537T415 600T478 651T538 671Q567 671 585 650T612 597T626 528T630 459Q630 355
605 269T538 116T444 5T337 -64T232 -87ZM615 757Q587 757 558 769T499 792T441 804Q426 804 411 802T380 791Q395 820 417 833T469 847Q497 847 526 835T586 811T648 799Q673 799 698 808Q683 782 663 770T615 757Z" />
<glyph unicode="&#xd6;" horiz-adv-x="644" d="M232 -87Q175 -87 129 -57T55 30T28 163Q28 240 52 318T119 469T216 597T333 686T458 719Q471 719 489 716T524 696Q517 697 512 697T500 698Q448 698 395 665T294 575T209 449T149 302T127 154Q127 102 141 57T185
-16T266 -44Q321 -44 369 -11T457 80T524 206T567 350T583 492Q583 521 579 554T565 610T538 634Q520 634 500 613T461 558T427 488T406 422Q375 429 362 443T348 477Q348 504 367 537T415 600T478 651T538 671Q567 671 585 650T612 597T626 528T630 459Q630 355
605 269T538 116T444 5T337 -64T232 -87ZM611 753Q595 753 583 761T571 786Q571 805 593 819T637 833Q652 833 662 827T672 802Q672 785 653 769T611 753ZM467 773Q451 773 439 781T426 806Q426 825 448 839T493 854Q508 854 517 848T527 823Q527 806 509 790T467
773Z" />
<glyph unicode="&#xd7;" horiz-adv-x="396" d="M311 20Q291 35 252 67T169 140Q149 121 132 103T99 66T63 21Q55 34 55 45Q55 71 78 103T135 173Q105 205 86 233T67 284Q67 289 68 294T74 309Q98 277 119 254T168 204Q206 240 242 271T298 316Q293 275 275 249T239
205L204 172L254 124Q269 110 286 84T311 20Z" />
<glyph unicode="&#xd8;" horiz-adv-x="644" d="M62 -101Q55 -101 48 -100T31 -97Q49 -86 66 -71T100 -36Q66 -4 47 46T27 164Q27 241 51 319T118 469T215 597T330 685T452 718Q470 718 486 714T514 697H501Q449 697 396 664T294 575T208 448T148 301T126 154Q126
118 132 84T153 23Q193 72 238 132T329 257T418 386T499 506T565 605Q560 618 554 626T537 634Q520 634 499 612T459 556T426 486T405 422Q374 429 361 443T347 477Q347 504 366 536T415 599T477 650T536 670Q553 670 566 662T590 641Q599 652 623 661T670 671Q675
671 680 671T695 669Q686 657 668 631T621 561Q626 537 628 512T630 463Q630 357 605 270T538 117T443 5T337 -64T233 -88Q210 -88 189 -83T149 -69Q125 -85 103 -93T62 -101ZM263 -44Q320 -44 369 -10T457 81T524 209T567 357T582 505Q549 458 511 403T434 293T361
189T300 102T260 46Q245 25 230 6T199 -27Q212 -35 227 -39T263 -44Z" />
<glyph unicode="&#xd9;" horiz-adv-x="735" d="M572 -99Q535 -99 510 -67T485 11Q485 21 486 38T490 76Q453 4 401 -42T276 -88Q210 -88 174 -48T138 59Q138 101 150 153T180 263T217 378T247 491T259 593Q259 683 205 683Q178 683 159 666T127 622T108 569T101
522Q101 507 104 491T113 463Q68 463 49 484T30 537Q30 568 45 600T87 659T151 702T229 719Q288 719 314 685T340 593Q340 556 331 511T308 418T280 324Q255 245 238 183T221 72Q221 26 240 -6T305 -38Q346 -38 380 -13T439 54T483 141T510 226Q524 285 541 352T576
485T614 603T651 687T687 719Q696 719 712 710T746 683Q738 676 721 641T683 550T641 427T602 290T573 156T562 43Q562 -21 582 -42T651 -64Q637 -81 615 -90T572 -99ZM501 748Q479 776 452 802T386 860Q388 879 396 887T415 896Q430 896 448 882T484 848T512 809T523
781Q523 775 518 764T501 748Z" />
<glyph unicode="&#xda;" horiz-adv-x="735" d="M572 -99Q535 -99 510 -67T485 11Q485 21 486 38T490 76Q453 4 401 -42T276 -88Q210 -88 174 -48T138 59Q138 101 150 153T180 263T217 378T247 491T259 593Q259 683 205 683Q178 683 159 666T127 622T108 569T101
522Q101 507 104 491T113 463Q68 463 49 484T30 537Q30 568 45 600T87 659T151 702T229 719Q288 719 314 685T340 593Q340 556 331 511T308 418T280 324Q255 245 238 183T221 72Q221 26 240 -6T305 -38Q346 -38 380 -13T439 54T483 141T510 226Q524 285 541 352T576
485T614 603T651 687T687 719Q696 719 712 710T746 683Q738 676 721 641T683 550T641 427T602 290T573 156T562 43Q562 -21 582 -42T651 -64Q637 -81 615 -90T572 -99ZM508 748Q497 753 492 763T487 779Q487 787 497 806T523 845T557 881T590 896Q600 896 608 889T618
862Q582 829 556 803T508 748Z" />
<glyph unicode="&#xdb;" horiz-adv-x="735" d="M572 -99Q535 -99 510 -67T485 11Q485 21 486 38T490 76Q453 4 401 -42T276 -88Q210 -88 174 -48T138 59Q138 101 150 153T180 263T217 378T247 491T259 593Q259 683 205 683Q178 683 159 666T127 622T108 569T101
522Q101 507 104 491T113 463Q68 463 49 484T30 537Q30 568 45 600T87 659T151 702T229 719Q288 719 314 685T340 593Q340 556 331 511T308 418T280 324Q255 245 238 183T221 72Q221 26 240 -6T305 -38Q346 -38 380 -13T439 54T483 141T510 226Q524 285 541 352T576
485T614 603T651 687T687 719Q696 719 712 710T746 683Q738 676 721 641T683 550T641 427T602 290T573 156T562 43Q562 -21 582 -42T651 -64Q637 -81 615 -90T572 -99ZM597 744Q582 772 565 791T525 830Q496 820 472 807T422 776Q416 781 413 789T410 801Q410 816
423 831T457 859T496 880T526 888Q538 888 554 878T585 850T610 815T620 780Q620 770 615 760T597 744Z" />
<glyph unicode="&#xdc;" horiz-adv-x="735" d="M572 -99Q535 -99 510 -67T485 11Q485 21 486 38T490 76Q453 4 401 -42T276 -88Q210 -88 174 -48T138 59Q138 101 150 153T180 263T217 378T247 491T259 593Q259 683 205 683Q178 683 159 666T127 622T108 569T101
522Q101 507 104 491T113 463Q68 463 49 484T30 537Q30 568 45 600T87 659T151 702T229 719Q288 719 314 685T340 593Q340 556 331 511T308 418T280 324Q255 245 238 183T221 72Q221 26 240 -6T305 -38Q346 -38 380 -13T439 54T483 141T510 226Q524 285 541 352T576
485T614 603T651 687T687 719Q696 719 712 710T746 683Q738 676 721 641T683 550T641 427T602 290T573 156T562 43Q562 -21 582 -42T651 -64Q637 -81 615 -90T572 -99ZM580 753Q564 753 552 761T540 786Q540 805 562 819T606 833Q621 833 631 827T641 802Q641 785
622 769T580 753ZM436 773Q420 773 408 781T395 806Q395 825 417 839T462 854Q477 854 486 848T496 823Q496 806 478 790T436 773Z" />
<glyph unicode="&#xdd;" horiz-adv-x="693" d="M276 -187Q216 -187 175 -162T134 -90Q134 -60 151 -37T204 -5Q199 -28 197 -42T194 -69Q194 -109 216 -132T284 -155Q320 -155 348 -141T397 -103T434 -47T461 17T480 82Q494 136 503 195T525 300Q486 233 435 190T313
147Q249 147 222 183T195 272Q195 310 205 354T228 444T250 532T260 609Q260 639 249 661T205 683Q178 683 159 667T126 625T107 571T101 516Q101 501 103 490T111 463Q66 463 48 484T29 537Q29 567 44 599T86 659T149 703T227 720Q267 720 292 705T328 666T340
613Q340 589 332 555T310 471Q296 422 286 377T275 291Q275 249 291 223T346 196Q380 196 410 216T468 271T517 349T556 439Q569 483 582 531T611 623T644 693T680 720Q690 720 708 711T744 684Q722 651 707 621T678 556T650 474T619 358T579 193Q566 142 550 88T511
-15T456 -103T380 -164T276 -187ZM498 748Q487 753 482 763T477 779Q477 787 487 806T513 845T547 881T580 896Q590 896 598 889T608 862Q572 829 546 803T498 748Z" />
<glyph unicode="&#xde;" horiz-adv-x="531" d="M122 -87Q94 -87 69 -72T43 -32Q43 -21 47 -6T56 23Q97 151 141 282T239 546Q199 540 169 527T119 502T93 491Q89 491 80 497T63 511T56 526Q92 540 144 557T253 580Q261 598 269 621T288 666T312 702T345 716Q351
716 358 714T375 701Q362 675 349 645T323 580Q365 575 406 561T482 523T537 464T558 383Q558 327 530 288T458 223T363 183T266 161T189 153Q170 89 154 28T122 -87ZM196 182Q249 189 300 205T392 249T457 314T481 403Q481 453 457 485T393 532T311 550Q280 466
252 372T196 182Z" />
<glyph unicode="&#xdf;" horiz-adv-x="456" d="M-43 -115Q-30 -98 -20 -54T1 54T22 190T49 339T85 483T134 606T201 692T291 724Q339 724 372 694T405 609Q405 557 378 513T312 434T235 374Q281 359 314 325T364 247T382 156Q382 114 368 72T329 -6T272 -62T202
-84Q169 -84 149 -64T122 -13T114 50Q114 82 121 110T142 155T179 173Q183 173 189 173T210 169Q197 163 187 141T170 87T164 24Q164 -7 171 -30T195 -54Q213 -54 232 -35T267 16T294 86T305 163Q305 217 283 266T223 345Q216 351 209 359T201 376Q201 385 208
394T227 412Q253 435 279 463T323 528T341 609Q341 628 337 646T320 676T283 688Q245 688 218 656T172 570T138 448T112 307T86 163T56 33T15 -65T-43 -115Z" />
<glyph unicode="&#xe0;" horiz-adv-x="441" d="M53 -47Q21 -47 -2 -26T-26 39Q-26 75 -10 116T34 197T98 270T174 323T255 343Q297 343 325 322T354 265Q354 238 337 227T295 220Q297 228 298 237T300 256Q300 277 291 293T256 309Q228 309 199 290T143 240T95
172T62 99T50 35Q50 1 75 1Q98 1 125 23T181 79T236 148T281 211Q285 216 288 216Q293 215 304 212T324 202T333 186Q333 176 324 161T304 126T284 88T275 51Q275 38 282 26T307 13Q332 13 375 49T464 169L480 153Q457 99 424 58T353 -6T279 -30Q239 -30 220 -6T199
48Q199 51 199 54T200 61Q159 10 125 -18T53 -47ZM329 409Q307 437 280 463T214 521Q216 540 224 548T243 557Q258 557 276 543T312 509T340 470T351 442Q351 436 346 425T329 409Z" />
<glyph unicode="&#xe1;" horiz-adv-x="441" d="M53 -47Q21 -47 -2 -26T-26 39Q-26 75 -10 116T34 197T98 270T174 323T255 343Q297 343 325 322T354 265Q354 238 337 227T295 220Q297 228 298 237T300 256Q300 277 291 293T256 309Q228 309 199 290T143 240T95
172T62 99T50 35Q50 1 75 1Q98 1 125 23T181 79T236 148T281 211Q285 216 288 216Q293 215 304 212T324 202T333 186Q333 176 324 161T304 126T284 88T275 51Q275 38 282 26T307 13Q332 13 375 49T464 169L480 153Q457 99 424 58T353 -6T279 -30Q239 -30 220 -6T199
48Q199 51 199 54T200 61Q159 10 125 -18T53 -47ZM302 410Q291 415 286 425T281 441Q281 449 291 468T317 507T351 543T384 558Q394 558 402 551T412 524Q376 491 350 465T302 410Z" />
<glyph unicode="&#xe2;" horiz-adv-x="441" d="M53 -47Q21 -47 -2 -26T-26 39Q-26 75 -10 116T34 197T98 270T174 323T255 343Q297 343 325 322T354 265Q354 238 337 227T295 220Q297 228 298 237T300 256Q300 277 291 293T256 309Q228 309 199 290T143 240T95
172T62 99T50 35Q50 1 75 1Q98 1 125 23T181 79T236 148T281 211Q285 216 288 216Q293 215 304 212T324 202T333 186Q333 176 324 161T304 126T284 88T275 51Q275 38 282 26T307 13Q332 13 375 49T464 169L480 153Q457 99 424 58T353 -6T279 -30Q239 -30 220 -6T199
48Q199 51 199 54T200 61Q159 10 125 -18T53 -47ZM393 402Q378 430 361 449T321 488Q292 478 268 465T218 434Q212 439 209 447T206 459Q206 474 219 489T253 517T292 538T322 546Q334 546 350 536T381 508T406 473T416 438Q416 428 411 418T393 402Z" />
<glyph unicode="&#xe3;" horiz-adv-x="441" d="M53 -47Q21 -47 -2 -26T-26 39Q-26 75 -10 116T34 197T98 270T174 323T255 343Q297 343 325 322T354 265Q354 238 337 227T295 220Q297 228 298 237T300 256Q300 277 291 293T256 309Q228 309 199 290T143 240T95
172T62 99T50 35Q50 1 75 1Q98 1 125 23T181 79T236 148T281 211Q285 216 288 216Q293 215 304 212T324 202T333 186Q333 176 324 161T304 126T284 88T275 51Q275 38 282 26T307 13Q332 13 375 49T464 169L480 153Q457 99 424 58T353 -6T279 -30Q239 -30 220 -6T199
48Q199 51 199 54T200 61Q159 10 125 -18T53 -47ZM398 399Q370 399 341 411T282 434T224 446Q209 446 194 444T163 433Q178 462 200 475T252 489Q280 489 309 477T369 453T431 441Q456 441 481 450Q466 424 446 412T398 399Z" />
<glyph unicode="&#xe4;" horiz-adv-x="441" d="M53 -47Q21 -47 -2 -26T-26 39Q-26 75 -10 116T34 197T98 270T174 323T255 343Q297 343 325 322T354 265Q354 238 337 227T295 220Q297 228 298 237T300 256Q300 277 291 293T256 309Q228 309 199 290T143 240T95
172T62 99T50 35Q50 1 75 1Q98 1 125 23T181 79T236 148T281 211Q285 216 288 216Q293 215 304 212T324 202T333 186Q333 176 324 161T304 126T284 88T275 51Q275 38 282 26T307 13Q332 13 375 49T464 169L480 153Q457 99 424 58T353 -6T279 -30Q239 -30 220 -6T199
48Q199 51 199 54T200 61Q159 10 125 -18T53 -47ZM628 416Q612 416 600 424T588 449Q588 468 610 482T654 496Q669 496 679 490T689 465Q689 448 670 432T628 416ZM484 436Q468 436 456 444T443 469Q443 488 465 502T510 517Q525 517 534 511T544 486Q544 469 526
453T484 436Z" />
<glyph unicode="&#xe5;" horiz-adv-x="441" d="M53 -47Q21 -47 -2 -26T-26 39Q-26 75 -10 116T34 197T98 270T174 323T255 343Q297 343 325 322T354 265Q354 238 337 227T295 220Q297 228 298 237T300 256Q300 277 291 293T256 309Q228 309 199 290T143 240T95
172T62 99T50 35Q50 1 75 1Q98 1 125 23T181 79T236 148T281 211Q285 216 288 216Q293 215 304 212T324 202T333 186Q333 176 324 161T304 126T284 88T275 51Q275 38 282 26T307 13Q332 13 375 49T464 169L480 153Q457 99 424 58T353 -6T279 -30Q239 -30 220 -6T199
48Q199 51 199 54T200 61Q159 10 125 -18T53 -47ZM313 398Q274 398 256 414T237 454Q237 478 253 503T297 546T361 564Q404 564 422 548T441 508Q441 485 424 459T378 416T313 398ZM322 428Q340 428 356 440T383 469T394 501Q394 513 386 522T356 531Q338 531 322
520T295 493T285 460Q286 450 294 439T322 428Z" />
<glyph unicode="&#xe6;" horiz-adv-x="552" d="M55 -47Q22 -47 -2 -26T-26 39Q-26 75 -10 116T34 197T98 270T174 324T256 344Q284 344 302 334T328 305Q359 329 393 344T460 360Q485 360 506 348T528 296Q528 258 506 225T447 165T366 123T277 102Q276 94 275
86T274 71Q276 43 291 19T352 -6Q395 -6 437 18T515 81T576 169L593 155Q566 94 524 50T432 -19T331 -44Q273 -44 241 -14T202 59Q161 8 126 -19T55 -47ZM77 3Q103 3 137 33T202 103Q209 147 235 193T298 277Q294 290 284 298T254 307Q226 307 198 289T143 239T97
172T65 101T53 37Q53 3 77 3ZM285 133Q312 142 345 159T407 198T456 247T475 303Q475 311 472 315T457 320Q435 320 409 304T359 260T316 199T285 133Z" />
<glyph unicode="&#xe7;" horiz-adv-x="330" d="M111 -56Q60 -56 27 -24T-6 75Q-6 124 13 171T65 256T136 316T215 338Q257 338 274 316T292 267Q292 238 279 213T242 188Q223 188 211 206Q223 213 234 234T245 282Q245 292 241 297T225 302Q199 302 172 279T120
220T81 143T66 68Q66 39 81 15T138 -9Q177 -9 217 13T294 75T351 170L369 154Q345 94 304 47T212 -28T111 -56ZM188 -226Q159 -226 142 -213T124 -186Q124 -178 131 -168T153 -147Q160 -171 171 -181T193 -192Q211 -192 229 -178T261 -143T275 -107Q275 -99 271
-94T259 -88Q246 -88 230 -97T200 -117T178 -127Q169 -127 164 -119T159 -104Q159 -102 168 -90T190 -59T216 -25T240 0H255L206 -77Q215 -72 230 -67T264 -61Q287 -61 301 -73T315 -108Q315 -136 298 -163T251 -208T188 -226Z" />
<glyph unicode="&#xe8;" horiz-adv-x="338" d="M113 -44Q50 -44 17 -10T-16 75Q-16 120 6 169T67 262T150 333T241 361Q266 361 288 348T311 296Q311 258 289 225T230 165T149 123T60 102Q59 96 58 90T57 74Q57 66 59 53T69 26T93 3T135 -6Q177 -6 219 18T299
81T361 169L378 155Q351 95 309 51T217 -19T113 -44ZM69 133Q95 138 128 153T191 192T240 244T260 301Q260 312 256 317T242 322Q218 322 193 305T143 260T99 199T69 133ZM307 418Q285 446 258 472T192 530Q194 549 202 557T221 566Q236 566 254 552T290 518T318
479T329 451Q329 445 324 434T307 418Z" />
<glyph unicode="&#xe9;" horiz-adv-x="338" d="M113 -44Q50 -44 17 -10T-16 75Q-16 120 6 169T67 262T150 333T241 361Q266 361 288 348T311 296Q311 258 289 225T230 165T149 123T60 102Q59 96 58 90T57 74Q57 66 59 53T69 26T93 3T135 -6Q177 -6 219 18T299
81T361 169L378 155Q351 95 309 51T217 -19T113 -44ZM69 133Q95 138 128 153T191 192T240 244T260 301Q260 312 256 317T242 322Q218 322 193 305T143 260T99 199T69 133ZM280 419Q269 424 264 434T259 450Q259 458 269 477T295 516T329 552T362 567Q372 567 380
560T390 533Q354 500 328 474T280 419Z" />
<glyph unicode="&#xea;" horiz-adv-x="338" d="M113 -44Q50 -44 17 -10T-16 75Q-16 120 6 169T67 262T150 333T241 361Q266 361 288 348T311 296Q311 258 289 225T230 165T149 123T60 102Q59 96 58 90T57 74Q57 66 59 53T69 26T93 3T135 -6Q177 -6 219 18T299
81T361 169L378 155Q351 95 309 51T217 -19T113 -44ZM69 133Q95 138 128 153T191 192T240 244T260 301Q260 312 256 317T242 322Q218 322 193 305T143 260T99 199T69 133ZM371 411Q356 439 339 458T299 497Q270 487 246 474T196 443Q190 448 187 456T184 468Q184
483 197 498T231 526T270 547T300 555Q312 555 328 545T359 517T384 482T394 447Q394 437 389 427T371 411Z" />
<glyph unicode="&#xeb;" horiz-adv-x="338" d="M113 -44Q50 -44 17 -10T-16 75Q-16 120 6 169T67 262T150 333T241 361Q266 361 288 348T311 296Q311 258 289 225T230 165T149 123T60 102Q59 96 58 90T57 74Q57 66 59 53T69 26T93 3T135 -6Q177 -6 219 18T299
81T361 169L378 155Q351 95 309 51T217 -19T113 -44ZM69 133Q95 138 128 153T191 192T240 244T260 301Q260 312 256 317T242 322Q218 322 193 305T143 260T99 199T69 133ZM606 425Q590 425 578 433T566 458Q566 477 588 491T632 505Q647 505 657 499T667 474Q667
457 648 441T606 425ZM462 445Q446 445 434 453T421 478Q421 497 443 511T488 526Q503 526 512 520T522 495Q522 478 504 462T462 445Z" />
<glyph unicode="&#xec;" horiz-adv-x="243" d="M77 -29Q35 -29 14 -4T-7 59Q-7 82 1 117T23 190T57 263T97 318T140 340Q151 340 159 333T168 313Q168 300 153 274T116 214T80 142T64 71Q64 38 76 27T111 16Q145 16 184 50T267 169L280 155Q247 67 193 19T77 -29ZM204
413Q182 441 155 467T89 525Q91 544 99 552T118 561Q133 561 151 547T187 513T215 474T226 446Q226 440 221 429T204 413Z" />
<glyph unicode="&#xed;" horiz-adv-x="233" d="M77 -29Q35 -29 14 -4T-7 59Q-7 82 1 117T23 190T57 263T97 318T140 340Q151 340 159 333T168 313Q168 300 153 274T116 214T80 142T64 71Q64 38 76 27T111 16Q145 16 184 50T267 169L280 155Q247 67 193 19T77 -29ZM188
410Q177 415 172 425T167 441Q167 449 177 468T203 507T237 543T270 558Q280 558 288 551T298 524Q262 491 236 465T188 410Z" />
<glyph unicode="&#xee;" horiz-adv-x="260" d="M77 -29Q35 -29 14 -4T-7 59Q-7 82 1 117T23 190T57 263T97 318T140 340Q151 340 159 333T168 313Q168 300 153 274T116 214T80 142T64 71Q64 38 76 27T111 16Q145 16 184 50T267 169L280 155Q247 67 193 19T77 -29ZM285
402Q270 430 253 449T213 488Q184 478 160 465T110 434Q104 439 101 447T98 459Q98 474 111 489T145 517T184 538T214 546Q226 546 242 536T273 508T298 473T308 438Q308 428 303 418T285 402Z" />
<glyph unicode="&#xef;" horiz-adv-x="233" d="M77 -29Q35 -29 14 -4T-7 59Q-7 82 1 117T23 190T57 263T97 318T140 340Q151 340 159 333T168 313Q168 300 153 274T116 214T80 142T64 71Q64 38 76 27T111 16Q145 16 184 50T267 169L280 155Q247 67 193 19T77 -29ZM501
415Q485 415 473 423T461 448Q461 467 483 481T527 495Q542 495 552 489T562 464Q562 447 543 431T501 415ZM357 435Q341 435 329 443T316 468Q316 487 338 501T383 516Q398 516 407 510T417 485Q417 468 399 452T357 435Z" />
<glyph unicode="&#xf0;" horiz-adv-x="483" d="M59 -30Q32 -30 7 -9T-18 57Q-18 90 -2 131T41 213T104 289T177 344T254 365Q281 365 295 355T310 327Q310 322 309 317T304 305Q288 325 258 325Q227 325 198 307T144 258T101 192T72 124T61 68Q61 48 69 36T93
24Q115 24 143 45T203 103T263 189T314 291Q332 335 344 384T357 482Q357 493 356 502T353 525Q339 523 315 518T269 509T232 500Q232 524 247 537T288 556T343 567Q332 601 310 633T251 695Q270 719 298 719Q330 719 354 699T397 645T425 576Q448 578 478 582T526
591Q512 569 500 558T472 543T433 535Q435 524 436 514T437 491Q437 442 421 385T383 269T345 157T328 62Q328 44 333 34T353 23Q374 23 402 41T458 93T508 173L525 162Q503 107 470 65T398 -2T322 -26Q282 -26 267 0T251 58Q251 76 255 98T264 143Q233 96 197
57T126 -6T59 -30Z" />
<glyph unicode="&#xf1;" horiz-adv-x="471" d="M332 -20Q295 -20 276 -1T256 47Q256 68 263 90T277 136T284 182Q284 206 273 215T247 224Q217 224 186 199T124 137T68 58T23 -15Q5 -15 -11 -9T-38 12Q-37 17 -27 42T-3 104T20 180T31 252Q38 259 52 267T81 275Q113
275 113 246Q113 233 107 205T91 143Q118 180 149 214T216 270T287 292Q328 292 347 264T367 200Q367 170 357 144T338 94T328 47Q328 30 335 23T354 15Q378 15 403 38T452 97T494 169L509 156Q488 107 462 67T404 4T332 -20ZM364 353Q336 353 307 365T248 388T190
400Q175 400 160 398T129 387Q144 416 166 429T218 443Q246 443 275 431T335 407T397 395Q422 395 447 404Q432 378 412 366T364 353Z" />
<glyph unicode="&#xf2;" horiz-adv-x="370" d="M67 -32Q23 -32 6 -4T-11 61Q-11 93 -1 126T26 188T64 235T107 253Q113 253 121 251T134 244Q123 232 111 210T88 163T71 112T64 65Q64 42 72 29T98 16Q118 16 145 37T198 90Q167 117 153 152T138 233Q138 258 149
286T183 333T243 352Q285 352 301 329T318 272Q318 235 299 189T252 100Q266 92 283 92Q298 92 319 99T359 122T391 166L407 154Q386 105 350 83T279 60Q266 60 253 62T229 70Q195 28 153 -2T67 -32ZM221 120Q246 155 262 195T279 270Q279 295 272 306T251 318Q231
318 211 291T191 221Q191 197 198 168T221 120ZM306 423Q284 451 257 477T191 535Q193 554 201 562T220 571Q235 571 253 557T289 523T317 484T328 456Q328 450 323 439T306 423Z" />
<glyph unicode="&#xf3;" horiz-adv-x="370" d="M67 -32Q23 -32 6 -4T-11 61Q-11 93 -1 126T26 188T64 235T107 253Q113 253 121 251T134 244Q123 232 111 210T88 163T71 112T64 65Q64 42 72 29T98 16Q118 16 145 37T198 90Q167 117 153 152T138 233Q138 258 149
286T183 333T243 352Q285 352 301 329T318 272Q318 235 299 189T252 100Q266 92 283 92Q298 92 319 99T359 122T391 166L407 154Q386 105 350 83T279 60Q266 60 253 62T229 70Q195 28 153 -2T67 -32ZM221 120Q246 155 262 195T279 270Q279 295 272 306T251 318Q231
318 211 291T191 221Q191 197 198 168T221 120ZM279 424Q268 429 263 439T258 455Q258 463 268 482T294 521T328 557T361 572Q371 572 379 565T389 538Q353 505 327 479T279 424Z" />
<glyph unicode="&#xf4;" horiz-adv-x="370" d="M67 -32Q23 -32 6 -4T-11 61Q-11 93 -1 126T26 188T64 235T107 253Q113 253 121 251T134 244Q123 232 111 210T88 163T71 112T64 65Q64 42 72 29T98 16Q118 16 145 37T198 90Q167 117 153 152T138 233Q138 258 149
286T183 333T243 352Q285 352 301 329T318 272Q318 235 299 189T252 100Q266 92 283 92Q298 92 319 99T359 122T391 166L407 154Q386 105 350 83T279 60Q266 60 253 62T229 70Q195 28 153 -2T67 -32ZM221 120Q246 155 262 195T279 270Q279 295 272 306T251 318Q231
318 211 291T191 221Q191 197 198 168T221 120ZM370 416Q355 444 338 463T298 502Q269 492 245 479T195 448Q189 453 186 461T183 473Q183 488 196 503T230 531T269 552T299 560Q311 560 327 550T358 522T383 487T393 452Q393 442 388 432T370 416Z" />
<glyph unicode="&#xf5;" horiz-adv-x="370" d="M67 -32Q23 -32 6 -4T-11 61Q-11 93 -1 126T26 188T64 235T107 253Q113 253 121 251T134 244Q123 232 111 210T88 163T71 112T64 65Q64 42 72 29T98 16Q118 16 145 37T198 90Q167 117 153 152T138 233Q138 258 149
286T183 333T243 352Q285 352 301 329T318 272Q318 235 299 189T252 100Q266 92 283 92Q298 92 319 99T359 122T391 166L407 154Q386 105 350 83T279 60Q266 60 253 62T229 70Q195 28 153 -2T67 -32ZM221 120Q246 155 262 195T279 270Q279 295 272 306T251 318Q231
318 211 291T191 221Q191 197 198 168T221 120ZM375 413Q347 413 318 425T259 448T201 460Q186 460 171 458T140 447Q155 476 177 489T229 503Q257 503 286 491T346 467T408 455Q433 455 458 464Q443 438 423 426T375 413Z" />
<glyph unicode="&#xf6;" horiz-adv-x="356" d="M67 -32Q23 -32 6 -4T-11 61Q-11 93 -1 126T26 188T64 235T107 253Q113 253 121 251T134 244Q123 232 111 210T88 163T71 112T64 65Q64 42 72 29T98 16Q118 16 145 37T198 90Q167 117 153 152T138 233Q138 258 149
286T183 333T243 352Q285 352 301 329T318 272Q318 235 299 189T252 100Q266 92 283 92Q298 92 319 99T359 122T391 166L407 154Q386 105 350 83T279 60Q266 60 253 62T229 70Q195 28 153 -2T67 -32ZM221 120Q246 155 262 195T279 270Q279 295 272 306T251 318Q231
318 211 291T191 221Q191 197 198 168T221 120ZM606 412Q590 412 578 420T566 445Q566 464 588 478T632 492Q647 492 657 486T667 461Q667 444 648 428T606 412ZM462 432Q446 432 434 440T421 465Q421 484 443 498T488 513Q503 513 512 507T522 482Q522 465 504
449T462 432Z" />
<glyph unicode="&#xf7;" horiz-adv-x="481" d="M26 119Q34 145 63 157T136 173T228 177Q264 177 300 175T366 171T413 167Q393 154 370 146T311 134T221 130Q178 130 132 129T26 119ZM180 -13Q166 -13 154 -6T142 18Q142 36 163 49T205 63Q219 63 227 57T236 34Q236
18 219 3T180 -13ZM239 236Q225 236 213 243T201 267Q201 285 222 298T264 312Q278 312 286 306T295 283Q295 268 278 252T239 236Z" />
<glyph unicode="&#xf8;" horiz-adv-x="369" d="M67 -32Q49 -32 37 -27Q19 -40 1 -47T-35 -55Q-39 -55 -43 -55T-52 -53Q-40 -46 -25 -34T6 -4Q-3 9 -7 25T-11 61Q-11 93 -1 126T26 188T64 235T107 253Q114 253 120 251T134 245Q125 239 113 219T89 170T71 112T64
60Q87 87 109 115T149 166Q144 182 142 199T139 235Q139 269 151 295T187 337T243 352Q264 352 279 344Q284 351 289 358T300 373Q305 380 317 384T344 388Q349 388 354 388T365 386Q362 381 347 361T311 312Q318 294 318 272Q318 235 299 189T252 100Q269 90 289
90Q316 90 344 108T391 166L407 154Q386 105 350 83T279 60Q266 60 253 62T229 70Q195 28 153 -2T67 -32ZM198 90Q190 97 183 105T170 122Q148 93 128 67T86 18Q91 16 98 16Q118 16 145 37T198 90ZM221 120Q246 155 262 195T278 269Q258 241 238 213T200 161Q204
150 209 139T221 120ZM259 316Q258 318 256 318T251 318Q238 318 224 306T201 271T191 221Q208 244 225 268T259 316Z" />
<glyph unicode="&#xf9;" horiz-adv-x="440" d="M76 -30Q42 -30 21 1T-1 73Q-1 101 8 139T32 213T61 274T89 298Q96 298 109 291T133 274Q122 258 107 224T79 152T67 81Q67 76 68 61T76 32T99 19Q116 19 136 37T176 86T216 151T251 218T277 272Q285 271 298 268T322
258T333 241Q333 238 324 216T301 163T279 100T269 44Q269 29 275 18T298 7Q319 7 348 26T409 81T464 168L478 157Q456 103 422 61T348 -6T271 -30Q243 -30 228 -18T208 15T202 56Q202 63 202 71T204 86Q187 57 167 31T124 -13T76 -30ZM265 369Q243 397 216 423T150
481Q152 500 160 508T179 517Q194 517 212 503T248 469T276 430T287 402Q287 396 282 385T265 369Z" />
<glyph unicode="&#xfa;" horiz-adv-x="440" d="M76 -30Q42 -30 21 1T-1 73Q-1 101 8 139T32 213T61 274T89 298Q96 298 109 291T133 274Q122 258 107 224T79 152T67 81Q67 76 68 61T76 32T99 19Q116 19 136 37T176 86T216 151T251 218T277 272Q285 271 298 268T322
258T333 241Q333 238 324 216T301 163T279 100T269 44Q269 29 275 18T298 7Q319 7 348 26T409 81T464 168L478 157Q456 103 422 61T348 -6T271 -30Q243 -30 228 -18T208 15T202 56Q202 63 202 71T204 86Q187 57 167 31T124 -13T76 -30ZM238 370Q227 375 222 385T217
401Q217 409 227 428T253 467T287 503T320 518Q330 518 338 511T348 484Q312 451 286 425T238 370Z" />
<glyph unicode="&#xfb;" horiz-adv-x="440" d="M76 -30Q42 -30 21 1T-1 73Q-1 101 8 139T32 213T61 274T89 298Q96 298 109 291T133 274Q122 258 107 224T79 152T67 81Q67 76 68 61T76 32T99 19Q116 19 136 37T176 86T216 151T251 218T277 272Q285 271 298 268T322
258T333 241Q333 238 324 216T301 163T279 100T269 44Q269 29 275 18T298 7Q319 7 348 26T409 81T464 168L478 157Q456 103 422 61T348 -6T271 -30Q243 -30 228 -18T208 15T202 56Q202 63 202 71T204 86Q187 57 167 31T124 -13T76 -30ZM329 362Q314 390 297 409T257
448Q228 438 204 425T154 394Q148 399 145 407T142 419Q142 434 155 449T189 477T228 498T258 506Q270 506 286 496T317 468T342 433T352 398Q352 388 347 378T329 362Z" />
<glyph unicode="&#xfc;" horiz-adv-x="440" d="M76 -30Q42 -30 21 1T-1 73Q-1 101 8 139T32 213T61 274T89 298Q96 298 109 291T133 274Q122 258 107 224T79 152T67 81Q67 76 68 61T76 32T99 19Q116 19 136 37T176 86T216 151T251 218T277 272Q285 271 298 268T322
258T333 241Q333 238 324 216T301 163T279 100T269 44Q269 29 275 18T298 7Q319 7 348 26T409 81T464 168L478 157Q456 103 422 61T348 -6T271 -30Q243 -30 228 -18T208 15T202 56Q202 63 202 71T204 86Q187 57 167 31T124 -13T76 -30ZM564 376Q548 376 536 384T524
409Q524 428 546 442T590 456Q605 456 615 450T625 425Q625 408 606 392T564 376ZM420 396Q404 396 392 404T379 429Q379 448 401 462T446 477Q461 477 470 471T480 446Q480 429 462 413T420 396Z" />
<glyph unicode="&#xfd;" horiz-adv-x="396" d="M46 -280Q21 -280 1 -265T-20 -219Q-20 -187 -2 -162T45 -115T108 -76T177 -41Q189 -10 203 35T228 124Q197 78 162 44T83 9Q65 9 46 16T13 42T0 91Q0 118 9 155T33 227T63 285T91 309Q96 309 107 305T128 294T141
279Q132 267 121 244T100 193T84 138T77 92Q77 76 83 65T108 54Q129 54 152 72T199 118T240 177Q243 186 245 199T251 228Q255 244 267 259T303 275Q310 275 316 274T332 271Q332 256 322 213T294 112T255 -4Q299 13 344 53T417 165L433 153Q418 103 388 67T319
5T243 -38Q216 -103 185 -158T120 -247T46 -280ZM38 -245Q56 -245 90 -205T161 -79Q126 -97 93 -118T38 -164T16 -216Q16 -225 21 -235T38 -245ZM233 381Q222 386 217 396T212 412Q212 420 222 439T248 478T282 514T315 529Q325 529 333 522T343 495Q307 462 281
436T233 381Z" />
<glyph unicode="&#xfe;" horiz-adv-x="407" d="M-57 -280Q-66 -280 -74 -271T-87 -250T-93 -237Q-71 -163 -50 -90T-9 69T28 260T60 502Q62 514 65 518T84 523Q112 523 124 510T136 469Q136 458 134 436T127 385T119 327T109 267T100 215Q118 245 143 274T199
322T267 341Q314 341 345 309T377 223Q377 184 359 140T309 58T233 -5T134 -29Q104 -29 87 -22T69 -6Q69 1 78 2T99 3Q139 3 175 21T240 71T285 139T302 213Q302 243 289 264T246 286Q220 286 195 270T147 229T108 178T82 130Q63 52 46 -16T12 -139T-18 -227T-44
-274Q-50 -280 -57 -280Z" />
<glyph unicode="&#xff;" horiz-adv-x="396" d="M46 -280Q21 -280 1 -265T-20 -219Q-20 -187 -2 -162T45 -115T108 -76T177 -41Q189 -10 203 35T228 124Q197 78 162 44T83 9Q65 9 46 16T13 42T0 91Q0 118 9 155T33 227T63 285T91 309Q96 309 107 305T128 294T141
279Q132 267 121 244T100 193T84 138T77 92Q77 76 83 65T108 54Q129 54 152 72T199 118T240 177Q243 186 245 199T251 228Q255 244 267 259T303 275Q310 275 316 274T332 271Q332 256 322 213T294 112T255 -4Q299 13 344 53T417 165L433 153Q418 103 388 67T319
5T243 -38Q216 -103 185 -158T120 -247T46 -280ZM38 -245Q56 -245 90 -205T161 -79Q126 -97 93 -118T38 -164T16 -216Q16 -225 21 -235T38 -245ZM559 387Q543 387 531 395T519 420Q519 439 541 453T585 467Q600 467 610 461T620 436Q620 419 601 403T559 387ZM415
407Q399 407 387 415T374 440Q374 459 396 473T441 488Q456 488 465 482T475 457Q475 440 457 424T415 407Z" />
<glyph unicode="&#x2013;" horiz-adv-x="729" d="M42 108Q47 145 76 164T162 191T307 198Q373 198 417 196T495 190T563 183T643 179Q598 147 556 136T484 124Q430 124 392 124T327 126T278 128T234 129Q193 129 160 127T99 121T42 108Z" />
<glyph unicode="&#x2014;" horiz-adv-x="891" d="M54 108Q59 145 101 164T216 191T383 198Q454 198 510 196T615 190T709 183T804 179Q756 147 712 135T637 123Q561 123 495 124T379 127T295 129Q251 129 220 128T163 125T112 118T54 108Z" />
<glyph unicode="&#x2018;" horiz-adv-x="170" d="M212 574Q200 593 183 614T154 656T140 690Q140 703 150 713T174 723Q179 705 195 684T226 644T241 611Q241 600 232 590T212 574Z" />
<glyph unicode="&#x2019;" horiz-adv-x="151" d="M166 573Q155 579 146 588T137 609Q137 624 151 643T182 683T204 721Q217 721 227 712T238 689Q238 675 225 655T195 613T166 573Z" />
<glyph unicode="&#x201a;" horiz-adv-x="209" d="M24 -88Q12 -81 6 -70T0 -46Q0 -26 9 -2T32 40T62 58Q74 58 83 49T92 27Q67 -1 54 -27T24 -88Z" />
<glyph unicode="&#x201c;" horiz-adv-x="289" d="M332 574Q320 593 303 614T273 656T259 690Q259 703 269 713T293 723Q299 705 315 685T346 645T361 611Q361 600 352 590T332 574ZM212 574Q200 593 183 614T154 656T140 690Q140 703 150 713T174 723Q179 705
195 685T226 645T241 611Q241 600 232 590T212 574Z" />
<glyph unicode="&#x201d;" horiz-adv-x="272" d="M286 574Q275 580 266 590T257 611Q257 626 271 645T302 684T324 723Q337 723 347 713T358 690Q358 676 345 656T315 615T286 574ZM166 574Q156 580 147 590T137 611Q137 626 152 645T183 684T205 723Q218 723
228 713T239 690Q239 676 226 656T196 615T166 574Z" />
<glyph unicode="&#x201e;" horiz-adv-x="319" d="M134 -88Q122 -81 116 -70T110 -46Q110 -26 119 -2T142 40T172 58Q184 58 193 49T202 27Q177 -1 164 -27T134 -88ZM24 -88Q12 -81 6 -70T0 -46Q0 -26 9 -2T32 40T62 58Q74 58 83 49T92 27Q67 -1 54 -27T24 -88Z" />
<glyph unicode="&#x2022;" horiz-adv-x="262" d="M101 115Q82 115 68 126T54 157Q54 173 63 189T89 217T123 228Q146 228 161 214T177 178Q177 165 166 150T137 125T101 115Z" />
<glyph unicode="&#x2039;" horiz-adv-x="311" d="M185 42Q166 42 140 54T88 84T42 122T19 158Q54 173 91 200T160 260T213 319Q219 313 221 304T224 289Q224 269 209 250T168 212T115 177T61 147Q82 132 101 120T149 95T224 65Q217 57 207 50T185 42Z" />
<glyph unicode="&#x203a;" horiz-adv-x="327" d="M103 42Q92 42 82 49T64 65Q111 82 139 94T187 119T227 147Q202 160 174 176T120 210T80 249T64 288Q64 293 67 302T75 319Q96 292 128 260T197 201T269 158Q265 142 246 123T201 85T148 54T103 42Z" />
</font>
</defs>
</svg>
