<?xml version="1.0" encoding="UTF-8" standalone="no"?>
<svg
   xmlns:dc="http://purl.org/dc/elements/1.1/"
   xmlns:cc="http://creativecommons.org/ns#"
   xmlns:rdf="http://www.w3.org/1999/02/22-rdf-syntax-ns#"
   xmlns:svg="http://www.w3.org/2000/svg"
   xmlns="http://www.w3.org/2000/svg"
   xmlns:sodipodi="http://sodipodi.sourceforge.net/DTD/sodipodi-0.dtd"
   xmlns:inkscape="http://www.inkscape.org/namespaces/inkscape"
   height="512pt"
   viewBox="-90 0 512 512"
   width="512pt"
   version="1.1"
   id="svg1258"
   sodipodi:docname="scroll.svg"
   inkscape:version="1.0.1 (0767f8302a, 2020-10-17)">
  <metadata
     id="metadata1264">
    <rdf:RDF>
      <cc:Work
         rdf:about="">
        <dc:format>image/svg+xml</dc:format>
        <dc:type
           rdf:resource="http://purl.org/dc/dcmitype/StillImage" />
      </cc:Work>
    </rdf:RDF>
  </metadata>
  <defs
     id="defs1262" />
  <sodipodi:namedview
     pagecolor="#ffffff"
     bordercolor="#666666"
     borderopacity="1"
     objecttolerance="10"
     gridtolerance="10"
     guidetolerance="10"
     inkscape:pageopacity="0"
     inkscape:pageshadow="2"
     inkscape:window-width="1858"
     inkscape:window-height="1016"
     id="namedview1260"
     showgrid="false"
     inkscape:zoom="1.2744141"
     inkscape:cx="332.81075"
     inkscape:cy="428.36796"
     inkscape:window-x="62"
     inkscape:window-y="27"
     inkscape:window-maximized="1"
     inkscape:current-layer="layer1"
     inkscape:document-rotation="0" />
  <g
     inkscape:groupmode="layer"
     id="layer1"
     inkscape:label="Arrow">
    <path
       d="m 167.51734,401.28695 -89.769534,-94.89844 29.058594,-27.48828 60.63282,64.09766 60.27343,-64.0586 29.13282,27.41016 z"
       id="path1256"
       style="fill:#e48212;fill-opacity:1"
       sodipodi:nodetypes="ccccccc" />
  </g>
  <g
     inkscape:groupmode="layer"
     id="layer2"
     inkscape:label="Mouse">
    <path
       d="M 332.49133,392.38167 V 120.38166 C 332.49133,54.213702 278.6593,0.38167298 212.49132,0.38167298 H 120.49133 C 54.323361,0.38167298 0.49133106,54.213702 0.49133106,120.38166 v 272.00001 c 0,66.16797 53.83202994,120.00001 119.99999894,120.00001 h 91.99999 c 66.16798,0 120.00001,-53.83204 120.00001,-120.00001 z M 212.49132,40.381672 c 44.11329,0 80,35.88672 80,79.999988 v 272.00001 c 0,44.11328 -35.88671,80 -80,80 h -91.99999 c -44.113283,0 -79.999999,-35.88672 -79.999999,-80 V 120.38166 c 0,-44.113268 35.886716,-79.999988 79.999999,-79.999988 z m -45.99999,41 c -11.04688,0 -20,8.95313 -20,19.999988 0,11.04688 8.95312,20 20,20 11.04687,0 20,-8.95312 20,-20 0,-11.046858 -8.95313,-19.999988 -20,-19.999988 z m 0,79.999998 c -11.04688,0 -20,8.95311 -20,20 0,11.04687 8.95312,19.99999 20,19.99999 11.04687,0 20,-8.95312 20,-19.99999 0,-11.04689 -8.95313,-20 -20,-20 z"
       id="path1256-3"
       style="fill:#e48212;fill-opacity:1;stroke-width:0.999997"
       sodipodi:nodetypes="ssssssssssssssssssssssssssss"
       transform="translate(-2.6822089e-6)" />
  </g>
</svg>
