<?xml version="1.0" encoding="UTF-8" standalone="no"?>
<svg
   xmlns:dc="http://purl.org/dc/elements/1.1/"
   xmlns:cc="http://creativecommons.org/ns#"
   xmlns:rdf="http://www.w3.org/1999/02/22-rdf-syntax-ns#"
   xmlns:svg="http://www.w3.org/2000/svg"
   xmlns="http://www.w3.org/2000/svg"
   xmlns:sodipodi="http://sodipodi.sourceforge.net/DTD/sodipodi-0.dtd"
   xmlns:inkscape="http://www.inkscape.org/namespaces/inkscape"
   version="1.1"
   id="Capa_1"
   x="0px"
   y="0px"
   viewBox="0 0 552.45196 552.45197"
   xml:space="preserve"
   sodipodi:docname="tap.svg"
   inkscape:version="1.0.1 (0767f8302a, 2020-10-17)"
   width="552.45197"
   height="552.45197"><metadata
   id="metadata1081"><rdf:RDF><cc:Work
       rdf:about=""><dc:format>image/svg+xml</dc:format><dc:type
         rdf:resource="http://purl.org/dc/dcmitype/StillImage" /><dc:title></dc:title></cc:Work></rdf:RDF></metadata><defs
   id="defs1079" /><sodipodi:namedview
   pagecolor="#ffffff"
   bordercolor="#666666"
   borderopacity="1"
   objecttolerance="10"
   gridtolerance="10"
   guidetolerance="10"
   inkscape:pageopacity="0"
   inkscape:pageshadow="2"
   inkscape:window-width="1858"
   inkscape:window-height="1016"
   id="namedview1077"
   showgrid="false"
   inkscape:zoom="1.1504296"
   inkscape:cx="222.41301"
   inkscape:cy="356.7309"
   inkscape:window-x="62"
   inkscape:window-y="27"
   inkscape:window-maximized="1"
   inkscape:current-layer="layer2"
   inkscape:document-rotation="0"
   fit-margin-top="10"
   lock-margins="true"
   fit-margin-left="10"
   fit-margin-right="10"
   fit-margin-bottom="10" />










<g
   id="g1046"
   style="fill:#ffa61e;fill-opacity:1"
   transform="translate(-64.167,10)">
</g>
<g
   id="g1048"
   style="fill:#ffa61e;fill-opacity:1"
   transform="translate(-64.167,10)">
</g>
<g
   id="g1050"
   style="fill:#ffa61e;fill-opacity:1"
   transform="translate(-64.167,10)">
</g>
<g
   id="g1052"
   style="fill:#ffa61e;fill-opacity:1"
   transform="translate(-64.167,10)">
</g>
<g
   id="g1054"
   style="fill:#ffa61e;fill-opacity:1"
   transform="translate(-64.167,10)">
</g>
<g
   id="g1056"
   style="fill:#ffa61e;fill-opacity:1"
   transform="translate(-64.167,10)">
</g>
<g
   id="g1058"
   style="fill:#ffa61e;fill-opacity:1"
   transform="translate(-64.167,10)">
</g>
<g
   id="g1060"
   style="fill:#ffa61e;fill-opacity:1"
   transform="translate(-64.167,10)">
</g>
<g
   id="g1062"
   style="fill:#ffa61e;fill-opacity:1"
   transform="translate(-64.167,10)">
</g>
<g
   id="g1064"
   style="fill:#ffa61e;fill-opacity:1"
   transform="translate(-64.167,10)">
</g>
<g
   id="g1066"
   style="fill:#ffa61e;fill-opacity:1"
   transform="translate(-64.167,10)">
</g>
<g
   id="g1068"
   style="fill:#ffa61e;fill-opacity:1"
   transform="translate(-64.167,10)">
</g>
<g
   id="g1070"
   style="fill:#ffa61e;fill-opacity:1"
   transform="translate(-64.167,10)">
</g>
<g
   id="g1072"
   style="fill:#ffa61e;fill-opacity:1"
   transform="translate(-64.167,10)">
</g>
<g
   id="g1074"
   style="fill:#ffa61e;fill-opacity:1"
   transform="translate(-64.167,10)">
</g>
<g
   inkscape:groupmode="layer"
   id="layer1"
   inkscape:label="Hand"
   style="display:inline"><path
     style="fill:#fca537;fill-opacity:1;stroke-width:1.09058"
     d="m 417.65929,254.62879 v 0 c -16.28595,0 -29.4877,13.1641 -29.4877,29.4036 v -23.38675 c 0,-16.2395 -13.20176,-29.40361 -29.48771,-29.40361 v 0 c -16.28595,0 -29.4877,13.16411 -29.4877,29.40361 0,-16.2395 -13.20176,-29.40361 -29.48771,-29.40361 v 0 c -16.28595,0 -29.4877,13.16411 -29.4877,29.40361 V 149.58932 c 0,-16.2395 -13.20176,-29.40361 -29.48771,-29.40361 v 0 c -16.28595,0 -29.4877,13.16411 -29.4877,29.40361 v 92.07139 143.97202 l -35.57965,-58.21369 c -8.74692,-14.31084 -27.3493,-19.04591 -41.9053,-10.66588 v 0 c -14.03833,8.08163 -19.44441,25.59529 -12.39576,40.15007 l 50.30712,103.86986 c 24.18865,49.94257 74.90423,81.67886 130.52459,81.67886 v 0 c 80.05366,0 144.94954,-64.7108 144.94954,-144.53614 V 284.03239 c 0.001,-16.23841 -13.20066,-29.4036 -29.48661,-29.4036 z"
     id="path1026" /></g><g
   inkscape:groupmode="layer"
   id="layer2"
   inkscape:label="Click"
   style="display:inline"><path
     id="path1028"
     style="fill:#ffa61e;fill-opacity:1"
     d="m 241.266,91.667 c 9.31875,0.126368 10.74037,-9.888812 10,-17.049978 -0.13366,-18.874156 0.26853,-37.775252 -0.20316,-56.632415 -2.37183,-13.1429457 -22.88061,-8.0517342 -19.79684,4.579022 0.13393,20.369496 -0.26888,40.76598 0.20316,61.118476 0.85722,4.543497 5.1694,8.068406 9.79684,7.984895 z" /><path
     id="path1030"
     style="fill:#ffa61e;fill-opacity:1"
     d="m 300.838,151.266 c -0.12637,9.31875 9.88881,10.74037 17.04998,10 18.87415,-0.13366 37.77525,0.26853 56.63241,-0.20316 13.14295,-2.37183 8.05174,-22.88061 -4.57902,-19.79684 -20.36959,0.13393 -40.76617,-0.26888 -61.11876,0.20316 -4.54365,0.85701 -8.06823,5.16943 -7.98461,9.79684 z" /><path
     id="path1032"
     style="fill:#ffa61e;fill-opacity:1"
     d="m 181.666,151.239 c 0.12637,-9.31875 -9.88881,-10.74037 -17.04998,-10 -18.87382,0.13367 -37.77458,-0.26853 -56.63141,0.20316 -13.142949,2.37183 -8.051737,22.88061 4.57902,19.79684 20.36948,-0.13393 40.76595,0.26888 61.11843,-0.20316 4.54343,-0.8572 8.06751,-5.1697 7.98394,-9.79684 z" /><path
     id="path1034"
     style="fill:#ffa61e;fill-opacity:1"
     d="m 177.653,101.776 c 9.77994,10.31974 24.49728,-7.702735 12.78243,-15.502569 -9.81776,-9.631293 -19.27972,-19.656074 -29.32409,-29.036759 -10.97138,-7.616298 -21.87332,10.485343 -10.76155,17.237056 9.10107,9.100757 18.20214,18.201515 27.30321,27.302272 z" /><path
     id="path1036"
     style="fill:#ffa61e;fill-opacity:1"
     d="m 297.8,104.724 c 7.83064,-0.84118 11.845,-8.700374 17.49436,-13.352365 6.6131,-6.793728 13.60945,-13.240891 19.97297,-20.260297 7.61627,-10.971401 -10.4853,-21.87327 -17.23709,-10.761579 -9.48032,9.666621 -19.35383,18.977696 -28.58357,28.870903 -4.47521,6.299096 0.61994,15.776818 8.35333,15.503338 z" /></g></svg>
