<?xml version="1.0" encoding="UTF-8" standalone="no"?>
<svg
   xmlns:dc="http://purl.org/dc/elements/1.1/"
   xmlns:cc="http://creativecommons.org/ns#"
   xmlns:rdf="http://www.w3.org/1999/02/22-rdf-syntax-ns#"
   xmlns:svg="http://www.w3.org/2000/svg"
   xmlns="http://www.w3.org/2000/svg"
   xmlns:sodipodi="http://sodipodi.sourceforge.net/DTD/sodipodi-0.dtd"
   xmlns:inkscape="http://www.inkscape.org/namespaces/inkscape"
   viewBox="0 0 20 20"
   x="0px"
   y="0px"
   version="1.1"
   id="svg434"
   sodipodi:docname="sample.svg"
   width="20"
   height="20"
   inkscape:version="1.0.1 (3bc2e813f5, 2020-09-07)">
  <metadata
     id="metadata440">
    <rdf:RDF>
      <cc:Work
         rdf:about="">
        <dc:format>image/svg+xml</dc:format>
        <dc:type
           rdf:resource="http://purl.org/dc/dcmitype/StillImage" />
      </cc:Work>
    </rdf:RDF>
  </metadata>
  <defs
     id="defs438" />
  <sodipodi:namedview
     pagecolor="#ffffff"
     bordercolor="#666666"
     borderopacity="1"
     objecttolerance="10"
     gridtolerance="10"
     guidetolerance="10"
     inkscape:pageopacity="0"
     inkscape:pageshadow="2"
     inkscape:window-width="1848"
     inkscape:window-height="1014"
     id="namedview436"
     showgrid="false"
     inkscape:snap-object-midpoints="true"
     inkscape:zoom="27.7"
     inkscape:cx="10"
     inkscape:cy="11.100744"
     inkscape:window-x="72"
     inkscape:window-y="29"
     inkscape:window-maximized="1"
     inkscape:current-layer="svg434" />
  <title
     id="title418">business, management, notebook, test, checklist</title>
  <g
     data-name="Layer 12"
     id="g428"
     transform="translate(-2,-2)">
    <path
       d="M 19.9224,6.6152 A 1.0017,1.0017 0 0 0 19.7064,6.2923 L 15.7079,2.2938 A 1.0066,1.0066 0 0 0 15,2 H 7 A 3.0033,3.0033 0 0 0 4,5 v 14 a 3.0033,3.0033 0 0 0 3,3 h 10 a 3.0033,3.0033 0 0 0 3,-3 V 7 A 1,1 0 0 0 19.9224,6.6152 Z M 16,5.4141 16.5859,6 H 16 Z M 17,20 H 7 A 1.0009,1.0009 0 0 1 6,19 V 5 A 1.0009,1.0009 0 0 1 7,4 h 7 v 3 a 1,1 0 0 0 1,1 h 3 v 11 a 1.0009,1.0009 0 0 1 -1,1 z"
       id="path420" />
    <path
       d="M 15,16 H 9 a 1,1 0 0 0 0,2 h 6 a 1,1 0 0 0 0,-2 z"
       id="path422" />
    <path
       d="m 9,10 h 3 A 1,1 0 0 0 12,8 H 9 a 1,1 0 0 0 0,2 z"
       id="path424" />
    <path
       d="M 15,12 H 9 a 1,1 0 0 0 0,2 h 6 a 1,1 0 0 0 0,-2 z"
       id="path426" />
  </g>
</svg>
