<?xml version="1.0" encoding="UTF-8" standalone="no"?>
<svg
   xmlns:dc="http://purl.org/dc/elements/1.1/"
   xmlns:cc="http://creativecommons.org/ns#"
   xmlns:rdf="http://www.w3.org/1999/02/22-rdf-syntax-ns#"
   xmlns:svg="http://www.w3.org/2000/svg"
   xmlns="http://www.w3.org/2000/svg"
   xmlns:sodipodi="http://sodipodi.sourceforge.net/DTD/sodipodi-0.dtd"
   xmlns:inkscape="http://www.inkscape.org/namespaces/inkscape"
   version="1.1"
   id="Layer_1"
   x="0px"
   y="0px"
   viewBox="0 0 129 72.099998"
   xml:space="preserve"
   sodipodi:docname="Awards--gold.svg"
   width="129"
   height="72.099998"
   inkscape:version="1.0.1 (0767f8302a, 2020-10-17)"><metadata
   id="metadata5254"><rdf:RDF><cc:Work
       rdf:about=""><dc:format>image/svg+xml</dc:format><dc:type
         rdf:resource="http://purl.org/dc/dcmitype/StillImage" /><dc:title></dc:title></cc:Work></rdf:RDF></metadata><defs
   id="defs5252" /><sodipodi:namedview
   pagecolor="#ffffff"
   bordercolor="#666666"
   borderopacity="1"
   objecttolerance="10"
   gridtolerance="10"
   guidetolerance="10"
   inkscape:pageopacity="0"
   inkscape:pageshadow="2"
   inkscape:window-width="1858"
   inkscape:window-height="1016"
   id="namedview5250"
   showgrid="false"
   fit-margin-top="5"
   fit-margin-left="5"
   fit-margin-right="5"
   fit-margin-bottom="5"
   lock-margins="true"
   inkscape:zoom="5.7530406"
   inkscape:cx="110.04972"
   inkscape:cy="36.688682"
   inkscape:window-x="62"
   inkscape:window-y="27"
   inkscape:window-maximized="1"
   inkscape:current-layer="g5247" />
<style
   type="text/css"
   id="style5225">
	.st0{fill:#FFC736;}
	.st1{fill:#A27E2D;}
	.st2{fill:#FDD972;}
	.st3{fill:#231F20;}
</style>
<g
   id="g5247"
   transform="translate(2.202076,-3.3113174)">
	<rect
   x="28.697926"
   y="44.611317"
   class="st0"
   width="67.300003"
   height="20.700001"
   id="rect5227" />
	<polygon
   class="st0"
   points="68.7,71 68.7,45.2 48,45.2 58.3,58.1 48,71 "
   id="polygon5229"
   transform="translate(-45.202076,-0.58868327)" />
	<polygon
   class="st0"
   points="146.3,45.2 146.3,71 167,71 158.7,60.7 156.7,58.1 167,45.2 "
   id="polygon5231"
   transform="translate(-45.202076,-0.58868327)" />
	<circle
   class="st1"
   cx="62.297924"
   cy="36.811317"
   r="28.5"
   id="circle5233" />
	<circle
   class="st2"
   cx="62.297924"
   cy="36.811317"
   r="25.299999"
   id="circle5235" />
	<g
   id="g5245"
   transform="translate(-45.202076,-0.58868327)">
		<path
   class="st3"
   d="m 97.6,42.4 c 0.8,0 1.3,-0.2 1.6,-0.6 v -2 H 98 v -1.2 h 2.5 v 3.9 c -0.6,0.8 -1.6,1.2 -2.8,1.2 -1.8,0 -2.8,-1.1 -2.8,-3.4 v -2 c 0,-2.3 0.9,-3.4 2.8,-3.4 1.7,0 2.6,0.8 2.8,2.5 l -1.3,0.2 c 0,-1 -0.5,-1.5 -1.6,-1.5 -1,0 -1.6,0.7 -1.6,2.2 v 2 c 0.1,1.4 0.6,2.1 1.6,2.1 z"
   id="path5237" />
		<path
   class="st3"
   d="m 107.2,38.2 v 2 c 0,2.2 -0.9,3.4 -2.8,3.4 -1.9,0 -2.8,-1.1 -2.8,-3.4 v -2 c 0,-2.3 0.9,-3.4 2.8,-3.4 1.9,0 2.8,1.1 2.8,3.4 z m -2.8,-2.3 c -1,0 -1.6,0.7 -1.6,2.2 v 2 c 0,1.4 0.5,2.2 1.6,2.2 1,0 1.6,-0.7 1.6,-2.2 v -2 c -0.1,-1.4 -0.6,-2.2 -1.6,-2.2 z"
   id="path5239" />
		<path
   class="st3"
   d="m 108.4,43.4 v -8.6 h 1.2 v 7.4 h 3.7 v 1.2 z"
   id="path5241" />
		<path
   class="st3"
   d="m 120.1,38.3 v 1.8 c 0,2.2 -0.9,3.4 -2.8,3.4 h -2.8 v -8.6 h 2.8 c 1.9,-0.1 2.8,1.1 2.8,3.4 z m -2.7,-2.2 h -1.6 v 6.2 h 1.6 c 1,0 1.6,-0.7 1.6,-2.2 v -1.8 c -0.1,-1.5 -0.6,-2.2 -1.6,-2.2 z"
   id="path5243" />
	</g>
</g>
</svg>
