<?xml version="1.0" encoding="UTF-8" standalone="no"?>
<svg
   xmlns:dc="http://purl.org/dc/elements/1.1/"
   xmlns:cc="http://creativecommons.org/ns#"
   xmlns:rdf="http://www.w3.org/1999/02/22-rdf-syntax-ns#"
   xmlns:svg="http://www.w3.org/2000/svg"
   xmlns="http://www.w3.org/2000/svg"
   xmlns:sodipodi="http://sodipodi.sourceforge.net/DTD/sodipodi-0.dtd"
   xmlns:inkscape="http://www.inkscape.org/namespaces/inkscape"
   viewBox="0 0 657.87646 441.8663"
   version="1.1"
   id="svg334"
   sodipodi:docname="Experiments--header.svg"
   width="657.87646"
   height="441.8663"
   inkscape:version="1.0.1 (0767f8302a, 2020-10-17)">
  <metadata
     id="metadata338">
    <rdf:RDF>
      <cc:Work
         rdf:about="">
        <dc:format>image/svg+xml</dc:format>
        <dc:type
           rdf:resource="http://purl.org/dc/dcmitype/StillImage" />
        <dc:title></dc:title>
      </cc:Work>
    </rdf:RDF>
  </metadata>
  <sodipodi:namedview
     pagecolor="#ffffff"
     bordercolor="#666666"
     borderopacity="1"
     objecttolerance="10"
     gridtolerance="10"
     guidetolerance="10"
     inkscape:pageopacity="0"
     inkscape:pageshadow="2"
     inkscape:window-width="1858"
     inkscape:window-height="1016"
     id="namedview336"
     showgrid="false"
     fit-margin-top="10"
     lock-margins="true"
     fit-margin-left="10"
     fit-margin-right="10"
     fit-margin-bottom="10"
     inkscape:zoom="1.1615407"
     inkscape:cx="311.70248"
     inkscape:cy="231.19839"
     inkscape:window-x="62"
     inkscape:window-y="27"
     inkscape:window-maximized="1"
     inkscape:current-layer="svg334" />
  <defs
     id="defs4">
    <style
       id="style2">.cls-1{fill:#c5fffd;}.cls-2{opacity:0.2;}.cls-10,.cls-3{fill:#187a7a;}.cls-17,.cls-18,.cls-4,.cls-6{fill:none;}.cls-4{stroke:#187a7a;}.cls-11,.cls-17,.cls-18,.cls-4,.cls-6{stroke-miterlimit:10;}.cls-17,.cls-4{stroke-width:1.42px;}.cls-5,.cls-8{fill:#1faaad;}.cls-10,.cls-5,.cls-6{opacity:0.54;}.cls-11,.cls-6{stroke:#1faaad;}.cls-7{opacity:0.28;}.cls-9{fill:#57726a;}.cls-11{fill:#f2d06c;}.cls-12{opacity:0.03;}.cls-13{fill:#ea526f;}.cls-14{fill:#5b061b;}.cls-15{opacity:0.05;}.cls-16{opacity:0.13;}.cls-17{stroke:#ea526f;}.cls-18{stroke:#5b061b;}.cls-19,.cls-36{fill:#fff;}.cls-20{fill:#c4c5c6;}.cls-21{fill:#f5feff;}.cls-22{fill:#f7a9c9;}.cls-23{fill:#92e7e8;}.cls-24{fill:#376e7a;}.cls-25{fill:#f2dae8;}.cls-26{fill:#7a3752;}.cls-27{fill:#dbb4cc;}.cls-28{fill:#724637;}.cls-29{fill:#032624;}.cls-30{fill:#38303b;}.cls-31{fill:#512a20;}.cls-32{opacity:0.5;}.cls-33{fill:#e5bfb3;}.cls-34{fill:#ebf0fe;}.cls-35{fill:#55a1a3;}.cls-36{opacity:0.31;}.cls-37{fill:#25ced1;}.cls-38{fill:#143d3f;}.cls-39{fill:#487272;}.cls-40{fill:#cc9c8f;}</style>
  </defs>
  <g
     class="cls-2"
     id="g19"
     transform="translate(-50.353509,-29.581178)">
    <circle
       class="cls-3"
       cx="670.23999"
       cy="300.28"
       r="21.700001"
       transform="rotate(-29.36,670.33043,300.28776)"
       id="circle9" />
    <path
       class="cls-3"
       d="m 640.8,326.16 a 9.48,9.48 0 1 1 0.21,-13.41 9.47,9.47 0 0 1 -0.21,13.41 z"
       id="path11" />
    <line
       class="cls-4"
       x1="642.84998"
       y1="314.82001"
       x2="651.46002"
       y2="310.69"
       id="line13" />
    <path
       class="cls-5"
       d="m 626.66,295 a 5.59,5.59 0 1 1 0.12,-7.91 5.59,5.59 0 0 1 -0.12,7.91 z"
       id="path15" />
    <line
       class="cls-6"
       x1="630.25"
       y1="310.39001"
       x2="624.67999"
       y2="295.28"
       id="line17" />
  </g>
  <g
     class="cls-7"
     id="g39"
     style="opacity:0.8"
     transform="translate(-50.353509,-29.581178)">
    <path
       class="cls-8"
       d="m 476.12,357.55 a 20.61,20.61 0 1 1 28.41,6.56 20.61,20.61 0 0 1 -28.41,-6.56 z"
       id="path21" />
    <path
       class="cls-9"
       d="m 413.22,334 a 20.61,20.61 0 1 1 28.41,6.56 20.61,20.61 0 0 1 -28.41,-6.56 z"
       id="path23" />
    <path
       class="cls-10"
       d="m 432.13,430 a 20.61,20.61 0 1 1 28.41,6.55 20.6,20.6 0 0 1 -28.41,-6.55 z"
       id="path25" />
    <path
       class="cls-9"
       d="m 465.4,309.57 a 6.67,6.67 0 1 1 9.39,0.84 6.66,6.66 0 0 1 -9.39,-0.84 z"
       id="path27" />
    <path
       class="cls-11"
       d="m 512.4,389.3 a 6.67,6.67 0 1 1 8.14,4.77 6.67,6.67 0 0 1 -8.14,-4.77 z"
       id="path29" />
    <line
       class="cls-4"
       x1="472.98999"
       y1="338.06"
       x2="449.98001"
       y2="330.98999"
       id="line31" />
    <line
       class="cls-4"
       x1="484.64999"
       y1="366.35001"
       x2="461.66"
       y2="402.03"
       id="line33" />
    <line
       class="cls-4"
       x1="504.73999"
       y1="364.22"
       x2="515.13"
       y2="381.31"
       id="line35" />
    <line
       class="cls-4"
       x1="472.54999"
       y1="310.37"
       x2="482.92999"
       y2="327.45999"
       id="line37" />
  </g>
  <g
     class="cls-12"
     id="g67"
     style="opacity:1;fill:#adb2ba;fill-opacity:1"
     transform="translate(-50.353509,-29.581178)">
    <path
       class="cls-13"
       d="m 695.9,410.84 c -9.15,-11.51 -24.92,-16.14 -39.12,-14 -15.49,2.34 -28.45,14.84 -44.71,13 -12.65,-1.46 -24.63,-11.05 -29.29,-22.95 -5.81,-14.85 0.46,-30.43 3,-45.41 1.37,-8.13 1.76,-16.55 -0.59,-24.54 a 43.45,43.45 0 0 0 -11.89,-19.35 44.3,44.3 0 0 0 -4.59,-3.71 2.85,2.85 0 0 0 -3.87,1 2.89,2.89 0 0 0 1,3.88 37,37 0 0 1 12.82,16.59 c 2.79,7.21 3.06,14.94 2,22.54 -2.25,15.69 -9,31.59 -4.32,47.52 a 43.52,43.52 0 0 0 28.66,28.65 37.9,37.9 0 0 0 22.56,-0.32 c 7.81,-2.44 15,-6.55 22.64,-9.32 12.79,-4.6 28.11,-2.69 38.28,6.71 a 32.66,32.66 0 0 1 3.43,3.72 c 1,1.2 3,1 4,0 a 2.92,2.92 0 0 0 0,-4 z"
       id="path41"
       style="fill:#adb2ba;fill-opacity:1" />
    <path
       class="cls-13"
       d="m 652.81,456.17 c -10.95,-7.46 -16.17,-22.14 -14.27,-35 1.22,-8.22 5,-15.87 7.46,-23.74 2.46,-7.87 3.42,-15.73 1.29,-23.68 -3.65,-13.58 -14.63,-24.79 -27.89,-29.24 -15.3,-5.12 -30.59,1.1 -45.29,5.22 -7.34,2.05 -15.15,3.63 -22.79,2.49 a 37.78,37.78 0 0 1 -19.58,-9.22 39.13,39.13 0 0 1 -3.93,-4.11 2.84,2.84 0 0 0 -4,4 A 43.1,43.1 0 0 0 543,356 c 7.74,2.65 15.89,2.65 23.88,1.24 7.79,-1.37 15.23,-4.11 22.83,-6.23 7.13,-2 15.06,-3.59 22.29,-2.48 a 37.64,37.64 0 0 1 28.91,23.72 31.37,31.37 0 0 1 2,9.83 39.1,39.1 0 0 1 -1.81,11.92 c -2.29,8 -6.06,15.61 -7.7,23.8 -2.84,14.14 1.48,30.06 12.28,39.91 a 37.24,37.24 0 0 0 4.27,3.35 2.8324768,2.8324768 0 1 0 2.86,-4.89 z"
       id="path43"
       style="fill:#adb2ba;fill-opacity:1" />
    <path
       class="cls-13"
       d="m 597.68,397 10.46,-11.26 16.66,-17.93 3.82,-4.12 c 2.48,-2.68 -1.52,-6.69 -4,-4 l -10.45,11.25 -16.67,17.93 -3.82,4.13 c -2.49,2.67 1.51,6.69 4,4 z"
       id="path45"
       style="fill:#adb2ba;fill-opacity:1" />
    <path
       class="cls-13"
       d="m 621.36,403.93 14,-15 2,-2.12 a 2.84,2.84 0 0 0 -4,-4 l -14,15 -2,2.11 a 2.84,2.84 0 0 0 4,4 z"
       id="path47"
       style="fill:#adb2ba;fill-opacity:1" />
    <path
       class="cls-13"
       d="m 589.47,374.31 13.95,-15 2,-2.12 a 2.84,2.84 0 1 0 -4,-4 l -14,15 -2,2.11 a 2.84,2.84 0 0 0 4,4 z"
       id="path49"
       style="fill:#adb2ba;fill-opacity:1" />
    <path
       class="cls-13"
       d="m 651.56,440.19 21.11,-22.73 3,-3.24 c 2.48,-2.67 -1.52,-6.69 -4,-4 l -21.11,22.73 -3,3.24 c -2.48,2.67 1.52,6.69 4,4 z"
       id="path51"
       style="fill:#adb2ba;fill-opacity:1" />
    <path
       class="cls-13"
       d="m 548.43,344.41 21.11,-22.73 3,-3.23 c 2.48,-2.67 -1.52,-6.69 -4,-4 l -21.11,22.73 -3,3.23 c -2.48,2.68 1.52,6.69 4,4 z"
       id="path53"
       style="fill:#adb2ba;fill-opacity:1" />
    <path
       class="cls-14"
       d="m 609.47,401.1 21.11,-22.73 3,-3.23 c 2.48,-2.67 -1.52,-6.69 -4,-4 l -21.11,22.73 -3,3.24 c -2.49,2.67 1.51,6.69 4,4 z"
       id="path55"
       style="fill:#adb2ba;fill-opacity:1" />
    <path
       class="cls-14"
       d="m 593.31,386.09 21.11,-22.73 3,-3.24 c 2.48,-2.67 -1.52,-6.68 -4,-4 l -21.12,22.73 -3,3.23 c -2.48,2.67 1.52,6.69 4,4 z"
       id="path57"
       style="fill:#adb2ba;fill-opacity:1" />
    <path
       class="cls-14"
       d="m 655.93,451.1 10.46,-11.26 16.66,-17.94 3.82,-4.12 c 2.48,-2.67 -1.52,-6.69 -4,-4 l -10.46,11.22 -16.66,18 -3.82,4.12 c -2.48,2.67 1.52,6.69 4,4 z"
       id="path59"
       style="fill:#adb2ba;fill-opacity:1" />
    <path
       class="cls-14"
       d="m 647.72,428.41 13.95,-15 2,-2.12 a 2.84,2.84 0 0 0 -4,-4 l -14,15 -2,2.12 a 2.84,2.84 0 0 0 4,4 z"
       id="path61"
       style="fill:#adb2ba;fill-opacity:1" />
    <path
       class="cls-14"
       d="m 536.64,340.31 10.45,-11.26 16.66,-17.94 3.83,-4.12 c 2.48,-2.67 -1.52,-6.69 -4,-4 l -10.45,11.26 -16.66,17.94 -3.83,4.12 c -2.48,2.67 1.52,6.69 4,4 z"
       id="path63"
       style="fill:#adb2ba;fill-opacity:1" />
    <path
       class="cls-14"
       d="m 560.32,347.24 13.95,-15 2,-2.12 a 2.84,2.84 0 0 0 -4,-4 l -14,15 -2,2.12 a 2.84,2.84 0 0 0 4,4 z"
       id="path65"
       style="fill:#adb2ba;fill-opacity:1" />
  </g>
  <g
     class="cls-15"
     id="g95"
     style="opacity:1;fill:#adb2ba;fill-opacity:1"
     transform="translate(-50.353509,-29.581178)">
    <path
       class="cls-13"
       d="m 225.21,407.48 c 17.78,-12.71 26.62,-35.63 24.28,-57.1 -1.34,-12.33 -6.59,-23.59 -10.91,-35.09 a 98.89,98.89 0 0 1 -5.31,-18.21 46.2,46.2 0 0 1 -0.62,-8.31 c 0,-1.42 0.11,-2.83 0.26,-4.23 a 32.16,32.16 0 0 1 0.5,-3.23 53.32,53.32 0 0 1 2,-7.44 c 0.38,-1.1 0.79,-2.19 1.24,-3.27 l 0.19,-0.44 0.36,-0.8 c 0.3,-0.64 0.6,-1.27 0.92,-1.89 a 59.55,59.55 0 0 1 3.83,-6.5 c 0.36,-0.54 0.73,-1.06 1.11,-1.59 l 0.52,-0.71 c 0,0 0.71,-0.92 0.3,-0.4 0.79,-1 1.62,-2 2.48,-3 a 61.61,61.61 0 0 1 5.49,-5.47 c 0.88,-0.78 1.78,-1.53 2.71,-2.25 l 0.4,-0.3 0.56,-0.42 c 0.62,-0.45 1.24,-0.89 1.87,-1.32 a 59,59 0 0 1 6.51,-3.82 c 0.52,-0.27 1,-0.52 1.57,-0.77 l 1,-0.44 c 0,0 1.07,-0.47 0.44,-0.2 1.18,-0.5 2.39,-0.95 3.6,-1.36 a 53.25,53.25 0 0 1 7.44,-2 c 0.58,-0.11 1.16,-0.2 1.73,-0.29 -0.07,0 1.07,-0.15 0.58,-0.09 -0.49,0.06 0.64,-0.07 0.57,-0.06 1.37,-0.15 2.74,-0.25 4.12,-0.3 a 80.46,80.46 0 0 1 17.92,1.43 c 11.77,2.19 23.1,6.18 34.76,8.85 12,2.74 24.45,4.05 36.57,1.39 a 64.43,64.43 0 0 0 30.49,-16.32 57.5,57.5 0 0 0 5.5,-6.07 3.66,3.66 0 0 0 0,-5 c -1.23,-1.23 -3.82,-1.51 -5,0 a 56.83,56.83 0 0 1 -26.48,18.79 53.78,53.78 0 0 1 -16.11,3 81.86,81.86 0 0 1 -17.8,-1.48 c -23.19,-4.35 -46,-15.53 -70.09,-10.37 -20.74,4.45 -38.28,20.51 -45.61,40.24 a 56.29,56.29 0 0 0 -3.33,15.27 56.93,56.93 0 0 0 2,18.64 c 3.13,12.21 9,23.5 12.57,35.55 a 64.92,64.92 0 0 1 1.92,8.25 59.66,59.66 0 0 1 0.62,7.55 55.68,55.68 0 0 1 -1.78,15.1 54.15,54.15 0 0 1 -5.35,14 47.3,47.3 0 0 1 -8.95,12 c -0.83,0.81 -1.69,1.6 -2.58,2.36 a 27.6,27.6 0 0 1 -2.58,2 3.65,3.65 0 0 0 -1.28,4.85 c 0.9,1.53 3.29,2.38 4.85,1.27 z"
       id="path69"
       style="fill:#adb2ba;fill-opacity:1" />
    <path
       class="cls-13"
       d="m 160.94,339.05 c 0.69,-0.92 -0.42,0.5 0.3,-0.39 l 0.66,-0.81 c 0.37,-0.45 0.75,-0.89 1.14,-1.33 0.86,-0.95 1.75,-1.87 2.68,-2.76 0.93,-0.89 1.8,-1.66 2.75,-2.45 0.95,-0.79 1.5,-1.2 2.8,-2.11 a 55.87,55.87 0 0 1 6.4,-3.84 q 1.76,-0.9 3.57,-1.68 c -0.47,0.2 0.08,0 0.15,-0.07 l 1,-0.4 c 0.68,-0.26 1.35,-0.51 2,-0.75 a 62.35,62.35 0 0 1 7.7,-2.15 q 1.8,-0.39 3.6,-0.66 c 0,0 1.21,-0.17 0.52,-0.08 l 0.73,-0.09 c 0.79,-0.09 1.58,-0.16 2.38,-0.23 a 63.41,63.41 0 0 1 7.92,-0.12 c 1.3,0.06 2.59,0.17 3.88,0.31 l 0.92,0.11 c -0.68,-0.09 0.53,0.08 0.53,0.08 0.73,0.11 1.47,0.24 2.2,0.38 12,2.29 22.92,8.22 34.23,12.52 a 82.25,82.25 0 0 0 17.82,4.87 53.68,53.68 0 0 0 17.52,-0.52 c 20.85,-4 38.63,-19.76 46.38,-39.33 4.21,-10.64 4.64,-22.22 3.16,-33.47 -1.58,-12.06 -5.19,-23.67 -7.84,-35.52 a 107.78,107.78 0 0 1 -2.69,-17.66 76.24,76.24 0 0 1 0,-9.07 45.37,45.37 0 0 1 1.08,-7.88 56.75,56.75 0 0 1 21,-33.36 3.66,3.66 0 0 0 1.27,-4.85 c -0.88,-1.51 -3.31,-2.43 -4.85,-1.27 a 64.86,64.86 0 0 0 -21.28,27.8 c -4.54,11.24 -5.24,23.42 -3.68,35.35 1.59,12.15 5.23,23.83 7.89,35.76 a 107.62,107.62 0 0 1 2.63,17.17 76.08,76.08 0 0 1 0,9.43 c -0.07,1.12 -0.24,2.94 -0.33,3.65 -0.09,0.71 -0.43,2.54 -0.68,3.68 a 54.72,54.72 0 0 1 -2.18,7.38 c -0.21,0.54 -0.42,1.08 -0.64,1.62 -0.42,1 0.15,-0.32 -0.12,0.29 l -0.36,0.8 q -0.8,1.75 -1.71,3.45 a 58.22,58.22 0 0 1 -4.08,6.55 52.84,52.84 0 0 1 -4.58,5.54 55.91,55.91 0 0 1 -11.29,9.45 61.45,61.45 0 0 1 -6.6,3.65 c -0.59,0.27 -1.17,0.54 -1.76,0.79 -0.59,0.25 0.76,-0.29 -0.28,0.12 l -1,0.39 c -1.2,0.46 -2.41,0.88 -3.64,1.26 a 53.55,53.55 0 0 1 -7.49,1.75 l -0.58,0.09 -0.57,0.07 c -0.58,0.07 -1.17,0.13 -1.75,0.18 a 44.87,44.87 0 0 1 -4.64,0.16 A 57.83,57.83 0 0 1 256,327.5 c -11.84,-3.91 -22.89,-10.05 -34.95,-13.32 -21,-5.7 -45.5,-0.24 -61.1,15.3 a 55.31,55.31 0 0 0 -5.13,6 c -1.15,1.53 -0.24,4 1.27,4.85 1.82,1.06 3.7,0.26 4.85,-1.27 z"
       id="path71"
       style="fill:#adb2ba;fill-opacity:1" />
    <path
       class="cls-14"
       d="m 254.94,260.89 16.12,16.52 25.69,26.32 5.89,6 a 3.54,3.54 0 0 0 5,-5 l -16.12,-16.52 -25.69,-26.32 -5.89,-6 a 3.54,3.54 0 0 0 -5,5 z"
       id="path73"
       style="fill:#adb2ba;fill-opacity:1" />
    <path
       class="cls-14"
       d="m 242.79,295.9 21.5,22 3.06,3.13 a 3.54,3.54 0 0 0 5,-5 l -21.5,-22 -3.05,-3.13 a 3.55,3.55 0 0 0 -5,5 z"
       id="path75"
       style="fill:#adb2ba;fill-opacity:1" />
    <path
       class="cls-14"
       d="m 289.59,250.23 21.5,22 3.05,3.13 a 3.55,3.55 0 1 0 5,-5 l -21.5,-22 -3,-3.13 a 3.54,3.54 0 0 0 -5,5 z"
       id="path77"
       style="fill:#adb2ba;fill-opacity:1" />
    <path
       class="cls-14"
       d="m 186.17,338.53 12.59,12.9 20,20.46 4.62,4.73 a 3.54,3.54 0 1 0 5,-5 l -12.59,-12.89 -20,-20.47 -4.62,-4.73 a 3.54,3.54 0 0 0 -5,5 z"
       id="path79"
       style="fill:#adb2ba;fill-opacity:1" />
    <path
       class="cls-14"
       d="m 337.47,190.87 12.58,12.9 20,20.46 4.62,4.73 a 3.54,3.54 0 0 0 5,-5 l -12.59,-12.89 -20,-20.47 -4.62,-4.73 a 3.54,3.54 0 0 0 -5,5 z"
       id="path81"
       style="fill:#adb2ba;fill-opacity:1" />
    <path
       class="cls-13"
       d="m 247.91,278.27 12.59,12.9 20,20.46 4.62,4.74 a 3.54,3.54 0 1 0 5,-5 l -12.59,-12.9 -20,-20.47 -4.62,-4.73 a 3.54,3.54 0 0 0 -5,5 z"
       id="path83"
       style="fill:#adb2ba;fill-opacity:1" />
    <path
       class="cls-13"
       d="m 271.63,255.12 12.59,12.88 20,20.47 4.62,4.73 a 3.54,3.54 0 1 0 5,-5 l -12.59,-12.9 -20,-20.46 -4.62,-4.74 a 3.54,3.54 0 0 0 -5,5 z"
       id="path85"
       style="fill:#adb2ba;fill-opacity:1" />
    <path
       class="cls-13"
       d="m 169.48,344.29 16.12,16.52 25.69,26.33 5.89,6 a 3.54,3.54 0 0 0 5,-5 l -16.12,-16.52 -25.69,-26.33 -5.89,-6 a 3.54,3.54 0 1 0 -5,5 z"
       id="path87"
       style="fill:#adb2ba;fill-opacity:1" />
    <path
       class="cls-13"
       d="m 204.13,333.63 21.5,22 3.05,3.13 a 3.54,3.54 0 0 0 5,-5 l -21.5,-22 -3.05,-3.13 a 3.54,3.54 0 0 0 -5,5 z"
       id="path89"
       style="fill:#adb2ba;fill-opacity:1" />
    <path
       class="cls-13"
       d="m 344.5,173.48 16.12,16.52 25.69,26.33 5.89,6 a 3.54,3.54 0 1 0 5,-5 l -16.12,-16.52 -25.7,-26.33 -5.88,-6 a 3.54,3.54 0 0 0 -5,5 z"
       id="path91"
       style="fill:#adb2ba;fill-opacity:1" />
    <path
       class="cls-13"
       d="m 332.35,208.49 21.5,22 3,3.13 a 3.54,3.54 0 0 0 5,-5 l -21.49,-22 -3.06,-3.13 a 3.54,3.54 0 0 0 -5,5 z"
       id="path93"
       style="fill:#adb2ba;fill-opacity:1" />
  </g>
  <g
     class="cls-16"
     id="g107"
     style="opacity:0.8"
     transform="translate(-50.353509,-29.581178)">
    <circle
       class="cls-3"
       cx="430.42999"
       cy="65.589996"
       r="25.76"
       transform="rotate(-36.56,430.38082,65.598223)"
       id="circle97" />
    <path
       class="cls-3"
       d="m 395.49,96.32 a 11.26,11.26 0 1 1 0.24,-15.92 11.26,11.26 0 0 1 -0.24,15.92 z"
       id="path99" />
    <line
       class="cls-4"
       x1="397.91"
       y1="82.860001"
       x2="408.14001"
       y2="77.949997"
       id="line101" />
    <path
       class="cls-10"
       d="m 378.69,59.36 a 6.64,6.64 0 1 1 0.14,-9.39 6.64,6.64 0 0 1 -0.14,9.39 z"
       id="path103" />
    <line
       class="cls-4"
       x1="382.95999"
       y1="77.589996"
       x2="376.34"
       y2="59.650002"
       id="line105" />
  </g>
  <path
     class="cls-3"
     d="m 585.48649,44.548822 a 14.17,14.17 0 1 1 19.37,-5.13 14.16,14.16 0 0 1 -19.37,5.13 z"
     id="path109" />
  <path
     class="cls-8"
     d="m 539.64649,50.338822 a 14.17,14.17 0 1 1 19.37,-5.11 14.16,14.16 0 0 1 -19.37,5.11 z"
     id="path111" />
  <path
     class="cls-3"
     d="m 581.93649,102.69882 a 14.17,14.17 0 1 1 19.38,-5.109998 14.17,14.17 0 0 1 -19.38,5.109998 z"
     id="path113" />
  <path
     class="cls-3"
     d="m 563.64649,18.808822 a 4.58,4.58 0 1 1 6,-2.5 4.59,4.59 0 0 1 -6,2.5 z"
     id="path115" />
  <path
     class="cls-8"
     d="m 617.71649,52.238822 a 4.58,4.58 0 1 1 6.47,0.29 4.59,4.59 0 0 1 -6.47,-0.29 z"
     id="path117" />
  <line
     class="cls-17"
     x1="577.3465"
     y1="33.698822"
     x2="561.08649"
     y2="36.768822"
     id="line119" />
  <line
     class="cls-17"
     x1="593.48651"
     y1="47.168823"
     x2="590.93646"
     y2="76.228821"
     id="line121" />
  <line
     class="cls-17"
     x1="605.02649"
     y1="39.43882"
     x2="616.81647"
     y2="46.50882"
     id="line123" />
  <line
     class="cls-4"
     x1="568.20648"
     y1="16.998825"
     x2="579.99646"
     y2="24.078823"
     id="line125" />
  <circle
     class="cls-3"
     cx="-16.27113"
     cy="129.29623"
     r="33.540001"
     transform="rotate(-41.26)"
     id="circle127" />
  <path
     class="cls-13"
     d="m 18.776491,80.978822 a 14.65,14.65 0 1 1 19.3,-7.56 14.65,14.65 0 0 1 -19.3,7.56 z"
     id="path129" />
  <line
     class="cls-4"
     x1="36.186493"
     y1="77.268822"
     x2="47.146492"
     y2="87.168823"
     id="line131" />
  <path
     class="cls-10"
     d="m 55.016491,42.518822 a 8.65,8.65 0 1 1 11.38,-4.46 8.65,8.65 0 0 1 -11.38,4.46 z"
     id="path133" />
  <line
     class="cls-4"
     x1="35.156494"
     y1="56.648827"
     x2="53.506493"
     y2="39.828827"
     id="line135" />
  <path
     class="cls-18"
     d="m 85.646491,146.56882 a 14.17,14.17 0 1 1 19.409999,-5.15 14.16,14.16 0 0 1 -19.409999,5.15 z"
     id="path137" />
  <rect
     class="cls-19"
     x="331.5365"
     y="209.29883"
     width="273.45001"
     height="28.17"
     id="rect140" />
  <rect
     class="cls-19"
     x="336.89648"
     y="217.55882"
     width="102.64"
     height="17.26"
     id="rect142" />
  <rect
     class="cls-19"
     x="496.98651"
     y="217.55882"
     width="102.64"
     height="17.26"
     id="rect144" />
  <path
     class="cls-20"
     d="m 391.74649,226.51882 a 3.49,3.49 0 1 1 -3.48,-3.49 3.49,3.49 0 0 1 3.48,3.49 z"
     id="path146" />
  <path
     class="cls-20"
     d="m 562.64649,226.51882 a 3.49,3.49 0 1 1 -3.49,-3.49 3.49,3.49 0 0 1 3.49,3.49 z"
     id="path148" />
  <polygon
     class="cls-19"
     points="383.17,461.1 374.99,461.1 367.85,243.57 383.17,243.57 "
     id="polygon150"
     transform="translate(-50.353509,-29.581178)" />
  <polygon
     class="cls-19"
     points="654.83,461.1 662.46,461.1 669.13,243.57 654.83,243.57 "
     id="polygon152"
     transform="translate(-50.353509,-29.581178)" />
  <rect
     class="cls-3"
     x="276.38647"
     y="201.64882"
     width="371.48999"
     height="13.79"
     rx="2.5999999"
     id="rect154"
     ry="2.5999999" />
  <path
     class="cls-21"
     d="m 603.99649,130.98882 h -16 v 5.62 h 2 a 6.83,6.83 0 0 0 -0.06,0.78 v 47.86 a 6,6 0 0 0 6,5.95 v 0 a 5.94,5.94 0 0 0 5.94,-5.95 v -47.83 a 6.81,6.81 0 0 0 -0.05,-0.78 h 2.21 z"
     id="path156" />
  <path
     class="cls-21"
     d="m 625.64649,131.12882 h -16 v 5.62 h 2 a 4.9,4.9 0 0 0 -0.06,0.77 v 47.9 a 6,6 0 0 0 5.95,5.95 v 0 a 5.94,5.94 0 0 0 5.94,-5.95 v -47.9 a 4.9,4.9 0 0 0 -0.06,-0.77 h 2.23 z"
     id="path158" />
  <path
     class="cls-21"
     d="m 583.18649,131.12882 h -15.95 v 5.62 h 2 a 6.48,6.48 0 0 0 -0.06,0.77 v 47.9 a 6,6 0 0 0 6,5.95 v 0 a 5.94,5.94 0 0 0 5.94,-5.95 v -47.9 a 6.49,6.49 0 0 0 0,-0.77 h 2.21 z"
     id="path160" />
  <path
     class="cls-13"
     d="m 601.86649,167.87882 a 8.69,8.69 0 0 1 -7.42,-1.46 c -1.33,-1 -2.32,-2.43 -3.69,-3.4 a 6.32,6.32 0 0 0 -0.81,-0.46 v 22.86 a 6,6 0 0 0 11.92,0 z"
     id="path162" />
  <path
     class="cls-22"
     d="m 595.90649,191.32882 a 6,6 0 0 0 6,-5.95 v -23.73 a 4.85,4.85 0 0 0 -1.05,0.37 17,17 0 0 0 -3.69,3 13,13 0 0 1 -7.18,3.62 v 16.78 a 6,6 0 0 0 5.92,5.91 z"
     id="path164" />
  <path
     class="cls-8"
     d="m 623.50649,167.87882 a 8.67,8.67 0 0 1 -7.41,-1.44 c -1.32,-1 -2.31,-2.43 -3.67,-3.4 a 7.08,7.08 0 0 0 -0.81,-0.46 v 22.84 a 5.95,5.95 0 1 0 11.89,0 z"
     id="path166" />
  <path
     class="cls-23"
     d="m 617.56649,191.32882 a 5.94,5.94 0 0 0 5.94,-5.95 v -23.73 a 4.85,4.85 0 0 0 -1.05,0.37 16.7,16.7 0 0 0 -3.68,3 13,13 0 0 1 -7.16,3.62 v 16.78 a 6,6 0 0 0 5.95,5.91 z"
     id="path168" />
  <path
     class="cls-14"
     d="m 581.02649,167.87882 a 8.65,8.65 0 0 1 -7.38,-1.46 c -1.32,-1 -2.32,-2.43 -3.68,-3.4 a 6.32,6.32 0 0 0 -0.81,-0.46 v 22.86 a 5.95,5.95 0 1 0 11.89,0 z"
     id="path170" />
  <path
     class="cls-13"
     d="m 575.08649,191.32882 a 5.94,5.94 0 0 0 5.94,-5.95 v -23.73 a 4.85,4.85 0 0 0 -1,0.37 16.93,16.93 0 0 0 -3.68,3 12.91,12.91 0 0 1 -7.16,3.62 v 16.78 a 6,6 0 0 0 5.9,5.91 z"
     id="path172" />
  <rect
     class="cls-24"
     x="553.15649"
     y="196.22882"
     width="86.639999"
     height="6.8699999"
     rx="1.5700001"
     id="rect174"
     ry="1.5700001" />
  <rect
     class="cls-24"
     x="151.18883"
     y="-561.96649"
     width="49.689999"
     height="3.1900001"
     rx="1.26"
     transform="rotate(90)"
     id="rect176"
     ry="1.26" />
  <rect
     class="cls-24"
     x="151.19885"
     y="-633.9165"
     width="49.689999"
     height="3.1900001"
     rx="1.26"
     transform="rotate(90)"
     id="rect178"
     ry="1.26" />
  <rect
     class="cls-24"
     x="553.15649"
     y="151.18883"
     width="86.639999"
     height="3.9300001"
     rx="1.55"
     id="rect180"
     ry="1.55" />
  <g
     id="Layer_4"
     data-name="Layer 4"
     transform="translate(-50.353509,-29.581178)">
    <path
       class="cls-22"
       d="m 488.44,200.37 c -8.05,-5.16 -16.41,-10.63 -21.21,-18.91 a 5,5 0 0 1 -0.92,-3.51 c 0.59,-2.5 4.19,-2.8 6.48,-1.63 2.29,1.17 4.23,3.19 6.78,3.56 2.55,0.37 5.19,-1.2 6.83,-3.28 1.64,-2.08 2.55,-4.61 3.59,-7 3.69,-8.54 13.06,-22.44 20.16,-28.46 1.32,-1.12 4.07,1.28 5.78,1 2.82,-0.43 0.56,4.34 1.8,6.9 1.24,2.56 1.29,5.52 1.21,8.36 a 138.11,138.11 0 0 1 -5.15,32.08 c -1.37,5.07 -3.11,10.36 -7,13.85 -3.89,3.49 -10.71,4.29 -14.16,0.32"
       id="path183" />
    <path
       class="cls-25"
       d="m 428.62,157.27 c 1.41,-0.21 1.84,-1.15 3.31,-1.3 17,-1.75 26.66,9.71 26.66,25.7 0,5.87 -3.45,12.67 -7.56,16.82 a 5.64,5.64 0 0 0 -1.22,1.95 l -0.32,0.87 v 21.61 h 29.85 l -11.62,-23.7 h -0.28 a 37.64,37.64 0 0 0 7.46,-22.55 c 0,-20.9 -10.86,-36.76 -31.76,-36.76"
       id="path185" />
    <path
       class="cls-26"
       d="m 423.48,167 h 10.23 v 11.49 a 1,1 0 0 1 -1,1 h -8.23 a 1,1 0 0 1 -1,-1 z"
       transform="rotate(36.6,428.61564,173.29784)"
       id="path187" />
    <path
       class="cls-25"
       d="m 454.09,148.22 v 0 l 6.39,-8.59 a 2.74,2.74 0 0 0 0.51,-1.29 l 0.81,-6.5 a 0.67,0.67 0 0 1 0.15,-0.38 l 11.13,-15 a 0.27,0.27 0 0 0 -0.05,-0.38 l -6.41,-4.76 a 0.27,0.27 0 0 0 -0.37,0.06 l -11.1,15 a 1.12,1.12 0 0 1 -0.42,0.33 l -6,2.65 a 2.76,2.76 0 0 0 -1.08,0.86 l -6.39,8.62 -17.35,23.36 a 1.88,1.88 0 0 0 -0.36,1.19 l 0.14,2.62 a 2.4,2.4 0 0 0 1,1.87 l 9.76,7.26 a 2.47,2.47 0 0 0 2.09,0.4 l 2.59,-0.67 a 1.8,1.8 0 0 0 1,-0.68 l 12.29,-16.55 z"
       id="path189" />
    <rect
       class="cls-25"
       x="405.64001"
       y="201.24001"
       width="61.689999"
       height="4.54"
       rx="1.33"
       id="rect191"
       ry="1.33" />
    <rect
       class="cls-26"
       x="402.66"
       y="220.62"
       width="80.440002"
       height="8.5699997"
       rx="3.1400001"
       id="rect193"
       ry="3.1400001" />
    <rect
       class="cls-26"
       x="405.70001"
       y="227.10001"
       width="7.8000002"
       height="5.1100001"
       rx="2.51"
       id="rect195"
       ry="2.51" />
    <rect
       class="cls-26"
       x="472.51999"
       y="226.75"
       width="7.8000002"
       height="5.1100001"
       rx="2.51"
       id="rect197"
       ry="2.51" />
    <path
       class="cls-26"
       d="m 451.11,202.15 a 2.74,2.74 0 1 1 -3.87,0 2.75,2.75 0 0 1 3.87,0 z"
       id="path199" />
    <path
       class="cls-27"
       d="m 447.68,161.08 -13,11 -10.31,-4.47 a 2.09,2.09 0 0 0 0.28,0.24 l 9.76,7.26 a 2.47,2.47 0 0 0 2.09,0.4 l 2.59,-0.67 a 1.8,1.8 0 0 0 1,-0.68 L 448.47,163 Z"
       id="path201" />
    <path
       class="cls-26"
       d="m 453.89,159.08 a 6.37,6.37 0 1 1 -6.36,-6.37 6.36,6.36 0 0 1 6.36,6.37 z"
       id="path203" />
    <path
       class="cls-25"
       d="m 452.09,159.08 a 4.56,4.56 0 1 1 -4.56,-4.56 4.56,4.56 0 0 1 4.56,4.56 z"
       id="path205" />
    <path
       class="cls-27"
       d="m 467.47,199.22 a 37.64,37.64 0 0 0 7.46,-22.55 c 0,-8.2 -1.41,-16.52 -5.85,-22.72 2.16,6 2.85,13.46 3.39,19.7 1.32,15.12 -8.18,26.22 -8.18,26.22 0,0 9.21,21.72 9.62,23 h 5.46 l -11.62,-23.7 z"
       id="path207" />
    <path
       class="cls-28"
       d="m 480.7,183 c -2.51,-2.3 -17.87,-14.06 -20.89,-15.55 -3.25,-1.62 -6.84,-2.79 -9.57,-5.19 -0.54,-0.46 3.34,-1.66 4.61,-1.38 0.72,0.16 1.34,-0.88 0.91,-1.51 a 4.94,4.94 0 0 0 -1.24,-1.18 c -2.79,-1.95 -4.74,-3.89 -7.52,-5.83 a 23.51,23.51 0 0 1 -3.92,-3.18 c -0.45,-0.53 0.13,-0.86 0.8,-0.72 0.67,0.14 2.63,1.06 2.41,0.87 -0.5,-0.42 -0.11,-1.46 0.91,-1.2 4.32,1.09 10.47,3.7 13.07,5.59 6.56,4.78 15.49,17.88 24.86,22.3"
       id="path209" />
    <path
       class="cls-19"
       d="m 544.43,343.47 -42.16,-1 c -2.52,-0.07 -5.32,-0.25 -7,-2.08 -1.41,-1.49 -1.72,-3.68 -1.94,-5.71 -4.94,-44.61 -3.17,-89.64 -1.4,-134.48 0.38,-9.59 0.77,-19.24 2.89,-28.6 4.19,-18.49 16.69,-36.29 35,-41.35"
       id="path211" />
    <path
       class="cls-13"
       d="m 527.64,126.73 a 125.21,125.21 0 0 1 -15.18,4.66 2,2 0 0 0 -1.12,0.5 1.33,1.33 0 0 0 -0.23,0.7 37.67,37.67 0 0 0 0.09,8.51 2.38,2.38 0 0 0 2.62,1.83 c 8.8,-0.82 15.18,-4.41 19.59,-10.24 a 6.26,6.26 0 0 0 1.46,-3.2 3.9,3.9 0 0 0 -1.77,-3.49 c -1.29,-0.88 -3.33,-1 -4.18,-0.14"
       id="path213" />
    <path
       class="cls-28"
       d="m 548.3,430.41 q 0.76,4.51 1.51,9 a 5.88,5.88 0 0 1 0.12,1.77 c -0.31,2.3 -3,3.55 -4.07,5.64 a 1.38,1.38 0 0 0 -0.19,0.71 c 0.08,0.79 1.14,1 2,1.05 l 7.22,0.26 c 0.91,0 2,0 2.49,-0.74 a 2.53,2.53 0 0 0 0.34,-1.12 L 560,429.94"
       id="path215" />
    <path
       class="cls-28"
       d="m 513.61,430.41 q 0.75,4.51 1.48,9 a 5.88,5.88 0 0 1 0.12,1.77 c -0.3,2.3 -3,3.55 -4,5.64 a 1.37,1.37 0 0 0 -0.18,0.71 c 0.08,0.79 1.13,1 1.93,1.05 l 7.11,0.26 c 0.89,0 2,0 2.45,-0.74 a 2.52,2.52 0 0 0 0.33,-1.12 q 1.15,-8.53 2.3,-17.07"
       id="path217" />
    <path
       class="cls-29"
       d="m 489.44,458 16.62,0.6 a 10.77,10.77 0 0 0 5.3,-0.69 c 0.88,-0.45 1.76,-1.17 2.74,-1 0.75,0.15 1.28,0.81 2,1.14 a 4.69,4.69 0 0 0 2,0.32 l 6.18,0.13 a 2.91,2.91 0 0 0 1.94,-0.43 2.61,2.61 0 0 0 0.61,-2.18 33.74,33.74 0 0 0 -1.7,-9.06 c -0.22,-0.67 -0.55,-1.42 -1.24,-1.62 a 2.49,2.49 0 0 0 -1.87,0.47 c -2.33,1.28 -5.4,2.18 -7.55,0.63 a 8.87,8.87 0 0 0 -1.67,-1.21 4.07,4.07 0 0 0 -2.27,0 77,77 0 0 0 -18.89,6 8.11,8.11 0 0 0 -3.57,2.6 2.9,2.9 0 0 0 0.52,3.94"
       id="path219" />
    <path
       class="cls-3"
       d="m 503.68,250 c -8.4,41.89 1.47,119.57 8.29,179.2 5,0 8.19,0.57 13.15,0.63 0.5,-50.74 1,-101.76 8.9,-151.68 3.09,49.08 6.73,98.15 12.92,146.83 a 7.22,7.22 0 0 0 0.91,3.16 4.79,4.79 0 0 0 3.79,1.68 c 4,0.31 5,0.48 8.85,-1.09 0.27,-52.85 4.36,-98.57 4.81,-151.41 0.08,-10.15 0.78,-19 -0.34,-27.66"
       id="path221" />
    <path
       class="cls-29"
       d="m 545.66,427.75 c 0.25,1.25 0.29,1.06 0.54,2.31 a 2.19,2.19 0 0 0 0.37,1 1.57,1.57 0 0 0 1.21,0.42 l 12.39,0.41 a 1.2,1.2 0 0 0 0.72,-0.13 1.74,1.74 0 0 0 0.56,-1.11 l 0.56,-2.41 a 1.68,1.68 0 0 0 -1.44,-2.19 c -2.71,0 -4.87,0 -8,-0.16 -1.79,-0.08 -3.83,-0.28 -5.46,-0.28 h -0.31 a 1.62,1.62 0 0 0 -1.24,1.6 z"
       id="path223" />
    <path
       class="cls-29"
       d="m 510.45,427 a 1.26,1.26 0 0 0 -0.22,0.93 c 0.16,1.09 0.25,1.89 0.43,3.1 a 1.47,1.47 0 0 0 0.28,0.78 1,1 0 0 0 0.69,0.24 q 6.69,0.48 13.38,0.5 a 1.23,1.23 0 0 0 0.79,-0.19 1.63,1.63 0 0 0 0.43,-0.88 24.14,24.14 0 0 0 0.5,-2.67 1.56,1.56 0 0 0 -1.42,-1.86 122,122 0 0 1 -14.07,-0.34 0.87,0.87 0 0 0 -0.79,0.39 z"
       id="path225" />
    <path
       class="cls-29"
       d="m 524.15,458.12 16.62,0.61 a 10.77,10.77 0 0 0 5.3,-0.69 c 0.88,-0.45 1.76,-1.17 2.74,-1 0.75,0.15 1.28,0.81 2,1.14 a 5.11,5.11 0 0 0 2,0.32 l 6.18,0.13 a 2.91,2.91 0 0 0 1.94,-0.43 2.61,2.61 0 0 0 0.61,-2.18 33.81,33.81 0 0 0 -1.7,-9.07 c -0.23,-0.66 -0.56,-1.41 -1.24,-1.62 a 2.55,2.55 0 0 0 -1.87,0.48 c -2.33,1.27 -5.4,2.18 -7.55,0.63 a 8.87,8.87 0 0 0 -1.67,-1.21 4.07,4.07 0 0 0 -2.27,0 76.54,76.54 0 0 0 -18.89,6 8.11,8.11 0 0 0 -3.57,2.6 2.89,2.89 0 0 0 0.51,3.94"
       id="path227" />
    <path
       class="cls-30"
       d="m 565.79,184.23 a 21.28,21.28 0 0 0 22.6,-6 22,22 0 0 0 3.08,-23.45 c -5.37,-11 -19.22,-15.81 -24.26,-27 -3.67,-8.14 -2,-18.41 -7.32,-25.56 -2.9,-3.9 -7.4,-6.16 -11.07,-9.32 -4.67,-4 -7.93,-9.44 -11.93,-14.14 -4,-4.7 -9.31,-8.91 -15.44,-9.09 -7.83,-0.22 -14.63,6.59 -16.52,14.28 -1.89,7.69 0.18,15.86 3.51,23 3.33,7.14 7.87,13.71 11.29,20.83 7.21,15 10.7,34 25.25,41.75"
       id="path229" />
    <path
       class="cls-30"
       d="m 518.73,119.92 c 7.84,0.14 2.08,-1.48 7.39,-0.31 12,2.67 19.6,-11.83 18.72,-23.48 a 33,33 0 0 0 -6.91,-17.31 c -2.8,-3.65 -8,-6.88 -14.63,-7.94 -4.46,-0.72 -8.76,-1 -12.95,0.28 a 31.58,31.58 0 0 0 -7.7,3.31 c -3.68,2.09 -6.85,7.78 -7.58,9.32 -2.54,5.41 1.58,5.06 3,10.7 0.8,3.16 3.82,5.77 4.17,9.26 1.29,12.73 1,17.46 11.3,16"
       id="path231" />
    <path
       class="cls-28"
       d="m 530.46,139 a 5.58,5.58 0 0 0 1.71,-5.14 c -1.14,-5 -2.78,-12.44 -3.56,-15.84 -0.33,-1.4 -0.65,-2.79 -1,-4.18 a 1.75,1.75 0 0 0 -0.42,-0.85 1.09,1.09 0 0 0 -0.69,-0.22 c -2.31,-0.11 -4.2,1.57 -6.28,2.48 -2.55,1.11 -5.48,1.08 -8.07,2.08 a 1.14,1.14 0 0 0 -0.75,0.65 1.52,1.52 0 0 0 0,0.67 c 0.59,4.08 2.06,12.72 2.85,17.85 0.18,1.15 0.06,2.79 0.94,3.52 l 1.58,1.57 c 2.51,2.09 7.41,2.13 9.83,0.31 a 23.68,23.68 0 0 0 3.86,-2.9 z"
       id="path233" />
    <path
       class="cls-31"
       d="m 526.74,111.3 a 1.08,1.08 0 0 0 -0.68,-0.22 c -2.32,-0.12 -4.2,1.56 -6.29,2.47 -2.55,1.12 -5.47,1.08 -8.07,2.09 a 1.07,1.07 0 0 0 -0.74,0.65 1.68,1.68 0 0 0 0,0.67 c 0.33,2.28 0.67,4.56 1,6.84 a 15.47,15.47 0 0 0 8.13,1.23 11,11 0 0 0 8.55,-6.71 c -0.16,-0.66 -0.31,-1.33 -0.46,-2 -0.32,-1.4 -0.64,-2.8 -1,-4.18 a 1.56,1.56 0 0 0 -0.44,-0.84 z"
       id="path235" />
    <path
       class="cls-28"
       d="m 531.35,103.17 c 2.58,-1.54 4.39,-4.11 3.88,-6.32 -0.51,-2.21 -3.74,-3.6 -6.61,-2.51"
       id="path237" />
    <path
       class="cls-28"
       d="m 531.53,107.18 c -1.88,11.27 -9.67,13.21 -17.7,16.4 a 15.89,15.89 0 0 1 -5.43,0.86 c -3.88,-0.16 -6,-3.64 -7.12,-6.63 a 68.53,68.53 0 0 1 -3.78,-16 c -0.41,-3.73 -0.49,-7.57 1,-11.12 a 13.4,13.4 0 0 1 9.25,-7.81 c 5.56,-1.29 11.53,1.06 15.72,4.29 6.18,4.75 9.86,11.88 8.29,18.64"
       id="path239" />
    <path
       class="cls-30"
       d="m 527.12,91.23 c -1.29,-0.26 -7.45,-0.81 -8.81,-1 -0.37,0 -3.44,-6.33 -3.82,-6.36 -0.38,-0.03 2,6.21 1.57,6.19 a 50.43,50.43 0 0 0 -16.76,2 c -0.57,0.17 -0.69,-2.69 -0.68,-5 a 28.86,28.86 0 0 0 -1,5.14 c -0.13,1 -1.73,1.28 -2.52,1.63 a 1,1 0 0 1 -0.92,0.07 1.36,1.36 0 0 1 -0.39,-1 c -0.62,-6.77 2.46,-13.29 7.38,-16.6 a 15.7,15.7 0 0 1 5.48,-1.83 12.1,12.1 0 0 1 9.12,2.5 c 2.74,2 0.07,0.19 1.91,3.29"
       id="path241" />
    <path
       class="cls-22"
       d="m 502.93,252.77 q -0.62,-29.69 -1.21,-59.37 c -0.21,-10.27 -0.4,-20.65 1.7,-30.71 2.1,-10.06 6.74,-19.91 14.69,-26.42 a 25,25 0 0 1 13,-5.84 c 10.33,-1.09 20.06,6.37 24.79,15.61 4.73,9.24 5.49,20 6,30.32 a 745.38,745.38 0 0 1 -0.48,75.34"
       id="path243" />
    <g
       class="cls-32"
       id="g247">
      <path
         class="cls-22"
         d="m 541.66,193.39 c -2.09,-13 -4.18,-25.94 -7.31,-38.69 L 515,139.21 c -0.24,0.25 -0.48,0.51 -0.71,0.77 a 43.26,43.26 0 0 1 3.35,11.73 98.92,98.92 0 0 1 0.57,13 c 0.19,27 3.67,53.84 7.14,80.61 0.3,2.34 0.61,4.69 1,7 l 24.83,-0.46 q -4.8,-29.22 -9.52,-58.47 z"
         id="path245" />
    </g>
    <path
       class="cls-19"
       d="m 520.53,141.44 c 2.58,68.05 24,131.64 32.83,199.2 a 7.82,7.82 0 0 0 1.38,4.15 c 1.41,1.67 3.91,1.92 6.13,2 a 149.67,149.67 0 0 0 29.75,-2 6.46,6.46 0 0 0 5.46,-7.25 c -9.17,-61.83 -19.89,-115.76 -31.12,-181.46 -1.28,-7.47 -6.46,-16.77 -12.26,-21.79 -5.8,-5.02 -18.2,-6.29 -21.7,0.46"
       id="path249" />
    <path
       class="cls-22"
       d="m 522.48,187.74 c 3.12,-10.58 5.4,-17.34 9,-27.65 1.88,-5.4 5.87,-14.11 10.31,-18.13 4.44,-4.02 9.6,-5.91 15.18,-3.58 5.58,2.33 6.06,7.23 5.66,12.79 -0.4,5.56 -3.47,13 -6.19,18 -4.93,9.15 -9,17.26 -14.89,25.84 -4,5.87 -7.53,11.6 -15.13,13.12 -4.58,0.92 -8.12,-0.76 -12.35,-2.44 a 187,187 0 0 1 -27.91,-14 14.17,14.17 0 0 1 -5.72,-6.82 c -1,-3.09 0,-4.12 1.79,-7 1,-1.58 2.18,-3.32 4.11,-3.73 a 7.63,7.63 0 0 1 4,0.58 c 10.37,3.51 21.55,9.68 31.92,13.19"
       id="path251" />
    <path
       class="cls-13"
       d="m 531.38,127 a 126,126 0 0 1 -15,6 2.13,2.13 0 0 0 -1.09,0.6 1.33,1.33 0 0 0 -0.17,0.73 37.31,37.31 0 0 0 1,8.47 2.5,2.5 0 0 0 2.86,1.59 c 8.91,-1.61 15.47,-5.08 19.37,-11.29 a 7.94,7.94 0 0 0 0.76,-4 3.93,3.93 0 0 0 -2.16,-3.28 c -1.4,-0.76 -3.5,-0.73 -4.27,0.24"
       id="path253" />
    <path
       class="cls-33"
       d="m 318.9,155.7 c 2.33,-3.32 5,-6.88 9.87,-8.51 3.46,-1.15 7.48,-1.13 11.26,-1.65 3.78,-0.52 7.82,-1.91 8.79,-4.44 a 1.35,1.35 0 0 0 -0.15,-1.44 c -0.81,-0.92 -2.81,-0.73 -4.36,-0.52 -7.24,1 -14.69,-0.36 -22.07,-0.42 -1.92,0 -4.37,0.34 -4.69,1.62 a 3.61,3.61 0 0 0 0.32,1.62 4.82,4.82 0 0 1 -0.49,2.83 L 313,156.25"
       id="path255" />
    <path
       class="cls-34"
       d="M 350.21,137.41 H 317.88 V 88.92 a 16.16,16.16 0 0 1 16.17,-16.16 v 0 a 16.16,16.16 0 0 1 16.16,16.16 z"
       id="path257" />
    <path
       class="cls-3"
       d="m 317.86,137.56 a 27.54,27.54 0 0 1 32.35,-0.34"
       id="path259" />
    <path
       class="cls-3"
       d="m 334.43,132.31 a 22.3,22.3 0 0 0 2.46,-18.65 c -1.1,-3.42 -3.24,-6.37 -4.26,-9.83 -1.02,-3.46 -1.14,-7.31 0.66,-10.61 0.39,-0.71 -0.69,-1.33 -1.07,-0.63 a 14.2,14.2 0 0 0 -1.29,9.5 c 0.65,3.54 2.43,6.49 3.91,9.72 a 21,21 0 0 1 -1.49,19.88 c -0.43,0.67 0.64,1.29 1.08,0.62 z"
       id="path261" />
    <path
       class="cls-3"
       d="m 331.64,97.16 a 8.54,8.54 0 0 0 -4.39,-3.92 4.17,4.17 0 0 0 -3.68,0.05 c -1.07,0.67 -1.48,2.41 -0.51,3.23 a 2.58,2.58 0 0 0 2.17,0.36 c 0.74,-0.16 1.45,-0.47 2.21,-0.56 A 4,4 0 0 1 331,97.9"
       id="path263" />
    <path
       class="cls-3"
       d="m 332.49,105.17 a 6.74,6.74 0 0 1 5.63,-4.12 3.55,3.55 0 0 1 3,1 1.89,1.89 0 0 1 -0.33,2.82 c -0.83,0.43 -1.81,0 -2.7,-0.31 a 8.53,8.53 0 0 0 -3,-0.44 2.55,2.55 0 0 0 -2.4,1.22"
       id="path265" />
    <path
       class="cls-3"
       d="m 336.09,113.83 a 6.15,6.15 0 0 0 -3.53,-2 5,5 0 0 0 -3.27,0.26 2.85,2.85 0 0 0 -1.62,2.69 2,2 0 0 0 2.38,1.71 3.18,3.18 0 0 0 1,-0.59 9.12,9.12 0 0 1 2.64,-1.46 3.78,3.78 0 0 1 2.95,0.22"
       id="path267" />
    <path
       class="cls-3"
       d="m 337.13,120.34 a 5.11,5.11 0 0 1 2.9,-3.24 3.7,3.7 0 0 1 4.12,1 1.26,1.26 0 0 1 0.32,1 1.29,1.29 0 0 1 -1,0.83 5.36,5.36 0 0 1 -2.22,0 5.78,5.78 0 0 0 -2.23,-0.06 1.84,1.84 0 0 0 -1.47,1.47"
       id="path269" />
    <path
       class="cls-3"
       d="m 332.12,93.65 a 27.61,27.61 0 0 1 2.29,-4.7 5.16,5.16 0 0 1 2.15,-2.23 2,2 0 0 1 2.68,0.92 2.51,2.51 0 0 1 -1.23,3 30.32,30.32 0 0 1 -3.09,1.19 5.67,5.67 0 0 0 -2.75,2.93"
       id="path271" />
    <path
       class="cls-35"
       d="M 353.74,141.16 H 314 a 1.94,1.94 0 0 1 -1.94,-1.94 v 0 a 1.94,1.94 0 0 1 1.94,-1.93 h 39.7 a 1.93,1.93 0 0 1 1.93,1.93 v 0 a 1.93,1.93 0 0 1 -1.89,1.94 z"
       id="path273" />
    <path
       class="cls-36"
       d="M 350.09,87 A 16.19,16.19 0 0 0 340.33,74 L 318,86.91 a 16.68,16.68 0 0 0 -0.13,2 v 16.67 z"
       id="path275" />
    <polygon
       class="cls-36"
       points="350.21,99.56 317.88,118.22 317.88,127.6 350.21,108.94 "
       id="polygon277" />
    <path
       class="cls-37"
       d="m 286.08,173 c -7.38,-7.71 -12.36,-12.52 -20.08,-19.8 -4,-3.81 -11.47,-9.55 -17.36,-11.07 -5.89,-1.52 -11.57,-0.88 -15.89,3.55 -4.32,4.43 -2.73,8.84 0,13.44 2.73,4.6 8.71,9.62 13.4,12.77 8.5,5.7 15.79,10.87 24.93,15.68 6.24,3.29 12,6.68 19.83,4.67 4.73,-1.21 7.39,-4.19 10.71,-7.48 a 197.69,197.69 0 0 0 20.64,-24.15 13.49,13.49 0 0 0 2.58,-8.34 c -0.33,-3.1 -1.74,-3.53 -4.62,-5.22 -1.59,-0.93 -3.45,-1.9 -5.47,-1.41 a 8.68,8.68 0 0 0 -3.56,2.25 c -8.37,7.53 -16.41,17.7 -24.78,25.23"
       id="path279" />
    <path
       class="cls-19"
       d="m 227.44,325.49 c 15.62,2.46 38.08,0.15 52,-2 2.49,-0.39 5.24,-0.92 6.74,-2.85 1.22,-1.58 1.26,-3.66 1.23,-5.6 -0.52,-42.35 -7.75,-84.24 -14.95,-125.94 -1.55,-8.92 -3.1,-17.9 -6.34,-26.38 -6.41,-16.75 -21,-31.79 -39.7,-34.16"
       id="path281" />
    <path
       class="cls-8"
       d="m 224.18,123.84 a 149,149 0 0 0 19,3.3 2.49,2.49 0 0 1 1.42,0.44 1.63,1.63 0 0 1 0.4,0.81 47.21,47.21 0 0 1 1.19,10.29 2.92,2.92 0 0 1 -2.89,2.61 c -10.75,0.36 -19,-3 -25.22,-9.37 a 7.52,7.52 0 0 1 -2.25,-3.64 4.74,4.74 0 0 1 1.61,-4.44 c 1.42,-1.26 3.86,-1.76 5,-0.8"
       id="path283" />
    <path
       class="cls-33"
       d="m 208,430 q -1.4,3.94 -2.81,7.88 a 5.82,5.82 0 0 0 -0.4,1.58 c -0.13,2.11 2,3.67 2.52,5.72 a 1.28,1.28 0 0 1 0,0.67 c -0.2,0.69 -1.15,0.73 -1.85,0.63 l -6.21,-0.93 c -0.78,-0.11 -1.7,-0.33 -2,-1.06 a 2.36,2.36 0 0 1 -0.11,-1.06 l 0.9,-15.73"
       id="path285" />
    <path
       class="cls-14"
       d="m 227.29,458.57 -16.21,-2.48 a 11.38,11.38 0 0 1 -5,-1.6 c -0.78,-0.56 -1.52,-1.37 -2.49,-1.37 -0.76,0 -1.38,0.49 -2.11,0.66 a 5,5 0 0 1 -2,-0.07 l -6,-1 a 3,3 0 0 1 -1.81,-0.74 2.28,2.28 0 0 1 -0.21,-2.07 28.81,28.81 0 0 1 3.17,-7.84 2.1,2.1 0 0 1 1.48,-1.23 2.63,2.63 0 0 1 1.73,0.76 c 2,1.57 4.86,2.95 7.21,1.95 a 8.64,8.64 0 0 1 1.82,-0.79 4.38,4.38 0 0 1 2.21,0.39 80,80 0 0 1 17.29,8.81 8,8 0 0 1 3,3 2.51,2.51 0 0 1 -1.16,3.45"
       id="path287" />
    <path
       class="cls-33"
       d="m 299.52,427 c -0.07,3.05 -0.13,6.1 -0.2,9.15 a 6.58,6.58 0 0 0 0.13,1.77 c 0.6,2.24 3.32,3.13 4.59,5.06 a 1.34,1.34 0 0 1 0.27,0.68 c 0,0.79 -0.93,1.16 -1.7,1.3 l -6.76,1.18 a 2.6,2.6 0 0 1 -2.44,-0.41 2.67,2.67 0 0 1 -0.48,-1.07 L 288.43,428"
       id="path289" />
    <path
       class="cls-14"
       d="m 327,454.32 -17.33,1 a 11.89,11.89 0 0 1 -5.55,-0.58 c -0.93,-0.43 -1.86,-1.13 -2.88,-0.92 -0.78,0.17 -1.32,0.84 -2,1.18 a 5.06,5.06 0 0 1 -2.06,0.37 l -6.45,0.27 a 3.13,3.13 0 0 1 -2,-0.39 2.52,2.52 0 0 1 -0.67,-2.16 31.79,31.79 0 0 1 1.58,-9.1 2.23,2.23 0 0 1 1.26,-1.65 2.72,2.72 0 0 1 1.95,0.43 c 2.47,1.22 5.69,2.06 7.9,0.46 a 9.56,9.56 0 0 1 1.72,-1.25 4.52,4.52 0 0 1 2.37,-0.08 83,83 0 0 1 19.84,5.56 8.48,8.48 0 0 1 3.78,2.52 2.81,2.81 0 0 1 -0.45,4"
       id="path291" />
    <path
       class="cls-38"
       d="M 270.83,240.16 301,435.39 289.24,434.54 c 0,0 -16.42,-63 -21.12,-83.9 -4.7,-20.9 -20.4,-66.64 -22.48,-70.64 -2.08,-4 -3.12,-6.19 -3.12,-6.19 0,0 -10.14,59.46 -13.07,70.14 -3.72,13.56 -4.5,16.95 -10.38,40.89 -7.14,29.15 -9.19,47.46 -9.19,47.46 l -14.29,-1.69 10.91,-96.06 c 0,0 0.52,-64.69 0.52,-75.43 0,-10.74 2.09,-37.29 2.09,-37.29 z"
       id="path293" />
    <path
       class="cls-39"
       d="m 288.74,437.22 11.43,-1.14 a 3.8,3.8 0 0 0 3.42,-4.06 v 0 a 3.81,3.81 0 0 0 -4.17,-3.51 L 288,429.65 a 3.8,3.8 0 0 0 -3.42,4.05 v 0 a 3.81,3.81 0 0 0 4.16,3.52 z"
       id="path295" />
    <path
       class="cls-39"
       d="m 196.36,436.78 11.4,1 a 3.81,3.81 0 0 0 4.13,-3.51 v 0 a 3.81,3.81 0 0 0 -3.47,-4.08 l -11.39,-1 a 3.82,3.82 0 0 0 -4.14,3.52 v 0 a 3.82,3.82 0 0 0 3.47,4.07 z"
       id="path297" />
    <path
       class="cls-37"
       d="m 211.73,261.35 63.69,-2.41 q -4.76,-30.48 -8.16,-61.19 c -1.41,-12.77 -2.69,-25.75 -7.18,-37.65 -4.49,-11.9 -12.74,-22.82 -24,-26.85 -11.26,-4.03 -25.51,0.73 -30.44,12.43 -1.68,4 -2.22,8.44 -2.59,12.82 -3,35.33 3.42,70.7 9.8,105.49"
       id="path299" />
    <path
       class="cls-8"
       d="m 239.4,133.79 c -0.22,-1.23 -3.93,3.88 -4.15,2.62 -1.61,-0.95 2.59,-2.53 0.82,-3.16 a 24.84,24.84 0 0 0 -9.13,-1.38 11,11 0 0 0 -0.93,1.5 c -2.24,4.5 -2,9.91 -1.9,15 0.48,21.39 -1.9,42.72 -2.25,64.1 -0.26,16.23 0.73,32.78 4.87,48.29 6.72,-0.25 23.59,-0.51 30.31,-0.76 -3.11,-39.67 -10.38,-86.5 -17.64,-126.21 z"
       id="path301" />
    <path
       class="cls-30"
       d="m 232.64,117.54 c -8.23,2.45 -16.73,0.84 -22,-2.78 -5.27,-3.62 -7.78,-9 -9.31,-14.44 -1.33,-4.73 -2,-9.77 -0.28,-14.95 1.72,-5.18 6.14,-10.58 12.75,-13.77 A 42.77,42.77 0 0 1 228.23,68 c 3.18,-0.3 6.44,-0.39 9,0.46 a 11.09,11.09 0 0 1 5.32,4 c 4.53,5.74 9.56,7.28 6.9,12.41 -0.81,1.55 -9.87,7.26 -11.6,11.87 -1.56,4.18 4.38,16.64 -0.83,19.35"
       id="path303" />
    <path
       class="cls-33"
       d="m 223.24,140.8 a 5.81,5.81 0 0 1 -3.18,-4.7 c -0.28,-5.39 -0.71,-13.33 -0.88,-17 -0.07,-1.5 -0.14,-3 -0.15,-4.5 a 1.69,1.69 0 0 1 0.18,-1 1.16,1.16 0 0 1 0.63,-0.41 c 2.3,-0.77 4.68,0.39 7,0.72 2.88,0.4 5.82,-0.46 8.72,-0.17 a 1.15,1.15 0 0 1 0.94,0.44 1.71,1.71 0 0 1 0.18,0.68 c 0.55,4.28 1.51,13.41 2.16,18.8 0.14,1.21 0.73,2.83 0.05,3.82 l -1.15,2 c -1.94,2.81 -6.87,4.23 -9.82,3.08 a 24.89,24.89 0 0 1 -4.68,-1.76 z"
       id="path305" />
    <path
       class="cls-40"
       d="m 219.21,113.64 a 1.16,1.16 0 0 1 0.63,-0.41 c 2.3,-0.77 4.68,0.39 7,0.72 2.88,0.4 5.82,-0.46 8.72,-0.17 a 1.15,1.15 0 0 1 0.94,0.44 1.71,1.71 0 0 1 0.18,0.68 l 0.93,7.18 a 16.21,16.21 0 0 1 -7.86,3.53 11.51,11.51 0 0 1 -10.51,-4.35 c 0,-0.71 -0.07,-1.43 -0.1,-2.14 -0.07,-1.5 -0.14,-3 -0.15,-4.5 a 1.69,1.69 0 0 1 0.22,-0.98 z"
       id="path307" />
    <path
       class="cls-33"
       d="m 211.72,106.44 c -3.07,-0.67 -5.72,-2.63 -5.95,-5 -0.23,-2.37 2.53,-4.82 5.74,-4.69"
       id="path309" />
    <path
       class="cls-33"
       d="m 213.22,110.84 c 5.08,10.83 13.48,10.6 22.47,11.54 a 16.43,16.43 0 0 0 5.72,-0.66 c 3.87,-1.26 5.05,-5.37 5.31,-8.7 A 71.11,71.11 0 0 0 246,95.81 c -0.64,-3.87 -1.64,-7.77 -4.14,-10.93 a 14.08,14.08 0 0 0 -11.53,-5.27 c -6,0.28 -11.33,4.33 -14.64,8.77 -4.89,6.54 -6.59,14.76 -3.1,21.14"
       id="path311" />
    <path
       class="cls-30"
       d="m 233.42,75.67 c 9.64,-7.36 8.76,-15.13 6.47,-13 -5.82,5.35 -12.39,6.15 -20.17,7.56 -1.86,0.33 -4.43,5 -6.28,5.38 -5,1 -8.44,5.91 -8.91,10.73 -0.47,4.82 0.1,5.35 2.71,9.41 l 4.09,0.5 c 0,0 0.16,1.64 0.53,3.34 a 7.6,7.6 0 0 0 0.75,2.66 1.36,1.36 0 0 0 2.4,-0.63 c 1.06,-6.53 3.11,-12.36 8.48,-15.71 a 25.4,25.4 0 0 1 4.63,-1.69 c 3.59,-0.92 2.61,-1 6.23,-1.72 3.62,-0.72 7.32,-2.22 9.63,-5 2.53,-3.15 -13.63,0.5 -10.56,-1.83 z"
       id="path313" />
    <path
       class="cls-30"
       d="m 235.5,69.25 a 7.87,7.87 0 0 0 2.43,-0.1 11.68,11.68 0 0 0 2.76,-1 l 8.7,-4 a 1.33,1.33 0 0 1 1,-0.16 c 0.6,0.23 0.85,1.07 0.93,1.76 a 9.66,9.66 0 0 1 -1.92,7.25 10,10 0 0 0 6.8,-2.62 7.4,7.4 0 0 1 0.09,6.49 9.12,9.12 0 0 1 -4.21,4 16.91,16.91 0 0 1 -12.51,1 2.68,2.68 0 0 1 0.73,3.54 4,4 0 0 1 -3.08,1.42 19.66,19.66 0 0 1 -7.89,-0.83 3.21,3.21 0 0 1 -0.64,4.18 5.15,5.15 0 0 1 -4.08,0.47 18.59,18.59 0 0 1 -6.56,-2.77"
       id="path315" />
    <path
       class="cls-19"
       d="m 233,138.44 c 5.92,13 19.61,123.72 25.1,188.17 a 7.73,7.73 0 0 1 -0.4,4.12 c -0.91,1.81 -3,2.51 -5,3 -8.65,2.14 -31.15,5 -40.07,5.3 -3.21,0.1 -11.64,-3.64 -11.86,-6.95 -4.09,-59.18 -4.6,-109.88 -2.65,-173.28 0.22,-7.16 2.37,-16.78 6.46,-22.52 4.09,-5.74 14.71,-9.21 19.09,-3.57"
       id="path317" />
    <path
       class="cls-8"
       d="m 218.52,123.48 a 156.24,156.24 0 0 0 18.54,6.7 2.58,2.58 0 0 1 1.35,0.68 1.64,1.64 0 0 1 0.23,0.87 45.28,45.28 0 0 1 -0.81,10.35 c -0.22,1.29 -1.87,2.27 -3.42,2 -10.9,-1.59 -19,-5.54 -24,-12.93 a 9.82,9.82 0 0 1 -1.09,-4.85 4.8,4.8 0 0 1 2.49,-4.08 c 1.68,-1 4.24,-1 5.21,0.11"
       id="path319" />
    <path
       class="cls-3"
       d="m 302.84,104 c -0.91,-11.11 -5,-19.84 -9.15,-19.5 -4.15,0.34 -6.75,9.62 -5.84,20.74 0.83,10.05 4.26,18.16 8,19.36 0,0.08 0,0.16 0,0.24 l 2.38,29.16 c 0.1,1.27 0.57,2.27 1,2.23 l 0.77,-0.06 c 0.47,0 0.77,-1.1 0.66,-2.37 l -2.39,-29.13 a 2.91,2.91 0 0 0 0,-0.31 c 3.39,-1.97 5.39,-10.43 4.57,-20.36 z"
       id="path321" />
    <path
       class="cls-34"
       d="m 300.19,104.11 c 0.76,9.21 -0.94,16.86 -3.79,17.1 -2.85,0.24 -5.78,-7 -6.54,-16.25 -0.76,-9.25 0.94,-16.86 3.8,-17.1 2.86,-0.24 5.78,7.04 6.53,16.25 z"
       id="path323" />
    <path
       class="cls-36"
       d="m 300.19,104.11 a 48.7,48.7 0 0 0 -0.83,-5.93 l -8.49,13.53 c 0.82,3.68 2,6.61 3.28,8.19 l 6.2,-9.86 a 50.14,50.14 0 0 0 -0.16,-5.93 z"
       id="path325" />
    <path
       class="cls-36"
       d="m 296.42,89.87 -6.74,10.73 c 0,1.4 0.06,2.86 0.18,4.36 0.08,1 0.19,1.93 0.31,2.86 l 8.3,-13.21 a 19.78,19.78 0 0 0 -2.05,-4.74 z"
       id="path327" />
    <path
       class="cls-33"
       d="m 285.53,151.71 c 5.24,-5.35 7.08,-13.2 11.67,-19.13 0.58,-0.75 1.4,-1.53 2.31,-1.32 a 1.78,1.78 0 0 1 1.23,1.56 5.32,5.32 0 0 1 -0.31,2.08 1.75,1.75 0 0 1 1.66,1.56 5.1,5.1 0 0 1 -0.43,2.45 c 1.72,-0.28 2.1,1.76 1,3.42 -0.3,0.42 2.68,1.28 -0.26,4.21 a 31.76,31.76 0 0 1 -4.41,4 12.52,12.52 0 0 0 -2.06,2.18 l -4.67,5.86"
       id="path329" />
    <path
       class="cls-37"
       d="m 256,177 c -7,-8.52 -11.71,-13.87 -19,-22 -3.83,-4.24 -10.9,-10.72 -16.56,-12.7 -5.66,-1.98 -11.13,-1.71 -15.37,2.61 -4.24,4.32 -2.77,9 -0.24,14 2.53,5 8.24,10.61 12.71,14.21 8.1,6.51 15,12.39 23.77,18 6,3.84 11.44,7.76 19,6.2 4.57,-0.94 7.18,-3.85 10.43,-7.05 a 187.25,187.25 0 0 0 20.26,-23.74 14.29,14.29 0 0 0 2.62,-8.51 c -0.27,-3.24 -1.62,-3.79 -4.37,-5.74 -1.52,-1.08 -3.3,-2.21 -5.24,-1.85 a 7.75,7.75 0 0 0 -3.48,2.1 c -8.18,7.27 -16.09,17.3 -24.28,24.57"
       id="path331" />
  </g>
</svg>
