<?xml version="1.0" encoding="UTF-8" standalone="no"?>
<svg
   xmlns:dc="http://purl.org/dc/elements/1.1/"
   xmlns:cc="http://creativecommons.org/ns#"
   xmlns:rdf="http://www.w3.org/1999/02/22-rdf-syntax-ns#"
   xmlns:svg="http://www.w3.org/2000/svg"
   xmlns="http://www.w3.org/2000/svg"
   xmlns:sodipodi="http://sodipodi.sourceforge.net/DTD/sodipodi-0.dtd"
   xmlns:inkscape="http://www.inkscape.org/namespaces/inkscape"
   viewBox="0 0 353 353"
   version="1.1"
   id="svg531"
   sodipodi:docname="Home--Collaborations.svg"
   width="353"
   height="353"
   inkscape:version="1.0.1 (3bc2e813f5, 2020-09-07)">
  <metadata
     id="metadata535">
    <rdf:RDF>
      <cc:Work
         rdf:about="">
        <dc:format>image/svg+xml</dc:format>
        <dc:type
           rdf:resource="http://purl.org/dc/dcmitype/StillImage" />
        <dc:title></dc:title>
      </cc:Work>
    </rdf:RDF>
  </metadata>
  <sodipodi:namedview
     pagecolor="#ffffff"
     bordercolor="#666666"
     borderopacity="1"
     objecttolerance="10"
     gridtolerance="10"
     guidetolerance="10"
     inkscape:pageopacity="0"
     inkscape:pageshadow="2"
     inkscape:window-width="1858"
     inkscape:window-height="1016"
     id="namedview533"
     showgrid="false"
     inkscape:zoom="1.666"
     inkscape:cx="185"
     inkscape:cy="202"
     inkscape:window-x="62"
     inkscape:window-y="27"
     inkscape:window-maximized="1"
     inkscape:current-layer="svg531"
     inkscape:document-rotation="0"
     fit-margin-top="0"
     lock-margins="true"
     fit-margin-left="0"
     fit-margin-right="0"
     fit-margin-bottom="0" />
  <defs
     id="defs502">
    <style
       id="style500">.cls-1,.cls-4{fill:none;}.cls-1,.cls-2,.cls-3,.cls-4{stroke:#000;stroke-miterlimit:10;}.cls-2{fill:#ea526f;}.cls-3{fill:#25ced1;}.cls-4{stroke-linecap:round;stroke-width:0.5px;}</style>
  </defs>
  <g
     id="Layer_19"
     data-name="Layer 19"
     transform="translate(-65,-48)">
    <circle
       class="cls-1"
       cx="241.5"
       cy="224.5"
       r="176"
       id="circle504" />
    <path
       class="cls-1"
       d="m 190.5,55.5 c -86,66 -69.9,267.33 14,341"
       id="path506" />
    <path
       class="cls-1"
       d="m 230.5,48.5 c 134.08,48 170.19,220.94 115,318"
       id="path508" />
    <path
       class="cls-1"
       d="m 209.5,51.5 c 69,136 82,248 68,346"
       id="path510" />
    <path
       class="cls-1"
       d="m 85.5,142.5 c 85,37 232,1 274,-48"
       id="path512" />
    <path
       class="cls-1"
       d="m 66.5,205.5 c 100.5,54.83 286.5,4.12 333,-59"
       id="path514" />
    <path
       class="cls-1"
       d="m 71.5,271.5 c 108.91,59.42 291.09,14.53 346,-60"
       id="path516" />
    <path
       class="cls-2"
       d="m 331.67,204.24 c -71.18,67.43 -186.06,79.92 -241,32.47 -6.81,-5.89 -13.73,-8.74 -23.72,-36.22 l -1.25,-1.25 c 59.94,68.69 169.83,58.7 254.75,-8.74"
       id="path518" />
    <polyline
       class="cls-2"
       points="320.91 190.5 308.26 174.77 365 165.98 344.25 219.52 331.93 204.2"
       id="polyline520" />
    <path
       class="cls-3"
       d="m 219.61,323 c 91.23,6.9 181.74,-51.7 193.58,-118.41 1.46,-8.27 4.79,-14.41 -4.15,-40.18 l 0.17,-1.64 c -2.95,85 -88.38,142.48 -189.56,143.67"
       id="path522" />
    <polyline
       class="cls-3"
       points="219.31 306.69 219.21 287.85 172.96 314.89 219.5 341.43 219.4 323.09"
       id="polyline524" />
    <path
       class="cls-1"
       d="m 128.5,359.5 c 102,37 203,6 271,-56"
       id="path526" />
    <path
       class="cls-4"
       d="m 99,139.88 c 5.63,-15.14 19.28,-29.47 31.06,-38.76"
       id="path528" />
  </g>
</svg>
