<?xml version="1.0" encoding="UTF-8" standalone="no"?>
<svg
   xmlns:dc="http://purl.org/dc/elements/1.1/"
   xmlns:cc="http://creativecommons.org/ns#"
   xmlns:rdf="http://www.w3.org/1999/02/22-rdf-syntax-ns#"
   xmlns:svg="http://www.w3.org/2000/svg"
   xmlns="http://www.w3.org/2000/svg"
   xmlns:sodipodi="http://sodipodi.sourceforge.net/DTD/sodipodi-0.dtd"
   xmlns:inkscape="http://www.inkscape.org/namespaces/inkscape"
   viewBox="0 0 448 409.25253"
   version="1.1"
   id="svg1367"
   sodipodi:docname="Home--WikiSync.svg"
   inkscape:version="1.0.1 (0767f8302a, 2020-10-17)"
   width="448"
   height="409.25253">
  <metadata
     id="metadata1371">
    <rdf:RDF>
      <cc:Work
         rdf:about="">
        <dc:format>image/svg+xml</dc:format>
        <dc:type
           rdf:resource="http://purl.org/dc/dcmitype/StillImage" />
        <dc:title></dc:title>
      </cc:Work>
    </rdf:RDF>
  </metadata>
  <sodipodi:namedview
     pagecolor="#ffffff"
     bordercolor="#666666"
     borderopacity="1"
     objecttolerance="10"
     gridtolerance="10"
     guidetolerance="10"
     inkscape:pageopacity="0"
     inkscape:pageshadow="2"
     inkscape:window-width="1858"
     inkscape:window-height="1016"
     id="namedview1369"
     showgrid="false"
     inkscape:zoom="1.1780399"
     inkscape:cx="132.04485"
     inkscape:cy="213.78668"
     inkscape:window-x="62"
     inkscape:window-y="27"
     inkscape:window-maximized="1"
     inkscape:current-layer="svg1367"
     lock-margins="true"
     fit-margin-top="5"
     fit-margin-left="5"
     fit-margin-right="5"
     fit-margin-bottom="5" />
  <defs
     id="defs1303">
    <style
       id="style1301">.cls-1{fill:#fff;}.cls-2{fill:#1faaad;}.cls-3{fill:#92e7e8;}.cls-4,.cls-5{fill:none;stroke-linecap:round;stroke-linejoin:round;}.cls-4{stroke:#1faaad;}.cls-5{stroke:#92e7e8;}.cls-6{fill:#ea526f;stroke:#fff;stroke-miterlimit:10;stroke-width:3px;}</style>
  </defs>
  <circle
     class="cls-2"
     cx="27.59"
     cy="204.52492"
     r="22.59"
     id="circle1308" />
  <circle
     class="cls-3"
     cx="420.41"
     cy="204.52492"
     r="22.59"
     id="circle1310" />
  <path
     class="cls-4"
     d="M 27.34,170.73491 C 43.19,78.014912 119.57,9.3549123 216.19,6.1249123 c 74,-2.48 135.18,32.1899997 168.38,82.9999997"
     id="path1312"
     style="stroke-width:2;stroke-miterlimit:4;stroke-dasharray:none" />
  <path
     class="cls-4"
     d="m 390.1,97.614912 c 4.2,7.299998 9.89,18.269998 12.76,24.389998"
     id="path1314"
     style="stroke-width:2;stroke-miterlimit:4;stroke-dasharray:none" />
  <path
     class="cls-4"
     d="m 407.22,131.80491 a 77.13,77.13 0 0 1 5.77,18.59"
     id="path1316"
     style="stroke-width:2;stroke-miterlimit:4;stroke-dasharray:none" />
  <path
     class="cls-5"
     d="m 418.23,236.61491 c -15,92.87 -90.68,162.27 -187.26,166.43 -74,3.2 -135.48,-30.88 -169.17,-81.39"
     id="path1318"
     style="stroke-width:2;stroke-miterlimit:4;stroke-dasharray:none" />
  <path
     class="cls-5"
     d="m 56.19,313.24491 c -4.28,-7.29 -10.07,-18.18 -13,-24.29"
     id="path1320"
     style="stroke-width:2;stroke-miterlimit:4;stroke-dasharray:none" />
  <path
     class="cls-5"
     d="m 38.74,279.22491 a 77.42,77.42 0 0 1 -6,-18.54"
     id="path1322"
     style="stroke-width:2;stroke-miterlimit:4;stroke-dasharray:none" />
  <circle
     class="cls-6"
     cx="358.42001"
     cy="235.68492"
     r="5.4499998"
     id="circle1324" />
  <path
     class="cls-2"
     d="m 105.99,98.884912 h 1 a 0.66,0.66 0 0 1 0.66,0.54 l 22.29,71.239998 c 0.18,0.51 0.34,1 0.47,1.45 0.13,0.45 0.24,0.93 0.35,1.44 0.11,-0.51 0.23,-1 0.35,-1.44 0.12,-0.44 0.29,-0.94 0.47,-1.45 l 24.83,-71.239998 a 0.65,0.65 0 0 1 0.65,-0.54 h 0.33 a 0.64,0.64 0 0 1 0.65,0.54 l 24.81,71.239998 a 18.5,18.5 0 0 1 0.81,2.89 17.27,17.27 0 0 1 0.82,-2.89 l 22.29,-71.239998 a 0.73,0.73 0 0 1 0.77,-0.54 h 0.87 l -24.2,76.309998 h -1.09 l -25.45,-73.24 c -0.22,-0.69 -0.38,-1.26 -0.49,-1.69 -0.11,0.43 -0.28,1 -0.49,1.69 l -25.4,73.26 h -1.1 z"
     id="path1326"
     style="stroke-width:2;stroke-miterlimit:4;stroke-dasharray:none" />
  <path
     class="cls-2"
     d="m 226.02,175.19491 h -1.31 V 98.884912 h 1.31 z"
     id="path1328"
     style="stroke-width:2;stroke-miterlimit:4;stroke-dasharray:none" />
  <path
     class="cls-2"
     d="m 257.85,135.72491 h 5.13 c 0.69,0 1.27,0 1.74,-0.05 a 5.38,5.38 0 0 0 1.28,-0.25 4,4 0 0 0 1.12,-0.57 12.14,12.14 0 0 0 1.2,-1 l 35.54,-34.119998 a 5.34,5.34 0 0 1 1,-0.68 2.14,2.14 0 0 1 1,-0.19 h 0.66 l -37.11,35.559998 a 9.77,9.77 0 0 1 -1.55,1.22 5.84,5.84 0 0 1 -1.72,0.63 5,5 0 0 1 1.72,0.6 7.34,7.34 0 0 1 1.44,1.14 l 39.36,37.18 h -0.55 a 3,3 0 0 1 -1.17,-0.17 2.53,2.53 0 0 1 -0.79,-0.6 l -37.5,-35.47 c -0.55,-0.5 -1,-0.9 -1.42,-1.2 a 5.06,5.06 0 0 0 -1.2,-0.65 4.91,4.91 0 0 0 -1.31,-0.27 q -0.71,-0.06 -1.74,-0.06 h -5.13 v 38.38 h -1.3 V 98.774912 h 1.3 z"
     id="path1330"
     style="stroke-width:2;stroke-miterlimit:4;stroke-dasharray:none" />
  <path
     class="cls-2"
     d="m 327.84,175.19491 h -1.31 V 98.884912 h 1.31 z"
     id="path1332"
     style="stroke-width:2;stroke-miterlimit:4;stroke-dasharray:none" />
  <path
     class="cls-2"
     d="m 132.27,236.67491 a 0.79,0.79 0 0 1 -0.6,0.33 c -0.33,0 -0.83,-0.37 -1.5,-1.12 a 16.8,16.8 0 0 0 -2.95,-2.42 23.59,23.59 0 0 0 -5,-2.43 25.49,25.49 0 0 0 -16,0.33 18.11,18.11 0 0 0 -6.07,3.84 16.1,16.1 0 0 0 -3.74,5.56 17.51,17.51 0 0 0 -1.28,6.6 14.39,14.39 0 0 0 1.72,7.36 16.12,16.12 0 0 0 4.49,5 26.75,26.75 0 0 0 6.38,3.35 c 2.4,0.89 4.83,1.74 7.31,2.56 2.48,0.82 4.9,1.68 7.3,2.59 a 25.63,25.63 0 0 1 6.38,3.46 16.46,16.46 0 0 1 4.49,5.18 15.6,15.6 0 0 1 1.72,7.71 24,24 0 0 1 -1.58,8.75 20.48,20.48 0 0 1 -4.58,7.09 21.58,21.58 0 0 1 -7.36,4.77 26.55,26.55 0 0 1 -9.92,1.74 32.19,32.19 0 0 1 -6.92,-0.68 24,24 0 0 1 -5.59,-2 23.37,23.37 0 0 1 -4.66,-3.11 36.79,36.79 0 0 1 -4.09,-4.17 l 0.22,-0.22 a 1.72,1.72 0 0 1 0.28,-0.24 0.59,0.59 0 0 1 0.38,-0.09 c 0.22,0 0.53,0.23 0.95,0.69 0.42,0.46 1,1 1.72,1.74 a 32.53,32.53 0 0 0 2.61,2.26 20.93,20.93 0 0 0 3.71,2.27 24.89,24.89 0 0 0 5,1.74 27.43,27.43 0 0 0 6.4,0.68 24.56,24.56 0 0 0 9.41,-1.69 21,21 0 0 0 7,-4.55 19.29,19.29 0 0 0 4.36,-6.68 22,22 0 0 0 1.5,-8.12 15.81,15.81 0 0 0 -1.11,-6.21 13.93,13.93 0 0 0 -3,-4.5 18.73,18.73 0 0 0 -4.44,-3.22 44.93,44.93 0 0 0 -5.43,-2.4 c -1.92,-0.7 -3.88,-1.36 -5.88,-2 -2,-0.64 -4,-1.26 -5.89,-2 a 40.76,40.76 0 0 1 -5.42,-2.48 18.22,18.22 0 0 1 -4.45,-3.38 14.63,14.63 0 0 1 -3,-4.74 17.12,17.12 0 0 1 -1.12,-6.51 18.61,18.61 0 0 1 1.36,-7 17.47,17.47 0 0 1 4,-5.91 19.35,19.35 0 0 1 6.46,-4.09 23.68,23.68 0 0 1 8.81,-1.53 25.16,25.16 0 0 1 9.83,1.8 24,24 0 0 1 8,5.73 z"
     id="path1334"
     style="stroke-width:2;stroke-miterlimit:4;stroke-dasharray:none" />
  <path
     class="cls-2"
     d="m 172.41,273.58491 v 32.43 h -1.3 v -32.43 l -28.46,-43.88 h 1.09 a 0.87,0.87 0 0 1 0.77,0.43 l 25.64,39.82 c 0.29,0.48 0.57,0.92 0.84,1.34 a 11.77,11.77 0 0 1 0.74,1.28 6.76,6.76 0 0 1 0.71,-1.28 c 0.29,-0.42 0.58,-0.86 0.87,-1.34 l 25.67,-39.79 a 0.87,0.87 0 0 1 0.77,-0.43 h 1.09 z"
     id="path1336"
     style="stroke-width:2;stroke-miterlimit:4;stroke-dasharray:none" />
  <path
     class="cls-2"
     d="m 217.3,230.13491 54,73.53 a 2.62,2.62 0 0 1 -0.06,-0.57 v -73.39 h 1.09 v 76.31 h -0.32 a 0.76,0.76 0 0 1 -0.6,-0.38 l -54.3,-73.86 a 3.74,3.74 0 0 1 0.06,0.68 v 73.56 h -1.09 v -76.31 h 0.43 a 0.86,0.86 0 0 1 0.79,0.43 z"
     id="path1338"
     style="stroke-width:2;stroke-miterlimit:4;stroke-dasharray:none" />
  <path
     class="cls-2"
     d="m 355.41,295.71491 a 0.53,0.53 0 0 1 0.39,0.16 l 0.49,0.44 a 40.62,40.62 0 0 1 -5.16,4.27 32.08,32.08 0 0 1 -6,3.33 37.14,37.14 0 0 1 -7.19,2.18 43.83,43.83 0 0 1 -8.67,0.79 36.5,36.5 0 0 1 -14.17,-2.7 32,32 0 0 1 -11.23,-7.77 35.55,35.55 0 0 1 -7.39,-12.29 47.1,47.1 0 0 1 -2.64,-16.27 45.86,45.86 0 0 1 2.63,-15.9 35.81,35.81 0 0 1 7.47,-12.35 33.12,33.12 0 0 1 11.56,-8 38.19,38.19 0 0 1 14.85,-2.81 46.86,46.86 0 0 1 7.47,0.55 31.41,31.41 0 0 1 6.21,1.66 29.52,29.52 0 0 1 5.48,2.81 55.43,55.43 0 0 1 5.26,3.92 l -0.16,0.28 a 0.63,0.63 0 0 1 -0.49,0.27 2.09,2.09 0 0 1 -1.18,-0.63 c -0.49,-0.42 -1.14,-0.93 -2,-1.55 -0.86,-0.62 -1.82,-1.29 -3,-2 a 26,26 0 0 0 -4.31,-2 37.58,37.58 0 0 0 -5.81,-1.55 40.06,40.06 0 0 0 -7.49,-0.63 37.21,37.21 0 0 0 -14.2,2.65 31.59,31.59 0 0 0 -11.12,7.57 35,35 0 0 0 -7.28,12 45,45 0 0 0 -2.61,15.75 45.75,45.75 0 0 0 2.59,15.92 34.86,34.86 0 0 0 7.16,11.94 30.73,30.73 0 0 0 10.82,7.49 35,35 0 0 0 13.55,2.59 47.81,47.81 0 0 0 8.28,-0.65 32.24,32.24 0 0 0 6.68,-1.91 29.05,29.05 0 0 0 5.62,-3.08 54.13,54.13 0 0 0 5.15,-4.17 c 0.2,-0.22 0.34,-0.31 0.44,-0.31 z"
     id="path1340"
     style="stroke-width:2;stroke-miterlimit:4;stroke-dasharray:none" />
  <circle
     class="cls-6"
     cx="197.7"
     cy="127.76491"
     r="5.4499998"
     id="circle1342" />
  <circle
     class="cls-6"
     cx="157.73001"
     cy="101.59491"
     r="5.4499998"
     id="circle1344" />
  <circle
     class="cls-6"
     cx="225.32001"
     cy="138.66492"
     r="5.4499998"
     id="circle1346" />
  <circle
     class="cls-6"
     cx="257.30002"
     cy="98.694916"
     r="5.4499998"
     id="circle1348" />
  <circle
     class="cls-6"
     cx="327.80002"
     cy="98.694916"
     r="5.4499998"
     id="circle1350" />
  <circle
     class="cls-6"
     cx="264.57001"
     cy="136.48491"
     r="5.4499998"
     id="circle1352" />
  <circle
     class="cls-6"
     cx="130.84"
     cy="174.27492"
     r="5.4499998"
     id="circle1354" />
  <circle
     class="cls-6"
     cx="130.84"
     cy="234.59492"
     r="5.4499998"
     id="circle1356" />
  <circle
     class="cls-6"
     cx="306.72"
     cy="298.55493"
     r="5.4499998"
     id="circle1358" />
  <circle
     class="cls-6"
     cx="270.38"
     cy="301.46494"
     r="5.4499998"
     id="circle1360" />
  <circle
     class="cls-6"
     cx="218.78"
     cy="231.6949"
     r="5.4499998"
     id="circle1362" />
  <circle
     class="cls-6"
     cx="171.54001"
     cy="270.93494"
     r="5.4499998"
     id="circle1364" />
</svg>
