<svg xmlns="http://www.w3.org/2000/svg" viewBox="0 0 500 500"><defs><style>.cls-1{fill:#fff;}.cls-2{fill:#1faaad;}.cls-3{fill:#92e7e8;}.cls-4,.cls-5{fill:none;stroke-linecap:round;stroke-linejoin:round;}.cls-4{stroke:#1faaad;}.cls-5{stroke:#92e7e8;}.cls-6{fill:#ea526f;stroke:#fff;stroke-miterlimit:10;stroke-width:3px;}</style></defs><g id="Layer_3" data-name="Layer 3"><rect class="cls-1" width="500" height="500"/></g><g id="Layer_2" data-name="Layer 2"><circle class="cls-2" cx="53.18" cy="248.57" r="22.59"/><circle class="cls-3" cx="446" cy="248.57" r="22.59"/><path class="cls-4" d="M52.93,214.78C68.78,122.06,145.16,53.4,241.78,50.17c74-2.48,135.18,32.19,168.38,83"/><path class="cls-4" d="M415.69,141.66c4.2,7.3,9.89,18.27,12.76,24.39"/><path class="cls-4" d="M432.81,175.85a77.13,77.13,0,0,1,5.77,18.59"/><path class="cls-5" d="M443.82,280.66c-15,92.87-90.68,162.27-187.26,166.43-74,3.2-135.48-30.88-169.17-81.39"/><path class="cls-5" d="M81.78,357.29C77.5,350,71.71,339.11,68.78,333"/><path class="cls-5" d="M64.33,323.27a77.42,77.42,0,0,1-6-18.54"/><circle class="cls-6" cx="384.01" cy="279.73" r="5.45"/><path class="cls-2" d="M131.58,142.93h1a.66.66,0,0,1,.66.54l22.29,71.24c.18.51.34,1,.47,1.45s.24.93.35,1.44c.11-.51.23-1,.35-1.44s.29-.94.47-1.45L182,143.47a.65.65,0,0,1,.65-.54h.33a.64.64,0,0,1,.65.54l24.81,71.24a18.5,18.5,0,0,1,.81,2.89,17.27,17.27,0,0,1,.82-2.89l22.29-71.24a.73.73,0,0,1,.77-.54H234l-24.2,76.31h-1.09L183.26,146c-.22-.69-.38-1.26-.49-1.69-.11.43-.28,1-.49,1.69l-25.4,73.26h-1.1Z"/><path class="cls-2" d="M251.61,219.24H250.3V142.93h1.31Z"/><path class="cls-2" d="M283.44,179.77h5.13c.69,0,1.27,0,1.74-.05a5.38,5.38,0,0,0,1.28-.25,4,4,0,0,0,1.12-.57,12.14,12.14,0,0,0,1.2-1l35.54-34.12a5.34,5.34,0,0,1,1-.68,2.14,2.14,0,0,1,1-.19h.66L295,178.47a9.77,9.77,0,0,1-1.55,1.22,5.84,5.84,0,0,1-1.72.63,5,5,0,0,1,1.72.6,7.34,7.34,0,0,1,1.44,1.14l39.36,37.18h-.55a3,3,0,0,1-1.17-.17,2.53,2.53,0,0,1-.79-.6L294.24,183c-.55-.5-1-.9-1.42-1.2a5.06,5.06,0,0,0-1.2-.65,4.91,4.91,0,0,0-1.31-.27q-.71-.06-1.74-.06h-5.13v38.38h-1.3V142.82h1.3Z"/><path class="cls-2" d="M353.43,219.24h-1.31V142.93h1.31Z"/><path class="cls-2" d="M157.86,280.72a.79.79,0,0,1-.6.33c-.33,0-.83-.37-1.5-1.12a16.8,16.8,0,0,0-2.95-2.42,23.59,23.59,0,0,0-5-2.43,25.49,25.49,0,0,0-16,.33,18.11,18.11,0,0,0-6.07,3.84,16.1,16.1,0,0,0-3.74,5.56,17.51,17.51,0,0,0-1.28,6.6,14.39,14.39,0,0,0,1.72,7.36,16.12,16.12,0,0,0,4.49,5,26.75,26.75,0,0,0,6.38,3.35c2.4.89,4.83,1.74,7.31,2.56s4.9,1.68,7.3,2.59a25.63,25.63,0,0,1,6.38,3.46,16.46,16.46,0,0,1,4.49,5.18,15.6,15.6,0,0,1,1.72,7.71,24,24,0,0,1-1.58,8.75,20.48,20.48,0,0,1-4.58,7.09,21.58,21.58,0,0,1-7.36,4.77,26.55,26.55,0,0,1-9.92,1.74,32.19,32.19,0,0,1-6.92-.68,24,24,0,0,1-5.59-2,23.37,23.37,0,0,1-4.66-3.11,36.79,36.79,0,0,1-4.09-4.17l.22-.22a1.72,1.72,0,0,1,.28-.24.59.59,0,0,1,.38-.09c.22,0,.53.23.95.69s1,1,1.72,1.74a32.53,32.53,0,0,0,2.61,2.26,20.93,20.93,0,0,0,3.71,2.27,24.89,24.89,0,0,0,5,1.74,27.43,27.43,0,0,0,6.4.68,24.56,24.56,0,0,0,9.41-1.69,21,21,0,0,0,7-4.55,19.29,19.29,0,0,0,4.36-6.68,22,22,0,0,0,1.5-8.12,15.81,15.81,0,0,0-1.11-6.21,13.93,13.93,0,0,0-3-4.5,18.73,18.73,0,0,0-4.44-3.22,44.93,44.93,0,0,0-5.43-2.4c-1.92-.7-3.88-1.36-5.88-2s-4-1.26-5.89-2a40.76,40.76,0,0,1-5.42-2.48,18.22,18.22,0,0,1-4.45-3.38,14.63,14.63,0,0,1-3-4.74,17.12,17.12,0,0,1-1.12-6.51,18.61,18.61,0,0,1,1.36-7,17.47,17.47,0,0,1,4-5.91,19.35,19.35,0,0,1,6.46-4.09,23.68,23.68,0,0,1,8.81-1.53,25.16,25.16,0,0,1,9.83,1.8,24,24,0,0,1,8,5.73Z"/><path class="cls-2" d="M198,317.63v32.43h-1.3V317.63l-28.46-43.88h1.09a.87.87,0,0,1,.77.43L195.74,314c.29.48.57.92.84,1.34a11.77,11.77,0,0,1,.74,1.28,6.76,6.76,0,0,1,.71-1.28c.29-.42.58-.86.87-1.34l25.67-39.79a.87.87,0,0,1,.77-.43h1.09Z"/><path class="cls-2" d="M242.89,274.18l54,73.53a2.62,2.62,0,0,1-.06-.57V273.75h1.09v76.31h-.32a.76.76,0,0,1-.6-.38l-54.3-73.86a3.74,3.74,0,0,1,.06.68v73.56h-1.09V273.75h.43A.86.86,0,0,1,242.89,274.18Z"/><path class="cls-2" d="M381,339.76a.53.53,0,0,1,.39.16l.49.44a40.62,40.62,0,0,1-5.16,4.27,32.08,32.08,0,0,1-6,3.33,37.14,37.14,0,0,1-7.19,2.18,43.83,43.83,0,0,1-8.67.79,36.5,36.5,0,0,1-14.17-2.7,32,32,0,0,1-11.23-7.77,35.55,35.55,0,0,1-7.39-12.29,47.1,47.1,0,0,1-2.64-16.27A45.86,45.86,0,0,1,322.06,296a35.81,35.81,0,0,1,7.47-12.35,33.12,33.12,0,0,1,11.56-8,38.19,38.19,0,0,1,14.85-2.81,46.86,46.86,0,0,1,7.47.55,31.41,31.41,0,0,1,6.21,1.66,29.52,29.52,0,0,1,5.48,2.81,55.43,55.43,0,0,1,5.26,3.92l-.16.28a.63.63,0,0,1-.49.27,2.09,2.09,0,0,1-1.18-.63c-.49-.42-1.14-.93-2-1.55s-1.82-1.29-3-2a26,26,0,0,0-4.31-2,37.58,37.58,0,0,0-5.81-1.55,40.06,40.06,0,0,0-7.49-.63,37.21,37.21,0,0,0-14.2,2.65,31.59,31.59,0,0,0-11.12,7.57,35,35,0,0,0-7.28,12,45,45,0,0,0-2.61,15.75,45.75,45.75,0,0,0,2.59,15.92,34.86,34.86,0,0,0,7.16,11.94,30.73,30.73,0,0,0,10.82,7.49,35,35,0,0,0,13.55,2.59,47.81,47.81,0,0,0,8.28-.65,32.24,32.24,0,0,0,6.68-1.91,29.05,29.05,0,0,0,5.62-3.08,54.13,54.13,0,0,0,5.15-4.17C380.76,339.85,380.9,339.76,381,339.76Z"/><circle class="cls-6" cx="223.29" cy="171.81" r="5.45"/><circle class="cls-6" cx="183.32" cy="145.64" r="5.45"/><circle class="cls-6" cx="250.91" cy="182.71" r="5.45"/><circle class="cls-6" cx="282.89" cy="142.74" r="5.45"/><circle class="cls-6" cx="353.39" cy="142.74" r="5.45"/><circle class="cls-6" cx="290.16" cy="180.53" r="5.45"/><circle class="cls-6" cx="156.43" cy="218.32" r="5.45"/><circle class="cls-6" cx="156.43" cy="278.64" r="5.45"/><circle class="cls-6" cx="332.31" cy="342.6" r="5.45"/><circle class="cls-6" cx="295.97" cy="345.51" r="5.45"/><circle class="cls-6" cx="244.37" cy="275.74" r="5.45"/><circle class="cls-6" cx="197.13" cy="314.98" r="5.45"/></g></svg>