<?xml version="1.0" encoding="utf-8"?>
<!-- Generator: Adobe Illustrator 23.1.1, SVG Export Plug-In . SVG Version: 6.00 Build 0)  -->
<svg version="1.1" id="DNA" xmlns="http://www.w3.org/2000/svg" xmlns:xlink="http://www.w3.org/1999/xlink" x="0px" y="0px"
	 viewBox="0 0 529.9 404.8" style="enable-background:new 0 0 529.9 404.8;" xml:space="preserve">
<style type="text/css">
	.st0{fill:#319966;}
	.st1{fill:#E7404A;}
	.st2{fill:#EFCE2B;}
	.st3{fill:#45C4DE;}
</style>
<path class="st0" d="M4.2,289.9c0,0,20.4,0,31.1-1.6c34.3-5,60.8-19.6,91.5-50.4l7.4-7.4l-5-5.1l-5-5.1l-8.2,8.1
	c-32.3,31.9-59.5,44.9-96.9,46.6c-5.4,0.3-14.8,0.8-14.8,0.8L4.2,289.9z"/>
<path class="st0" d="M376.9,212.3l4.6-4.8c2.6-2.6,4.7-5.2,4.7-5.6c0-0.9-15.6-16-22.9-22.2c-24-20.4-46.5-31-75.7-35.6
	c-10.5-1.7-36.4-1.7-47,0c-29,4.6-51.7,15.2-75.7,35.6c-7.2,6.2-22.9,21.3-22.9,22.2c0,0.4,2.1,2.9,4.7,5.6l4.7,4.8l6.5-6.4
	c3.6-3.5,9.3-8.8,12.5-11.7c21.1-18.7,40.7-29.1,64-33.9c34.5-7,71-1.5,98,14.9c11.6,7.1,21.2,14.8,35.5,28.5L376.9,212.3z"/>
<path class="st0" d="M524,276c0,0-9.3-0.6-14.7-0.8c-37.5-1.7-64.6-14.8-97-46.6l-8.2-8.1l-5.1,5.2l-5,5.1l8.4,8.3
	c26,25.8,47.7,39.1,74.2,46c16.1,4.2,47.4,4.9,47.4,4.9L524,276z"/>
<path class="st0" d="M367,249.8c3.3-2.8,16.6-16.1,29.7-29.5s26.8-26.8,30.4-29.8c25.8-21.6,50.7-31.5,82.5-33l14.5-0.8v-13.8
	c-5-0.4-10-0.4-15-0.1c-31.1,1.5-57.2,10.7-81.4,28.7c-10.6,7.9-17.5,14.4-40.7,38.1c-29.7,30.3-38.7,38.2-54.4,47.8
	c-27,16.4-63.5,22-98,14.9c-23.2-4.8-42.5-15-64-33.9c-3.2-2.9-16.5-15.9-29.4-29.1c-22.9-23.4-29.8-29.9-40.4-37.8
	c-24.1-18.1-50.3-27.3-81.4-28.7c-5-0.3-10-0.3-15-0.1l-0.1,14.5c0,0,4.5-0.2,14.8,0.3c31.5,1.5,56.5,11.4,82.3,33
	c3.6,3,16.5,15.7,28.7,28.1c24.4,25,29.4,29.9,39.2,37.8c23.8,19.3,48.6,29.7,78.3,32.9c8.4,0.9,32.6,0.3,40.8-0.9
	C317.9,283.8,341.6,272.1,367,249.8z"/>
<path class="st1" d="M180.6,192.3l-3.9,3.5l-3.9,3.5v17l-0.1,17.1l3.8,3.5c1.3,1.3,2.7,2.5,4.2,3.5c0.2,0,0.3-0.8,0.2-1.8
	s-0.1-11.8-0.2-24L180.6,192.3z"/>
<path class="st1" d="M277.8,163v106.6l3.4-0.5c1.3-0.1,2.6-0.4,3.9-0.8c0.7-0.5,0.7-103.6,0-104c-1.3-0.4-2.6-0.7-3.9-0.8L277.8,163
	z"/>
<path class="st1" d="M433.5,191.8l-3.6,3v21.4l-0.1,21.3l3.5,3c1.2,1.2,2.5,2.2,4,3c0.5,0,0.6-9.3,0.5-27
	c-0.1-14.9-0.3-27.1-0.5-27.3S435.5,190.3,433.5,191.8z"/>
<path class="st1" d="M27.8,163.6c-0.5-0.1-2.2-0.3-3.9-0.5l-3.1-0.3V270l3.1-0.3c1.7-0.2,3.5-0.4,3.9-0.5
	C29,268.7,29,164,27.8,163.6z"/>
<path class="st2" d="M211.9,172.9l-3.6,1.5v83.9l3.6,1.5l3.6,1.5l0.2-22.5c0.1-12.3,0.1-32.6,0-45l-0.2-22.5L211.9,172.9z"/>
<path class="st2" d="M312.4,171.2v90.2l2.5-1.1c1.3-0.6,3.1-1.3,3.9-1.7l1.4-0.6v-83.6l-1.4-0.6c-0.9-0.3-2.6-1.1-3.9-1.7
	L312.4,171.2z"/>
<path class="st2" d="M465.1,172.5l0.1,44l0.2,43.9l2.9,1.2c1.2,0.5,2.5,0.9,3.8,1.1c0.6,0.1,0.8-9.7,0.8-46.5v-46.4l-1.8,0.5
	c-1.3,0.4-2.6,0.8-3.9,1.3L465.1,172.5z"/>
<path class="st2" d="M63.2,260.2v-87.7l-2.1-0.9c-1.3-0.5-2.6-1-3.9-1.3l-1.8-0.5V263l1.8-0.5c1.3-0.4,2.6-0.8,3.9-1.3L63.2,260.2z"
	/>
<path class="st3" d="M242.7,216.7l0.2,51.8l2,0.4c1.2,0.3,2.5,0.5,3.8,0.5l1.8,0.1V163l-3.4,0.5c-1.4,0.1-2.7,0.5-4,1
	C242.8,164.8,242.6,188.3,242.7,216.7z"/>
<path class="st3" d="M347.7,192.3v48.1l3.9-3.5l3.9-3.5v-34.1l-2.1-2c-1.2-1.1-2.9-2.7-3.9-3.5L347.7,192.3z"/>
<path class="st3" d="M499.8,216.5l0.2,52.6l3.3,0.4c1.8,0.2,3.5,0.5,3.8,0.5s0.5-24,0.5-53.5v-53.7l-3.1,0.3c-1.8,0.2-3.5,0.4-4,0.5
	C499.8,163.8,499.7,174.7,499.8,216.5z"/>
<path class="st3" d="M94.8,192c-1.2-1.1-2.5-2-3.9-2.9c-0.2,0-0.4,12.3-0.5,27.2c-0.1,15.7,0.1,27.2,0.4,27.2c1.5-0.8,2.8-1.9,4.1-3
	l3.5-3l-0.1-21.3v-21.4L94.8,192z"/>
<rect x="27.6" y="83.8" width="474.7" height="14.2"/>
<polygon points="353.3,112.1 176.6,112.1 0,112.1 0,126.2 176.6,126.2 353.3,126.2 529.9,126.2 529.9,112.1 "/>
<polygon points="353.3,305 176.6,305 0,305 0,326.3 176.6,326.3 353.3,326.3 529.9,326.3 529.9,305 "/>
<path d="M426.7,55.4C389.2,21.2,329.7-0.6,263,0c-64.9,0.6-122.6,22.2-159.8,55.4H426.7z"/>
<rect x="103.2" y="55.4" width="323.5" height="14.2"/>
<rect x="179" y="97.5" width="7.5" height="15"/>
<rect x="36" y="97.6" width="7.5" height="15"/>
<rect x="68.5" y="97.5" width="7.5" height="15"/>
<rect x="101.6" y="97.5" width="7.5" height="15"/>
<rect x="212.2" y="97.7" width="7.5" height="15"/>
<rect x="244.7" y="96.9" width="7.5" height="15"/>
<rect x="277.8" y="97.5" width="7.5" height="15"/>
<rect x="310.3" y="97.3" width="7.5" height="15"/>
<rect x="343.4" y="97.4" width="7.5" height="15"/>
<rect x="420.8" y="97.5" width="7.5" height="15"/>
<rect x="453.9" y="97.6" width="7.5" height="15"/>
<rect x="486.5" y="97.6" width="7.5" height="15"/>
<rect x="140.3" y="97.5" width="7.5" height="15"/>
<rect x="382.1" y="97.5" width="7.5" height="15"/>
<path class="st0" d="M43.5,353.2c0-2.4,2-4.3,4.6-4.3c2.7,0,4.6,1.8,4.6,4.2c0,2.5-1.9,4.5-4.6,4.5
	C45.5,357.6,43.5,355.7,43.5,353.2z"/>
<rect x="44.5" y="362.7" class="st0" width="7.2" height="30.9"/>
<path class="st0" d="M89.6,372.9h7.1v16.2c-4.2,3.4-10.1,5.2-15.9,5.2c-12.6,0-21.8-8.8-21.8-20.9s9.3-20.9,22-20.9
	c6.8,0,12.5,2.3,16.3,6.6l-4.8,4.6c-3.2-3.2-6.8-4.6-11.2-4.6c-8.6,0-14.7,5.9-14.7,14.3c0,8.2,6.1,14.3,14.7,14.3
	c2.9,0,5.7-0.6,8.3-2.1V372.9z"/>
<polygon class="st0" points="137.1,387.3 137.1,393.6 106.7,393.6 106.7,353.1 136.3,353.1 136.3,359.4 114.2,359.4 114.2,369.9 
	133.8,369.9 133.8,376.1 114.2,376.1 114.2,387.3 "/>
<polygon class="st0" points="182.7,393.6 182.7,366.7 169.4,389 166,389 152.7,367.1 152.7,393.6 145.5,393.6 145.5,353.1 
	151.7,353.1 167.8,380 183.6,353.1 189.8,353.1 189.9,393.6 "/>
<path d="M252.9,382.6c0,7-5.4,11-15.9,11h-20.2v-40.6h19c9.7,0,15,4.1,15,10.5c0,4.2-2.1,7.2-5.2,8.9
	C249.9,373.9,252.9,377.3,252.9,382.6z M224.3,359v11.2H235c5.2,0,8.2-1.9,8.2-5.6c0-3.8-3-5.6-8.2-5.6H224.3z M245.3,381.9
	c0-4.1-3.1-5.9-8.8-5.9h-12.2v11.7h12.2C242.2,387.7,245.3,385.9,245.3,381.9z"/>
<path d="M260.9,353.1h7.5v40.6h-7.5V353.1z"/>
<path d="M287.6,359.4h-13.4v-6.4h34.4v6.4h-13.4v34.2h-7.5V359.4z"/>
<path d="M310.4,389.3l2.6-5.9c3.2,2.6,8.4,4.5,13.4,4.5c6.3,0,9-2.3,9-5.3c0-8.8-24.1-3-24.1-18.1c0-6.5,5.2-12.1,16.3-12.1
	c4.9,0,10,1.3,13.5,3.6l-2.4,5.9c-3.7-2.1-7.6-3.2-11.2-3.2c-6.3,0-8.8,2.4-8.8,5.5c0,8.6,24.1,3,24.1,17.9
	c0,6.5-5.3,12.1-16.4,12.1C320.1,394.2,313.8,392.2,310.4,389.3z"/>
<path d="M394,372.9h7.1v16.2c-4.2,3.4-10.1,5.2-15.9,5.2c-12.6,0-21.8-8.8-21.8-20.9s9.3-20.9,22-20.9c6.8,0,12.5,2.3,16.3,6.6
	l-4.8,4.6c-3.2-3.2-6.8-4.6-11.2-4.6c-8.6,0-14.7,5.9-14.7,14.3c0,8.2,6.1,14.3,14.7,14.3c2.9,0,5.7-0.6,8.3-2.1V372.9z"/>
<path d="M407.8,378.2c0-9.3,7-15.8,16.5-15.8c9.6,0,16.5,6.5,16.5,15.8s-6.9,15.9-16.5,15.9C414.8,394,407.8,387.4,407.8,378.2z
	 M433.5,378.2c0-5.9-3.9-9.7-9.2-9.7c-5.2,0-9.2,3.8-9.2,9.7s3.9,9.7,9.2,9.7C429.5,387.8,433.5,384.1,433.5,378.2z"/>
<path d="M473.2,375.5v18.1h-6.8v-3.8c-1.7,2.7-5.1,4.2-9.7,4.2c-7.1,0-11.5-3.9-11.5-9.3c0-5.2,3.5-9.2,12.9-9.2h8v-0.5
	c0-4.2-2.5-6.7-7.7-6.7c-3.5,0-7.1,1.2-9.4,3.1l-2.8-5.3c3.3-2.5,8.1-3.8,13.1-3.8C468.1,362.3,473.2,366.6,473.2,375.5z M466,384
	v-3.6h-7.5c-4.9,0-6.3,1.9-6.3,4.1c0,2.6,2.2,4.3,5.9,4.3C461.7,388.8,464.8,387.1,466,384z"/>
</svg>
