<svg xmlns="http://www.w3.org/2000/svg" xmlns:xlink="http://www.w3.org/1999/xlink" viewBox="0 0 3005.8 2000"><defs><style>.cls-1{fill:#f7a9c9;}.cls-2{fill:#187a7a;}.cls-3{fill:#1faaad;}.cls-4{fill:url(#linear-gradient);}.cls-5{fill:#25ced1;}.cls-6{fill:#ea526f;}.cls-7{fill:#fff;}.cls-8{fill:#92e7e8;}.cls-9{fill:#032624;}.cls-10{fill:#d4fffe;}.cls-11{fill:#5b061b;}.cls-12,.cls-18{fill:#5dc1b9;}.cls-13{fill:#56b2ad;}.cls-14{fill:#704d3f;}.cls-15{fill:#fff3f3;}.cls-16{fill:#434343;}.cls-17{fill:#32a095;}.cls-18,.cls-24{opacity:0.34;}.cls-19{fill:#4c2e23;}.cls-20{fill:#d6ad9d;}.cls-21{fill:#3a3f47;}.cls-22{fill:#ad7e6f;}.cls-23{fill:#60c6c3;}.cls-25{fill:#325655;}.cls-26{fill:#ffd5c5;}.cls-27{fill:#754836;}.cls-28{fill:#106658;}.cls-29{fill:#ffdcec;}.cls-30{fill:#593526;}.cls-31{fill:#3d1f14;}</style><linearGradient id="linear-gradient" x1="678.51" y1="893.88" x2="1900.77" y2="893.88" gradientUnits="userSpaceOnUse"><stop offset="0" stop-color="#f7a9c9"/><stop offset="1" stop-color="#f7a9c9"/></linearGradient></defs><g id="bg"><rect class="cls-1" width="3005.8" height="2000"/></g><g id="Layer_2" data-name="Layer 2"><polygon class="cls-2" points="2704.44 1594.57 2463.94 1381.4 2463.94 1500.13 2434.47 1500.13 2201.83 1500.13 830.89 1500.13 830.89 1690.9 2348.49 1690.9 2434.47 1690.9 2463.94 1690.9 2463.94 1807.73 2704.44 1594.57"/><circle class="cls-3" cx="1289.64" cy="893.88" r="794.52"/><circle class="cls-4" cx="1289.64" cy="893.88" r="611.13"/><path class="cls-5" d="M2341.31,265.18l-165.14,35.6,76.45,150.64,27.21-57.13C2402.1,452.52,2454.2,599.36,2396,721.63S2190.91,896,2068.64,837.77s-174.37-205.06-116.15-327.33l-72-34.28c-77.12,162-8.11,356.47,153.85,433.59s356.47,8.12,433.6-153.84,8.11-356.47-153.85-433.6Z"/><rect class="cls-2" x="326.55" y="1497.72" width="989.68" height="187.34"/><rect class="cls-2" x="701" y="1497.72" width="1177.28" height="187.34"/></g><g id="Layer_3" data-name="Layer 3"><rect class="cls-6" x="2134.75" y="996.35" width="100.11" height="7.02" transform="translate(4369.62 1999.72) rotate(180)"/><rect class="cls-6" x="2134.75" y="1009.58" width="100.11" height="29.5" transform="translate(4369.62 2048.65) rotate(180)"/><rect class="cls-6" x="2087.73" y="1049" width="59.06" height="4.41" transform="translate(4234.52 2102.4) rotate(180)"/><rect class="cls-6" x="2087.73" y="1055.33" width="59.06" height="11.94" transform="translate(4234.52 2122.61) rotate(180)"/><rect class="cls-6" x="2117.67" y="951.29" width="4.41" height="82.66" transform="translate(4239.75 1985.25) rotate(180)"/><rect class="cls-7" x="852.1" y="662.61" width="191.27" height="19.58"/><rect class="cls-7" x="1096.9" y="810.08" width="138.1" height="19.58"/><rect class="cls-7" x="1366.25" y="810.08" width="221.26" height="19.58"/><rect class="cls-7" x="854.27" y="1106.65" width="142.17" height="19.58"/><rect class="cls-7" x="1236.29" y="1254.66" width="142.17" height="19.58"/><rect class="cls-7" x="1457.89" y="662.61" width="63.32" height="19.58"/><rect class="cls-7" x="1252.91" y="883.81" width="63.32" height="19.58"/><rect class="cls-7" x="1052.45" y="1254.66" width="86.79" height="19.58"/><rect class="cls-7" x="1378.47" y="1328.39" width="264.38" height="19.58"/><rect class="cls-7" x="854.27" y="1328.39" width="94.85" height="19.58"/><rect class="cls-7" x="1012.69" y="957.55" width="58.01" height="19.58"/><rect class="cls-5" x="1256.51" y="810.08" width="91.64" height="19.58"/><rect class="cls-5" x="1443.73" y="1402.13" width="91.64" height="19.58"/><rect class="cls-5" x="854.27" y="1180.92" width="91.64" height="19.58"/><rect class="cls-5" x="1104.68" y="1032.37" width="179.89" height="19.58"/><rect class="cls-5" x="854.27" y="1254.66" width="171.96" height="19.58"/><rect class="cls-5" x="1080.58" y="883.81" width="135.78" height="19.58"/><rect class="cls-5" x="1080.58" y="662.61" width="135.78" height="19.58"/><rect class="cls-5" x="854.27" y="958.09" width="135.78" height="19.58"/><rect class="cls-5" x="1252.91" y="662.61" width="172.99" height="19.58"/><rect class="cls-5" x="961.25" y="1402.13" width="172.99" height="19.58"/><rect class="cls-5" x="1564.46" y="1402.13" width="172.99" height="19.58"/><rect class="cls-5" x="1537.83" y="1254.66" width="172.99" height="19.58"/><rect class="cls-5" x="1489.55" y="883.81" width="172.99" height="19.58"/><rect class="cls-5" x="854.27" y="1032.37" width="80.57" height="19.58"/><rect class="cls-5" x="853.73" y="810.08" width="135.78" height="19.58"/><rect class="cls-5" x="973.8" y="1180.92" width="135.78" height="19.58"/><rect class="cls-5" x="954.67" y="1032.37" width="130.31" height="19.58"/><rect class="cls-5" x="975.48" y="1328.39" width="135.78" height="19.58"/><rect class="cls-5" x="1216.69" y="1328.39" width="135.78" height="19.58"/><rect class="cls-5" x="853.73" y="883.81" width="193.56" height="19.58"/><rect class="cls-5" x="1277.03" y="1402.13" width="135.78" height="19.58"/><rect class="cls-6" x="1098.05" y="958.09" width="76.01" height="19.58"/><rect class="cls-6" x="856.55" y="1402.13" width="76.01" height="19.58"/><rect class="cls-6" x="1166.42" y="1254.66" width="37.29" height="19.58"/><rect class="cls-6" x="1553.85" y="662.61" width="172.99" height="19.58"/><rect class="cls-6" x="1356.46" y="883.81" width="101.43" height="19.58"/><rect class="cls-6" x="1277.03" y="1182.01" width="101.43" height="19.58"/><rect class="cls-6" x="1030.97" y="736.35" width="32.64" height="19.58"/><rect class="cls-6" x="1607.71" y="810.08" width="86.5" height="19.58"/><rect class="cls-6" x="1414.64" y="1254.66" width="86.5" height="19.58"/><rect class="cls-6" x="1162.94" y="1402.13" width="86.5" height="19.58"/><rect class="cls-6" x="1011.71" y="810.08" width="63.32" height="19.58"/><rect class="cls-6" x="1024.33" y="1107.19" width="63.32" height="19.58"/><rect class="cls-8" x="852.1" y="736.35" width="99.06" height="19.58"/><rect class="cls-8" x="1116.41" y="1107.19" width="78.21" height="19.58"/><rect class="cls-8" x="975.48" y="736.35" width="31.99" height="19.58"/><rect class="cls-8" x="1521.21" y="736.35" width="86.5" height="19.58"/><rect class="cls-8" x="1314.28" y="736.35" width="184.04" height="19.58"/><rect class="cls-8" x="1142.97" y="1182.01" width="107.52" height="19.58"/><rect class="cls-8" x="1136.06" y="1328.39" width="53.76" height="19.58"/><rect class="cls-8" x="1224.85" y="736.35" width="63.32" height="19.58"/><rect class="cls-8" x="1090.37" y="736.35" width="110.32" height="19.58"/></g><g id="Layer_4" data-name="Layer 4"><polygon class="cls-9" points="561.16 919.58 504.67 886.97 504.67 908.48 420.69 908.48 420.69 930.69 504.67 930.69 504.67 952.2 561.16 919.58"/><polygon class="cls-9" points="420.69 848.05 477.18 880.66 477.18 859.16 561.16 859.16 561.16 836.94 477.18 836.94 477.18 815.43 420.69 848.05"/><polygon class="cls-9" points="1386.59 454.81 1344.26 430.37 1344.26 446.49 1281.32 446.49 1281.32 463.14 1344.26 463.14 1344.26 479.26 1386.59 454.81"/><polygon class="cls-9" points="1281.32 401.2 1323.65 425.64 1323.65 409.52 1386.59 409.52 1386.59 392.87 1323.65 392.87 1323.65 376.76 1281.32 401.2"/><path class="cls-10" d="M1948.49,1342.79a25.73,25.73,0,0,1-14.87-6,19.29,19.29,0,0,1-7.07-14.73c-.77-11-4.19-22.29-7-30a51.7,51.7,0,1,1,62,1.83c-3.86,10.49-6.18,20.09-6.89,28.55-.13,11.38-11,20.55-24.18,20.47C1949.79,1342.86,1949.14,1342.83,1948.49,1342.79Zm6.85-138.55a47.47,47.47,0,0,0-32.71,84.82l.47.37.21.57c3,8,6.65,20.11,7.47,31.86v.16a15.12,15.12,0,0,0,5.6,11.58,21.84,21.84,0,0,0,14.1,5c10.92.07,19.86-7.27,19.92-16.36v-.16c.75-9,3.23-19.24,7.37-30.37l.23-.63.56-.38a47.47,47.47,0,0,0-23.23-86.5Z"/><polygon class="cls-10" points="1938.91 1325.15 1932.14 1268.81 1943.88 1278.52 1951.17 1270.44 1957.47 1278.02 1968.44 1268.72 1961.77 1325.16 1957.57 1324.66 1962.98 1278.89 1956.94 1284.01 1951.04 1276.9 1944.31 1284.37 1937.6 1278.82 1943.11 1324.65 1938.91 1325.15"/><rect class="cls-10" x="1932.07" y="1337.71" width="36.67" height="14.78" transform="translate(9.07 -13.06) rotate(0.38)"/><rect class="cls-10" x="1926.24" y="1322.61" width="48.47" height="23.79" transform="translate(9 -13.06) rotate(0.38)"/><polygon class="cls-11" points="1718.62 1004.05 1547.72 1004.05 1547.72 1127.92 1547.72 1154.01 1573.81 1127.92 1718.62 1127.92 1718.62 1004.05"/></g><g id="Layer_5" data-name="Layer 5"><path class="cls-12" d="M2075.5,1694.25c-1.08,7.51-46.22,39.12-55.11,45.44-7.14,5.07-13.34,7.4-24.13,11.45h0c-24.51,6.45-178.3,52.33-178.3,52.33a19.32,19.32,0,0,0-1.52-4.67c-5.74,2.29-11.65,3.77-15.4,4.94-5.73,1.79-51.18,3.22-60.48,5s-27.91,4.66-35.43-2.5,4.66-22.55,15-26.48,48.31-5,55.11-5.73,15.75-3.22,20-1.79c1.36.45,7.35-1.31,14.93-3.92-.19-2.79-.24-4.55-.24-4.55l40.38-11.64-7.48-71.49s17.57-66.2,87.76-15.7c0,0,15.66,4.6,21,6a6.42,6.42,0,0,0,1.79,0c10.71-.81,56.72-14.73,73.35-14.73,17.89,0,23.62-1.07,30.06,2.15S2076.57,1686.73,2075.5,1694.25Z"/><path class="cls-12" d="M2003.59,1806.25c-7.51,7.16-26.12,4.29-35.42,2.5s-54.75-3.22-60.48-5-16.46-4.29-24-9.3a24.28,24.28,0,0,0-4-1.76h0l-11.37,8.2-158-50.3c-9.47-2.59-17-6.54-22-10.89-8.23-7.16-54-37.93-55.11-45.44s12.17-32.57,18.61-35.79,12.16-2.15,30.06-2.15,69.77,16.11,75.14,14.68c2.44-.66,7.5-3.23,12.28-5.84,5.74-3.14,11.1-6.33,11.1-6.33,76.85-34.31,85.41,21.83,85.41,21.83l-4.55,69.3s6.4,3.18,14.73,7.13l38.1,10.77-5,3.6c2.15.69,3.68,1,4.3.8,4.29-1.43,13.24,1.08,20,1.79s44.73,1.79,55.1,5.73S2011.11,1799.09,2003.59,1806.25Z"/><path class="cls-13" d="M1769.32,1665.15c5.3.37,41.11,21.11,49.61,26.07C1806,1684.47,1757,1671,1757,1671,1759.48,1670.33,1764.54,1667.76,1769.32,1665.15Z"/><path class="cls-13" d="M1953.49,1671s-61.7,15-73,21.23c.52-.37,32.51-24.68,49.32-27.93,0,0,16.5,5.21,21.87,6.65a6.42,6.42,0,0,0,1.79,0Z"/><path class="cls-14" d="M2003.59,1806.25c-7.51,7.16-26.12,4.29-35.42,2.5s-54.75-3.22-60.48-5c-1.64-.51-3.7-1.08-6-1.76h0c-5.65-1.67-12.64-4-18-7.54a24.28,24.28,0,0,0-4-1.76l28.6-20.64.82-.59c2.15.69,3.68,1,4.3.8,4.29-1.43,13.24,1.08,20,1.79s44.73,1.79,55.1,5.73S2011.11,1799.09,2003.59,1806.25Z"/><path class="cls-11" d="M2003.59,1806.25c-7.51,7.16-26.12,4.29-35.42,2.5s-54.75-3.22-60.48-5c-1.64-.51-3.7-1.08-6-1.76h0s12.51-12.38,6.6-29.94l.82-.59c2.15.69,3.68,1,4.3.8,4.29-1.43,13.24,1.08,20,1.79s44.73,1.79,55.1,5.73S2011.11,1799.09,2003.59,1806.25Z"/><path class="cls-15" d="M1991.82,1597.27c-.59-1.21-33.19-52.48-42-75.86s-30.06-34.12-40.08-37.46c-3.57-1.19-9.94-3.26-16.66-5.43-12.1-3.92-25.32-8.16-25.32-8.16H1826s-14.47,4.84-29.83,10.22h0c-14.16,5-29.06,10.39-34.1,12.91-10.49,5.24-28.15,42.7-31.72,47s-31.1,55.3-35.07,74.91c-3.09,15.22,87.28,59.83,89.75,65.54,2.86-3.17,16-15.79,16-15.79s-4.21-2.66-10.15-6.56c24.21,1.11,83.36-1,91.85-.55a44.25,44.25,0,0,0,5.47-.12h0c2.63,1.91,19.57,16.87,19.57,16.87s41.74-17.33,60.94-36.74C1996,1610.51,1994.83,1603.35,1991.82,1597.27Zm-237.37,33.93c-9-10.74-21.26-17.23-18.16-22s29.34-50.1,29.34-50.1,13.6,29.82,17.42,45.33,3.51,22.6,1.9,27.43c-1.44,4.33-2.6,7.27-3.9,20.15C1770.35,1644.7,1758.55,1636.12,1754.45,1631.2Zm184.58-5.13c-3.51,4-17.39,12.81-29.87,20.07-1-8.65-2.38-22.27-2.54-27.16-.24-7.4,2.86-28.63,6.68-36.74s6.44-30.3,6.44-30.3,31.61,42.94,36.62,47.48S1950.88,1612.61,1939,1626.07Z"/><path class="cls-14" d="M1851.84,1355.61s32.65,5.14,27.67,56.23-33.78,46.89-35.71,46.84-28.93.93-31-61.44C1812.77,1397.24,1811.85,1351.12,1851.84,1355.61Z"/><path class="cls-14" d="M1880,1397.41s3.57-3.82,4.89,0-4.88,21.1-5.1,21.91c0,0-.66,1.5-1.51.67S1880,1397.41,1880,1397.41Z"/><path class="cls-14" d="M1813.65,1396.76s-3.5-3.88-4.89,0,4.42,21.2,4.68,22c0,0,.62,1.52,1.49.71S1813.65,1396.76,1813.65,1396.76Z"/><path class="cls-16" d="M1880,1405.24l-4.67,6.25s.13-13.7-.62-15.85-1.9-8.71-2.52-10.25-28-9.23-52.25,2.24c0,0,1.06,9.85-1.26,10.73s-1.18,16-1.18,16l-3.84-4.34s-5.88-39.3-4.43-43.39,6.08-28.72,55.75-14.11c0,0,15.48-3.28,18.59,7.42S1880,1405.24,1880,1405.24Z"/><path class="cls-17" d="M1803.8,1731.89s-50-30-71.81-34.66c-20.62-4.46-28.15-12.17-28.15-12.17s32.81,0,54.63,15.51C1773.3,1711.1,1803.8,1731.89,1803.8,1731.89Z"/><path class="cls-17" d="M1848.2,1752.77s86.93-45.64,122.42-55.54c20.32-5.67,28.15-12.17,28.15-12.17s-53.74,5.25-86.43,24.93C1896.77,1719.37,1848.2,1752.77,1848.2,1752.77Z"/><path class="cls-14" d="M1816.44,1798.8c-5.74,2.29-11.65,3.77-15.4,4.94-5.73,1.79-51.18,3.22-60.48,5s-27.91,4.66-35.43-2.5,4.66-22.55,15-26.48,48.31-5,55.11-5.73,15.75-3.22,20-1.79c1.36.45,7.35-1.31,14.93-3.92C1810.46,1772.87,1816.44,1798.8,1816.44,1798.8Z"/><path class="cls-12" d="M1848.2,1794.47l85.46-25.29-16.9-5.16S1848.46,1788.78,1848.2,1794.47Z"/><polygon class="cls-12" points="1848.2 1794.47 1888.19 1782.27 1860.46 1798.38 1848.2 1794.47"/><path class="cls-11" d="M1801,1803.74c-5.73,1.79-51.18,3.22-60.48,5s-27.91,4.66-35.43-2.5,4.66-22.55,15-26.48,48.31-5,55.11-5.73,15.75-3.22,20-1.79C1795.31,1772.25,1783.84,1789.79,1801,1803.74Z"/><path class="cls-6" d="M1893.06,1478.52s-13.69,60.15-46.3,60.15-50.61-58.08-50.61-58.08h0c15.36-5.38,29.83-10.22,29.83-10.22h41.75S1881,1474.6,1893.06,1478.52Z"/><path class="cls-9" d="M1772.79,1685.06l-13.17-74.91,170.26-3.93-11,73.71s-54.34,19.89-72.79,31.5C1846.12,1711.43,1799.51,1692.27,1772.79,1685.06Z"/><path class="cls-18" d="M1856.15,1655.33c0,6.19-4.28,11.21-9.55,11.21s-9.54-5-9.54-11.21,4.27-11.22,9.54-11.22S1856.15,1649.13,1856.15,1655.33Z"/><path class="cls-14" d="M1868.16,1470.5a.57.57,0,0,0,0-.14c-2-4.55-1-26.73-1-26.73s-41.59-10.58-40.4-2.49-3.58,30.19-3.58,30.19l-21.33,7.3s22.73,61,48.85,53.16,36-55.36,36-55.36Z"/><path class="cls-19" d="M1826.61,1449.36s7.37,9.42,19,9.42c7.65,0,13.68-2.67,21.3-10.1,0,0-3.85,14.64-21.25,16C1845.66,1464.63,1832.37,1465.46,1826.61,1449.36Z"/><path class="cls-7" d="M1463.28,1723.08s1.78,14.52,4.14,20.93,15.17,21.19,9.76,35.4c-5.87,15.4-31.49.55-41.93-4.15s-8.08-13.22-9.19-23.67-6.21-10.72-4.33-18.07,13.31-21.4,13.31-21.4Z"/><path class="cls-20" d="M1440,1704.52s-6.55,9.18-6.37,9.43,28.09,17.24,30,11.73a56.12,56.12,0,0,0,2.19-10.72Z"/><path class="cls-7" d="M1345.36,1733.35a105.16,105.16,0,0,0-16.16,18.93c-7.65,11.47-28,12.08-28.82,27.74s27.6,16.14,42.55,11,17.2-20.39,26.24-24.21,13.73-6.92,13-14.39-5.7-19.58-5.7-19.58a60.86,60.86,0,0,1-8.91,2.16C1364.29,1735.4,1353.18,1735.53,1345.36,1733.35Z"/><path class="cls-8" d="M1447.8,1309.16s-5.73,34.07-10.35,56.56h0c-1.87,9.12-3.56,16.34-4.61,18.62-1.32,2.86-12.07,14.4-25.23,28-23.09,23.77-53.59,53.7-53.59,53.7l-11.92-22.64s27.09-31.76,45.46-53c8.5-9.8,15.13-17.35,16.35-18.43,3.84-3.44,8.29-37.29,14.56-65.18s18.82-43.3,18.82-43.3Z"/><path class="cls-20" d="M1407.61,1412.3c-23.09,23.77-53.59,53.7-53.59,53.7l-11.92-22.64s27.09-31.76,45.46-53C1393.19,1393.17,1403.53,1399.75,1407.61,1412.3Z"/><path class="cls-20" d="M1346.7,1722.92l-1.34,10.43a51.43,51.43,0,0,0,31.14-.47l.34-9.27Z"/><path class="cls-8" d="M1557.07,1461.4c.85,3-157,0-157,0s43.66-31.78,46.49-40.27-11.12-59.42-12.94-76c-1.45-13.26-5.1-72.59,3.64-81.65,9.14-9.48,42-19.41,42-19.41l48,1.78a75.45,75.45,0,0,1,13.58,4.29c5.66,2.62,38,14.15,43.28,30.32s-32.3,68.15-32.3,68.15-.07,2.34-.18,6.17h0c-.15,5.11-.36,12.87-.56,21.28-.25,10.9-.47,22.9-.47,31.67C1550.64,1428.35,1556.21,1458.36,1557.07,1461.4Z"/><path class="cls-11" d="M1557.07,1461.4s21.46,31.52,21.76,53-38.09,93.61-43.9,103.92c-17.47,31-65.37,97.88-65.37,97.88s-8.26-.21-34-10.21c0,0,31.87-88.34,35.91-97.51,17.13-38.89,26.7-66.48,20.94-73.15s-21.47-13.35-26-17.3-83.77,15-92.07,17.13c-21.49,5.57-11.7,43-6.94,59.73,8,28,14.91,129.35,14.91,129.35s-15.31,6.53-41,1c0,0-50.36-182.9-52-201.09s-2.42-48.19,121.67-71Z"/><path class="cls-20" d="M1492.49,1139.87s-41.64-9.4-32.13,43,19.53,56.52,44.65,45.67,22.87-44.42,24.13-60.88S1505.77,1140.44,1492.49,1139.87Z"/><path class="cls-20" d="M1481.47,1257.53s18.44,19.55,47.59,1.79c0,0-6.52-42.37-3.09-63s-38,32-38,32c.55.28.91,2.25,1,5a56.66,56.66,0,0,1-.43,8.4C1487.64,1248.6,1485.51,1255.85,1481.47,1257.53Z"/><path class="cls-21" d="M1527.12,1194.56s-1.08-16.51-7.11-17-7,6.14-7,6.14l-6.09,1.15s1.93-14.47-4.09-17-39,8-43.85,3.72-2.56-33.6,6.18-37.62,32.88-13,50.57-1.05c0,0,13.79-1.57,15.83,9.56S1530.86,1186.29,1527.12,1194.56Z"/><path class="cls-22" d="M1488.5,1241.74c30.07-9.27,32.33-27.37,32.36-27.66-9.9,17-31.93,19.26-31.93,19.26A56.66,56.66,0,0,1,1488.5,1241.74Z"/><path class="cls-20" d="M1541.36,1250.38s-22,43.83-57.59,41-6.06-46.89-4.44-47.3C1481.1,1243.64,1515.81,1235,1541.36,1250.38Z"/><path class="cls-8" d="M1382.05,1459.18s109,13.43,175,2.22l-126.17-15.77S1430.15,1448.85,1382.05,1459.18Z"/><path class="cls-20" d="M1463.56,1440.67l-8.11,4.11s1.84,12.9,6.29,16.8l9.11-2.32S1469,1445.11,1463.56,1440.67Z"/><path class="cls-8" d="M1589.68,1414.26c-1.62,1.88-23,10.5-47.26,19.82h0c-33.06,12.74-70.37,24.79-70.37,24.79l-8.49-18.2s39.06-21.23,65.46-36.11c12.47-7,22.11-12.65,23.47-14,4.25-4,5.34-10.52,2.22-21.82s-10.3-63.27-11.11-69.33,2-22.23,17.18-23,22.87,3.47,22.87,3.47,3.81,1.58,6.64,38.37S1593.52,1409.81,1589.68,1414.26Z"/><path class="cls-23" d="M1551.67,1354.79h0c-.15,5.11-.36,12.87-.56,21.28-14.79-36.26-6.24-65.2-6.1-65.69C1543.41,1320.22,1551.55,1354.31,1551.67,1354.79Z"/><path class="cls-23" d="M1437.45,1365.72h0c-1.87,9.12-3.56,16.34-4.61,18.62-5-24.46-.5-55.77-.5-55.77C1433,1343.54,1437.45,1365.72,1437.45,1365.72Z"/><path class="cls-20" d="M1542.42,1434.08h0c-33.06,12.74-71.57,25.18-71.57,25.18l-7.29-18.59s39.06-21.23,65.46-36.11C1529,1404.56,1538.62,1409.24,1542.42,1434.08Z"/><polygon class="cls-2" points="1461.21 1460.34 1306.31 1458.06 1384.52 1497.77 1461.21 1460.34"/><polygon class="cls-9" points="1384.52 1497.77 1461.21 1468.07 1461.21 1460.34 1378.45 1490.19 1384.52 1497.77"/><path class="cls-20" d="M1457.2,1445.06s-9.68-1.5-16.37-3.06c-5.17-1.21-18,.46-21.32,3.78s-13.7,26.46-15.67,27.87,1,4.68,4.47,3c0,0,3.18,10.13,11,6.34s13.18-12.07,17.29-13.53,28-8.81,28-8.81S1463.36,1442.6,1457.2,1445.06Z"/><path class="cls-20" d="M1421.87,1444.26s-6.21,3-7.83,4.34-8.2,6.26-9.8,7.42,2.41,4.45,14.17-.64S1421.87,1444.26,1421.87,1444.26Z"/><polygon class="cls-9" points="1384.52 1497.77 1338.44 1371.97 1189.9 1374.39 1233.81 1490.33 1384.52 1497.77"/><g class="cls-24"><path class="cls-12" d="M1290.91,1427.62c4.53,9.06,3.16,18.93-3.06,22.05s-14.94-1.72-19.47-10.78-3.16-18.93,3.06-22S1286.38,1418.56,1290.91,1427.62Z"/></g><path class="cls-20" d="M1513.18,1176.67c.55-4.62,9.69-6.32,10.42.62s-4.15,19.09-7.62,17.89S1512.42,1183.05,1513.18,1176.67Z"/><path class="cls-25" d="M853,1211.33s-5.41,75.88,9.42,85c9.28,5.69,46.31,24.87,45.22,28.47s-20.91,32-20.91,32-71.13-46.84-73.42-61.61c-2.24-14.42,3.5-111.09,13.27-115.55,7.33-3.33,11.19-.57,20.42,6.28C860,1195.51,853,1211.33,853,1211.33Z"/><path class="cls-6" d="M844.76,1763.51s-2.21,15.35-2.49,17.66-24.6-1.36-24.6-1.36l-2-18.28S841.72,1761.34,844.76,1763.51Z"/><path class="cls-9" d="M842.53,1779.21s7.71,9.25,15.17,13.29,19.17,5.63,23.58,9.8c3.18,3,11.59,16-19.38,15.72s-45.89,1.84-49.21-3.14,4.8-36.71,4.8-36.71S824.83,1780.81,842.53,1779.21Z"/><path class="cls-6" d="M966.52,1763.51s-2.21,15.35-2.49,17.66-24.6-1.36-24.6-1.36l-2-18.28S963.48,1761.34,966.52,1763.51Z"/><path class="cls-9" d="M964.29,1779.21s7.71,9.25,15.16,13.29,34.9,7.34,39.3,11.52c3.19,3,8.48,15.14-35.09,14-30.95-.8-45.89,1.84-49.21-3.14s4.8-36.71,4.8-36.71S946.16,1781,964.29,1779.21Z"/><path class="cls-25" d="M853.49,1369s-22.86,36.32-21.15,69.15-2,67.9-5.47,102.2c-3.83,38.23-14.26,117.8-14.83,138.25s.75,97.41.75,97.41l39.65-.3s14.07-155.46,20.89-171.61,34.83-132.94,36-145.86S853.49,1369,853.49,1369Z"/><path class="cls-25" d="M973.83,1373.93s9,89.26,11.3,109.35.72,107.16,1.86,119.72-7.6,145.39-9.76,170.68l-43.58-.27s-3-107.45-3-159.66-13.4-113-28.75-147.43-50.48-35.26-59.91-99.17C842,1367.15,961.05,1353.67,973.83,1373.93Z"/><path class="cls-26" d="M877.64,1062.79s27.24-18.19,46.36,1.29,28.53,65.32,14.8,74.46-37,11.55-48.1-.86-22.87-31.33-25.77-45.16S870.73,1068.61,877.64,1062.79Z"/><path class="cls-26" d="M929.54,1141.63s-.36,19.15,1.75,23.23-39.75,4.18-39.75,4.18-3.4-22.19-9.84-41S929.54,1141.63,929.54,1141.63Z"/><path class="cls-27" d="M882.74,1127.78s3.91,4,15-.52,21.46-23.08,25.86-25.89,3.78-5.63,3.78-5.63l4,3.68,5.16-.88s-7.86-12.57-2.17-19.79-17.69-42.51-51.47-21c0,0-26.44,14.46-21.62,30.3S874.53,1121.27,882.74,1127.78Z"/><path class="cls-7" d="M933.77,1164.37s-.13-7.8-3.66-8.55-39-4.16-43.35-2.45v9.08S895.12,1167.59,933.77,1164.37Z"/><path class="cls-26" d="M925.2,1090.07c-1.28-2.55-10-8.64-10.63.23s8.53,18.42,12,16.61S928.45,1096.52,925.2,1090.07Z"/><path class="cls-25" d="M985.59,1175.17c-25.24-4.44-51.82-10.81-51.82-10.81l-47-1.91s-43.15,9.5-60.15,17.17c-1.61.73-1.62,38.5-6,48.4l14.09,29.73s8.14,58.88,9.83,85.06c.77,12-16.79,112.73-16.79,112.73s18.82,5.54,50.91,9.07,112.26-1.27,112.77-5.06-15.53-141.13-16.24-148.24c-1.09-10.92,3.15-61.35,3.15-61.35,6.05,8.12,34.79,43.43,50.86,60.87,9.45,10.27,44.2,28.09,52.26,31.7,17.42,7.78,45.33,25.64,46.35,23.78.82-1.12,19.56-32.82,17.36-33.55-1.92-.64-60.3-36.34-77-45.18-6.1-3.24-29.84-43.95-29.84-43.95S999.52,1181.43,985.59,1175.17Z"/><path class="cls-27" d="M869.77,1067.48s-39,10.44,11.39,58.8Z"/><path class="cls-26" d="M1167.29,1373.36s-3.43.08-5-.61c0,0-2.66-1.48-4.62-2.41a13.73,13.73,0,0,0-1.54-.66c-1.55-.5-5.1-1.14-8.48-3.38s-14.51-11.38-14.51-11.38l6.11-10.87,2.46-10.53s24.62.84,28,2.57a10.52,10.52,0,0,1,.94.54c2.73,1.75,4,4.19,5.36,5.26.48.4,5,4.69,4.92,6.55a6.13,6.13,0,0,1-2.86,5.21s-.54,5-3,7.46c0,0-.35,4.68-4.23,6.8C1170.92,1367.91,1170,1372.62,1167.29,1373.36Z"/><path class="cls-28" d="M593.93,1117.22c3.82,12.51-1.06,25.08-10.9,28.08s-20.9-4.7-24.72-17.21,1.06-25.08,10.9-28.08S590.12,1104.71,593.93,1117.22Z"/><path class="cls-29" d="M642.12,1184.45s13.91,4.36,21.85,15.28,9.19,26.18,9.54,34,2.49,38,2.49,38l-23.59,6.61Z"/><path class="cls-7" d="M742.09,1790.27s17.7,23.82,15.27,27.6-21,4.31-32.36,0-11.59-32.23-16.71-44.22c-2.15-5,2.44-19.84,8.89-20.92s13.48,2.08,13.48,2.08S724,1771.71,742.09,1790.27Z"/><path class="cls-30" d="M730.78,1754.62a112.42,112.42,0,0,1,5.08,19.83c1.13,8,12.6,25.08,12.06,27.24s-15.1,4.11-21-1.45-9.75-21.74-11-31.41a77.46,77.46,0,0,0-2.76-13.46S725.11,1748.69,730.78,1754.62Z"/><path class="cls-7" d="M588.11,1790.67s17,23.42,14.62,27.2-21,4.31-32.35,0-11.6-32.23-16.72-44.22c-2.15-5,2.44-19.84,8.9-20.92s14,2.31,14,2.31S570,1772.1,588.11,1790.67Z"/><path class="cls-30" d="M576.58,1755a160.86,160.86,0,0,0,3.5,18.88c2.16,7.82,13.75,25.61,13.22,27.77s-15.1,4.11-21-1.45-10.51-21.66-11-31.41a51.8,51.8,0,0,1,1.35-16.1S570.92,1749.11,576.58,1755Z"/><path class="cls-30" d="M661.8,1367.29s15.18,70.63,18.66,88.41,13.25,103.9,14.3,118.54,15.84,69.82,15.14,75,21.94,110.29,21.94,110.29-7.73,6.22-15.88.56c-4.19-2.91-49.66-98.35-49.66-124.5,0-36.15-26.72-83.33-30.17-91.42-32-75.12-25.73-98.09-29.92-103s-4.55,3-7,13.82-7.66,104.25-10.8,116.11-.7,52-2.44,72.17-9.4,111.69-9.4,111.69-5.93,9.29-14.25.24c-1.79-1.94-14.35-101.89-14.7-126s-.72-57.23-1.4-67.64c-6.46-99.69-22.33-113.93,2.67-184.48C595.72,1245.1,661.8,1367.29,661.8,1367.29Z"/><path class="cls-6" d="M559.85,1347.56s-43.25,60.53-24.63,189.29c0,0,102.58,14,157.54-16.14,0,0-22.73-132.76-31-153.42S559.85,1347.56,559.85,1347.56Z"/><polygon class="cls-7" points="707.81 1771.55 707.81 1796.49 711.05 1796.49 711.05 1777.21 707.81 1771.55"/><polygon class="cls-7" points="553.18 1771.55 553.18 1796.49 556.42 1796.49 556.42 1777.21 553.18 1771.55"/><path class="cls-29" d="M617.89,1175.55s18.7,7.8,24.23,8.9,24.24,28.72,28,38.91,0,25.44-7.75,43.37-.44,23.9-4,41.83,7.89,56.15,8.55,66.1-104,11.57-124.62-6.57c0,0,20.69-31,23.34-35.41s.45-28.55-2-34.75S545,1239,545,1239s-13.26-40.47-1.29-49.77c10.41-8.07,38.75-11,43.84-12.72S607.49,1174,617.89,1175.55Z"/><path class="cls-30" d="M625.5,1157.17s-.44,4-1,9.51c-.23,2.45-.47,5.2-.7,8-.65,8-1.18,16.76-.87,21.19,0,0-16.56,16.6-35.39-19.36,0,0,7.93-14.83,2-35S625.5,1157.17,625.5,1157.17Z"/><path class="cls-30" d="M631.14,1065.33s37.13,11.67,17,75.73-70.86-7.42-65.56-46.46S631.14,1065.33,631.14,1065.33Z"/><path class="cls-28" d="M651.91,1102.71s-18.45,18.1-49.32,20.37c0,0-11.86,13.91-12.77,19.37,0,0-32.31-54,6.31-75.1C637,1045,664.35,1091.11,651.91,1102.71Z"/><path class="cls-30" d="M602.35,1122.71c-.24-4.66-3.11-15.27-10-12.3s.42,24.58,5,23.25C597.33,1133.66,602.92,1133.75,602.35,1122.71Z"/><path class="cls-31" d="M624.55,1166.68c-.23,2.45-.47,5.2-.7,8h0c-21.46-10.6-24.75-25.88-24.84-26.36C615.38,1166.7,624.55,1166.68,624.55,1166.68Z"/><path class="cls-30" d="M591.52,1306.62s8.58-5.68,9.91-6.5,6-.56,10.84,1a90.84,90.84,0,0,1,11.41,4.33c.76.43,1.52.57,1.19,2.78a8.42,8.42,0,0,1-1.83,3.9s.88,2.92-1.12,4.86a4.49,4.49,0,0,1-1.94,4.62s.61,2.73-1.41,3.91c0,0-4.38.6-6,.25-2.34-.5-14.6-3.32-23.2-5.58C589.34,1320.15,585.79,1318,591.52,1306.62Z"/><path class="cls-30" d="M621.08,1304.71s22.2,4.88,21.93,6.6c-.39,2.5-5.9,3.42-22.76-1.22C603.86,1305.57,621.08,1304.71,621.08,1304.71Z"/><path class="cls-29" d="M566.35,1185.55c-5-3-21.85-2.71-28.42,13.07s-11.94,33.75-16.54,42-20.26,45.91-15.61,50.43,14.2,9.9,28.58,13.28c14.85,3.49,57.89,19.53,57.89,19.53l5.49-23.31s-18.93-9-29.85-13.41c-9.73-3.9-8.52-4.93-24.55-10.6,0,0,9.2-23.45,13.34-29.71S589,1199.26,566.35,1185.55Z"/><path class="cls-9" d="M625,1346.34l57.6-4.65a8.16,8.16,0,0,0,6.3-3.86l59.7-96.83a8.17,8.17,0,0,0-6.86-12.45L680,1227.9a8.15,8.15,0,0,0-7.26,4.26L617.13,1334.3A8.17,8.17,0,0,0,625,1346.34Z"/><path class="cls-30" d="M705.62,1310.74a53.61,53.61,0,0,0,6.85-8.07c3.23-4.71,13.78-22.69,12.82-23.82s-16.65-1.51-19.49,1.05,2.8,3.56,2.8,3.56-8.57.88-8,3.3,5.77,1.75,5.77,1.75-6.9,1.32-5.85,3.45,4.36,2.1,4.36,2.1-6.11.77-5.35,3.09,10.43,4.51,9.13,6.44A45.33,45.33,0,0,0,705.62,1310.74Z"/><path class="cls-30" d="M584.86,1177.23s20.79,33.86,37.29,33.47,5.24-31.32,5.24-31.32S614.73,1169.25,584.86,1177.23Z"/><path class="cls-12" d="M693.18,1290.87c-5.57,5.57-13.09,7.07-16.81,3.36s-2.2-11.24,3.37-16.81,13.1-7.08,16.81-3.36S698.76,1285.3,693.18,1290.87Z"/><path class="cls-28" d="M654.92,1093.81s2.32,8.89-1.59,24.44c0,0,.61-14.64-2.45-18.63S654.92,1093.81,654.92,1093.81Z"/></g></svg>