<?xml version="1.0" encoding="utf-8"?>
<!-- Generator: Adobe Illustrator 21.1.0, SVG Export Plug-In . SVG Version: 6.00 Build 0)  -->
<svg version="1.1" id="Layer_1" xmlns="http://www.w3.org/2000/svg" xmlns:xlink="http://www.w3.org/1999/xlink" x="0px" y="0px"
	 viewBox="0 0 215 80" style="enable-background:new 0 0 215 80;" xml:space="preserve">
<style type="text/css">
	.st0{fill:#A7A8AC;}
	.st1{fill:#575758;}
	.st2{fill:#DEDEDD;}
</style>
<g>
	<rect x="73.6" y="45.2" class="st0" width="67.7" height="20.8"/>
	<circle class="st1" cx="107.5" cy="37.4" r="28.6"/>
	<circle class="st2" cx="107.5" cy="37.4" r="25.5"/>
	<polygon class="st0" points="47.6,45.2 58,58.2 47.6,71.2 68.4,71.2 68.4,45.2 	"/>
	<polygon class="st0" points="157,58.2 167.4,45.2 146.6,45.2 146.6,71.2 167.4,71.2 159.1,60.8 	"/>
	<g>
		<path d="M92.9,42.4c1,0,1.6-0.4,1.6-1.2c0-0.6-0.7-1.2-2.1-1.6s-2.1-1.3-2.1-2.4c0-1.6,0.9-2.4,2.7-2.4c1.7,0,2.7,0.8,2.7,2.4
			l-1.2,0.2c0-0.9-0.5-1.4-1.5-1.4s-1.5,0.4-1.5,1.2c0,0.6,0.7,1.2,2.1,1.6c1.4,0.5,2.1,1.3,2.1,2.4c0,1.6-0.9,2.4-2.8,2.4
			c-1.8,0-2.7-0.8-2.8-2.5l1.2-0.1C91.4,41.9,91.9,42.4,92.9,42.4z"/>
		<path d="M97.5,43.5v-8.7h1.2v8.7H97.5z"/>
		<path d="M100.7,43.5v-8.7h1.2v7.5h3.7v1.2H100.7z"/>
		<path d="M108.7,43.5l-2.5-8.7h1.2l1.9,6.9l1.9-6.9h1.2l-2.5,8.7H108.7z"/>
		<path d="M118.1,34.8V36h-3.7v2.5h3.4v1.2h-3.4v2.5h3.7v1.3h-5v-8.7H118.1z"/>
		<path d="M122.4,34.8c1.7,0,2.5,0.8,2.5,2.5c-0.1,1.4-0.6,2.2-1.7,2.4l2.4,3.8H124l-2.2-3.7h-1.3v3.6h-1.2v-8.7H122.4z M122.4,38.6
			c0.8,0,1.2-0.4,1.2-1.2s-0.4-1.2-1.2-1.2h-1.9v2.5L122.4,38.6L122.4,38.6z"/>
	</g>
</g>
</svg>
