<?xml version="1.0" encoding="UTF-8" standalone="no"?>
<svg
   xmlns:dc="http://purl.org/dc/elements/1.1/"
   xmlns:cc="http://creativecommons.org/ns#"
   xmlns:rdf="http://www.w3.org/1999/02/22-rdf-syntax-ns#"
   xmlns:svg="http://www.w3.org/2000/svg"
   xmlns="http://www.w3.org/2000/svg"
   xmlns:sodipodi="http://sodipodi.sourceforge.net/DTD/sodipodi-0.dtd"
   xmlns:inkscape="http://www.inkscape.org/namespaces/inkscape"
   viewBox="0 0 1014.0237 625.24811"
   version="1.1"
   id="svg1155"
   sodipodi:docname="Parts--header.svg"
   width="1014.0237"
   height="625.24811"
   inkscape:version="1.0.1 (0767f8302a, 2020-10-17)">
  <metadata
     id="metadata1159">
    <rdf:RDF>
      <cc:Work
         rdf:about="">
        <dc:format>image/svg+xml</dc:format>
        <dc:type
           rdf:resource="http://purl.org/dc/dcmitype/StillImage" />
        <dc:title></dc:title>
      </cc:Work>
    </rdf:RDF>
  </metadata>
  <sodipodi:namedview
     pagecolor="#ffffff"
     bordercolor="#666666"
     borderopacity="1"
     objecttolerance="10"
     gridtolerance="10"
     guidetolerance="10"
     inkscape:pageopacity="0"
     inkscape:pageshadow="2"
     inkscape:window-width="1858"
     inkscape:window-height="1016"
     id="namedview1157"
     showgrid="false"
     fit-margin-top="1"
     lock-margins="true"
     fit-margin-left="1"
     fit-margin-right="1"
     fit-margin-bottom="1"
     inkscape:zoom="0.79545455"
     inkscape:cx="504.00701"
     inkscape:cy="316.39"
     inkscape:window-x="62"
     inkscape:window-y="27"
     inkscape:window-maximized="1"
     inkscape:current-layer="svg1155" />
  <defs
     id="defs1028">
    <style
       id="style1026">.cls-1{fill:#187a7a;}.cls-2{opacity:0.3;}.cls-3{fill:#f7f7f7;}.cls-4{fill:#ea526f;}.cls-5{fill:#25ced1;}.cls-6{fill:#ffe1d4;}.cls-7{fill:#032624;}.cls-8{fill:#fff;}.cls-9{fill:#350513;}.cls-10{fill:#eacfc1;}.cls-11{fill:#995f4b;}.cls-12{fill:#ffcce3;}.cls-13{fill:#2b2b2b;}.cls-14{fill:#3b5359;}.cls-15{fill:#cc937a;}.cls-16{fill:#102d2c;}.cls-17{fill:#5b061b;}.cls-18{fill:none;}.cls-19{fill:#5b3427;}.cls-20{fill:#484f5b;}.cls-21{fill:#f5f5f5;}.cls-22{fill:#1d2b56;}.cls-23{fill:#92e7e8;}.cls-24{fill:#ffe1ef;}.cls-25{fill:#f7a9c9;}.cls-26{fill:#139999;}.cls-27{fill:#295959;}.cls-28{fill:#1faaad;}</style>
  </defs>
  <g
     id="object"
     transform="translate(-45.992993,-83.61)">
    <g
       class="cls-2"
       id="g1035">
      <path
         class="cls-3"
         d="m 511.28,609.56 c -29.64,0.08 -59.27,0.71 -88.86,3.62 -11.15,1.09 -22.07,3.51 -33.25,4.48 -22.33,1.94 -44.26,5.57 -66.67,7.24 -18.05,1.35 -36.17,2.14 -54.17,3.85 A 214.8,214.8 0 0 1 216,627.34 c -12.39,-2 -24.84,-3.06 -37,-6.21 -13.63,-3.52 -28.44,-6 -42.64,-6 -20.25,0.13 -40,0.14 -59.36,6.36 -6.8,2.18 -15.13,5.77 -20.3,10.35 -11.82,10.49 -13.42,36.65 -1.61,47.53 19.89,18.3 62.34,25.49 90.22,25.83 30.55,0.37 60.23,-1.64 90.82,-2.82 28.43,-1.09 56.79,-2.65 85.27,-2.6 58.16,0.12 116.33,0 174.39,-3.43 54.54,-3.23 109.23,-2.12 163.89,-2.12 56.06,0 111.74,0.39 167.39,7 24.25,2.87 48.95,3.87 73.32,5.88 21.83,1.8 42.8,0 64.54,-1.7 a 170.12,170.12 0 0 0 53,-12.55 c 13.13,-5.55 36.53,-22.78 40.55,-36 11.29,-37.12 -159,-36.22 -185.2,-36.14 -29.25,0.09 -58.74,0.94 -88,0 -12.29,-0.42 -24.41,-2.54 -36.41,-4.87 -12,-2.33 -24,-1.73 -36.12,-2.71 -50.56,-4.06 -101.23,-3.47 -151.94,-3.47 -16.5,-0.03 -33.02,-0.16 -49.53,-0.11 z"
         id="path1033" />
    </g>
  </g>
  <g
     id="Layer_3"
     data-name="Layer 3"
     transform="translate(-45.992993,-83.61)">
    <path
       class="cls-4"
       d="m 781.7,160.52 a 72.29,72.29 0 0 0 0.22,-8.34 68.79,68.79 0 0 0 -0.73,-8.05 l -14,-2.33 -4.75,-13.28 9.35,-10.71 a 70.42,70.42 0 0 0 -10,-13 l -12.79,6.41 -11.67,-7.93 1.26,-14.19 a 69.93,69.93 0 0 0 -15.26,-4.49 l -6.61,12.62 -14.11,0.33 -7.24,-12.27 a 70.13,70.13 0 0 0 -15.47,5.46 l 2.07,14.1 -11.21,8.57 -13.06,-5.64 a 70.42,70.42 0 0 0 -9.29,13.51 l 10,10.16 -4,13.52 -13.89,3.13 a 73.5,73.5 0 0 0 -0.26,8.56 77.27,77.27 0 0 0 0.69,7.82 l 14,2.36 4.72,13.29 -9.42,10.7 a 72.36,72.36 0 0 0 10,13 l 12.75,-6.32 11.64,8 -1.32,14.19 a 71.59,71.59 0 0 0 15.74,4.64 l 6.57,-12.66 14.1,-0.39 7.27,12.23 A 71.44,71.44 0 0 0 742.46,218 l -2.12,-14.08 11.17,-8.63 13.08,5.61 a 70.52,70.52 0 0 0 9.26,-13.54 l -10,-10.12 3.95,-13.56 z m -70.64,28.94 a 35,35 0 1 1 35,-35 35,35 0 0 1 -35,35 z"
       id="path1038" />
    <polygon
       class="cls-5"
       points="551.88,331.37 544.4,345.13 583.03,371.44 604.68,379.54 661.38,352.24 661.38,310.73 602.89,353.41 "
       id="polygon1040" />
    <polygon
       class="cls-6"
       points="726.33,193.84 720.26,201.78 726.8,213.46 724.46,219.53 730.88,229.17 739.55,222.95 740.81,205.05 "
       id="polygon1042" />
    <polygon
       class="cls-5"
       points="635.16,657.22 649.83,657.22 667.39,536.93 687.48,416.43 625.53,425.55 624.36,526.84 "
       id="polygon1044" />
    <polygon
       class="cls-7"
       points="625.94,663.41 633.88,655.48 649.75,655.48 649.75,663.41 633.88,671.35 "
       id="polygon1046" />
    <polygon
       class="cls-5"
       points="716.55,657.22 701.87,657.22 677.32,542.37 664.21,416.43 726.16,425.55 726.45,484.15 "
       id="polygon1048" />
    <polygon
       class="cls-7"
       points="725.76,663.41 717.83,655.48 701.96,655.48 701.96,663.41 717.83,671.35 "
       id="polygon1050" />
    <path
       class="cls-5"
       d="m 741.42,460.83 c 0.32,9.3 0.11,21.73 -3.8,22.2 a 3.9,3.9 0 0 1 -2.09,-0.55 c -6.8,-3.31 -11.65,-8 -18.37,-11.18 -7,-3.35 -15,-5.1 -22.83,-6.31 a 237,237 0 0 0 -35.22,-3.08 c -10.08,-0.09 -20.55,4.51 -30.08,7 -3.67,1 -6.65,3.65 -9.7,5.75 -4.5,3.09 -6.47,4.32 -5.86,-2 1,-10.32 2,-20.64 3.31,-30.93 2.54,-20.53 6,-41 11.82,-60.88 2.22,-7.59 4.8,-15.07 7.37,-22.56 q 4.68,-13.67 9.38,-27.33 c 3.89,-11.33 10.46,-19.31 21.95,-23.27 9.93,-3.42 22.27,-4.36 31.93,0.44 10.74,5.32 15.84,23.47 21.06,33.17 4.57,8.5 10.34,31.68 12.05,40.84 2.06,11 4,22 5.46,33 a 337.76,337.76 0 0 1 3.2,36.21 c 0,1.33 0.27,5.04 0.42,9.48 z"
       id="path1052" />
    <path
       class="cls-8"
       d="m 688.37,309.75 -19.83,0.19 c 0,0 -21.28,74.37 -22.07,87.19 -0.76,12.58 -6.14,63.61 -6.14,63.61 0,0 22,0.52 47.27,3.6 24.74,5.29 26.82,2.16 26.82,2.16 0,0 -13.35,-53.63 -13.8,-69 -0.45,-15.76 -2.47,-67.81 -2.47,-67.81 z"
       id="path1054" />
    <path
       class="cls-4"
       d="m 685.5,311 h -9.77 a 2.76,2.76 0 0 0 -2.19,4.43 l 4,5.25 -10.65,98.32 13.11,12.92 9,-15.32 -2.46,-96 1.59,-6.25 A 2.76,2.76 0 0 0 685.5,311 Z"
       id="path1056" />
    <path
       class="cls-6"
       d="m 676.34,310.13 a 2.47,2.47 0 0 0 0.82,0.47 4.43,4.43 0 0 0 1.92,0 l 7.88,-0.93 c -0.87,-8 3.83,-9.85 8.4,-15 4.57,-5.15 3.21,-12.3 2.95,-18.71 a 13.67,13.67 0 0 0 -0.91,-5.25 c -1.33,-2.84 -4.41,-4.41 -7.41,-5.34 -7.64,-2.37 -16.38,-1.79 -23.11,2.54 a 12.18,12.18 0 0 0 -4.43,4.5 c -1.5,2.92 -1.12,6.41 -0.7,9.67 a 32.5,32.5 0 0 0 5,14.14 c 2.63,3.93 7.66,5.81 8.24,10.53 a 5.36,5.36 0 0 0 1.35,3.38 z"
       id="path1058" />
    <path
       class="cls-9"
       d="m 662,276.29 c 0.45,2 1.39,4.06 0.9,6.07 -3.21,-1.09 -5.3,-4.37 -6.44,-7.7 a 11.94,11.94 0 0 1 -0.76,-4.72 5.59,5.59 0 0 1 2.09,-4.1 c 1.76,-1.27 4.92,-0.77 5.43,1.52 0.51,2.29 -1.92,5.89 -1.22,8.93 z"
       id="path1060" />
    <path
       class="cls-9"
       d="m 645,258.55 a 7.17,7.17 0 0 1 3.16,-6 c 1.86,-1.26 4,-2.3 5.14,-4.3 0.88,-1.55 1,-3.48 1.88,-5 1.58,-2.82 5,-3.65 8,-4.61 7.44,-2.39 11.45,-5.15 19.34,-2.09 5.61,2.18 12.86,2.47 18.06,5.64 a 18.15,18.15 0 0 1 5.54,5.83 c 5.26,8.22 6.52,19.79 3.1,28.36 a 35.45,35.45 0 0 1 -2.78,5.38 c -2.08,3.37 -4.31,7.53 -8,9.19 -0.23,-1.59 -1.42,-2.47 -1.79,-4 a 12.14,12.14 0 0 1 -0.12,-3.46 c 0.23,-4.51 1.61,-11.64 -2.89,-13.88 -5.7,-2.83 -16.38,-0.28 -21.86,2.12 -4.85,2.12 -13,4.87 -18.22,2.6 -4.87,-2.21 -8.77,-10.61 -8.56,-15.78 z"
       id="path1062" />
    <polygon
       class="cls-5"
       points="726.45,229.33 741.8,218.31 778.87,291.19 768.62,316.42 720.52,341.25 694.73,307.12 745.08,292.28 "
       id="polygon1064" />
    <polygon
       class="cls-10"
       points="553.25,331.29 560.02,341.25 545.43,347.66 535.13,341.15 540.4,331.29 "
       id="polygon1066" />
    <path
       class="cls-4"
       d="m 549.22,349.13 -5.69,-12.56 q -7,0.6 -14.06,1.87 -7.06,1.27 -13.82,3.19 l -0.9,13.77 a 20,20 0 0 1 -31.61,14.94 l -11.26,-8.08 a 146.32,146.32 0 0 0 -21.57,18.35 l 6.11,12.39 a 20,20 0 0 1 -19.91,28.74 l -13.74,-1.36 A 146.77,146.77 0 0 0 413.18,447 l 11.52,7.69 a 20,20 0 0 1 -2.86,34.85 l -12.57,5.69 q 0.6,7 1.87,14.06 1.27,7.06 3.2,13.82 l 13.76,0.9 a 20,20 0 0 1 14.9,31.64 l -8,11.26 a 146.25,146.25 0 0 0 18.34,21.57 l 12.39,-6.11 a 20,20 0 0 1 28.75,19.91 L 493.09,616 a 146.41,146.41 0 0 0 26.64,9.59 l 7.7,-11.52 a 20,20 0 0 1 34.84,2.93 l 5.73,12.52 q 7,-0.6 14.06,-1.87 7.06,-1.27 13.82,-3.2 l 0.9,-13.76 a 20,20 0 0 1 31.61,-14.94 l 11.26,8.07 a 145.23,145.23 0 0 0 21.57,-18.34 l -6.11,-12.39 A 20,20 0 0 1 675,544.34 l 13.74,1.36 a 145.66,145.66 0 0 0 9.59,-26.64 l -11.52,-7.7 a 20,20 0 0 1 2.86,-34.85 l 12.57,-5.68 q -0.6,-7 -1.87,-14.06 -1.27,-7.06 -3.21,-13.77 l -13.77,-0.9 a 20,20 0 0 1 -14.94,-31.61 l 8.07,-11.26 a 145.23,145.23 0 0 0 -18.34,-21.57 l -12.39,6.11 a 20,20 0 0 1 -28.74,-19.91 l 1.36,-13.74 a 145.28,145.28 0 0 0 -26.65,-9.59 l -7.7,11.47 a 20,20 0 0 1 -34.84,-2.87 z M 615,472.29 a 60.17,60.17 0 1 1 -70,-48.45 60.18,60.18 0 0 1 70,48.45 z"
       id="path1068" />
    <polygon
       class="cls-11"
       points="426.26,432.42 428,430.8 426.35,426.72 437.6,434.27 443.04,430.72 434.76,416.67 421.77,409.21 417.61,417.51 420.86,427.94 "
       id="polygon1070" />
    <polygon
       class="cls-12"
       points="390.54,380.23 431.62,411.96 419.7,425.38 375.55,399.47 329.12,330.61 330.24,310.99 355.71,315.75 "
       id="polygon1072" />
    <path
       class="cls-13"
       d="m 346.37,653.92 12.31,8.72 4.1,6.67 a 47.4,47.4 0 0 1 -7.18,2.56 c -2.56,0.51 -22.57,-2.56 -22.57,-2.56 v -11.8 z"
       id="path1074" />
    <path
       class="cls-13"
       d="m 304.1,659.56 6.67,6.67 c 0,0 5.64,9.23 3.07,9.23 -2.57,0 -16.41,1.54 -17.44,0 -1.03,-1.54 -8.72,-6.67 -9.74,-7.69 -1.02,-1.02 -0.55,-10 -0.55,-10 z"
       id="path1076" />
    <path
       class="cls-14"
       d="m 327.69,479.52 -8.69,87.71 -14.9,92.33 h -18 l -2.06,-96.43 c 0,0 -14.54,-79.24 -16.04,-105.4 z"
       id="path1078" />
    <polygon
       class="cls-14"
       points="332.52,657.51 326.88,567.23 316.28,487.31 356.63,440.03 366.38,481.06 350.99,657.51 "
       id="polygon1080" />
    <path
       class="cls-12"
       d="m 370,399.16 c -2.89,-10.21 -5.17,-20.58 -7.12,-31 -1.7,-9.09 -2.38,-18.88 -6.39,-27.36 -4.01,-8.48 -11.61,-14.9 -17.46,-22.11 -2.48,-3.05 -5.13,-6.23 -8.82,-7.69 a 23.39,23.39 0 0 0 -8,-1.16 l -24.78,-0.7 c -3,-0.09 -6.14,-0.15 -8.89,1.07 -4.11,1.83 -6.44,6.08 -8.47,10 -5.19,10.12 -6.15,21.35 -6.61,32.8 0,0.1 2.38,30.82 -3,55.12 -5.38,24.3 -3.46,88.6 1.67,85.9 6.38,-3.36 13.68,-5.14 20.83,-6.39 a 206.24,206.24 0 0 1 30.69,-3.25 l 18.1,1.37 h 10.93 c 6.56,0.71 6,2.92 12.76,2.46 4.31,-0.22 7.28,-79.53 4.56,-89.06 z"
       id="path1082" />
    <path
       class="cls-15"
       d="m 313.76,314.47 -13.79,-0.6 a 68.35,68.35 0 0 1 0.14,-11 c -3.89,-1.13 -8.4,-2.9 -9.29,-6.85 a 11.54,11.54 0 0 1 0,-3.8 l 1.83,-15.7 a 13.89,13.89 0 0 1 1.33,-5.26 c 1.56,-2.79 4.81,-4.15 7.93,-4.87 7.94,-1.84 16.79,-0.59 23.3,4.32 a 12.59,12.59 0 0 1 4.17,4.91 c 1.3,3.09 0.65,6.6 0,9.88 q -0.93,4.55 -1.85,9.09 c -0.72,3.48 -1.8,7.45 -5,8.92 -1.71,0.78 -3.8,0.7 -5.33,1.8 -2.76,1.95 -2.15,6.09 -3.44,9.16 z"
       id="path1084" />
    <path
       class="cls-16"
       d="m 339.23,248 a 13.46,13.46 0 0 1 -3.12,-0.85 c -3.33,-1.45 -5.66,-4.36 -9.2,-5.72 a 32.42,32.42 0 0 0 -23.15,0.6 c -6.72,2.83 -15.9,3.92 -21.91,7.72 a 18.39,18.39 0 0 0 -5.94,6.54 27.64,27.64 0 0 0 1.55,29.19 40.21,40.21 0 0 0 4.59,5.17 c 3.43,3.33 7.55,7.45 12.07,8.51 -0.12,-4 -4.44,-16.35 -1.56,-19.78 3.81,-4.55 11.3,-4.44 16.67,-3.94 6.39,0.6 11.66,-1.45 18,-1.13 3.25,0.16 6.93,0.82 9.42,-1.28 2.88,-2.41 9,-10.09 10.41,-13.46 a 8.52,8.52 0 0 0 -1.78,-8.93 c -1.87,-2.05 -3.91,-2.29 -6.05,-2.64 z"
       id="path1086" />
    <path
       class="cls-8"
       d="m 342.89,405.36 a 10.87,10.87 0 0 0 -0.81,-4.14 c -2.44,-5.9 -28.05,-79.68 -28.05,-79.68 a 71.27,71.27 0 0 1 -1.51,-7.18 l -8.21,-0.52 1.35,8.39 3.85,3.3 c 0,0 15.74,81.25 15.83,82.67 L 337,422.63 Z"
       id="path1088" />
    <path
       class="cls-17"
       d="m 422.12,255.14 -1.44,-6.68 q -3.46,-0.45 -7,-0.56 c -2.35,-0.08 -4.7,0 -7,0.1 l -1.88,6.57 a 9.91,9.91 0 0 1 -16.87,3.94 l -4.61,-5.09 a 71.87,71.87 0 0 0 -12.37,6.63 l 1.67,6.64 a 9.91,9.91 0 0 1 -12.65,11.84 l -6.52,-2.09 a 72.39,72.39 0 0 0 -7.43,11.9 l 4.78,4.93 a 9.91,9.91 0 0 1 -5,16.58 l -6.68,1.44 q -0.45,3.46 -0.57,7 c -0.07,2.36 0,4.7 0.11,7 l 6.57,1.87 a 9.91,9.91 0 0 1 3.93,16.88 l -5.16,4.65 a 72.52,72.52 0 0 0 6.64,12.36 l 6.63,-1.66 A 9.91,9.91 0 0 1 369.13,372 l -2.1,6.51 a 71.81,71.81 0 0 0 11.91,7.49 l 4.93,-4.78 a 9.91,9.91 0 0 1 16.58,5 l 1.44,6.68 q 3.47,0.43 7,0.56 c 2.35,0.08 4.7,0 7,-0.1 l 1.88,-6.57 a 9.91,9.91 0 0 1 16.87,-3.94 l 4.61,5.09 a 71.87,71.87 0 0 0 12.37,-6.63 L 450,374.69 a 9.91,9.91 0 0 1 12.65,-11.84 l 6.52,2.09 a 72.81,72.81 0 0 0 7.43,-11.9 l -4.78,-4.93 a 9.91,9.91 0 0 1 5,-16.58 l 6.68,-1.45 q 0.45,-3.46 0.57,-7 c 0.07,-2.36 0,-4.7 -0.11,-7 l -6.57,-1.88 a 9.91,9.91 0 0 1 -3.93,-16.87 l 5.09,-4.61 a 72.15,72.15 0 0 0 -6.64,-12.36 l -6.62,1.64 a 9.91,9.91 0 0 1 -11.85,-12.65 l 2.1,-6.51 a 71.81,71.81 0 0 0 -11.91,-7.43 l -4.93,4.77 a 9.91,9.91 0 0 1 -16.58,-5.04 z m 19,66.53 a 29.82,29.82 0 1 1 -28.83,-30.78 29.81,29.81 0 0 1 28.8,30.78 z"
       id="path1090" />
    <polygon
       class="cls-11"
       points="351.31,358.3 345.49,342.75 350.56,337.02 364.21,339.01 366.22,350.01 "
       id="polygon1092" />
    <polygon
       class="cls-12"
       points="249.57,378.19 273.43,386.24 355.15,356.14 347.68,340.15 286.49,352 288.53,310.2 267.25,320.69 "
       id="polygon1094" />
    <path
       class="cls-18"
       d="m 943.93,317.09 a 28.66,28.66 0 0 1 3.93,-13.44 35.32,35.32 0 0 0 -3.15,12.56 c -0.29,6.66 2.15,13.71 7.48,17.76 l 0.09,0.06 -1.2,3.05 -6,-0.24 c -0.85,0.19 -2.11,0.45 -3.69,0.82 a 24.52,24.52 0 0 0 2.57,-4.22 c 3.22,-6.73 -0.24,-9.67 -0.03,-16.35 z"
       id="path1096" />
    <path
       class="cls-18"
       d="m 985.31,322.76 a 8.69,8.69 0 0 1 -0.45,4.28 4.27,4.27 0 0 1 -1.15,1.82 20.93,20.93 0 0 1 -2.28,1.25 c -3,2 -1.84,6.3 -2.31,9.24 a 17,17 0 0 1 -0.6,2.44 l -2.65,-3.7 -11.31,-0.46 v -0.09 c 8.37,-0.77 16.44,-7.01 20.75,-14.78 z"
       id="path1098" />
    <path
       class="cls-19"
       d="m 823.45,301.79 -4.89,-4.13 -6.32,2 -3.63,5.34 1.65,4.51 5.14,3 -1.95,0.52 0.36,1.59 8.06,3.67 c 1.94,-2 8.48,-3.57 9.52,-4.65 l -5.39,-4.7 z"
       id="path1100" />
    <polygon
       class="cls-20"
       points="979.13,677.36 967.61,684.39 960.95,679.23 966.42,672.82 966.93,672.51 967.2,673.18 978.36,669.83 978.54,671.57 "
       id="polygon1102" />
    <path
       class="cls-8"
       d="m 930.38,545.22 c 13.06,0.86 25.17,1.22 34.7,1.34 l -0.34,44.66 14.26,78.43 -0.62,0.18 -11.16,3.35 -0.27,-0.67 -37.45,-92.46 -1.3,-18.85 z"
       id="path1104" />
    <path
       class="cls-8"
       d="m 927.52,551.52 0.68,9.68 -3.35,24.51 -3.85,88.47 v 0 l -0.05,-1.28 -11.38,0.35 -18,-93.93 -1,-38.37 c 12.35,2 25.3,3.27 37.52,4.12 z"
       id="path1106" />
    <path
       class="cls-21"
       d="m 928.11,545.07 2.27,0.15 -2.18,16 -0.68,-9.68 z"
       id="path1108" />
    <polygon
       class="cls-20"
       points="920.92,672.9 920.97,674.18 921.14,678.71 909.18,684.9 902.88,679.27 908.75,673.27 909.53,673.25 "
       id="polygon1110" />
    <path
       class="cls-19"
       d="m 951.08,337.08 1.2,-3.05 -0.09,-0.06 c -5.33,-4.05 -7.77,-11.1 -7.48,-17.76 a 35.52,35.52 0 0 1 3.14,-12.56 28,28 0 0 1 4.87,-6.19 c 3.44,-3.26 8.09,-5.84 12.63,-5.69 1.85,0.07 1.08,1.51 3.31,0.37 a 4.05,4.05 0 0 0 1,-0.86 c 0.33,0.36 0.55,0.61 0.62,0.67 2.14,2.23 4.51,3.3 7.08,4.92 3.91,2.45 6,7.67 5.07,12.59 -0.39,2 -1.24,4.13 -0.75,6.08 0.43,1.7 1.79,2.87 2.65,4.35 a 7.69,7.69 0 0 1 1,2.87 c -4.27,7.77 -12.38,14 -20.72,14.78 v 0.09 c -0.11,0.49 -0.22,1 -0.36,1.47 -0.61,2.14 -2.07,4.4 -4.29,4.55 a 6.72,6.72 0 0 1 -3,-0.69 l -5.73,-2.32 a 1.58,1.58 0 0 1 -1,-0.75 1.55,1.55 0 0 1 0.14,-1.07 z"
       id="path1112" />
    <path
       class="cls-22"
       d="m 909.94,283 c 4.52,-0.27 8.51,2.38 12.18,4.93 0.66,-4.45 4.93,-7.51 9,-8.71 4.07,-1.2 8.42,-1.19 12.43,-2.76 4.82,-1.89 9.58,-6.06 14.37,-4.7 4.31,1.22 7,6.46 9.68,11.12 l 0.21,-0.23 a 21.68,21.68 0 0 1 7,-5.3 c 8.6,-3.55 7.61,7.18 14.22,6.61 1.59,-0.14 2.94,-1.4 4.44,-2.06 2.85,-1.25 6,-0.26 8.55,1.28 2.55,1.54 4.78,3.64 7.52,4.8 2.43,1 5.18,1.28 7.44,2.63 3.4,2.05 2.7,5.74 3.31,9.1 0.67,3.73 1.69,8.75 3.71,11.84 1.45,2.23 3.69,3.68 5.58,5.5 1.89,1.82 3.5,4.35 3.1,7.14 -0.38,2.64 -2.48,4.78 -3.08,7.38 -0.82,3.9 -0.4,6 -2.13,9.87 -0.9,2 -1.89,4.1 -3.63,5.31 -2.31,1.6 -5.24,1.18 -7.77,0.41 -2.53,-0.77 -5.1,-1.82 -7.75,-1.3 -5.76,1.13 -5.44,6.81 -7.51,11.28 a 13.69,13.69 0 0 1 -6.67,6.55 12.47,12.47 0 0 1 -11.26,0 c -5.08,-2.83 -7.38,-9.42 -6.36,-15.5 a 46.61,46.61 0 0 1 2,-6.34 17,17 0 0 0 0.6,-2.44 c 0.47,-2.94 -0.68,-7.25 2.31,-9.24 a 20.93,20.93 0 0 0 2.28,-1.25 4.27,4.27 0 0 0 1.15,-1.82 8.69,8.69 0 0 0 0.45,-4.28 7.69,7.69 0 0 0 -1,-2.87 c -0.86,-1.48 -2.22,-2.65 -2.65,-4.35 -0.49,-2 0.36,-4.05 0.75,-6.08 0.94,-4.92 -1.16,-10.14 -5.07,-12.59 -2.57,-1.62 -4.94,-2.69 -7.08,-4.92 -0.07,-0.06 -0.29,-0.31 -0.62,-0.67 a 4.05,4.05 0 0 1 -1,0.86 c -2.23,1.14 -1.46,-0.3 -3.31,-0.37 -4.54,-0.15 -9.19,2.43 -12.63,5.69 a 28,28 0 0 0 -4.87,6.19 28.76,28.76 0 0 0 -3.92,13.44 c -0.21,6.68 3.25,9.62 0.07,16.35 a 24.52,24.52 0 0 1 -2.57,4.22 21.83,21.83 0 0 1 -10.54,7.68 c -0.47,0 -0.93,0 -1.39,-0.06 a 17.64,17.64 0 0 1 -6.61,-1.88 19.47,19.47 0 0 1 -5.51,-4.17 19.68,19.68 0 0 1 -4.85,-9.41 c -0.41,-1.95 -0.6,-4.12 -1.89,-5.54 -1,-1.14 -2.61,-1.58 -3.67,-2.69 -4.41,-4.64 4,-13 2.11,-19.42 -1.2,-4 -6.15,-5.59 -7.23,-9.66 -1.18,-4.57 3.59,-9.32 8.11,-9.57 z"
       id="path1114" />
    <path
       class="cls-23"
       d="m 814.67,315.81 c 0.34,-0.07 15.6,24.44 26.24,36.42 9.72,10.93 39.46,27.39 50.56,36.91 -3.52,12.36 -7.14,26.31 -9.75,38.72 -16.65,79 -5.06,110.5 -5.06,110.5 4.5,1 9.17,1.83 13.93,2.59 12.35,2 25.3,3.27 37.52,4.12 l 2.27,0.15 c 13.06,0.86 25.17,1.22 34.7,1.34 12.34,0.17 20.32,0 20.32,0 L 1013,390.12 994.11,363.67 a 12.47,12.47 0 0 1 -11.26,0 c -5.08,-2.83 -7.38,-9.42 -6.36,-15.5 a 46.61,46.61 0 0 1 2,-6.34 l -2.65,-3.7 -11.31,-0.46 c -0.11,0.49 -0.22,1 -0.36,1.47 -0.61,2.14 -2.07,4.4 -4.29,4.55 a 6.72,6.72 0 0 1 -3,-0.69 l -5.73,-2.32 a 1.58,1.58 0 0 1 -1,-0.75 1.55,1.55 0 0 1 0.14,-1.07 l 0.69,-1.74 -6,-0.24 c -0.85,0.19 -2.11,0.45 -3.69,0.82 a 21.83,21.83 0 0 1 -10.54,7.68 c -0.47,0 -0.93,0 -1.39,-0.06 a 17.64,17.64 0 0 1 -6.61,-1.88 19.47,19.47 0 0 1 -5.51,-4.17 c -13,0.55 -33.8,8.67 -44.83,2 -3.59,-2.17 -41.51,-30 -40.61,-30.15 0,0 -15.36,4.36 -16.84,4.63 z"
       id="path1116" />
    <path
       class="cls-24"
       d="m 872,446.55 -3.27,-5 q -3,0.72 -5.92,1.73 -2.92,1.01 -5.73,2.29 l 0.53,6 A 8.7,8.7 0 0 1 845,460 l -5.37,-2.73 a 63.39,63.39 0 0 0 -8,9.31 l 3.44,4.92 a 8.69,8.69 0 0 1 -6.65,13.66 l -6,0.33 A 63.4,63.4 0 0 0 820,497.6 l 5.46,2.54 a 8.7,8.7 0 0 1 1.07,15.17 l -5,3.27 c 0.48,2 1.05,4 1.73,5.92 0.68,1.92 1.44,3.86 2.28,5.72 l 6,-0.52 a 8.7,8.7 0 0 1 8.51,12.59 l -2.73,5.38 a 63.47,63.47 0 0 0 9.31,8.05 l 4.92,-3.44 a 8.69,8.69 0 0 1 13.66,6.65 l 0.32,6 a 63.68,63.68 0 0 0 12.08,2.35 l 2.55,-5.45 a 8.69,8.69 0 0 1 15.16,-1.07 l 3.27,5 c 2,-0.48 4,-1.06 5.92,-1.73 1.92,-0.67 3.87,-1.44 5.73,-2.29 l -0.52,-6 a 8.69,8.69 0 0 1 12.59,-8.51 l 5.37,2.73 a 63.45,63.45 0 0 0 8.06,-9.31 l -3.45,-4.92 A 8.69,8.69 0 0 1 939,522.12 l 6,-0.33 a 63.4,63.4 0 0 0 2.36,-12.08 l -5.46,-2.54 A 8.69,8.69 0 0 1 940.77,492 l 5,-3.28 c -0.49,-2 -1.06,-4 -1.74,-5.92 -0.68,-1.92 -1.44,-3.86 -2.28,-5.72 l -6,0.52 A 8.69,8.69 0 0 1 927.3,465 l 2.72,-5.38 a 63.91,63.91 0 0 0 -9.3,-8.05 L 915.8,455 a 8.7,8.7 0 0 1 -13.67,-6.65 l -0.32,-6 A 63.53,63.53 0 0 0 889.73,440 l -2.55,5.45 a 8.69,8.69 0 0 1 -15.18,1.1 z m 36.38,48.57 a 26.16,26.16 0 1 1 -33.26,-16.19 26.16,26.16 0 0 1 33.28,16.19 z"
       id="path1118" />
    <polygon
       class="cls-15"
       points="927.77,469.67 920.69,464.3 920.68,456.19 927.52,455.81 927.74,454.03 929.98,452.59 939.84,458.23 940.07,465.2 "
       id="polygon1120" />
    <path
       class="cls-25"
       d="m 866.29,396.87 a 94.53,94.53 0 0 0 1,-11 88.14,88.14 0 0 0 -0.25,-10.68 L 848.75,370.86 843.71,353 857,339.67 a 93.14,93.14 0 0 0 -12,-18 l -17.4,7.33 -14.66,-11.51 2.93,-18.59 a 92.71,92.71 0 0 0 -19.72,-7.29 l -9.85,16.05 -18.62,-0.83 -8.45,-16.83 a 94.07,94.07 0 0 0 -20.89,5.82 l 1.48,18.77 -15.55,10.3 -16.72,-8.61 a 93.52,93.52 0 0 0 -13.45,17 l 12.2,14.29 -6.5,17.43 -18.58,2.88 a 93.75,93.75 0 0 0 -1.12,11.26 99,99 0 0 0 0.22,10.36 l 18.29,4.38 5,17.94 -13.35,13.18 a 95.46,95.46 0 0 0 12,18.08 l 17.38,-7.23 14.63,11.55 -3,18.59 a 93.85,93.85 0 0 0 20.32,7.52 l 9.8,-16.09 18.63,0.75 8.52,16.83 a 93.9,93.9 0 0 0 20.87,-5.9 l -1.53,-18.75 15.5,-10.35 16.74,8.56 a 93.34,93.34 0 0 0 13.42,-17 l -12.28,-14.26 6.43,-17.52 z m -95.71,31.82 a 46.25,46.25 0 1 1 49.28,-43 46.25,46.25 0 0 1 -49.28,43 z"
       id="path1122" />
    <path
       class="cls-4"
       d="m 193.22,663.05 -12.53,-11.57 c -3.63,-1.84 -7.48,-3.12 -10.59,-3.08 a 6,6 0 0 0 -5.27,2.47 6.07,6.07 0 0 0 -0.57,5.58 7.28,7.28 0 0 0 1.09,1.76 v 0 c 0.38,0.47 0.78,0.91 1.19,1.35 0.26,0.28 0.54,0.58 0.85,0.89 2.59,2.81 6.93,7.38 8.66,8.42 2.52,1.51 8.09,5.56 14.66,1 a 0.46,0.46 0 0 1 -0.07,-0.07 6.34,6.34 0 0 0 2.58,-6.75 z"
       id="path1124" />
    <path
       class="cls-10"
       d="m 183.38,562.3 -1,14.52 -5,70.67 5,8.23 c 0,0 1,6.57 -6.57,6.07 -2.26,-0.15 -10.25,-10.32 -10.25,-10.32 l 1.15,-4.65 -5.62,-53.07 v -15.42 l -2.69,-17.11 z"
       id="path1126" />
    <path
       class="cls-4"
       d="m 104,645.1 c -2.34,-0.73 -4.51,-0.62 -6.25,0.76 a 6.56,6.56 0 0 0 -2.46,5.54 12,12 0 0 0 1.29,4 c 3,6.56 11.51,21.38 21.24,18.66 4.09,-1.14 5.64,-5.31 4.81,-9 -1.26,-5.6 -10.85,-17.51 -18.63,-19.96 z"
       id="path1128" />
    <path
       class="cls-10"
       d="m 153.05,553.82 -1.7,20.9 -41,73.89 c 0,0 5.9,10.3 2.16,11.2 -3.74,0.9 -14.75,-2.23 -14.77,-13.81 4.31,-14.1 21.27,-62 21.27,-62 l 7.99,-12.35 -0.12,-23.2 z"
       id="path1130" />
    <path
       class="cls-24"
       d="m 106.68,483.84 c -0.32,-6.16 1.65,-22.24 3.67,-28 7.39,-21 8.81,-31.36 8.81,-48.46 0,-17.1 -7.59,-71.32 -7.59,-71.32 l 30.49,-15.67 27.46,0.74 18.22,8.55 c 0,0 3,65.45 4.1,87.43 0.75,15.69 1.84,29.28 3.27,47.46 0,0 4,41.46 -2.19,85.91 0,0 -1.39,14.76 -2,16 -0.08,0.44 -0.13,0.68 -0.13,0.68 h -70.52 v -25.28 q -3.49,-12.2 -6.68,-24.49 c -2.71,-10.39 -6.31,-22.11 -6.91,-33.55 z"
       id="path1132" />
    <path
       class="cls-26"
       d="m 121.54,325 -12,9 c 0,0 9.12,62.44 9.61,73.34 0.49,10.9 -13.56,54.44 -13.56,54.44 l 58.17,7.59 c 0,0 8.55,-46.51 11,-69.61 2.45,-23.1 -32.73,-79.41 -32.73,-79.41 z"
       id="path1134" />
    <path
       class="cls-26"
       d="m 179.85,323.93 10.53,6.07 c 0,0 -0.33,69 2.72,86.59 1.85,10.75 9.08,45.55 9.08,45.55 l -18.79,6.43 c 0,0 -11.56,-43.52 -13.86,-66.57 -2.3,-23.05 0.21,-80.55 0.21,-80.55 z"
       id="path1136" />
    <path
       class="cls-10"
       d="m 179.43,294.09 c -0.34,-18.35 -24.68,-19.37 -34.15,-6.18 -6.17,8.6 -2.71,23.47 6.53,29.5 a 9.48,9.48 0 0 1 -0.26,1 32.76,32.76 0 0 0 -1.08,4.73 c -0.11,0.6 9.34,1.8 10.39,1.93 a 1.44,1.44 0 0 0 1.07,-0.14 c 0.54,-0.43 0.49,-2.23 0.63,-2.85 l 0.48,-2.22 c 5.8,-0.77 10.65,-4.84 13.25,-9.73 2.6,-4.89 3.24,-10.52 3.14,-16.04 z"
       id="path1138" />
    <path
       class="cls-27"
       d="m 177.55,298.5 c 1.54,6 -2,11.85 -5.09,16.88 -1.27,2.06 -3.23,4.92 -1.6,7.26 1.83,2.63 6.37,2.1 8.37,0.14 a 12.22,12.22 0 0 0 2.7,-5.1 c 2.69,-8.21 6.46,-19.72 5.72,-28.35 -0.59,-6.93 -9.08,-19.22 -17.83,-14.82 a 9.15,9.15 0 0 0 -3.47,3.77 7.27,7.27 0 0 0 -1.13,2.81 c -0.41,4 3.46,5 6,7.2 a 20.18,20.18 0 0 1 6.33,10.21 z"
       id="path1140" />
    <path
       class="cls-27"
       d="m 146.34,296.57 c -0.2,2.23 -1.33,4.58 -1.64,6.87 -0.58,4.2 0.37,9.66 -1.17,13.5 a 25.92,25.92 0 0 1 -12.62,-6.19 c -3.23,-3 -2.65,-7.44 -3.37,-11.84 -0.67,-4.08 -1.52,-8.17 -1.29,-12.3 1.27,-22.57 23.8,-34.91 43.65,-24.73 7.51,3.85 10.79,13.64 5.27,20.08 -5.94,6.92 -18,3.92 -25.13,9.05 a 12.11,12.11 0 0 0 -3.7,5.56 z"
       id="path1142" />
    <polygon
       class="cls-28"
       points="214.19,386.84 255.89,392.08 245.65,404.11 196.39,409.21 179.44,357.59 186.69,327.78 198.08,334.67 "
       id="polygon1144" />
    <path
       class="cls-25"
       d="m 345.22,435.35 7.75,-4 a 91.45,91.45 0 0 0 -4.07,-17.33 l -8.68,-0.14 A 12.56,12.56 0 0 1 329.87,394.5 l 4.7,-7.29 a 92.45,92.45 0 0 0 -12.14,-13 l -7.61,4.24 a 12.57,12.57 0 0 1 -18.66,-11.61 l 0.43,-8.66 q -4.11,-1.68 -8.4,-3 c -2.86,-0.86 -5.75,-1.59 -8.64,-2.18 l -4.46,7.44 a 12.57,12.57 0 0 1 -22,-0.72 l -4,-7.74 a 91.5,91.5 0 0 0 -17.32,4.06 l -0.14,8.68 a 12.57,12.57 0 0 1 -19.38,10.36 L 205,370.4 a 91.43,91.43 0 0 0 -13,12.15 l 4.23,7.61 a 12.57,12.57 0 0 1 -11.6,18.66 l -8.66,-0.43 q -1.68,4.1 -3,8.39 c -0.87,2.87 -1.59,5.75 -2.18,8.65 l 7.44,4.45 a 12.57,12.57 0 0 1 -0.72,22 l -7.75,4 a 91.35,91.35 0 0 0 4.07,17.32 l 8.68,0.14 a 12.56,12.56 0 0 1 10.35,19.38 l -4.7,7.3 a 91.83,91.83 0 0 0 12.14,13 l 7.61,-4.23 a 12.57,12.57 0 0 1 18.66,11.61 l -0.43,8.65 q 4.11,1.68 8.4,3 c 2.86,0.87 5.75,1.6 8.64,2.18 l 4.46,-7.43 a 12.56,12.56 0 0 1 22,0.72 l 4,7.74 a 91.5,91.5 0 0 0 17.32,-4.06 l 0.14,-8.68 a 12.57,12.57 0 0 1 19.38,-10.36 l 7.29,4.7 a 90.79,90.79 0 0 0 13,-12.14 L 326.51,497 a 12.57,12.57 0 0 1 11.6,-18.66 l 8.66,0.43 q 1.68,-4.1 3,-8.4 c 0.87,-2.86 1.59,-5.74 2.18,-8.64 l -7.44,-4.46 a 12.57,12.57 0 0 1 0.71,-21.92 z m -83.84,53.39 a 45.14,45.14 0 1 1 45.14,-45.14 45.14,45.14 0 0 1 -45.14,45.14 z"
       id="path1146" />
    <polygon
       class="cls-10"
       points="234.9,395.29 244.2,395.06 249.57,401.13 239.33,413.16 227.75,406.59 "
       id="polygon1148" />
    <polygon
       class="cls-28"
       points="133.14,420.51 170.33,446.87 164.99,461.13 115.08,437.49 100.26,389.59 109.48,333.94 120.06,342.14 "
       id="polygon1150" />
    <polygon
       class="cls-10"
       points="167.97,446.88 178.3,445.68 183.66,452.72 170.26,461.13 162,458.87 "
       id="polygon1152" />
  </g>
</svg>
