<svg id="Layer_1" data-name="Layer 1" xmlns="http://www.w3.org/2000/svg" viewBox="0 0 1080 1080"><defs><style>.cls-1,.cls-10,.cls-2,.cls-3,.cls-4,.cls-5,.cls-9{fill:none;}.cls-1{stroke:#1faaad;stroke-width:3px;}.cls-1,.cls-10{stroke-linecap:round;stroke-linejoin:round;}.cls-2,.cls-4{stroke:#25ced1;}.cls-2,.cls-3,.cls-4,.cls-5,.cls-9{stroke-miterlimit:10;}.cls-2,.cls-3{stroke-width:2px;}.cls-3{stroke:#ea526f;}.cls-4,.cls-5,.cls-9{stroke-width:2.5px;}.cls-5{stroke:#f56e65;}.cls-6{font-size:43.13px;fill:#ea526f;font-family:Futura-Bold, Futura;font-weight:700;letter-spacing:0.3em;}.cls-7{letter-spacing:0.27em;}.cls-8{letter-spacing:0.29em;}.cls-9{stroke:#92e7e8;}.cls-10{stroke:#ffc5ad;stroke-width:3.5px;}.cls-11{font-size:30px;fill:#1faaad;font-family:Poppins-Regular, Poppins;letter-spacing:0.2em;}</style></defs><polyline class="cls-1" points="379.95 674.39 390.29 692.05 210.75 695.58 170.32 627.29"/><polyline class="cls-1" points="373.61 407.5 390.29 378.35 482.18 533.36 390.29 692.05 379.95 674.39"/><polyline class="cls-1" points="364.07 424.16 299.51 536.96 116.84 536.96 205.66 378.35 390.29 378.35 373.52 407.65"/><polyline class="cls-1" points="370.4 658.08 299.51 536.96 364.07 424.16"/><polyline class="cls-1" points="161.19 611.88 116.84 536.96 299.51 536.96 370.4 658.08"/><path class="cls-2" d="M321.79,396.24c47.14-8.93,89.81,37.36,78.4,75m-14.84,5.3c9-31.78-25.3-71.07-62.89-63.72m-.67-16.61c-18.45,2.24-12,20.56.67,16.61m62.89,63.72c-4.24,12.25,10.85,11.16,14.84-5.3"/><path class="cls-3" d="M126.85,555.93C96.79,624,158.3,644,200.33,614m-3.59-15.35c-32.27,25.25-72.25,16.73-58.92-24.63m58.92,24.63c10.33-9.5,19,5.86,3.59,15.35"/><path class="cls-3" d="M312.59,677.63c51.85,26.47,109.28-25.32,94.06-61.61m-15.31-3.75c12.17,30.69-36,71.93-74.31,49.34m-4.44,16c-17.45-6.38-7-22.76,4.44-16m74.31-49.34c-5.48-11.75,9.64-12.21,15.31,3.75"/><polygon class="cls-4" points="167.84 481.11 178.84 481.11 228.84 387.11 218.84 387.11 167.84 481.11"/><polygon class="cls-4" points="202.84 459.11 213.46 459.09 252.14 387.11 241.26 387.11 202.84 459.11"/><polygon class="cls-4" points="233.84 444.11 244.84 444.11 274.84 388.11 264.84 388.11 233.84 444.11"/><circle class="cls-5" cx="287.83" cy="560.26" r="5.39"/><circle class="cls-5" cx="298.61" cy="578.23" r="5.39"/><circle class="cls-5" cx="309.39" cy="596.2" r="5.39"/><circle class="cls-5" cx="320.18" cy="614.17" r="5.39"/><text class="cls-6" transform="translate(573.47 532.9)">SU<tspan class="cls-7" x="88.89" y="0">G</tspan><tspan x="138.57" y="0">A</tspan><tspan class="cls-8" x="186.1" y="0">R</tspan><tspan class="cls-7" x="229.19" y="0">G</tspan><tspan x="278.87" y="0">AIN</tspan></text><path class="cls-9" d="M456.67,545l-5.7,9.58a1.76,1.76,0,0,1-2.4.61l-5.73-9c-1-2-1-2-.54-2.69l5.7-9.58a1.75,1.75,0,0,1,2.4-.61l5.66,9.34C456.84,544.11,457.16,544.14,456.67,545Z"/><path class="cls-9" d="M433.67,584l-5.7,9.58a1.76,1.76,0,0,1-2.4.61l-5.73-9c-1-2-1-2-.54-2.69l5.7-9.58a1.75,1.75,0,0,1,2.4-.61l5.66,9.34C433.84,583.11,434.16,583.14,433.67,584Z"/><path class="cls-9" d="M445.67,563l-5.7,9.58a1.76,1.76,0,0,1-2.4.61l-5.73-9c-1-2-1-2-.54-2.69l5.7-9.58a1.75,1.75,0,0,1,2.4-.61l5.66,9.34C445.84,562.11,446.16,562.14,445.67,563Z"/><line class="cls-10" x1="314.34" y1="614.61" x2="242.34" y2="615.61"/><line class="cls-10" x1="288.34" y1="694.61" x2="242.34" y2="615.61"/><line class="cls-10" x1="304.34" y1="578.61" x2="324.34" y2="578.61"/><line class="cls-10" x1="372.84" y1="493.11" x2="324.44" y2="578.6"/><line class="cls-10" x1="422.13" y1="576.89" x2="372.84" y2="493.11"/><line class="cls-10" x1="434.52" y1="555.82" x2="412.84" y2="518.11"/><line class="cls-10" x1="441.84" y1="465.11" x2="412.84" y2="518.11"/><line class="cls-10" x1="469.34" y1="511.61" x2="454.34" y2="537.61"/><line class="cls-10" x1="291.84" y1="437.11" x2="234.43" y2="536.65"/><line class="cls-10" x1="343.84" y1="415.11" x2="273.43" y2="536.65"/><line class="cls-10" x1="365.84" y1="378.11" x2="354.84" y2="397.11"/><line class="cls-10" x1="234.84" y1="537.11" x2="270.84" y2="597.11"/><line class="cls-10" x1="273.84" y1="537.11" x2="284.84" y2="555.11"/><line class="cls-10" x1="303.84" y1="597.11" x2="271.84" y2="597.11"/><line class="cls-10" x1="249.84" y1="437.11" x2="291.84" y2="437.11"/><text class="cls-11" transform="translate(615.98 587.16)">iGEM BITS GOA</text></svg>