<?xml version="1.0" encoding="UTF-8" standalone="no"?>
<svg
   xmlns:dc="http://purl.org/dc/elements/1.1/"
   xmlns:cc="http://creativecommons.org/ns#"
   xmlns:rdf="http://www.w3.org/1999/02/22-rdf-syntax-ns#"
   xmlns:svg="http://www.w3.org/2000/svg"
   xmlns="http://www.w3.org/2000/svg"
   xmlns:xlink="http://www.w3.org/1999/xlink"
   xmlns:sodipodi="http://sodipodi.sourceforge.net/DTD/sodipodi-0.dtd"
   xmlns:inkscape="http://www.inkscape.org/namespaces/inkscape"
   viewBox="0 0 624 345.68808"
   version="1.1"
   id="svg374"
   sodipodi:docname="Human_Practices--header.svg"
   width="624"
   height="345.68808"
   inkscape:version="1.0.1 (0767f8302a, 2020-10-17)">
  <metadata
     id="metadata378">
    <rdf:RDF>
      <cc:Work
         rdf:about="">
        <dc:format>image/svg+xml</dc:format>
        <dc:type
           rdf:resource="http://purl.org/dc/dcmitype/StillImage" />
        <dc:title></dc:title>
      </cc:Work>
    </rdf:RDF>
  </metadata>
  <sodipodi:namedview
     pagecolor="#ffffff"
     bordercolor="#666666"
     borderopacity="1"
     objecttolerance="10"
     gridtolerance="10"
     guidetolerance="10"
     inkscape:pageopacity="0"
     inkscape:pageshadow="2"
     inkscape:window-width="1858"
     inkscape:window-height="1016"
     id="namedview376"
     showgrid="false"
     fit-margin-top="10"
     lock-margins="true"
     fit-margin-left="10"
     fit-margin-right="10"
     fit-margin-bottom="10"
     inkscape:zoom="1.1615407"
     inkscape:cx="411.64486"
     inkscape:cy="162.18466"
     inkscape:window-x="62"
     inkscape:window-y="27"
     inkscape:window-maximized="1"
     inkscape:current-layer="svg374" />
  <defs
     id="defs11">
    <style
       id="style2">.cls-1{isolation:isolate;}.cls-2,.cls-31{fill:#fff;}.cls-3{fill:#fff3f3;}.cls-4{fill:#edb9c7;}.cls-5{fill:#ea526f;}.cls-6{fill:#1faaad;}.cls-7{fill:#cfe6e6;}.cls-8{fill:url(#linear-gradient);}.cls-9{fill:#25ced1;}.cls-10{fill:#933149;opacity:0.35;}.cls-11{fill:#16b596;}.cls-12{fill:#07514c;}.cls-13{fill:#ffc5ad;}.cls-14{fill:#f9835f;opacity:0.3;}.cls-15{fill:#f56e65;}.cls-16{fill:#ffc6bb;}.cls-17{fill:#332012;}.cls-18{fill:#e8a39a;}.cls-19{fill:#f7ab8d;}.cls-20{fill:#187a7a;}.cls-21{fill:#0f4947;opacity:0.25;}.cls-22{fill:#d8886c;}.cls-23{fill:#bf516b;}.cls-24{fill:url(#linear-gradient-2);}.cls-25{fill:#0e8c8c;}.cls-26{fill:url(#linear-gradient-3);}.cls-27{fill:#105b59;}.cls-28{fill:#15b8b5;}.cls-29,.cls-32{opacity:0.6;mix-blend-mode:multiply;}.cls-30{fill:#032624;}.cls-31{opacity:0.21;mix-blend-mode:overlay;}.cls-32{fill:#c7dee0;}.cls-33{fill:#14967d;}.cls-34{fill:#077773;}.cls-35{fill:#4c321c;}</style>
    <linearGradient
       id="linear-gradient"
       x1="542.34998"
       y1="402.07001"
       x2="540.59998"
       y2="394.82001"
       gradientUnits="userSpaceOnUse">
      <stop
         offset="0"
         stop-color="#c7e2e2"
         id="stop4" />
      <stop
         offset="1"
         stop-color="#e1efef"
         id="stop6" />
    </linearGradient>
    <linearGradient
       id="linear-gradient-2"
       x1="147.60001"
       y1="396"
       x2="147.85001"
       y2="386"
       xlink:href="#linear-gradient" />
    <linearGradient
       id="linear-gradient-3"
       x1="185.52"
       y1="401.75"
       x2="186.92999"
       y2="398.07999"
       xlink:href="#linear-gradient" />
    <linearGradient
       inkscape:collect="always"
       xlink:href="#linear-gradient"
       id="linearGradient1388"
       gradientUnits="userSpaceOnUse"
       x1="542.34998"
       y1="402.07001"
       x2="540.59998"
       y2="394.82001" />
  </defs>
  <g
     id="OBJECTS"
     style="isolation:isolate"
     transform="translate(-60.16,-111.30192)">
    <path
       class="cls-3"
       d="m 571.36,371 c -13,-4.33 -35.32,-7.19 -60.66,-7.19 -7.17,0 -14.08,0.23 -20.62,0.66 q -2.43,-0.95 -5.4,-1.81 c -20.05,-8.29 -69.07,-14.14 -126.37,-14.14 -75.15,0 -136.06,10.06 -136.06,22.48 0,0.06 0,0.13 0,0.2 -8.86,-0.37 -18.08,-0.56 -27.54,-0.56 -68.79,0 -124.55,10.14 -124.55,22.66 0,12.52 55.77,22.7 124.56,22.7 q 5.28,0 10.46,-0.08 c 7.68,4.71 20.18,9 36.3,12.48 -3.21,1.86 -5.06,4 -5.06,6.38 0,6.74 15.42,12.21 34.44,12.21 16.88,0 30.91,-4.31 33.86,-10 17.25,1.28 35.85,2 55.24,2 a 710.08,710.08 0 0 0 75.9,-3.88 c 12.95,2.42 29.69,3.88 48,3.88 41.05,0 74.33,-7.36 74.33,-16.43 0,-1.47 -0.89,-2.9 -2.54,-4.26 q 6.4,0.18 13,0.18 c 58.27,0 105.51,-10.62 105.51,-23.73 0.01,-12.94 -45.78,-23.43 -102.8,-23.75 z"
       id="path16" />
    <path
       class="cls-3"
       d="m 162.4,420.39 c -12.11,0 -21.93,2.73 -21.93,6.1 0,3.37 9.82,6.11 21.93,6.11 12.11,0 21.93,-2.73 21.93,-6.11 0,-3.38 -9.82,-6.1 -21.93,-6.1 z"
       id="path18" />
    <ellipse
       class="cls-3"
       cx="209.63"
       cy="436.04001"
       rx="10.15"
       ry="3.4400001"
       id="ellipse20" />
    <ellipse
       class="cls-3"
       cx="594.71002"
       cy="428.79001"
       rx="12.75"
       ry="3.8099999"
       id="ellipse22" />
    <ellipse
       class="cls-4"
       cx="537.40002"
       cy="399.35999"
       rx="61.330002"
       ry="11.39"
       id="ellipse24" />
    <ellipse
       class="cls-4"
       cx="173.2"
       cy="395.60001"
       rx="61.330002"
       ry="11.39"
       id="ellipse26" />
    <ellipse
       class="cls-4"
       cx="588.39001"
       cy="384.84"
       rx="13.76"
       ry="3.1300001"
       id="ellipse28" />
    <path
       class="cls-4"
       d="m 492.4,419.11 c 0,1.29 -3,2.34 -6.66,2.34 -3.66,0 -6.67,-1.05 -6.67,-2.34 0,-1.29 3,-2.33 6.67,-2.33 3.67,0 6.66,1.05 6.66,2.33 z"
       id="path30" />
    <path
       class="cls-4"
       d="m 466.07,406.87 c 0,2.79 -10.84,5.05 -24.22,5.05 -13.38,0 -24.22,-2.26 -24.22,-5.05 0,-2.79 10.84,-5.05 24.22,-5.05 13.38,0 24.22,2.26 24.22,5.05 z"
       id="path32" />
    <ellipse
       class="cls-4"
       cx="384.03"
       cy="405.17999"
       rx="24.219999"
       ry="5.0500002"
       id="ellipse34" />
    <path
       class="cls-4"
       d="m 359.18,411.92 c 0,2.78 -10.85,5 -24.22,5 -13.37,0 -24.22,-2.26 -24.22,-5 0,-2.74 10.84,-5.05 24.22,-5.05 13.38,0 24.22,2.26 24.22,5.05 z"
       id="path36" />
    <ellipse
       class="cls-4"
       cx="294.78"
       cy="397.89001"
       rx="24.219999"
       ry="5.0500002"
       id="ellipse38" />
    <ellipse
       class="cls-4"
       cx="269.64001"
       cy="391.67999"
       rx="24.219999"
       ry="5.0500002"
       id="ellipse40" />
    <ellipse
       class="cls-4"
       cx="367.64001"
       cy="391.67999"
       rx="79.559998"
       ry="5.0500002"
       id="ellipse42" />
    <ellipse
       class="cls-4"
       cx="265.20001"
       cy="414.35001"
       rx="6.6300001"
       ry="2.4300001"
       id="ellipse44" />
    <ellipse
       class="cls-4"
       cx="460.60999"
       cy="374.32999"
       rx="9.46"
       ry="2.74"
       id="ellipse46" />
    <path
       class="cls-4"
       d="m 240.93,382.72 c 0,0.82 -2.28,1.49 -5.09,1.49 -2.81,0 -5.1,-0.67 -5.1,-1.49 0,-0.82 2.28,-1.49 5.1,-1.49 2.82,0 5.09,0.67 5.09,1.49 z"
       id="path48" />
    <path
       class="cls-4"
       d="m 363.35,420.45 c 0,0.92 -1.48,1.66 -3.3,1.66 -1.82,0 -3.31,-0.74 -3.31,-1.66 0,-0.92 1.48,-1.67 3.31,-1.67 1.83,0 3.3,0.75 3.3,1.67 z"
       id="path50" />
    <ellipse
       class="cls-4"
       cx="418.26001"
       cy="417.37"
       rx="7.8299999"
       ry="3.02"
       id="ellipse52" />
  </g>
  <g
     id="Layer_3"
     data-name="Layer 3"
     style="isolation:isolate"
     transform="translate(-60.16,-111.30192)">
    <path
       class="cls-5"
       d="m 527.2,399.59 c -0.08,1.37 -0.17,2.23 -0.17,2.23 h -25.82 c 0.31,-10 10.75,-8.66 10.75,-8.66 l 1.8,-4.56 H 527 a 61.61,61.61 0 0 1 0.2,10.99 z"
       id="path55" />
    <path
       class="cls-6"
       d="M 505.73,276.59 511,387.87 c 0,0 9.75,3.38 18.24,0 L 535.71,294.69 527,267 Z"
       id="path57" />
    <path
       class="cls-7"
       d="m 527.2,399.59 c -0.08,1.37 -0.17,2.23 -0.17,2.23 h -25.82 c 0.31,-10 10.75,-8.66 10.75,-8.66 l 2.76,6.43 z"
       id="path59" />
    <path
       class="cls-5"
       d="m 550.76,400 c -0.14,1.35 -0.25,2.22 -0.25,2.22 h -17 c -1.34,-7.81 4.38,-8.09 4.38,-8.09 a 10.23,10.23 0 0 0 1,-6.79 h 11.32 a 51.58,51.58 0 0 1 0.55,12.66 z"
       id="path61" />
    <path
       class="cls-8"
       d="m 550.76,400 c -0.14,1.35 -0.25,2.22 -0.25,2.22 h -17 c -3.74,-10.84 14.79,-10.89 13,-2.23 h 4.22 z"
       id="path63"
       style="fill:url(#linearGradient1388)" />
    <path
       class="cls-9"
       d="m 526.06,273.28 8.74,114.58 a 72.48,72.48 0 0 0 19.66,-0.65 l 1.12,-118.41 z"
       id="path65" />
    <path
       class="cls-5"
       d="m 557.66,271.86 c -22.55,15.17 -53,5.85 -53,5.85 l 2.5,-27.56 -12.38,-12 c 0,-31 13.09,-41.35 32.29,-44.11 19.2,-2.76 25,9.6 25,9.6 l -1.07,25.42 -0.18,4.24 4.91,27.63 z"
       id="path67" />
    <path
       class="cls-10"
       d="m 555.72,260.93 a 33.17,33.17 0 0 1 -8.36,6.06 c -9.88,4.73 -24.5,4.17 -24.5,4.17 l -1,-36.05 c 20.86,-3.48 19.12,-20.32 19.12,-20.32 l 10,14.27 -0.18,4.24 z"
       id="path69" />
    <path
       class="cls-10"
       d="m 506.71,235.11 c 0.14,-0.7 0.42,-14.48 -0.14,-21.16 0,0 0.55,15.59 -8.22,21.16 z"
       id="path71" />
    <path
       class="cls-11"
       d="m 505.12,216.88 c -2.61,-4.23 1,-6 1.56,-8.29 0,0 3.49,5.04 -1.56,8.29 z"
       id="path73" />
    <path
       class="cls-11"
       d="m 501.16,219.89 c -4.27,0.77 -3.85,-3.95 -5.16,-5.66 0,0 5.28,-1.33 5.16,5.66 z"
       id="path75" />
    <path
       class="cls-11"
       d="m 505.25,230.48 c 3.68,2.78 4.81,-1.77 6.57,-2.71 0,0 -4.42,-3.77 -6.57,2.71 z"
       id="path77" />
    <path
       class="cls-12"
       d="m 503.57,244.32 a 0.29,0.29 0 0 1 -0.25,-0.31 v -11.93 a 75.17,75.17 0 0 1 1.2,-13.42 l 0.93,-5.2 a 0.26,0.26 0 0 1 0.3,-0.23 0.3,0.3 0 0 1 0.19,0.36 l -0.93,5.2 a 74.72,74.72 0 0 0 -1.18,13.29 V 244 a 0.29,0.29 0 0 1 -0.26,0.32 z"
       id="path79" />
    <path
       class="cls-12"
       d="m 503.65,229.08 a 0.27,0.27 0 0 1 -0.25,-0.29 18.08,18.08 0 0 0 -4.7,-11.6 0.38,0.38 0 0 1 -0.05,-0.44 0.23,0.23 0 0 1 0.35,-0.06 18.77,18.77 0 0 1 4.9,12.06 0.3,0.3 0 0 1 -0.24,0.33 z"
       id="path81" />
    <path
       class="cls-12"
       d="m 503.57,235.82 a 0.27,0.27 0 0 1 -0.24,-0.25 c 0,-0.17 -0.68,-4.23 4.39,-7.08 a 0.24,0.24 0 0 1 0.33,0.15 0.34,0.34 0 0 1 -0.12,0.41 c -4.69,2.63 -4.14,6.24 -4.11,6.39 a 0.32,0.32 0 0 1 -0.19,0.37 z"
       id="path83" />
    <path
       class="cls-11"
       d="m 487.14,219.2 c 3.2,-4.23 -1.19,-6 -1.91,-8.29 0,0 -4.29,5.09 1.91,8.29 z"
       id="path85" />
    <path
       class="cls-11"
       d="m 492,222.21 c 5.24,0.78 4.72,-4 6.34,-5.66 0,0 -6.48,-1.33 -6.34,5.66 z"
       id="path87" />
    <path
       class="cls-11"
       d="m 487,232.8 c -4.51,2.78 -5.9,-1.77 -8.06,-2.71 -0.02,0 5.41,-3.77 8.06,2.71 z"
       id="path89" />
    <path
       class="cls-12"
       d="m 489,246.64 a 0.31,0.31 0 0 0 0.31,-0.31 V 234.4 A 61.86,61.86 0 0 0 487.88,221 l -1.14,-5.2 a 0.3129297,0.3129297 0 0 0 -0.61,0.14 l 1.15,5.19 a 61.91,61.91 0 0 1 1.45,13.29 v 11.93 a 0.31,0.31 0 0 0 0.27,0.29 z"
       id="path91" />
    <path
       class="cls-12"
       d="m 489,231.4 a 0.31,0.31 0 0 0 0.31,-0.29 16.82,16.82 0 0 1 5.76,-11.6 0.31,0.31 0 0 0 0.06,-0.44 0.3,0.3 0 0 0 -0.43,0 17.48,17.48 0 0 0 -6,12 0.31,0.31 0 0 0 0.29,0.33 z"
       id="path93" />
    <path
       class="cls-12"
       d="m 489,238.14 a 0.31,0.31 0 0 0 0.3,-0.24 c 0,-0.18 0.84,-4.24 -5.38,-7.09 a 0.31,0.31 0 1 0 -0.26,0.56 c 5.75,2.63 5.07,6.24 5,6.4 a 0.3,0.3 0 0 0 0.24,0.36 z"
       id="path95" />
    <path
       class="cls-11"
       d="m 531.57,218.44 c 3,-4.22 -1.12,-6.05 -1.79,-8.28 0,0 -3.99,5.03 1.79,8.28 z"
       id="path97" />
    <path
       class="cls-11"
       d="m 536.09,221.46 c 4.89,0.77 4.41,-4 5.91,-5.67 0,0 -6,-1.33 -5.91,5.67 z"
       id="path99" />
    <path
       class="cls-11"
       d="m 531.42,232 c -4.21,2.78 -5.51,-1.77 -7.52,-2.7 0,0.04 5.1,-3.74 7.52,2.7 z"
       id="path101" />
    <path
       class="cls-12"
       d="m 533.34,245.89 a 0.3,0.3 0 0 0 0.28,-0.31 v -11.93 a 67.17,67.17 0 0 0 -1.36,-13.43 L 531.19,215 a 0.3,0.3 0 0 0 -0.35,-0.24 0.31,0.31 0 0 0 -0.21,0.37 l 1.07,5.2 a 66.44,66.44 0 0 1 1.35,13.29 v 11.93 a 0.3,0.3 0 0 0 0.29,0.34 z"
       id="path103" />
    <path
       class="cls-12"
       d="m 533.25,230.64 a 0.3,0.3 0 0 0 0.29,-0.29 17.18,17.18 0 0 1 5.37,-11.6 0.32,0.32 0 0 0 0.06,-0.43 0.28,0.28 0 0 0 -0.41,-0.06 17.84,17.84 0 0 0 -5.56,12.06 0.29,0.29 0 0 0 0.26,0.32 z"
       id="path105" />
    <path
       class="cls-12"
       d="m 533.34,237.38 a 0.3,0.3 0 0 0 0.28,-0.24 c 0,-0.17 0.78,-4.24 -5,-7.09 a 0.28,0.28 0 0 0 -0.38,0.16 0.31,0.31 0 0 0 0.14,0.41 c 5.35,2.63 4.72,6.24 4.69,6.39 a 0.3,0.3 0 0 0 0.23,0.36 z"
       id="path107" />
    <path
       class="cls-11"
       d="m 511.24,232.12 c 3.2,-4.23 -1.19,-6.05 -1.92,-8.29 0,0 -4.32,5.04 1.92,8.29 z"
       id="path109" />
    <path
       class="cls-11"
       d="m 516.1,235.13 c 5.24,0.78 4.72,-3.95 6.33,-5.66 0,0 -6.43,-1.33 -6.33,5.66 z"
       id="path111" />
    <path
       class="cls-11"
       d="m 511.08,245.72 c -4.51,2.78 -5.9,-1.77 -8.06,-2.71 -0.02,-0.01 5.43,-3.77 8.06,2.71 z"
       id="path113" />
    <path
       class="cls-12"
       d="m 513.14,259.56 a 0.31,0.31 0 0 0 0.31,-0.31 V 247.32 A 61.86,61.86 0 0 0 512,233.9 l -1.14,-5.2 a 0.3129297,0.3129297 0 0 0 -0.61,0.14 l 1.15,5.19 a 61.91,61.91 0 0 1 1.45,13.29 v 11.93 a 0.31,0.31 0 0 0 0.29,0.31 z"
       id="path115" />
    <path
       class="cls-12"
       d="m 513.05,244.32 a 0.31,0.31 0 0 0 0.31,-0.29 16.82,16.82 0 0 1 5.76,-11.6 0.32,0.32 0 0 0 0.06,-0.44 0.3,0.3 0 0 0 -0.43,-0.05 17.48,17.48 0 0 0 -6,12.05 0.31,0.31 0 0 0 0.29,0.33 z"
       id="path117" />
    <path
       class="cls-12"
       d="m 513.14,251.06 a 0.31,0.31 0 0 0 0.3,-0.24 c 0,-0.18 0.84,-4.24 -5.38,-7.09 a 0.31,0.31 0 0 0 -0.41,0.15 0.3,0.3 0 0 0 0.15,0.41 c 5.75,2.63 5.07,6.24 5,6.4 a 0.3,0.3 0 0 0 0.24,0.36 z"
       id="path119" />
    <rect
       class="cls-13"
       x="480.82001"
       y="235.11"
       width="35.07"
       height="31.879999"
       id="rect121" />
    <polygon
       class="cls-14"
       points="480.82,266.99 480.82,254.4 515.89,266.99 "
       id="polygon123" />
    <path
       class="cls-15"
       d="m 489,254.63 0.06,-4.29 a 21.82,21.82 0 0 0 -0.31,-4.28 0.54,0.54 0 0 1 0.46,-0.27 1.68,1.68 0 0 1 0.81,0.2 1.62,1.62 0 0 1 0.6,0.53 2.71,2.71 0 0 1 0.47,1.56 3.29,3.29 0 0 1 -0.38,1.6 2.63,2.63 0 0 1 -1.12,1.12 l 0.1,3.73 c 0,0.34 -0.14,0.5 -0.4,0.5 a 0.24,0.24 0 0 1 -0.22,-0.12 0.55,0.55 0 0 1 -0.07,-0.28 z m 0.56,-4.42 a 2.68,2.68 0 0 0 0.92,-2 v 0 a 2,2 0 0 0 -0.17,-1 2.36,2.36 0 0 0 -0.13,-0.2 1.21,1.21 0 0 0 -0.2,-0.2 l -0.56,-0.41 c 0,0.42 0,1.05 0.07,1.9 0.07,0.85 0.02,1.49 0.02,1.91 z"
       id="path125" />
    <path
       class="cls-15"
       d="m 493.92,250.43 v 0.43 c 0,0.69 0.05,1.74 0.05,3.13 v 0.3 h 0.91 c 0.17,0.12 0.26,0.23 0.26,0.34 a 0.39,0.39 0 0 1 -0.09,0.26 0.24,0.24 0 0 1 -0.18,0.1 0.69,0.69 0 0 1 -0.22,0 h -0.23 -0.38 a 0.41,0.41 0 0 1 -0.31,0.14 0.47,0.47 0 0 1 -0.31,-0.11 0.39,0.39 0 0 1 -0.13,-0.27 l 0.08,-0.53 c 0,-0.91 0,-2.27 -0.12,-4.09 -0.12,-1.82 -0.12,-3.18 -0.12,-4.09 a 0.2,0.2 0 0 1 0.09,-0.18 0.32,0.32 0 0 1 0.22,-0.07 0.37,0.37 0 0 1 0.24,0.1 0.34,0.34 0 0 1 0.11,0.25 z"
       id="path127" />
    <path
       class="cls-15"
       d="m 499.86,255 c -0.25,0 -0.37,-0.1 -0.37,-0.31 v -1.56 a 1.58,1.58 0 0 0 -0.61,-0.2 7,7 0 0 0 -0.79,-0.11 2.07,2.07 0 0 0 -0.2,0.61 c -0.06,0.27 -0.11,0.53 -0.17,0.8 a 2,2 0 0 1 -0.22,0.64 c -0.31,0 -0.49,-0.08 -0.53,-0.24 a 11.11,11.11 0 0 0 0.53,-2.39 c 0.25,-1.45 0.45,-2.57 0.61,-3.39 a 18,18 0 0 1 0.51,-2.05 c 0.19,-0.56 0.36,-0.83 0.53,-0.83 a 0.63,0.63 0 0 1 0.39,0.1 c 0,0.29 0.08,1.06 0.23,2.32 0.15,1.26 0.24,2.07 0.24,2.44 0,0.37 0,1 0.12,1.84 0.12,0.84 0.13,1.5 0.13,1.93 a 0.35,0.35 0 0 1 -0.4,0.4 z m -0.5,-3.92 c -0.07,-0.7 -0.14,-1.38 -0.19,-2 -0.05,-0.62 -0.09,-1 -0.09,-1.17 a 1,1 0 0 1 0,-0.23 7.5,7.5 0 0 0 -0.55,2.15 24.8,24.8 0 0 0 -0.37,2.48 3.25,3.25 0 0 0 0.83,0.13 2.64,2.64 0 0 0 0.48,0 c 0,-0.25 -0.04,-0.69 -0.11,-1.44 z"
       id="path129" />
    <path
       class="cls-15"
       d="m 502.46,248.68 0.08,-2.2 v -0.08 q 0,-0.6 0.27,-0.6 c 0.16,0 0.37,0.37 0.64,1.12 a 59.32,59.32 0 0 1 1.77,6.67 v 0.06 -4.19 -3.55 a 0.36,0.36 0 0 1 0.39,-0.29 c 0.22,0 0.32,0.15 0.32,0.46 v 0.07 a 1,1 0 0 0 -0.07,0.36 l -0.07,4.43 v 3.67 a 0.81,0.81 0 0 1 -0.1,0.36 0.3,0.3 0 0 1 -0.25,0.17 c -0.17,0 -0.5,-0.82 -1,-2.47 -0.5,-1.65 -1,-3.41 -1.45,-5.31 v 3.94 c 0,0.38 0,0.95 0.08,1.71 0.08,0.76 0.09,1.33 0.09,1.71 a 0.22,0.22 0 0 1 -0.14,0.19 0.82,0.82 0 0 1 -0.34,0.07 c -0.14,0 -0.21,-0.06 -0.21,-0.19 l 0.06,-0.86 c 0,-0.41 0,-1.09 -0.07,-2 -0.07,-0.91 -0.08,-1.49 -0.08,-1.7 z"
       id="path131" />
    <path
       class="cls-15"
       d="m 509.72,248 v 1.55 l 0.11,2.76 0.1,2.15 c 0,0.39 -0.12,0.59 -0.35,0.59 a 0.3,0.3 0 0 1 -0.29,-0.19 0.91,0.91 0 0 1 -0.09,-0.41 l 0.09,-1.92 c 0,-0.41 0,-1 -0.08,-1.87 -0.08,-0.87 -0.08,-1.45 -0.08,-1.87 v -1 a 3.38,3.38 0 0 0 -0.11,-1.12 l -0.65,0.07 a 0.44,0.44 0 0 1 -0.27,-0.09 0.29,0.29 0 0 1 -0.12,-0.24 c 0,-0.09 0.1,-0.17 0.29,-0.24 a 3.05,3.05 0 0 1 0.7,-0.15 10,10 0 0 1 1.21,-0.09 0.45,0.45 0 0 1 0.27,0.1 0.31,0.31 0 0 1 0.12,0.24 0.3,0.3 0 0 1 -0.11,0.24 0.41,0.41 0 0 1 -0.25,0.08 h -0.43 -0.12 a 13.77,13.77 0 0 1 0.06,1.41 z"
       id="path133" />
    <rect
       class="cls-15"
       x="515.89001"
       y="235.11"
       width="22.290001"
       height="31.879999"
       id="rect135" />
    <path
       class="cls-16"
       d="m 544.65,232.25 v 4 l -18.45,24.3 c 0,0 -4,-3.86 -5.67,-4.07 -1.67,-0.21 0.73,7.1 0.73,7.1 l -3,3.41 h -6 c 0,0 4.42,4 7.66,4.14 3.24,0.14 9,0.28 11.76,-5.46 0,0 18.69,-12 23.6,-20.05 4.91,-8.05 3.76,-14.1 3.76,-14.1 z"
       id="path137" />
    <path
       class="cls-5"
       d="m 543.05,233.71 a 18.35,18.35 0 0 0 17.68,-2.5 c 0,0 -2.32,-32.87 -14.48,-28.54 -10.17,3.62 -2.65,20.33 -3.2,31.04 z"
       id="path139" />
    <path
       class="cls-16"
       d="m 480.81,256.48 c 0,0 7.71,-0.73 8.5,0.41 0.79,1.14 -1.52,2.25 -1.52,2.25 0,0 2.51,0.63 2.56,1.93 0.05,1.3 -2,1.57 -2,1.57 0,0 1.78,0.89 1.73,2.19 -0.05,1.3 -2.72,1.15 -2.72,1.15 0,0 1.83,1.36 0.32,2.35 -1.51,0.99 -6.16,0.48 -7.21,0.32 -1.05,-0.16 -0.36,-2.62 -0.36,-2.62 a 2,2 0 0 1 -0.94,-2.71 c 0,0 -2,-2.09 0.15,-3.55 -0.04,0 -1.73,-3.09 1.49,-3.29 z"
       id="path141" />
    <path
       class="cls-17"
       d="m 530.4,177.34 c 0,0 3.27,-7.09 2.23,-11.34 -1.04,-4.25 -3.37,-3 -3.37,-3 0,0 1.87,-9.25 -11.6,-8.38 -10.19,0.65 -20.13,8.77 -14.67,15.5 0,0 -1.59,5.21 3.87,11 7.93,8.37 23.4,-0.4 23.54,-3.78 z"
       id="path143" />
    <path
       class="cls-16"
       d="m 536.56,193.84 c -3.84,9.92 -11.68,11.11 -21.52,8 a 7.08,7.08 0 0 0 2.26,-2 v 0 a 6.67,6.67 0 0 0 0.75,-6.51 c -2.06,-5.95 10.88,-12.21 10.88,-12.21 0,0 1.83,11.39 3,12 1.17,0.61 4.63,0.72 4.63,0.72 z"
       id="path145" />
    <path
       class="cls-18"
       d="m 517.3,199.83 v 0 a 6.67,6.67 0 0 0 0.75,-6.51 c -2.06,-5.95 10.88,-12.21 10.88,-12.21 2.65,22.23 -11.63,18.72 -11.63,18.72 z"
       id="path147" />
    <path
       class="cls-16"
       d="m 505.65,172.75 c 0,0 1.46,23.28 11.8,23.49 10.34,0.21 11.69,-11.8 11.48,-15.14 0,0 1.88,-0.52 1.47,-3.76 -0.41,-3.24 -4.29,-3.44 -3.55,1.67 0,0 -3.87,-0.31 -3.45,-7.2 0,0 -2.4,0.83 -8.46,2.71 -6.06,1.88 -9.29,-1.77 -9.29,-1.77 z"
       id="path149" />
  </g>
  <g
     id="Layer_4"
     data-name="Layer 4"
     style="isolation:isolate"
     transform="translate(-60.16,-111.30192)">
    <path
       class="cls-19"
       d="m 221.64,314.91 a 124.64,124.64 0 0 1 9.36,10.45 c 3.34,4.45 9.4,18.08 9.4,18.08 l -9.26,4.19 c 0,0 -11.24,-9.42 -14.2,-16.1 -2.96,-6.68 -9,-11.74 -9,-11.74"
       id="path152" />
    <path
       class="cls-20"
       d="m 224.29,313.8 c 0,0 -3.44,8.95 -11.88,12.6 a 18.11,18.11 0 0 1 -2.18,0.79 c -10,2.9 -38.28,27.26 -38.28,27.26 l -24.82,7.23 -0.53,0.15 -6.12,-5.29 c 0,0 -3.34,-3.48 -3.07,-7.1 0.27,-3.62 3.06,-2.92 3.06,-2.92 0,0 1.82,-33.14 19.92,-51.1 18.1,-17.96 29.6,-17.4 39.09,-8.21 0,0 3.51,1.53 9.5,9.19 5.99,7.66 15.31,17.4 15.31,17.4 z"
       id="path154" />
    <path
       class="cls-21"
       d="m 213.41,325.31 -1,1.09 a 18.11,18.11 0 0 1 -2.18,0.79 c -10,2.9 -38.28,27.26 -38.28,27.26 l -24.82,7.23 -2.68,-2.68 c 24.22,-14.51 17.61,-49.81 17.61,-49.81 l 18.06,-1.47 c 7.49,16.29 21.63,18.17 21.63,18.17 0.49,-8.77 6,-23 6,-23 -2.75,15.64 5.66,22.42 5.66,22.42 z"
       id="path156" />
    <path
       class="cls-19"
       d="m 248.51,354.45 a 8.19,8.19 0 0 1 -6.26,5.16 c -4,0.83 -15.46,-4.46 -15.46,-4.46 l -0.44,-0.1 c -4,-0.91 -33.45,-7.66 -39.93,-11 -7,-3.62 -13.22,-12.11 -13.22,-12.11 l 17.8,-4.75 2.71,2.9 34.93,16.35 2.52,1.19 c 0,0 13.37,-2.78 14.62,-1.81 1.25,0.97 -5,4.18 -5,4.18 0,0 12.39,-1.12 12.8,0 0.41,1.12 -4.37,2.78 -5.07,4.45 z"
       id="path158" />
    <path
       class="cls-6"
       d="m 248.51,354.45 a 8.19,8.19 0 0 1 -6.26,5.16 c -4,0.83 -15.46,-4.46 -15.46,-4.46 l -0.44,-0.1 a 17.81,17.81 0 0 1 2.24,-8.61 l 2.52,1.19 c 0,0 13.37,-2.78 14.62,-1.81 1.25,0.97 -5,4.18 -5,4.18 0,0 12.39,-1.12 12.8,0 0.41,1.12 -4.32,2.78 -5.02,4.45 z"
       id="path160" />
    <path
       class="cls-20"
       d="m 191.16,326.61 c 0,0 -7.52,-10.72 -10.59,-21.58 -3.07,-10.86 -16.71,-8.39 -18.36,2.37 -1.84,12 14.19,30.35 14.19,30.35 0,0 11.83,-1.95 14.76,-11.14 z"
       id="path162" />
    <path
       class="cls-19"
       d="m 201.56,286.77 a 8.46,8.46 0 0 0 -2.61,4.3 15.52,15.52 0 0 1 0.44,3.61 c -0.1,2.76 -1.73,4 -7.12,1 -7.42,-4.17 -7.94,-11 -7.94,-11 4.5,-2.71 4.92,-8.87 4.92,-8.87 0,0 14.3,9.41 12.31,10.96 z"
       id="path164" />
    <path
       class="cls-17"
       d="m 186.23,271.76 c 0,0 -2.28,-9.13 0,-13.79 a 3.77,3.77 0 0 1 4.93,-2.16 c 0,0 1.49,-7.56 7.93,-8.28 6.27,-0.7 11.14,1.74 15,7.87 3.86,6.13 8.28,6.54 8.28,6.54 0,0 -2.3,4.11 -5.36,4.39 0,0 3.27,2.22 5.36,1.81 0,0 -3,4.65 -7.17,3.27 a 4.63,4.63 0 0 1 -3.82,3.57 c -3.45,0.74 -25.15,-3.22 -25.15,-3.22 z"
       id="path166" />
    <path
       class="cls-22"
       d="m 201.56,286.77 a 8.46,8.46 0 0 0 -2.61,4.3 15.52,15.52 0 0 1 0.44,3.61 c -2.59,-0.63 -10.41,-3.77 -10.14,-18.85 0,0 14.3,9.39 12.31,10.94 z"
       id="path168" />
    <path
       class="cls-19"
       d="m 212.73,270.08 c 0,0 -4.49,18.59 -10.23,19.84 -5.74,1.25 -13.15,-5.63 -13.26,-14.09 0,0 -4.49,-3.34 -2.5,-5.75 1.99,-2.41 4.69,0 4.49,2.82 0,0 4.07,-0.62 4.07,-8.14 a 13.25,13.25 0 0 0 11.48,2.61 c 0,0 0.84,2.92 5.95,2.71 z"
       id="path170" />
    <path
       class="cls-6"
       d="m 144.45,397.73 c 0,0 8.07,0.9 14,-2.48 v -13 c 0,0 -8.56,-0.42 -12.9,-1.84 z"
       id="path172" />
    <path
       class="cls-5"
       d="m 213.09,397.41 -0.56,0.06 c -11.7,0.84 -40.1,0 -40.1,0 h -13.16 c 0,0 -5.63,-8.11 1.67,-19.61 a 10.06,10.06 0 0 1 0.63,-0.87 c 8.6,-11.06 44.9,-19.11 44.9,-19.11 0,0 15.66,13.91 17.54,19.75 1.88,5.84 0.26,18.58 -10.92,19.78 z"
       id="path174" />
    <path
       class="cls-23"
       d="m 213.09,397.41 -0.56,0.06 c -11.7,0.84 -40.1,0 -40.1,0 h -13.16 c 0,0 -5.63,-8.11 1.67,-19.61 a 10.06,10.06 0 0 1 0.63,-0.87 l 20.88,6.07 c 0,0 22.95,3.13 30.64,14.35 z"
       id="path176" />
    <path
       class="cls-24"
       d="m 144.45,380.36 v 17.37 c 0,0 5.14,0.14 6,-3.06 0.86,-3.2 1.38,-9.48 0.5,-11.83 -0.88,-2.35 -6.5,-2.48 -6.5,-2.48 z"
       id="path178"
       style="fill:url(#linear-gradient-2)" />
    <path
       class="cls-25"
       d="m 169.51,389.12 c 0,0 -2.39,4.38 -1.61,13.05 h 19.67 c 0,0 -3,-8.67 -2.61,-12.32 0.39,-3.65 -15.45,-0.73 -15.45,-0.73 z"
       id="path180" />
    <path
       class="cls-23"
       d="m 218,343.44 c -3.76,10.18 -32.58,49 -32.58,49 l -17.49,-2.26 2.24,-6.09 a 21.74,21.74 0 0 1 -20.67,-5.64 c -9.61,-9.19 -9,-21.93 -9,-21.93 0,0 6.06,7.73 17.75,-2.92 0,0 25.5,-26 42,-29.86 a 14.91,14.91 0 0 1 4.83,-0.42 26.34,26.34 0 0 1 8.4,2 c 3.58,1.6 5.45,4 6.09,7 0.64,3.16 -0.09,7 -1.57,11.12 z"
       id="path182" />
    <path
       class="cls-5"
       d="m 218,343.44 c -3.76,10.18 -32.58,49 -32.58,49 a 35.43,35.43 0 0 1 -17.49,-2.26 l 2.24,-6.09 c 0,0 15.16,-49.51 30.05,-60.35 a 14.91,14.91 0 0 1 4.83,-0.42 26.34,26.34 0 0 1 8.4,2 c 3.58,1.6 5.45,4 6.09,7 0.67,3.16 -0.06,7 -1.54,11.12 z"
       id="path184" />
    <path
       class="cls-26"
       d="m 177.13,402.17 h 17.75 c 0,0 -0.1,-6.68 -6.58,-7.2 -6.48,-0.52 -12.84,1.35 -11.17,7.2 z"
       id="path186"
       style="fill:url(#linear-gradient-3)" />
    <path
       class="cls-17"
       d="m 252.31,350.17 c 0,0 -0.73,-2.5 -2.09,-3.44 -1.36,-0.94 -1.88,-2.19 -3.24,-3.29 -1.36,-1.1 -2.82,-0.16 -4.07,-1.31 -1.25,-1.15 -1.43,-1.36 -3,-1.36 -1.57,0 -2.68,3.35 -3.83,2.67 -1.15,-0.68 -2.71,-0.26 -3.86,0.47 -1.15,0.73 -3.34,-0.08 -3.76,1.71 -0.42,1.79 1.05,5.39 1.05,5.39 0,0 15.38,2.71 22.8,-0.84 z"
       id="path188" />
    <path
       class="cls-11"
       d="m 240.93,327.19 c 0,0 -4.25,-3.54 -1,-10.54 0.07,0 6.53,4.26 1,10.54 z"
       id="path190" />
    <path
       class="cls-11"
       d="m 242.65,333.2 a 3.92,3.92 0 0 1 2.14,-4.33 c 2.87,-1.62 2.87,-2.82 2.87,-2.82 0,0 0.89,8.87 -5.01,7.15 z"
       id="path192" />
    <path
       class="cls-12"
       d="m 245.48,330.37 a 0.42,0.42 0 0 0 -0.55,0.21 c -0.72,1.65 -2.67,2.39 -3.59,2.66 v -13 a 0.41,0.41 0 0 0 -0.41,-0.41 0.41,0.41 0 0 0 -0.42,0.41 v 22.66 a 0.42,0.42 0 0 0 0.42,0.42 0.41,0.41 0 0 0 0.41,-0.42 v -8.75 c 0.91,-0.23 3.43,-1.05 4.36,-3.19 a 0.42,0.42 0 0 0 -0.22,-0.59 z"
       id="path194" />
  </g>
  <g
     id="Layer_5"
     data-name="Layer 5"
     style="isolation:isolate"
     transform="translate(-60.16,-111.30192)">
    <path
       class="cls-27"
       d="m 340.79,283.28 26.61,-1.72 c 0,0 -16.74,48 -15.84,62.67 z"
       id="path197" />
    <path
       class="cls-27"
       d="m 377.48,182.42 c 0,0 17.78,-28.53 66.55,-41.09 0,0 7.89,77.08 -31.34,114.15 z"
       id="path199" />
    <path
       class="cls-27"
       d="m 309,269.46 c 0,0 -23.71,1.5 -40.52,-51.71 -16.81,-53.21 -28.94,-57.57 -28.94,-57.57 0,0 57.16,-9.11 79.9,35.51 22.74,44.62 -10.44,73.77 -10.44,73.77 z"
       id="path201" />
    <path
       class="cls-28"
       d="m 386.56,286.72 a 87.13,87.13 0 1 1 33,-128.4 87.25,87.25 0 0 1 -33,128.4 z"
       id="path203" />
    <g
       class="cls-29"
       id="g293">
      <path
         class="cls-30"
         d="m 432.63,213.72 c 0,0 -1.82,1.3 -2.1,1.57 -0.28,0.27 -1.1,0.81 -1.27,1.31 -0.17,0.5 -0.5,0.1 -1.44,1 -0.94,0.9 -1.38,0.82 -1.31,-0.72 0.07,-1.54 -0.53,-1.65 -1.08,-2.48 -0.55,-0.83 0.51,-2 -1.75,-1.06 -2.26,0.94 -2.58,0.58 -3.69,2.22 -1.11,1.64 -1.9,3.11 -1.9,3.11 l -2,-0.12 a 21.29,21.29 0 0 0 -3.07,-1 11,11 0 0 0 -1.71,0.7 5.46,5.46 0 0 1 -1.14,-2 c -0.26,-1.1 -0.75,-1.27 -1.25,-0.61 -0.5,0.66 -1.39,1.91 -1.39,1.91 a 11.76,11.76 0 0 0 -2.77,2.45 c -0.89,1.25 -0.78,1.75 -2.88,2.5 -2.1,0.75 -1.34,2.57 -3.37,2.33 -2.03,-0.24 -3,-0.19 -4,-0.64 -1,-0.45 -1.27,0.21 -0.48,1.26 0.79,1.05 2.12,0.13 0.87,1.35 -1.25,1.22 -2.37,0.89 -1.26,2.47 1.11,1.58 1.74,2.7 1.24,2.94 a 1.7,1.7 0 0 1 -1.93,-2 c 0.34,-1.53 -0.78,-1.74 -0.78,-1.74 0,0 0,-1 0.47,-1.39 0.47,-0.39 0.35,-1.81 -0.62,-1.13 -0.97,0.68 -1.15,0.15 -1,1.22 a 1.84,1.84 0 0 1 -0.84,2.19 c -0.91,0.79 -1.16,0.57 -1.66,1.5 -0.5,0.93 0.38,0.77 -0.78,1.34 -1.16,0.57 -1.33,1.06 -0.9,1.94 0.43,0.88 0.08,1.13 -0.15,1.92 -0.23,0.79 -0.28,1 -0.45,1.59 a 1.57,1.57 0 0 0 0,1.07 c 0.05,0.25 -0.33,0.57 -0.66,0.6 -0.33,0.03 -1,-0.28 -2.28,-0.46 a 4.9,4.9 0 0 0 -3.27,0.44 c -1.16,0.57 -1,3.42 -3,3.43 a 12.93,12.93 0 0 1 -3.12,-0.38 c -1.24,-0.15 -1,-0.39 -1.59,-1.14 -0.59,-0.75 -0.95,-0.69 -0.83,-1.57 0.12,-0.88 -0.05,-1.35 -0.78,-2.7 -0.73,-1.35 -0.6,-3.74 -1.86,-3.81 -1.26,-0.07 0.83,-1.22 -2.36,0.2 -3.19,1.42 -2.92,0.47 -4.85,1.83 a 29.38,29.38 0 0 1 -3.59,2.44 c -0.64,0.24 -1.68,0.48 -1.06,-1 0.62,-1.48 1.32,-1.06 0.65,-2.3 -0.67,-1.24 -1.61,-2 -0.75,-2 0.86,0 1,-0.76 1.16,-1.53 0.16,-0.77 -1.55,-1.36 -0.85,-2.86 0.7,-1.5 1.42,-2.54 -0.34,-1.68 -1.76,0.86 -0.74,-0.66 -2.95,0.69 -2.21,1.35 -2.21,1.22 -2,2 0.21,0.78 -2.08,0.2 -0.45,1.59 1.63,1.39 2.12,2.24 1.46,2.7 a 16.5,16.5 0 0 0 -1.74,1.19 c -1.55,1.17 -2,2.9 -2.85,2.29 -0.85,-0.61 -0.23,-1.19 -1.5,-0.57 -1.27,0.62 -1.19,1.2 -2.47,-0.29 -1.28,-1.49 -3.91,-2.12 -3.08,-2.53 0.83,-0.41 0.28,-1.23 -0.56,-2 a 9.72,9.72 0 0 1 -1.84,-3.06 c -0.49,-1 -1.38,-2.68 -0.37,-2.42 1.01,0.26 0.88,-0.16 0.37,-1.21 -0.51,-1.05 -1.75,-1.33 -1.54,-2.59 0.21,-1.26 -0.49,-0.86 0.68,-2.11 1.17,-1.25 0.69,-1.09 2.1,-1.85 1.41,-0.76 1.48,-0.45 1.74,-1.33 0.26,-0.88 -0.81,-1.79 0.2,-1.54 1.01,0.25 0.55,0.28 2,-0.56 1.45,-0.84 2.56,-0.63 2.17,-1.84 -0.39,-1.21 -1.05,-1 0.66,-2 a 35.18,35.18 0 0 1 3.28,-1.82 c 0.8,-0.32 0.59,-0.9 1.21,0 0.62,0.9 1.32,0 1.93,-0.4 0.61,-0.4 0.23,-1.34 1.11,-1.08 0.88,0.26 2.49,0.21 3.09,0.74 a 2.56,2.56 0 0 1 1.25,1.85 c 0.24,1.18 -0.13,1.84 0.81,2.06 0.94,0.22 1.12,-0.21 1.58,0.59 0.46,0.8 1.48,1.2 1.72,1.56 0.24,0.36 1.26,0.2 1.48,-0.05 0.22,-0.25 0.92,-1.75 -1.33,-4.26 -2.25,-2.51 -1.82,-2.87 -3,-4.29 -1.18,-1.42 -1.52,-1.44 -1.23,-3.36 0.29,-1.92 0.27,-2.52 1.16,-3.64 a 5.43,5.43 0 0 0 1.34,-3.39 6.35,6.35 0 0 1 1.71,-3.64 c 0.86,-1 -0.15,-0.71 -0.39,-1.28 -0.24,-0.57 0.61,-0.64 0.93,-1.17 0.32,-0.53 0.64,-0.79 0.18,-1.11 -0.46,-0.32 -0.83,0.54 -0.93,0.14 -0.1,-0.4 0.76,-1.6 0.29,-1.78 a 1.08,1.08 0 0 0 -1.37,0.47 c -0.43,0.58 -1.13,0.69 -1.06,0.21 0.07,-0.48 0.73,-0.12 0.08,-1.17 -0.65,-1.05 -2.07,-2.06 -2,-2.82 0.07,-0.76 -0.08,-1.36 0.8,0.3 0.88,1.66 1.49,3.47 2,2.6 0.51,-0.87 1,-1.61 0.09,-2.4 -0.91,-0.79 -1.79,-1 -0.86,-1.06 0.93,-0.06 1.31,1.14 1.57,0.2 0.26,-0.94 0.7,-2.06 -0.06,-2.37 -0.76,-0.31 -0.7,-1.13 -0.84,-1.5 -0.14,-0.37 -1,-0.57 -0.1,-1 0.9,-0.43 2,-0.36 2,-1.33 0,-0.97 0.29,-1.37 -0.28,-1 -0.57,0.37 -1,1.24 -1.44,1.32 -0.44,0.08 0.36,-1 1.18,-1.64 0.82,-0.64 -0.14,-0.44 0.73,-0.9 0.87,-0.46 2,-0.72 1.78,-1.32 -0.22,-0.6 -1.4,-0.82 -1.63,-0.46 -0.23,0.36 -0.55,0.27 -0.78,-0.27 -0.23,-0.54 0.26,-1.15 0.19,-1.91 a 6.46,6.46 0 0 1 0.74,-2.62 c 0.21,-0.34 1.61,-0.22 1.44,-1.13 -0.17,-0.91 -0.29,-1.24 -0.17,-1.38 0.12,-0.14 0.65,-0.06 0.66,-0.69 0.01,-0.63 -0.18,-1.91 0.27,-1.17 0.45,0.74 0.27,1 0.67,0.09 0.4,-0.91 0.3,-1.79 0.57,-1.33 0.27,0.46 0.67,0.68 0.79,0.21 0.12,-0.47 0.49,0.36 0.12,0.63 -0.37,0.27 -1.58,-0.27 -1.07,0.59 0.51,0.86 -0.18,0.42 0.11,1.24 0.29,0.82 1.1,2.47 1.66,1.19 0.56,-1.28 0.11,-1.8 0.54,-2.62 a 16,16 0 0 1 1.24,-1.85 l 0.41,-1.75 c 0,0 0.52,-0.85 -0.35,-0.42 -0.87,0.43 -0.67,0.14 -1.24,0.7 -0.57,0.56 -0.92,0.66 -1.44,0.51 -0.52,-0.15 -0.5,-0.29 -1.25,0.12 -0.75,0.41 -0.82,0.62 -1.77,-0.39 -0.95,-1.01 0.3,-1.51 -0.95,-1 a 3.25,3.25 0 0 0 -1.72,1.1 c -0.6,0.58 -1,0.52 -0.69,-0.09 0.31,-0.61 1,-0.71 1.43,-1.32 0.43,-0.61 1.56,-1 0.58,-1.44 a 3.32,3.32 0 0 0 -2.11,-0.1 l -1.93,2.21 -0.86,2.09 c 0,0 -0.28,1.45 -0.44,2.31 -0.16,0.86 -0.68,1.76 -0.61,0.77 a 16.42,16.42 0 0 1 0.37,-3.49 21.2,21.2 0 0 1 1,-2.24 c 0.33,-0.79 -0.35,-2 0.41,-2.57 0.76,-0.57 1.59,-0.85 3,-1.73 a 20.06,20.06 0 0 0 3.4,-2.35 c 0.39,-0.53 0.23,-1 0.19,-1.64 -0.04,-0.64 0,-0.53 0.74,-1.12 0.74,-0.59 0.25,-1.55 0,-2 -0.25,-0.45 -1.21,-0.23 -1.66,-0.78 -0.45,-0.55 -0.51,-1.17 -0.81,-0.61 -0.3,0.56 0.24,1.3 -0.18,1.09 -0.42,-0.21 -0.21,-1.45 -1,-0.78 -0.79,0.67 -0.53,0.13 -0.91,1.59 -0.38,1.46 -1,1.54 -0.88,0.42 a 5.52,5.52 0 0 1 1.31,-2.51 c 0.28,-0.36 -0.89,-0.06 -2.12,0.32 a 5,5 0 0 1 -2.64,0.1 1.53,1.53 0 0 0 -1,0.18 c -0.11,0 -0.5,-0.27 -2.16,-0.77 -1.66,-0.5 -3.81,-1.19 -4.94,-1.64 -1.13,-0.45 -1.88,-1.59 -1.5,-0.36 0.38,1.23 1.27,1.48 0.73,2.24 -0.54,0.76 -0.15,0.85 -0.75,1.41 -0.6,0.56 -0.43,0.31 -1.14,0.38 -0.71,0.07 -1.1,0.86 -1.37,0.4 -0.27,-0.46 1.3,-0.41 -0.32,-0.94 -1.62,-0.53 -0.71,-0.24 -1.07,-1.07 -0.36,-0.83 -2,-0.16 -3,0.07 -1,0.23 -0.79,-0.49 -2.07,0 a 15,15 0 0 1 -2.53,0.83 c -0.35,0.08 -2.69,0.72 -2.69,0.72 0,0 -1.31,-0.64 -0.73,0.63 0.58,1.27 0.63,1.38 0.88,1.9 a 3.24,3.24 0 0 0 1.23,1 c 0,0 0.51,-0.94 0.89,-0.58 0.38,0.36 -1,1.34 -1.23,1.81 -0.23,0.47 -0.54,0.36 0.61,0.62 1.15,0.26 1.95,0.07 2.34,0.39 0.39,0.32 1.09,0.9 1.09,0.9 0,0 1.15,0.19 0.74,0.46 -0.41,0.27 -0.26,0.37 -0.47,1.49 a 5.08,5.08 0 0 1 -1.27,2.57 c -0.5,0.52 -0.55,0.62 0.05,1.28 0.6,0.66 1.2,0.23 1.69,0.88 0.49,0.65 -0.12,0.4 0.88,1.09 l 1,0.68 c 0,0 -0.82,-0.26 -0.12,0.35 0.7,0.61 0.95,1.24 0.16,0.74 -0.79,-0.5 -0.68,-0.83 -0.87,-0.26 -0.19,0.57 -0.23,0.66 0.36,1 0.59,0.34 1.42,1.09 0.77,0.75 -0.65,-0.34 -1,-0.93 -1.43,-0.35 -0.43,0.58 -0.64,1.27 -1,1.35 -0.36,0.08 -0.35,-0.79 -0.35,-0.79 v -1.33 l -1.19,-0.27 c 0,0 -1.1,1 -0.91,0.2 0.19,-0.8 -0.67,-0.56 -0.92,-0.44 -0.25,0.12 -1.34,-0.09 -0.71,-0.4 0.63,-0.31 0.74,-0.3 0.79,-0.87 0.05,-0.57 -0.7,-0.92 -1.07,-1.18 -0.37,-0.26 -0.4,-1.31 -1.23,-0.9 -0.83,0.41 -2.13,1.31 -2.5,1.25 a 4.25,4.25 0 0 0 -1.75,-0.16 5.17,5.17 0 0 0 -1.71,1 c -0.29,0.18 -0.34,-0.41 -0.7,-0.58 a 3,3 0 0 0 -1.51,0.05 l -0.62,0.2 a 1.08,1.08 0 0 1 -1,-0.64 c -0.33,-0.69 -1.11,-1.09 -1.34,-0.5 a 10.92,10.92 0 0 0 -0.36,1.2 c 0,0 -1.43,-0.74 -1.56,-1.29 -0.13,-0.55 0.46,-0.53 0.18,-1.11 -0.28,-0.58 0,-0.08 0.13,-1.05 0.13,-0.97 -0.18,-1.69 0.67,-2 0.85,-0.31 1.45,-0.39 1,-1.5 -0.45,-1.11 -1,-2.37 -0.51,-3.13 0.49,-0.76 0.14,0 0.7,-1 0.56,-1 1,-1.61 0.35,-1.5 -0.65,0.11 -0.81,0.64 -1.42,0.45 -0.61,-0.19 -1.46,-0.13 -0.49,-0.51 0.97,-0.38 1.71,0 2.08,-0.37 a 3.11,3.11 0 0 0 0.67,-1.56 c 0,-0.27 0.3,0 0.4,-0.43 0.1,-0.43 -0.22,-0.61 0.56,-0.62 0.78,-0.01 1.07,0 0.84,-0.58 -0.23,-0.58 0.33,-1 0.11,-1.45 -0.22,-0.45 -0.59,0.12 -1.15,-0.53 a 3.14,3.14 0 0 0 -1.5,-1.18 c -0.4,-0.05 -1,-0.29 -1.31,0.26 -0.31,0.55 -0.51,0.69 -0.21,1.1 a 1.89,1.89 0 0 1 0.31,1 5.34,5.34 0 0 0 -0.42,1 c -0.27,0.78 0.34,1.81 -0.7,0.82 -1.04,-0.99 -1.14,-1.5 -1.63,-1.39 a 1.33,1.33 0 0 0 -0.82,0.36 2.45,2.45 0 0 1 -1,0.49 c -0.61,0.23 -1,0 -0.84,0.45 0.16,0.45 0.38,0.84 0.62,0.78 0.24,-0.06 0,0.2 -0.47,0.85 a 6.37,6.37 0 0 0 -0.67,1 c 0,0 1,0.06 0.64,0.54 -0.36,0.48 -0.19,0.58 -0.51,0.56 -0.32,-0.02 -0.93,0 -0.93,-0.57 a 3.14,3.14 0 0 1 0,-0.84 c 0.08,-0.66 0.39,-1.08 0.35,-1.23 -0.04,-0.15 -0.56,-0.38 -1.23,-0.42 -0.67,-0.04 -1.29,-0.4 -1.53,0.16 a 10.12,10.12 0 0 0 -0.54,1.26 c 0,0.22 0.63,-0.17 0.92,-0.21 0.29,-0.04 0.75,0.42 0.75,0.42 a 0.56,0.56 0 0 1 -0.13,0.57 c -0.25,0.26 -0.61,0.71 -0.61,0.71 0,0 0.89,0.22 -0.8,0.32 a 33.88,33.88 0 0 1 -3.86,-0.13 c -1.48,0 -1.82,-0.57 -1.86,0.17 -0.04,0.74 0.64,0.54 -0.23,1.13 -0.87,0.59 -1,0.57 -1.07,1 a 3.41,3.41 0 0 0 0.16,1.09 l 0.18,0.52 a 2.46,2.46 0 0 1 -0.18,0.74 1.18,1.18 0 0 1 -0.63,0.1 c -0.15,0 -0.16,-0.81 -0.23,-1 a 5.69,5.69 0 0 0 -0.82,-0.62 c 0,0 -0.72,-0.5 -1.16,-0.15 a 13.87,13.87 0 0 1 -1.25,0.81 c 0,0 -1.56,0.22 -1.57,0 -0.01,-0.22 0.73,-0.6 0.61,-0.71 -0.12,-0.11 0.07,-0.4 -0.86,-0.07 -0.93,0.33 -2.46,0.63 -2.78,0 -0.32,-0.63 -0.89,-0.49 -1.65,-0.08 -0.76,0.41 -0.36,-0.68 -1.12,0.07 a 1.59,1.59 0 0 1 -1.39,0.59 c 0,0 0.15,-0.53 -1.19,0.16 -1.34,0.69 -0.87,0.53 -1.37,1 -0.5,0.47 -0.61,0.37 -0.84,0 -0.23,-0.37 -0.89,-0.15 -1.27,0.11 a 1.72,1.72 0 0 0 -0.57,0.72 3.14,3.14 0 0 0 -0.91,-0.95 c -0.71,-0.54 -0.15,-0.58 -1.07,-0.44 -0.92,0.14 -2,0.18 -1.56,-0.39 0.44,-0.57 1.07,-1.66 0.18,-1.8 -0.89,-0.14 -0.8,-0.3 -1.78,0.49 -0.98,0.79 -1.57,0.5 -1.7,1.21 -0.13,0.71 0.29,0.44 -0.68,1.46 -0.97,1.02 -0.82,0.64 -1,1.68 -0.18,1.04 -0.08,1.31 -0.39,1.08 -0.31,-0.23 -0.46,-1.21 -0.23,-2.07 a 11,11 0 0 0 0.21,-1.77 c -0.78,1 -1.54,2.05 -2.27,3.1 a 1.43,1.43 0 0 0 -0.09,1 c 0.37,1.14 1.31,1.29 0.58,1.84 -0.73,0.55 -0.7,1.27 -1.12,1.52 -0.42,0.25 -0.31,-0.26 -1.42,0.19 -0.54,0.22 -0.86,0.25 -1.17,0.39 -1.12,1.87 -2.16,3.77 -3.14,5.71 a 3,3 0 0 1 1.64,1.42 l -1.37,2.36 -2.32,2.09 a 3.35,3.35 0 0 0 2.79,-0.87 c 1.46,-1.22 1.51,-3.63 1.83,-2.84 0.32,0.79 -0.44,1.63 -0.67,2.41 -0.23,0.78 1.62,-1 1.79,-1.79 0.17,-0.79 -0.33,-3.05 0.49,-2.91 a 2.12,2.12 0 0 1 1.28,0.81 l -0.47,1.39 h 1.71 l 2.57,0.08 c 0,0 0.11,0 0.3,0.61 0.19,0.61 -0.12,1 0.18,1.12 0.3,0.12 0.27,0.14 0.2,0.86 a 13.13,13.13 0 0 0 -0.15,1.85 c 0,0.27 0.57,0.2 0.53,-0.26 -0.04,-0.46 -0.05,-1.14 -0.05,-1.14 0,0 0.07,-1.61 0.31,-1.54 a 1.67,1.67 0 0 1 0.56,0.39 l 0.08,1.62 c 0,0 0.12,0.38 0.21,0.74 0.09,0.36 0.23,0.39 0.12,0.63 -0.11,0.24 -0.84,-0.23 -0.11,0.23 0.73,0.46 0.58,0.54 0.47,1 -0.11,0.46 -0.36,0.63 0.11,0.76 0.47,0.13 0.55,-0.81 0.84,-0.68 0.29,0.13 0.42,-0.16 0.53,0.33 0.11,0.49 0.8,0.48 0.49,0.95 -0.31,0.47 -1.22,0.14 -1.41,0.32 -0.19,0.18 -0.32,0.22 -0.24,0.56 0.08,0.34 -0.11,0.62 0.33,0.67 0.44,0.05 0.18,0.56 0.25,0.79 0.07,0.23 1.64,-1.57 1.21,-0.59 -0.43,0.98 -0.56,1.09 -0.49,1.79 0.07,0.7 -0.08,1.41 0.39,1.17 0.47,-0.24 0.53,-1.07 0.82,-1.21 0.29,-0.14 0.26,0.28 0.06,0.79 -0.2,0.51 -1,0.44 -1,1 a 2.06,2.06 0 0 1 -0.27,1.13 c -0.18,0.46 -0.11,0.51 0.51,0.66 0.62,0.15 1.49,-0.91 1.4,-0.68 -0.09,0.23 -0.27,0.31 -0.36,0.65 -0.09,0.34 -0.16,0.8 0.21,0.54 a 2.07,2.07 0 0 0 0.71,-0.72 c 0.1,-0.25 0.52,-0.87 0.38,-0.35 -0.14,0.52 -0.41,0.52 -0.22,0.8 0.19,0.28 0.21,0 0.32,0.33 0.11,0.33 0.2,0.49 0.38,0.49 0.18,0 0.45,-0.33 0.45,-0.52 0,-0.19 0.33,-0.43 0.29,-0.05 -0.04,0.38 -0.3,0.79 0,1 0.3,0.21 0.6,0.37 0.6,0.37 v 0.71 l 0.43,1 a 10.43,10.43 0 0 1 0.22,1.67 c 0,0.64 0.14,2 0.14,2 l -0.51,0.25 -0.82,-1.94 a 6.69,6.69 0 0 0 -0.9,-1.09 c -0.16,-0.06 -0.47,0 -0.47,0.42 a 4.67,4.67 0 0 0 0.11,1 1.41,1.41 0 0 1 0.21,0.79 3.42,3.42 0 0 0 0.16,1.08 2.84,2.84 0 0 0 -0.46,2 c 0.12,1.36 -0.18,1.5 0.07,2.56 0.25,1.06 0.88,1.43 0.27,2.42 -0.61,0.99 -0.93,0.72 -0.68,1.88 0.25,1.16 0.69,1 0.66,2.18 -0.03,1.18 -0.32,1.3 0,2.1 0.32,0.8 0.37,1.71 0.69,2.35 0.32,0.64 0.08,1.38 0.77,1.59 0.69,0.21 0.43,0.29 0.7,0.2 0.27,-0.09 0,-0.38 0.7,-0.34 0.7,0.04 0.87,-0.56 0.66,0 -0.21,0.56 -0.27,0.86 -0.27,0.86 0,0 -0.4,-0.17 -0.25,0.4 0.15,0.57 -0.36,0.76 -0.16,1 a 2.85,2.85 0 0 0 0.86,0.44 c 0,0 -0.85,0.51 0,1.18 0.85,0.67 0.71,0.52 1.05,1.21 a 4.24,4.24 0 0 0 0.76,1.09 l 1.15,0.75 0.89,0.44 c 0,0 -0.46,0.27 0.68,0.44 1.14,0.17 0.5,-0.92 1.37,0.29 a 8.43,8.43 0 0 1 1.07,1.8 l 1,0.48 a 3.62,3.62 0 0 1 0.85,1.31 c 0.42,0.94 0.17,0.34 0.73,1.48 a 3.63,3.63 0 0 0 1.5,1.95 c 0.82,0.56 2,0.44 2.39,0.79 a 5.32,5.32 0 0 1 0.85,1.27 c 0,0 0.2,0.31 0.58,0.81 0.38,0.5 0.12,0.44 -0.63,0.12 -0.75,-0.32 -0.84,0.51 -0.84,0.51 a 1.21,1.21 0 0 0 0.83,0.77 l 2,0.73 c 0,0 0.18,-0.36 0.87,0.49 0.69,0.85 0.8,0.47 1.17,1.25 0.37,0.78 0.56,1.91 2.31,2.33 1.75,0.42 0.88,0.3 2,1.22 a 6.07,6.07 0 0 0 2.72,1.46 c 0.71,0.15 3.05,1 1.1,-0.54 -1.95,-1.54 -2.39,-1.2 -3.14,-1.68 -0.75,-0.48 -0.66,-1.43 -2.15,-3 -1.49,-1.57 -3.34,-2.92 -4.19,-4.1 a 17,17 0 0 0 -3.44,-4.24 c -2,-1.7 -3.22,-2.67 -2.05,-2.51 1.17,0.16 1.77,-1.41 2.45,-0.2 0.68,1.21 1.68,3.05 1.68,3.05 a 10.28,10.28 0 0 0 1.91,1.85 5,5 0 0 0 2.84,1.53 5.24,5.24 0 0 1 1.42,1.22 c 0,0 1.94,-0.13 2.23,0.46 0.29,0.59 -0.52,0.61 0.75,1.54 1.27,0.93 -0.11,0.33 1.28,0.93 a 14.56,14.56 0 0 1 2.51,1.41 l 3.68,1.75 a 3.92,3.92 0 0 0 1.16,1.26 c 0.84,0.59 1.57,0.15 1.37,1 -0.2,0.85 -0.78,1.34 -0.35,1.37 0.43,0.03 0.56,0.1 0.42,0.44 -0.14,0.34 1.17,0.83 2.08,1.76 0.91,0.93 1.47,0.78 2.49,1.1 a 4.59,4.59 0 0 1 1.81,0.89 c 0.82,0.56 0,0.24 1.66,0.05 a 8,8 0 0 1 3.08,0.32 c 0.44,0.06 1.19,-0.12 4.15,-0.07 2.96,0.05 3.93,0.33 5.27,0.15 1.34,-0.18 1.76,0.24 2.53,-0.41 0.77,-0.65 1,-1.37 1.66,-1.36 0.66,0.01 0.68,0.83 1.24,0 0.56,-0.83 0.7,-0.8 1.17,-0.39 a 7.52,7.52 0 0 0 2.37,0.64 c 0,0 -0.86,1 1.5,1.25 2.15,0.19 4.17,0.22 4.69,-0.23 0.08,0.09 0.32,0.16 0.83,0.19 a 9.79,9.79 0 0 1 3.7,0.86 3.68,3.68 0 0 1 1.63,1.52 1.13,1.13 0 0 0 1.23,0.7 c 0.74,0 1.49,-0.59 2.37,-0.48 0.88,0.11 0.13,0.69 1.61,0.65 a 7,7 0 0 0 2.17,-0.31 l 0.53,-0.6 1.9,-0.59 c 0,0 1,0.07 1.21,0.37 0.21,0.3 -0.09,0.79 0.7,0.75 a 1.41,1.41 0 0 0 1.11,-0.54 c 0,0 1.57,-1.11 0.94,-1.56 -0.63,-0.45 -1.78,0.26 -1.17,-0.72 0.61,-0.98 0.89,-1.4 1.17,-1.81 0.28,-0.41 0.36,-0.65 1.35,-0.31 0.99,0.34 1,-0.63 1,0.33 0,0.96 0.08,1.2 0.67,1 a 2.11,2.11 0 0 1 1.14,-0.08 c 0,0 0.86,-0.05 1,0.32 0.14,0.37 -0.42,0.53 -0.12,1 0.3,0.47 -0.61,0.71 0,1 0.61,0.29 0,0.88 0.56,1.3 0.56,0.42 -0.25,0.87 0.73,1.35 0.98,0.48 0.92,1.32 0,2.19 -0.92,0.87 -0.93,-0.22 -1,1.23 -0.07,1.45 0.15,1.43 -0.29,1.83 a 15.45,15.45 0 0 0 -1.53,1.89 c -0.67,0.87 -1,-0.06 -0.8,1.44 0.2,1.5 0.63,1.29 0.1,2.45 a 2,2 0 0 0 0,1.94 c 0,0 3.15,-2 2.24,-0.54 a 6.1,6.1 0 0 0 -1,2.18 7.55,7.55 0 0 0 -0.21,1.06 l -0.06,1.36 0.46,1.32 c 0,0 0.17,-0.4 1.49,-0.23 1.32,0.17 1.55,0.11 1.81,0.26 a 11.24,11.24 0 0 0 3,1.51 19.71,19.71 0 0 0 3,0.87 c 0.68,0.15 1.1,-0.26 1.36,0.43 0.26,0.69 0.08,0.44 1.54,0.2 a 12.57,12.57 0 0 0 3.36,-0.68 c 0.88,-0.43 3.08,-1.1 3.69,-1.4 0.61,-0.3 1,-0.54 0.79,0.09 a 26.44,26.44 0 0 1 -0.55,4 c -0.48,1.4 -0.49,2.08 -1.6,3.17 -1.11,1.09 -1.69,1.86 -2.38,2.54 a 3.43,3.43 0 0 0 -0.65,2.16 87.32,87.32 0 0 0 35.2,-68.34 l -1.5,1 z M 353,149.87 c 0.2,-0.29 0.73,-0.13 1.12,-0.05 a 1,1 0 0 0 1.24,-0.47 c 0.41,-0.61 0.84,-0.57 1.51,-0.6 0.67,-0.03 0.17,0.53 -0.41,1.16 -0.58,0.63 0,0.32 -0.65,0.63 -0.65,0.31 0,0.45 -0.1,0.82 -0.1,0.37 -1,-0.22 -2,-0.45 -1,-0.23 -1.13,-0.44 -0.71,-1.04 z m -21.55,26 c 1.8,-1.77 1,-2.05 2.79,-1.69 1.79,0.36 2.06,-0.54 2.71,0.37 0.65,0.91 2.5,1 2.5,1 l 2.17,-0.59 3.28,-0.84 a 2.08,2.08 0 0 1 1.6,0.47 c 0.54,0.6 1.3,0.58 0.08,1.16 a 12,12 0 0 1 -3,0.82 c 0,0 -0.17,0.42 0.47,1.61 0.64,1.19 1.08,0.71 0.6,1.83 -0.48,1.12 -2.11,2.67 -0.64,1.89 1.47,-0.78 2.24,-2.13 3.12,-2 0.88,0.13 0.82,-1.09 1.46,-1.47 0.64,-0.38 -0.35,-0.45 0.18,-1.46 0.53,-1.01 0.4,-1.49 1.68,-2 1.28,-0.51 0.87,-0.76 2,-1.33 1.13,-0.57 2.58,0 1.14,0.94 -1.44,0.94 -1.79,0.81 -2.76,1.9 -0.97,1.09 -1.35,0.32 -1.08,1.56 0.27,1.24 1.23,0.56 0,1.84 -1.23,1.28 -0.59,0.46 -2.18,1.56 -1.59,1.1 -1.14,1 -2.57,1.58 -1.43,0.58 -2.59,1.13 -2.44,-0.24 0.15,-1.37 2,-1.82 1.07,-2.85 -0.93,-1.03 -1.46,-0.59 -2.09,0.07 -0.63,0.66 -0.15,-1.2 -0.35,-1.66 a 1.52,1.52 0 0 0 -1.83,-0.57 c -0.91,0.25 -1.28,-0.51 -1.45,1 -0.17,1.51 -0.56,0.68 -0.52,1.46 0.04,0.78 -0.47,0.15 0.47,2.08 0.94,1.93 1.92,2.93 0.43,4.09 -1.49,1.16 -3,-1.48 -2.8,-2.93 0.2,-1.45 0.45,-2.58 -0.41,-2.1 -0.86,0.48 -0.72,-1.6 0.19,-2.27 0.91,-0.67 1.38,-0.8 2.15,-1.33 0.77,-0.53 1.48,-0.75 1.48,-1 a 2,2 0 0 0 -2.45,-0.27 c -0.9,0.68 -0.09,0.38 -1.28,1.15 -1.19,0.77 -2.52,1.15 -2.36,0.63 0.16,-0.52 0.45,-0.67 -0.63,-0.55 -1.08,0.12 -0.71,-1.87 -0.71,-1.87 z m -11.89,-4.69 c 0.58,-0.4 -0.17,-0.53 -0.36,-1.21 -0.19,-0.68 0.53,-0.67 1.84,-1.27 0,0 0.44,0.34 -0.08,0.77 -0.52,0.43 -0.17,0.4 -0.14,0.84 a 2.87,2.87 0 0 0 0.38,1.23 c 0.34,0.79 0.37,1 1.16,1.35 0.79,0.35 0.56,0.5 1.35,1.64 0.79,1.14 -0.24,0.91 -0.92,1.48 -0.68,0.57 0,0 -0.35,-0.61 -0.35,-0.61 -0.28,-1.14 -1.14,-1.79 -0.86,-0.65 -0.85,0 -1.23,-0.56 -0.38,-0.56 -0.09,-0.73 -0.87,-1 -0.78,-0.27 -0.2,-0.48 0.38,-0.88 z m -1.94,1 c 0,0 1.08,0.62 0.82,1.21 -0.26,0.59 0,0.92 0.78,0.93 0.78,0.01 0.78,-0.16 0.83,0.5 0.05,0.66 0.55,0.65 1.2,1.51 0.65,0.86 -0.65,0.82 -1.07,0 -0.42,-0.82 -0.65,-0.48 -1.42,-0.66 -0.77,-0.18 -0.83,-0.41 -0.93,-0.91 -0.1,-0.5 -0.11,-0.76 -1.21,-1.14 -1.1,-0.38 -0.48,-0.83 1.02,-1.48 z m -5.62,-5 c -0.42,-1.06 -0.54,-0.74 0.56,-1.09 0.39,-0.12 0.85,0 1,1.18 0.15,1.18 -0.31,0.63 -1,1.6 -0.69,0.97 -0.12,-0.68 -0.56,-1.75 z m -7.08,34.23 c 0.06,1.3 -0.28,0.75 -1.31,1.36 -1.03,0.61 -0.27,-0.55 -1,-2 -0.73,-1.45 -0.61,-0.92 0.87,-1.73 0.65,-0.4 1.41,0.96 1.46,2.31 z m -10.59,-40.58 c 0,0 0.37,-0.36 1.38,-1.16 1.01,-0.8 0.12,-0.26 -0.7,-0.23 -0.82,0.03 -0.56,0.17 -2.09,0.67 -1.53,0.5 0.93,-0.76 2.34,-1.51 1.41,-0.75 0.36,-0.25 1.92,-0.74 0.62,-0.19 0.23,0.6 1.17,0.49 0.94,-0.11 0.09,0.19 0.31,0.63 0.22,0.44 -0.05,0.68 -1,0.57 -0.95,-0.11 -0.55,0.27 -0.67,0.57 -0.12,0.3 -0.7,1.44 -0.7,1.44 a 12,12 0 0 1 -2.16,0.06 c -0.87,-0.15 0.22,-0.85 0.22,-0.85 z m 9.71,0.71 c -0.4,0.23 -0.47,0.64 -0.72,1.45 a 1.71,1.71 0 0 1 -1.17,1.25 c -0.6,0.3 -0.66,0.47 -1.88,1.54 -1.22,1.07 -0.88,0.64 -1.87,0.51 -0.99,-0.13 -1.14,-0.1 -1.34,-0.3 -0.2,-0.2 1.16,-0.5 1.42,-0.94 a 5.65,5.65 0 0 0 0.47,-1.29 0.89,0.89 0 0 1 0,-1.29 c 0.3,-0.27 0.42,0.24 0.95,0.7 0.53,0.46 0.92,0.61 1.78,0.07 0.86,-0.54 0.77,-1.08 2,-1.84 1.23,-0.76 0.78,-0.15 0.38,0.08 z m 57.51,80.71 c 0.26,-0.58 0.65,-1.27 0.91,-0.85 0.18,0.19 -0.52,0.51 -0.89,0.79 z"
         id="path205" />
      <path
         class="cls-30"
         d="m 325.62,148.89 c -0.71,-0.13 -1.21,-0.51 -0.88,0.15 0.33,0.66 -0.26,0.74 0.54,1.11 0.8,0.37 0.85,0.4 0.38,0.63 -0.47,0.23 -0.47,0.57 0.1,0.91 0.57,0.34 0.39,1.07 1,0.42 a 6.36,6.36 0 0 0 1.11,-1.71 c 0.18,-0.46 -0.09,-0.67 0.66,-0.6 a 1.66,1.66 0 0 0 1.63,-0.52 c 0.36,-0.45 0.61,-1.12 -0.33,-0.66 -0.94,0.46 -1.18,0.58 -1.36,0.22 -0.18,-0.36 0.16,-0.66 -1,-0.31 a 7.25,7.25 0 0 1 -1.85,0.36 z"
         id="path207" />
      <path
         class="cls-30"
         d="m 329.15,150.58 c -0.86,0.34 -1.25,0.32 -1.29,1.08 -0.04,0.76 0.29,1.42 0.87,0.66 0.58,-0.76 0.56,-0.75 0.87,-1.16 0.31,-0.41 0.14,-0.82 -0.45,-0.58 z"
         id="path209" />
      <path
         class="cls-30"
         d="m 332.2,149 c -1.19,0.55 -1.46,1 -0.7,1.23 0.76,0.23 1.28,0.39 1.18,-0.24 -0.1,-0.63 -0.06,-1.19 -0.48,-0.99 z"
         id="path211" />
      <path
         class="cls-30"
         d="m 336.25,156.2 c -0.34,0.19 -0.26,0.49 -0.21,0.93 0.05,0.44 0.12,0.23 -0.09,0.65 -0.21,0.42 0.07,0.47 0.54,0.45 0.47,-0.02 0.93,-0.11 0.66,-0.65 -0.27,-0.54 -0.54,-0.55 -0.27,-1 0.27,-0.45 -0.31,-0.58 -0.63,-0.38 z"
         id="path213" />
      <path
         class="cls-30"
         d="m 365.3,154.53 c -1.83,0.95 -4.34,1 -2.73,1.34 1.61,0.34 2.16,0.52 3,0.08 0.84,-0.44 -0.27,-1.42 -0.27,-1.42 z"
         id="path215" />
      <path
         class="cls-30"
         d="m 370,156 c -0.62,0.24 -0.05,0.17 -0.16,1.25 -0.09,0.79 -0.33,1.77 -0.16,1.83 0.17,0.06 0.27,-0.2 0.36,-0.36 a 1.64,1.64 0 0 0 0.21,-0.94 A 11,11 0 0 0 370,156 Z"
         id="path217" />
      <path
         class="cls-30"
         d="m 371.63,157.28 c 0.46,0.17 0.71,0.14 0.55,0.57 -0.16,0.43 -0.07,0.06 -0.15,0.67 -0.08,0.61 0.13,1.16 -0.35,0.78 a 1.58,1.58 0 0 1 -0.49,-1.51 0.77,0.77 0 0 1 0.44,-0.51 z"
         id="path219" />
      <path
         class="cls-30"
         d="m 368.5,148.37 a 1.05,1.05 0 0 0 -0.16,1.21 4.65,4.65 0 0 1 0.21,1 l 0.1,0.77 a 0.91,0.91 0 0 1 0.49,0.65 2.86,2.86 0 0 0 0.26,0.87 c 0,0 -0.39,0.27 -0.37,0.51 0.02,0.24 -1,0.09 0,0.49 1,0.4 0.77,0.23 0.8,0.64 0.03,0.41 0.5,0.74 0.85,0.4 0.35,-0.34 -0.55,-0.28 1.05,-0.88 1.6,-0.6 1.4,-1.51 1.71,-1.22 0.31,0.29 0.39,0.29 0.46,-0.09 0.07,-0.38 0.75,-1.22 0.59,-0.46 -0.16,0.76 -0.68,1.71 -0.06,1.55 0.62,-0.16 1.34,-0.92 0.85,-1.51 -0.49,-0.59 -0.68,-1.39 -0.08,-0.8 0.6,0.59 0.62,1.34 1.17,1 0.55,-0.34 0.74,-0.18 1.15,-0.17 0.41,0.01 1,-0.25 0.23,-0.85 -0.77,-0.6 -1,-1.75 -1.25,-1.09 -0.25,0.66 -0.66,1 -1.21,0.46 -0.55,-0.54 -0.52,-0.64 -1.15,-0.81 -0.63,-0.17 -0.23,-1.22 -1.13,-0.81 -0.9,0.41 -0.63,1.19 -1.35,1.13 -0.72,-0.06 -1,-0.7 -1.19,0 -0.19,0.7 -0.22,1.34 -0.61,1 -0.39,-0.34 -0.72,0 -0.73,-0.72 -0.01,-0.72 -0.26,-2.64 -0.63,-2.27 z"
         id="path221" />
      <path
         class="cls-30"
         d="m 297.86,152.11 c -1.44,-0.25 -3,1 -1.71,-0.8 1.29,-1.8 1.55,-1.49 2,-2.35 a 3.59,3.59 0 0 1 1.15,-1.28 c 0,0 1.91,-0.94 2.46,-0.75 0.55,0.19 1.52,-0.06 0.65,0.5 a 7.5,7.5 0 0 0 -1.49,1.32 l -0.85,1.06 -0.73,1.4 z"
         id="path223" />
      <path
         class="cls-30"
         d="m 303.55,148.28 c -0.14,-0.36 -0.18,-0.73 -0.8,-0.15 -0.62,0.58 -1.2,0.63 -1.6,1 -0.4,0.37 0,0.2 -0.38,0.73 -0.38,0.53 -0.86,1.24 -0.86,1.24 l 1.09,-0.22 c 0,0 1.23,-0.1 0.46,0.28 -0.77,0.38 -2.81,1.24 -1.77,1.14 1.04,-0.1 2,-0.84 2.86,-0.85 0.86,-0.01 0.87,0.12 -0.16,0.62 -1.03,0.5 -2.88,0.55 -1.61,0.79 1.27,0.24 1.73,-0.48 1.6,0.18 -0.13,0.66 0,0.86 1.06,0.21 1.06,-0.65 0.85,-0.21 1.74,-0.82 a 8,8 0 0 0 1.55,-1.48 1.06,1.06 0 0 1 1.27,-0.85 c 1.12,0.14 2.69,0.74 3.31,0.34 0.62,-0.4 0.37,-0.64 -0.19,-0.86 -0.56,-0.22 -0.55,-0.46 -0.05,-0.84 0.5,-0.38 1.05,-0.93 0.12,-0.88 a 1.28,1.28 0 0 1 -1.42,-1 1.93,1.93 0 0 0 -1,-0.94 c -0.28,-0.09 0.1,-1.37 -0.39,0.14 -0.49,1.51 -0.28,2.33 -0.64,2 a 2.42,2.42 0 0 1 -0.52,-1.16 c 0,0 -0.18,-0.73 -0.71,-0.33 -0.53,0.4 -0.4,0.1 -0.74,0.72 -0.34,0.62 -0.32,1 -0.61,0.62 -0.29,-0.38 0,-1 -0.49,-0.63 -0.49,0.37 -0.62,0.4 -0.7,0.62 -0.08,0.22 -0.26,0.8 -0.42,0.38 z"
         id="path225" />
      <path
         class="cls-30"
         d="m 313.08,144.15 a 5.82,5.82 0 0 1 1.33,0.48 c 0,0 0.9,-0.41 0.53,0.52 -0.37,0.93 -0.32,1 -0.68,1.4 -0.36,0.4 0.11,1 -0.68,0.57 -0.79,-0.43 -0.67,-0.53 -1.09,-0.55 -0.42,-0.02 -1.16,-0.27 -0.49,-0.66 0.67,-0.39 0.78,-0.49 0.62,-1 -0.16,-0.51 0.46,-0.76 0.46,-0.76 z"
         id="path227" />
      <path
         class="cls-30"
         d="m 316.32,144.7 c -0.54,0.56 -1.34,1.22 -1.2,1.66 a 3.55,3.55 0 0 0 0.9,1.07 5.08,5.08 0 0 0 0.79,-0.69 2.62,2.62 0 0 1 1,-0.7 c 0.53,-0.25 1,-0.62 0.33,-0.93 a 6.17,6.17 0 0 0 -1.82,-0.41 z"
         id="path229" />
      <path
         class="cls-30"
         d="m 315.12,143.15 c -0.19,0.3 -0.15,0.39 0.08,0.85 0.23,0.46 0.22,0.89 0.49,0.65 0.27,-0.24 0.25,-0.32 0.52,-0.53 0.27,-0.21 -0.43,0.66 0.44,-0.21 0.87,-0.87 0.82,-1.12 0.88,-1.42 0.06,-0.3 0.84,-1 -0.2,-0.42 -1.04,0.58 -2.21,1.08 -2.21,1.08 z"
         id="path231" />
      <path
         class="cls-30"
         d="m 320.64,140.18 c -0.54,0 -0.36,0.21 -0.66,0.58 -0.3,0.37 -0.53,-0.27 -0.81,0.69 -0.28,0.96 -0.72,0.48 -0.28,1 a 3,3 0 0 0 0.8,0.65 c 0,0 0.75,-0.21 0.81,0.27 0.06,0.48 0.58,0.55 0.75,0.26 a 2.53,2.53 0 0 1 1.07,-0.81 A 18.24,18.24 0 0 1 324,142 c 0.45,-0.15 1.23,-0.53 1.23,-0.53 0,0 0.68,0.62 1.05,0 0.37,-0.62 -0.11,-1.27 0.77,-1.16 a 4.25,4.25 0 0 0 1.45,0 l 1.15,0.11 1.41,1.12 1.37,-0.68 a 2.32,2.32 0 0 1 0.74,0.25 c 0.18,0.15 0,-1.75 0.86,-1 a 2.56,2.56 0 0 1 0.94,1.28 c 0,0 -0.54,0.44 -0.47,0.92 0.07,0.48 0.46,0.33 0.05,0.74 a 3.15,3.15 0 0 1 -0.95,0.79 c -0.59,0.32 0.31,0.14 -1,0.49 -1.31,0.35 -1.34,0 -1.56,0.52 -0.22,0.52 -0.51,0.45 -0.1,1 a 1.72,1.72 0 0 0 1.32,0.55 c 0,0 1.93,-0.6 2.06,-1.32 0.13,-0.72 0.91,-0.44 1.75,-0.68 a 4.82,4.82 0 0 1 2.58,0 c 0.49,0.24 -0.25,0.4 1.61,-0.2 1.86,-0.6 2,-0.67 2.79,-0.86 0.79,-0.19 1.7,-0.25 1.47,-0.36 a 3.57,3.57 0 0 0 -2.19,-0.41 c -0.89,0.13 -2,-0.07 -1.4,-0.21 0.6,-0.14 1.77,-0.22 1.77,-0.22 a 14.15,14.15 0 0 1 2,-0.2 c 0.28,0.07 1.95,0.28 0.75,-0.22 -1.2,-0.5 -1.34,-0.78 -1.34,-0.78 l -1.86,-0.86 a 3.75,3.75 0 0 0 -1.24,0.12 3.47,3.47 0 0 1 -1.49,-0.06 c 0,0 -0.31,-0.7 -0.88,-0.53 -0.57,0.17 0.05,-0.81 0.6,-0.67 a 2.75,2.75 0 0 0 1.47,0.28 c 0.7,-0.11 0.15,-0.38 1.23,-0.2 1.08,0.18 1.3,-0.43 1.3,-0.43 l -0.34,-0.89 -0.63,-0.87 c 0,0 -1,0.48 -1.49,0.72 a 1.4,1.4 0 0 1 -1.16,-0.13 l -0.89,0.2 -1.69,0.52 c 0,0 -1.35,0.46 -1.34,0 a 2.69,2.69 0 0 0 -0.19,-1 l -0.92,-0.2 a 11.94,11.94 0 0 0 -1.2,0.56 1.92,1.92 0 0 1 -1.1,0 c 0,0 -0.18,-0.36 -1.26,0.14 a 7,7 0 0 1 -1.34,0.55 c -0.28,0.06 -0.53,-0.94 -1.92,-0.36 -1.39,0.58 -1.87,0 -2.24,0.75 -0.37,0.75 -0.42,1.43 -1.29,1 -0.87,-0.43 -0.88,-1.17 -1.79,-0.69 -0.91,0.48 -1.74,0.75 -1.16,1.23 a 8.71,8.71 0 0 0 1.4,0.91 c -0.38,0.76 -0.14,0.75 -0.54,1 -0.4,0.25 -0.57,0 -0.73,-0.36 -0.16,-0.36 0,-0.29 -0.39,-0.87 z"
         id="path233" />
      <path
         class="cls-30"
         d="m 323.75,137.87 c -0.23,0.73 -0.41,1 0.14,1 0.55,0 1.16,-0.08 1.35,-0.66 0.19,-0.58 1,-1.29 0.16,-1.13 a 4.1,4.1 0 0 0 -1.65,0.79 z"
         id="path235" />
      <path
         class="cls-30"
         d="m 314.68,140.7 c 0.34,0.49 0.54,0.76 0.54,0.76 a 8.88,8.88 0 0 0 0.86,0.3 1.61,1.61 0 0 0 1.35,-0.19 c 0.29,-0.24 -0.15,-0.29 0.4,-0.77 a 13.7,13.7 0 0 1 1.68,-1 c 0.81,-0.51 1.77,-1 2.15,-1.27 a 1.25,1.25 0 0 0 0.4,-0.84 c 0,0 0,-0.39 -1.58,0.39 -1.58,0.78 -1.24,0.82 -2.11,1.1 -0.87,0.28 -1.25,-0.48 -1.47,0.18 -0.22,0.66 0.44,0.69 0,1.17 -0.44,0.48 -0.25,0.9 -0.86,0.42 -0.61,-0.48 -0.58,-0.56 -0.7,-0.81 -0.12,-0.25 -0.66,0.56 -0.66,0.56 z"
         id="path237" />
      <path
         class="cls-30"
         d="m 324,132.34 c -1.62,0.74 -2.48,1.18 -2.48,1.18 l -2.1,1 c 0,0 -0.72,0.07 -0.71,0.51 0.01,0.44 -0.52,0.76 -0.52,0.76 0,0 -1.72,-0.79 -1.29,-0.13 l 0.42,0.65 c 0,0 1,0.35 1.08,0.54 a 5.12,5.12 0 0 1 0.22,0.86 l -0.6,0.29 -0.25,-0.51 1.75,0.88 0.67,-0.32 -0.91,0.32 -1.93,0.31 c 0,0 -0.07,0.76 0.94,0.26 1.01,-0.5 0.79,-0.14 1.91,-1.2 a 7.67,7.67 0 0 1 2.07,-1.68 c 0.7,-0.35 -0.6,0.54 1.11,-0.57 1.71,-1.11 2.1,-1.28 1.81,-1.75 a 7.33,7.33 0 0 1 -0.59,-0.85 c -0.27,-0.46 -0.06,-0.82 -0.6,-0.55 z"
         id="path239" />
      <path
         class="cls-30"
         d="m 313.11,139.87 a 0.55,0.55 0 0 1 0.44,-0.22 0.48,0.48 0 0 1 0.36,0.19 c 0.14,0.22 0,0.55 -0.24,0.71 -0.24,0.16 -0.45,0.23 -0.62,0.09 -0.17,-0.14 -0.13,-0.55 0.06,-0.77 z"
         id="path241" />
      <path
         class="cls-30"
         d="m 312,141.79 c 0.22,0 0.42,0.31 0.46,0.37 a 1,1 0 0 1 0.08,0.78 c 0,0.14 -0.11,0.38 -0.32,0.45 a 0.59,0.59 0 0 1 -0.66,-0.31 c -0.09,-0.19 0,-0.37 0.06,-0.67 0.06,-0.3 0.16,-0.59 0.38,-0.62 z"
         id="path243" />
      <path
         class="cls-30"
         d="m 313.74,142.22 a 0.75,0.75 0 0 1 1.06,-0.2 c 0.13,0.18 -0.06,0.53 -0.1,0.6 -0.04,0.07 -0.21,0.39 -0.44,0.4 a 0.67,0.67 0 0 1 -0.52,-0.8 z"
         id="path245" />
      <path
         class="cls-30"
         d="m 313.09,141.47 c 0,0.11 0.19,0.16 0.22,0.17 0.32,0.08 0.74,-0.24 0.71,-0.47 -0.03,-0.23 -0.15,-0.19 -0.25,-0.22 -0.33,-0.09 -0.77,0.31 -0.68,0.52 z"
         id="path247" />
      <path
         class="cls-30"
         d="m 310.18,140 a 2,2 0 0 0 -0.89,0.34 c -0.52,0.28 -0.78,0.42 -0.77,0.56 0.01,0.14 0.5,0.35 0.76,0.38 a 1.76,1.76 0 0 0 1.24,-0.31 c 0.17,-0.12 0.5,-0.35 0.46,-0.59 -0.04,-0.24 -0.49,-0.38 -0.8,-0.38 z"
         id="path249" />
      <path
         class="cls-30"
         d="m 311.82,139.65 a 0.51,0.51 0 0 0 -0.16,0.72 0.48,0.48 0 0 0 0.49,0.15 0.51,0.51 0 0 0 0.32,-0.66 0.49,0.49 0 0 0 -0.65,-0.21 z"
         id="path251" />
      <path
         class="cls-30"
         d="m 307.52,143.26 c 0.19,0 0.19,0.31 0.51,0.48 0.32,0.17 0.38,0 0.46,0.16 0.08,0.16 0,0.48 -0.18,0.66 a 0.85,0.85 0 0 1 -1.18,0 0.83,0.83 0 0 1 -0.1,-0.75 c 0.08,-0.25 0.28,-0.57 0.49,-0.55 z"
         id="path253" />
      <path
         class="cls-30"
         d="m 302.92,145.69 c 0,-0.31 0.29,-0.49 0.6,-0.72 a 3.42,3.42 0 0 1 0.84,-0.44 2.88,2.88 0 0 1 0.93,-0.25 1.57,1.57 0 0 1 1.12,0.34 c 0,0 0.34,0.33 0.26,0.54 -0.08,0.21 -0.33,0.19 -0.69,0.22 -0.73,0.07 -1,-0.1 -1.37,0.08 a 4.05,4.05 0 0 0 -0.46,0.32 c -0.66,0.47 -0.77,0.61 -0.93,0.56 -0.16,-0.05 -0.33,-0.34 -0.3,-0.65 z"
         id="path255" />
      <path
         class="cls-30"
         d="m 300,145.91 c -0.09,-0.21 0.41,-0.58 0.51,-0.66 0.3,-0.22 0.54,-0.4 0.78,-0.31 0.24,0.09 0.43,0.4 0.35,0.56 -0.08,0.16 -0.37,0 -0.75,0.23 a 1.39,1.39 0 0 0 -0.6,0.61 c 0,0 -0.43,0 -0.44,0 -0.01,0 0.15,-0.26 0.15,-0.43 z"
         id="path257" />
      <path
         class="cls-30"
         d="m 302.85,143.86 c -0.07,0.08 -0.28,0.33 -0.2,0.48 0.08,0.15 0.52,0.19 0.82,0 a 0.87,0.87 0 0 0 0.41,-0.5 c 0,-0.09 0.09,-0.32 0,-0.42 -0.09,-0.1 -0.74,0.09 -1.03,0.44 z"
         id="path259" />
      <path
         class="cls-30"
         d="m 305.72,142.61 c -0.39,0 -0.77,0.38 -0.72,0.58 0.05,0.2 0.39,0.24 0.63,0.22 0.4,0 0.8,-0.37 0.75,-0.57 -0.05,-0.2 -0.38,-0.26 -0.66,-0.23 z"
         id="path261" />
      <path
         class="cls-30"
         d="m 309.22,145 a 0.79,0.79 0 0 1 1.14,-0.22 0.72,0.72 0 0 1 0.14,0.64 0.78,0.78 0 0 1 -0.6,0.61 0.81,0.81 0 0 1 -0.68,-1.03 z"
         id="path263" />
      <path
         class="cls-30"
         d="m 329.86,141.21 a 0.88,0.88 0 0 1 0.9,0.58 1,1 0 0 1 -0.32,0.88 c -0.41,0.37 -1.14,0.42 -1.38,0.12 a 1.21,1.21 0 0 1 0.8,-1.58 z"
         id="path265" />
      <path
         class="cls-30"
         d="m 367,158.88 c 0.46,-0.1 0.78,0.58 1.4,0.48 0.39,-0.06 0.57,-0.39 0.69,-0.31 0.12,0.08 0.05,0.65 -0.29,0.86 -0.34,0.21 -0.54,0 -1.15,0 -0.61,0 -1.09,0.46 -1.26,0.32 -0.17,-0.14 0.09,-1.23 0.61,-1.35 z"
         id="path267" />
      <path
         class="cls-30"
         d="m 368.51,205.31 c -0.16,0.31 0.13,0.88 0.54,1.1 0.41,0.22 0.57,0 0.84,0.23 0.27,0.23 0.12,0.62 0.46,1 0.19,0.18 0.51,0.35 0.71,0.24 0.2,-0.11 0.2,-0.87 0.16,-1.17 a 2.05,2.05 0 0 0 -0.46,-1.23 c -0.66,-0.71 -2.02,-0.63 -2.25,-0.17 z"
         id="path269" />
      <path
         class="cls-30"
         d="m 367,207.48 a 0.72,0.72 0 0 1 1,-0.1 0.69,0.69 0 0 1 -0.65,1.18 0.76,0.76 0 0 1 -0.35,-1.08 z"
         id="path271" />
      <path
         class="cls-30"
         d="m 369.94,209.26 c 0.17,-0.07 0.37,0.09 0.72,0.37 0.53,0.42 0.9,0.71 0.87,1.13 a 1,1 0 0 1 -0.85,0.87 c -0.47,0 -0.74,-0.58 -0.83,-0.78 -0.29,-0.62 -0.23,-1.47 0.09,-1.59 z"
         id="path273" />
      <path
         class="cls-30"
         d="m 372.17,207.39 c -0.35,0.2 -0.56,0.71 -0.41,0.93 0.15,0.22 0.66,0 1.07,0.34 0.21,0.18 0.18,0.33 0.38,0.41 a 0.66,0.66 0 0 0 0.76,-0.23 c 0.16,-0.29 -0.07,-0.65 -0.16,-0.79 -0.33,-0.51 -1.11,-0.96 -1.64,-0.66 z"
         id="path275" />
      <path
         class="cls-30"
         d="m 374.38,210.23 a 0.6,0.6 0 0 0 0.14,0.75 0.53,0.53 0 1 0 -0.14,-0.75 z"
         id="path277" />
      <path
         class="cls-30"
         d="m 376.36,209.53 c -0.21,0.25 0,0.77 0.16,1 a 1.22,1.22 0 0 0 0.91,0.64 c 0.07,0 0.54,0 0.73,-0.26 0.19,-0.26 -0.1,-0.79 -0.14,-0.85 -0.4,-0.62 -1.39,-0.84 -1.66,-0.53 z"
         id="path279" />
      <path
         class="cls-30"
         d="m 381.48,211.81 c -0.41,0.31 -0.67,1 -0.39,1.34 a 0.89,0.89 0 0 0 0.71,0.24 1.1,1.1 0 0 0 1,-0.85 0.9,0.9 0 0 0 -0.29,-0.87 1,1 0 0 0 -1.03,0.14 z"
         id="path281" />
      <path
         class="cls-30"
         d="m 359.74,224.37 c -0.38,-0.47 1.05,-2.43 2.45,-3.75 a 14.57,14.57 0 0 1 4.6,-2.89 22.14,22.14 0 0 1 4,-1.25 19.52,19.52 0 0 1 3.85,-0.7 2.76,2.76 0 0 0 1,-0.14 c 0.7,-0.24 0.83,-0.63 1.33,-0.64 0.5,-0.01 0.43,0.27 1,0.41 a 3,3 0 0 0 1.72,-0.21 c 0.8,-0.27 1,-0.59 1.32,-0.46 a 1,1 0 0 1 0.51,1 c -0.08,0.7 -0.9,1.11 -1.63,1.52 -3.24,1.81 -4.23,3.29 -5,2.81 -0.57,-0.35 -0.42,-1.4 -0.9,-1.47 -0.48,-0.07 -0.61,0.73 -1.26,0.8 -0.65,0.07 -0.71,-0.51 -1.38,-0.6 -0.39,-0.05 -0.55,0.1 -1.88,0.82 -1.48,0.81 -1.85,0.93 -2.27,0.94 -0.42,0.01 -0.39,-0.1 -1.06,-0.12 -0.67,-0.02 -1.84,0.05 -1.91,0.38 -0.07,0.33 0.46,0.45 0.4,0.63 -0.06,0.18 -1,-0.13 -1.69,0.28 -0.33,0.18 -0.26,0.31 -1,1.31 -0.74,1 -1.08,1.21 -1.37,1.3 0,0.06 -0.63,0.27 -0.83,0.03 z"
         id="path283" />
      <path
         class="cls-30"
         d="m 382.67,214.85 c 0.1,-0.61 1.16,-0.52 2.6,-1.4 1,-0.63 1,-1 2.24,-1.71 a 4.44,4.44 0 0 1 1.65,-0.68 c 0.71,-0.09 0.81,0.13 1.76,0.1 0.95,-0.03 1.55,-0.34 1.81,-0.07 a 1,1 0 0 1 0,1 c -0.45,0.9 -1.64,0.47 -2.79,1.56 -0.32,0.32 -0.33,0.45 -0.8,0.88 -0.47,0.43 -0.87,0.58 -1,0.95 -0.13,0.37 0.08,0.38 0.08,1 a 1.88,1.88 0 0 1 -0.12,0.88 c -0.36,0.57 -1.34,0 -2.56,0.63 -0.6,0.29 -0.63,0.55 -1.13,0.62 -0.77,0.12 -1.56,-0.35 -1.53,-0.61 0.03,-0.26 1.1,-0.13 1.65,-0.81 0.55,-0.68 0.53,-1.39 0.23,-1.62 -0.3,-0.23 -1,0.48 -1.62,0.18 a 0.92,0.92 0 0 1 -0.47,-0.9 z"
         id="path285" />
      <path
         class="cls-30"
         d="m 331.33,127.8 c -0.83,0.6 -1.48,0.76 -2.62,1.63 a 1.92,1.92 0 0 0 -0.83,1.09 c -0.08,0.34 0,0.44 -0.06,0.71 -0.24,0.66 -1.08,0.68 -1.08,1 0,0.32 1,0.68 1.58,0.87 a 3.4,3.4 0 0 0 1.37,0.28 c 0.93,-0.14 1,-1 2.16,-1.46 a 4.06,4.06 0 0 1 1.34,-0.18 15.23,15.23 0 0 1 2.91,0.21 c 2.93,0.38 3.25,0.44 3.71,0.17 a 2.45,2.45 0 0 1 1.15,-0.43 c 0.09,0 0.82,0 1,0.29 0.18,0.29 -0.55,0.78 -0.39,1.15 0.16,0.37 0.68,0.3 1,0.31 a 1.4,1.4 0 0 0 1.05,-0.24 c 0.29,-0.29 0.16,-0.65 0.39,-0.74 0.23,-0.09 0.32,0.07 0.95,0.56 l 0.77,0.58 a 4.82,4.82 0 0 0 1.28,0.81 c 0.53,0.18 0.65,0 1.32,0.18 a 4.84,4.84 0 0 1 1.12,0.47 4.26,4.26 0 0 0 2.85,0.38 c 0,-0.09 -0.73,-0.26 -0.71,-0.33 a 15.69,15.69 0 0 1 2.77,0.35 c 2.36,0.36 2.76,0.39 3.35,0.28 0.88,-0.17 0.8,-0.38 1.73,-0.51 a 11.15,11.15 0 0 0 2.31,-0.31 2.63,2.63 0 0 0 0.77,-0.38 c 0.29,-0.19 0.65,-0.44 0.67,-0.73 0.02,-0.29 -0.59,-0.75 -1.12,-1 -1.44,-0.77 -2,-0.5 -3.06,-1.23 -0.6,-0.42 -0.52,-0.59 -1,-0.81 -0.88,-0.39 -1.54,-0.06 -1.89,-0.51 -0.15,-0.19 -0.15,-0.45 -0.13,-1 0,-1.07 0.4,-1.29 0.23,-1.62 -0.17,-0.33 -1.17,-0.47 -3.07,-0.55 -0.73,0 -1,0 -1.26,-0.2 -0.59,-0.38 -0.43,-0.93 -1.06,-1.6 -0.38,-0.41 -1.14,-1 -1.67,-0.76 -0.14,0.06 -0.2,0.15 -1,1.45 -0.26,0.43 -0.36,0.59 -0.52,0.6 -0.16,0.01 -0.62,-0.46 -0.65,-0.91 -0.03,-0.45 0.37,-0.85 0.25,-1 -0.12,-0.15 -0.81,0.11 -2.23,0.48 -1,0.27 -1.37,0.29 -1.59,0.09 -0.22,-0.2 -0.08,-0.58 -0.38,-0.9 -0.3,-0.32 -0.64,-0.29 -1.37,-0.29 a 2.89,2.89 0 0 0 -1.92,0.39 c -0.39,0.31 -0.32,0.54 -0.64,0.66 -0.32,0.12 -0.81,-0.22 -1.56,-0.4 a 3.78,3.78 0 0 0 -1.57,0 6.31,6.31 0 0 0 -3,1.38 c -1.04,0.86 -0.67,1.02 -1.65,1.72 z"
         id="path287" />
      <path
         class="cls-30"
         d="m 359.15,154.75 c 1.77,2.54 -1.13,6.11 -0.11,9 a 7.31,7.31 0 0 1 1.15,-3.83 4.06,4.06 0 0 1 1.91,-1.69 2.17,2.17 0 0 1 2.38,0.49 c 0.28,0.32 0.43,0.74 0.74,1 0.8,0.76 2.11,0.3 3.14,-0.12 1.03,-0.42 2.5,-0.61 3,0.39 0.4,0.8 -0.19,1.74 -0.85,2.34 -0.66,0.6 -1.48,1.17 -1.67,2 a 5.2,5.2 0 0 0 0.33,2.15 1.77,1.77 0 0 1 -0.56,2 5,5 0 0 0 -2.33,-4.71 l -0.57,5.13 a 1.89,1.89 0 0 1 -0.32,1 c -0.33,0.4 -0.9,0.45 -1.38,0.64 a 1.93,1.93 0 0 0 -1,2.8 c 1.06,1.31 3.73,0.36 4.48,1.86 a 2,2 0 0 1 -0.61,2.21 c -0.57,0.57 -1.32,1 -1.9,1.52 a 4.16,4.16 0 0 0 -1.05,4.13 3.6,3.6 0 0 1 0.37,1.9 c -0.44,1.66 -3.55,1.1 -4.06,2.74 0.43,0.73 1.5,0.6 2.32,0.82 1.51,0.42 2.21,2.31 1.87,3.85 a 9.17,9.17 0 0 1 -2.48,4 9.6,9.6 0 0 0 -2.5,3.95 c -1.08,4.53 4.56,8.45 3.94,13.06 -0.95,0.54 -2.13,-0.23 -2.76,-1.13 -0.63,-0.9 -1.07,-2 -2,-2.54 -2,-1.1 -4.95,0.81 -6.46,-0.85 -0.55,-0.6 -0.86,-1.64 -1.68,-1.65 a 1.49,1.49 0 0 0 -0.78,0.29 4.56,4.56 0 0 0 -1.95,3.16 10.17,10.17 0 0 1 -0.21,1.92 c -0.46,1.44 -2.06,2.07 -3.37,2.82 a 11.08,11.08 0 0 0 -5.31,10.8 c 0.16,1.23 0.49,2.63 -0.3,3.58 a 2.67,2.67 0 0 1 -2,0.83 c -2.58,0.12 -4.83,-2 -5.66,-4.48 -0.83,-2.48 -0.55,-5.11 -0.19,-7.67 0.46,-3.3 1.23,-6.92 3.9,-8.93 0.92,-0.7 2,-1.15 2.92,-1.9 3.16,-2.63 2.78,-7.94 5.83,-10.7 1.58,-1.43 3.91,-2 5.15,-3.71 a 8.4,8.4 0 0 0 1.16,-4.28 c 0.21,-2.49 0.42,-5.08 1.63,-7.27 1.21,-2.19 3.34,-3.81 4.41,-6.09 1.46,-3.1 0.7,-6.89 2.14,-10 a 6.77,6.77 0 0 0 0.8,-2 7.85,7.85 0 0 0 -0.63,-2.78 5.78,5.78 0 0 1 0.97,-4.8"
         id="path289" />
      <path
         class="cls-30"
         d="m 358.68,165.73 a 7.79,7.79 0 0 1 0,-7.56 11.37,11.37 0 0 1 5.94,-5 1.92,1.92 0 0 0 1,-0.67 c 0.44,-0.75 -0.39,-1.64 -0.38,-2.5 0,-1.09 1.31,-1.91 1.13,-3 -0.18,-1.09 -1.89,-1.32 -3,-0.82 -1.11,0.5 -2.17,1.35 -3.33,1.08 -0.84,-0.19 -1.44,-0.91 -2.19,-1.34 -2.5,-1.42 -6,0.73 -8.43,-0.85 -0.6,-0.39 -1.17,-1 -1.87,-0.91 -0.93,0.14 -1.2,1.35 -1.93,1.93 -1,0.8 -2.46,0.19 -3.71,-0.13 a 7.46,7.46 0 0 0 -8,3.23 l 1.77,3.79 c -1.26,0.11 -1.1,2.1 -0.25,3 0.85,0.9 2.12,1.88 1.86,3.11 -0.31,1.49 -2.42,1.61 -3.84,1.07 -1.42,-0.54 -3,-1.39 -4.33,-0.65 -1.33,0.74 -1.58,2.61 -2.9,3.27 -1.05,0.52 -2.3,0 -3.34,-0.48 -1.72,-0.86 -3.63,-2.46 -3.08,-4.31 0.55,-1.85 3.43,-2.39 4.07,-4.31 0.51,-1.54 -0.69,-3.3 -0.07,-4.79 0.32,-0.78 1.11,-1.36 1.2,-2.2 0.11,-1.12 -1.21,-2 -2.3,-1.75 a 3.9,3.9 0 0 0 -2.45,2.14 1.63,1.63 0 0 1 -0.53,0.68 c -0.52,0.3 -1.14,-0.09 -1.71,-0.25 -1.5,-0.4 -2.91,0.89 -3.72,2.21 -0.31,0.5 -0.62,1.07 -1.18,1.27 a 3.94,3.94 0 0 1 -1.67,-0.06 c -2.83,-0.3 -4.76,2.91 -5.16,5.74 a 2.1,2.1 0 0 1 -0.41,1.18 c -0.67,0.7 -1.91,0 -2.28,-0.88 -0.37,-0.88 -0.31,-1.94 -0.76,-2.8 a 2.74,2.74 0 0 0 -4.37,-0.39 c -0.56,0.73 -0.84,1.82 -1.73,2 -0.89,0.18 -1.57,-0.52 -2.29,-1 a 4.31,4.31 0 0 0 -5.77,1.3 c -0.4,0.65 -0.74,1.51 -1.5,1.63 -1.89,0.32 -1.55,-3.85 -3.45,-4 a 1.78,1.78 0 0 0 -1.3,0.61 c -3,3 0.22,9 -2.89,11.8 l 16,12.69 a 5.26,5.26 0 0 1 1.72,1.89 5.56,5.56 0 0 1 0.16,2.87 c -0.47,4.22 0,9.36 3.72,11.41 a 7.31,7.31 0 0 0 -1.93,8.64 c 2,4.08 7.26,5.27 11.81,5.26 a 3.25,3.25 0 0 0 2.48,-0.75 c 0.95,-1 0.29,-2.83 1.06,-4 a 3.87,3.87 0 0 1 2.21,-1.3 l 17.58,-5.44 c 2.1,-0.65 4.36,-1.31 6.46,-0.67 1.5,0.45 2.74,1.51 4.16,2.17 1.42,0.66 3.32,0.81 4.38,-0.35 1.44,1.11 -0.29,4 1.22,5 a 3.49,3.49 0 0 0 1.48,0.38 5,5 0 0 1 3.96,3.08 c -2.66,0.51 -5.44,-0.22 -8.07,0.39 a 11,11 0 0 0 -6.79,5.56 32.68,32.68 0 0 0 -2.94,8.5 z"
         id="path291" />
    </g>
    <path
       class="cls-31"
       d="M 279.78,250.1 A 87.15,87.15 0 0 1 381.38,127.82 87.15,87.15 0 1 0 324.94,292.41 86.86,86.86 0 0 1 279.78,250.1 Z"
       id="path295" />
    <path
       class="cls-32"
       d="M 386.56,286.72 A 87.2,87.2 0 0 1 263.13,227.19 c 22.64,15.55 55.55,28.84 93.55,15.56 46.33,-16.19 59.45,-57.18 62.91,-84.43 a 87.25,87.25 0 0 1 -33,128.4 z"
       id="path297" />
    <path
       class="cls-32"
       d="M 426.55,170.13 A 87.15,87.15 0 0 1 315.75,289.29 C 416.86,274.47 420.57,159.06 394.21,134.37 a 86.79,86.79 0 0 1 32.34,35.76 z"
       id="path299" />
    <path
       class="cls-20"
       d="m 351.72,323.28 c 0,0 2.92,-55.29 -26,-67.8 -28.92,-12.51 -57.9,-3.89 -80.58,-31.25 0,0 0.32,89.46 89.65,78.67 0,0 13.95,9.25 12,70.61 H 353 Z"
       id="path301" />
    <path
       class="cls-20"
       d="m 356.46,373.51 c 0,0 -4.92,-45.63 7,-62.18 C 375.38,294.78 432,304.68 446,267 c 14,-37.68 28.47,-44.75 28.47,-44.75 0,0 -65.58,-14.84 -94.53,22.88 C 350.99,282.85 350.82,335 351,373.51 Z"
       id="path303" />
    <path
       class="cls-11"
       d="M 361.41,299.46 A 120.55,120.55 0 0 0 383,281.86 c 6.51,-6.62 12.43,-13.8 18.6,-20.87 3.12,-3.51 6.29,-7 9.71,-10.27 a 77,77 0 0 1 11.08,-8.94 51.3,51.3 0 0 1 12.84,-6.16 49.44,49.44 0 0 1 13.93,-2.22 60.2,60.2 0 0 0 -13.45,3.6 55.83,55.83 0 0 0 -12,6.7 86.68,86.68 0 0 0 -10.42,9 c -3.27,3.26 -6.38,6.7 -9.44,10.22 -3.06,3.52 -6.15,7 -9.31,10.5 -3.16,3.5 -6.43,6.88 -9.92,10.06 a 89.29,89.29 0 0 1 -23.21,15.98 z"
       id="path305" />
    <path
       class="cls-33"
       d="m 339.71,292.64 a 54,54 0 0 0 -10.63,-7.86 73.68,73.68 0 0 0 -12,-5.38 c -4.14,-1.46 -8.37,-2.73 -12.64,-3.94 -4.27,-1.21 -8.55,-2.49 -12.8,-3.93 a 96.92,96.92 0 0 1 -12.46,-5.24 65.06,65.06 0 0 1 -11.36,-7.42 60.37,60.37 0 0 1 -9.46,-9.65 72.5,72.5 0 0 1 -7.16,-11.33 103.22,103.22 0 0 0 8.28,10.38 69.29,69.29 0 0 0 9.78,8.75 84,84 0 0 0 23.36,11.68 c 8.3,2.91 17,5.06 25.3,8.52 a 64.25,64.25 0 0 1 11.93,6.32 44.9,44.9 0 0 1 9.86,9.1 z"
       id="path307" />
    <path
       class="cls-17"
       d="m 405.28,391.7 -15.26,0.18 c -13.26,0.13 -33.17,0.3 -51.45,0.29 h -37.35 c 0.37,-3.87 3.53,-10.64 7.35,-11.35 a 7.53,7.53 0 0 0 2.32,-0.58 c 1.56,-0.88 1.8,-3 2.57,-4.59 a 6.67,6.67 0 0 1 6.18,-3.68 4.86,4.86 0 0 0 1.66,0 c 1.39,-0.4 1.75,-2.14 2.43,-3.41 a 7.34,7.34 0 0 1 5.54,-3.42 26.68,26.68 0 0 1 6.73,0.28 28.62,28.62 0 0 0 3.07,0.22 11.93,11.93 0 0 0 3.66,-0.49 32.59,32.59 0 0 0 4.46,-2.14 21.11,21.11 0 0 1 18.8,0.2 5.28,5.28 0 0 0 2.2,0.8 6.21,6.21 0 0 0 2.13,-0.55 8.72,8.72 0 0 1 8.13,1.47 c 1.17,1 2.13,2.26 3.53,2.83 a 11.19,11.19 0 0 0 3.11,0.52 14.52,14.52 0 0 1 11.44,8.39 c 0.75,1.71 1.18,3.59 2.31,5.08 a 33.43,33.43 0 0 0 3.22,3.07 c 1.84,1.8 3.22,6.88 3.22,6.88 z"
       id="path309" />
    <path
       class="cls-34"
       d="m 405.28,391.24 q -11.7,0.15 -23.4,0.25 -17.25,0.17 -34.5,0.21 h -41.69 c -1.4,0 -2.87,-0.12 -4.28,0 h -0.19 l 0.48,0.42 a 16.43,16.43 0 0 1 1.54,-5.14 13.7,13.7 0 0 1 3.18,-4.55 5,5 0 0 1 2,-1.13 7.8,7.8 0 0 0 3,-0.87 c 1.64,-1.19 1.74,-3.37 2.68,-5 a 6.14,6.14 0 0 1 5.42,-3 3.71,3.71 0 0 0 2.87,-0.59 6.62,6.62 0 0 0 1.42,-2.38 6.56,6.56 0 0 1 4.91,-3.79 c 2.76,-0.58 5.59,0.06 8.34,0.3 a 14,14 0 0 0 7.53,-1.12 c 1.17,-0.57 2.29,-1.26 3.48,-1.78 a 19.83,19.83 0 0 1 3.33,-1.14 20.67,20.67 0 0 1 14.17,1.58 5,5 0 0 0 3.34,0.86 23.56,23.56 0 0 1 3.52,-0.89 8.41,8.41 0 0 1 6.36,2.38 11.82,11.82 0 0 0 2.6,2.13 9.77,9.77 0 0 0 3.58,0.72 13.75,13.75 0 0 1 6,2.19 14.13,14.13 0 0 1 4.39,4.55 c 1.21,2 1.57,4.45 2.95,6.38 1.22,1.72 3.21,2.7 4.3,4.53 a 21.45,21.45 0 0 1 1.94,4.61 c 0.09,0.3 0.19,0.59 0.27,0.89 0.16,0.58 1.09,0.23 0.94,-0.32 -0.77,-2.8 -1.83,-5.8 -4.05,-7.76 A 14.33,14.33 0 0 1 399,381 a 17.32,17.32 0 0 1 -1.5,-3.38 15.43,15.43 0 0 0 -3.48,-5.56 15.08,15.08 0 0 0 -5.37,-3.46 13.86,13.86 0 0 0 -3,-0.78 c -1.31,-0.19 -2.7,-0.11 -3.88,-0.79 a 19.48,19.48 0 0 1 -2.75,-2.39 8.84,8.84 0 0 0 -3,-1.66 9.57,9.57 0 0 0 -3.32,-0.46 12.54,12.54 0 0 0 -3.37,0.79 c -1.44,0.47 -2.51,-0.36 -3.77,-0.94 a 20.9,20.9 0 0 0 -3.42,-1.25 21.73,21.73 0 0 0 -7.32,-0.67 20.86,20.86 0 0 0 -7,1.77 c -1.15,0.51 -2.24,1.16 -3.37,1.72 a 10.86,10.86 0 0 1 -4.12,1.15 c -5,0.36 -10.84,-2.23 -15.26,1.29 a 6.53,6.53 0 0 0 -1.88,2.38 c -0.39,0.83 -0.69,2 -1.48,2.52 a 2.86,2.86 0 0 1 -1.85,0.21 6.79,6.79 0 0 0 -1.56,0.1 7.26,7.26 0 0 0 -2.89,1.22 7.08,7.08 0 0 0 -2.06,2.23 21.53,21.53 0 0 0 -1.16,2.87 3.19,3.19 0 0 1 -2.06,2.16 13.85,13.85 0 0 0 -2.78,0.72 9.92,9.92 0 0 0 -3.73,3.74 19.83,19.83 0 0 0 -2.33,5.29 13.71,13.71 0 0 0 -0.46,2.38 c 0,0.27 0.26,0.41 0.49,0.41 H 343 q 17.58,0 35.14,-0.18 13.34,-0.1 26.67,-0.28 h 0.52 a 0.46,0.46 0 1 0 -0.05,-0.91 z"
       id="path311" />
    <path
       class="cls-35"
       d="m 405.28,391.7 -15.26,0.18 a 51.21,51.21 0 0 0 -2.89,-6.57 c -2.67,-4.33 -6,-4.16 -13.84,-4.16 -7.84,0 -15.83,-0.34 -22.35,-8.34 a 18.91,18.91 0 0 0 -11.87,-7.2 11.93,11.93 0 0 0 3.66,-0.49 32.59,32.59 0 0 0 4.46,-2.14 21.11,21.11 0 0 1 18.8,0.2 5.28,5.28 0 0 0 2.2,0.8 6.21,6.21 0 0 0 2.13,-0.55 8.72,8.72 0 0 1 8.13,1.47 c 1.17,1 2.13,2.26 3.53,2.83 a 11.19,11.19 0 0 0 3.11,0.52 14.52,14.52 0 0 1 11.44,8.39 c 0.75,1.71 1.18,3.59 2.31,5.08 a 33.43,33.43 0 0 0 3.22,3.07 c 1.84,1.83 3.22,6.91 3.22,6.91 z"
       id="path313" />
    <ellipse
       class="cls-35"
       cx="337.76999"
       cy="378.54001"
       rx="2.8099999"
       ry="1.1900001"
       id="ellipse315" />
    <ellipse
       class="cls-35"
       cx="350.20001"
       cy="384.92001"
       rx="2.74"
       ry="1.1900001"
       id="ellipse317" />
    <ellipse
       class="cls-35"
       cx="322.89001"
       cy="383.98001"
       rx="6.3099999"
       ry="2.75"
       id="ellipse319" />
    <ellipse
       class="cls-35"
       cx="375.70999"
       cy="387.60999"
       rx="2.75"
       ry="1.5"
       id="ellipse321" />
    <path
       class="cls-17"
       d="m 283.71,392.17 c 0,0 -0.73,-4.33 -2.08,-5.27 -1.35,-0.94 -1.88,-2.19 -3.24,-3.29 -1.36,-1.1 -2.82,-0.16 -4.07,-1.31 -1.25,-1.15 -1.43,-1.35 -3,-1.35 -1.57,0 -2.68,3.35 -3.83,2.66 a 3.86,3.86 0 0 0 -3.86,0.47 c -0.7,0.44 -1.52,0 -2.26,0.35 -0.49,0.2 -0.58,1.83 -1.3,1.91 a 2,2 0 0 0 -1.66,2.09 c 0,0 -1.28,0.72 -1.59,1 a 2.35,2.35 0 0 0 -0.63,2.78 z"
       id="path323" />
    <path
       class="cls-11"
       d="m 269.63,369.39 c 0,0 -4.25,-3.54 -1,-10.54 0.03,0 6.54,4.26 1,10.54 z"
       id="path325" />
    <path
       class="cls-11"
       d="m 271.35,375.4 a 3.92,3.92 0 0 1 2.15,-4.33 c 2.87,-1.62 2.87,-2.82 2.87,-2.82 0,0 0.88,8.87 -5.02,7.15 z"
       id="path327" />
    <path
       class="cls-12"
       d="m 274.18,372.57 a 0.42,0.42 0 0 0 -0.55,0.21 c -0.71,1.65 -2.66,2.39 -3.58,2.66 v -13 a 0.42,0.42 0 0 0 -0.84,0 v 22.66 a 0.42,0.42 0 0 0 0.84,0 v -8.75 c 0.91,-0.23 3.42,-1.05 4.35,-3.19 a 0.41,0.41 0 0 0 -0.22,-0.59 z"
       id="path329" />
    <path
       class="cls-17"
       d="m 322.9,411.92 c 0,0 0.73,-4.34 2.08,-5.28 1.35,-0.94 1.88,-2.18 3.24,-3.28 1.36,-1.1 2.82,-0.16 4.07,-1.31 1.25,-1.15 1.43,-1.36 3,-1.36 1.57,0 2.68,3.35 3.83,2.67 a 3.86,3.86 0 0 1 3.86,0.46 c 0.7,0.45 1.52,0 2.26,0.35 0.49,0.21 0.58,1.83 1.3,1.92 a 2,2 0 0 1 1.66,2.08 c 0,0 1.28,0.73 1.59,1 a 2.36,2.36 0 0 1 0.63,2.79 z"
       id="path331" />
    <path
       class="cls-11"
       d="m 337,389.13 c 0,0 4.25,-3.54 1,-10.53 0,0 -6.56,4.25 -1,10.53 z"
       id="path333" />
    <path
       class="cls-11"
       d="m 335.26,395.15 a 3.92,3.92 0 0 0 -2.15,-4.33 c -2.87,-1.62 -2.87,-2.82 -2.87,-2.82 0,0 -0.88,8.87 5.02,7.15 z"
       id="path335" />
    <path
       class="cls-12"
       d="m 332.43,392.31 a 0.43,0.43 0 0 1 0.55,0.22 c 0.71,1.64 2.66,2.39 3.58,2.66 v -13 a 0.42,0.42 0 0 1 0.42,-0.42 0.41,0.41 0 0 1 0.41,0.42 v 22.66 a 0.41,0.41 0 0 1 -0.41,0.42 0.42,0.42 0 0 1 -0.42,-0.42 v -8.75 c -0.91,-0.24 -3.42,-1.06 -4.35,-3.2 a 0.41,0.41 0 0 1 0.22,-0.59 z"
       id="path337" />
    <path
       class="cls-17"
       d="m 391.33,404.12 c 0,0 -0.73,-4.33 -2.08,-5.27 -1.35,-0.94 -1.88,-2.19 -3.24,-3.29 -1.36,-1.1 -2.82,-0.16 -4.07,-1.31 -1.25,-1.15 -1.44,-1.36 -3,-1.36 -1.56,0 -2.68,3.36 -3.83,2.67 a 3.86,3.86 0 0 0 -3.86,0.47 c -0.7,0.44 -1.52,0 -2.27,0.35 -0.48,0.2 -0.57,1.82 -1.29,1.91 a 2,2 0 0 0 -1.66,2.09 c 0,0 -1.28,0.72 -1.59,0.95 a 2.36,2.36 0 0 0 -0.63,2.79 z"
       id="path339" />
    <path
       class="cls-11"
       d="m 377.25,381.33 c 0,0 -4.25,-3.53 -1,-10.53 0.02,0 6.54,4.26 1,10.53 z"
       id="path341" />
    <path
       class="cls-11"
       d="m 379,387.35 a 3.92,3.92 0 0 1 2.14,-4.33 C 384,381.4 384,380.2 384,380.2 c 0,0 0.87,8.87 -5,7.15 z"
       id="path343" />
    <path
       class="cls-12"
       d="m 381.8,384.51 a 0.43,0.43 0 0 0 -0.55,0.22 c -0.71,1.64 -2.66,2.39 -3.58,2.66 v -13 a 0.42,0.42 0 0 0 -0.84,0 V 397 a 0.42,0.42 0 0 0 0.84,0 v -8.75 c 0.91,-0.23 3.42,-1.06 4.35,-3.2 a 0.43,0.43 0 0 0 -0.22,-0.54 z"
       id="path345" />
    <path
       class="cls-17"
       d="m 308.85,397.89 c 0,0 -0.73,-4.33 -2.08,-5.27 -1.35,-0.94 -1.88,-2.19 -3.24,-3.29 -1.36,-1.1 -2.82,-0.16 -4.07,-1.31 -1.25,-1.15 -1.43,-1.36 -3,-1.36 -1.57,0 -2.68,3.36 -3.83,2.67 a 3.86,3.86 0 0 0 -3.86,0.47 c -0.7,0.44 -1.52,0 -2.26,0.35 -0.49,0.2 -0.58,1.83 -1.3,1.91 a 2,2 0 0 0 -1.66,2.09 c 0,0 -1.28,0.72 -1.59,1 a 2.36,2.36 0 0 0 -0.63,2.79 z"
       id="path347" />
    <path
       class="cls-11"
       d="m 294.77,375.1 c 0,0 -4.25,-3.53 -1,-10.53 0.03,0 6.54,4.26 1,10.53 z"
       id="path349" />
    <path
       class="cls-11"
       d="m 296.49,381.12 a 3.92,3.92 0 0 1 2.15,-4.33 c 2.87,-1.62 2.87,-2.82 2.87,-2.82 0,0 0.88,8.87 -5.02,7.15 z"
       id="path351" />
    <path
       class="cls-12"
       d="m 299.32,378.28 a 0.44,0.44 0 0 0 -0.55,0.22 c -0.71,1.64 -2.66,2.39 -3.58,2.66 v -13 a 0.42,0.42 0 1 0 -0.84,0 v 22.66 a 0.42,0.42 0 0 0 0.84,0 V 382 c 0.91,-0.23 3.42,-1.06 4.35,-3.2 a 0.42,0.42 0 0 0 -0.22,-0.52 z"
       id="path353" />
    <path
       class="cls-17"
       d="m 397.23,391.82 c 0,0 0.73,-4.33 2.09,-5.27 1.36,-0.94 1.88,-2.18 3.24,-3.29 1.36,-1.11 2.82,-0.16 4.07,-1.31 1.25,-1.15 1.43,-1.35 3,-1.35 1.57,0 2.68,3.35 3.83,2.66 a 3.86,3.86 0 0 1 3.86,0.47 c 0.69,0.44 1.52,0 2.26,0.35 0.49,0.2 0.57,1.83 1.29,1.92 a 2,2 0 0 1 1.67,2.08 c 0,0 1.28,0.72 1.58,1 a 2.33,2.33 0 0 1 0.63,2.78 z"
       id="path355" />
    <path
       class="cls-11"
       d="m 411.31,369 c 0,0 4.26,-3.54 1,-10.54 -0.02,0.04 -6.53,4.3 -1,10.54 z"
       id="path357" />
    <path
       class="cls-11"
       d="m 409.59,375.05 a 3.92,3.92 0 0 0 -2.14,-4.33 c -2.87,-1.62 -2.87,-2.82 -2.87,-2.82 0,0 -0.89,8.87 5.01,7.15 z"
       id="path359" />
    <path
       class="cls-12"
       d="m 406.76,372.22 a 0.42,0.42 0 0 1 0.55,0.21 c 0.72,1.65 2.67,2.4 3.59,2.66 v -13 a 0.42,0.42 0 0 1 0.83,0 v 22.66 a 0.42,0.42 0 1 1 -0.83,0 V 376 c -0.91,-0.23 -3.42,-1 -4.35,-3.19 a 0.41,0.41 0 0 1 0.21,-0.59 z"
       id="path361" />
    <path
       class="cls-17"
       d="m 449.26,405.18 c 0,0 -0.73,-4.33 -2.09,-5.27 -1.36,-0.94 -1.88,-2.18 -3.23,-3.28 -1.35,-1.1 -2.82,-0.17 -4.08,-1.31 -1.26,-1.14 -1.43,-1.36 -3,-1.36 -1.57,0 -2.67,3.35 -3.82,2.67 a 3.85,3.85 0 0 0 -3.87,0.46 c -0.69,0.44 -1.51,0 -2.26,0.35 -0.48,0.2 -0.57,1.83 -1.29,1.92 a 2,2 0 0 0 -1.67,2.08 c 0,0 -1.27,0.72 -1.58,1 a 2.33,2.33 0 0 0 -0.63,2.78 z"
       id="path363" />
    <path
       class="cls-11"
       d="m 435.18,382.4 c 0,0 -4.25,-3.54 -1,-10.53 0.02,0 6.53,4.25 1,10.53 z"
       id="path365" />
    <path
       class="cls-11"
       d="m 436.9,388.41 a 3.92,3.92 0 0 1 2.14,-4.33 c 2.87,-1.62 2.87,-2.82 2.87,-2.82 0,0 0.89,8.87 -5.01,7.15 z"
       id="path367" />
    <path
       class="cls-12"
       d="m 439.73,385.58 a 0.41,0.41 0 0 0 -0.55,0.22 c -0.71,1.64 -2.67,2.39 -3.58,2.66 v -13 a 0.42,0.42 0 0 0 -0.84,0 v 22.65 a 0.42,0.42 0 0 0 0.84,0 v -8.75 c 0.9,-0.23 3.42,-1.05 4.35,-3.19 a 0.42,0.42 0 0 0 -0.22,-0.59 z"
       id="path369" />
  </g>
</svg>
