<?xml version="1.0" encoding="UTF-8" standalone="no"?>
<svg
   xmlns:dc="http://purl.org/dc/elements/1.1/"
   xmlns:cc="http://creativecommons.org/ns#"
   xmlns:rdf="http://www.w3.org/1999/02/22-rdf-syntax-ns#"
   xmlns:svg="http://www.w3.org/2000/svg"
   xmlns="http://www.w3.org/2000/svg"
   xmlns:sodipodi="http://sodipodi.sourceforge.net/DTD/sodipodi-0.dtd"
   xmlns:inkscape="http://www.inkscape.org/namespaces/inkscape"
   id="Layer_1"
   data-name="Layer 1"
   viewBox="0 0 1046.2354 360.72"
   version="1.1"
   sodipodi:docname="SugarGain Logo final-01.svg"
   width="1046.2354"
   height="360.72"
   inkscape:version="1.0.1 (0767f8302a, 2020-10-17)">
  <metadata
     id="metadata89">
    <rdf:RDF>
      <cc:Work
         rdf:about="">
        <dc:format>image/svg+xml</dc:format>
        <dc:type
           rdf:resource="http://purl.org/dc/dcmitype/StillImage" />
        <dc:title></dc:title>
      </cc:Work>
    </rdf:RDF>
  </metadata>
  <sodipodi:namedview
     pagecolor="#ffffff"
     bordercolor="#666666"
     borderopacity="1"
     objecttolerance="10"
     gridtolerance="10"
     guidetolerance="10"
     inkscape:pageopacity="0"
     inkscape:pageshadow="2"
     inkscape:window-width="1858"
     inkscape:window-height="1016"
     id="namedview87"
     showgrid="false"
     lock-margins="true"
     fit-margin-top="20"
     fit-margin-left="20"
     fit-margin-right="20"
     fit-margin-bottom="20"
     inkscape:zoom="0.80555556"
     inkscape:cx="487.77161"
     inkscape:cy="94.223347"
     inkscape:window-x="62"
     inkscape:window-y="27"
     inkscape:window-maximized="1"
     inkscape:current-layer="Layer_1" />
  <defs
     id="defs4">
    <style
       id="style2">.cls-1,.cls-10,.cls-2,.cls-3,.cls-4,.cls-5,.cls-9{fill:none;}.cls-1{stroke:#1faaad;stroke-width:3px;}.cls-1,.cls-10{stroke-linecap:round;stroke-linejoin:round;}.cls-2,.cls-4{stroke:#25ced1;}.cls-2,.cls-3,.cls-4,.cls-5,.cls-9{stroke-miterlimit:10;}.cls-2,.cls-3{stroke-width:2px;}.cls-3{stroke:#ea526f;}.cls-4,.cls-5,.cls-9{stroke-width:2.5px;}.cls-5{stroke:#f56e65;}.cls-6{font-size:43.13px;fill:#ea526f;font-family:Futura-Bold, Futura;font-weight:700;letter-spacing:0.3em;}.cls-7{letter-spacing:0.27em;}.cls-8{letter-spacing:0.29em;}.cls-9{stroke:#92e7e8;}.cls-10{stroke:#ffc5ad;stroke-width:3.5px;}.cls-11{font-size:30px;fill:#1faaad;font-family:Poppins-Regular, Poppins;letter-spacing:0.2em;}</style>
  </defs>
  <polyline
     class="cls-1"
     points="379.95 674.39 390.29 692.05 210.75 695.58 170.32 627.29"
     id="polyline6"
     transform="translate(-95.340106,-356.35999)" />
  <polyline
     class="cls-1"
     points="373.61 407.5 390.29 378.35 482.18 533.36 390.29 692.05 379.95 674.39"
     id="polyline8"
     transform="translate(-95.340106,-356.35999)" />
  <polyline
     class="cls-1"
     points="364.07 424.16 299.51 536.96 116.84 536.96 205.66 378.35 390.29 378.35 373.52 407.65"
     id="polyline10"
     transform="translate(-95.340106,-356.35999)" />
  <polyline
     class="cls-1"
     points="370.4 658.08 299.51 536.96 364.07 424.16"
     id="polyline12"
     transform="translate(-95.340106,-356.35999)" />
  <polyline
     class="cls-1"
     points="161.19 611.88 116.84 536.96 299.51 536.96 370.4 658.08"
     id="polyline14"
     transform="translate(-95.340106,-356.35999)" />
  <path
     class="cls-2"
     d="m 226.4499,39.880011 c 47.14,-8.93 89.81,37.36 78.4,74.999999 m -14.84,5.3 c 9,-31.779999 -25.3,-71.069999 -62.89,-63.719999 m -0.67,-16.61 c -18.45,2.24 -12,20.56 0.67,16.61 m 62.89,63.719999 c -4.24,12.25 10.85,11.16 14.84,-5.3"
     id="path16" />
  <path
     class="cls-3"
     d="m 31.509894,199.57001 c -30.0599999,68.07 31.45,88.07 73.480006,58.07 m -3.59,-15.35 c -32.270006,25.25 -72.250006,16.73 -58.920006,-24.63 m 58.920006,24.63 c 10.33,-9.5 19,5.86 3.59,15.35"
     id="path18" />
  <path
     class="cls-3"
     d="m 217.2499,321.27001 c 51.85,26.47 109.28,-25.32 94.06,-61.61 m -15.31,-3.75 c 12.17,30.69 -36,71.93 -74.31,49.34 m -4.44,16 c -17.45,-6.38 -7,-22.76 4.44,-16 m 74.31,-49.34 c -5.48,-11.75 9.64,-12.21 15.31,3.75"
     id="path20" />
  <polygon
     class="cls-4"
     points="218.84,387.11 167.84,481.11 178.84,481.11 228.84,387.11 "
     id="polygon22"
     transform="translate(-95.340106,-356.35999)" />
  <polygon
     class="cls-4"
     points="241.26,387.11 202.84,459.11 213.46,459.09 252.14,387.11 "
     id="polygon24"
     transform="translate(-95.340106,-356.35999)" />
  <polygon
     class="cls-4"
     points="264.84,388.11 233.84,444.11 244.84,444.11 274.84,388.11 "
     id="polygon26"
     transform="translate(-95.340106,-356.35999)" />
  <circle
     class="cls-5"
     cx="192.48988"
     cy="203.90002"
     r="5.3899999"
     id="circle28" />
  <circle
     class="cls-5"
     cx="203.26988"
     cy="221.87"
     r="5.3899999"
     id="circle30" />
  <circle
     class="cls-5"
     cx="214.04991"
     cy="239.84003"
     r="5.3899999"
     id="circle32" />
  <circle
     class="cls-5"
     cx="224.83989"
     cy="257.81"
     r="5.3899999"
     id="circle34" />
  <text
     class="cls-6"
     id="text46"
     x="443.55072"
     y="174.3053"><tspan
       style="font-size:72px;letter-spacing:13.36px"
       id="tspan918">SUGARGAIN</tspan></text>
  <path
     class="cls-9"
     d="m 361.3299,188.64001 -5.7,9.58 a 1.76,1.76 0 0 1 -2.4,0.61 l -5.73,-9 c -1,-2 -1,-2 -0.54,-2.69 l 5.7,-9.58 a 1.75,1.75 0 0 1 2.4,-0.61 l 5.66,9.34 c 0.78,1.46 1.1,1.49 0.61,2.35 z"
     id="path48" />
  <path
     class="cls-9"
     d="m 338.3299,227.64001 -5.7,9.58 a 1.76,1.76 0 0 1 -2.4,0.61 l -5.73,-9 c -1,-2 -1,-2 -0.54,-2.69 l 5.7,-9.58 a 1.75,1.75 0 0 1 2.4,-0.61 l 5.66,9.34 c 0.78,1.46 1.1,1.49 0.61,2.35 z"
     id="path50" />
  <path
     class="cls-9"
     d="m 350.3299,206.64001 -5.7,9.58 a 1.76,1.76 0 0 1 -2.4,0.61 l -5.73,-9 c -1,-2 -1,-2 -0.54,-2.69 l 5.7,-9.58 a 1.75,1.75 0 0 1 2.4,-0.61 l 5.66,9.34 c 0.78,1.46 1.1,1.49 0.61,2.35 z"
     id="path52" />
  <line
     class="cls-10"
     x1="218.99989"
     y1="258.25"
     x2="146.99989"
     y2="259.25"
     id="line54" />
  <line
     class="cls-10"
     x1="192.99989"
     y1="338.25"
     x2="146.99989"
     y2="259.25"
     id="line56" />
  <line
     class="cls-10"
     x1="208.99989"
     y1="222.25"
     x2="228.99989"
     y2="222.25"
     id="line58" />
  <line
     class="cls-10"
     x1="277.49991"
     y1="136.75"
     x2="229.0999"
     y2="222.23999"
     id="line60" />
  <line
     class="cls-10"
     x1="326.78992"
     y1="220.53003"
     x2="277.49991"
     y2="136.75"
     id="line62" />
  <line
     class="cls-10"
     x1="339.1799"
     y1="199.46002"
     x2="317.49991"
     y2="161.75"
     id="line64" />
  <line
     class="cls-10"
     x1="346.49991"
     y1="108.75"
     x2="317.49991"
     y2="161.75"
     id="line66" />
  <line
     class="cls-10"
     x1="373.99991"
     y1="155.25"
     x2="358.99991"
     y2="181.25"
     id="line68" />
  <line
     class="cls-10"
     x1="196.49989"
     y1="80.75"
     x2="139.08989"
     y2="180.29004"
     id="line70" />
  <line
     class="cls-10"
     x1="248.49989"
     y1="58.75"
     x2="178.08989"
     y2="180.29004"
     id="line72" />
  <line
     class="cls-10"
     x1="270.49991"
     y1="21.75"
     x2="259.49991"
     y2="40.75"
     id="line74" />
  <line
     class="cls-10"
     x1="139.49989"
     y1="180.75"
     x2="175.49989"
     y2="240.75"
     id="line76" />
  <line
     class="cls-10"
     x1="178.49989"
     y1="180.75"
     x2="189.49989"
     y2="198.75"
     id="line78" />
  <line
     class="cls-10"
     x1="208.49989"
     y1="240.75"
     x2="176.49989"
     y2="240.75"
     id="line80" />
  <line
     class="cls-10"
     x1="154.49989"
     y1="80.75"
     x2="196.49989"
     y2="80.75"
     id="line82" />
  <text
     class="cls-11"
     id="text84"
     x="495.84854"
     y="250.66809"
     style="font-size:48px">iGEM BITS GOA</text>
</svg>
