<?xml version="1.0" encoding="utf-8"?>
<!-- Generator: Adobe Illustrator 21.1.0, SVG Export Plug-In . SVG Version: 6.00 Build 0)  -->
<svg version="1.1" id="Layer_1" xmlns="http://www.w3.org/2000/svg" xmlns:xlink="http://www.w3.org/1999/xlink" x="0px" y="0px"
	 viewBox="0 0 215 80" style="enable-background:new 0 0 215 80;" xml:space="preserve">
<style type="text/css">
	.st0{fill:#AE7B2C;}
	.st1{fill:#7C4F20;}
	.st2{fill:#D88B3D;}
	.st3{fill:#231F20;}
</style>
<g>
	<rect x="73.8" y="45.2" class="st0" width="67.4" height="20.7"/>
	<circle class="st1" cx="107.5" cy="37.4" r="28.5"/>
	<circle class="st2" cx="107.5" cy="37.4" r="25.4"/>
	<polygon class="st0" points="47.9,45.2 58.2,58.2 47.9,71.1 68.6,71.1 68.6,45.2 	"/>
	<polygon class="st0" points="156.8,58.2 167.1,45.2 146.4,45.2 146.4,71.1 167.1,71.1 158.8,60.7 	"/>
	<g>
		<path class="st3" d="M91,34.8c1.7,0,2.5,0.8,2.5,2.5c0,0.9-0.3,1.5-0.9,1.8c0.7,0.3,1,1,1,1.9c0,1.7-0.8,2.5-2.5,2.5H88v-8.7H91z
			 M91,38.6c0.8,0,1.2-0.4,1.2-1.2c0-0.8-0.4-1.2-1.2-1.2h-1.7v2.5L91,38.6L91,38.6z M91.1,42.2c0.8,0,1.2-0.4,1.2-1.2
			s-0.4-1.2-1.2-1.2h-1.8v2.5L91.1,42.2L91.1,42.2z"/>
		<path class="st3" d="M97.9,34.8c1.7,0,2.5,0.8,2.5,2.5c-0.1,1.4-0.6,2.2-1.7,2.4l2.4,3.8h-1.6l-2.2-3.7H96v3.6h-1.2v-8.6H97.9z
			 M97.9,38.6c0.8,0,1.2-0.4,1.2-1.2c0-0.8-0.4-1.2-1.2-1.2H96v2.5L97.9,38.6L97.9,38.6z"/>
		<path class="st3" d="M107.2,38.2v2c0,2.2-0.9,3.4-2.8,3.4s-2.8-1.2-2.8-3.4v-2c0-2.3,0.9-3.5,2.8-3.5S107.2,35.9,107.2,38.2z
			 M104.4,35.9c-1,0-1.6,0.7-1.6,2.2v2c0,1.4,0.5,2.2,1.6,2.2c1,0,1.6-0.7,1.6-2.2v-2C105.9,36.7,105.4,35.9,104.4,35.9z"/>
		<path class="st3" d="M108.4,43.5v-8.6h1.2l3.1,6.2v-6.2h1.2v8.6h-1.2l-3.1-6.2v6.2H108.4z"/>
		<path class="st3" d="M120.7,34.8V36l-4,6.2h4.1v1.3h-5.6v-1.2l4-6.2h-3.8v-1.3H120.7z"/>
		<path class="st3" d="M127,34.8V36h-3.7v2.5h3.4v1.2h-3.4v2.5h3.7v1.3h-5v-8.6H127z"/>
	</g>
</g>
</svg>
