<?xml version="1.0" encoding="UTF-8" standalone="no"?>
<svg
   xmlns:dc="http://purl.org/dc/elements/1.1/"
   xmlns:cc="http://creativecommons.org/ns#"
   xmlns:rdf="http://www.w3.org/1999/02/22-rdf-syntax-ns#"
   xmlns:svg="http://www.w3.org/2000/svg"
   xmlns="http://www.w3.org/2000/svg"
   xmlns:sodipodi="http://sodipodi.sourceforge.net/DTD/sodipodi-0.dtd"
   xmlns:inkscape="http://www.inkscape.org/namespaces/inkscape"
   viewBox="0 0 2594.99 1341.5212"
   version="1.1"
   id="svg5320"
   sodipodi:docname="Collaborations--header.svg"
   inkscape:version="1.0.1 (0767f8302a, 2020-10-17)"
   width="2594.99"
   height="1341.5212">
  <metadata
     id="metadata5324">
    <rdf:RDF>
      <cc:Work
         rdf:about="">
        <dc:format>image/svg+xml</dc:format>
        <dc:type
           rdf:resource="http://purl.org/dc/dcmitype/StillImage" />
        <dc:title></dc:title>
      </cc:Work>
    </rdf:RDF>
  </metadata>
  <sodipodi:namedview
     pagecolor="#ffffff"
     bordercolor="#666666"
     borderopacity="1"
     objecttolerance="10"
     gridtolerance="10"
     guidetolerance="10"
     inkscape:pageopacity="0"
     inkscape:pageshadow="2"
     inkscape:window-width="1858"
     inkscape:window-height="1016"
     id="namedview5322"
     showgrid="false"
     inkscape:zoom="0.41411765"
     inkscape:cx="1297.5"
     inkscape:cy="670.76117"
     inkscape:window-x="62"
     inkscape:window-y="27"
     inkscape:window-maximized="1"
     inkscape:current-layer="svg5320"
     showguides="false"
     fit-margin-top="10"
     lock-margins="true"
     fit-margin-left="10"
     fit-margin-right="10"
     fit-margin-bottom="10" />
  <defs
     id="defs5186">
    <style
       id="style5184">.cls-1{fill:#1faaad;}.cls-2{opacity:0.3;}.cls-3{fill:#92e7e8;}.cls-4{fill:#032624;}.cls-5{fill:#ffd2b3;}.cls-6{fill:#25ced1;}.cls-7{fill:#187a7a;}.cls-8{fill:#5b061b;}.cls-9{fill:#eaae86;}.cls-10{fill:#ea526f;}.cls-11{fill:#fff3f3;}.cls-12{fill:#f7a9c9;}.cls-13{fill:#516b6b;}.cls-14{fill:#084f4a;}.cls-15{fill:#63422c;}.cls-16{fill:#4f321d;}.cls-17{fill:#d875a2;}.cls-18{fill:#e291b6;}.cls-19{fill:#bf558a;}.cls-20{fill:#2c3a64;}.cls-21{fill:#ea8e50;}.cls-22{fill:#1e3d70;}.cls-23{fill:#ffb07b;}.cls-24{fill:#c0fffd;}.cls-25{fill:#96e2de;}.cls-26{fill:#233862;}</style>
  </defs>
  <g
     id="Layer_2"
     data-name="Layer 2"
     class="cls-2"
     transform="translate(-190,-179.23883)">
    <path
       class="cls-3"
       d="m 541.91,1503.26 c 0,0 -497.43,-497.86 -188.52,-795.53 C 662.3,410.06 906.45,796.49 1075.3,768 1289,732 1381.46,189.76 1701,189.24 c 363.53,-0.58 630.36,214.32 488.23,726.12 -104.83,377.48 615.73,68.36 509.9,595.24 z"
       id="path5191" />
  </g>
  <g
     id="Layer_3"
     data-name="Layer 3"
     transform="translate(-190,-179.23883)">
    <path
       class="cls-4"
       d="m 1626.84,1438.57 c -67.62,-10.89 -118.67,12.8 -167.76,6 -39.15,-5.43 -59.55,-45 -112.16,-56.25 12.51,-7.38 27.09,-16.61 34.06,-23.32 13.54,-13 33,-39.12 0,-40.15 -23.73,-0.74 -42.22,38.79 -50.72,61 a 161.66,161.66 0 0 0 -25.41,0 c 10.86,-35 32,-102.74 37.22,-115.75 7,-17.71 -22.56,-76.75 -57.45,-10.49 -24.48,46.47 -7.86,100.18 4.25,128.11 a 193.78,193.78 0 0 0 -27.2,6.46 c -28.83,-65.79 -120.56,-253.34 -220,-230 -108.4,25.4 123.84,151.49 182.41,245 -47.85,22.18 -89.89,49.12 -162.57,29.45 -193.14,-52.29 -208.46,65.36 -208.46,65.36 l 863.11,0.29 c 0,0 -21.7,-54.83 -89.32,-65.71 z"
       id="path5194" />
    <path
       class="cls-5"
       d="m 1392.05,1015.23 c 0.88,8.3 12.64,8 25.92,6 13.28,-2 9.85,1.5 28.53,1.14 18.68,-0.36 24.91,-6.74 25.72,-9.44 0.73,-2.39 -8.33,-4.09 -18,-6.11 l -3.67,-0.78 c -10.93,-2.4 -18.39,-10.28 -27.9,-17.06 -9,-6.42 -15.09,-35.85 -15.09,-35.85 L 1381,953 c 0,0 8.34,26.62 12.69,35.88 2.55,5.44 -0.17,12.43 -1,17.67 a 32.49,32.49 0 0 0 -0.64,8.68 z"
       id="path5196" />
    <path
       class="cls-6"
       d="m 1418,1021.24 c 13.28,-2 9.85,1.5 28.53,1.14 18.68,-0.36 24.91,-6.74 25.72,-9.44 0.73,-2.39 -8.33,-4.09 -18,-6.11 l -0.11,0.18 a 52.36,52.36 0 0 1 -27.23,5.82 c -12.57,-0.84 -25.53,-5.65 -34.21,-6.3 a 32.49,32.49 0 0 0 -0.59,8.7 c 0.82,8.3 12.58,8 25.89,6.01 z"
       id="path5198" />
    <path
       class="cls-5"
       d="m 1184.46,1013.91 c 0.58,8.33 12.33,8.48 25.68,7 13.35,-1.48 9.79,1.87 28.47,2.21 18.68,0.34 25.14,-5.8 26.06,-8.46 0.81,-2.37 -8.17,-4.4 -17.79,-6.79 -1.21,-0.29 -2.42,-0.61 -3.63,-0.92 -10.84,-2.81 -18,-11 -27.25,-18.09 -8.76,-6.76 -1.55,-34.79 -1.55,-34.79 l -20.15,-9.52 c 0,0 -2.77,28.89 -4.27,43.5 -0.61,6 -3.59,12 -4.64,17.21 a 32.68,32.68 0 0 0 -0.93,8.65 z"
       id="path5200" />
    <path
       class="cls-6"
       d="m 1210.14,1020.9 c 13.35,-1.49 9.79,1.87 28.47,2.21 18.68,0.34 25.14,-5.8 26.06,-8.46 0.81,-2.37 -8.17,-4.4 -17.79,-6.79 l -0.11,0.18 a 52.36,52.36 0 0 1 -27.44,4.78 c -12.53,-1.31 -25.3,-6.6 -33.94,-7.57 a 32.68,32.68 0 0 0 -0.93,8.66 c 0.54,8.33 12.33,8.48 25.68,6.99 z"
       id="path5202" />
    <path
       class="cls-7"
       d="m 1229.72,597.91 c 0,0 -5.58,27 -11.17,164.06 a 441.77,441.77 0 0 0 -17.89,56.4 c -7.52,31 -12.82,160.48 -12.82,160.48 0,0 3,4.32 12.1,4.87 a 26.32,26.32 0 0 0 13.22,-2.81 c 0,0 52.27,-169.56 77.71,-235.39 25.44,-65.83 40.36,-159.82 40.36,-159.82 z"
       id="path5204" />
    <path
       class="cls-7"
       d="m 1292.59,609.48 c 0,0 4.12,27.28 46.32,157.78 a 442.07,442.07 0 0 0 2.75,59.1 c 3.69,31.71 46.41,156.56 46.41,156.56 0,0 5.67,2 14.18,-0.28 a 44.78,44.78 0 0 0 14.12,-6.84 c 0,0 -16.38,-178.45 -15.3,-249 1.08,-70.55 -17.48,-163.91 -17.48,-163.91 z"
       id="path5206" />
    <path
       class="cls-8"
       d="m 1367.33,231.54 c -6.62,-4.21 -14.75,-5 -20.48,-5 a 9.74,9.74 0 0 1 4.47,-1.85 c -3.52,-0.7 -11.59,2.41 -11.59,2.41 -48.27,-21.43 -59.64,50.66 -59.44,67.55 0.2,16.89 -0.66,36.28 -26,50.15 -49.83,27.3 -11.63,81.21 -11.63,81.21 -9,25.74 24.24,57.27 24.24,57.27 -0.57,-13.67 62.18,-100.75 96,-120.62 8.56,-11.34 12.43,-31.93 12.72,-33.56 -2.2,16.38 -5.47,25.46 -8.24,30.53 29.03,-24.13 17.48,-116.94 -0.05,-128.09 z"
       id="path5208" />
    <path
       class="cls-5"
       d="m 1356.81,353.34 c 0.17,0.08 -15.82,8.39 -27.86,5.1 -11.32,-3.09 -18.72,-17.77 -18.56,-17.8 4.79,-0.95 6.18,-7.54 6.07,-35.85 l 2.17,0.43 35.13,7 1.31,0.25 c 0,0 -0.83,11.47 -0.86,22.27 0,2.29 0,4.54 0.11,6.65 0.24,6.23 0.94,11.22 2.49,11.95 z"
       id="path5210" />
    <path
       class="cls-9"
       d="m 1354.21,334.7 c 0,2.29 0,4.54 0.11,6.65 -20.43,-0.82 -32.21,-24.19 -36.66,-34.44 l 36.1,5.27 1.31,0.25 c 0,0 -0.83,11.47 -0.86,22.27 z"
       id="path5212" />
    <path
       class="cls-8"
       d="m 1314.87,301.25 c 0,0 -10.69,-16.88 -13.25,-31.32 -1.84,-10.31 3.41,-48.51 41.81,-43 a 52.16,52.16 0 0 1 21.63,8.18 c 8.34,5.63 20.37,17.78 6.91,51.12 l -3.49,11.26 z"
       id="path5214" />
    <path
       class="cls-5"
       d="m 1357.22,329.41 c 0,0 -47.84,-6.32 -43.44,-36.05 4.4,-29.73 1.18,-50.57 31.91,-47.79 30.73,2.78 35,15 35.92,25.28 0.92,10.28 -11.84,59.44 -24.39,58.56 z"
       id="path5216" />
    <path
       class="cls-8"
       d="m 1367.53,248.08 c 0,0 -18.26,32.93 -39.08,35.1 -20.82,2.17 -28.71,-4.5 -28.71,-4.5 a 57.43,57.43 0 0 0 23.57,-30.78 c 0,0 36.84,-17.9 44.22,0.18 z"
       id="path5218" />
    <path
       class="cls-8"
       d="m 1363.87,250.43 c 0,0 8.6,9.24 9.85,17.16 1.25,7.92 0,23.67 4.62,23.81 0,0 13.37,-22.23 4.31,-37.29 -9.65,-15.96 -18.78,-3.68 -18.78,-3.68 z"
       id="path5220" />
    <path
       class="cls-8"
       d="m 1681.54,654.34 c -10,-21.26 -37.94,-38.85 -61.44,-38.86 a 69.84,69.84 0 0 0 -44.52,15.57 11.72,11.72 0 0 1 -18.83,-6.66 L 1536.17,528.8 A 25.82,25.82 0 0 0 1505.5,509 l -332.91,71.65 a 25.23,25.23 0 0 0 -19.35,30 l 71.57,332.55 a 26.19,26.19 0 0 0 17.67,19.44 l -4.37,1.24 h 12.89 0.1 a 26.4,26.4 0 0 0 4.79,-0.57 l 7.24,-1.56 v 0 l 85.45,-18.39 a 16.13,16.13 0 0 0 8.8,-26.34 69.23,69.23 0 1 1 116,-18.35 11,11 0 0 0 3.24,13 l -5,2.43 h 11.55 a 11.14,11.14 0 0 0 2.66,-0.25 l 102,-22 a 25.82,25.82 0 0 0 19.82,-30.68 l -20.45,-95 a 12.1,12.1 0 0 1 14.84,-14.26 68.82,68.82 0 0 0 31.73,0.6 c 42.74,-9.23 67.7,-55.96 47.77,-98.17 z"
       id="path5222" />
    <path
       class="cls-10"
       d="m 1608.34,615.48 a 69.84,69.84 0 0 0 -44.52,15.57 11.72,11.72 0 0 1 -18.83,-6.66 L 1524.42,528.8 A 25.82,25.82 0 0 0 1493.75,509 l -332.91,71.65 a 25.22,25.22 0 0 0 -19.35,30 l 71.57,332.55 a 26.19,26.19 0 0 0 31.11,20.09 l 92.69,-20 a 16.13,16.13 0 0 0 8.8,-26.34 69.23,69.23 0 1 1 116,-18.35 11.05,11.05 0 0 0 12.48,15.15 l 102,-22 a 25.82,25.82 0 0 0 19.81,-30.68 l -20.44,-95 a 12.09,12.09 0 0 1 14.83,-14.26 68.86,68.86 0 0 0 31.74,0.6 c 42.69,-9.18 67.64,-55.91 47.71,-98.12 -10.05,-21.21 -37.94,-38.8 -61.45,-38.81 z"
       id="path5224" />
    <path
       class="cls-5"
       d="m 1486.53,489.06 c 0,0 20.77,3.4 26.21,16.9 5.44,13.5 -2.16,22.65 -5.08,22.62 -2.92,-0.03 -8.53,-2.19 -11.15,-9.2 -2.62,-7.01 -9.98,-30.32 -9.98,-30.32 z"
       id="path5226" />
    <path
       class="cls-5"
       d="m 1200.66,549.31 c 0,0 23.31,0 31.7,13.75 8.39,13.75 1.73,25.15 -1.47,25.64 -3.2,0.49 -9.72,-0.86 -13.85,-8 -4.13,-7.14 -16.38,-31.39 -16.38,-31.39 z"
       id="path5228" />
    <path
       class="cls-11"
       d="m 1487.11,504.73 c -2.06,-0.44 -11.1,-1.5 -22.59,-3.31 -21.17,-3.32 -50.67,-9.17 -60.57,-18.3 -2.68,-2.48 -8.93,-16.12 -15.42,-31.76 -6.56,34.62 -6.93,61.18 -5.19,81.39 l -143,30.79 c 12.26,-24.79 31.25,-55.54 27.69,-80.42 -1.32,-9.22 -6.38,-21.88 -8.27,-36.1 -0.15,-1.22 -0.29,-2.45 -0.4,-3.69 -20.06,16.52 -43.23,34.74 -43.79,38.38 -0.92,6.11 14.7,73.73 14.7,73.73 -3.88,8.93 -20.73,7 -20.73,7 -15.78,-11.27 -39,-75.15 -37.14,-89.3 1.86,-14.15 59.42,-94.8 73.35,-114.07 13.76,-19.05 64,-18.57 65.21,-18.56 v 0 c 40,24 43.55,4.05 43.55,4.05 0,0 36,6.85 42.24,17.5 6.24,10.65 33.37,91.4 35.29,94.24 4,5.95 69.69,29.74 70.87,36.63 1.18,6.89 -9.91,13.07 -15.8,11.8 z"
       id="path5230" />
    <path
       class="cls-12"
       d="m 1290.17,552.86 -49.87,10.68 c 12.42,-24.72 28.74,-55.52 25.17,-80.25 -1.33,-9.23 -4.33,-20.15 -5.77,-34.44 -0.14,-1.37 -0.38,-5.52 -0.38,-5.52 0,0 35.32,27.8 35.94,57.88 0.33,15.61 -2.4,36.02 -5.09,51.65 z"
       id="path5232" />
    <path
       class="cls-12"
       d="m 1465.84,501.6 c -21.42,-3.32 -51.29,-9.17 -61.31,-18.3 -2.71,-2.49 -9,-16.14 -15.61,-31.8 0,0 -2.3,-25.17 4.28,-24.23 6.58,0.94 16.26,45.58 23.17,48.4 6.18,2.53 40.36,15.65 49.47,25.93 z"
       id="path5234" />
    <g
       id="man">
      <path
         class="cls-13"
         d="m 2521.1,1460.52 c -3,10.18 -17,17 -18.84,29.4 a 27,27 0 0 1 -6.06,14 h -43.4 c 0.44,-2.39 2.34,-5 8,-6.19 12.06,-2.64 16.6,-17.25 15.86,-30.82 a 175.62,175.62 0 0 1 0.11,-17.78 c 0.38,-7.77 1,-13.87 1,-13.87 l 25.62,-6 2.69,3.46 2.58,3.33 c 0,0 15.45,14.3 12.44,24.47 z"
         id="path5236" />
      <path
         class="cls-13"
         d="m 2319,1503.94 h -87.81 c 2,-2.33 5.36,-4.58 11.07,-5.51 13.51,-2.19 36.91,-10 42.13,-27.31 0.17,-0.55 0.32,-1.12 0.45,-1.7 4.14,-18.46 34.29,5.66 34.29,5.66 0,0 0.09,0.74 0.23,2 0.53,5.19 1.7,19.29 -0.36,26.86 z"
         id="path5238" />
      <path
         class="cls-14"
         d="m 2245.85,1014.77 c 0,0 4.57,57.12 10,125.78 7.31,93.27 16.1,207.84 17,229.54 1.51,37.69 7.54,98 7.54,98 0,0 14.31,14.32 43,8.29 0,0 25.52,-86.06 32.82,-177.11 0.11,-1.5 0.22,-3 0.34,-4.5 6.78,-92.7 17.32,-287.88 17.32,-287.88 z"
         id="path5240" />
      <path
         class="cls-4"
         d="m 2245.85,1014.77 c 0,0 4.57,57.12 10,125.78 l 100.29,158.69 c 0.11,-1.5 0.22,-3 0.34,-4.5 6.78,-92.7 17.32,-287.88 17.32,-287.88 z"
         id="path5242" />
      <path
         class="cls-14"
         d="m 2266.75,1021.55 c 0,0 82.52,206.87 136.78,304.08 54.26,97.21 71.22,124.37 71.22,124.37 0,0 31.09,-12.44 33.91,-20.92 0,0 -20.75,-187.68 -57.08,-233.43 -20.54,-25.85 -44.66,-103.43 -45.79,-130.56 -1.13,-27.13 -7.34,-80.82 -7.34,-80.82 z"
         id="path5244" />
      <path
         class="cls-15"
         d="m 2309.08,702.23 c -3.67,-21.66 -3.79,-34.5 -3.79,-34.5 L 2347.16,634 c -1.55,46.39 28.18,68.71 28.18,68.71 0,0 -55.8,27.46 -88.05,17.29 a 77.25,77.25 0 0 1 21.79,-17.77 z"
         id="path5246" />
      <path
         class="cls-16"
         d="m 2295.43,667 c 0,0 53.27,8.85 58.27,-24.4 5,-33.25 15.24,-54.51 -18.56,-61.57 -33.8,-7.06 -42.32,4.64 -46.69,15.34 -4.37,10.7 -6.74,67.44 6.98,70.63 z"
         id="path5248" />
      <path
         class="cls-17"
         d="m 2108.36,735.52 -11.34,-7 c 0,0 -14.14,-20.88 -38.29,-7.91 0,0 -9.56,6.1 -3.15,11.21 6.41,5.11 4.7,2.22 13.59,9.62 8.89,7.4 20.4,10 27.83,6 l 9.52,-0.9 z"
         id="path5250" />
      <path
         class="cls-18"
         d="m 2094.9,737.71 c 2.92,-9.14 4.31,-10 4.31,-10 0,0 91.7,10.84 100.35,11.48 8.65,0.64 128.71,-24.1 128.71,-24.1 L 2385,784 c 0,0 -167.15,6.3 -189,4.25 -36.15,-3.38 -101.71,-37 -101.71,-37 a 26.67,26.67 0 0 1 0.61,-13.54 z"
         id="path5252" />
      <path
         class="cls-12"
         d="m 2404.74,994.82 c 0.16,3.55 -7.16,7.45 -10.34,8.88 -23.94,10.73 -46.23,18.19 -71.42,20.61 -29.88,3.07 -65.19,-3.65 -77.3,-3.49 a 5.18,5.18 0 0 1 -3.39,-1.29 c -0.81,-0.65 -1.46,-37.15 -0.81,-83.16 0,-1.78 0,-3.73 0.16,-5.5 v -0.64 c 0.05,-4.79 0.12,-9.66 0.23,-14.58 0.3,-13.45 0.8,-27.26 1.39,-41 0.87,-20.22 2.07,-40.1 3.74,-57.72 1.74,-18.39 3.94,-34.32 6.75,-45.62 6.46,-26 21.32,-43.12 34.88,-55.72 l 11.14,-9.84 a 52.81,52.81 0 0 0 34.72,-4.2 c 12.76,-6.3 26.65,-13.08 28.9,-11.47 17.22,12.87 28.81,42.08 34.75,79.21 a 409.18,409.18 0 0 1 4.67,65.5 q 0,13.38 -0.82,27.11 c -2.88,49 0.07,91.54 1.76,116.25 0.49,7.13 0.88,12.78 0.99,16.67 z"
         id="path5254" />
      <path
         class="cls-4"
         d="M 2121.58,541.53 1784.74,488 a 26.26,26.26 0 0 0 -30.06,21.81 l -14.91,93.89 c -0.69,4.35 0.42,16.57 0.42,16.57 l 12.14,1.81 a 16.35,16.35 0 0 0 2.1,0.31 v 0 a 16.12,16.12 0 0 0 6.78,-0.92 69.42,69.42 0 1 1 -24.83,115.08 10.92,10.92 0 0 0 -6.57,-3.11 v 0 l -12.71,-1.9 -15.82,114.52 a 25.9,25.9 0 0 0 21.52,29.64 L 1819,891 a 12.13,12.13 0 0 1 8,19 69.24,69.24 0 0 0 -12,29.45 c -6.87,43.24 27.78,83.49 74.47,80.14 23.51,-1.68 50.06,-21.4 58.58,-43.37 a 70,70 0 0 0 1.56,-47.26 11.75,11.75 0 0 1 13,-15.2 l 96.82,15.38 a 25.89,25.89 0 0 0 29.63,-21.5 l 53.55,-337.22 a 25.28,25.28 0 0 0 -21.03,-28.89 z"
         id="path5256" />
      <path
         class="cls-19"
         d="m 2364.62,768.31 c 0,0 -25.81,120.5 -122.75,147.34 0.3,-13.45 0.8,-27.26 1.39,-41 0.87,-20.22 2.07,-40.1 3.74,-57.72 a 32.64,32.64 0 0 1 4.84,-2.07 c 32.89,-10.86 112.78,-46.55 112.78,-46.55 z"
         id="path5258" />
      <path
         class="cls-7"
         d="m 1935.52,974.39 a 70,70 0 0 0 1.57,-47.26 11.75,11.75 0 0 1 13.05,-15.2 l 96.86,15.38 a 25.88,25.88 0 0 0 29.62,-21.5 l 53.56,-337.22 a 25.29,25.29 0 0 0 -21,-28.94 l -336.85,-53.5 a 26.26,26.26 0 0 0 -30,21.81 l -14.91,93.89 a 16.17,16.17 0 0 0 21.44,17.77 69.41,69.41 0 1 1 -24.84,115.08 11.07,11.07 0 0 0 -18.68,6.17 l -16.41,103.34 a 25.9,25.9 0 0 0 21.51,29.64 l 96.23,15.28 a 12.13,12.13 0 0 1 8,19 68.93,68.93 0 0 0 -12,29.45 c -6.87,43.24 27.78,83.49 74.47,80.14 23.32,-1.64 49.86,-21.36 58.38,-43.33 z"
         id="path5260" />
      <path
         class="cls-15"
         d="m 2108.75,813.2 -13.85,-2.29 c 0,0 -15.79,-22.84 -43.31,-10 0,0 -10.91,6.11 -3.69,11.82 7.22,5.71 5.29,2.57 15.29,10.83 10,8.26 23,11.56 31.46,7.52 l 10.8,-0.56 z"
         id="path5262" />
      <path
         class="cls-18"
         d="m 2098.16,820.24 c 0.45,-10.19 5.88,-11.28 5.88,-11.28 0,0 104.96,-6.96 113.96,-8.69 9,-1.73 92.61,-71 92.61,-71 0,0 32.31,-29 54.95,-19.24 19.68,8.52 25.84,25.32 26.83,40.77 a 44.9,44.9 0 0 1 -25.93,43.43 c -37.52,17.53 -112.57,51.94 -129.66,54.9 -38,6.61 -135.82,-14.56 -135.82,-14.56 a 32.15,32.15 0 0 1 -2.82,-14.33 z"
         id="path5264" />
      <path
         class="cls-20"
         d="m 2288.45,596.33 c 0,0 -21.62,-16 -7.52,-40.94 0,0 17,5.64 41.16,0 24.16,-5.64 45.78,2.35 48.6,10.8 0,0 9.4,3.77 10.34,17.86 0.94,14.09 -27.33,58.51 -27.33,58.51 0,0 -6,-7.52 -4.4,-12.69 1.6,-5.17 6.82,-16.68 0.47,-16.68 -6.35,0 -8.45,9.4 -11,5.64 -2.55,-3.76 2.12,-19.5 -5.4,-22.09 -7.52,-2.59 -36.46,4.34 -44.92,-0.41 z"
         id="path5266" />
    </g>
    <path
       class="cls-12"
       d="m 1553.67,1491.94 -95.22,-432.33 h 26.21 a 11.33,11.33 0 0 0 11.3,-11.3 v -14.6 a 11.32,11.32 0 0 0 -11.3,-11.29 h -332.49 a 11.32,11.32 0 0 0 -11.29,11.29 v 14.6 a 11.32,11.32 0 0 0 11.29,11.3 h 33.75 l -95.22,432.33 a 10.790665,10.790665 0 1 0 21.07,4.67 l 96.25,-437 h 228.33 l 96.25,437 a 10.82,10.82 0 0 0 12.86,8.23 v 0 a 10.85,10.85 0 0 0 8.21,-12.9 z"
       id="path5269" />
    <path
       class="cls-12"
       d="m 2185.11,1227.18 c -35.25,-33.83 -162.12,179.65 -162.12,179.65 0,0 197.36,-145.83 162.12,-179.65 z"
       id="path5271" />
    <path
       class="cls-12"
       d="m 2180.88,1325.87 c -31.2,-12.48 -130.91,92.64 -153.37,116.91 a 498.53,498.53 0 0 0 -56.69,-4.13 c -157.89,-2.82 -229.51,68.69 -229.51,68.69 l 440.45,1.5 c 0,0 -39,-49.54 -149.7,-65.43 27.05,-12.77 107,-50 136.13,-57.13 35.25,-8.67 47.93,-46.28 12.69,-60.41 z"
       id="path5273" />
    <path
       class="cls-8"
       d="m 2056.65,1111.61 h -95.07 a 16.16,16.16 0 0 0 -14.18,24 c 5.74,10.4 -14.47,100.49 -57.05,102.84 a 69.43,69.43 0 0 1 -60.5,-109.31 11.07,11.07 0 0 0 -9,-17.48 h -104.67 a 25.89,25.89 0 0 0 -25.89,25.89 c 0,0 -9.49,112.31 -17.55,108.28 a 69,69 0 0 0 -27.37,-7.18 h -0.09 c -1.17,-0.06 -2.34,-0.09 -3.53,-0.09 -1.19,0 -18.41,-0.3 -18.41,-0.3 l -2.61,138.74 15,0.16 c 14.22,-0.43 26.57,-1.76 37.55,-7.35 a 11.75,11.75 0 0 1 17,10.5 v 98 a 25.88,25.88 0 0 0 25.88,25.88 h 341.44 a 25.29,25.29 0 0 0 25.29,-25.29 v -341.04 a 26.25,26.25 0 0 0 -26.24,-26.25 z"
       id="path5275" />
    <path
       class="cls-10"
       d="m 1607.9,1375.37 a 70,70 0 0 0 46.92,-5.87 11.76,11.76 0 0 1 17.06,10.51 v 98 a 25.89,25.89 0 0 0 25.88,25.89 h 341.44 a 25.29,25.29 0 0 0 25.29,-25.29 v -341.04 a 26.26,26.26 0 0 0 -26.25,-26.26 h -95.07 a 16.17,16.17 0 0 0 -14.18,24 69.42,69.42 0 1 1 -117.55,-6.47 11.08,11.08 0 0 0 -9,-17.49 h -104.67 a 25.9,25.9 0 0 0 -25.89,25.9 v 97.43 a 12.13,12.13 0 0 1 -17.55,10.85 69.15,69.15 0 0 0 -31,-7.29 c -43.78,0 -78.09,40.54 -67.46,86.13 5.36,22.91 28.99,46.04 52.03,51 z"
       id="path5277" />
    <path
       class="cls-12"
       d="m 619.29,1505.84 61.37,0.45 c 0,0 -2.14,-14.85 -43.45,-18.68 v 0 c -16,-44.48 -63.06,-164.15 -103.91,-158.5 -40.34,5.59 55.19,115.38 94.06,158.07 a 98,98 0 0 0 -15.36,1.21 c -9.36,-18.64 -27.92,-45 -57.72,-43.79 -31.7,1.28 11.49,30.24 41.23,48 -15.06,5.4 -23.2,12.88 -23.2,12.88 l 46.29,0.34 0.84,0.45 z"
       id="path5279" />
    <path
       class="cls-21"
       d="m 838.55,1010 9.08,7.37 c 0,0 24.83,-8.91 30.44,20.61 0,0 1.49,12.58 -6.48,12.6 -7.97,0.02 -4.68,-1.37 -16,-1 -11.32,0.37 -20.63,-5.62 -22.29,-14.78 L 828,1027 Z"
       id="path5281" />
    <path
       class="cls-22"
       d="m 837.52,1025.78 c 7.24,-7.56 6.66,-13.15 6.66,-13.15 0,0 -83.88,-68.63 -92.39,-74.27 -5.8,-3.82 -67.57,-58.58 -96.45,-92 C 641,829.83 623.27,836.25 603,842.08 l -16.71,4.79 c -20.19,5.8 -25.44,34 -8.88,47.75 46.65,38.63 124.25,82.09 138.76,91.22 36.05,22.68 106.6,49.62 106.6,49.62 a 44.67,44.67 0 0 0 14.75,-9.68 z"
       id="path5283" />
    <path
       class="cls-8"
       d="m 935.69,1447 c 0,0 20.36,15.25 51.55,7.2 0,0 25.15,-5.74 30.66,6.81 0,0 -38.57,19.59 -48.33,25 -7.35,4 -15,10.41 -20.46,15.34 a 10.11,10.11 0 0 1 -14.64,-1.13 c -1.7,-2.08 -3.64,-4.57 -5.77,-7.45 -6,-8.06 -19.8,-34.09 -19.8,-34.09 z"
       id="path5285" />
    <path
       class="cls-12"
       d="m 945.2,1440 c 0,0 -12.4,28.58 -41,23.33 0,0 -58.39,-48.22 -98.44,-98.31 -13,-16.27 -24.08,-32.74 -30.59,-47.81 -26.56,-61.49 -98.24,-153.2 -143.82,-199.68 l 114,-41.25 c 0,0 36.52,73.47 85.12,163.72 35.04,65 76.32,138.73 114.73,200 z"
       id="path5287" />
    <path
       class="cls-10"
       d="m 830.49,1240 -24.74,125 c -13,-16.27 -24.08,-32.74 -30.59,-47.81 -26.56,-61.49 -98.24,-153.2 -143.82,-199.68 l 114,-41.25 c 0,0 36.55,73.46 85.15,163.74 z"
       id="path5289" />
    <path
       class="cls-8"
       d="m 737,1463.23 c 0,0 -1.24,22.8 26.41,25.85 0,0 15.8,0.08 15.84,14.59 l -80.35,0.26 c 0,0 -2.34,-5.86 -2.9,-18.4 -0.44,-9.63 9.33,-34.81 9.33,-34.81 z"
       id="path5291" />
    <path
       class="cls-12"
       d="m 708,1076.25 c 0,0 50.8,55.82 83,156.38 17.55,54.71 -32.15,192.28 -41.84,240.07 0,0 -33.34,2.83 -56.14,-6 0,0 -1.73,-98.72 11.6,-174.81 7.46,-42.58 -66.89,-91.07 -99.37,-168 -22.1,-52.34 4.78,-51.45 37.83,-52.71 z"
       id="path5293" />
    <path
       class="cls-23"
       d="m 649.33,827.22 c -28.27,16 -86.12,1.24 -86.12,1.24 0,0 23.49,-26.86 12.79,-70.12 l 22.19,11.27 23.83,12.1 a 197.72,197.72 0 0 1 2.61,21.37 c 0.28,3.53 0.52,7.48 0.69,11.79 a 74.23,74.23 0 0 1 24.01,12.35 z"
       id="path5295" />
    <path
       class="cls-24"
       d="m 753,1073.37 c 0,5 -5.72,7.34 -6.94,7.58 -11.39,2.09 -43.22,14.47 -71.9,17.31 -24.14,2.53 -46.55,0.12 -71.18,-4.82 -3.26,-0.66 -10.92,-2.72 -11.46,-5.84 -0.68,-3.42 -95,-192.26 -21.67,-273.38 1.72,-1.9 16.19,1.53 29.42,4.67 a 54.38,54.38 0 0 0 33.45,-2.73 l 12.41,6.53 c 15.24,8.49 44.08,38.66 47.45,62.34 1.72,12 8.6,21 10.6,31.55 q 1.11,5.88 2.26,11.47 2.25,11 4.64,20.9 c 4.32,17.91 8.87,33.32 13.34,46.64 4.75,14.14 9.42,25.9 13.58,35.74 5.41,12.76 10,22.29 12.83,29.6 1.98,5.14 3.17,9.17 3.17,12.44 z"
       id="path5297" />
    <path
       class="cls-25"
       d="M 749.79,1060.93 C 616.66,998.2 570.56,877.77 570.56,877.77 c 0,0 108.16,39.9 134.84,50.28 q 2.25,11 4.64,20.9 c 4.32,17.91 8.87,33.32 13.34,46.64 4.75,14.14 9.42,25.9 13.58,35.74 5.41,12.76 9.98,22.29 12.83,29.6 z"
       id="path5299" />
    <path
       class="cls-4"
       d="m 1125.83,927.53 -28.52,-90.42 a 16.16,16.16 0 0 0 -19.79,-10.7 v 0 c -0.42,0.12 -0.84,0.27 -1.25,0.42 l -10,3.34 c 0,0 -15.66,16.12 -26.89,19.37 -34.54,10 -67.32,-8.41 -79.92,-42.08 -14,-37.46 2.24,-78.59 39.89,-90.46 12.88,-4.06 38.23,3.51 38.23,3.51 l 10.18,-3.38 a 11,11 0 0 0 7.35,-13.91 L 1023.7,603.7 a 25.82,25.82 0 0 0 -32.4,-16.87 l -92.67,29.23 A 12.09,12.09 0 0 1 883.05,602.62 69,69 0 0 0 880.68,571 c -13.13,-41.65 -62,-62.13 -102.15,-38.34 -20.23,12 -35.14,41.39 -32.95,64.79 a 69.76,69.76 0 0 0 19.66,42.87 11.72,11.72 0 0 1 -4.88,19.37 l -93.25,29.41 a 25.83,25.83 0 0 0 -16.86,32.39 l 102.43,324.77 a 25.22,25.22 0 0 0 31.64,16.46 l 324.41,-102.31 a 26.18,26.18 0 0 0 17.1,-32.88 z"
       id="path5301" />
    <path
       class="cls-7"
       d="m 735.71,600.71 a 69.76,69.76 0 0 0 19.66,42.87 11.72,11.72 0 0 1 -4.88,19.42 l -93.25,29.41 a 25.81,25.81 0 0 0 -16.85,32.39 l 102.42,324.77 a 25.22,25.22 0 0 0 31.64,16.43 l 324.41,-102.31 a 26.18,26.18 0 0 0 17.1,-32.85 l -28.52,-90.42 a 16.12,16.12 0 0 0 -27,-6.3 69.24,69.24 0 1 1 -29.1,-113.75 11.05,11.05 0 0 0 13.92,-13.84 L 1013.83,607 a 25.83,25.83 0 0 0 -32.4,-16.86 l -92.67,29.23 a 12.09,12.09 0 0 1 -15.58,-13.44 69,69 0 0 0 -2.37,-31.66 c -13.13,-41.64 -62,-62.12 -102.15,-38.34 -20.23,11.96 -35.14,41.38 -32.95,64.78 z"
       id="path5303" />
    <path
       class="cls-23"
       d="m 827.68,1024.58 11.5,4.22 c 0,0 23,-16.29 37.38,10.2 0,0 5.19,11.57 -3,14.08 -8.19,2.51 -5.23,0.15 -16.77,4 -11.54,3.85 -22.91,1.07 -27.27,-7.17 l -7.82,-5.74 z"
       id="path5305" />
    <path
       class="cls-24"
       d="m 837.15,1040.85 c 4.25,-11.1 6.19,-16.13 6.19,-16.13 0,0 -86.92,-70.85 -95.78,-76.93 -6,-4.14 -66.12,-49 -95.42,-84.06 a 61.3,61.3 0 0 0 -59.6,-20.65 l -18.25,3.83 c -22,4.62 -29.19,32.51 -12.1,47.16 48.14,41.27 129.33,89.13 144.47,99.09 37.58,24.71 120.71,59.34 120.71,59.34 0,0 6.44,-2.94 9.78,-11.65 z"
       id="path5307" />
    <path
       class="cls-21"
       d="m 624.66,803.08 c -27.79,1.56 -45.86,-21.39 -45.86,-21.39 0,0 12.56,-7 19.42,-12.08 l 23.83,12.1 a 197.72,197.72 0 0 1 2.61,21.37 z"
       id="path5309" />
    <path
       class="cls-23"
       d="m 636.51,774.54 c 0,0 -42.12,30.22 -60.53,3.71 -18.41,-26.51 -36.26,-40.47 -10.15,-60.89 26.11,-20.42 38.42,-14 46.72,-6.61 8.3,7.39 34.45,55.25 23.96,63.79 z"
       id="path5311" />
    <path
       class="cls-26"
       d="m 617,686.8 a 67.71,67.71 0 0 0 -4.91,-17.36 c 0,0 -2.64,10.95 -22.65,9.44 -20.01,-1.51 -51.71,2 -62.28,24.76 -0.67,1.45 -1.27,3 -1.81,4.47 -1.91,-5.05 -2.37,-12.62 -2.37,-12.62 -3.8,9.81 0,22.09 0,22.09 v 0 c -0.06,0.35 -0.1,0.71 -0.16,1.07 -4.41,3.73 -8.12,15.34 -8.12,15.34 1.33,-3.24 4.58,-5.35 7.48,-6.65 -0.09,17.74 7.1,35.08 19.73,40.24 18.47,7.55 18.32,1.79 36.89,14.11 0,0 5,-6.18 1.58,-10.33 -3.42,-4.15 -16.23,-10.19 -9.06,-16.23 7.17,-6.04 9.82,0.75 12.46,-3.4 2.64,-4.15 -10.57,-16.23 6.42,-27.56 C 607.19,712.84 618.51,697 617,686.8 Z"
       id="path5313" />
    <path
       class="cls-7"
       d="m 1701.06,1504.09 c 0,0 -21.3,-31.48 -54.62,-28.94 -10.13,0.77 -26.59,3.24 -45.71,5.87 -14.42,-50.32 -54.16,-169.92 -107.77,-176.66 -54.74,-6.87 52.39,126.14 96.2,178.22 -8,1.05 -16.29,2.08 -24.66,3 -23.2,-24.77 -63.62,-61.46 -97.37,-58.64 -33.75,2.82 29.51,37.81 75.24,60.69 -28.06,2.1 -54.66,1.87 -70.91,-4.41 -39.81,-15.39 -76.4,20.88 -76.4,20.88 z"
       id="path5315" />
    <rect
       class="cls-4"
       x="200"
       y="1503.9301"
       width="2574.99"
       height="6.8299999"
       rx="2.9200001"
       id="rect5317"
       ry="2.9200001" />
  </g>
</svg>
