<?xml version="1.0" encoding="utf-8"?>
<!-- Generator: Adobe Illustrator 21.1.0, SVG Export Plug-In . SVG Version: 6.00 Build 0)  -->
<svg version="1.1" xmlns="http://www.w3.org/2000/svg" xmlns:xlink="http://www.w3.org/1999/xlink" x="0px" y="0px"
	 viewBox="0 0 250 250" style="enable-background:new 0 0 250 250;" xml:space="preserve">
<style type="text/css">
	.st0{display:none;}
	.st1{display:inline;}
	.st2{fill:#676767;}
	.st3{fill:#8F548E;}
	.st4{fill:#53245E;}
	.st5{display:inline;fill:#8F528E;}
	.st6{display:inline;fill:#C7A9C9;}
	.st7{display:inline;fill:#54225F;}
	.st8{display:inline;fill:#54225E;}
	.st9{display:inline;fill:none;stroke:#54225F;stroke-width:6;stroke-miterlimit:10;}
	.st10{display:inline;fill:none;stroke:#8F528E;stroke-width:6;stroke-miterlimit:10;}
	.st11{fill:none;stroke:#54225F;stroke-width:6;stroke-miterlimit:10;}
	.st12{fill:#0B996B;}
	.st13{fill:#036635;}
	.st14{fill:#95C897;}
	.st15{fill:#FFFFFF;}
	.st16{fill:#14BED4;}
</style>
<g id="Layer_1">
	<g id="Layer_1_1_" class="st0">
		<g class="st1">
			<path class="st2" d="M54.2,16.5v15.6H42v201.4h134.8v-13.3H208v-68.1v-8.7V16.5H54.2z M171.7,228.5H47V37.1h7.2v183.1h117.5
				V228.5z M203,152.1v63.1H59.2V21.5H203v121.9V152.1z"/>
			<rect x="74.3" y="37.1" class="st3" width="32.6" height="5"/>
			<rect x="74.3" y="60.1" class="st3" width="114.3" height="5"/>
			<rect x="74.3" y="85.5" class="st3" width="114.3" height="5"/>
			<rect x="74.3" y="111.3" class="st3" width="97.2" height="5"/>
			<rect x="74.3" y="136.3" class="st3" width="74.8" height="5"/>
			<rect x="74.3" y="163.4" class="st3" width="58" height="5"/>
			<rect x="111.7" y="37.1" class="st3" width="11.2" height="5"/>
			<rect x="158.3" y="177" class="st4" width="33" height="23.4"/>
		</g>
	</g>
	<g id="Layer_2" class="st0">
		<path class="st5" d="M117.5,57.6H50c-0.9,0-1.8,0.7-1.8,1.4v30.5c0,0.7,0.9,1.4,1.8,1.4h67.8c0.9,0,1.8-0.7,1.8-1.4V59
			C119.3,58.3,118.7,57.6,117.5,57.6z"/>
		<path class="st5" d="M199.7,103.6h-67.5c-0.9,0-1.8,0.7-1.8,1.4v30.5c0,0.7,0.9,1.4,1.8,1.4H200c0.9,0,1.8-0.7,1.8-1.4V105
			C201.5,104.1,200.9,103.6,199.7,103.6z"/>
		<path class="st6" d="M199.7,80.7h-67.5c-0.9,0-1.8,0.7-1.8,1.4v7.6c0,0.7,0.9,1.4,1.8,1.4H200c0.9,0,1.8-0.7,1.8-1.4v-7.6
			C201.5,81.2,200.9,80.7,199.7,80.7z"/>
		<path class="st6" d="M199.7,57.8h-67.5c-0.9,0-1.8,0.7-1.8,1.4v7.6c0,0.7,0.9,1.4,1.8,1.4H200c0.9,0,1.8-0.7,1.8-1.4v-7.6
			C201.5,58.3,200.9,57.8,199.7,57.8z"/>
		<path class="st6" d="M50,113.8h67.8c0.9,0,1.8-0.7,1.8-1.4v-7.6c0-0.7-0.9-1.4-1.8-1.4H50c-0.9,0-1.8,0.7-1.8,1.4v7.6
			C48.2,113.3,48.8,113.8,50,113.8z"/>
		<path class="st6" d="M50,136.7h67.8c0.9,0,1.8-0.7,1.8-1.4v-7.6c0-0.7-0.9-1.4-1.8-1.4H50c-0.9,0-1.8,0.7-1.8,1.4v7.6
			C48.2,136.2,48.8,136.7,50,136.7z"/>
		<path class="st7" d="M224.9,28.9H25.1c-5.6,0-9.9,4.4-9.9,9.9v135.5c0,5.3,4.4,9.7,9.9,9.7h80.2v18H87.5c-2.8,0-4.9,2.3-4.9,4.9
			v9.3c0,2.8,2.3,4.9,4.9,4.9h74.7c2.8,0,4.9-2.1,4.9-4.9V207c0-2.8-2.1-4.9-4.9-4.9h-17.8v-18h80.5c5.3,0,9.9-4.4,9.9-9.7V38.9
			C234.8,33.5,230.5,28.9,224.9,28.9z M125,173.7c-3.7,0-6.9-3-6.9-6.9c0-3.7,3-6.9,6.9-6.9c3.9,0,6.9,3,6.9,6.9
			C131.7,170.7,128.7,173.7,125,173.7z M227.1,155.2H22.9V38.5h204.2L227.1,155.2L227.1,155.2z"/>
	</g>
	<g id="Layer_3" class="st0">
		<path class="st6" d="M229.6,222h-11v-62h5.5c2.5,0,4.5-2,4.5-4.5V21c0-2.5-2-4.5-4.5-4.5H25.9c-2.5,0-4.5,2-4.5,4.5v134.5
			c0,2.5,2,4.5,4.5,4.5h5.5v62h-11c-2.5,0-4.5,2-4.5,4.5s2,4.5,4.5,4.5h31c2.5,0,4.5-2,4.5-4.5s-2-4.5-4.5-4.5h-11v-62h169.2v62h-11
			c-2.5,0-4.5,2-4.5,4.5s2,4.5,4.5,4.5h31c2.5,0,4.5-2,4.5-4.5S232,222,229.6,222z M30.4,25.5h189.1V151H35.9l0,0l0,0h-5.5
			C30.4,151,30.4,25.5,30.4,25.5z"/>
		<path class="st8" d="M43.3,69h67.5c0.9,0,1.8-0.7,1.8-1.4V37.1c0-0.7-0.9-1.4-1.8-1.4H43c-0.9,0-1.8,0.7-1.8,1.4v30.5
			C41.5,68.6,42.1,69,43.3,69z"/>
		<path class="st5" d="M206.9,58.8h-82.7c-1.1,0-2.1,0.7-2.1,1.4v7.6c0,0.7,1.1,1.4,2.1,1.4h82.7c1.1,0,2.1-0.7,2.1-1.4v-7.6
			C209,59.3,208.3,58.8,206.9,58.8z"/>
		<path class="st6" d="M206.9,35.9h-82.7c-1.1,0-2.1,0.7-2.1,1.4V45c0,0.7,1.1,1.4,2.1,1.4h82.7c1.1,0,2.1-0.7,2.1-1.4v-7.6
			C209,36.4,208.3,35.9,206.9,35.9z"/>
		<path class="st5" d="M43.3,138h67.5c0.9,0,1.8-1.2,1.8-2.4v-52c0-1.2-0.9-2.4-1.8-2.4H43c-0.9,0-1.8,1.2-1.8,2.4v52.1
			C41.5,137.2,42.1,138,43.3,138z"/>
		<path class="st5" d="M206.9,81.7h-82.7c-1.1,0-2.1,0.7-2.1,1.4v7.6c0,0.7,1.1,1.4,2.1,1.4h82.7c1.1,0,2.1-0.7,2.1-1.4v-7.6
			C209,82.2,208.3,81.7,206.9,81.7z"/>
		<path class="st8" d="M206.9,104.6h-82.7c-1.1,0-2.1,0.7-2.1,1.4v7.6c0,0.7,1.1,1.4,2.1,1.4h82.7c1.1,0,2.1-0.7,2.1-1.4V106
			C209,105.1,208.3,104.6,206.9,104.6z"/>
		<path class="st8" d="M206.9,127.5h-82.7c-1.1,0-2.1,0.7-2.1,1.4v7.6c0,0.7,1.1,1.4,2.1,1.4h82.7c1.1,0,2.1-0.7,2.1-1.4v-7.6
			C209,128,208.3,127.5,206.9,127.5z"/>
	</g>
	<g id="Layer_5" class="st0">
		<path class="st5" d="M111.6,29.9h26.8v4.9c0,4,3.3,7.3,7.3,7.3h8.5v7.3H95.7v-7.3h8.5c4,0,7.3-3.3,7.3-7.3L111.6,29.9L111.6,29.9z
			"/>
		<path class="st5" d="M200.6,37.2h-31.7v-2.4c0-4-3.3-7.3-7.3-7.3H153v-4.9c0-4-3.3-7.3-7.3-7.3h-41.5c-0.3,0-0.5,0-0.8,0
			c-3.7,0.4-6.6,3.6-6.6,7.3v4.9h-8.5c-4,0-7.3,3.3-7.3,7.3v2.4H49.4c-0.3,0-0.5,0-0.8,0c-3.7,0.4-6.6,3.6-6.6,7.3v182.9
			c0,4,3.3,7.3,7.3,7.3h151.2c4,0,7.3-3.3,7.3-7.3V44.5C207.9,40.5,204.6,37.2,200.6,37.2z M193.3,220.1H56.7V51.8h24.4v4.9
			c0,4,3.3,7.3,7.3,7.3h73.2c4,0,7.3-3.3,7.3-7.3v-4.9h24.4V220.1z"/>
		<path class="st7" d="M100,81c-1.9,0.2-3.6,1.1-4.9,2.5L80.8,99.7L79,97.9c-2.7-3-7.3-3.4-10.3-0.7c-3,2.7-3.4,7.3-0.7,10.3
			c0.2,0.2,0.4,0.5,0.7,0.7l7.3,7.3c2.8,2.9,7.5,2.9,10.3,0c0.1-0.1,0.2-0.2,0.3-0.3l19.5-21.9c2.7-3,2.5-7.6-0.5-10.3
			C104.1,81.5,102,80.8,100,81z"/>
		<path class="st7" d="M119.4,95.7c-4,0.2-7.1,3.7-6.9,7.7s3.7,7.1,7.7,6.9h56.1c4,0.1,7.4-3.2,7.4-7.2c0.1-4-3.2-7.4-7.2-7.4
			c-0.1,0-0.1,0-0.2,0h-56.1C119.9,95.7,119.6,95.7,119.4,95.7z"/>
		<path class="st6" d="M100,122.5c-1.9,0.2-3.6,1.1-4.9,2.5l-14.3,16.2l-1.8-1.8c-2.7-3-7.3-3.4-10.3-0.7S65.3,146,68,149
			c0.2,0.2,0.4,0.5,0.7,0.7L76,157c2.8,2.9,7.5,2.9,10.3,0c0.1-0.1,0.2-0.2,0.3-0.3l19.5-21.9c2.7-3,2.5-7.6-0.5-10.3
			C104.1,123,102,122.3,100,122.5z"/>
		<path class="st6" d="M119.4,137.2c-4,0.2-7.1,3.7-6.9,7.7s3.7,7.1,7.7,6.9h56.1c4,0.1,7.4-3.2,7.4-7.2c0.1-4-3.2-7.4-7.2-7.4
			c-0.1,0-0.1,0-0.2,0h-56.1C119.9,137.2,119.6,137.2,119.4,137.2z"/>
		<path class="st6" d="M100,163.9c-1.9,0.2-3.6,1.1-4.9,2.5l-14.3,16.2l-1.8-1.8c-2.7-3-7.3-3.4-10.3-0.7s-3.4,7.3-0.7,10.3
			c0.2,0.2,0.4,0.5,0.7,0.7l7.3,7.3c2.8,2.9,7.5,2.9,10.3,0c0.1-0.1,0.2-0.2,0.3-0.3l19.5-21.9c2.7-3,2.5-7.6-0.5-10.3
			C104.1,164.4,102,163.8,100,163.9z"/>
		<path class="st6" d="M119.4,178.7c-4,0.2-7.1,3.7-6.9,7.7s3.7,7.1,7.7,6.9h56.1c4,0.1,7.4-3.2,7.4-7.2c0.1-4-3.2-7.4-7.2-7.4
			c-0.1,0-0.1,0-0.2,0h-56.1C119.9,178.6,119.6,178.6,119.4,178.7z"/>
	</g>
	<g id="Layer_6" class="st0">
		<path class="st6" d="M125,155c-16.6,0-30-13.4-30-30s13.4-30,30-30s30,13.4,30,30l0,0C155,141.6,141.5,155,125,155z M125,103
			c-12.2,0-22,9.9-22,22c0,12.2,9.9,22,22,22s22-9.8,22-22S137.1,103,125,103z"/>
		<path class="st5" d="M125,77.3c2.2,0,4-1.8,4-4c0,0,0,0,0-0.1v-43l8.9,8.9c0.8,0.7,1.8,1.2,2.8,1.2c1.1,0,2.1-0.4,2.8-1.2
			c1.5-1.6,1.5-4.1,0-5.7l-15.8-15.8c-1.6-1.5-4.1-1.5-5.7,0l-15.8,15.8c-1.5,1.7-1.3,4.2,0.4,5.7c1.5,1.3,3.8,1.3,5.3,0l8.9-8.9v43
			c-0.1,2.2,1.7,4,3.9,4.1C124.9,77.3,124.9,77.3,125,77.3z"/>
		<path class="st7" d="M106.3,216.5l15.8,15.8c1.5,1.6,4,1.6,5.5,0.1l0.1-0.1l15.8-15.8c1.5-1.7,1.3-4.2-0.4-5.7
			c-1.5-1.3-3.8-1.3-5.3,0l-8.9,8.9v-43c0-2.2-1.8-4-4-4s-4,1.8-4,4l0,0v43l-8.9-8.9c-1.7-1.5-4.2-1.3-5.7,0.4
			C105,212.7,105,215,106.3,216.5z"/>
		<path class="st6" d="M33.4,143.6c0.8,0.7,1.7,1.1,2.8,1.1s2.1-0.4,2.8-1.2c1.5-1.6,1.5-4.1,0-5.7l-8.9-8.9h43.1
			c2.2-0.2,3.9-2.1,3.7-4.3c-0.2-2-1.7-3.6-3.7-3.7h-43l8.9-8.9c1.7-1.5,1.8-4,0.4-5.7c-1.5-1.7-4-1.8-5.7-0.4
			c-0.1,0.1-0.3,0.2-0.4,0.4l-15.8,15.9c-1.5,1.6-1.5,4.1,0,5.7L33.4,143.6z"/>
		<path class="st6" d="M172.6,125c0,2.2,1.9,4,4.1,4l0,0h43l-8.9,8.9c-1.5,1.6-1.5,4.1,0,5.7c0.8,0.7,1.8,1.1,2.9,1.1
			c1.1,0,2.1-0.4,2.8-1.2l15.8-15.8c1.5-1.6,1.5-4.1,0-5.7l-15.8-15.8c-1.7-1.5-4.2-1.3-5.7,0.4c-1.3,1.5-1.3,3.8,0,5.3l8.9,8.9
			h-43.1c-2.2-0.1-4.1,1.7-4.1,3.9C172.6,124.8,172.6,124.9,172.6,125z"/>
		<path class="st7" d="M77.5,51c0-2.2-1.8-4-4-4H51c-2.2,0.1-3.9,1.9-3.9,4v22.4c-0.2,2.2,1.5,4.2,3.7,4.3c2.2,0.2,4.2-1.5,4.3-3.7
			c0-0.2,0-0.4,0-0.6V60.9l30.4,30.4c1.5,1.6,4,1.6,5.5,0.1l0.1-0.1c1.5-1.6,1.5-4.1,0-5.7L60.9,55.1h12.7
			C75.8,55.1,77.5,53.3,77.5,51L77.5,51z"/>
		<path class="st5" d="M158.7,164.4l30.4,30.4h-12.6c-2.2,0.2-3.9,2.1-3.7,4.3c0.2,2,1.7,3.6,3.7,3.7H199c2.1-0.1,3.9-1.8,3.9-3.9
			v-22.5c0.2-2.2-1.5-4.2-3.7-4.3c-2.2-0.2-4.2,1.5-4.3,3.7c0,0.2,0,0.4,0,0.6V189l-30.4-30.4c-1.6-1.5-4.1-1.5-5.7,0
			c-1.6,1.5-1.7,4-0.3,5.6C158.5,164.3,158.6,164.4,158.7,164.4z"/>
		<path class="st5" d="M51,172.5c-2.2,0-4,1.8-4,4V199c0.1,2.2,1.8,3.9,4,3.9h22.4c2.2-0.2,3.9-2.1,3.7-4.3c-0.2-2-1.7-3.6-3.7-3.7
			H60.9l30.4-30.4c1.5-1.6,1.5-4.1,0-5.7c-1.6-1.5-4.1-1.5-5.7,0l-30.5,30.3v-12.6C55.1,174.2,53.3,172.4,51,172.5L51,172.5z"/>
		<path class="st7" d="M158.7,91.3c1.5,1.6,4,1.6,5.5,0.1l0.1-0.1l30.5-30.4v12.6c-0.2,2.2,1.5,4.2,3.7,4.3c2.2,0.2,4.2-1.5,4.3-3.7
			c0-0.2,0-0.4,0-0.6V51c-0.1-2.2-1.8-3.9-3.9-4h-22.5c-2.2,0.2-3.9,2.1-3.7,4.3c0.2,2,1.7,3.6,3.7,3.7H189l-30.4,30.4
			c-1.6,1.5-1.6,4-0.1,5.6C158.6,91.2,158.6,91.2,158.7,91.3z"/>
	</g>
	<g id="Layer_7" class="st0">
		<g id="gIKf8q.tif" class="st1">
		</g>
		<path class="st9" d="M99.9,81.4c0,0,6.8,6.8,0,13.8l-5.7,5.7c0,0-6.8,6.8-13.8,0c0,0-6.8-6.8,0-13.8s5.7-5.7,5.7-5.7
			S93.1,74.6,99.9,81.4z"/>
		<path class="st9" d="M80.4,101.1l-9.3,9.3c0,0-3.4,3.4,0,6.8s4.6,4.6,4.6,4.6s3.4,3.4,0,6.8c-3.4,3.4-12.5,12.7-12.5,12.7"/>
		<path class="st10" d="M144.5,167.3h-26c-8.9,0-16.3-7.3-16.3-16.3l0,0c0-8.9,7.3-16.3,16.3-16.3h26c8.9,0,16.3,7.3,16.3,16.3l0,0
			C160.8,160,153.5,167.3,144.5,167.3z"/>
		<line class="st10" x1="162.4" y1="151" x2="170.6" y2="151"/>
		<line class="st10" x1="131.3" y1="133.1" x2="131.3" y2="123.4"/>
		<line class="st10" x1="116.9" y1="133.1" x2="116.9" y2="123.4"/>
		<line class="st10" x1="144.5" y1="133.1" x2="144.5" y2="123.4"/>
		<line class="st10" x1="155.6" y1="136.4" x2="162.4" y2="129.6"/>
		<line class="st10" x1="109.1" y1="136.4" x2="102.2" y2="129.6"/>
		<line class="st10" x1="130" y1="168.9" x2="130" y2="178.7"/>
		<line class="st10" x1="144.5" y1="168.9" x2="144.5" y2="178.7"/>
		<line class="st10" x1="116.9" y1="168.9" x2="116.9" y2="178.7"/>
		<line class="st10" x1="108.7" y1="165.7" x2="101.9" y2="172.5"/>
		<line class="st10" x1="154.3" y1="165.7" x2="161.1" y2="172.5"/>
		<line class="st10" x1="92.5" y1="151" x2="100.6" y2="151"/>
		<g class="st1">
			<path class="st11" d="M162.4,102.2c-3.6,0-6.5-2.9-6.5-6.5c0-20.3-19-21.2-21.2-21.2c-3.6,0-6.5-2.9-6.5-6.5s2.9-6.5,6.5-6.5
				c11.9,0,34.2,7.2,34.2,34.2C168.9,99.3,166,102.2,162.4,102.2z"/>
		</g>
		<path class="st6" d="M125,24.1C69.3,24.1,24.1,69.3,24.1,125S69.3,225.9,125,225.9S225.9,180.7,225.9,125S180.7,24.1,125,24.1z
			 M125,209.6c-46.7,0-84.6-37.9-84.6-84.6S78.3,40.4,125,40.4s84.6,37.9,84.6,84.6S171.7,209.6,125,209.6z"/>
	</g>
	<g>
		<path class="st2" d="M142.1,52.3c0-10.3-8.3-18.7-18.7-18.7c-10.3,0-18.7,8.3-18.7,18.7c0,10.3,8.3,18.7,18.7,18.7
			C133.8,70.9,142.1,62.6,142.1,52.3z"/>
		<path class="st2" d="M150.1,92.3c0-10.5-8.5-18.9-18.9-18.9h-15.4c-10.5,0-18.9,8.5-18.9,18.9l-0.2,40.9h53.4L150.1,92.3z
			 M140.7,100.9H140c-1.4,0.4-2.8,0.6-4.3,0.9c-4,0.4-6.9,3.9-6.4,7.5c0.5,3.4,3.5,5.8,7.3,5.8c0.2,0,0.7,0,0.9,0
			c0.5,0,1.4-0.2,2.4-0.4v4.1c0,0.9-0.7,1.5-1.4,1.9l-14.9,4.1c-0.5,0-0.7,0-1.2,0l-14.9-4.1c-0.9-0.2-1.4-1.1-1.4-1.9v-4.1
			c0.9,0.2,1.7,0.2,2.4,0.4c4,0.4,7.6-2.1,8.3-5.8c0.5-3.7-2.4-6.9-6.2-7.5c-1.4-0.2-2.8-0.4-4.3-0.9v-6.2c0-1.3,1.4-2.1,2.8-1.9
			l13.7,3.7c0.5,0.2,0.7,0.2,1.2,0l13.7-3.7c1.4-0.4,2.8,0.6,2.8,1.9V100.9z"/>
		<g>
			<path class="st12" d="M143.7,139.1c0-10.3-8.3-18.7-18.7-18.7c-10.3,0-18.7,8.3-18.7,18.7c0,10.3,8.3,18.7,18.7,18.7
				C135.4,157.8,143.7,149.5,143.7,139.1z"/>
			<path class="st12" d="M151.7,179.2c0-10.5-8.5-18.9-18.9-18.9h-15.4c-10.5,0-18.9,8.5-18.9,18.9l-0.2,16.9h53.4L151.7,179.2z"/>
		</g>
		<g>
			<path class="st13" d="M90.2,139.1c0-10.3-8.3-18.7-18.7-18.7c-10.3,0-18.7,8.3-18.7,18.7c0,10.3,8.3,18.7,18.7,18.7
				C82,157.8,90.2,149.5,90.2,139.1z"/>
			<path class="st13" d="M98.2,179.2c0-10.5-8.5-18.9-18.9-18.9H63.8c-10.5,0-18.9,8.5-18.9,18.9l-0.2,16.9h53.4L98.2,179.2z"/>
		</g>
		<g>
			<path class="st14" d="M197.2,139.1c0-10.3-8.3-18.7-18.7-18.7c-10.3,0-18.7,8.3-18.7,18.7c0,10.3,8.3,18.7,18.7,18.7
				C188.9,157.8,197.2,149.5,197.2,139.1z"/>
			<path class="st14" d="M205.2,179.2c0-10.5-8.5-18.9-18.9-18.9h-15.4c-10.5,0-18.9,8.5-18.9,18.9l-0.2,16.9h53.4L205.2,179.2z"/>
		</g>
	</g>
</g>
<g id="Layer_2_1_">
	<g>
		<rect x="184.7" y="175.2" class="st15" width="45.2" height="44.3"/>
		<path class="st16" d="M207.8,235.4c15.7,0,28.5-12.8,28.5-28.5v-37.1h-56.9v37.1C179.4,222.6,192.2,235.4,207.8,235.4z
			 M190.3,192.9l7.7-2.3c1.3-0.4,3-1.7,3.8-2.8l4.5-6.6c0.8-1.1,2-1.1,2.8,0l4.5,6.6c0.8,1.1,2.5,2.4,3.8,2.8l7.7,2.3
			c1.3,0.4,1.7,1.6,0.9,2.7l-4.9,6.3c-0.9,1.1-1.5,3.1-1.5,4.5l0.2,8c0.1,1.4-1,2.2-2.3,1.7l-7.6-2.7c-1.3-0.4-3.4-0.4-4.7,0
			l-7.6,2.7c-1.3,0.4-2.3-0.3-2.3-1.7l0.2-8c0.1-1.4-0.6-3.4-1.5-4.5l-4.9-6.3C188.5,194.5,188.9,193.3,190.3,192.9z"/>
	</g>
</g>
</svg>
