<svg xmlns="http://www.w3.org/2000/svg" viewBox="0 0 3100 2000"><defs><style>.cls-1{fill:#92e7e8;}.cls-2,.cls-7{fill:#032624;}.cls-19,.cls-2{opacity:0.2;}.cls-3{fill:#187a7a;}.cls-4{fill:#defffe;}.cls-5{fill:#ea526f;}.cls-6{fill:#25ced1;}.cls-8{fill:#fff;}.cls-9{fill:#0c4240;}.cls-10{fill:#ffd8c2;}.cls-11{fill:#5b061b;}.cls-12{fill:#e085ae;}.cls-13{fill:#f7a9c9;}.cls-14{fill:#e8b49a;}.cls-15{fill:#e8e8e8;}.cls-16{fill:#57726a;}.cls-17{fill:#ccfffe;}.cls-18{fill:#eefffe;}.cls-19{fill:#cdd2ea;}.cls-20{fill:#54351e;}.cls-21{fill:#72533e;}.cls-22{fill:#6b4a34;}.cls-23{fill:#470e24;}.cls-24{fill:#065b59;}</style></defs><g id="Слой_2" data-name="Слой 2"><rect class="cls-1" width="3100" height="2000"/></g><g id="Layer_2" data-name="Layer 2"><path class="cls-2" d="M2840.24,1851.76c-19.51-331.92-342.56-349-450.85-363.22s-89.06-472.87-403-463.42h0c-70.93,0-135.94,21.42-185.5,56.63-36.2,25.71-85.08-1.11-85.08-46.94V821.64c0-209.32-157.57-380.58-350.16-380.58h0c-192.6,0-350.17,171.26-350.17,380.58h0c0,125.29-104.87,222.85-223.42,206.65a345.85,345.85,0,0,0-46.92-3.17h0c-154.46,0-280.85,101.61-280.85,225.81v40.25c0,11.38-8.8,20.61-19.67,20.6h-.2c-107.41,0-195.3,67.44-195.3,149.86v389.94l2018.12.18Z"/><path class="cls-2" d="M856.7,984.62s-91.39-38.89-37.34-149.52C819.36,835.1,921,901.2,856.7,984.62Z"/></g><g id="Layer_3" data-name="Layer 3"><rect class="cls-3" x="952.45" y="266.87" width="1086.59" height="1585.3"/><rect class="cls-4" x="1021.59" y="340.97" width="948.3" height="1418.57"/><rect class="cls-5" x="1235" y="266.87" width="521.49" height="93.89"/><path class="cls-6" d="M1249.2,995.19H1094V840H1249.2ZM1107,982.14h129.14V853H1107Z"/><rect class="cls-6" x="1353.9" y="875.01" width="548.11" height="19.01" rx="9.51"/><path class="cls-6" d="M1892.5,927.07H1363.41a9.53,9.53,0,0,1-9.51-9.5h0a9.54,9.54,0,0,1,9.51-9.51H1892.5a9.54,9.54,0,0,1,9.51,9.51h0A9.53,9.53,0,0,1,1892.5,927.07Z"/><path class="cls-6" d="M1713.91,960.12h-350.5a9.53,9.53,0,0,1-9.51-9.5h0a9.54,9.54,0,0,1,9.51-9.51h350.5a9.54,9.54,0,0,1,9.51,9.51h0A9.53,9.53,0,0,1,1713.91,960.12Z"/><path class="cls-5" d="M1129,869.61s25.31,55.45,35.6,90.51c0,0,42.75-123.34,84.65-155,0,0-71.6,55.57-87,92.94Z"/><path class="cls-6" d="M1249.2,666.79H1094V511.55H1249.2Zm-142.19-13h129.14V524.6H1107Z"/><rect class="cls-6" x="1353.9" y="546.62" width="548.11" height="19.01" rx="9.51"/><path class="cls-6" d="M1892.5,598.68H1363.41a9.54,9.54,0,0,1-9.51-9.51h0a9.53,9.53,0,0,1,9.51-9.5H1892.5a9.53,9.53,0,0,1,9.51,9.5h0A9.54,9.54,0,0,1,1892.5,598.68Z"/><path class="cls-6" d="M1713.91,631.73h-350.5a9.54,9.54,0,0,1-9.51-9.51h0a9.53,9.53,0,0,1,9.51-9.5h350.5a9.53,9.53,0,0,1,9.51,9.5h0A9.54,9.54,0,0,1,1713.91,631.73Z"/><path class="cls-5" d="M1129,541.21s25.31,55.45,35.6,90.52c0,0,42.75-123.34,84.65-155,0,0-71.6,55.56-87,92.93Z"/><path class="cls-6" d="M1892.5,1198.7H1363.41a9.54,9.54,0,0,1-9.51-9.51h0a9.53,9.53,0,0,1,9.51-9.5H1892.5a9.53,9.53,0,0,1,9.51,9.5h0A9.54,9.54,0,0,1,1892.5,1198.7Z"/><path class="cls-6" d="M1892.5,1231.75H1363.41a9.54,9.54,0,0,1-9.51-9.51h0a9.53,9.53,0,0,1,9.51-9.5H1892.5a9.53,9.53,0,0,1,9.51,9.5h0A9.54,9.54,0,0,1,1892.5,1231.75Z"/><path class="cls-6" d="M1713.91,1264.8h-350.5a9.54,9.54,0,0,1-9.51-9.51h0a9.53,9.53,0,0,1,9.51-9.5h350.5a9.53,9.53,0,0,1,9.51,9.5h0A9.54,9.54,0,0,1,1713.91,1264.8Z"/><path class="cls-6" d="M1249.2,1321.88H1094V1166.63H1249.2ZM1107,1308.83h129.14V1179.69H1107Z"/><path class="cls-5" d="M1129,1199.71s25.31,55.45,35.6,90.52c0,0,42.75-123.35,84.65-155,0,0-71.6,55.56-87,92.93Z"/><path class="cls-6" d="M1249.2,1650.28H1094V1495H1249.2ZM1107,1637.22h129.14V1508.08H1107Z"/><path class="cls-6" d="M1363.41,1508.08h529.1a9.5,9.5,0,0,1,9.5,9.5v0a9.5,9.5,0,0,1-9.5,9.5h-529.1a9.5,9.5,0,0,1-9.5-9.5v0a9.51,9.51,0,0,1,9.51-9.51Z"/><path class="cls-6" d="M1892.5,1560.14H1363.41a9.53,9.53,0,0,1-9.51-9.5h0a9.54,9.54,0,0,1,9.51-9.51H1892.5a9.54,9.54,0,0,1,9.51,9.51h0A9.53,9.53,0,0,1,1892.5,1560.14Z"/><path class="cls-6" d="M1713.91,1593.19h-350.5a9.53,9.53,0,0,1-9.51-9.5h0a9.54,9.54,0,0,1,9.51-9.51h350.5a9.54,9.54,0,0,1,9.51,9.51h0A9.53,9.53,0,0,1,1713.91,1593.19Z"/><path class="cls-5" d="M1129,1528.1s25.31,55.46,35.6,90.52c0,0,42.75-123.34,84.65-155,0,0-71.6,55.57-87,92.94Z"/><path class="cls-7" d="M2982.05,1852.33H87.67a7.79,7.79,0,0,0-7.67,7.85h0a7.79,7.79,0,0,0,7.67,7.85H2982.05a7.86,7.86,0,0,0,0-15.71Z"/></g><g id="Layer_4" data-name="Layer 4"><path class="cls-8" d="M1729.15,504.34s434.26-77.71,748.8.88c0,0,84.87,704.28-373.82,898.88C2104.13,1404.1,1653.55,1237.58,1729.15,504.34Z"/><path class="cls-5" d="M1779.1,549.28s398.26-51.1,641.45,0c0,0,81.21,572-312,783.45C2108.59,1332.73,1748.44,1230.67,1779.1,549.28Z"/><polygon class="cls-8" points="2273.41 796.08 2154.07 796.08 2154.07 679.68 2044.77 679.68 2044.77 796.08 1931.33 796.08 1931.33 905.38 2044.77 905.38 2044.77 1021.77 2154.07 1021.77 2154.07 905.38 2273.41 905.38 2273.41 796.08"/><g id="scientist_2" data-name="scientist 2"><path class="cls-9" d="M2528.7,1040.4c19-18.88,16.59-165.6,16.81-174.57.63-25.91,10.42-36.73,10.42-36.73,32.82-19.43,86.84-20.71,107.36,31.65,13.17,33.6,46.84,98.92,46.84,98.92,137.63,191,82.94,285.18,82.94,285.18l-5.88-.65c2-6.25,3.62-15.09,1.56-18.84l-5.61,18.7L2681.47,1231c-.77-19.54-8.62-50-8.62-50l-.48,51.71-13.64.72c5.4-109-17.77-162.58-24.63-175.85,5.89,60.62-23.45,159.48-23.45,159.48l-4.2-1,9.52-49.42-12.19,48.82-11.81-2.68q2.82-9.87,5.19-19.26c-3.25,12.08-5.19,19.26-5.19,19.26-25.33-27.56-71.73-25.12-71.73-25.12C2495,1152.25,2528.7,1040.4,2528.7,1040.4Z"/><polygon class="cls-10" points="2517.58 1776.26 2487.92 1835.46 2463.76 1826.15 2469.32 1765.73 2517.58 1776.26"/><path class="cls-11" d="M2498.38,1825.43l-8.08,26.74h-80.22S2430.6,1816.1,2498.38,1825.43Z"/><path class="cls-12" d="M2520.24,1261.09l-63.36,519h67.19s87.67-224.47,100.25-458.39C2629.13,1232.37,2520.24,1261.09,2520.24,1261.09Z"/><polygon class="cls-10" points="2682.07 1780.93 2668.32 1829.21 2642.62 1826.1 2636.93 1752.32 2682.07 1780.93"/><path class="cls-11" d="M2670.72,1825.43l-8.08,26.74h-80.22S2602.94,1816.1,2670.72,1825.43Z"/><path class="cls-13" d="M2607,1268.14h49.76l53.39-7.47s34.16,74.62,16.57,295.78c-8.94,112.38-42.18,231.92-42.18,231.92l-68.88-1.42-29.75-412.45c-.88-11.3-14-15.36-14-15.36l1.91-92.27Z"/><path class="cls-5" d="M2659.5,1778.51c9.27-49.87,17.42-109,22.67-170.74.81-9.43,1.57-19.14,2.28-28.84.78-10.71,1.5-21.56,2.14-32.23.22-3.67-.72-7.9-1.64-12-.86-3.81-1.74-7.75-1.57-10.91,2.14-40.6,2.25-77.77,2.35-110.56q0-12.9.11-25.28c.53-74.56,1.1-116.82,1.13-117.23h0c0,.41-3.1,42.48-3.63,117.15q-.09,12.38-.11,25.28c-.1,32.76-.21,69.89-2.35,110.43-.18,3.53.74,7.66,1.64,11.64s1.78,8,1.58,11.23c-.64,10.67-1.36,21.5-2.14,32.2-.71,9.7-1.47,19.39-2.27,28.81-5.25,61.62-11.65,121.3-20.91,171.09Z"/><path class="cls-14" d="M2587.08,927.92s7.89,45.83-20.64,67.46c0,0,12.27,26.6,20.53,30.76,9.21,4.64,33.36,4.65,41.23-2,8.13-6.89,15.37-39.78,15.37-39.78s-6.24-28.52-5-72.11Z"/><path class="cls-10" d="M2577.05,941s62.87,2.87,64.06-36.31,10.1-65.19-30-68.68-48.35,11.22-51.92,24.2S2560.73,939.26,2577.05,941Z"/><path class="cls-13" d="M2520.24,1261.09s8.34,6.88,91.63,11c5.42.27,10.56.45,15.45.56,29.87.69,50-1.38,63.21-4,17.86-3.51,23.22-8,23.22-8s-26-62.72-26-92.53c0-20.6-46.49-187.53-46.49-187.53-5.45,15-20.13,27.85-36.25,28-42.2.31-25.74-28-25.74-28l-47.53,19.1s5.9,17.63,3.68,34.72a42.74,42.74,0,0,1-3.6,12.84,29.14,29.14,0,0,1-1.37,2.59c-11.49,19.64-3.62,53.69,4.79,93.14S2520.24,1261.09,2520.24,1261.09Z"/><path class="cls-10" d="M2531.74,999.64s-50.14,84.26-74.86,147.91c0,0-60.58-25.15-95.22-39.74l-5.31-2.23-11.29-4.8s-2.58-26.32-31.41-29.61c0,0-11.91-.47-8.54,7.74s3.23,4.7,7.73,16.34,13.8,20.79,22.71,21.71c0,0,3.89,3,10.29,7.81h0c1.91,1.43,4,3,6.38,4.74,28.82,21.26,86.59,61.89,104.64,59.87,24.38-2.73,93.5-101.86,93.5-101.86Z"/><path class="cls-8" d="M2414.57,1174.23s32.89,16.52,39.42,16.52,24.24-8.6,42.88-30.82c8.13-9.7,20-24.87,30.85-39,14-18.25,26.16-34.73,26-35.24-.3-.91-6.82-92.16-6.82-92.16s-15.6,4.26-16.67,5.31-62.29,110.81-73.21,143.23l-36.46-10.94Z"/><path class="cls-8" d="M2588.75,1125.74l-7.83,351h-89.63s19.58-199.16,28.95-261.45c10.74-71.37,10-216.44,10-216.44s36.8-15,39.61-14.54S2588.75,1125.74,2588.75,1125.74Z"/><path class="cls-15" d="M2579.27,980.54s14.94,116.4,9.48,145.2l-23.49-78.54,5.3-9.38-9.7-3,6.06-49.41S2570.89,980.54,2579.27,980.54Z"/><path class="cls-8" d="M2597.36,1129.36v347.4s57-1,101-2.45c27.69-.9,50.26-2,50.26-3,0-2.46-15.64-144.59-44.2-247.4a197.37,197.37,0,0,1-6.49-70.34c2.05-23.19,5.06-50.38,8.68-63a3,3,0,0,0,.1-.32s53.88,43.42,52.51,45.47-14.69,38.19-14.69,38.19,25.3,18.35,30.46,20.92c0,0,47-63.35,40.47-73.43,0,0-81.88-139.24-100.49-133.4-5.28,1.66-60.33-3.67-60.33-3.67Z"/><path class="cls-15" d="M2643.57,984.33c-2.29,2.3-46.2,145-46.2,145s40.31-68.82,43.35-70.33l-4.5-8.49,9.65-4.85,8.79-61.37S2647.34,980.56,2643.57,984.33Z"/><path class="cls-9" d="M2559.77,845.4s77.12,59.43,70.31,103.32c-6.4,41.23,5.73,44.91,14.75,48.84,23.28,10.15,61.27-10,73.36-9.38,8.61.42-21-8.36-35-27.14-37.41-50-33.77-117.47-41.23-122.33C2591.05,805.59,2559.77,845.4,2559.77,845.4Z"/><path class="cls-15" d="M2413.66,1126.21s-6.51,41.81-9.7,48.63l11.37,5.81s6.82-43.24,5-51.13Z"/><path class="cls-15" d="M2672.87,1275.09c6,22.78,19.7,145.51,25.51,199.22,27.69-.9,50.26-2,50.26-3,0-2.46-15.64-144.59-44.2-247.4a197.37,197.37,0,0,1-6.49-70.34c2.05-23.19,5.06-50.38,8.68-63-4-3.44-8.49-5.47-11.09-3.28C2689.8,1092.16,2665.14,1245.74,2672.87,1275.09Z"/><path class="cls-10" d="M2744.55,1173.93c-.82,4.53-25.16,47.82-29.73,55.91-.46.84-.73,1.29-.73,1.29l-4.32,3.34s-19.89-17.43-43.16-.11c0,0-9,7.8-.93,11.49s5.56,1.21,16.81,6.63,24.28,5.71,31.41.3l7.9-6.07c1.35-1,3.82-3.27,7-6.23,15.17-14.24,46.25-45.64,46.25-45.64Z"/><path class="cls-15" d="M2414.57,1174.23s32.89,16.52,39.42,16.52,24.24-8.6,42.88-30.82c8.13-9.7,20-24.87,30.85-39,1.51-7.46,2.08-15.7-3-16.21-9.1-.91-58.2,73.66-70.48,73.2S2414.57,1174.23,2414.57,1174.23Z"/><path class="cls-15" d="M2745.3,1171.9l34.95,21.8s-4.56,5-4.71,4.71S2744,1175.5,2744,1175.5Z"/></g><path class="cls-16" d="M631.5,1820.69l8.7,31.62h86.39S704.49,1809.66,631.5,1820.69Z"/><path class="cls-16" d="M449.32,1820.69l8.71,31.62h86.39S522.32,1809.66,449.32,1820.69Z"/><path class="cls-17" d="M483.06,1253.91s-57.92,411.55-39.7,574h76l79.55-536.21Z"/><path class="cls-18" d="M636.56,1288.56l71.52,539.33H627.45s-181.3-499.64-144.39-574Z"/><path class="cls-19" d="M1203.78,706c-157.27,44-249,207.26-205,364.52A294.5,294.5,0,0,0,1115,1233.66L1459.41,753A295.16,295.16,0,0,0,1203.78,706Z"/><path class="cls-11" d="M1594.49,908.09c-47-167.61-220.88-265.41-388.48-218.46-160.09,44.85-256.49,205.54-223.9,365.92L386.48,1222.41a9.94,9.94,0,0,0-6.87,12.22l5.3,18.91a9.94,9.94,0,0,0,12.22,6.87l595.21-166.74c53.06,158,221.35,248.38,383.7,202.9C1543.64,1249.62,1641.44,1075.69,1594.49,908.09ZM1368.7,1267.23c-151.52,42.45-308.77-46-351.22-197.5s46-308.77,197.5-351.21,308.77,46,351.22,197.49S1520.22,1224.78,1368.7,1267.23Z"/><path class="cls-3" d="M566.59,1326.39c39.08,0,54.42-29.69,54.42-29.69-.16.28-17,28.28-55.8,27.59l0,2.09Z"/><path class="cls-3" d="M669.59,1812.36a1611,1611,0,0,1-47.51-157.64c-2.17-8.75-4.34-17.77-6.45-26.79-2.33-10-4.61-20-6.8-30-.75-3.42-.39-7.49,0-11.41.32-3.66.65-7.44,0-10.39-8-37.83-13.43-72.65-18.23-103.37q-1.89-12.09-3.74-23.68c-11.24-69.83-17.88-109.37-18-109.76h0c.09.39,9.24,39.49,20.49,109.41,1.25,7.74,2.48,15.63,3.74,23.69,4.8,30.69,10.24,65.48,18.22,103.25.69,3.29.34,7.26,0,11.08s-.67,7.64,0,10.7c2.18,9.93,4.47,20,6.79,30,2.11,9,4.28,18,6.44,26.76,14.17,57.2,29.23,112.46,45.77,158.15Z"/><path class="cls-20" d="M683.45,877.19s-.46,26.44-9.57,45.67c0,0-34.15-9.12-44.38-13.53-4.92-2.11-16.22-12.55-16.22-12.55a151,151,0,0,0,19.21-53.56C636.9,812.92,683.45,877.19,683.45,877.19Z"/><path class="cls-21" d="M700.3,882.91s-71,3.25-72.36-41-11.41-73.66,33.88-77.6,54.62,12.68,58.66,27.34S718.74,880.93,700.3,882.91Z"/><path class="cls-22" d="M574.15,893.82s-93.35,97.45-130.79,173.66c0,0,18.72,59.7,103.12,149.79,0,0,1.2-7.62,4.73-29,.69-4.21-31.42-77.8-60.05-118.75,0,0,66.46-42,84-76.4S574.15,893.82,574.15,893.82Z"/><path class="cls-23" d="M629.25,850.69S662.9,790.64,719,787c0,0,24.7-9.89,24.7-23.24,0,0-79.77-23.53-108.8,0C591.33,799,629.25,850.69,629.25,850.69Z"/><path class="cls-21" d="M901.07,1117.58c-10.72,2.11-6.45,2.77-21.6,5.45s-28.39,11.75-31.63,22.29l-111.76,3.14c8.77-39.82,8.1-189.61,2-201.76s-64.22-23.84-64.22-23.84L659.63,993.1s17.75,177.11,34.62,193.8,170.88-26.24,170.88-26.24,32.44,3.14,43.26-30.93C908.39,1129.73,911.79,1115.46,901.07,1117.58Z"/><path class="cls-3" d="M549.18,893.82S444.6,1032.22,436.5,1067.14c0,0,6.86,14.48,26.17,40.41L502,1086.12s-6.52-13.26-7.88-15.44c0,0-.76-.76,3.67-3.16s26.44-17.33,26.44-17.33Z"/><path class="cls-3" d="M483.06,1253.91c13.28,26.82,158.9,38.92,168,33.86s2.74-38.94,4.05-53.13c2.89-31.31,18.41-67.35,22.09-79,.43-1.42.68-2.2.68-2.2.26,14.68,18.48,39.84,18.48,39.84,34.66,3.41,97.74-12.77,97.74-12.77-.2-1.38-.35-2.76-.46-4.11a77.61,77.61,0,0,1,3.67-30.28c-5.37-.39-42-.12-51.93,0a2.34,2.34,0,0,1-2.37-2.45l5.66-54.94c12.33-110.17-9.22-149.73-9.22-149.73C722.59,925.45,676.37,915,676.37,915c-38.12-2.51-63.09-18.22-63.09-18.22s-54.65-6.07-64.1-3-27.16,113.61-31.27,157-29.16,150.58-34.85,166.4C474.25,1241.75,481,1249.82,483.06,1253.91Z"/><path class="cls-24" d="M677.88,1153.42c.26,14.68,18.48,39.84,18.48,39.84,34.66,3.41,97.74-12.77,97.74-12.77-.2-1.38-.35-2.76-.46-4.11-11.59,1.25-80.58,8.48-88.68,3.61,0,0-27.7-25.25-31.08-162.44Z"/></g></svg>