<svg xmlns="http://www.w3.org/2000/svg" xmlns:xlink="http://www.w3.org/1999/xlink" viewBox="0 0 4000 2500"><defs><style>.cls-1{fill:none;}.cls-2{fill:#5b061b;}.cls-3{fill:#ffdcdc;}.cls-4{fill:#e5a8b6;}.cls-5,.cls-9{fill:#25ced1;}.cls-40,.cls-5,.cls-7{opacity:0.5;}.cls-40,.cls-6{fill:#fff;}.cls-7,.cls-8{fill:#1faaad;}.cls-10{fill:#ea526f;}.cls-11{fill:#303c60;}.cls-12{fill:#46b9bc;}.cls-13{fill:#3fa3aa;}.cls-14{fill:#ffd3b6;}.cls-15{fill:#a3efed;}.cls-16{fill:#76cec9;}.cls-17{fill:#e8b091;}.cls-18{fill:#92e7e8;}.cls-19{fill:#305e5d;}.cls-20{fill:#032624;}.cls-21{fill:#134743;}.cls-22{fill:#513522;}.cls-23{fill:#331e10;}.cls-24{fill:#7c1f3a;}.cls-25{fill:#309996;}.cls-26{fill:#57726a;}.cls-27{fill:#f09959;}.cls-28{fill:#e5e5e5;}.cls-29{fill:#ff83a1;}.cls-30{fill:#e38540;}.cls-31{fill:#75a1de;}.cls-32{fill:#efd3d3;}.cls-33{fill:#309999;}.cls-34{fill:#bc5b87;}.cls-35{fill:#d384ab;}.cls-36{fill:#a86b48;}.cls-37{fill:#7a4e34;}.cls-38{fill:#d2fffe;}.cls-39{fill:#f7a9c9;}.cls-41{clip-path:url(#clip-path);}.cls-42{fill:#e7f3fe;}.cls-43{fill:#516b6b;}.cls-44{fill:#d8719f;}</style><clipPath id="clip-path"><path class="cls-1" d="M462.56,363.19A142.24,142.24,0,1,0,604.8,505.42,142.23,142.23,0,0,0,462.56,363.19Zm0,217.58a75.35,75.35,0,1,1,75.35-75.35A75.35,75.35,0,0,1,462.56,580.77Z"/></clipPath></defs><g id="bg"><rect class="cls-2" width="4000" height="2500"/></g><g id="Layer_2" data-name="Layer 2"><path class="cls-3" d="M674.23,346c515.63-191.42,1039.7-22.19,1395.13,346.41S3170.72,438,3566.32,806c270,251.14,146.31,896.83-223.87,1176.5C2839.27,2362.61,964.74,2374,653.72,2243.58c-531.49-222.9-3.4-635.68-251.49-1031.37C109.55,745.39,446.37,430.57,674.23,346Z"/><path class="cls-4" d="M3576.66,2133.69c-258.11-12.62-1136.14,8.75-1403.18,17.09s-577-11-738-39.42S343.73,2113.78,386,2190.2s414.67,34.19,837,64.9,1372.23-3.84,1586.5,0,410.74-7.68,686.86-23S3726.27,2141,3576.66,2133.69Z"/><path class="cls-5" d="M3016.88,451.52a249.87,249.87,0,0,0,1.56-27.78c0-5-.16-9.88-.45-14.76l-45.91-14.85a201.6,201.6,0,0,0-16.25-55l30.44-37.45a247.47,247.47,0,0,0-24.11-35.05l-45.91,15a204.56,204.56,0,0,0-45.45-34.94l2.61-48.23a245.88,245.88,0,0,0-40.08-14.21L2805,223.35a203.9,203.9,0,0,0-57.31-1.51l-26.25-40.57a246.29,246.29,0,0,0-40.78,12l.06,48.31a203.84,203.84,0,0,0-47.23,32.49l-45-17.37a247.15,247.15,0,0,0-25.93,33.72l28.42,39a201.5,201.5,0,0,0-19.16,54.06L2525.13,396a249.87,249.87,0,0,0-1.56,27.78c0,5,.16,9.87.45,14.76l45.9,14.85a202.24,202.24,0,0,0,16.25,55l-30.43,37.46a248,248,0,0,0,24.11,35.05l45.91-15a203.77,203.77,0,0,0,45.45,34.93l-2.61,48.24a244.91,244.91,0,0,0,40.08,14.2L2737,624.13a203.29,203.29,0,0,0,57.31,1.5l26.25,40.57a244.94,244.94,0,0,0,40.77-12.05l-.06-48.3a203.42,203.42,0,0,0,47.24-32.5l45,17.38A248.64,248.64,0,0,0,2979.52,557l-28.42-39a202.18,202.18,0,0,0,19.16-54.06ZM2771,520.79a97,97,0,1,1,97.05-97A97,97,0,0,1,2771,520.79Z"/><path class="cls-6" d="M2903.37,535.8a5,5,0,0,1-3.84-8.2,162.84,162.84,0,0,0,28.68-156.82,5,5,0,0,1,9.46-3.25A172.85,172.85,0,0,1,2907.22,534,5,5,0,0,1,2903.37,535.8Z"/><path class="cls-6" d="M2889.32,306.74a5,5,0,0,1-3.43-1.36,161.43,161.43,0,0,0-55.95-34.48,5,5,0,1,1,3.41-9.4,171.43,171.43,0,0,1,59.4,36.6,5,5,0,0,1-3.43,8.64Z"/><path class="cls-6" d="M2733.36,266.29a5,5,0,0,1-1.22-9.85,173,173,0,0,1,42.35-5.24,5,5,0,0,1,0,10,163.46,163.46,0,0,0-39.91,4.93A4.7,4.7,0,0,1,2733.36,266.29Z"/><rect class="cls-7" x="1074.89" y="181.98" width="1546.45" height="928.88"/><rect class="cls-6" x="1150.23" y="204.65" width="1454.92" height="852.73"/><path class="cls-8" d="M3488.49,1780.1c28.41,25.94,16.06,51.89-4.95,100.07s-24.71,226.09-24.71,226.09l17.3-2.47s-2.47-182.85,21-232.27,33.36-74.12,54.36-58.06S3488.49,1780.1,3488.49,1780.1Z"/><path class="cls-8" d="M3566.32,1922.18c-49.42-37.07-100.07-2.48-126,37.06s-7.41,128.48-7.41,128.48,9.88,0,9.88-3.7-27.18-105,37.07-150.73c40.19-28.59,69.18-14.82,72.89-1.23s-16.06,38.3-16.06,38.3Z"/><path class="cls-9" d="M3472.88,1746.51c3.45-15.38,23.94-32,51.34-46.13-4.07,22.68-17.13,59.76-3.61,67.37,18.23,10.25,1.77-41.52,8.81-70a338.4,338.4,0,0,1,85.2-28c0,.11-.08.21-.12.32-16.06,40.77-37.06,56.83-28.41,63,6.5,4.65,27.69-42.44,55.68-66.58,21-1.12,38.77,1.72,49.28,10,16.25,12.86,27.16,24.27,10.82,63.44a73.51,73.51,0,0,1-35.48,12.86c-37.06,3.71-54.36,4.94-28.42,17.3,12.71,6,34-.34,51.27-4.24-5.6,10.32-12.49,22-20.85,35.31a131.61,131.61,0,0,1-17.37,22.1c-11.94,2.29-22.36,2.31-27.87-.05-17.3-7.41-61.77-30.89-72.89-21-10.88,9.67,82.37,15.8,75.91,40.38-45.21,26-96.93,13.65-106.07-10.26C3507.82,1800.35,3462.49,1792.79,3472.88,1746.51Z"/><path class="cls-9" d="M3452.66,1846c49.42,0,65.48,76.6,51.89,121.07s-32.13,127.25-32.13,127.25L3460.07,2082s46.95-116.13,35.83-168-38.3-60.54-43.24-60.54S3452.66,1846,3452.66,1846Z"/><path class="cls-8" d="M3494.11,1967.41a35.83,35.83,0,0,1,13-10.94,97,97,0,0,1-2.56,10.59c-6.2,20.27-13.41,48.48-19.44,73.19-.54-3.16-1.39-8-2.69-15.56-.31-1.78-.55-3.71-.72-5.75A479.25,479.25,0,0,0,3494.11,1967.41Z"/><path class="cls-9" d="M3507.62,1967.78c93.89-39.54,44.42-93.79,127.2-58,5.83,2.52,12.93,8.89,20,17.66a61.64,61.64,0,0,1-26.23,2.11c-24.71-3.71-16.06,16.06,24.71,21a91.79,91.79,0,0,1,19.1,4c19.43,37.31,28.18,86.39-12.92,103.45-8.1,3.37-18.11,5.29-29.26,6-12.68-10.08,3.1-68.42-16.46-60.37-18.77,7.74,5.89,50,2.51,60.66-18.53-.33-39.05-3.36-58.65-8.22-7.76-4.35-13.69-10.18-15.51-17.84-6.18-26,34.59-42,35.83-64.25,1.13-20.44-14.95,45-57.54,54.61C3481.93,2010.68,3463.73,1986.26,3507.62,1967.78Z"/><path class="cls-9" d="M3440.71,1897.88c9.89-21-16.06-26-14.82-9.89,1.09,14.24,1.22,48.83-13.38,58.25-25.17-2.73-59.42-12.87-85.31-28.33a10.46,10.46,0,0,1,1.09-6.44c11.12-22.24,82.77-40.77,60.54-48.18-17.71-5.91-48.75,28.94-73.76,46.49-15-11.4-25.08-25-25.08-40.14,0-20.53,24.94-43.76,57.19-54.87,14.52,1.47,28,9.4,49.06,21.34,31.11,17.63,23.91-10.88-5.5-27.79,25.39,1.31,50.71,12.16,69.38,38.08,0,0-1.76,11.08,10,28.22,32,46.75-4.93,74-49.06,72.27C3423.52,1934.57,3433.89,1912.39,3440.71,1897.88Z"/><path class="cls-8" d="M3563.35,1920.08c24.16,18.67,51,40.5,83.94,55.32s26.36,63.15,26.36,63.15,4.94-41.73-22.52-56-45.57-31.3-66.44-34.59-32.4-6.59-32.4-6.59,6.59-13.18,2.75-18.12S3563.35,1920.08,3563.35,1920.08Z"/><path class="cls-8" d="M3682.43,1700.85c-88.4,23.61-153.2,80.17-165.28,93.9s-12.08,17.57-12.08,17.57l9.34,17.57,4.39-2.2s-7.14-14.82,11.53-34c32.2-33.15,71.38-59.31,98.29-70.84S3682.43,1700.85,3682.43,1700.85Z"/><path class="cls-10" d="M3438.4,2069.11h33.78a43.49,43.49,0,0,1,43.49,43.49v77.6a0,0,0,0,1,0,0H3394.91a0,0,0,0,1,0,0v-77.6A43.49,43.49,0,0,1,3438.4,2069.11Z" transform="translate(6910.58 4259.31) rotate(180)"/><rect class="cls-6" x="3394.91" y="2082.98" width="120.75" height="8.5"/><rect class="cls-6" x="3394.91" y="2098.48" width="120.75" height="5"/></g><g id="Layer_3" data-name="Layer 3"><path class="cls-11" d="M2390.87,645.34c69.34-66,187.84-64.5,185.34,36S2582,791.29,2610.54,844c99,182.93-118,172.17-208.5,178.17s-83-164.5-67-259S2370.58,664.66,2390.87,645.34Z"/><path class="cls-12" d="M2423.19,1221.58c-22.23,186.67-62.62,324.66-67.12,413.16s-22.5,436.94-22.5,436.94,49.5-3.46,54-11,93-204,88.5-325.49S2564.46,1429,2564.46,1429l-22.4-181.25Z"/><path class="cls-13" d="M2444.54,1302.84l-34.76,14.55c-9.45,59.19-19.94,112.41-29.14,159.62,55.32,35.76,83.89,154.92,96.14,227.77,6.24-81.52,44.7-180,68.56-234.49Z"/><path class="cls-12" d="M2605.06,1202.76s74.92,95.57,72.57,204c-3.57,165-21.57,212.17,9.75,385.23,12.23,67.59-27,288.7-27,288.7s-33.51,2.62-51.51-6.34c1.5-16.24-21.66-280.52-66.76-402-21.85-58.83-52.54-223.59-69-318.09s-19.5-114-13.5-114S2605.06,1202.76,2605.06,1202.76Z"/><path class="cls-14" d="M2178.21,937.34s3.33-49.45-2-64.72S2124.87,844,2124.87,844s-2,70.67,2.67,79.33,32,33.34,32,33.34Z"/><path class="cls-15" d="M2436.86,901.31c-105.32,113.37-139.7,161.07-147.7,161.07-25-44.13-108-137.46-108-137.46l-35.4,22.76s81.82,213.77,133.82,216,157.69-73.72,159-82.44S2436.86,901.31,2436.86,901.31Z"/><path class="cls-16" d="M2327,1152.58c51.53-21,110.56-64.86,111.56-71.36,1.34-8.72-1.71-179.91-1.71-179.91-23,24.72-43,46.64-60.4,65.81C2357.59,1037.38,2358.83,1113.89,2327,1152.58Z"/><path class="cls-15" d="M2543.87,826.68s100.79,50.52,122.79,140-43.1,199.91-51.1,258.87-192,69.33-192,6.22c0-60.51-46.1-188.94-43.5-221.66,6.11-76.76,118.31-170.79,118.31-170.79Z"/><path class="cls-14" d="M2514.58,710.83l43.27,133.42s-46.2,35.66-125.27,121.43c3.07-57.08,50.89-119.29,50.89-119.29l-32.73-126Z"/><path class="cls-17" d="M2534.76,773.06l-20.18-62.23-63.84,9.56,32.73,126s-3.2,5.09-7.91,13.1C2506.39,836.6,2525.31,808.12,2534.76,773.06Z"/><path class="cls-14" d="M2490.74,740.94c-11.67,42.46-56.86,65.84-89,57s-39-46.51-27.31-89,47.17-69.73,79.28-60.9S2502.41,698.48,2490.74,740.94Z"/><path class="cls-15" d="M2415.53,1171.89c14,88.79-38,278.74-38,278.74s31,7,124-2,134-101.82,148-104.41,21.19,86.38,28.09,93.41,8-112.35-10.09-159.29c-32-83.19-25.74-118.48-13.78-168.88C2675,1019.88,2415.53,1171.89,2415.53,1171.89Z"/><path class="cls-2" d="M2335.83,2028c8.38,34-8.16,61-30.29,80.7-18,16-73.33,22.8-70.67,30.8s68,10.53,90,7.2,28-14,55.38-14c18,0,21.29-14.59,13.29-32.63s-10.8-28-3.57-44.2S2335.83,2028,2335.83,2028Z"/><path class="cls-2" d="M2662.31,2028c-1.34,35.33-5.44,61.65,3.23,78,33.47,28,61.29,59.81,50.67,62-50.67,10.47-70-19.9-98.67-28.53-35.18-10.6,3.33-54.8-10.45-111.5-7.67-31.53,53.12-24,53.12-24Z"/><path class="cls-16" d="M2675.1,1307.36c-2-11.08-4.52-21.06-7.56-29-32-83.19-25.74-118.48-13.78-168.88A39.06,39.06,0,0,0,2655,1099c2.7-9,5.22-18.09,7.43-27.26l-10.86-98-78.31-93c-58.69,86-19.08,193-27.89,252s-107.14,134.23-107.14,134.23l3.2,20.93a53.16,53.16,0,0,0,59.78,44.67c40.53-5.63,93.7-16.93,117.36-38.89C2641.43,1272.38,2661.71,1288.82,2675.1,1307.36Z"/><path class="cls-14" d="M2461.19,1263.53s-43.41,12.15-48.6,14.86-8.06,17.07-8.06,17.07-24.85,21.58-15.33,29.22,26.52,27,49,18c13.79-5.52,24.49-56.21,33.53-56.62S2461.19,1263.53,2461.19,1263.53Z"/><path class="cls-15" d="M2584.14,869.34c46.46,1.32,88.59,85,103.27,157.6s30.13,175.82,30.13,175.82-77,60.77-153.08,78.53c-66.38,15.5-100.26,21.55-100.26,21.55L2450.74,1265l158.8-93.27s-58.39-110-64.2-193S2548.83,868.34,2584.14,869.34Z"/><rect class="cls-18" x="2027.59" y="838.25" width="118.13" height="75.02" transform="translate(-131.51 427.62) rotate(-11.35)"/><path class="cls-17" d="M2150.35,931.34c1.59-30.42-13.48-71.91-22.14-71.85s2.66,27.19-2,45.19C2123.68,914.43,2150.35,931.34,2150.35,931.34Z"/><path class="cls-11" d="M2383,661.34c2.58,83.34,99.91,76.95,126.58,71.81S2477.07,909,2527.87,919.4c37.3,7.67,28.9-50.68,70.34-46.78,18.33,1.72,36.75,30.06,36.75,30.06s-2.75-17.45-16.75-30.06-50.71-89.94-60.36-145.28-75-91.12-94.31-92.22S2396.87,656,2396.87,656Z"/><path class="cls-14" d="M2513.15,749.16c-6.86,8.84-17.61,12-24,7s-6-16.15.84-25,17.6-12,24-7S2520,740.32,2513.15,749.16Z"/><path class="cls-19" d="M1756.88,1057.74c23.76,47.52,4.09,102.24-42.65,121.57-47,19.46-98.48,8.41-122.24-39.11s-6.12-104.49,39.42-127.26S1733.11,1010.23,1756.88,1057.74Z"/><path class="cls-9" d="M1701.45,1242.65c27,6.06,61.19,81.21,77.91,129.36,16.86,48.56,45.45,108.8,64.17,127.51s141.71,62.11,141.71,62.11-303.89.59-297.67,0S1701.45,1242.65,1701.45,1242.65Z"/><path class="cls-8" d="M1862.78,1537.49c-16.63-2.38-76.65,5.35-51.1-5.35s22-24.36,22-24.36-36.25,30.3-42.78,3.8c-5.64-22.84-7.8-103.51-29.19-184.37-17.67-40.09-40.8-80.2-60.25-84.56,0,0-.68,28.47-1.81,68.39,7.46,88.33,20.13,218.11,23.34,250.83,40.28.06,107.69,0,164.09-.08l37.51-1.79S1879.42,1539.87,1862.78,1537.49Z"/><path class="cls-9" d="M1602,1226s-86,48.06-106.08,58.29,56.18,310.27,73.14,323.13,166.22,2.21,183.21-14-13-65.92,1.67-165.47-44.86-185.5-52.51-185.31-57.59-16.65-57.59-16.65Z"/><path class="cls-8" d="M1569.08,1607.42c17,12.86,123.76,13.14,169.23-1,5.13-1.6,28.43-10.88,29-19.61-5.48-1-27.27,1.59-36.11-.45-30.75-7.06-47.69-45.15-47.69-45.15s-16.93-6.1-54.81-22.14-22.28-64.62-23.17-86-37.44-91.36-106.07-144.39l-6.29,2.82C1488.24,1340.25,1553.39,1595.52,1569.08,1607.42Z"/><path class="cls-20" d="M2160.11,1372H1953l-94.35,200.76H2086.8L2172.2,1391A13.35,13.35,0,0,0,2160.11,1372Z"/><path class="cls-21" d="M1871,1575.62H1746.32a14,14,0,1,1,0-28H1862l78.23-168.37a14,14,0,1,1,25.39,11.79l-82,176.48A14,14,0,0,1,1871,1575.62Z"/><path class="cls-22" d="M1654.81,1532.74c54.08,10.1,67.37,22.51,96.85,27.26,33.41,5.39,29.44,12.77,4.62,12.77s-87.18,1-108.58-3.79S1654.81,1532.74,1654.81,1532.74Z"/><path class="cls-9" d="M1489.18,1289.92c-41.44,132.5-100.19,282.85-90.83,282.85s247.32,9.62,256.68,1.61,6.68-38.76,5.35-42.77-135.29-27.78-135.29-27.78,17.64-34.38,24.32-101.56S1497,1264.79,1489.18,1289.92Z"/><path class="cls-22" d="M1633.53,1110.86l-33.38,122s56.4,88.05,71.91,80.23-8.67-71.57-8.67-80.23,24.18-98,24.18-98Z"/><path class="cls-23" d="M1664.55,1239.07a32.63,32.63,0,0,1-1.16-6.22c0-8.66,24.18-98,24.18-98l-54-24-11,40.37C1632.13,1192.93,1649.54,1220.7,1664.55,1239.07Z"/><path class="cls-22" d="M1758.44,1108.84c6.36,35.37,2.17,82.36-29.24,94.3s-69.25-10.91-84.52-51-2.17-82.36,29.25-94.31S1750.84,1066.58,1758.44,1108.84Z"/><path class="cls-22" d="M1652.13,1128.75c4.4,12.36.58,25-8.54,28.27s-20.09-4.15-24.49-16.52-.58-25,8.54-28.27S1647.73,1116.38,1652.13,1128.75Z"/><path class="cls-19" d="M1758.81,1064.4c-10.7,83-111.55,72.31-111.55,72.31s-20.8-27.34-30.16-13,13-84.16,70.85-87.26C1707,1035.43,1758.81,1064.4,1758.81,1064.4Z"/><ellipse class="cls-19" cx="1601.67" cy="1029.3" rx="54.62" ry="51.25"/><polygon class="cls-2" points="1492.87 2175.94 1505.37 2175.94 1586.02 1802.23 1558.54 1802.23 1492.87 2175.94"/><polygon class="cls-2" points="1881.22 2175.94 1868.73 2175.94 1774.86 1789.02 1802.34 1789.02 1881.22 2175.94"/><path class="cls-2" d="M1635.39,1816.23c-50,0-81.74-9-102-28.69-25.07-24.43-30.26-62.27-30.34-111.57-.06-38.8-1-64.07-3.08-84.5a14,14,0,0,1,27.85-2.87c2.2,21.42,3.17,47.53,3.23,87.32.08,50,6.42,76.5,21.88,91.56,15.87,15.46,44.55,21.83,93,20.62,46.77-1.16,79-7.7,104.83-13,34-6.91,58.61-11.91,87.76,2a14,14,0,1,1-12.07,25.26c-20.69-9.88-38.25-6.31-70.11.16-26.95,5.48-60.48,12.29-109.72,13.51Q1640.87,1816.23,1635.39,1816.23Z"/><path class="cls-24" d="M1521.71,1574.38l76.6,3.19L1577.91,1789s-57.09-36.44-56.2-75.66S1521.71,1574.38,1521.71,1574.38Z"/><path class="cls-22" d="M1899.81,1594.08c64.76-9.83,86.77-6.73,126.41,67s92.39,206.57,122.73,223.73c45.69,25.83,60.83,89.16,79.59,86.32s30.84,5.44,10.42,22.41-53.38,31.41-64.65,28.4-20-51.72-49.46-67.53-20.59-28.81-18.66-42.8-85.94-78.39-152.19-158.49c-40.47-49-61.32-81.25-64.41-110.53S1899.81,1594.08,1899.81,1594.08Z"/><path class="cls-23" d="M2060.36,1861.56c-15-38.16-30.13-101.14-44.31-158.88-20.17-82.12-41.31-101.61-54.7-110.37-16.19-4.06-35.37-2.2-61.54,1.77,0,0-13.31,19.27-10.22,48.55s23.94,61.58,64.41,110.53c34.88,42.17,75.75,80,106.36,108.4Z"/><path class="cls-25" d="M1919.53,1659s-17.23,130-33.28,143.24c-11.47,9.45-19.6,10.08-27.63-28.7S1871.1,1590,1871.1,1590Z"/><polygon class="cls-25" points="1905.8 1729.36 1746.32 1756.15 1836.36 1627.06 1904.88 1613.1 1945.97 1622.55 1905.8 1729.36"/><path class="cls-21" d="M2106.19,1911.65c-5.17,20.84-4.55,36.24,4.44,44s42.92,65.07,42.92,65.07l10.58-1.61-24.49-52.48Z"/><path class="cls-21" d="M2174.31,2022c11.27,3,44.24-11.44,64.65-28.4s8.34-25.26-10.42-22.41a8.11,8.11,0,0,1-3.14-.16c-9.37,20.93-40.19,36.63-50.13,14.52-9.86-21.91-52.08-65.52-69.09-74.85a4,4,0,0,1,0,1c-1.93,14-10.78,27,18.66,42.8S2163,2019,2174.31,2022Z"/><path class="cls-23" d="M1574.3,1599.29c-56.58,101.54-17.93,166.07,50.84,172.65s177.33-6,240.61-58.57,115.23-108.19,108-116.48S1574.3,1599.29,1574.3,1599.29Z"/><path class="cls-22" d="M1895.17,1675.05c11.58-34.76,24.94-61.43,50.8-61.92,27.19-.51,43.92,13.64,45.08,58.12,1.38,53,3.25,228.39.8,306.39-1.85,59,15.36,78,13.9,139.5-1.09,46.36,48.33,22.94,29.24,47-13.13,16.54-52.21,11.13-76.21,8.08-21.39-2.72,11.07-66.82-18.53-84-25.4-14.7-25.9-38.58-9.86-56.65s1.78-71.55-8.91-109-27.29-77.93-38.18-166.44C1880.19,1730.92,1888.09,1696.28,1895.17,1675.05Z"/><path class="cls-21" d="M2018.08,2145.2c-8.19,2.5-18.29,5.26-27.08,5.55-17.83.59-23.18-19-24.36-45.65-1-23.26-17.93-59.89-35.26-74.74-.32.42-.64.84-1,1.23-16,18.07-15.54,42,9.86,56.65,29.6,17.14-2.86,81.24,18.53,84,24,3.05,63.08,8.46,76.21-8.08C2047.4,2148.5,2032,2147.26,2018.08,2145.2Z"/><path class="cls-21" d="M1934.4,2025s-26,27.15-23.62,38.44,10.39,39.81,11.73,61.8,2.53,47.22,2.53,47.22,9.36,0,10.1-2.66,5.95-89.36,5.95-89.36Z"/><path class="cls-9" d="M1547.05,1590s-33.56,142.43,8.84,181.91,218.48,4,259.95,1.6c28.08-1.6,55.26,32.67,55.26,32.67s-19.61-79.47-6.24-143.64,35-68.49,35-68.49l-28.71-4Z"/><path class="cls-9" d="M1539.45,1552.79c14.35,30.45-15.45,83-5,98.19s70.24,2.12,109.42-29.41,113.33-38.47,113.33-38.47Z"/><path class="cls-2" d="M1600.15,1812.31c118.54,4.45,243.32,2.35,243.32-15.32s-5.35-30.14-97.15-23-154.19,16.94-181.82,10.7S1600.15,1812.31,1600.15,1812.31Z"/><rect class="cls-26" x="1181.16" y="1572.77" width="1696.03" height="32.27" rx="12.91"/><path class="cls-27" d="M3086.22,1140.27c11.48,40.49-16.57,82.21-47.47,91s-52.94-18.75-64.43-59.24,4.26-80.41,35.15-89.18S3074.73,1099.78,3086.22,1140.27Z"/><path class="cls-27" d="M2913,1924.82s79.19,123,89.88,128.34,37.44,6.69,27.41,26.74-14,98.93-23.4,102.94-89.57,13.37-77.54,0,19.44-6.68,25.51-30.75,14.6-69.52,3.24-78.87-80.88-93.59-80.88-93.59Z"/><path class="cls-27" d="M2514.42,1977.64s-96.26,158.65-114.09,172.91-76.65,35.66-28.52,39.22,71.31-16,101.61-25,67.74-14.26,53.48-37.43-8.34-73.76,22.4-105.85S2514.42,1977.64,2514.42,1977.64Z"/><path class="cls-28" d="M3005.65,1609.75s-238.29-6.23-332.77,71.3c-55.26,83.79-189,331-199.34,358.23,7.13,7.13,47.24,20,65.07,18.21,52.59-62.7,122.09-116.91,149.74-166.09,34.06-60.61,44.56-90.91,99.82-96.26s180-23.17,217.48-23.17S3005.65,1609.75,3005.65,1609.75Z"/><polygon class="cls-2" points="3213.45 2190.2 3200.96 2190.2 3111.39 1816.49 3138.87 1816.49 3213.45 2190.2"/><polygon class="cls-2" points="2839.27 2190.2 2851.77 2190.2 2954.55 1803.28 2927.07 1803.28 2839.27 2190.2"/><path class="cls-6" d="M3141.4,1593.43l-138.54,23.91s-184.1,1.69-268.25,17.37c-76.57,14.26-87.85,101.25,0,221,49.9,68,92.09,122.33,178.37,183.53,21.95-16.11,30.34-22.21,36.41-61-6.25-8.56-22.41-62.15-27.43-72.64-47.72-99.76-111.42-136-112.3-145.85,10.69-17.38,283.3,90.59,337.5,27.08C3198.91,1726.25,3141.4,1593.43,3141.4,1593.43Z"/><path class="cls-29" d="M3147.16,1279.79c-36.49-5.13-73.65,1.81-108.41,27-30.37,31-64.73,82-62.62,166.22,2.67,107-16.55,113.82,3.5,143.23,83.64,34.54,226.68,182.93,193,23.84-24.4-115.19,53.49-201-9.34-328.83C3158.17,1300.82,3151.78,1290.73,3147.16,1279.79Z"/><path class="cls-10" d="M2976.1,1513.23c-1.62,55.76-9.5,72.18-3.48,89.66,34.1,3.48,96.47,17.13,112.06,38.95,17.82,25,35.65,28.52,27.33,10.1s-30.3-44.57,3.57-134.29,49.91-150.33,16.63-212.72Z"/><path class="cls-27" d="M3147.16,1279.79c-22.47-53.19-28-113-28-113l-58.82,17.38s33.42,74.86,1.34,101.6a305.33,305.33,0,0,0-22.94,20.94C3073.51,1281.6,3110.67,1274.66,3147.16,1279.79Z"/><path class="cls-30" d="M3120.94,1181c-3.48-3.1-7.84-7-12.42-11l-48,14.18c0,.09-.07.17-.1.26,1.16,2.65,13.38,31.17,15,58.6,14.3-8.68,30-22.82,47.85-47.53C3122.31,1190,3121.54,1185.12,3120.94,1181Z"/><path class="cls-27" d="M3105.8,1296.51c-60.58,21.19-53.86,85-109.62,179.15-28.86,48.71-55.66,48-55.66,48a1289.68,1289.68,0,0,1-149.53-9.46c-51.26-6.27-54.51,9-18.86,21.74,71.9,25.7,146.51,53.37,206.67,46.69s163-160.18,168.36-200.14C3154.5,1327.21,3136.31,1285.84,3105.8,1296.51Z"/><path class="cls-2" d="M3074.62,1830.5q-5.64,0-11.56-.15c-49.24-1.22-82.77-8-109.72-13.51-31.86-6.47-49.42-10-70.11-.15a14,14,0,0,1-12.07-25.27c29.15-13.93,53.74-8.93,87.76-2,25.87,5.26,58.06,11.8,104.83,13,52.67,1.3,84.89-6.6,101.35-24.85,14.7-16.3,19-43.47,13.62-85.52-1.83-14.24-3.66-26.08-5.27-36.52-4.54-29.31-7.53-48.68-3.83-78.53,3.44-27.83,12.68-65,34.06-137a14,14,0,0,1,26.85,8c-40,134.73-38,147.89-29.41,203.26,1.64,10.61,3.5,22.64,5.37,37.23,6.53,50.75,0,85-20.6,107.84C3164.68,1819.78,3130.1,1830.5,3074.62,1830.5Z"/><path class="cls-20" d="M2521,2111.36c-63.87,31.23-98.24,49.14-118.72,47.43-4.83-.4-8.84-.9-12.2-1.42-22.78,13.46-59.14,29.37-18.23,32.4,48.13,3.57,71.31-16,101.61-25s67.74-14.26,53.48-37.43A48.84,48.84,0,0,1,2521,2111.36Z"/><path class="cls-20" d="M3009.83,2055.77c-1.57,50.57-8.52,100.68-39.45,110.15a52,52,0,0,1-22.28,2c-4.86,6-10.8,6.08-18.77,14.93-12,13.37,68.19,4,77.54,0s13.37-82.89,23.4-102.94C3038.51,2063.43,3021.93,2059.58,3009.83,2055.77Z"/><path class="cls-31" d="M2763.8,1575.62H2560.89a14,14,0,0,1-12.69-8.1l-82-176.48a14,14,0,1,1,25.39-11.79l78.23,168.37h194a14,14,0,0,1,0,28Z"/><path class="cls-27" d="M2806.25,1515.94c-41-.59-81.66-25-101.86-21.46s-86.16,49.31-77.84,51.1,60.61-25.32,62.39-25.74,13.07,18.78,41,25.82.2-20.93,86.77,5.22C2873,1567.88,2806.25,1515.94,2806.25,1515.94Z"/><path class="cls-32" d="M3141.12,1231.25l6,48.54s-53.06,3.15-79.46,18-65.36,57.77-65.36,57.77l31.83-54.8,4.58-35.06Z"/><path class="cls-32" d="M3118.55,1290.67c-39.41-7.39-57.64,27.92-83.19,85.56s-69.17,127.64-77.84,136.67-146.17,0-146.17,0-4.16,39.81,0,44.56,27.92,4.16,27.92,4.16,9.51,7.59,18.42,13.6,84.38,17.3,119.44,15.52,67.14-4.76,71.89-10.11,100.42-152.7,106.37-205.59S3138.66,1294.44,3118.55,1290.67Z"/><path class="cls-2" d="M3002.34,1048.23c-74.53,3.57-62.84,115.69-62.84,115.69s19.36,6,59.91-.71c-3.12-12-1.78-42.78-1.78-42.78s4.71,25,10.69,40.11c8.58,3.93,18.27.44,34.76-3.54,8.47,35.62,32.4,50.68,48.78,55.83,18.1,5.69,37.26,12.47,58.65,1.78s9.63-120-1.73-142c-17.05-33-45.39-62.54-94.41-46.95C3029.79,1033.48,3002.34,1048.23,3002.34,1048.23Z"/><path class="cls-2" d="M3132,1181.39l30.47,44.51s-33.77,84.38,64.44,122.6c76.92,29.94,67.86,82.69,33.1,135.74s20.8,99.38,20.8,99.38,8.47-58.77,83.21-69.86c101.91-15.12,130.76-151.94,54.65-220.35-63-56.61-82.15-9.73-124.79-60.53s-123.11-16.49-123.11-16.49l-29.5-43Z"/><path class="cls-18" d="M789.67,1285.62c-86.5,49.47-206.82,255.08-181.42,288.64S770,1519.58,770,1519.58Z"/><path class="cls-6" d="M951.28,1047.18c-33-.9-20.77-25.45-58.76-15.65-20,5.16-5.22,13.37-31.17,10.7s-38.71-5.35-42,11.58-4.85,22.29-17.33,25-18.11,25,0,40.11,9.31,21.39,5.3,33.87,9.66,13.37,17.09,25-6.84,13.78,3.86,23.83,25.69,9.15,25.69,9.15l45-86.33Z"/><path class="cls-33" d="M1624.26,2083.39s48.13,1.34,85.56-13.37,62.83-37.43,56.15-10.7-37.43,72.61-64.17,77.08-36.1,33.89-50.8,33.89-36.1-33.89-73.53-50.82C1543.35,2104,1624.26,2083.39,1624.26,2083.39Z"/><path class="cls-33" d="M1245,2078.88s20.25,27.91,55.47,47.33c36.38,20.05,78.36,29.7,52.33,38.77s-64.08,16.12-101.19,5.34c-26-7.56-56.56-9.14-64.62-21.44s9.49-43.19,2.19-89.35C1183.31,2022.54,1245,2078.88,1245,2078.88Z"/><path class="cls-34" d="M1019.62,1630.22s278.79,104.39,301.26,133.58,315.51,295,315.51,314.62-49.91,55.27-49.91,55.27-251.34-154.2-313.73-232.63-214.67-116.25-295.62-123.51S1019.62,1630.22,1019.62,1630.22Z"/><path class="cls-35" d="M1030.31,1630.22s190.74-7.13,231.74,0,130.93,7,72.11,173.06c-46.11,130.12-61.32,294.86-61.32,294.86l-91.68,22.52s3.64-296.23,47.38-375.1c-31.85,5.25-90.32,15.49-171.36,38.67-150.33,43-232.75,21.46-232.75,21.46L802,1727.25Z"/><polygon class="cls-36" points="871.03 1137.76 824.43 1275.46 883.3 1314.23 916.67 1195.25 871.03 1137.76"/><path class="cls-37" d="M888.57,1295.45l28.1-100.2L871,1137.76l-17,50.37C859.87,1233.62,874.08,1271.25,888.57,1295.45Z"/><path class="cls-36" d="M989.91,1161.07c1.51,41.88-19.06,78.13-51.76,81.35s-62.53-28-66.65-69.68,19.06-78.12,51.76-81.35S987.52,1095,989.91,1161.07Z"/><path class="cls-38" d="M802,1271.45c-143,96.61-54.08,252.73-22.66,366.82,26.75,97.17,25.88,155.9,29.89,155.9s102.4-14.71,158.55-65.51,94.11-100,94.11-100-71.94-12.81-95.45-105.87c-11.94-47.24-6.51-72.89-33.72-147.76S802,1271.45,802,1271.45Z"/><path class="cls-38" d="M802,1271.45,817.37,1234s48.57,32.09,68,47.24,31.34,18.72,31.34,18.72,7,53.74,2.46,48.86C861.79,1287.33,802,1271.45,802,1271.45Z"/><polygon class="cls-2" points="738.64 2190.2 751.13 2190.2 840.7 1816.49 813.22 1816.49 738.64 2190.2"/><polygon class="cls-2" points="1112.82 2190.2 1100.32 2190.2 997.54 1803.28 1025.02 1803.28 1112.82 2190.2"/><path class="cls-2" d="M877.79,1830.49c-50,0-81.74-9-102-28.69-25.08-24.43-30.26-62.27-30.34-111.57-.16-103.65-5.89-125.08-35.07-188.37a14,14,0,1,1,25.43-11.72c30.84,66.9,37.48,91.49,37.64,200,.08,50,6.42,76.49,21.88,91.55,15.86,15.46,44.54,21.83,93,20.62,46.77-1.16,79-7.7,104.83-13,34-6.91,58.61-11.91,87.76,2a14,14,0,0,1-12.07,25.27c-20.69-9.89-38.25-6.32-70.11.15-27,5.48-60.48,12.29-109.72,13.51C885.19,1830.45,881.43,1830.49,877.79,1830.49Z"/><path class="cls-21" d="M1495.92,1574H1293a14,14,0,0,1,0-28h194l78.24-168.37a14,14,0,1,1,25.39,11.8l-82,176.47A14,14,0,0,1,1495.92,1574Z"/><path class="cls-18" d="M807.34,1412.11s35.65,108.74,79.77,153.75S1020,1626,1047.82,1624.23c-22.16-8.91-64.37-34.27-81.34-101.45-11.94-47.24-6.51-72.89-33.72-147.76-20.2-55.57-82.43-85.71-113.16-97.55C858,1305,905.92,1350.4,920.66,1384.93,937,1423.26,807.34,1412.11,807.34,1412.11Z"/><path class="cls-36" d="M1299.42,1507.54s61.49-28.07,68.18-25.4,74.86,43.85,74.86,50.67-60.16-25.42-60.16-25.42,6.69,17.82,2.68,26.37-50.26,8.54-92,5.87S1299.42,1507.54,1299.42,1507.54Z"/><path class="cls-38" d="M809.31,1328.1c-56.69,116.19,137.77,234,253.13,244.44s252.43-27.28,252.43-27.28l-15.45-37.72s-231.13-30.16-237-34.39S830.07,1285.55,809.31,1328.1Z"/><path class="cls-36" d="M883,1141.68c5.26,13.82,1.4,28.1-8.6,31.91s-22.38-4.31-27.64-18.13-1.4-28.1,8.61-31.91S877.76,1127.86,883,1141.68Z"/><path class="cls-6" d="M990,1053.22c15.66-6.54,33.3-13.54,27.84,13.07-2.37,11.59,0,8.32,4.16,19s-10.48,19.09-15.23,25,6.92,12.4-2.59,19.53-22-2.64-30.9,0c-26.44,7.89-23.17-12.91-38-17.23s-22.13-3.66-25,5.85,10.39,40.79-.9,37.82-13.83,22.28-16.87,36.55-10.78-9.85-10.28-26.16c.77-25-5.44-35.53-14.66-42.53s-13.14-70.65,31.43-73,44.85-6.68,63.86-10.7S982.85,1056.2,990,1053.22Z"/></g><g id="Layer_4" data-name="Layer 4"><path class="cls-39" d="M2005.9,448.56a167,167,0,0,0-164.84-167c-91.66-1.17-167.72,72.64-169.18,164.29a166.45,166.45,0,0,0,44.19,115.9,75.78,75.78,0,0,1,20.07,51.36V688A88.32,88.32,0,0,0,1824.2,776h29.36A88.32,88.32,0,0,0,1941.62,688V613.12A76.6,76.6,0,0,1,1962,561.41,166.4,166.4,0,0,0,2005.9,448.56Z"/><path class="cls-40" d="M1982.57,459.77A143.68,143.68,0,0,0,1840.76,316.1c-78.86-1-144.3,62.49-145.55,141.34a143.17,143.17,0,0,0,38,99.7,65.2,65.2,0,0,1,17.26,44.19v64.41a76,76,0,0,0,75.76,75.76h25.26a76,76,0,0,0,75.76-75.76v-64.4a65.88,65.88,0,0,1,17.53-44.48A143.18,143.18,0,0,0,1982.57,459.77Z"/><path class="cls-8" d="M1863.57,643.13h-55a5,5,0,0,1-5-4.54c-.1-1.07-10.37-107.24-57.84-137a5,5,0,1,1,5.3-8.47c46.32,29,59.48,118.47,62,140h45.22a163.58,163.58,0,0,1,4.5-40.09c5.69-24.66,19.64-61.86,53.79-99a5,5,0,1,1,7.37,6.77c-62.43,68-55.48,136.13-55.41,136.81a5,5,0,0,1-5,5.56Z"/><path class="cls-8" d="M1904.74,508.45c-18.57,0-43.89-13.19-70.55-27.49-34.44,18.34-66.6,34.79-84.6,23.88-8.46-5.13-12.5-15.17-12.37-30.69.13-14.61,4.32-24.46,12.46-29.28,18-10.68,50.26,6.36,84.53,24.75,34.94-18.63,67.85-36,85.82-25.05,8.07,4.92,12.06,14.9,11.87,29.69-.19,15.38-4.62,25.72-13.14,30.75A27.11,27.11,0,0,1,1904.74,508.45Zm-59.92-33.15c27.45,14.6,56.18,28.57,68.86,21.09,5.31-3.12,8.07-10.62,8.22-22.26.15-11-2.23-18.07-7.07-21C1902.57,445.65,1872.8,460.46,1844.82,475.3Zm-81.63-23.78a16.32,16.32,0,0,0-8.42,2c-4.91,2.9-7.45,9.89-7.55,20.76-.1,11.53,2.44,18.95,7.55,22,12.34,7.48,41.16-6.42,68.81-21C1801.23,463.35,1777.77,451.52,1763.19,451.52Z"/><rect class="cls-8" x="1804.07" y="755.8" width="73" height="44" rx="20.5"/><path class="cls-8" d="M1731.28,634.13v53c0,50.73,41.5,92.23,92.23,92.23h30.74c50.73,0,92.23-41.5,92.23-92.23v-53Z"/><rect class="cls-9" x="1722.9" y="625.47" width="234.67" height="25.33" rx="12"/><path class="cls-9" d="M1946.32,669.79l-209.07,25.83a12,12,0,0,1-13.38-10.44l-.17-1.32a12,12,0,0,1,10.44-13.38l209.08-25.83a12,12,0,0,1,13.38,10.44l.16,1.32A12,12,0,0,1,1946.32,669.79Z"/><path class="cls-9" d="M1946.32,706.38l-209.07,25.83a12,12,0,0,1-13.38-10.44l-.17-1.32a12,12,0,0,1,10.44-13.38l209.08-25.83a12,12,0,0,1,13.38,10.44l.16,1.32A12,12,0,0,1,1946.32,706.38Z"/><path class="cls-9" d="M1933.42,745.54l-174.13,21.51a11,11,0,0,1-12.28-9.58l-.41-3.28a11,11,0,0,1,9.58-12.28l174.14-21.51A11.05,11.05,0,0,1,1942.6,730l.4,3.28A11,11,0,0,1,1933.42,745.54Z"/><path class="cls-9" d="M3441.06,793H3553.3c0,61.57-50.67,112.23-112.24,112.23S3328.83,854.59,3328.83,793s50.66-112.24,112.23-112.24Z"/><path class="cls-10" d="M3572.1,777.3a112.24,112.24,0,0,0-112.24-112.24V777.3Z"/><path class="cls-10" d="M3347.62,777.3a112.24,112.24,0,0,0,112.24,112.24C3398.29,889.54,3347.62,838.87,3347.62,777.3Z"/><path class="cls-10" d="M3459.86,665.06A112.24,112.24,0,0,0,3347.62,777.3C3347.62,715.73,3398.29,665.06,3459.86,665.06Z"/><path class="cls-10" d="M3459.86,889.54A112.24,112.24,0,0,0,3572.1,777.3C3572.1,838.87,3521.43,889.54,3459.86,889.54Z"/><rect class="cls-18" x="1244.45" y="718.77" width="24.51" height="70.93"/><rect class="cls-18" x="1558.64" y="741.85" width="24.51" height="47.85"/><rect class="cls-18" x="1348.33" y="623.75" width="24.51" height="165.95"/><rect class="cls-18" x="1400.28" y="715.11" width="24.51" height="74.59"/><rect class="cls-18" x="1452.22" y="694" width="24.51" height="95.71"/><rect class="cls-18" x="1296.39" y="671.94" width="24.51" height="117.76"/><rect class="cls-18" x="1504.34" y="644.66" width="24.51" height="145.04"/><g class="cls-41"><path class="cls-20" d="M591.12,584,462.56,505.42,439.31,654.31A150.86,150.86,0,0,0,591.12,584Z"/><path class="cls-9" d="M591.25,583.86c.35-.57.8-1.35.78-1.32a150.67,150.67,0,0,0,3.34-148.33C549.88,458,577,443.56,462.56,505.42,591.33,584.17,571.33,572,591.25,583.86Z"/><path class="cls-39" d="M321.25,453.35l141.31,52.07,132.57-71.68C533.12,319.07,366.21,332.82,321.25,453.35Z"/><path class="cls-10" d="M439.31,654.31l23.25-148.89L321.25,453.35C287.64,543.44,347.29,639.8,439.31,654.31Z"/><path class="cls-6" d="M312,478a14.42,14.42,0,0,1,7.14,1.85,143.49,143.49,0,0,1,5.13-20.05L401,488.07s0-.05,0-.07a13.59,13.59,0,0,1,3.34-9.36l-7.69-2.83-68.89-25.38A147.64,147.64,0,0,1,350,413.1a14.9,14.9,0,0,1-7.66-6.43A157.58,157.58,0,0,0,318.39,447l-.09,0-1.74,4.67-1.75,4.7.08,0a154.55,154.55,0,0,0-5.62,21.94A13.9,13.9,0,0,1,312,478Z"/><path class="cls-42" d="M601.82,435.81l.09-.05-2.38-4.4-.15-.26-2-3.62-.07,0c-15-26.06-36.39-46.85-62.11-60.25a158.08,158.08,0,0,0-172.68,18.85,15.4,15.4,0,0,1,6.35,7.74,146,146,0,0,1,84.18-33.6c55.78-3.88,107.11,23.42,135.18,71.5l-39.15,21.17c-8.08,4.35-19.38,10.46-38.3,20.7L463.92,499l-1.2.66-3.94-2.41-.21,1.37L431,488.46a13.78,13.78,0,0,1-3.68,9.3L457,508.7,435.16,648.5a146.61,146.61,0,0,1-118.3-141.39A14.17,14.17,0,0,1,312,508a14.48,14.48,0,0,1-5.14-.94A156.61,156.61,0,0,0,433.61,658.38v.09l4.93.78,5,.78v-.09a155.85,155.85,0,0,0,149.36-69.32l.1.06,1-1.6s1.59-2.62,1.59-2.62c.25-.4.54-.9.71-1.18l.1-.18.08-.13,1.58-2.59-.07,0A156.29,156.29,0,0,0,601.82,435.81ZM445,650.06,466.35,513.6l55.46,33.92C544.18,561.2,557,569,565,573.94l19.15,11.71A145.1,145.1,0,0,1,445,650.06ZM589.48,577l-1-.56c-5.26-3.11-7.54-4.46-18-10.85l-97.95-59.89,81.31-44c11.94-6.43,16.83-9,29-15.33L593.23,441A146.26,146.26,0,0,1,589.48,577Z"/></g><rect class="cls-43" x="864.2" y="338.24" width="430.9" height="194.73" rx="8.17"/><rect class="cls-6" x="875.98" y="389.41" width="407.34" height="134.43" rx="6.6"/><rect class="cls-6" x="881.96" y="352.58" width="16.88" height="15.19" rx="3.66"/><rect class="cls-6" x="912.65" y="352.58" width="16.88" height="15.19" rx="3.66"/><rect class="cls-6" x="943.35" y="352.58" width="16.88" height="15.19" rx="3.66"/><path class="cls-8" d="M1266.74,418.87H1051.28a6.45,6.45,0,0,1,0-12.89h215.46a6.45,6.45,0,1,1,0,12.89Z"/><path class="cls-8" d="M1104.69,518.31H889.23a6.45,6.45,0,1,1,0-12.89h215.46a6.45,6.45,0,0,1,0,12.89Z"/><rect class="cls-8" x="1119.88" y="505.42" width="26.7" height="12.89" rx="2.2"/><rect class="cls-8" x="1153.49" y="505.42" width="26.7" height="12.89" rx="2.2"/><path class="cls-8" d="M1268.82,447H912a4.37,4.37,0,0,1,0-8.74h356.81a4.37,4.37,0,1,1,0,8.74Z"/><path class="cls-8" d="M1268.82,465.83H912a4.38,4.38,0,0,1,0-8.75h356.81a4.38,4.38,0,0,1,0,8.75Z"/><path class="cls-39" d="M2345.23,409h-184V301.74h138.38l45.62,45.62Z"/><polygon class="cls-44" points="2296.23 301.74 2296.23 358.98 2345.23 358.98 2345.23 347.98 2299.3 302.05 2296.23 301.74"/><polygon class="cls-39" points="2299.61 301.74 2299.61 347.98 2345.23 347.98 2299.61 301.74"/><path class="cls-6" d="M2264,342h-82a3.25,3.25,0,0,1,0-6.5h82a3.25,3.25,0,0,1,0,6.5Z"/><path class="cls-6" d="M2264,358.61h-82a3.25,3.25,0,0,1,0-6.5h82a3.25,3.25,0,0,1,0,6.5Z"/><path class="cls-6" d="M2264,376.11h-82a3.25,3.25,0,0,1,0-6.5h82a3.25,3.25,0,0,1,0,6.5Z"/><circle class="cls-9" cx="2247.73" cy="309.98" r="5.5"/><rect class="cls-8" x="1424.79" y="294.61" width="116.94" height="141" transform="translate(96.2 -274.75) rotate(10.94)"/><path class="cls-6" d="M1529.75,366.83l-60.87-11.76a3,3,0,1,1,1.14-5.89l60.87,11.76a3,3,0,1,1-1.14,5.89Z"/><path class="cls-6" d="M1526.81,382.05l-60.87-11.76a3,3,0,1,1,1.13-5.89L1528,376.16a3,3,0,1,1-1.14,5.89Z"/><path class="cls-6" d="M1523.79,397.69l-60.88-11.77a3,3,0,0,1,1.14-5.89l60.88,11.76a3,3,0,0,1-1.14,5.9Z"/><path class="cls-10" d="M1488.54,303.36a5,5,0,1,1-4-5.86A5,5,0,0,1,1488.54,303.36Z"/><path class="cls-18" d="M2430.15,559l-177.69-18.72,11.73-111.38,140.89,14.84L2438,484.45Z"/><polygon class="cls-6" points="2402.56 451.72 2270.3 437.79 2260.4 531.76 2424.83 549.09 2430.63 494.06 2398.46 490.67 2402.56 451.72"/><path class="cls-9" d="M2384.63,485.86l-85.68-9a3.59,3.59,0,0,1,.75-7.14l85.68,9a3.59,3.59,0,1,1-.75,7.14Z"/><path class="cls-9" d="M2382.64,504.74l-85.68-9a3.59,3.59,0,0,1,.75-7.14l85.69,9a3.59,3.59,0,1,1-.76,7.14Z"/><path class="cls-9" d="M2380.57,524.46l-85.68-9a3.59,3.59,0,1,1,.75-7.14l85.68,9a3.59,3.59,0,0,1-.75,7.14Z"/><circle class="cls-9" cx="2330.68" cy="454.65" r="5.5"/><path class="cls-10" d="M3313.06,367.77a61.35,61.35,0,1,1-61.35-61.35A61.35,61.35,0,0,1,3313.06,367.77Z"/><path class="cls-6" d="M3245.62,388.77h-.11a3,3,0,0,1-2.14-1l-16.67-18.94a3,3,0,0,1,4.51-4l14.57,16.56,33.34-32.63a3,3,0,0,1,4.2,4.29l-35.6,34.84A3,3,0,0,1,3245.62,388.77Z"/><rect class="cls-2" x="471.04" y="777.93" width="386.67" height="159.34" rx="16.48" transform="translate(1328.74 1715.2) rotate(180)"/><path class="cls-2" d="M811,913.23v87.91L709.7,899.84S808.94,913.23,811,913.23Z"/><rect class="cls-6" x="491.04" y="793.73" width="346.67" height="127.74" rx="13.97" transform="translate(1328.74 1715.2) rotate(180)"/><path class="cls-10" d="M648.92,825.32H805.51a6.87,6.87,0,0,0,0-13.74H648.92a6.87,6.87,0,1,0,0,13.74Z"/><rect class="cls-10" x="514.31" y="843.86" width="298.07" height="7.72" rx="3.82" transform="translate(1326.68 1695.44) rotate(180)"/><rect class="cls-10" x="514.31" y="858.81" width="298.07" height="7.72" rx="3.82" transform="translate(1326.68 1725.34) rotate(180)"/><rect class="cls-9" x="3096.41" y="796.5" width="32.71" height="29.44" rx="7.09" transform="translate(6225.53 1622.44) rotate(180)"/><rect class="cls-9" x="3036.93" y="796.5" width="32.71" height="29.44" rx="7.09" transform="translate(6106.57 1622.44) rotate(180)"/><rect class="cls-9" x="2977.45" y="796.5" width="32.71" height="29.44" rx="7.09" transform="translate(5987.61 1622.44) rotate(180)"/></g></svg>