<?xml version="1.0" encoding="UTF-8" standalone="no"?>
<svg
   xmlns:dc="http://purl.org/dc/elements/1.1/"
   xmlns:cc="http://creativecommons.org/ns#"
   xmlns:rdf="http://www.w3.org/1999/02/22-rdf-syntax-ns#"
   xmlns:svg="http://www.w3.org/2000/svg"
   xmlns="http://www.w3.org/2000/svg"
   xmlns:sodipodi="http://sodipodi.sourceforge.net/DTD/sodipodi-0.dtd"
   xmlns:inkscape="http://www.inkscape.org/namespaces/inkscape"
   id="Layer_1"
   data-name="Layer 1"
   viewBox="0 0 368.33987 320.72"
   version="1.1"
   sodipodi:docname="logo-navbar.svg"
   width="368.33987"
   height="320.72"
   inkscape:version="1.0.1 (3bc2e813f5, 2020-09-07)">
  <metadata
     id="metadata244">
    <rdf:RDF>
      <cc:Work
         rdf:about="">
        <dc:format>image/svg+xml</dc:format>
        <dc:type
           rdf:resource="http://purl.org/dc/dcmitype/StillImage" />
        <dc:title></dc:title>
      </cc:Work>
    </rdf:RDF>
  </metadata>
  <sodipodi:namedview
     pagecolor="#ffffff"
     bordercolor="#666666"
     borderopacity="1"
     objecttolerance="10"
     gridtolerance="10"
     guidetolerance="10"
     inkscape:pageopacity="0"
     inkscape:pageshadow="2"
     inkscape:window-width="1858"
     inkscape:window-height="1016"
     id="namedview242"
     showgrid="false"
     inkscape:zoom="0.7712963"
     inkscape:cx="424.65989"
     inkscape:cy="163.64001"
     inkscape:window-x="62"
     inkscape:window-y="27"
     inkscape:window-maximized="1"
     inkscape:current-layer="Layer_1" />
  <defs
     id="defs159">
    <style
       id="style157">.cls-1,.cls-10,.cls-2,.cls-3,.cls-4,.cls-5,.cls-9{fill:none;}.cls-1{stroke:#1faaad;stroke-width:3px;}.cls-1,.cls-10{stroke-linecap:round;stroke-linejoin:round;}.cls-2,.cls-4{stroke:#25ced1;}.cls-2,.cls-3,.cls-4,.cls-5,.cls-9{stroke-miterlimit:10;}.cls-2,.cls-3{stroke-width:2px;}.cls-3{stroke:#ea526f;}.cls-4,.cls-5,.cls-9{stroke-width:2.5px;}.cls-5{stroke:#f56e65;}.cls-6{font-size:43.13px;fill:#ea526f;font-family:Futura-Bold, Futura;font-weight:700;letter-spacing:0.3em;}.cls-7{letter-spacing:0.27em;}.cls-8{letter-spacing:0.29em;}.cls-9{stroke:#92e7e8;}.cls-10{stroke:#ffc5ad;stroke-width:3.5px;}.cls-11{font-size:30px;fill:#1faaad;font-family:Poppins-Regular, Poppins;letter-spacing:0.2em;}</style>
  </defs>
  <polyline
     class="cls-1"
     points="379.95 674.39 390.29 692.05 210.75 695.58 170.32 627.29"
     id="polyline161"
     transform="translate(-115.34011,-376.35999)" />
  <polyline
     class="cls-1"
     points="373.61 407.5 390.29 378.35 482.18 533.36 390.29 692.05 379.95 674.39"
     id="polyline163"
     transform="translate(-115.34011,-376.35999)" />
  <polyline
     class="cls-1"
     points="364.07 424.16 299.51 536.96 116.84 536.96 205.66 378.35 390.29 378.35 373.52 407.65"
     id="polyline165"
     transform="translate(-115.34011,-376.35999)" />
  <polyline
     class="cls-1"
     points="370.4 658.08 299.51 536.96 364.07 424.16"
     id="polyline167"
     transform="translate(-115.34011,-376.35999)" />
  <polyline
     class="cls-1"
     points="161.19 611.88 116.84 536.96 299.51 536.96 370.4 658.08"
     id="polyline169"
     transform="translate(-115.34011,-376.35999)" />
  <path
     class="cls-2"
     d="m 206.44989,19.880015 c 47.14,-8.93 89.81,37.36 78.4,75 m -14.84,5.299995 c 9,-31.779995 -25.3,-71.069995 -62.89,-63.719995 m -0.67,-16.61 c -18.45,2.24 -12,20.56 0.67,16.61 m 62.89,63.719995 c -4.24,12.25 10.85,11.16 14.84,-5.299995"
     id="path171" />
  <path
     class="cls-3"
     d="m 11.509894,179.57001 c -30.06,68.07 31.45,88.07 73.48,58.07 m -3.59,-15.35 c -32.27,25.25 -72.2499999,16.73 -58.92,-24.63 m 58.92,24.63 c 10.33,-9.5 18.999996,5.86 3.59,15.35"
     id="path173" />
  <path
     class="cls-3"
     d="m 197.24989,301.27001 c 51.85,26.47 109.28,-25.32 94.06,-61.61 m -15.31,-3.75 c 12.17,30.69 -36,71.93 -74.31,49.34 m -4.44,16 c -17.45,-6.38 -7,-22.76 4.44,-16 m 74.31,-49.34 c -5.48,-11.75 9.64,-12.21 15.31,3.75"
     id="path175" />
  <polygon
     class="cls-4"
     points="228.84,387.11 218.84,387.11 167.84,481.11 178.84,481.11 "
     id="polygon177"
     transform="translate(-115.34011,-376.35999)" />
  <polygon
     class="cls-4"
     points="252.14,387.11 241.26,387.11 202.84,459.11 213.46,459.09 "
     id="polygon179"
     transform="translate(-115.34011,-376.35999)" />
  <polygon
     class="cls-4"
     points="274.84,388.11 264.84,388.11 233.84,444.11 244.84,444.11 "
     id="polygon181"
     transform="translate(-115.34011,-376.35999)" />
  <circle
     class="cls-5"
     cx="172.48988"
     cy="183.90002"
     r="5.3899999"
     id="circle183" />
  <circle
     class="cls-5"
     cx="183.26988"
     cy="201.87"
     r="5.3899999"
     id="circle185" />
  <circle
     class="cls-5"
     cx="194.04991"
     cy="219.84003"
     r="5.3899999"
     id="circle187" />
  <circle
     class="cls-5"
     cx="204.83989"
     cy="237.81"
     r="5.3899999"
     id="circle189" />
  <path
     class="cls-9"
     d="m 341.32989,168.64001 -5.7,9.58 a 1.76,1.76 0 0 1 -2.4,0.61 l -5.73,-9 c -1,-2 -1,-2 -0.54,-2.69 l 5.7,-9.58 a 1.75,1.75 0 0 1 2.4,-0.61 l 5.66,9.34 c 0.78,1.46 1.1,1.49 0.61,2.35 z"
     id="path203" />
  <path
     class="cls-9"
     d="m 318.32989,207.64001 -5.7,9.58 a 1.76,1.76 0 0 1 -2.4,0.61 l -5.73,-9 c -1,-2 -1,-2 -0.54,-2.69 l 5.7,-9.58 a 1.75,1.75 0 0 1 2.4,-0.61 l 5.66,9.34 c 0.78,1.46 1.1,1.49 0.61,2.35 z"
     id="path205" />
  <path
     class="cls-9"
     d="m 330.32989,186.64001 -5.7,9.58 a 1.76,1.76 0 0 1 -2.4,0.61 l -5.73,-9 c -1,-2 -1,-2 -0.54,-2.69 l 5.7,-9.58 a 1.75,1.75 0 0 1 2.4,-0.61 l 5.66,9.34 c 0.78,1.46 1.1,1.49 0.61,2.35 z"
     id="path207" />
  <line
     class="cls-10"
     x1="198.99989"
     y1="238.25"
     x2="126.99989"
     y2="239.25"
     id="line209" />
  <line
     class="cls-10"
     x1="172.99989"
     y1="318.25"
     x2="126.99989"
     y2="239.25"
     id="line211" />
  <line
     class="cls-10"
     x1="188.99989"
     y1="202.25"
     x2="208.99989"
     y2="202.25"
     id="line213" />
  <line
     class="cls-10"
     x1="257.49988"
     y1="116.75"
     x2="209.0999"
     y2="202.23999"
     id="line215" />
  <line
     class="cls-10"
     x1="306.78989"
     y1="200.53003"
     x2="257.49988"
     y2="116.75"
     id="line217" />
  <line
     class="cls-10"
     x1="319.17987"
     y1="179.46002"
     x2="297.49988"
     y2="141.75"
     id="line219" />
  <line
     class="cls-10"
     x1="326.49988"
     y1="88.75"
     x2="297.49988"
     y2="141.75"
     id="line221" />
  <line
     class="cls-10"
     x1="353.99988"
     y1="135.25"
     x2="338.99988"
     y2="161.25"
     id="line223" />
  <line
     class="cls-10"
     x1="176.49989"
     y1="60.75"
     x2="119.08989"
     y2="160.29004"
     id="line225" />
  <line
     class="cls-10"
     x1="228.49989"
     y1="38.75"
     x2="158.08989"
     y2="160.29004"
     id="line227" />
  <line
     class="cls-10"
     x1="250.49989"
     y1="1.75"
     x2="239.49989"
     y2="20.75"
     id="line229" />
  <line
     class="cls-10"
     x1="119.49989"
     y1="160.75"
     x2="155.49989"
     y2="220.75"
     id="line231" />
  <line
     class="cls-10"
     x1="158.49989"
     y1="160.75"
     x2="169.49989"
     y2="178.75"
     id="line233" />
  <line
     class="cls-10"
     x1="188.49989"
     y1="220.75"
     x2="156.49989"
     y2="220.75"
     id="line235" />
  <line
     class="cls-10"
     x1="134.49989"
     y1="60.75"
     x2="176.49989"
     y2="60.75"
     id="line237" />
</svg>
