<?xml version="1.0" encoding="UTF-8" standalone="no"?>
<svg
   xmlns:dc="http://purl.org/dc/elements/1.1/"
   xmlns:cc="http://creativecommons.org/ns#"
   xmlns:rdf="http://www.w3.org/1999/02/22-rdf-syntax-ns#"
   xmlns:svg="http://www.w3.org/2000/svg"
   xmlns="http://www.w3.org/2000/svg"
   xmlns:sodipodi="http://sodipodi.sourceforge.net/DTD/sodipodi-0.dtd"
   xmlns:inkscape="http://www.inkscape.org/namespaces/inkscape"
   version="1.1"
   id="svg2"
   xml:space="preserve"
   width="4019.28"
   height="2666.6667"
   viewBox="0 0 4019.28 2666.6667"
   sodipodi:docname="Acknowledgements--header.svg"
   inkscape:version="1.0.1 (0767f8302a, 2020-10-17)"><metadata
     id="metadata8"><rdf:RDF><cc:Work
         rdf:about=""><dc:format>image/svg+xml</dc:format><dc:type
           rdf:resource="http://purl.org/dc/dcmitype/StillImage" /><dc:title></dc:title></cc:Work></rdf:RDF></metadata><defs
     id="defs6" /><sodipodi:namedview
     pagecolor="#ffffff"
     bordercolor="#666666"
     borderopacity="1"
     objecttolerance="10"
     gridtolerance="10"
     guidetolerance="10"
     inkscape:pageopacity="0"
     inkscape:pageshadow="2"
     inkscape:window-width="1858"
     inkscape:window-height="1016"
     id="namedview4"
     showgrid="false"
     inkscape:zoom="0.16184491"
     inkscape:cx="2014.1154"
     inkscape:cy="1808.8616"
     inkscape:window-x="62"
     inkscape:window-y="27"
     inkscape:window-maximized="1"
     inkscape:current-layer="g10" /><g
     id="g10"
     inkscape:groupmode="layer"
     inkscape:label="ink_ext_XXXXXX"
     transform="matrix(1.3333333,0,0,-1.3333333,0,2666.6667)"><g
       id="g18"
       transform="scale(0.177467)"><path
         d="m 1666.74,1042.16 c -1858.258,1705.44 782.45,2182.09 -119.67,3622.98 -604.012,964.74 -402.31,2631.75 591.73,3092.56 1225.98,568.34 2907.35,-533.63 3938.31,736.89 743.86,916.74 1414.01,1796.71 2572.42,2009.91 2013.87,370.6 2124.47,-2065.95 3669.37,-2124.58 947.2,-35.95 1890,505 2658.7,-465.08 1103.9,-1393.23 1322.4,-3511.5 800.1,-5290.87 -192.3,-654.99 -582.6,-1597.3 -582.6,-1597.3 l -13528.36,15.49"
         style="fill:#e3eaff;fill-opacity:1;fill-rule:nonzero;stroke:none"
         id="path20" /></g><g
       id="g22"
       transform="scale(0.165604)"><path
         d="m 15379.9,3451 c -24,7.97 -36.9,33.81 -29,57.79 7.9,23.97 33.8,36.95 57.8,28.98 23.9,-7.91 36.9,-33.75 28.9,-57.73 -7.7,-23.97 -33.5,-37.13 -57.6,-29.28 -0.1,0 -0.3,0.06 -0.4,0.12 z m -152.8,-387.25 c -92.4,31.1 58.4,330.61 142.4,281.27 83.8,-49.27 -51.2,-311.82 -142.4,-281.27 z m 78.3,-1390.91 c -34.3,-92.51 -266.5,16.79 -228,100.73 30.1,65.15 262.3,-8.22 228,-100.73 z m -295.7,953.78 c -33.2,-78.5 -247.3,10.39 -229.2,97.22 11.8,56.95 262.3,-18.78 229.2,-97.22 z m -21,-429.82 c -28.8,-87.07 -262.9,1.69 -394.5,84.36 -168.9,106.1 -256,231.94 -201.3,288.88 59.9,62.38 174.2,-57.78 329.1,-131.64 183.9,-87.98 294.5,-157.42 266.7,-241.6 z m -548.6,1066.16 c 27.8,35.69 365.5,-117.69 318.5,-205.91 -47.1,-88.16 -380.7,126.32 -318.5,205.91 z m 1850.6,-1914.62 c -79.2,-40.52 -161.7,-55.56 -199.8,0 -32.9,47.94 85.3,129.34 199.8,176.68 v 198.97 c -67.5,-43.36 -136.7,-74.76 -199.8,-78.92 -101.9,-6.65 -101.1,51.38 73,150.84 44.5,25.12 86.9,53.8 126.8,85.75 v 553.54 c -118.4,-190.33 -361.2,-556.63 -444.5,-504.69 -116.4,71.85 407.4,534.28 436.3,685.79 17.5,92.51 -177,484.65 -177,484.65 0,0 -337.2,-801.07 -499.4,-742.44 -78,28.08 392.9,724.14 323.4,850.53 -69.4,126.38 -263.9,230.6 -263.9,230.6 0,0 -160.3,-612.72 -244.2,-541.77 -67.5,56.95 144.9,459.11 101,621.6 -33.5,130.56 -125.9,237.98 -250,290.52 0,0 -104.8,-369.8 -226.4,-293.66 -47.6,29.84 122.1,292.39 106.9,408.51 -163,-8.76 -304.3,-6.1 -410.6,78.92 -2.2,-90.03 -127.7,-195.16 -305.6,-306.75 64.7,-150.3 394.2,-206.52 350.3,-317.27 -36.4,-91.96 -419.9,161.41 -419.9,161.41 0,0 -138.9,-182.9 -69.5,-370.88 54.5,-145.83 410.9,-293.77 350.9,-366.96 -74.2,-90.46 -464.8,247.82 -454.9,215.27 75.5,-246.97 -31.7,-547.03 -31.7,-547.03 175,-456.26 877,-574.5 779.9,-683.79 -86.7,-97.28 -757.7,371.12 -757.7,371.12 l 78.5,-326.44 c 0,0 365.9,-364.78 847.4,-470.64 -248.4,-121.68 -778.6,190.21 -778.6,190.21 0,0 77.2,-273.78 243.2,-496.06 h 1716.1 v 292.39"
         style="fill:#95a6db;fill-opacity:1;fill-rule:nonzero;stroke:none"
         id="path24" /></g><g
       id="g26"
       transform="scale(0.160905)"><path
         d="m 15431.6,3402.38 765.3,-2315.59 h 103.1 l -868.4,2315.59"
         style="fill:#3a62ad;fill-opacity:1;fill-rule:nonzero;stroke:none"
         id="path28" /></g><g
       id="g30"
       transform="scale(0.157609)"><path
         d="m 15723.8,2158.63 571.8,-128.42 4.4,-62.62 -576.2,191.04"
         style="fill:#3a62ad;fill-opacity:1;fill-rule:nonzero;stroke:none"
         id="path32" /></g><g
       id="g34"
       transform="scale(0.158772)"><path
         d="m 16008,2463.78 292,547.64 -317.9,-478.42 25.9,-69.22"
         style="fill:#3a62ad;fill-opacity:1;fill-rule:nonzero;stroke:none"
         id="path36" /></g><g
       id="g38"
       transform="scale(0.162363)"><path
         d="m 15941.7,1558.36 358.3,346.7 -363.8,-247.97 5.5,-98.73"
         style="fill:#3a62ad;fill-opacity:1;fill-rule:nonzero;stroke:none"
         id="path40" /></g><g
       id="g42"
       transform="scale(0.167199)"><path
         d="m 16191.8,1578.18 c -158.5,197.07 -189.2,457.59 -91.9,781.58 169.4,-292.95 200.1,-553.47 91.9,-781.58"
         style="fill:#95a6db;fill-opacity:1;fill-rule:nonzero;stroke:none"
         id="path44" /></g><g
       id="g46"
       transform="scale(0.169455)"><path
         d="m 16164.4,2001.42 c -114.2,196.87 -105.9,432.57 24.7,707.21 110.9,-283.56 102.7,-519.25 -24.7,-707.21"
         style="fill:#95a6db;fill-opacity:1;fill-rule:nonzero;stroke:none"
         id="path48" /></g><g
       id="g50"
       transform="scale(0.172158)"><path
         d="m 16115.8,2403.49 c -78.5,197.79 -38.5,414.68 120.1,650.75 64.1,-277.48 24.1,-494.38 -120.1,-650.75"
         style="fill:#95a6db;fill-opacity:1;fill-rule:nonzero;stroke:none"
         id="path52" /></g><g
       id="g54"
       transform="scale(0.175171)"><path
         d="m 16296.1,3248.94 c 3.9,-236.57 -66.3,-406.12 -210.6,-508.59 -29.3,174.91 40.9,344.46 210.6,508.59"
         style="fill:#95a6db;fill-opacity:1;fill-rule:nonzero;stroke:none"
         id="path56" /></g><g
       id="g58"
       transform="scale(0.178428)"><path
         d="m 16300,3282.72 c -31.3,-191.9 -112.7,-318.73 -244,-380.54 1.5,145.38 82.9,272.21 244,380.54"
         style="fill:#95a6db;fill-opacity:1;fill-rule:nonzero;stroke:none"
         id="path60" /></g><g
       id="g62"
       transform="scale(0.181407)"><path
         d="m 15941.8,2846.81 c 52.5,133.01 171.9,220.88 358.2,263.71 -96.5,-165.21 -215.9,-253.13 -358.2,-263.71"
         style="fill:#95a6db;fill-opacity:1;fill-rule:nonzero;stroke:none"
         id="path64" /></g><g
       id="g66"
       transform="scale(0.174722)"><path
         d="m 16300,1761.94 c -202.3,-256.46 -425.3,-376.42 -669.1,-359.94 120.5,211.88 343.5,331.9 669.1,359.94"
         style="fill:#95a6db;fill-opacity:1;fill-rule:nonzero;stroke:none"
         id="path68" /></g><g
       id="g70"
       transform="scale(0.177162)"><path
         d="m 15693.2,2182.07 c 149.8,127.85 352,157.48 606.8,88.79 -224.2,-138.4 -426.4,-167.98 -606.8,-88.79"
         style="fill:#95a6db;fill-opacity:1;fill-rule:nonzero;stroke:none"
         id="path72" /></g><g
       id="g74"
       transform="scale(0.178294)"><path
         d="m 16300,2516.79 c -193.8,-119.86 -368.7,-145.43 -524.6,-76.78 129.4,110.66 304.2,136.23 524.6,76.78"
         style="fill:#95a6db;fill-opacity:1;fill-rule:nonzero;stroke:none"
         id="path76" /></g><g
       id="g78"
       transform="scale(0.180867)"><path
         d="m 15782.8,2638.9 c 127.7,108.76 300.1,134.02 517.2,75.75 -191.1,-118.16 -363.5,-143.42 -517.2,-75.75"
         style="fill:#95a6db;fill-opacity:1;fill-rule:nonzero;stroke:none"
         id="path80" /></g><g
       id="g82"
       transform="scale(0.176993)"><path
         d="m 15221.8,1016.14 c 125.7,557.71 140.9,512.85 272.1,837.1 35.4,87.63 73.2,170.74 113.4,249.33 84.4,160.01 186,310.41 302.8,448.55 133.7,164.64 249.9,273.12 348.6,325.44 l 9.4,11.02 c 1.4,4.12 5.5,6.55 9.8,5.87 3.9,1.81 8.3,1.93 12.3,0.34 3.4,-2.88 6.1,-6.44 7.9,-10.56 1.8,-3.84 1.9,-8.31 0.3,-12.21 l -3.5,-8.47 c -2.9,-3.39 -6.5,-6.16 -10.5,-8.08 l 0.1,-2.03 -9,-3.79 c -95.4,-53.22 -208.1,-159.33 -338.1,-318.32 -114.7,-137.46 -214,-287.02 -296.2,-446.12 -42.1,-79.49 -80,-161.08 -113.7,-244.53 l -8.7,-21.75 c 133.9,170.74 346,247.07 636.3,228.94 -211.7,-199.05 -423.8,-275.38 -636.3,-228.94 -127,-319.28 -138.4,-264.98 -260.8,-808.74 l -36.2,6.95"
         style="fill:#95a6db;fill-opacity:1;fill-rule:nonzero;stroke:none"
         id="path84" /></g><path
       d="m 376.299,253.22 c 26.518,32.95 31.643,76.51 15.376,130.68 -28.331,-48.98 -33.456,-92.54 -15.376,-130.68"
       style="fill:#95a6db;fill-opacity:1;fill-rule:nonzero;stroke:none;stroke-width:0.1"
       id="path86" /><path
       d="m 344.435,328.5 c 19.345,33.36 17.95,73.31 -4.185,119.84 -18.799,-48.04 -17.404,-87.99 4.185,-119.84"
       style="fill:#95a6db;fill-opacity:1;fill-rule:nonzero;stroke:none;stroke-width:0.1"
       id="path88" /><path
       d="m 309.102,403.13 c 13.517,34.05 6.627,71.39 -20.669,112.03 -11.038,-47.76 -4.148,-85.1 20.669,-112.03"
       style="fill:#95a6db;fill-opacity:1;fill-rule:nonzero;stroke:none;stroke-width:0.1"
       id="path90" /><path
       d="m 228.95,558.47 c -0.674,-41.44 11.624,-71.14 36.894,-89.09 5.141,30.65 -7.156,60.34 -36.894,89.09"
       style="fill:#95a6db;fill-opacity:1;fill-rule:nonzero;stroke:none;stroke-width:0.1"
       id="path92" /><path
       d="m 175.182,575.08 c 5.597,-34.24 20.111,-56.87 43.54,-67.9 -0.271,25.94 -14.784,48.58 -43.54,67.9"
       style="fill:#95a6db;fill-opacity:1;fill-rule:nonzero;stroke:none;stroke-width:0.1"
       id="path94" /><path
       d="m 191.61,505.79 c -9.52,24.12 -31.177,40.06 -64.971,47.84 17.503,-29.98 39.16,-45.93 64.971,-47.84"
       style="fill:#95a6db;fill-opacity:1;fill-rule:nonzero;stroke:none;stroke-width:0.1"
       id="path96" /><path
       d="m 247.519,307.82 c 35.347,-44.81 74.318,-65.77 116.913,-62.89 -21.048,37.02 -60.019,57.98 -116.913,62.89"
       style="fill:#95a6db;fill-opacity:1;fill-rule:nonzero;stroke:none;stroke-width:0.1"
       id="path98" /><path
       d="m 303.335,375.93 c -26.536,22.65 -62.373,27.9 -107.509,15.74 39.714,-24.52 75.55,-29.77 107.509,-15.74"
       style="fill:#95a6db;fill-opacity:1;fill-rule:nonzero;stroke:none;stroke-width:0.1"
       id="path100" /><path
       d="m 177.367,438.08 c 34.546,-21.37 65.726,-25.93 93.539,-13.69 -23.072,19.73 -54.252,24.3 -93.539,13.69"
       style="fill:#95a6db;fill-opacity:1;fill-rule:nonzero;stroke:none;stroke-width:0.1"
       id="path102" /><path
       d="m 228.971,466.65 c -23.096,19.66 -54.276,24.23 -93.539,13.69 34.568,-21.37 65.747,-25.93 93.539,-13.69"
       style="fill:#95a6db;fill-opacity:1;fill-rule:nonzero;stroke:none;stroke-width:0.1"
       id="path104" /><path
       d="m 389.425,169.2 c -22.252,98.71 -24.936,90.77 -48.165,148.16 -6.261,15.51 -12.951,30.22 -20.068,44.13 -14.943,28.32 -32.914,54.94 -53.595,79.39 -23.659,29.14 -44.228,48.34 -61.705,57.6 l -1.654,1.95 c -0.253,0.73 -0.988,1.16 -1.744,1.04 -0.682,0.32 -1.467,0.34 -2.167,0.06 -0.605,-0.5 -1.085,-1.14 -1.399,-1.87 -0.32,-0.68 -0.342,-1.46 -0.062,-2.16 l 0.614,-1.5 c 0.52,-0.6 1.154,-1.08 1.866,-1.43 l -0.011,-0.36 1.591,-0.67 c 16.883,-9.42 36.827,-28.2 59.836,-56.34 20.302,-24.32 37.883,-50.8 52.425,-78.95 7.448,-14.08 14.165,-28.52 20.125,-43.29 l 1.533,-3.85 c -23.695,30.22 -61.234,43.73 -112.62,40.52 37.481,-35.23 75.021,-48.74 112.62,-40.52 22.487,-56.51 24.507,-46.9 46.172,-143.14 l 6.408,1.23"
       style="fill:#95a6db;fill-opacity:1;fill-rule:nonzero;stroke:none;stroke-width:0.1"
       id="path106" /><path
       d="m 237.732,285.72 c -6.051,27.8 -26.683,48.88 -61.896,63.24 13.596,-35.57 34.228,-56.65 61.896,-63.24"
       style="fill:#95a6db;fill-opacity:1;fill-rule:nonzero;stroke:none;stroke-width:0.1"
       id="path108" /><path
       d="m 118.718,351.08 c 17.536,-27 38.339,-40.81 62.41,-41.42 -9.976,21.98 -30.779,35.79 -62.41,41.42"
       style="fill:#95a6db;fill-opacity:1;fill-rule:nonzero;stroke:none;stroke-width:0.1"
       id="path110" /><path
       d="m 76.8633,338.47 c 18.4543,-19.64 37.6207,-27.93 57.5017,-24.88 -11.422,16.6 -30.59,24.89 -57.5017,24.88"
       style="fill:#95a6db;fill-opacity:1;fill-rule:nonzero;stroke:none;stroke-width:0.1"
       id="path112" /><path
       d="m 117.499,300.94 c -16.597,11.41 -37.4685,12.3 -62.6181,2.65 24.2785,-11.73 45.1511,-12.61 62.6181,-2.65"
       style="fill:#95a6db;fill-opacity:1;fill-rule:nonzero;stroke:none;stroke-width:0.1"
       id="path114" /><path
       d="m 236.288,185.57 c 42.21,-13.55 76.416,-10.16 102.616,10.17 -29.618,14.73 -63.823,11.34 -102.616,-10.17"
       style="fill:#95a6db;fill-opacity:1;fill-rule:nonzero;stroke:none;stroke-width:0.1"
       id="path116" /><path
       d="m 245.812,265.69 c -26.927,3.09 -52.298,-9.07 -76.113,-36.48 36.227,1.42 61.598,13.58 76.113,36.48"
       style="fill:#95a6db;fill-opacity:1;fill-rule:nonzero;stroke:none;stroke-width:0.1"
       id="path118" /><path
       d="m 137.675,251.13 c 31.531,1.2 53.606,11.78 66.223,31.73 -23.425,2.71 -45.501,-7.87 -66.223,-31.73"
       style="fill:#95a6db;fill-opacity:1;fill-rule:nonzero;stroke:none;stroke-width:0.1"
       id="path120" /><path
       d="m 158.547,291.91 c -23.412,2.66 -45.487,-7.92 -66.224,-31.73 31.547,1.21 53.621,11.79 66.224,31.73"
       style="fill:#95a6db;fill-opacity:1;fill-rule:nonzero;stroke:none;stroke-width:0.1"
       id="path122" /><path
       d="m 390.935,169.78 c -57.143,53.97 -55.431,47.69 -95.286,74.6 -10.759,7.29 -21.45,13.87 -32.07,19.75 -21.91,11.77 -45.033,21.13 -68.964,27.92 -27.885,8.52 -49.467,11.98 -64.745,10.37 l -1.912,0.54 c -0.477,0.36 -1.14,0.32 -1.573,-0.09 -0.578,-0.09 -1.094,-0.41 -1.423,-0.9 -0.172,-0.59 -0.203,-1.21 -0.094,-1.81 0.091,-0.58 0.417,-1.09 0.901,-1.42 l 1.044,-0.7 c 0.594,-0.16 1.214,-0.2 1.823,-0.11 l 0.15,-0.24 1.316,0.26 c 14.962,1.25 35.96,-2.2 62.991,-10.36 23.634,-6.88 46.444,-16.32 68.023,-28.16 10.903,-5.84 21.495,-12.24 31.738,-19.17 l 2.66,-1.82 c -28.374,9.2 -58.425,1.63 -90.153,-22.72 39.433,-6.45 69.484,1.12 90.153,22.72 38.996,-26.67 36.131,-19.6 91.824,-72.23 l 3.597,3.57"
       style="fill:#95a6db;fill-opacity:1;fill-rule:nonzero;stroke:none;stroke-width:0.1"
       id="path124" /><g
       id="g126"
       transform="scale(0.176987)"><path
         d="M 16204.5,814.296 H 885.534 c -52.773,0 -95.555,42.771 -95.555,95.545 v 26.048 c 0,52.771 42.782,95.541 95.555,95.541 H 16204.5 c 52.7,0 95.5,-42.77 95.5,-95.541 v -26.048 c 0,-52.774 -42.8,-95.545 -95.5,-95.545"
         style="fill:#95a6db;fill-opacity:1;fill-rule:nonzero;stroke:none"
         id="path128" /></g><g
       id="g130"
       transform="scale(0.16075)"><path
         d="m 5633.23,1007.03 c 0,0 -1531.77,-67.063 -1700.05,-67.063 -400.3,0 -714.55,287.593 -714.55,687.903 0,400.24 324.51,724.78 724.81,724.78 36.73,0 72.82,-2.73 108.09,-8.02 -9.21,36.39 -12.65,75.08 -9.13,115.02 14.77,167.53 151.93,300.84 319.79,310.98 73.12,4.42 141.65,-14.12 199.08,-49.08 121.59,355.08 663.08,698.41 1058.28,727.9 352.84,26.31 960.41,57.04 1176.83,-429.11 216.42,-486.22 253.37,286.47 579.91,353.28 433.84,88.83 624.19,-291.63 694.11,-497.11 13.75,-40.43 68.68,-45.72 89.77,-8.52 79.13,139.53 247.03,357.14 527.59,365.54 300.34,8.95 532.69,-255.93 637.76,-402.24 24.14,-33.66 76.45,-24.39 87.65,15.55 67.31,240.25 276.83,786.68 775.03,705.75 463,-75.27 580.2,-547.24 609.4,-755.89 5.6,-39.88 53.8,-56.86 83,-29.11 l 295.6,281.24 c 172.6,106 304.5,265.88 380.6,453.68 122.1,301.4 458.9,518.01 855.2,518.01 499.3,0 904.2,-343.95 904.2,-768.15 0,-57.91 -7.6,-114.34 -21.9,-168.52 35.9,3.49 72.3,5.35 109.3,5.35 414.3,0 766.3,-226.75 893.4,-542.08 54.1,28.05 117.8,44.17 185.8,44.17 197.8,0 358,-136.18 358,-304.14 0,-25.82 -3.8,-50.89 -11,-74.77 36.9,4.66 74.6,7.09 113.1,7.09 359.6,0 660.7,-212.88 738.3,-498.35 31.7,6.03 64.5,9.33 98.1,9.33 287.5,0 520.7,-233.1 520.7,-520.62 0,-32.79 -3,-64.7 -8.8,-95.8 h -4409.6 l -6248.37,-107"
         style="fill:#3f964f;fill-opacity:1;fill-rule:nonzero;stroke:none"
         id="path132" /></g><path
       d="m 1275.32,644.4 c 0,0 19.64,-35.66 -11.7,-99.02 -31.95,-64.55 -26.13,-109.65 -26.13,-109.65 l -29.15,-24.69 c 0,0 -5.43,68.57 22.71,119.23 35.31,63.36 44.27,114.13 44.27,114.13"
       style="fill:#95a6db;fill-opacity:1;fill-rule:nonzero;stroke:none;stroke-width:0.1"
       id="path134" /><path
       d="m 1361.43,624.33 c 0,0 5.24,-29.54 -30.14,-70.59 -36.15,-41.78 -42.23,-75.91 -42.23,-75.91 l -24.27,-19.31 c 0,0 10.65,57.48 41.1,89.76 38.04,40.4 55.54,76.05 55.54,76.05"
       style="fill:#95a6db;fill-opacity:1;fill-rule:nonzero;stroke:none;stroke-width:0.1"
       id="path136" /><path
       d="m 1211.99,576.88 c 0,0 -26.5,-18.29 -43.57,-92.65 -13.92,-60.6 -0.17,-92.38 -8.93,-129.51 l 37.56,40.27 c 2.37,26.35 -14.52,43.79 -4.56,99.35 9.31,52.02 19.5,82.54 19.5,82.54"
       style="fill:#95a6db;fill-opacity:1;fill-rule:nonzero;stroke:none;stroke-width:0.1"
       id="path138" /><path
       d="m 974.023,352.89 c 0,0 -11.813,-30.06 15.479,-101.23 22.238,-58.07 52.468,-65.9 58.248,-79.29 l 13.13,29.23 c -16.05,22.83 -34.32,20.16 -57.03,71.83 -21.26,48.49 -29.827,79.46 -29.827,79.46"
       style="fill:#95a6db;fill-opacity:1;fill-rule:nonzero;stroke:none;stroke-width:0.1"
       id="path140" /><path
       d="m 1150.16,530.65 c 0,0 -18.38,-52.47 -22.67,-85.96 -6.18,-47.6 12.53,-73.16 9.71,-122.23 l -26.43,-31.81 c 0,0 -22.96,51.59 -12.99,110.01 16.73,98.04 52.38,129.99 52.38,129.99"
       style="fill:#95a6db;fill-opacity:1;fill-rule:nonzero;stroke:none;stroke-width:0.1"
       id="path142" /><path
       d="m 1059.01,506.43 c 5.1,-30.77 5.68,-62.12 1.71,-93.06 -12.71,-93.67 36.44,-164.92 36.44,-164.92 l -19.68,-18.64 c 0,0 -60.34,49.77 -47.45,128.14 13.7,82.8 28.98,148.48 28.98,148.48"
       style="fill:#95a6db;fill-opacity:1;fill-rule:nonzero;stroke:none;stroke-width:0.1"
       id="path144" /><path
       d="m 1195.01,388.35 c 0,0 22.18,7.7 114.03,-4.64 58.87,-7.93 41.79,14.51 97.29,-2.7 -42.34,-3.44 -56.97,-34.24 -112.15,-30.05 -44.13,3.38 -88.46,3.3 -132.57,-0.24 l 33.4,37.63"
       style="fill:#95a6db;fill-opacity:1;fill-rule:nonzero;stroke:none;stroke-width:0.1"
       id="path146" /><path
       d="m 1372.92,327.35 c 0,0 -36.42,-45.21 -117.95,-38.82 -50.18,3.81 -100.64,-0.66 -149.37,-13.23 l 24.89,40.92 c 0,0 33.96,24.3 118.09,9.52 57.8,-10.15 124.34,1.61 124.34,1.61"
       style="fill:#95a6db;fill-opacity:1;fill-rule:nonzero;stroke:none;stroke-width:0.1"
       id="path148" /><path
       d="m 1323.76,250.16 c 0,0 -36.42,-45.2 -117.94,-38.81 -50.18,3.81 -100.65,-0.66 -149.38,-13.23 l 24.89,40.92 c 0,0 33.96,24.3 118.09,9.52 57.8,-10.15 124.34,1.6 124.34,1.6"
       style="fill:#95a6db;fill-opacity:1;fill-rule:nonzero;stroke:none;stroke-width:0.1"
       id="path150" /><path
       d="m 1431.57,476.27 c 0,0 -26.19,-23.4 -77.56,-17.43 -52.09,6.09 -90.49,-4.87 -90.49,-4.87 l 14.77,15.25 c 0,0 21.47,15.36 74.64,6.03 36.58,-6.4 78.64,1.02 78.64,1.02"
       style="fill:#95a6db;fill-opacity:1;fill-rule:nonzero;stroke:none;stroke-width:0.1"
       id="path152" /><path
       d="m 1241.23,428.98 c 0,0 40.18,3.79 99.15,-1.81 37.22,-3.41 86.89,18.66 86.89,18.66 0,0 -38.55,-53.08 -94.17,-44.48 -63.78,9.88 -126.91,1.7 -126.91,1.7 l 35.04,25.93"
       style="fill:#95a6db;fill-opacity:1;fill-rule:nonzero;stroke:none;stroke-width:0.1"
       id="path154" /><path
       d="m 1274.35,463.08 c 0,0 33.7,52.09 89.77,62.08 33.17,6.2 65.08,17.9 94.4,34.62 0,0 -31.34,-53.78 -83.78,-57.41 -48.41,-3.48 -82.2,-35.17 -82.2,-35.17 l -18.19,-4.12"
       style="fill:#95a6db;fill-opacity:1;fill-rule:nonzero;stroke:none;stroke-width:0.1"
       id="path156" /><path
       d="m 1052.27,171.39 -8.39,3.57 c 22.02,51.7 120.77,219.51 244.14,302.68 l 5.09,-7.56 C 1171.46,388.05 1074.02,222.43 1052.27,171.39"
       style="fill:#95a6db;fill-opacity:1;fill-rule:nonzero;stroke:none;stroke-width:0.1"
       id="path158" /><path
       d="m 580.037,560.48 c -0.026,-0.01 -0.052,-0.02 -0.078,-0.03 -3.975,-1.29 -8.245,0.88 -9.538,4.86 -1.311,3.96 0.839,8.24 4.803,9.56 3.966,1.31 8.25,-0.84 9.566,-4.8 1.316,-3.97 -0.832,-8.25 -4.8,-9.57 z m 25.258,-64.11 c -15.113,-5.07 -37.474,38.41 -23.579,46.58 13.894,8.16 38.877,-41.43 23.579,-46.58 z M 592.32,266.03 c -5.681,15.32 32.782,27.46 37.75,16.68 6.395,-13.9 -32.067,-32 -37.75,-16.68 z m 86.932,174.04 c 2.991,-14.37 -32.458,-29.1 -37.956,-16.1 -5.498,13 36.001,25.54 37.956,16.1 z m 9.685,-47.27 c 25.649,12.24 44.582,32.14 54.497,21.81 9.063,-9.43 -5.361,-30.27 -33.333,-47.85 -21.786,-13.69 -60.57,-28.39 -65.331,-13.96 -4.601,13.94 13.709,25.44 44.167,40 z m -6.05,102.46 c -7.798,14.61 48.124,40 52.724,34.09 10.307,-13.18 -44.925,-48.7 -52.724,-34.09 z M 429.154,163.87 h 284.19 c 27.49,36.8 40.28,82.14 40.28,82.14 0,0 -87.806,-51.64 -128.936,-31.49 79.73,17.53 140.323,77.94 140.323,77.94 l 12.997,54.06 c 0,0 -111.109,-77.57 -125.463,-61.47 -16.08,18.11 100.159,37.68 129.143,113.25 0,0 -17.758,49.69 -5.245,90.59 1.634,5.38 -63.052,-50.63 -75.338,-35.66 -9.937,12.13 49.091,36.63 58.109,60.78 11.502,31.12 -11.502,61.42 -11.502,61.42 0,0 -63.514,-41.96 -69.541,-26.73 -7.27,18.33 47.296,27.65 58.016,52.54 -29.468,18.47 -50.241,35.88 -50.609,50.79 -17.621,-14.08 -41.015,-14.51 -67.999,-13.06 -2.53,-19.24 25.58,-62.71 17.69,-67.66 -20.128,-12.6 -37.473,48.63 -37.473,48.63 -20.553,-8.69 -35.868,-26.48 -41.407,-48.1 -7.27,-26.91 27.903,-93.51 16.723,-102.94 -13.894,-11.76 -40.44,89.71 -40.44,89.71 0,0 -32.205,-17.25 -43.707,-38.18 -11.503,-20.94 66.48,-136.21 53.553,-140.86 -26.846,-9.7 -82.7,122.96 -82.7,122.96 0,0 -32.205,-64.94 -29.306,-80.26 4.784,-25.1 91.532,-101.68 72.255,-113.57 -13.802,-8.6 -54.013,52.06 -73.613,83.57 V 300.6 c 6.607,-5.29 13.63,-10.04 21.003,-14.19 28.823,-16.47 28.962,-26.09 12.076,-24.98 -10.443,0.69 -21.899,5.89 -33.079,13.06 v -32.94 c 18.955,-7.84 38.532,-21.32 33.079,-29.26 -6.302,-9.2 -19.966,-6.72 -33.079,0 v -48.42"
       style="fill:#95a6db;fill-opacity:1;fill-rule:nonzero;stroke:none;stroke-width:0.1"
       id="path160" /><path
       d="M 643.941,536.46 520.802,163.87 h -16.586 z"
       style="fill:#3a62ad;fill-opacity:1;fill-rule:nonzero;stroke:none;stroke-width:0.1"
       id="path162" /><path
       d="m 648.749,329.22 -90.129,-20.24 -0.69,-9.87 z"
       style="fill:#3a62ad;fill-opacity:1;fill-rule:nonzero;stroke:none;stroke-width:0.1"
       id="path164" /><path
       d="m 585.327,380.17 -46.352,86.96 50.47,-75.96 z"
       style="fill:#3a62ad;fill-opacity:1;fill-rule:nonzero;stroke:none;stroke-width:0.1"
       id="path166" /><path
       d="m 538.63,242.01 -58.177,56.29 59.073,-40.26 z"
       style="fill:#3a62ad;fill-opacity:1;fill-rule:nonzero;stroke:none;stroke-width:0.1"
       id="path168" /><g
       id="g170"
       transform="scale(0.120289)"><path
         d="m 16061.2,2129.87 c 215.3,300.28 238.8,682.61 70.7,1147.07 -223.3,-440.85 -246.8,-823.18 -70.7,-1147.07"
         style="fill:#95a6db;fill-opacity:1;fill-rule:nonzero;stroke:none"
         id="path172" /></g><g
       id="g174"
       transform="scale(0.117332)"><path
         d="m 16143.7,2840.75 c 156.3,307.84 124,664.26 -97.1,1069.27 -144.1,-438.84 -111.7,-795.26 97.1,-1069.27"
         style="fill:#95a6db;fill-opacity:1;fill-rule:nonzero;stroke:none"
         id="path176" /></g><g
       id="g178"
       transform="scale(0.114413)"><path
         d="m 16193.5,3579.39 c 106.5,319.01 24.3,657.87 -246.7,1016.48 -76.8,-443.48 5.4,-782.33 246.7,-1016.48"
         style="fill:#95a6db;fill-opacity:1;fill-rule:nonzero;stroke:none"
         id="path180" /></g><g
       id="g182"
       transform="scale(0.110866)"><path
         d="m 15871.6,5121.51 c 15.4,-392.45 147.3,-667.02 395.9,-823.52 32.5,292.61 -99.5,567.18 -395.9,823.52"
         style="fill:#95a6db;fill-opacity:1;fill-rule:nonzero;stroke:none"
         id="path184" /></g><g
       id="g186"
       transform="scale(0.107477)"><path
         d="m 15838.2,5415.87 c 73.3,-331.14 227.1,-544.12 461.8,-639.02 -16.7,252.98 -170.6,466.06 -461.8,639.02"
         style="fill:#95a6db;fill-opacity:1;fill-rule:nonzero;stroke:none"
         id="path188" /></g><g
       id="g190"
       transform="scale(0.105737)"><path
         d="m 16300,4826.58 c -107.8,234.07 -331.5,380.28 -671,438.73 190.2,-287.7 413.9,-434 671,-438.73"
         style="fill:#95a6db;fill-opacity:1;fill-rule:nonzero;stroke:none"
         id="path192" /></g><g
       id="g194"
       transform="scale(0.117063)"><path
         d="m 15221,2512.49 c 339.1,-383.9 698.8,-552.27 1079,-505.2 -207.1,321.28 -566.7,489.65 -1079,505.2"
         style="fill:#95a6db;fill-opacity:1;fill-rule:nonzero;stroke:none"
         id="path196" /></g><g
       id="g198"
       transform="scale(0.113392)"><path
         d="m 16300,3357.03 c -257.2,195.95 -591.4,226.03 -1002.6,90.22 380,-206.37 714.1,-236.44 1002.6,-90.22"
         style="fill:#95a6db;fill-opacity:1;fill-rule:nonzero;stroke:none"
         id="path200" /></g><g
       id="g202"
       transform="scale(0.111131)"><path
         d="m 15410,3945.88 c 337.2,-183.66 633.9,-210.3 890,-80.18 -228.1,174.12 -524.8,200.84 -890,80.18"
         style="fill:#95a6db;fill-opacity:1;fill-rule:nonzero;stroke:none"
         id="path204" /></g><g
       id="g206"
       transform="scale(0.108282)"><path
         d="m 16300,4354.2 c -234.4,178.06 -538.9,205.49 -913.5,82.2 346.4,-188.4 650.8,-215.83 913.5,-82.2"
         style="fill:#95a6db;fill-opacity:1;fill-rule:nonzero;stroke:none"
         id="path208" /></g><g
       id="g210"
       transform="scale(0.119672)"><path
         d="m 16300,1410.85 c -243.2,854.33 -262.8,783.47 -494.4,1275.15 -62.5,132.86 -128.3,258.54 -197.5,377.03 -144.7,240.99 -315.3,465.52 -508.5,669.66 -221.6,243.92 -411.2,402.18 -568.9,474.8 l -15.5,16.29 c -2.5,6.27 -9.2,9.69 -15.8,8.27 -6.1,2.43 -12.9,2.26 -19,-0.5 -5,-4.76 -8.9,-10.61 -11.3,-17.04 -2.5,-6.19 -2.3,-13.04 0.5,-19.06 l 6.1,-12.78 c 4.8,-5.02 10.7,-8.94 17,-11.7 l 0.1,-3.09 14.3,-5.1 c 152.6,-74.28 336.6,-229.21 551.9,-464.6 189.9,-203.39 356.9,-426.83 498.1,-666.49 72.2,-119.74 138.1,-243.08 197.5,-369.59 l 15.3,-33.01 c -222.4,253.28 -558,353.39 -1006.8,300.24 345.6,-290.54 681.2,-390.65 1006.8,-300.24 224.7,-484.4 237.7,-399.17 474.5,-1232.19 l 55.6,13.95"
         style="fill:#95a6db;fill-opacity:1;fill-rule:nonzero;stroke:none"
         id="path212" /></g><g
       id="g214"
       transform="scale(0.126172)"><path
         d="m 15975.3,10467.9 h -0.3 l -274.2,-1 -62,-647.5 319.9,-168.97 341.3,167.07 -55.2,649.4 -269.5,1"
         style="fill:#f37a50;fill-opacity:1;fill-rule:nonzero;stroke:none"
         id="path216" /></g><g
       id="g218"
       transform="scale(0.130794)"><path
         d="m 16137.3,10373.6 c -162.8,-406.67 -553.7,-632.75 -873.1,-504.9 -319.5,127.82 -446.4,561.2 -283.7,967.9 162.8,406.7 553.6,632.8 873.1,504.9 319.4,-127.8 446.4,-561.1 283.7,-967.9"
         style="fill:#f37a50;fill-opacity:1;fill-rule:nonzero;stroke:none"
         id="path220" /></g><g
       id="g222"
       transform="scale(0.121472)"><path
         d="m 16279.8,11524.5 c -20.4,-29.3 -60.6,-36.5 -89.8,-16.1 -29.2,20.3 -36.4,60.4 -16,89.6 20.2,29.3 60.4,36.5 89.6,16.1 29.2,-20.3 36.4,-60.4 16.2,-89.6"
         style="fill:#000000;fill-opacity:1;fill-rule:nonzero;stroke:none"
         id="path224" /></g><g
       id="g226"
       transform="scale(0.125082)"><path
         d="m 16278.6,11000.7 c -21.4,-30.7 -63.6,-38.3 -94.3,-17 -30.7,21.4 -38.3,63.6 -16.9,94.3 21.4,30.7 63.5,38.3 94.3,16.9 30.7,-21.3 38.3,-63.5 16.9,-94.2"
         style="fill:#000000;fill-opacity:1;fill-rule:nonzero;stroke:none"
         id="path228" /></g><g
       id="g230"
       transform="scale(0.12205)"><path
         d="m 16300,11367.6 c -86.7,-68.4 -195.1,-150.8 -195.1,-150.8 0,0 -1.1,-104.5 121,-149.8 -44.1,40 -83,93.4 -37,155 46,61.5 111.1,145.6 111.1,145.6"
         style="fill:#de623c;fill-opacity:1;fill-rule:nonzero;stroke:none"
         id="path232" /></g><g
       id="g234"
       transform="scale(0.126128)"><path
         d="m 16265.9,10949.8 c 2.4,0 4.8,0.3 7.2,0.9 16.6,4 26.9,20.7 22.9,37.3 -10.8,45.4 -56.3,131.4 -150.7,131.8 -17.2,-0.1 -31,-13.7 -31.1,-30.8 0,-17.1 13.8,-31 30.8,-31.1 69.9,-0.3 90.6,-83.4 90.8,-84.3 3.4,-14.2 16.1,-23.8 30.1,-23.8"
         style="fill:#201d40;fill-opacity:1;fill-rule:nonzero;stroke:none"
         id="path236" /></g><g
       id="g238"
       transform="scale(0.122052)"><path
         d="m 16269.6,11605.4 c 4.6,0 9.3,1.2 13.4,3.7 12.7,7.4 17,23.8 9.6,36.5 -1.2,2 -29.2,48.9 -82.1,58.7 -36.3,6.7 -73.6,-5.2 -111.2,-35.2 -11.5,-9.2 -13.3,-26 -4.1,-37.5 9.1,-11.5 25.9,-13.4 37.4,-4.2 24.9,20 47.9,28.2 68.1,24.4 28.8,-5.3 45.7,-32.9 45.9,-33.2 5,-8.5 13.8,-13.2 23,-13.2"
         style="fill:#201d40;fill-opacity:1;fill-rule:nonzero;stroke:none"
         id="path240" /></g><g
       id="g242"
       transform="scale(0.132377)"><path
         d="m 16164,10549.8 c 136,387.2 -195.3,609.9 -195.3,609.9 0,0 88.9,7.9 99.5,132.7 -66.5,-20.7 -141.2,-19.2 -206.6,4.5 -441.7,159.9 -745.8,157.8 -745.8,-31.2 0,-67.3 -302.1,-25 -277.6,-477.5 40.6,42.4 112.9,221.8 211.4,240.4 98.8,18.6 9.5,-113.1 215.4,-141.3 207.7,-28.6 360.3,21.9 487.2,-95.2 99.2,-102.2 123.9,-621.9 108.7,-653.2 34.6,71.7 243.3,240.7 303.1,410.9"
         style="fill:#201d40;fill-opacity:1;fill-rule:nonzero;stroke:none"
         id="path244" /></g><g
       id="g246"
       transform="scale(0.128909)"><path
         d="m 15137.1,10762.7 c 0,0 -19.2,-242.1 15.7,-317 36.3,97.1 114.3,-5.8 187.5,-15.5 177.1,-23.4 496.6,35.6 528.2,-229.9 216.4,-68.5 419.1,394.6 419.1,394.6 12.4,-517.4 -366.2,-811.24 -911.1,-725.15 -359,56.7 -392.4,556.55 -239.4,892.95"
         style="fill:#201d40;fill-opacity:1;fill-rule:nonzero;stroke:none"
         id="path248" /></g><g
       id="g250"
       transform="scale(0.123636)"><path
         d="m 16172,10704.5 c 36.4,8.7 74.5,23.6 113.9,44.7 10.3,5.5 14.1,18.2 8.7,28.5 -5.5,10.2 -18.3,14.1 -28.6,8.6 -87.3,-46.7 -165.7,-60 -232.8,-39.5 -83,25.3 -120.9,95.2 -121.3,96 -5.4,10.2 -18.2,14.2 -28.4,8.8 -10.2,-5.5 -14.3,-18.1 -8.9,-28.4 1.8,-3.5 45.7,-85.6 145.5,-116.4 46.9,-14.5 97.7,-15.2 151.9,-2.3"
         style="fill:#de623c;fill-opacity:1;fill-rule:nonzero;stroke:none"
         id="path252" /></g><g
       id="g254"
       transform="scale(0.131088)"><path
         d="m 16021.9,10415.5 c -89.6,-50.3 -128.8,-150.6 -87.6,-223.9 41.2,-73.3 147.2,-92 236.8,-41.7 89.6,50.4 128.9,150.6 87.7,224 -41.2,73.3 -147.2,92 -236.9,41.6"
         style="fill:#f37a50;fill-opacity:1;fill-rule:nonzero;stroke:none"
         id="path256" /></g><g
       id="g258"
       transform="scale(0.13011)"><path
         d="m 16156.1,10272.5 c -2.8,1.9 -5.2,4.5 -6.9,7.7 -24.8,46 -20.8,92.8 10.8,125.3 32.5,33.3 84.7,42.9 124.4,22.8 11.1,-5.7 15.6,-19.3 10,-30.4 -5.7,-11.2 -19.3,-15.7 -30.4,-10 -21.8,11 -53.2,4.8 -71.4,-14 -17.7,-18.1 -19,-43.7 -3.6,-72.1 6,-11 1.9,-24.8 -9.1,-30.7 -7.8,-4.2 -17,-3.4 -23.8,1.4"
         style="fill:#de623c;fill-opacity:1;fill-rule:nonzero;stroke:none"
         id="path260" /></g><g
       id="g262"
       transform="scale(0.123374)"><path
         d="m 15826,2042.24 c -247.9,-341.97 -856.7,-132.12 -836.5,-594.77 925.7,5.99 1310.5,0 1310.5,0 -1.2,106.26 -19.5,358.5 -40.9,457.22 l -433.1,137.55"
         style="fill:#000000;fill-opacity:1;fill-rule:nonzero;stroke:none"
         id="path264" /></g><g
       id="g266"
       transform="scale(0.134424)"><path
         d="m 15865,1874.37 c -227.5,-313.86 -786.3,-121.26 -767.8,-545.89 849.7,5.51 1202.8,0 1202.8,0 -1.1,97.53 -17.9,329.04 -37.6,419.65 l -397.4,126.24"
         style="fill:#000000;fill-opacity:1;fill-rule:nonzero;stroke:none"
         id="path268" /></g><g
       id="g270"
       transform="scale(0.125636)"><path
         d="m 15127.2,7140.22 c 0,0 -263.6,-2230.25 -203.7,-2708.85 60,-478.61 388.3,-1014.52 364.3,-2597.5 296.3,-74.27 725.7,0 725.7,0 0,0 63.6,1789.93 -249.6,2589.38 127.3,776.61 536.1,2555.31 536.1,2555.31 l -1172.8,161.66"
         style="fill:#201d40;fill-opacity:1;fill-rule:nonzero;stroke:none"
         id="path272" /></g><g
       id="g274"
       transform="scale(0.134175)"><path
         d="m 14683.2,6624.04 c 0,0 279.1,-2262.94 415.8,-2692.15 136.5,-429.22 322.9,-754.47 570.2,-2214.65 285.1,-14.31 630.8,-37.72 630.8,-37.72 0,0 -38.5,1852.21 -482.7,2273.46 -15,737.39 71.9,2656.53 71.9,2656.53 l -1206,14.53"
         style="fill:#2c2858;fill-opacity:1;fill-rule:nonzero;stroke:none"
         id="path276" /></g><g
       id="g278"
       transform="scale(0.131983)"><path
         d="m 16234.9,9344.96 c 0,0 -492.7,172.51 -657,93.39 -510.6,-245.83 -627.6,0 -627.6,0 -179.1,39.75 -602.1,39.75 -602.1,39.75 -53.6,-714.63 -142.3,-2999.99 -142.3,-2999.99 0,0 543.2,-142.44 1057.1,-146.15 514,3.33 1037,140.32 1037,140.32 0,0 -27.4,998.99 -50.3,1370.35 7.4,416.19 -14.8,953.82 -14.8,1502.33"
         style="fill:#e62552;fill-opacity:1;fill-rule:nonzero;stroke:none"
         id="path280" /></g><g
       id="g282"
       transform="scale(0.134775)"><path
         d="m 16172.1,7014.59 -91.7,-113.23 c 0,0 -33.7,154.41 -139.8,133.63 v -165.53 c 0,0 -59.8,-95.42 -311.9,-24.93 -228.9,-3.94 -97.8,-139.64 -166.9,-168.43 -102.1,-42.52 132,-206.5 356.4,-185.87 290.4,26.79 309.7,92.3 309.7,92.3 l 172.1,124.14 -127.9,307.92"
         style="fill:#f37a50;fill-opacity:1;fill-rule:nonzero;stroke:none"
         id="path284" /></g><g
       id="g286"
       transform="scale(0.14327)"><path
         d="m 14955.9,8608.74 c 414.7,-178.39 923.6,-589.58 1236.7,-1240.88 107.4,-223.35 -403.1,-268.44 -504.9,-180.41 -101.7,88.04 -731.8,745.59 -731.8,745.59 v 675.7"
         style="fill:#c4204a;fill-opacity:1;fill-rule:nonzero;stroke:none"
         id="path288" /></g><g
       id="g290"
       transform="scale(0.142456)"><path
         d="m 15238.1,6574.36 c 364.8,490.58 527.8,878.92 645.4,938.71 157.5,80.04 416.5,76.09 416.4,-198.03 0,-274.12 -1000.7,-1104.65 -1000.7,-1104.65 l -61.1,363.97"
         style="fill:#c4204a;fill-opacity:1;fill-rule:nonzero;stroke:none"
         id="path292" /></g><g
       id="g294"
       transform="scale(0.116179)"><path
         d="m 16300,10767.4 -2205.1,785.1 -343.7,-519.3 2491.8,-1232.61 57,966.81"
         style="fill:#c4204a;fill-opacity:1;fill-rule:nonzero;stroke:none"
         id="path296" /></g><path
       d="m 1215,1264.36 c 5.12,-14.59 51.23,-22.68 54.73,-18.55 24.47,62.82 -1.32,186.06 -1.32,186.06 l -22.94,10.43 c 0,0 -8.01,-95.4 -30.47,-177.94"
       style="fill:#f37a50;fill-opacity:1;fill-rule:nonzero;stroke:none;stroke-width:0.1"
       id="path298" /><path
       d="m 1100.23,1141.87 c 42.99,13.73 164.74,90.74 170.18,106.13 l -50.93,27.28 c 0,0 -138.72,-61.63 -161.25,-72.97 -39.05,-19.56 -28.14,-82.98 42,-60.44"
       style="fill:#f37a50;fill-opacity:1;fill-rule:nonzero;stroke:none;stroke-width:0.1"
       id="path300" /><path
       d="m 1132.6,1374.45 c 3.23,44.08 -9.51,83.02 -44.66,102.85 -35.62,20.1 -80.24,0.39 -80.24,0.39 v 0 c -0.01,0 -37.777,13.44 -72.008,-24.27 -34.233,-37.71 -8.338,-70.89 -22.343,-98.39 -8.293,-16.29 -50.463,-19.65 -39.57,-72.69 3.142,-15.3 21.541,-25.6 37.126,-26.62 27.382,-1.8 52.881,8.78 63.981,-1.8 36.574,-34.88 117.634,-22.27 128.974,9.64 3.52,9.89 76.43,-9.25 69.16,58.13 -3.69,34.15 -43.32,13.38 -40.42,52.76"
       style="fill:#2c2858;fill-opacity:1;fill-rule:nonzero;stroke:none;stroke-width:0.1"
       id="path302" /><path
       d="m 1136.69,1008.48 c 0,36.85 31.94,92.06 16.63,129.25 -11.15,29.93 -29.78,80.16 -52.59,88.54 -10.76,3.96 -21.82,6.71 -35.23,10.42 0,0 4.17,-24.52 -11.6,-25.79 -30.34,-2.43 -46.29,36.47 -46.29,36.47 -16.361,1.57 -90.851,-22.76 -94.359,-34.72 0.178,-48.27 42.379,-113.23 55.203,-165.41 5.046,-56.37 -6.997,-86.46 -7.068,-92.87 0,0 106.554,-35.61 178.124,3.79 0,0 -2.82,25.43 -2.82,50.32"
       style="fill:#3f964f;fill-opacity:1;fill-rule:nonzero;stroke:none;stroke-width:0.1"
       id="path304" /><path
       d="m 1051.16,1279.24 -47.01,7.04 2.41,-38.83 c 0,0 12.85,-42.9 39.58,-43.51 26.72,-0.61 19.36,32.75 19.36,32.75 l -14.34,42.55"
       style="fill:#f37a50;fill-opacity:1;fill-rule:nonzero;stroke:none;stroke-width:0.1"
       id="path306" /><path
       d="m 960.661,1342.33 c 12.134,-50.68 54.239,-84.04 94.039,-74.51 39.8,9.53 62.23,58.34 50.1,109.02 -12.14,50.68 -54.24,84.04 -94.04,74.51 -39.804,-9.53 -62.234,-58.34 -50.099,-109.02"
       style="fill:#f37a50;fill-opacity:1;fill-rule:nonzero;stroke:none;stroke-width:0.1"
       id="path308" /><path
       d="m 1086.15,1363.53 c 1.75,-3.52 6.02,-4.95 9.54,-3.2 3.52,1.75 4.95,6.03 3.2,9.55 -1.75,3.51 -6.03,4.95 -9.55,3.19 -3.51,-1.75 -4.95,-6.02 -3.19,-9.54"
       style="fill:#000000;fill-opacity:1;fill-rule:nonzero;stroke:none;stroke-width:0.1"
       id="path310" /><path
       d="m 1030.24,1349.74 c 1.9,-3.81 6.52,-5.36 10.33,-3.46 3.81,1.89 5.36,6.52 3.46,10.33 -1.89,3.81 -6.52,5.36 -10.33,3.46 -3.81,-1.9 -5.36,-6.52 -3.46,-10.33"
       style="fill:#000000;fill-opacity:1;fill-rule:nonzero;stroke:none;stroke-width:0.1"
       id="path312" /><path
       d="m 1021.72,1356.12 c 0.53,0.26 0.97,0.7 1.24,1.27 3.86,8.33 14.29,9.95 14.4,9.97 1.46,0.21 2.47,1.57 2.26,3.03 -0.21,1.46 -1.56,2.48 -3.02,2.27 -0.55,-0.07 -13.4,-2.01 -18.5,-13.02 -0.63,-1.34 -0.04,-2.93 1.3,-3.55 0.77,-0.36 1.62,-0.32 2.32,0.03"
       style="fill:#2c2858;fill-opacity:1;fill-rule:nonzero;stroke:none;stroke-width:0.1"
       id="path314" /><path
       d="m 1101.67,1373.85 c 0.26,0.12 0.5,0.3 0.71,0.51 1.04,1.05 1.03,2.75 -0.02,3.79 -8.18,8.08 -18.25,4.73 -18.67,4.58 -1.4,-0.48 -2.15,-2.01 -1.66,-3.41 0.48,-1.39 2,-2.13 3.39,-1.66 0.33,0.11 7.42,2.36 13.17,-3.32 0.84,-0.83 2.08,-0.99 3.08,-0.49"
       style="fill:#2c2858;fill-opacity:1;fill-rule:nonzero;stroke:none;stroke-width:0.1"
       id="path316" /><path
       d="m 1081.57,1348.05 c 3.9,-4.02 7.33,-8.16 11.06,-10.51 1.25,-0.79 1.66,-2.46 0.93,-3.75 -3.02,-5.35 -11.81,-9.74 -17.2,-12.03 -0.79,-0.34 -1.43,0.69 -0.79,1.26 5.44,4.77 7.78,8.29 8.76,10.21 0.49,0.96 0.48,2.09 -0.01,3.05 -1.11,2.21 -3.34,6.7 -4.84,10.42 -0.52,1.29 1.12,2.34 2.09,1.35"
       style="fill:#de623c;fill-opacity:1;fill-rule:nonzero;stroke:none;stroke-width:0.1"
       id="path318" /><path
       d="m 979.813,1342.01 c 9.672,-7.53 12.521,-20.04 6.363,-27.96 -6.157,-7.91 -18.99,-8.23 -28.661,-0.71 -9.672,7.53 -12.521,20.04 -6.363,27.96 6.158,7.91 18.991,8.23 28.661,0.71"
       style="fill:#f37a50;fill-opacity:1;fill-rule:nonzero;stroke:none;stroke-width:0.1"
       id="path320" /><path
       d="m 974.308,1316.35 c 0.361,0.18 0.686,0.44 0.945,0.79 3.714,4.94 4.062,10.49 0.934,14.85 -3.204,4.46 -9.153,6.5 -14.145,4.85 -1.405,-0.46 -2.167,-1.98 -1.703,-3.38 0.464,-1.41 1.979,-2.17 3.385,-1.71 2.735,0.91 6.297,-0.36 8.11,-2.89 1.741,-2.42 1.435,-5.44 -0.864,-8.5 -0.89,-1.19 -0.652,-2.87 0.532,-3.76 0.838,-0.63 1.927,-0.69 2.806,-0.25"
       style="fill:#de623c;fill-opacity:1;fill-rule:nonzero;stroke:none;stroke-width:0.1"
       id="path322" /><path
       d="m 1037.57,1307.64 c -1.12,1.52 0.09,3.63 1.96,3.41 4.75,-0.57 12.61,-1.34 20.11,-1.34 7.5,0 15.36,0.77 20.12,1.34 1.87,0.22 3.08,-1.89 1.96,-3.41 -3.45,-4.65 -10.58,-11.71 -22.08,-11.71 -11.5,0 -18.62,7.06 -22.07,11.71"
       style="fill:#ffffff;fill-opacity:1;fill-rule:nonzero;stroke:none;stroke-width:0.1"
       id="path324" /><path
       d="m 959.678,1346.81 c 47.512,6.36 113.982,54.77 119.432,79.61 -9.19,29.83 -58.15,44.83 -85.794,31.01 -27.646,-13.83 -53.761,-73.07 -33.638,-110.62"
       style="fill:#2c2858;fill-opacity:1;fill-rule:nonzero;stroke:none;stroke-width:0.1"
       id="path326" /><path
       d="m 1095.16,291.33 c -3.15,31.39 13.05,270.29 13.05,270.29 45.81,210.03 27.81,360.38 27.81,360.38 l -78.73,-5.53 -31.02,-118.69 14.71,-198.21 c 0,0 -5.52,-15.25 -8.44,-27.45 -15.8,-66.17 -0.06,-145.24 9.67,-197.94 4.52,-24.43 11.53,-75.76 11.72,-87.42 l -19.78,-25.57 c 0,0 71.58,-79.22 82.59,-79.72 21.4,-0.97 15.1,20.23 15.1,20.23 -29.42,30.22 -35.78,80.63 -36.68,89.63"
       style="fill:#f37a50;fill-opacity:1;fill-rule:nonzero;stroke:none;stroke-width:0.1"
       id="path328" /><path
       d="m 1032.92,233.12 3.94,-50.9 9.15,-0.41 4.63,47.27 c 24.35,-6.22 41.79,-50.41 41.79,-50.41 16.78,-6.02 59.41,-10.14 74.59,-2.32 3.66,14.86 -35.25,25.29 -35.25,25.29 -3.51,-4.16 -24.28,-7.35 -31.66,-2.89 -27.15,23.12 -40.4,56.74 -46.18,88.01 0,0 -42.92,-2.99 -21.01,-53.64"
       style="fill:#e62552;fill-opacity:1;fill-rule:nonzero;stroke:none;stroke-width:0.1"
       id="path330" /><path
       d="M 1068.54,906.72 957.63,922 C 915.202,826.01 901.372,658.88 889.854,599.34 843.624,521.83 828.944,286.76 828.944,286.76 l -19.78,-25.57 c 0,0 71.583,-79.22 82.595,-79.72 21.403,-0.97 15.096,20.23 15.096,20.23 -29.42,30.22 -35.157,70.36 -37.061,79.19 -2.863,13.27 89.77,274.05 89.77,274.05 l 9.89,24.74 C 1082.6,766.56 1101.16,907.84 1101.16,907.84 l -32.62,-1.12"
       style="fill:#f37a50;fill-opacity:1;fill-rule:nonzero;stroke:none;stroke-width:0.1"
       id="path332" /><path
       d="m 807.94,233.12 3.939,-50.9 9.147,-0.41 4.628,47.27 c 24.351,-6.22 41.797,-50.41 41.797,-50.41 16.773,-6.02 59.408,-10.14 74.582,-2.32 3.664,14.86 -35.242,25.29 -35.242,25.29 -3.515,-4.16 -24.283,-7.35 -31.658,-2.89 -27.157,23.12 -40.401,56.74 -46.189,88.01 0,0 -42.913,-2.99 -21.004,-53.64"
       style="fill:#e62552;fill-opacity:1;fill-rule:nonzero;stroke:none;stroke-width:0.1"
       id="path334" /><path
       d="m 862.341,610.25 c 11.075,37.06 6.49,298.26 104.271,370.39 l 168.028,-13.68 c 38.89,-62.94 24.62,-226.71 11.53,-361.49 -79.12,-28.24 -142.02,-39.57 -283.829,4.78"
       style="fill:#3f964f;fill-opacity:1;fill-rule:nonzero;stroke:none;stroke-width:0.1"
       id="path336" /><path
       d="m 1430.75,1003.77 50.4,-0.39 -45.34,-22 c -6.12,-2.97 -9.84,-9.32 -9.44,-16.11 l 4.4,-75.01 -28.25,69.69 c -2.54,6.27 -8.6,10.4 -15.36,10.49 l -49.28,0.61 44.24,21.71 c 6.07,2.98 9.76,9.32 9.37,16.07 l -4.41,75.07 28.23,-69.64 c 2.55,-6.29 8.65,-10.43 15.44,-10.49"
       style="fill:#facb32;fill-opacity:1;fill-rule:nonzero;stroke:none;stroke-width:0.1"
       id="path338" /><g
       id="g340"
       transform="scale(0.127333)"><path
         d="m 15966.9,14194.3 333.1,-175.9 -376.6,9.9 c -50.7,1.3 -97.3,-28.1 -118,-74.5 l -228.5,-512.9 51.9,559.6 c 4.8,50.3 -21.2,98.6 -65.8,122.4 l -324.9,173.4 368.1,-7.9 c 50.6,-1.1 96.9,28.2 117.4,74.4 l 228.8,513.4 -52,-559.2 c -4.6,-50.6 21.5,-99 66.5,-122.7"
         style="fill:#facb32;fill-opacity:1;fill-rule:nonzero;stroke:none"
         id="path342" /></g><g
       id="g344"
       transform="scale(0.116475)"><path
         d="m 10690.1,15870.9 271.4,0.7 -242.9,-121 c -32.8,-16.3 -52.5,-50.8 -50,-87.3 l 27.9,-403.7 -156,373.7 c -14.1,33.6 -46.9,55.6 -83.4,55.6 l -265.3,0.6 237,119.4 c 32.6,16.4 52,50.7 49.5,87.1 l -27.9,404 156,-373.5 c 14,-33.7 47.1,-55.7 83.7,-55.6"
         style="fill:#facb32;fill-opacity:1;fill-rule:nonzero;stroke:none"
         id="path346" /></g><g
       id="g348"
       transform="scale(0.104084)"><path
         d="m 16009,7323.03 291,-181.88 -341.5,33.92 c -46,4.61 -90.3,-19.02 -112.1,-59.76 l -241.8,-450.98 84.5,505.07 c 7.5,45.44 -12.8,90.98 -51.8,115.58 l -283.6,179.18 333.9,-31.7 c 45.9,-4.33 89.8,19.21 111.7,59.85 l 241.9,451.18 -84.4,-504.6 c -7.6,-45.63 13,-91.36 52.2,-115.86"
         style="fill:#facb32;fill-opacity:1;fill-rule:nonzero;stroke:none"
         id="path350" /></g><g
       id="g352"
       transform="scale(0.166774)"><path
         d="m 16132.9,9639.71 167.1,-89.67 -189.5,6.27 c -25.5,0.85 -49.1,-13.77 -59.6,-37.05 l -116.8,-257.37 28.1,281.46 c 2.5,25.32 -10.4,49.69 -32.8,61.83 l -162.9,88.42 185.3,-5.29 c 25.4,-0.72 48.8,13.88 59.4,37.06 l 116.8,257.56 -28,-281.25 c -2.6,-25.42 10.4,-49.88 32.9,-61.97"
         style="fill:#facb32;fill-opacity:1;fill-rule:nonzero;stroke:none"
         id="path354" /></g><path
       d="m 429.444,859.21 31.541,2.21 -27.289,-15.97 c -3.678,-2.15 -5.698,-6.31 -5.119,-10.53 l 6.411,-46.7 -21.065,42.21 c -1.896,3.79 -5.884,6.08 -10.119,5.81 l -30.847,-2.02 26.608,15.74 c 3.654,2.16 5.655,6.3 5.078,10.5 l -6.416,46.74 21.05,-42.18 c 1.904,-3.81 5.915,-6.11 10.167,-5.81"
       style="fill:#facb32;fill-opacity:1;fill-rule:nonzero;stroke:none;stroke-width:0.1"
       id="path356" /><g
       id="g358"
       transform="scale(0.166242)"><path
         d="m 16300,5094.31 c 0,-118.98 -96.5,-215.47 -215.5,-215.47 -119,0 -215.4,96.49 -215.4,215.47 0,118.98 96.4,215.41 215.4,215.41 119,0 215.5,-96.43 215.5,-215.41"
         style="fill:#ffffff;fill-opacity:1;fill-rule:nonzero;stroke:none"
         id="path360" /></g><path
       d="m 1416.32,624.63 c -10.91,-10.91 -28.61,-10.91 -39.53,0 -10.91,10.92 -10.91,28.61 0,39.53 10.92,10.91 28.62,10.91 39.53,0 10.92,-10.92 10.92,-28.61 0,-39.53"
       style="fill:#ffffff;fill-opacity:1;fill-rule:nonzero;stroke:none;stroke-width:0.1"
       id="path362" /><g
       id="g364"
       transform="scale(0.169172)"><path
         d="m 16137.4,5626.94 c -89.7,0 -162.5,-72.76 -162.5,-162.55 0,-89.79 72.8,-162.56 162.5,-162.56 89.8,0 162.6,72.77 162.6,162.56 0,89.79 -72.8,162.55 -162.6,162.55 z m 0,-48.65 c 62.9,0 114,-51.13 114,-113.9 0,-62.84 -51.1,-113.91 -114,-113.91 -62.7,0 -113.9,51.07 -113.9,113.91 0,62.77 51.2,113.9 113.9,113.9 v 0"
         style="fill:#ffffff;fill-opacity:1;fill-rule:nonzero;stroke:none"
         id="path366" /></g><g
       id="g368"
       transform="scale(0.103646)"><path
         d="m 9867.94,16300 c -208.59,0 -377.66,-169.1 -377.66,-377.7 0,-208.6 169.07,-377.7 377.66,-377.7 208.56,0 377.76,169.1 377.76,377.7 0,208.6 -169.2,377.7 -377.76,377.7 z m 0,-113 c 145.96,0 264.76,-118.8 264.76,-264.7 0,-145.9 -118.8,-264.7 -264.76,-264.7 -145.88,0 -264.64,118.8 -264.64,264.7 0,145.9 118.76,264.7 264.64,264.7 v 0"
         style="fill:#ffffff;fill-opacity:1;fill-rule:nonzero;stroke:none"
         id="path370" /></g><path
       d="m 429.154,1206.18 c -19.411,0 -35.147,-15.73 -35.147,-35.14 0,-19.42 15.736,-35.15 35.147,-35.15 19.411,0 35.148,15.73 35.148,35.15 0,19.41 -15.737,35.14 -35.148,35.14 z m 0,-10.51 c 13.581,0 24.63,-11.05 24.63,-24.63 0,-13.58 -11.049,-24.63 -24.63,-24.63 -13.581,0 -24.63,11.05 -24.63,24.63 0,13.58 11.049,24.63 24.63,24.63 v 0"
       style="fill:#ffffff;fill-opacity:1;fill-rule:nonzero;stroke:none;stroke-width:0.1"
       id="path372" /><g
       id="g374"
       transform="scale(0.117958)"><path
         d="m 12733.2,16151.5 -2106.9,-1948.8 c -104.3,-96.5 -163.5,-232.1 -163.5,-374.1 v -1762.3 l 5110,66.8 v 1695.5 c 0,142 -59.3,277.6 -163.6,374.1 l -2107,1948.8 c -160.5,148.5 -408.3,148.5 -569,0"
         style="fill:#6f8ff2;fill-opacity:1;fill-rule:nonzero;stroke:none"
         id="path376" /></g><g
       id="g378"
       transform="scale(0.111464)"><path
         d="M 16081.1,12994.4 H 12085.4 V 16300 h 3995.7 v -3305.6"
         style="fill:#cdd8fa;fill-opacity:1;fill-rule:nonzero;stroke:none"
         id="path380" /></g><g
       id="g382"
       transform="scale(0.108875)"><path
         d="M 15340.7,13179.2 H 12377.9 V 16300 h 2962.8 v -3120.8"
         style="fill:#bbcbfa;fill-opacity:1;fill-rule:nonzero;stroke:none"
         id="path384" /></g><g
       id="g386"
       transform="scale(0.108155)"><path
         d="M 15336.5,13098.6 H 11664.6 V 16300 h 3671.9 v -3201.4"
         style="fill:#ffffff;fill-opacity:1;fill-rule:nonzero;stroke:none"
         id="path388" /></g><g
       id="g390"
       transform="scale(0.105)"><path
         d="M 15111.6,15972.8 H 12741 c -79.5,0 -144,64.4 -144,144 v 39.2 c 0,79.5 64.5,144 144,144 h 2370.6 c 79.5,0 144,-64.5 144,-144 v -39.2 c 0,-79.6 -64.5,-144 -144,-144"
         style="fill:#cdd8fa;fill-opacity:1;fill-rule:nonzero;stroke:none"
         id="path392" /></g><g
       id="g394"
       transform="scale(0.101198)"><path
         d="m 15663.2,15900.7 h -2378.4 c -34.6,0 -68.2,11.8 -95.6,33.1 -68.7,53.5 -118.9,117 -118.9,192.1 v 8.6 c 0,91.4 74.1,165.5 165.5,165.5 h 2427.4 c 91.4,0 165.6,-74.1 165.6,-165.5 v -8.6 c 0,-91.3 -74.2,-165.4 -165.6,-225.2"
         style="fill:#cdd8fa;fill-opacity:1;fill-rule:nonzero;stroke:none"
         id="path396" /></g><path
       d="m 1586.72,1549.44 h -248.91 c -8.35,0 -15.12,6.77 -15.12,15.12 v 4.12 c 0,8.35 6.77,15.12 15.12,15.12 h 248.91 c 8.35,0 15.12,-6.77 15.12,-15.12 v -4.12 c 0,-8.35 -6.77,-15.12 -15.12,-15.12"
       style="fill:#cdd8fa;fill-opacity:1;fill-rule:nonzero;stroke:none;stroke-width:0.1"
       id="path398" /><path
       d="M 1583.63,1478.02 H 1340.9 c -10.05,0 -18.21,8.16 -18.21,18.22 v 4.95 c 0,10.06 8.16,18.22 18.21,18.22 h 242.73 c 10.05,0 18.21,-8.16 18.21,-18.22 v -4.95 c 0,-10.06 -8.16,-18.22 -18.21,-18.22"
       style="fill:#cdd8fa;fill-opacity:1;fill-rule:nonzero;stroke:none;stroke-width:0.1"
       id="path400" /><path
       d="m 1402.85,1524.98 c -1,1.1 -24.44,27.62 -31.22,76.9 l 5.95,0.82 c 6.52,-47.47 29.5,-73.45 29.73,-73.71 l -4.46,-4.01"
       style="fill:#3f964f;fill-opacity:1;fill-rule:nonzero;stroke:none;stroke-width:0.1"
       id="path402" /><g
       id="g404"
       transform="scale(0.1062)"><path
         d="m 12512.2,14720 -18.2,39.1 c -182,392.6 -265.2,571.8 -751.9,793.9 -155.7,71.1 -259.1,173.7 -307.3,305 -79.9,217.2 19.1,432.9 23.3,442 l 28,-13.1 c -1,-2.1 -97.8,-213.6 -22.2,-418.5 45.3,-123.1 143.3,-219.8 291,-287.2 239.8,-109.4 389.8,-211.8 501.6,-342.3 107.1,-125.1 173.5,-268.4 265.5,-466.8 l 18.1,-39.1 -27.9,-13"
         style="fill:#3f964f;fill-opacity:1;fill-rule:nonzero;stroke:none"
         id="path406" /></g><g
       id="g408"
       transform="scale(0.112696)"><path
         d="m 16300,11015.2 h -5348.7 v 3449.2 l 2674.3,-1503.5 2674.4,1503.5 v -3449.2"
         style="fill:#8ea5ed;fill-opacity:1;fill-rule:nonzero;stroke:none"
         id="path410" /></g><g
       id="g412"
       transform="scale(0.108043)"><path
         d="m 14958.6,15526.7 -686.5,-60 -66,754.1 905.6,79.2 52.7,-562.7 -205.8,-210.6"
         style="fill:#e62552;fill-opacity:1;fill-rule:nonzero;stroke:none"
         id="path414" /></g><g
       id="g416"
       transform="scale(0.104542)"><path
         d="m 15459.6,16046.7 212.6,217.7 -119.4,35.6 -93.2,-253.3"
         style="fill:#ad183e;fill-opacity:1;fill-rule:nonzero;stroke:none"
         id="path418" /></g><g
       id="g420"
       transform="scale(0.106345)"><path
         d="m 14811.1,16265.5 c 1.7,-32.5 10.7,-63 19.6,-94.2 3.3,-11.5 18.8,-15.8 28.9,-11.7 12.1,5 15,17.5 11.7,28.9 -7.9,27.5 -15.1,54.4 -16.7,83.2 -1.5,28.3 -45,21.9 -43.5,-6.2 v 0"
         style="fill:#f78da6;fill-opacity:1;fill-rule:nonzero;stroke:none"
         id="path422" /></g><g
       id="g424"
       transform="scale(0.106603)"><path
         d="m 14894.4,16255.9 c 7.7,-25.2 15,-50.6 21.3,-76.2 6.9,-27.2 50.4,-21.3 43.6,6.1 -7.3,29.3 -15.6,58.4 -24.5,87.2 -8.4,27 -48.8,9.6 -40.4,-17.1 v 0"
         style="fill:#f78da6;fill-opacity:1;fill-rule:nonzero;stroke:none"
         id="path426" /></g><g
       id="g428"
       transform="scale(0.106006)"><path
         d="m 14781,16126.1 c 62.7,-96.6 142.2,-144.7 255.2,-97.1 116.8,49.1 166.3,116.8 148.3,242.8 -4.1,28.2 -47.7,22 -43.7,-6.1 7.9,-55.2 13.2,-97.4 -31.7,-143.5 -23,-23.7 -59.8,-40.1 -90.2,-52.6 -94.6,-38.8 -152.5,5.7 -203.2,83.9 -15.4,23.8 -49.9,-3.7 -34.7,-27.4 v 0"
         style="fill:#f78da6;fill-opacity:1;fill-rule:nonzero;stroke:none"
         id="path430" /></g><g
       id="g432"
       transform="scale(0.107688)"><path
         d="m 14781.3,15711.2 c -124.5,-27 -244.4,24.3 -287.5,149.3 -51,147.8 81,255 200.7,309.7 6.3,-2.7 18.2,6.5 25.3,11.4 126,85.2 286.2,-106.8 306.4,-218.8 23.4,-130.8 -134.7,-227.7 -244.9,-251.6 z m 269.7,312.7 c -53.2,121 -204.1,276.1 -344.5,193.4 -4.7,2 -17.9,-2 -23.9,-4.7 -146.4,-65.3 -292.7,-195.5 -228.8,-369 58.3,-158.3 222.1,-217.7 376.6,-165.1 149.9,51 294.9,176.8 220.6,345.4"
         style="fill:#f78da6;fill-opacity:1;fill-rule:nonzero;stroke:none"
         id="path434" /></g><g
       id="g436"
       transform="scale(0.109337)"><path
         d="m 14671.2,16282 -18.6,-157.9 38.2,-0.3 17,153.7 c 2,10.6 -5.3,18.6 -16,20.5 -10.6,2 -18.6,-5.3 -20.6,-16"
         style="fill:#2c2858;fill-opacity:1;fill-rule:nonzero;stroke:none"
         id="path438" /></g><g
       id="g440"
       transform="scale(0.110482)"><path
         d="m 14309.4,15957.2 c 9,76.4 19.2,161.1 28.3,234.9 4.2,28.6 21.9,53.6 48.1,63.2 12.2,4 27.5,6.4 44,1.1 47.9,-14.1 43.6,-42.7 41.9,-48.7 l -0.1,-1.5 -48.7,-441.9 c -0.1,-1.5 -0.2,-4.5 -1.8,-6 -4.9,-8.9 -16.3,-28.1 -41.9,-25.5 -9.1,0.4 -15,3.6 -17.8,8.3 -5.9,6.3 -3.9,16.8 -3.8,19.9 l 44.3,373.9 c 2,10.5 -5.2,18.4 -15.7,20.3 -10.6,2 -18.4,-5.3 -20.4,-15.8 l -44.3,-372.4 c -0.2,-6 -4.3,-30.1 10.1,-48.9 7.2,-7.9 20.4,-20.5 44.5,-23.1 49.7,-6.6 77.1,33.2 84,54.1 l 0.1,1.5 50.4,446.4 c 1.8,6 4.2,27.1 -7,48.8 -9.8,20.1 -30.5,34.6 -60.3,43.4 -40.5,10.8 -80.8,-8.7 -107.4,-30.3 -18.8,-15.9 -30.6,-44.2 -33.1,-68.4 -6.2,-53.8 -17.2,-145.5 -27.4,-233.3 h 34"
         style="fill:#2c2858;fill-opacity:1;fill-rule:nonzero;stroke:none"
         id="path442" /></g><g
       id="g444"
       transform="scale(0.108674)"><path
         d="m 14437,13487 c 17.4,54.1 40.8,107 72.2,155.5 31.5,48.4 71.3,91.6 117,127 45.5,35.4 96.4,63.3 149.3,83.7 52.8,20.8 107.3,35.4 162,46.4 109.5,21.9 219.7,30.4 328.9,37.9 l 163.7,10.7 c 27.2,1.9 54.3,3.9 81.5,6.1 l 40.7,3.6 c 13.3,1.4 26.3,3.2 39.4,4.8 105,15.5 206.3,54.6 296.7,111.3 90.5,56.6 170.1,131 233.5,217.2 63.3,86.1 110.6,184.7 131.7,289.3 10.5,52.2 14.3,105.7 10,158.6 -4.5,52.9 -17.1,105.1 -38.1,153.8 -3.3,7.4 0.1,16.1 7.6,19.3 7.5,3.2 16,-0.2 19.3,-7.5 22.9,-51.4 37,-106.8 42.3,-162.8 5.3,-56 1.9,-112.7 -8.5,-167.8 -21.1,-110.3 -69.5,-214 -134.3,-304.6 -65.2,-90.8 -147.4,-169.4 -241.6,-229.9 -94,-60.5 -200.4,-103.2 -311.8,-120.9 -13.9,-1.9 -28,-4 -41.8,-5.6 l -41.1,-4.1 c -27.3,-2.5 -54.7,-4.9 -82,-7.1 l -163.6,-12.6 c -108.6,-8.7 -217,-18.4 -321.9,-40.7 -52.4,-11.2 -103.7,-25.7 -152.5,-45.4 -48.9,-19.6 -94.5,-45.5 -134.9,-77.6 -40.4,-32.1 -75.2,-70.7 -102.9,-114.3 -27.6,-43.8 -48.4,-91.9 -63.8,-142.1 l -0.1,-0.1 c -4.8,-15.7 -21.6,-24.6 -37.3,-19.7 -15.7,4.9 -24.6,21.6 -19.7,37.3 0,0 0.1,0.3 0.1,0.3"
         style="fill:#3f964f;fill-opacity:1;fill-rule:nonzero;stroke:none"
         id="path446" /></g><g
       id="g448"
       transform="scale(0.108726)"><path
         d="m 16265.6,15169.5 c 34.4,-122.4 -34.5,-277.9 -34.5,-277.9 0,0 -162.1,90.6 -196.5,212.9 -34.4,122.3 -10.6,236 53.2,254 63.8,17.9 143.4,-66.7 177.8,-189"
         style="fill:#3f964f;fill-opacity:1;fill-rule:nonzero;stroke:none"
         id="path450" /></g><g
       id="g452"
       transform="scale(0.108561)"><path
         d="m 16144.6,14864.8 c 106,-70.3 155.4,-233.5 155.4,-233.5 0,0 -182.2,-37.1 -288.2,33.2 -106,70.4 -162.3,172.3 -125.6,227.6 36.7,55.3 152.4,43.1 258.4,-27.3"
         style="fill:#3f964f;fill-opacity:1;fill-rule:nonzero;stroke:none"
         id="path454" /></g><g
       id="g456"
       transform="scale(0.107709)"><path
         d="m 16186.5,14679.4 c 93,-88.3 113.5,-258.8 113.5,-258.8 0,0 -187.4,-5.2 -280.4,83.2 -93,88.3 -131.1,199.2 -84.9,247.7 46,48.5 158.7,16.2 251.8,-72.1"
         style="fill:#3f964f;fill-opacity:1;fill-rule:nonzero;stroke:none"
         id="path458" /></g><g
       id="g460"
       transform="scale(0.106141)"><path
         d="m 16232.4,14633.6 c 67.6,-96.2 63.7,-247.2 63.7,-247.2 0,0 -158.9,36.7 -226.4,133 -67.5,96.2 -85.8,199.8 -40.9,231.3 45,31.6 136.2,-20.9 203.6,-117.1"
         style="fill:#3f964f;fill-opacity:1;fill-rule:nonzero;stroke:none"
         id="path462" /></g><g
       id="g464"
       transform="scale(0.104198)"><path
         d="m 16283.7,14802.9 c 16.3,-133 -68.5,-282.7 -68.5,-282.7 0,0 -140.2,122.1 -156.5,255.1 -16.3,133 20.9,246.9 83,254.6 62.1,7.6 125.7,-94.1 142,-227"
         style="fill:#3f964f;fill-opacity:1;fill-rule:nonzero;stroke:none"
         id="path466" /></g><g
       id="g468"
       transform="scale(0.102234)"><path
         d="m 16269.1,15036.6 c -31,-129 -173,-235.7 -173,-235.7 0,0 -101.6,165.2 -70.7,294.2 31,129 110.7,220.5 178,204.3 67.2,-16.1 96.6,-133.8 65.7,-262.8"
         style="fill:#3f964f;fill-opacity:1;fill-rule:nonzero;stroke:none"
         id="path470" /></g><g
       id="g472"
       transform="scale(0.100277)"><path
         d="m 16262,15257.6 c -38,-129.9 -187.9,-231.4 -187.9,-231.4 0,0 -95.2,173.2 -57.2,303.1 37.9,129.8 123.5,218.9 191.3,199.2 67.7,-19.8 91.8,-141.1 53.8,-270.9"
         style="fill:#3f964f;fill-opacity:1;fill-rule:nonzero;stroke:none"
         id="path474" /></g><path
       d="m 1591.94,1520 c 1.79,-14.49 -8.72,-30.97 -8.72,-30.97 0,0 -16.85,13.09 -18.64,27.58 -1.8,14.49 2.87,26.99 10.43,27.92 7.55,0.94 15.13,-10.05 16.93,-24.53"
       style="fill:#3f964f;fill-opacity:1;fill-rule:nonzero;stroke:none;stroke-width:0.1"
       id="path476" /><g
       id="g478"
       transform="scale(0.110885)"><path
         d="m 16195.2,14459.3 c -80.2,-95.3 -244.3,-125.3 -244.3,-125.3 0,0 -16.1,181.4 64.1,276.8 80.3,95.3 185.5,138.7 235.3,96.9 49.7,-41.8 25.1,-153 -55.1,-248.4"
         style="fill:#3f964f;fill-opacity:1;fill-rule:nonzero;stroke:none"
         id="path480" /></g><g
       id="g482"
       transform="scale(0.111277)"><path
         d="m 16101,13990.4 c -118.5,-37 -272.3,25.9 -272.3,25.9 0,0 84,160.9 202.4,197.9 118.6,37 230.3,16.9 249.6,-44.9 19.3,-61.8 -61.1,-141.9 -179.7,-178.9"
         style="fill:#3f964f;fill-opacity:1;fill-rule:nonzero;stroke:none"
         id="path484" /></g><g
       id="g486"
       transform="scale(0.109878)"><path
         d="m 16047.3,13827.2 c -124.4,18.9 -236.5,144.5 -236.5,144.5 0,0 147.9,109.2 272.2,90.3 124.3,-19 217,-86.9 207.2,-151.7 -9.9,-64.8 -118.7,-102.1 -242.9,-83.1"
         style="fill:#3f964f;fill-opacity:1;fill-rule:nonzero;stroke:none"
         id="path488" /></g><g
       id="g490"
       transform="scale(0.107851)"><path
         d="m 15988.3,13839.6 c -117.1,68 -180,238.1 -180,238.1 0,0 191.2,51.1 308.4,-16.9 117.1,-68 183.3,-172.6 147.8,-233.7 -35.4,-61.1 -159.1,-55.5 -276.2,12.5"
         style="fill:#3f964f;fill-opacity:1;fill-rule:nonzero;stroke:none"
         id="path492" /></g><g
       id="g494"
       transform="scale(0.105355)"><path
         d="m 15977.9,14083.5 c -101.1,94.8 -124.6,278.9 -124.6,278.9 0,0 202.6,6.9 303.7,-88 101.1,-94.8 143,-214.4 93.5,-267.2 -49.4,-52.7 -171.5,-18.6 -272.6,76.3"
         style="fill:#3f964f;fill-opacity:1;fill-rule:nonzero;stroke:none"
         id="path496" /></g><g
       id="g498"
       transform="scale(0.102833)"><path
         d="m 15970,14397.6 c -103.6,97.1 -127.5,285.8 -127.5,285.8 0,0 207.5,7 311,-90.2 103.6,-97.1 146.5,-219.7 95.8,-273.7 -50.6,-54 -175.7,-19.1 -279.3,78.1"
         style="fill:#3f964f;fill-opacity:1;fill-rule:nonzero;stroke:none"
         id="path500" /></g><g
       id="g502"
       transform="scale(0.112696)"><path
         d="M 13327.8,13213.4 10951.3,11015.2 H 16300 l -2376.6,2198.2 c -168,155.4 -427.4,155.4 -595.6,0"
         style="fill:#6f8ff2;fill-opacity:1;fill-rule:nonzero;stroke:none"
         id="path504" /></g><g
       id="g506"
       transform="scale(0.110079)"><path
         d="m 15486.7,13812.5 c 114,8.6 230,14.2 345.4,0 57.6,-7.2 115,-19.2 169.9,-39.5 55,-20.2 107.4,-49 152.1,-87.6 44.8,-38.4 81.4,-86.1 107.7,-138.4 6.5,-13.1 12.6,-26.3 18,-40.1 5.5,-13.8 10,-28.1 13.2,-42.8 6.3,-29.3 7,-60.6 -0.5,-90.3 -7.2,-29.7 -22.6,-56.9 -42.2,-79.6 -19.7,-22.7 -43.4,-41.1 -68.7,-56.1 -50.8,-29.9 -107.4,-47.6 -164.9,-55.6 -28.9,-3.9 -58.2,-5.3 -87.5,-2.6 -14.7,1.5 -29.4,3.9 -43.7,8.3 -14.4,4.4 -28.7,10.7 -40.8,21.8 -5.9,5.6 -11.1,12.6 -14,20.7 -3,8 -3.6,16.8 -2.5,24.9 1,8.2 3.7,15.7 6.9,22.7 3.4,7.1 7.8,13.8 13.1,19.7 10.6,11.9 24.8,20 39.5,24.4 14.7,4.5 29.8,5.9 44.7,5.6 29.8,-0.9 58.5,-8.2 85.8,-18.4 27.3,-10.2 53.3,-23.6 77.8,-39.3 48.6,-31.5 91.9,-72.6 121.8,-123.3 14.8,-25.3 25.8,-53.2 30.8,-82.5 4.9,-29.2 3.3,-59.6 -4.5,-88.2 -7.6,-28.7 -21.3,-55.3 -38.3,-79.1 -17.2,-23.7 -37.2,-45 -59.6,-63.6 -22.5,-18.6 -47.7,-33.9 -74.8,-44.8 -27,-11 -55.9,-17 -84.7,-18.9 -29,-1.8 -58,0.4 -86.1,6.5 -28,6.2 -55.5,15.1 -80.9,28.3 26.2,-11.3 53.9,-18.9 81.8,-23.4 28,-4.3 56.5,-5.8 84.5,-2.8 56,5.5 109.5,28.6 151.6,65.3 21.1,18.2 39.8,39.5 55.9,62.1 16,22.7 28.6,47.8 35.5,74.4 7.1,26.6 8.2,54.5 3.5,81.5 -4.5,27.1 -14.6,53.2 -28.6,77.1 -28,48 -69.5,87.9 -116.3,118.5 -23.5,15.3 -48.5,28.3 -74.7,38.2 -26,9.7 -53.5,16.5 -80.8,17.1 -13.6,0.3 -27.3,-1.1 -39.9,-5 -12.5,-3.9 -24,-10.6 -32.4,-20.1 -4.3,-4.7 -7.7,-10.2 -10.5,-15.9 -2.6,-5.9 -4.6,-12.1 -5.3,-18.1 -1.7,-12.1 2.8,-23.3 12,-31.5 9,-8.3 21.5,-13.8 34.4,-17.6 13,-3.8 26.6,-5.9 40.3,-7 27.6,-2.2 55.7,-0.6 83.3,3.5 55.2,8.5 109.5,26.3 156.8,55.1 23.5,14.4 45.2,31.8 62.6,52.5 17.5,20.7 30.5,44.8 36.4,70.7 6.2,25.9 5.3,53.2 -0.7,79.5 -3,13.2 -7.3,26.1 -12.4,38.8 -5.3,12.7 -11.3,25.4 -17.8,37.7 -25.6,49.3 -60.4,93.4 -102.9,128.7 -42.4,35.5 -91.9,62 -144.3,80.4 -52.4,18.5 -107.7,29.4 -163.5,35.2 -111.8,11.6 -225.1,4 -338.3,-6.7 l -3.2,39.6"
         style="fill:#3f964f;fill-opacity:1;fill-rule:nonzero;stroke:none"
         id="path508" /></g><g
       id="g510"
       transform="scale(0.10924)"><path
         d="m 11339.2,16017.8 c -48,-117 -197.4,-196.7 -197.4,-196.7 0,0 -71.5,170.4 -23.5,287.4 48,117 136.4,191.5 197.5,166.4 60.9,-25 71.5,-140.1 23.4,-257.1"
         style="fill:#3f964f;fill-opacity:1;fill-rule:nonzero;stroke:none"
         id="path512" /></g><g
       id="g514"
       transform="scale(0.10609)"><path
         d="m 11718.5,15996.8 c -85.1,-98.5 -257.1,-127.5 -257.1,-127.5 0,0 -14.2,189.8 71,288.3 85.2,98.5 195.8,142.4 247.2,98 51.4,-44.4 24,-160.3 -61.1,-258.8"
         style="fill:#3f964f;fill-opacity:1;fill-rule:nonzero;stroke:none"
         id="path516" /></g><g
       id="g518"
       transform="scale(0.10426)"><path
         d="m 12096.6,16040.2 c -41.3,-110.1 -177.8,-188.5 -177.8,-188.5 0,0 -71.4,156.2 -30.3,266.4 41.3,110.1 121.2,181.9 178.6,160.4 57.5,-21.5 70.6,-128.1 29.5,-238.3"
         style="fill:#3f964f;fill-opacity:1;fill-rule:nonzero;stroke:none"
         id="path520" /></g><g
       id="g522"
       transform="scale(0.103588)"><path
         d="m 12458,16038.6 c -41.5,-110.9 -178.9,-189.8 -178.9,-189.8 0,0 -71.9,157.2 -30.4,268.1 41.4,110.8 121.9,183.1 179.7,161.5 57.8,-21.6 71,-129 29.6,-239.8"
         style="fill:#3f964f;fill-opacity:1;fill-rule:nonzero;stroke:none"
         id="path524" /></g><g
       id="g526"
       transform="scale(0.102252)"><path
         d="m 12853.7,16053.3 c -23,-117.7 -147.1,-219.4 -147.1,-219.4 0,0 -98.1,145.2 -75.1,262.8 23.1,117.7 91.4,203.3 152.7,191.3 61.5,-12 92.5,-117.1 69.5,-234.7"
         style="fill:#3f964f;fill-opacity:1;fill-rule:nonzero;stroke:none"
         id="path528" /></g><g
       id="g530"
       transform="scale(0.106484)"><path
         d="m 11266,16193.3 c 100.3,-82.4 133.4,-253 133.4,-253 0,0 -188.8,-18.7 -289,63.6 -100.3,82.4 -146.6,191.5 -103.7,243.8 43,52.3 159.1,27.9 259.3,-54.4"
         style="fill:#3f964f;fill-opacity:1;fill-rule:nonzero;stroke:none"
         id="path532" /></g><g
       id="g534"
       transform="scale(0.103754)"><path
         d="m 11552.1,16277 c 131.2,-22.9 246.8,-158.6 246.8,-158.6 0,0 -159.1,-112 -290.2,-89.1 -131.1,23 -227.7,97.1 -215.8,165.5 12,68.4 128,105.2 259.2,82.2"
         style="fill:#3f964f;fill-opacity:1;fill-rule:nonzero;stroke:none"
         id="path536" /></g><g
       id="g538"
       transform="scale(0.101869)"><path
         d="m 11943.5,16261.8 c 130.2,38.2 297,-33.4 297,-33.4 0,0 -94.7,-174.1 -224.8,-212.4 -130.1,-38.2 -251.7,-14.2 -271.7,53.7 -19.9,67.8 69.4,153.8 199.5,192.1"
         style="fill:#3f964f;fill-opacity:1;fill-rule:nonzero;stroke:none"
         id="path540" /></g><g
       id="g542"
       transform="scale(0.10079)"><path
         d="m 12354.4,16239.7 c 123,60.3 301.5,17.5 301.5,17.5 0,0 -48.2,-199.2 -171.3,-259.6 -123.1,-60.3 -264.7,-47.6 -296.1,16.6 -31.5,64.2 42.8,165.2 165.9,225.5"
         style="fill:#3f964f;fill-opacity:1;fill-rule:nonzero;stroke:none"
         id="path544" /></g><path
       d="m 1277.31,1620.05 c 11.35,2.92 25.55,-3.76 25.55,-3.76 0,0 -8.69,-14.76 -20.04,-17.68 -11.35,-2.92 -21.78,-0.48 -23.31,5.44 -1.52,5.92 6.45,13.08 17.8,16"
       style="fill:#3f964f;fill-opacity:1;fill-rule:nonzero;stroke:none;stroke-width:0.1"
       id="path546" /><g
       id="g548"
       transform="scale(0.10084)"><path
         d="m 13686.4,16103.6 c 23.1,-113.9 -50.2,-251.2 -50.2,-251.2 0,0 -141.8,93.6 -164.9,207.5 -23.2,113.8 6.2,216 65.6,228 59.4,12.1 126.3,-70.4 149.5,-184.3"
         style="fill:#3f964f;fill-opacity:1;fill-rule:nonzero;stroke:none"
         id="path550" /></g><path
       d="m 1363.02,1595.54 c 10.6,-4.98 17.3,-19.17 17.3,-19.17 0,0 -16.11,-5.85 -26.71,-0.86 -10.61,4.98 -17.1,13.5 -14.5,19.03 2.59,5.54 13.3,5.98 23.91,1"
       style="fill:#3f964f;fill-opacity:1;fill-rule:nonzero;stroke:none;stroke-width:0.1"
       id="path552" /><path
       d="m 1377.98,1559.59 c 10.7,-4.78 17.66,-18.85 17.66,-18.85 0,0 -15.99,-6.14 -26.69,-1.36 -10.7,4.78 -17.35,13.18 -14.86,18.76 2.5,5.58 13.19,6.23 23.89,1.45"
       style="fill:#3f964f;fill-opacity:1;fill-rule:nonzero;stroke:none;stroke-width:0.1"
       id="path554" /><path
       d="m 1403.04,1588.63 c -7.35,-9.12 -22.72,-12.26 -22.72,-12.26 0,0 -1.86,17.02 5.49,26.15 7.35,9.12 17.17,13.41 21.93,9.58 4.76,-3.84 2.66,-14.34 -4.7,-23.47"
       style="fill:#3f964f;fill-opacity:1;fill-rule:nonzero;stroke:none;stroke-width:0.1"
       id="path556" /><path
       d="m 1415.05,1555.51 c -6.48,-9.77 -21.5,-14.32 -21.5,-14.32 0,0 -3.43,16.78 3.05,26.55 6.47,9.77 15.85,14.95 20.95,11.57 5.09,-3.37 3.97,-14.03 -2.5,-23.8"
       style="fill:#3f964f;fill-opacity:1;fill-rule:nonzero;stroke:none;stroke-width:0.1"
       id="path558" /><path
       d="m 1357.05,1556.06 c -2.22,3.9 -5.54,7.26 -9.37,9.95 -3.83,2.72 -8.16,4.81 -12.66,6.4 -4.52,1.57 -9.24,2.61 -14.01,3.16 -4.77,0.51 -9.6,0.53 -14.3,-0.16 -2.36,-0.34 -4.67,-0.85 -6.9,-1.58 -2.23,-0.72 -4.37,-1.67 -6.35,-2.84 -1.96,-1.2 -3.77,-2.61 -5.26,-4.3 -0.39,-0.4 -0.72,-0.86 -1.07,-1.29 -0.32,-0.46 -0.67,-0.91 -0.95,-1.39 -0.61,-0.94 -1.09,-1.96 -1.53,-3 -0.84,-2.09 -1.34,-4.31 -1.53,-6.65 -0.2,-2.32 -0.12,-4.67 0.24,-6.99 0.7,-4.65 2.48,-9.15 4.76,-13.43 2.27,-4.3 5.04,-8.39 7.78,-12.6 1.37,-2.11 2.73,-4.25 3.93,-6.55 1.18,-2.3 2.28,-4.78 2.57,-7.63 0.14,-1.41 0.02,-2.91 -0.43,-4.31 -0.45,-1.41 -1.21,-2.68 -2.11,-3.75 -1.83,-2.15 -4.09,-3.62 -6.38,-4.83 -1.15,-0.61 -2.32,-1.15 -3.5,-1.64 -0.59,-0.25 -1.18,-0.49 -1.78,-0.72 -0.57,-0.22 -1.12,-0.42 -1.67,-0.67 -2.19,-0.94 -4.25,-2.18 -6.14,-3.65 -3.78,-2.94 -6.8,-6.85 -8.94,-11.2 -2.14,-4.37 -3.51,-9.13 -4.18,-14 -0.66,-4.87 -0.61,-9.86 0.13,-14.75 0.75,-4.87 2.23,-9.72 4.92,-13.94 -1.49,2.01 -2.68,4.24 -3.61,6.57 -0.94,2.33 -1.65,4.75 -2.16,7.22 -0.51,2.46 -0.82,4.98 -0.94,7.5 -0.13,2.52 -0.08,5.05 0.16,7.57 0.48,5.04 1.67,10.06 3.82,14.71 2.13,4.65 5.24,8.94 9.25,12.26 2.01,1.64 4.22,3.06 6.58,4.16 0.58,0.28 1.2,0.53 1.78,0.78 0.57,0.22 1.13,0.46 1.69,0.7 1.11,0.5 2.2,1.02 3.24,1.6 2.08,1.15 4.05,2.52 5.43,4.22 0.68,0.85 1.2,1.78 1.49,2.76 0.29,0.98 0.36,2.02 0.24,3.09 -0.25,2.14 -1.21,4.32 -2.35,6.41 -1.15,2.11 -2.5,4.16 -3.88,6.21 -2.78,4.1 -5.71,8.23 -8.19,12.71 -2.48,4.47 -4.54,9.34 -5.44,14.56 -0.45,2.61 -0.6,5.29 -0.42,7.94 0.17,2.63 0.69,5.35 1.67,7.91 0.5,1.27 1.08,2.52 1.81,3.69 0.33,0.6 0.74,1.15 1.13,1.72 0.42,0.54 0.82,1.1 1.28,1.61 1.79,2.08 3.93,3.81 6.21,5.24 2.29,1.41 4.72,2.54 7.23,3.39 2.5,0.86 5.06,1.47 7.64,1.89 5.16,0.84 10.39,0.9 15.55,0.43 5.15,-0.49 10.25,-1.59 15.17,-3.24 4.91,-1.68 9.69,-3.92 14.04,-6.93 4.34,-3 8.28,-6.84 11.06,-11.61 l -4.75,-2.71"
       style="fill:#3f964f;fill-opacity:1;fill-rule:nonzero;stroke:none;stroke-width:0.1"
       id="path560" /><path
       d="m 1328.87,1574.41 c -6.03,6.09 -14.36,10.04 -22.99,10.76 -4.3,0.35 -8.69,-0.09 -12.67,-1.59 -1.98,-0.74 -3.86,-1.74 -5.53,-3 -0.83,-0.65 -1.6,-1.31 -2.35,-2.09 -0.76,-0.78 -1.49,-1.62 -2.22,-2.48 -2.89,-3.45 -5.63,-7.2 -8.57,-10.82 -2.93,-3.62 -6.03,-7.18 -9.58,-10.35 -3.54,-3.15 -7.57,-5.95 -12.18,-7.59 -2.29,-0.83 -4.72,-1.32 -7.16,-1.47 -2.44,-0.13 -4.89,0.1 -7.24,0.64 -2.36,0.54 -4.63,1.38 -6.78,2.41 -2.15,1.02 -4.22,2.26 -6.12,3.77 -0.93,0.76 -1.83,1.59 -2.65,2.49 -0.82,0.9 -1.56,1.89 -2.2,2.93 -1.29,2.09 -2.16,4.46 -2.47,6.9 -0.33,2.44 -0.12,4.93 0.5,7.27 0.62,2.35 1.65,4.58 2.98,6.58 2.67,4 6.53,7.27 11.12,8.89 2.28,0.8 4.75,1.16 7.18,0.96 2.43,-0.2 4.81,-1 6.88,-2.19 2.09,-1.17 4.02,-2.72 5.45,-4.7 1.42,-1.97 2.27,-4.4 2.26,-6.84 0.02,-2.44 -0.73,-4.82 -1.98,-6.85 -1.26,-2.03 -3.01,-3.73 -5.06,-4.92 -2.04,-1.2 -4.41,-1.81 -6.76,-1.73 -2.35,0.07 -4.61,0.86 -6.56,2.08 2.01,-1.11 4.29,-1.77 6.57,-1.72 2.27,0.04 4.5,0.75 6.4,1.96 1.9,1.2 3.48,2.88 4.57,4.82 1.09,1.94 1.69,4.15 1.62,6.34 -0.07,2.19 -0.87,4.3 -2.2,6.03 -1.32,1.73 -3.11,3.09 -5.08,4.12 -1.96,1.05 -4.06,1.72 -6.24,1.85 -2.17,0.15 -4.37,-0.21 -6.42,-0.98 -4.1,-1.54 -7.65,-4.54 -10.04,-8.23 -2.4,-3.68 -3.67,-8.16 -3.06,-12.45 0.3,-2.13 1.07,-4.19 2.24,-6.01 0.58,-0.91 1.25,-1.76 1.98,-2.56 0.75,-0.79 1.57,-1.52 2.43,-2.2 1.74,-1.34 3.66,-2.47 5.7,-3.38 1.01,-0.47 2.05,-0.86 3.1,-1.22 1.05,-0.34 2.11,-0.65 3.19,-0.86 2.15,-0.44 4.34,-0.59 6.51,-0.42 2.16,0.18 4.29,0.66 6.32,1.45 4.08,1.56 7.73,4.2 10.99,7.25 3.27,3.06 6.18,6.55 8.97,10.16 2.8,3.61 5.42,7.39 8.36,11.09 0.74,0.92 1.51,1.83 2.34,2.73 0.82,0.9 1.78,1.78 2.75,2.57 1.97,1.57 4.18,2.81 6.49,3.75 4.64,1.88 9.65,2.48 14.54,2.23 9.79,-0.53 19.31,-4.66 26.49,-11.47 l -3.82,-3.91"
       style="fill:#3f964f;fill-opacity:1;fill-rule:nonzero;stroke:none;stroke-width:0.1"
       id="path562" /><path
       d="m 1322.06,1395.83 c -8.99,0 -16.3,-7.31 -16.3,-16.3 0,-8.99 7.31,-16.3 16.3,-16.3 8.99,0 16.3,7.31 16.3,16.3 0,8.99 -7.31,16.3 -16.3,16.3 z m 0,-37.27 c -11.57,0 -20.97,9.41 -20.97,20.97 0,11.56 9.4,20.97 20.97,20.97 11.56,0 20.97,-9.41 20.97,-20.97 0,-11.56 -9.41,-20.97 -20.97,-20.97"
       style="fill:#edf1ff;fill-opacity:1;fill-rule:nonzero;stroke:none;stroke-width:0.1"
       id="path564" /><g
       id="g566"
       transform="scale(0.100167)"><path
         d="m 16054.7,13157.4 c -105.2,0 -190.7,-85.5 -190.7,-190.6 0,-105.2 85.5,-190.7 190.7,-190.7 105.1,0 190.7,85.5 190.7,190.7 0,105.1 -85.6,190.6 -190.7,190.6 z m 0,-435.9 c -135.3,0 -245.3,110 -245.3,245.3 0,135.2 110,245.2 245.3,245.2 135.2,0 245.3,-110 245.3,-245.2 0,-135.3 -110.1,-245.3 -245.3,-245.3"
         style="fill:#8ea5ed;fill-opacity:1;fill-rule:nonzero;stroke:none"
         id="path568" /></g><path
       d="m 1305.3,1430.43 c -3.98,0 -7.22,-3.24 -7.22,-7.22 0,-3.98 3.24,-7.22 7.22,-7.22 3.98,0 7.21,3.24 7.21,7.22 0,3.98 -3.23,7.22 -7.21,7.22 z m 0,-18.64 c -6.3,0 -11.42,5.12 -11.42,11.42 0,6.3 5.12,11.42 11.42,11.42 6.29,0 11.42,-5.12 11.42,-11.42 0,-6.3 -5.13,-11.42 -11.42,-11.42"
       style="fill:#edf1ff;fill-opacity:1;fill-rule:nonzero;stroke:none;stroke-width:0.1"
       id="path570" /><g
       id="g572"
       transform="scale(0.10149)"><path
         d="m 16168.2,13321.9 c -46,0 -83.4,-37.4 -83.4,-83.3 0,-45.9 37.4,-83.3 83.4,-83.3 45.9,0 83.2,37.4 83.2,83.3 0,45.9 -37.3,83.3 -83.2,83.3 z m 0,-215.1 c -72.8,0 -131.9,59.1 -131.9,131.8 0,72.7 59.1,131.8 131.9,131.8 72.7,0 131.8,-59.1 131.8,-131.8 0,-72.7 -59.1,-131.8 -131.8,-131.8"
         style="fill:#8ea5ed;fill-opacity:1;fill-rule:nonzero;stroke:none"
         id="path574" /></g><g
       id="g576"
       transform="scale(0.10191)"><path
         d="m 16300,12860.9 c 0,-50.5 -40.9,-91.4 -91.4,-91.4 -50.5,0 -91.4,40.9 -91.4,91.4 0,50.5 40.9,91.5 91.4,91.5 50.5,0 91.4,-41 91.4,-91.5"
         style="fill:#8ea5ed;fill-opacity:1;fill-rule:nonzero;stroke:none"
         id="path578" /></g><g
       id="g580"
       transform="scale(0.110755)"><path
         d="m 16186.6,12008 c -46.1,0 -83.7,-37.6 -83.7,-83.7 0,-46.2 37.6,-83.8 83.7,-83.8 46.2,0 83.8,37.6 83.8,83.8 0,46.1 -37.6,83.7 -83.8,83.7 z m 0,-197.1 c -62.5,0 -113.3,50.8 -113.3,113.4 0,62.5 50.8,113.3 113.3,113.3 62.6,0 113.4,-50.8 113.4,-113.3 0,-62.6 -50.8,-113.4 -113.4,-113.4"
         style="fill:#edf1ff;fill-opacity:1;fill-rule:nonzero;stroke:none"
         id="path582" /></g><g
       id="g584"
       transform="scale(0.115855)"><path
         d="m 13855.4,16255.1 c -58.2,0 -105.6,-47.4 -105.6,-105.6 0,-58.2 47.4,-105.5 105.6,-105.5 58.1,0 105.5,47.3 105.5,105.5 0,58.2 -47.4,105.6 -105.5,105.6 z m 0,-256 c -83,0 -150.5,67.5 -150.5,150.4 0,83 67.5,150.5 150.5,150.5 82.9,0 150.4,-67.5 150.4,-150.5 0,-82.9 -67.5,-150.4 -150.4,-150.4"
         style="fill:#ffffff;fill-opacity:1;fill-rule:nonzero;stroke:none"
         id="path586" /></g><path
       d="m 1355.34,1205.46 c -10.69,-0.65 -23.16,2.85 -30.25,-4.95 l -18.6,21.41 c 18.13,29.06 60.78,38.92 65.15,39.3 11.38,1 16.66,2.17 17.54,0.65 0.89,-1.52 3.68,-11.64 -12.82,-13.63 -20.71,-2.48 -6.96,-19.04 35.05,-3.28 10.52,3.95 30.31,-1.17 23.15,-8.86 -7.89,-8.47 -30.56,-27.67 -79.22,-30.64"
       style="fill:#f37a50;fill-opacity:1;fill-rule:nonzero;stroke:none;stroke-width:0.1"
       id="path588" /><path
       d="m 1139.19,1142.12 c -9.99,-14.24 12.82,-61.71 18.88,-62.21 73.51,18.77 169.36,123.1 169.36,123.1 l -5.5,27.81 c 0,0 -92.51,-55.16 -182.74,-88.7"
       style="fill:#f37a50;fill-opacity:1;fill-rule:nonzero;stroke:none;stroke-width:0.1"
       id="path590" /><path
       d="m 941.573,1140.23 c 44.182,-25.02 200.827,-66.75 217.687,-59.49 l -16.38,62.91 c 0,0 -156.891,67.5 -183.475,77.44 -45.992,17.32 -90.042,-40.15 -17.832,-80.86"
       style="fill:#f37a50;fill-opacity:1;fill-rule:nonzero;stroke:none;stroke-width:0.1"
       id="path592" /></g></svg>
