<?xml version="1.0" encoding="iso-8859-1"?>
<!-- Generator: Adobe Illustrator 24.1.2, SVG Export Plug-In . SVG Version: 6.00 Build 0)  -->
<svg version="1.1" xmlns="http://www.w3.org/2000/svg" xmlns:xlink="http://www.w3.org/1999/xlink" x="0px" y="0px"
	 viewBox="0 0 1600 1000" style="enable-background:new 0 0 1600 1000;" xml:space="preserve">
<g id="Breaking_Bond">
</g>
<g id="Breaking_Bond_White">
	<rect id="Upper_1_" x="32.105" y="17.888" style="fill:#FFFFFF;stroke:#575756;stroke-miterlimit:10;" width="480" height="480"/>
	
		<rect id="Lower_1_" x="512.105" y="497.888" style="fill:#FFFFFF;stroke:#575756;stroke-miterlimit:10;" width="480" height="480"/>
	<g>
		<path style="fill:#FFFFFF;" d="M1098.82,698.366c52.082,0,78.125,27.5,78.125,82.5s-26.043,82.5-78.125,82.5
			c-52.188,0-78.281-27.5-78.281-82.5S1046.633,698.366,1098.82,698.366z M1098.664,712.272c-12.605,0-18.906,22.866-18.906,68.594
			c0,45.73,6.301,68.594,18.906,68.594c12.707,0,19.063-22.863,19.063-68.594C1117.727,735.139,1111.371,712.272,1098.664,712.272z"
			/>
		<path style="fill:#FFFFFF;" d="M1349.914,859.929h-57.031V744.304c0-11.77-3.281-17.656-9.844-17.656
			c-6.668,0-12.449,4.663-17.344,13.984c-4.897,9.324-7.344,20.34-7.344,33.047v86.25h-57.031V702.116
			c19.582,0,38.594-1.301,57.031-3.906v29.531c14.165-19.582,31.457-29.375,51.875-29.375c26.457,0,39.688,13.438,39.688,40.313
			V859.929z"/>
		<path style="fill:#FFFFFF;" d="M1523.195,643.366v216.563h-57.031v-13.594c-9.585,11.46-22.397,17.188-38.438,17.188
			c-35.418,0-53.125-27.188-53.125-81.563c0-55.938,18.75-83.906,56.25-83.906c14.79,0,26.563,6.512,35.313,19.531v-70.938
			C1483.352,646.647,1502.36,645.554,1523.195,643.366z M1449.289,721.022c-9.585,0-14.375,8.804-14.375,26.406l-1.094,33.438
			l0.625,30.469c0,19.48,5.415,29.219,16.25,29.219c10.52,0,15.781-9.582,15.781-28.75l0.781-38.438l-1.25-26.25
			C1464.34,729.722,1458.767,721.022,1449.289,721.022z"/>
	</g>
	<g>
		<path style="fill:#1D1D1B;" d="M123.812,369.643V156.362h94.844c48.853,0,73.281,17.449,73.281,52.344
			c0,24.792-14.741,40.679-44.219,47.656c35.52,7.085,53.281,25.938,53.281,56.563c0,37.813-23.906,56.719-71.719,56.719H123.812z
			 M185.687,249.174h19.063c17.603,0,26.406-13.02,26.406-39.063c0-24.063-9.324-36.094-27.969-36.094h-17.5V249.174z
			 M185.687,351.987h17.656c23.125,0,34.688-13.228,34.688-39.688c0-30.313-11.929-45.469-35.781-45.469h-16.563V351.987z"/>
		<path style="fill:#1D1D1B;" d="M435.53,269.331h-39.063c1.353-6.145,2.551-10.676,3.594-13.594
			c1.457-4.27,2.188-8.125,2.188-11.563c0-6.665-2.397-10-7.188-10c-3.647,0-7.137,4.402-10.469,13.203
			c-3.335,8.804-5,18.101-5,27.891v94.375h-57.031v-157.5l11.094,0.156c13.125,0,28.438-1.406,45.938-4.219v25.938
			c9.27-17.29,20.625-25.938,34.063-25.938c18.332,0,27.5,10.105,27.5,30.313c0,5.313-0.887,11.406-2.656,18.281
			C437.874,259.487,436.883,263.706,435.53,269.331z"/>
	</g>
	<g>
		<path style="fill:#FFFFFF;" d="M655.695,311.986l22.969,6.719c-2.397,36.355-23.854,54.531-64.375,54.531
			c-52.5,0-78.75-26.196-78.75-78.594c0-25.415,6.978-46.25,20.938-62.5c13.958-16.25,31.821-24.375,53.594-24.375
			c45.521,0,68.281,29.375,68.281,88.125h-83.125c0,41.25,10.469,61.875,31.406,61.875c19.583,0,29.375-11.665,29.375-35
			C656.008,319.643,655.903,316.049,655.695,311.986z M595.07,278.236h34.063c0-36.665-5.522-55-16.563-55
			c-10,0-15.625,13.594-16.875,40.781L595.07,278.236z"/>
		<path style="fill:#FFFFFF;" d="M861.633,364.018c-13.96,5.418-27.554,8.125-40.781,8.125c-19.585,0-31.667-6.094-36.25-18.281
			c-9.479,12.71-23.125,19.063-40.938,19.063c-33.229,0-49.844-15.415-49.844-46.25c0-23.438,15.208-39.895,45.625-49.375
			c27.915-8.75,41.875-19.27,41.875-31.563c0-16.145-8.022-24.219-24.063-24.219c-18.542,0-27.813,7.813-27.813,23.438
			c0,4.897,1.458,11.355,4.375,19.375l-28.281-5.469c-0.729-4.895-1.094-9.478-1.094-13.75c0-25,22.813-37.5,68.438-37.5
			c43.332,0,65,11.668,65,35v95.625c0,9.793,3.176,14.688,9.531,14.688c1.978,0,4.895-1.094,8.75-3.281L861.633,364.018z
			 M780.852,274.955c-3.542,4.063-7.656,7.449-12.344,10.156c-11.772,6.875-17.656,18.438-17.656,34.688
			c0,20.835,4.063,31.25,12.188,31.25c11.875,0,17.813-10.313,17.813-30.938V274.955z"/>
		<path style="fill:#FFFFFF;" d="M1012.258,212.143l-32.5,40.781l46.875,116.719h-60.156l-27.344-69.375l-10.469,12.813v56.563
			h-57.031V156.361c16.77,0,35.781-1.145,57.031-3.438v133.438l60.781-74.219H1012.258z"/>
		<path style="fill:#FFFFFF;" d="M1041.164,369.643V212.299c17.813,0,36.821-1.406,57.031-4.219v161.563H1041.164z M1070.07,151.049
			c17.707,0,26.563,6.875,26.563,20.625s-8.855,20.625-26.563,20.625c-17.71,0-26.563-6.875-26.563-20.625
			S1052.36,151.049,1070.07,151.049z"/>
		<path style="fill:#FFFFFF;" d="M1279.289,369.643h-57.031V254.018c0-11.77-3.281-17.656-9.844-17.656
			c-6.668,0-12.449,4.663-17.344,13.984c-4.897,9.324-7.344,20.34-7.344,33.047v86.25h-57.031V211.83
			c19.582,0,38.594-1.301,57.031-3.906v29.531c14.165-19.582,31.457-29.375,51.875-29.375c26.457,0,39.688,13.438,39.688,40.313
			V369.643z"/>
		<path style="fill:#FFFFFF;" d="M1413.977,213.705c26.563,11.355,39.844,27.866,39.844,49.531c0,14.272-6.668,26.46-20,36.563
			c-13.335,10.105-29.429,15.156-48.281,15.156c-7.293,0-17.137-0.938-29.531-2.813c-7.188,4.168-10.781,8.335-10.781,12.5
			c0,5.73,4.426,8.594,13.281,8.594c2.29,0,6.926-0.207,13.906-0.625c17.603-1.145,30.415-1.719,38.438-1.719
			c37.915,0,56.875,14.375,56.875,43.125c0,34.79-31.406,52.188-94.219,52.188c-46.772,0-70.156-9.844-70.156-29.531
			c0-11.354,9.478-19.063,28.438-23.125c-20.21-5.313-30.313-14.113-30.313-26.406c0-15.313,12.031-28.801,36.094-40.469
			c-21.147-8.54-31.719-23.071-31.719-43.594c0-15.625,6.406-28.723,19.219-39.297c12.813-10.571,28.696-15.859,47.656-15.859
			c6.457,0,14.946,0.679,25.469,2.031c-0.522-3.645-0.781-6.509-0.781-8.594c0-20.625,10.781-30.938,32.344-30.938
			c17.188,0,25.781,7.241,25.781,21.719c0,11.043-5.156,16.563-15.469,16.563c-3.438,0-7.5-1.145-12.188-3.438
			c-2.918-1.457-5.105-2.238-6.563-2.344C1416.423,202.611,1413.977,206.205,1413.977,213.705z M1377.258,379.955
			c-26.563,0-39.844,5.156-39.844,15.469c0,10.208,12.863,15.313,38.594,15.313c29.895,0,44.844-5.729,44.844-17.188
			C1420.852,384.486,1406.32,379.955,1377.258,379.955z M1378.82,223.393c-10.625,0-15.938,13.23-15.938,39.688
			c0,24.272,5.52,36.406,16.563,36.406c10.103,0,15.156-10.781,15.156-32.344C1394.602,237.978,1389.34,223.393,1378.82,223.393z"/>
	</g>
	<g>
		<path style="fill:#1D1D1B;" d="M665.455,858.929V645.647h94.843c48.854,0,73.281,17.449,73.281,52.344
			c0,24.793-14.74,40.679-44.219,47.656c35.52,7.085,53.281,25.938,53.281,56.563c0,37.813-23.906,56.719-71.719,56.719H665.455z
			 M727.33,738.46h19.063c17.603,0,26.405-13.02,26.405-39.063c0-24.063-9.324-36.094-27.968-36.094h-17.5V738.46z M727.33,841.272
			h17.656c23.124,0,34.687-13.228,34.687-39.688c0-30.313-11.928-45.469-35.78-45.469H727.33V841.272z"/>
	</g>
	<g>
		<path style="fill:#1D1D1B;" d="M49.957,50.698v-5.353h19.709v4.184c-1.627,1.6-3.281,3.896-4.963,6.891s-2.964,6.176-3.846,9.546
			S59.541,72.348,59.555,75h-5.557c0.096-4.156,0.953-8.395,2.573-12.715s3.784-8.183,6.491-11.587H49.957z"/>
		<path style="fill:#1D1D1B;" d="M73.439,68.048l5.578-0.615c0.137,1.135,0.492,1.976,1.066,2.522s1.332,0.82,2.275,0.82
			c1.189,0,2.201-0.547,3.035-1.641s1.367-3.363,1.6-6.809c-1.449,1.682-3.26,2.522-5.434,2.522c-2.365,0-4.406-0.913-6.122-2.738
			s-2.573-4.201-2.573-7.126c0-3.049,0.905-5.506,2.717-7.373s4.119-2.799,6.922-2.799c3.049,0,5.551,1.179,7.506,3.538
			s2.932,6.238,2.932,11.638c0,5.496-1.018,9.461-3.055,11.895s-4.689,3.65-7.957,3.65c-2.352,0-4.252-0.625-5.701-1.876
			S73.85,70.536,73.439,68.048z M86.482,55.456c0-1.859-0.428-3.302-1.282-4.327s-1.843-1.538-2.964-1.538
			c-1.066,0-1.951,0.42-2.655,1.261s-1.056,2.218-1.056,4.132c0,1.941,0.383,3.367,1.148,4.276s1.723,1.364,2.871,1.364
			c1.107,0,2.04-0.438,2.799-1.313S86.482,57.151,86.482,55.456z"/>
		<path style="fill:#1D1D1B;" d="M97.904,75v-5.763h5.764V75H97.904z"/>
		<path style="fill:#1D1D1B;" d="M108.467,68.048l5.578-0.615c0.137,1.135,0.492,1.976,1.066,2.522s1.332,0.82,2.275,0.82
			c1.189,0,2.201-0.547,3.035-1.641s1.367-3.363,1.6-6.809c-1.449,1.682-3.26,2.522-5.434,2.522c-2.365,0-4.406-0.913-6.122-2.738
			s-2.573-4.201-2.573-7.126c0-3.049,0.905-5.506,2.717-7.373s4.119-2.799,6.922-2.799c3.049,0,5.551,1.179,7.506,3.538
			s2.932,6.238,2.932,11.638c0,5.496-1.018,9.461-3.055,11.895s-4.689,3.65-7.957,3.65c-2.352,0-4.252-0.625-5.701-1.876
			S108.877,70.536,108.467,68.048z M121.51,55.456c0-1.859-0.428-3.302-1.282-4.327s-1.843-1.538-2.964-1.538
			c-1.066,0-1.951,0.42-2.655,1.261s-1.056,2.218-1.056,4.132c0,1.941,0.383,3.367,1.148,4.276s1.723,1.364,2.871,1.364
			c1.107,0,2.04-0.438,2.799-1.313S121.51,57.151,121.51,55.456z"/>
		<path style="fill:#1D1D1B;" d="M141.443,44.813c2.912,0,5.188,1.039,6.828,3.117c1.955,2.461,2.934,6.542,2.934,12.243
			c0,5.688-0.984,9.775-2.953,12.264c-1.627,2.051-3.896,3.076-6.809,3.076c-2.926,0-5.285-1.125-7.076-3.374
			s-2.686-6.258-2.686-12.028c0-5.66,0.984-9.734,2.953-12.223C136.262,45.838,138.531,44.813,141.443,44.813z M141.443,49.591
			c-0.697,0-1.32,0.222-1.867,0.667s-0.971,1.241-1.271,2.389c-0.396,1.49-0.594,3.999-0.594,7.526s0.178,5.951,0.533,7.27
			s0.803,2.198,1.343,2.635s1.159,0.656,1.856,0.656s1.318-0.222,1.865-0.667s0.971-1.241,1.271-2.389
			c0.396-1.477,0.596-3.979,0.596-7.506s-0.178-5.951-0.533-7.27s-0.804-2.201-1.344-2.646S142.141,49.591,141.443,49.591z"/>
		<path style="fill:#1D1D1B;" d="M166.359,75v-6.05h-12.305v-5.045l13.043-19.093h4.84v19.072h3.732v5.065h-3.732V75H166.359z
			 M166.359,63.885V53.61l-6.91,10.274H166.359z"/>
	</g>
	<g>
		<path style="fill:#1D1D1B;" d="M63.42,477.576v5.353H43.219c0.219-2.023,0.875-3.941,1.969-5.752s3.254-4.214,6.48-7.208
			c2.598-2.42,4.191-4.061,4.779-4.922c0.793-1.189,1.189-2.365,1.189-3.527c0-1.285-0.346-2.273-1.036-2.963
			s-1.644-1.036-2.86-1.036c-1.203,0-2.16,0.362-2.871,1.087s-1.121,1.928-1.23,3.609l-5.742-0.574
			c0.342-3.172,1.414-5.448,3.219-6.829s4.061-2.071,6.768-2.071c2.967,0,5.299,0.8,6.994,2.399s2.543,3.589,2.543,5.968
			c0,1.354-0.243,2.642-0.729,3.866s-1.254,2.505-2.307,3.845c-0.697,0.889-1.955,2.167-3.773,3.835s-2.971,2.775-3.456,3.322
			s-0.878,1.08-1.179,1.6H63.42z"/>
		<path style="fill:#1D1D1B;" d="M67.471,474.91v-5.763h11.32v5.763H67.471z"/>
		<path style="fill:#1D1D1B;" d="M85.404,466.707c-1.49-0.629-2.573-1.494-3.25-2.594s-1.016-2.307-1.016-3.62
			c0-2.242,0.783-4.095,2.349-5.558s3.79-2.194,6.675-2.194c2.857,0,5.076,0.731,6.655,2.194s2.368,3.315,2.368,5.558
			c0,1.395-0.361,2.635-1.086,3.722s-1.744,1.917-3.057,2.492c1.668,0.67,2.937,1.647,3.805,2.933s1.303,2.769,1.303,4.45
			c0,2.775-0.886,5.031-2.656,6.768s-4.125,2.604-7.064,2.604c-2.734,0-5.012-0.718-6.83-2.153c-2.146-1.695-3.219-4.02-3.219-6.973
			c0-1.627,0.402-3.121,1.209-4.481S83.668,467.445,85.404,466.707z M86.061,473.782c0,1.586,0.407,2.823,1.221,3.712
			s1.828,1.333,3.045,1.333c1.189,0,2.174-0.427,2.953-1.282s1.17-2.088,1.17-3.702c0-1.408-0.396-2.54-1.189-3.394
			s-1.799-1.282-3.016-1.282c-1.408,0-2.457,0.485-3.147,1.456S86.061,472.647,86.061,473.782z M86.594,460.903
			c0,1.148,0.325,2.044,0.975,2.687s1.514,0.964,2.594,0.964c1.094,0,1.969-0.325,2.625-0.974s0.984-1.548,0.984-2.697
			c0-1.08-0.324-1.945-0.974-2.594s-1.507-0.974-2.573-0.974c-1.107,0-1.99,0.328-2.646,0.984S86.594,459.823,86.594,460.903z"/>
		<path style="fill:#1D1D1B;" d="M103.975,474.91v-5.763h11.32v5.763H103.975z"/>
		<path style="fill:#1D1D1B;" d="M131.712,482.929h-5.763v-21.718c-2.105,1.969-4.587,3.425-7.444,4.368v-5.229
			c1.504-0.492,3.138-1.425,4.901-2.799s2.974-2.977,3.63-4.809h4.676V482.929z"/>
		<path style="fill:#1D1D1B;" d="M144.848,466.707c-1.49-0.629-2.574-1.494-3.25-2.594c-0.678-1.101-1.016-2.307-1.016-3.62
			c0-2.242,0.783-4.095,2.348-5.558c1.566-1.463,3.791-2.194,6.676-2.194c2.857,0,5.076,0.731,6.654,2.194
			c1.58,1.463,2.369,3.315,2.369,5.558c0,1.395-0.362,2.635-1.087,3.722s-1.743,1.917-3.056,2.492
			c1.668,0.67,2.936,1.647,3.805,2.933c0.867,1.285,1.302,2.769,1.302,4.45c0,2.775-0.886,5.031-2.655,6.768
			c-1.771,1.736-4.126,2.604-7.065,2.604c-2.734,0-5.011-0.718-6.829-2.153c-2.146-1.695-3.22-4.02-3.22-6.973
			c0-1.627,0.403-3.121,1.21-4.481S143.111,467.445,144.848,466.707z M145.504,473.782c0,1.586,0.406,2.823,1.221,3.712
			c0.813,0.889,1.828,1.333,3.045,1.333c1.189,0,2.174-0.427,2.953-1.282s1.169-2.088,1.169-3.702c0-1.408-0.396-2.54-1.189-3.394
			s-1.798-1.282-3.015-1.282c-1.408,0-2.457,0.485-3.148,1.456C145.85,471.595,145.504,472.647,145.504,473.782z M146.037,460.903
			c0,1.148,0.324,2.044,0.975,2.687c0.648,0.643,1.514,0.964,2.594,0.964c1.094,0,1.969-0.325,2.625-0.974s0.984-1.548,0.984-2.697
			c0-1.08-0.324-1.945-0.975-2.594c-0.648-0.649-1.507-0.974-2.573-0.974c-1.107,0-1.989,0.328-2.646,0.984
			S146.037,459.823,146.037,460.903z"/>
		<path style="fill:#1D1D1B;" d="M163.418,474.91v-5.763h11.32v5.763H163.418z"/>
		<path style="fill:#1D1D1B;" d="M176.41,458.627v-5.353h19.708v4.184c-1.627,1.6-3.281,3.896-4.963,6.891s-2.964,6.176-3.845,9.546
			c-0.883,3.37-1.316,6.381-1.303,9.034h-5.558c0.096-4.156,0.954-8.395,2.573-12.715c1.621-4.32,3.784-8.183,6.491-11.587H176.41z"
			/>
	</g>
	<g>
		<path style="fill:#1D1D1B;" d="M51.105,427.185l10.359-1.257c0.33,2.641,1.219,4.66,2.666,6.056
			c1.447,1.396,3.199,2.095,5.256,2.095c2.209,0,4.069-0.838,5.58-2.514c1.51-1.676,2.266-3.936,2.266-6.779
			c0-2.691-0.723-4.824-2.17-6.398c-1.447-1.574-3.213-2.361-5.295-2.361c-1.371,0-3.008,0.267-4.912,0.8l1.18-8.722
			c2.895,0.076,5.104-0.552,6.627-1.885s2.285-3.104,2.285-5.313c0-1.879-0.559-3.376-1.676-4.494
			c-1.117-1.117-2.603-1.676-4.455-1.676c-1.828,0-3.391,0.635-4.686,1.904c-1.295,1.27-2.082,3.123-2.361,5.561l-9.863-1.676
			c0.686-3.376,1.719-6.075,3.104-8.093c1.384-2.019,3.313-3.605,5.789-4.761c2.476-1.155,5.25-1.733,8.322-1.733
			c5.256,0,9.47,1.676,12.645,5.027c2.614,2.742,3.922,5.84,3.922,9.293c0,4.9-2.679,8.811-8.035,11.73
			c3.199,0.686,5.756,2.222,7.674,4.608c1.917,2.387,2.875,5.269,2.875,8.646c0,4.9-1.789,9.078-5.369,12.53
			c-3.58,3.453-8.037,5.18-13.369,5.18c-5.053,0-9.242-1.453-12.568-4.361C53.568,435.684,51.639,431.882,51.105,427.185z"/>
		<path style="fill:#1D1D1B;" d="M94.239,427.642l10.664-1.104c0.305,2.413,1.206,4.323,2.704,5.732s3.225,2.114,5.18,2.114
			c2.234,0,4.126-0.908,5.675-2.723c1.548-1.815,2.323-4.551,2.323-8.208c0-3.428-0.768-5.999-2.305-7.712
			c-1.536-1.714-3.535-2.571-5.998-2.571c-3.072,0-5.827,1.358-8.265,4.075l-8.684-1.257l5.484-29.06h28.298v10.017h-20.186
			l-1.676,9.483c2.387-1.193,4.824-1.79,7.313-1.79c4.748,0,8.772,1.727,12.073,5.18c3.3,3.453,4.951,7.935,4.951,13.444
			c0,4.596-1.333,8.697-3.999,12.302c-3.631,4.926-8.671,7.389-15.12,7.389c-5.155,0-9.356-1.384-12.606-4.151
			C96.816,436.034,94.873,432.313,94.239,427.642z"/>
	</g>
	<g>
		<path style="fill:#1D1D1B;" d="M450.746,70.981v-5.763h11.32v5.763H450.746z"/>
		<path style="fill:#1D1D1B;" d="M478.483,79h-5.763V57.282c-2.105,1.969-4.587,3.425-7.444,4.368v-5.229
			c1.504-0.492,3.138-1.425,4.901-2.799s2.974-2.977,3.63-4.809h4.676V79z"/>
	</g>
	<g>
		<path style="fill:#1D1D1B;" d="M447.935,157.173v-7.813h-7.875v-5.394h7.875v-7.813h5.25v7.813h7.896v5.394h-7.896v7.813H447.935z
			"/>
		<path style="fill:#1D1D1B;" d="M464.29,153.769l5.742-0.595c0.164,1.299,0.649,2.328,1.456,3.086s1.736,1.138,2.789,1.138
			c1.203,0,2.222-0.489,3.056-1.466s1.251-2.451,1.251-4.419c0-1.846-0.414-3.23-1.241-4.153s-1.903-1.384-3.229-1.384
			c-1.654,0-3.138,0.731-4.45,2.194l-4.676-0.677l2.953-15.647h15.237v5.394h-10.869l-0.902,5.106
			c1.285-0.643,2.598-0.964,3.938-0.964c2.557,0,4.724,0.93,6.501,2.789s2.666,4.272,2.666,7.239c0,2.475-0.718,4.683-2.153,6.624
			c-1.955,2.652-4.669,3.979-8.142,3.979c-2.775,0-5.038-0.745-6.788-2.235S464.632,156.284,464.29,153.769z"/>
	</g>
	<g>
		<path style="fill:#1D1D1B;" d="M447.935,115.887v-7.813h-7.875v-5.394h7.875v-7.813h5.25v7.813h7.896v5.394h-7.896v7.813H447.935z
			"/>
		<path style="fill:#1D1D1B;" d="M478.953,120.214h-5.763V98.496c-2.105,1.969-4.587,3.425-7.444,4.368v-5.229
			c1.504-0.492,3.138-1.425,4.901-2.799s2.974-2.977,3.63-4.809h4.676V120.214z"/>
	</g>
	<g>
		<path style="fill:#1D1D1B;" d="M549.631,554.36h-5.763v-21.718c-2.105,1.969-4.587,3.425-7.444,4.368v-5.229
			c1.504-0.492,3.138-1.425,4.901-2.799s2.974-2.978,3.63-4.81h4.676V554.36z"/>
		<path style="fill:#1D1D1B;" d="M567.985,524.173c2.912,0,5.188,1.039,6.829,3.117c1.955,2.461,2.933,6.542,2.933,12.243
			c0,5.688-0.984,9.775-2.953,12.264c-1.627,2.051-3.896,3.076-6.809,3.076c-2.926,0-5.284-1.124-7.075-3.373
			s-2.687-6.259-2.687-12.028c0-5.66,0.984-9.734,2.953-12.223C562.804,525.198,565.073,524.173,567.985,524.173z M567.985,528.951
			c-0.697,0-1.319,0.223-1.866,0.667s-0.971,1.24-1.271,2.389c-0.396,1.49-0.595,3.999-0.595,7.526s0.178,5.951,0.533,7.271
			s0.804,2.197,1.344,2.635s1.158,0.656,1.855,0.656s1.319-0.222,1.866-0.666s0.971-1.241,1.271-2.39
			c0.396-1.477,0.595-3.979,0.595-7.506s-0.178-5.95-0.533-7.27s-0.803-2.201-1.343-2.646S568.683,528.951,567.985,528.951z"/>
		<path style="fill:#1D1D1B;" d="M582.833,554.36v-5.763h5.763v5.763H582.833z"/>
		<path style="fill:#1D1D1B;" d="M598.214,538.139c-1.49-0.629-2.573-1.493-3.25-2.594s-1.016-2.308-1.016-3.62
			c0-2.242,0.783-4.095,2.349-5.558s3.79-2.194,6.675-2.194c2.857,0,5.076,0.731,6.655,2.194s2.368,3.315,2.368,5.558
			c0,1.395-0.362,2.636-1.087,3.723s-1.743,1.917-3.056,2.491c1.668,0.67,2.937,1.647,3.805,2.933s1.302,2.769,1.302,4.45
			c0,2.775-0.885,5.031-2.655,6.768s-4.126,2.604-7.065,2.604c-2.734,0-5.011-0.718-6.829-2.153c-2.146-1.695-3.22-4.02-3.22-6.973
			c0-1.627,0.403-3.12,1.21-4.48S596.478,538.877,598.214,538.139z M598.87,545.214c0,1.586,0.407,2.823,1.221,3.712
			s1.828,1.333,3.045,1.333c1.189,0,2.174-0.427,2.953-1.281s1.169-2.089,1.169-3.702c0-1.408-0.396-2.539-1.189-3.394
			s-1.798-1.282-3.015-1.282c-1.408,0-2.457,0.485-3.147,1.456S598.87,544.079,598.87,545.214z M599.403,532.335
			c0,1.148,0.325,2.044,0.975,2.687s1.514,0.964,2.594,0.964c1.094,0,1.969-0.324,2.625-0.974s0.984-1.549,0.984-2.697
			c0-1.08-0.324-1.944-0.974-2.594s-1.508-0.975-2.574-0.975c-1.107,0-1.989,0.328-2.646,0.984S599.403,531.255,599.403,532.335z"/>
		<path style="fill:#1D1D1B;" d="M631.375,554.36h-5.763v-21.718c-2.105,1.969-4.587,3.425-7.444,4.368v-5.229
			c1.504-0.492,3.138-1.425,4.901-2.799s2.974-2.978,3.63-4.81h4.676V554.36z"/>
		<path style="fill:#1D1D1B;" d="M652.416,554.36h-5.763v-21.718c-2.105,1.969-4.587,3.425-7.444,4.368v-5.229
			c1.504-0.492,3.138-1.425,4.901-2.799s2.974-2.978,3.63-4.81h4.676V554.36z"/>
	</g>
	<g>
		<path style="fill:#1D1D1B;" d="M577.348,956.937v5.353h-20.2c0.219-2.023,0.875-3.941,1.969-5.752
			c1.094-1.813,3.254-4.215,6.48-7.209c2.598-2.42,4.19-4.061,4.778-4.922c0.793-1.189,1.189-2.365,1.189-3.527
			c0-1.285-0.345-2.273-1.035-2.963c-0.69-0.691-1.645-1.036-2.861-1.036c-1.203,0-2.16,0.362-2.871,1.087s-1.121,1.928-1.23,3.609
			l-5.742-0.574c0.342-3.172,1.415-5.448,3.22-6.829s4.061-2.071,6.768-2.071c2.967,0,5.298,0.8,6.993,2.399
			s2.543,3.589,2.543,5.968c0,1.354-0.242,2.643-0.728,3.865c-0.485,1.225-1.255,2.506-2.308,3.846
			c-0.697,0.889-1.955,2.167-3.773,3.835s-2.97,2.775-3.455,3.322s-0.879,1.08-1.18,1.6H577.348z"/>
		<path style="fill:#1D1D1B;" d="M581.398,954.271v-5.763h11.32v5.763H581.398z"/>
		<path style="fill:#1D1D1B;" d="M594.186,954.312l5.578-0.677c0.178,1.422,0.656,2.509,1.436,3.261s1.723,1.128,2.83,1.128
			c1.189,0,2.191-0.451,3.005-1.354s1.22-2.119,1.22-3.65c0-1.449-0.39-2.598-1.169-3.445s-1.729-1.271-2.851-1.271
			c-0.738,0-1.62,0.144-2.646,0.431l0.636-4.696c1.559,0.041,2.748-0.297,3.568-1.016c0.82-0.717,1.23-1.671,1.23-2.86
			c0-1.012-0.301-1.818-0.902-2.42s-1.401-0.902-2.399-0.902c-0.984,0-1.825,0.342-2.522,1.025s-1.121,1.682-1.271,2.994
			l-5.312-0.902c0.369-1.818,0.927-3.271,1.672-4.358c0.745-1.086,1.784-1.941,3.117-2.563c1.333-0.623,2.826-0.934,4.48-0.934
			c2.83,0,5.1,0.902,6.809,2.707c1.408,1.477,2.112,3.145,2.112,5.004c0,2.639-1.442,4.744-4.327,6.316
			c1.723,0.369,3.101,1.196,4.133,2.481s1.548,2.837,1.548,4.655c0,2.639-0.964,4.888-2.892,6.747s-4.327,2.789-7.198,2.789
			c-2.721,0-4.977-0.782-6.768-2.349C595.512,958.889,594.473,956.841,594.186,954.312z"/>
	</g>
	<g>
		<path style="fill:#1D1D1B;" d="M536.567,907.002l10.664-1.104c0.305,2.413,1.206,4.323,2.704,5.732s3.225,2.113,5.18,2.113
			c2.234,0,4.126-0.907,5.675-2.723s2.323-4.552,2.323-8.208c0-3.428-0.768-5.998-2.304-7.712c-1.537-1.714-3.536-2.571-5.999-2.571
			c-3.072,0-5.827,1.358-8.265,4.075l-8.684-1.257l5.484-29.06h28.298v10.017h-20.186l-1.676,9.483
			c2.387-1.193,4.824-1.79,7.313-1.79c4.748,0,8.772,1.728,12.073,5.18c3.301,3.453,4.951,7.936,4.951,13.444
			c0,4.596-1.333,8.697-3.999,12.302c-3.631,4.927-8.671,7.389-15.12,7.389c-5.154,0-9.356-1.384-12.606-4.151
			C539.145,915.395,537.202,911.674,536.567,907.002z"/>
	</g>
	<g>
		<path style="fill:#1D1D1B;" d="M935.674,550.342v-5.763h11.32v5.763H935.674z"/>
		<path style="fill:#1D1D1B;" d="M948.461,550.383l5.578-0.677c0.178,1.422,0.656,2.509,1.436,3.261s1.723,1.128,2.83,1.128
			c1.189,0,2.191-0.451,3.005-1.354s1.22-2.119,1.22-3.65c0-1.449-0.389-2.598-1.168-3.445s-1.73-1.271-2.852-1.271
			c-0.738,0-1.619,0.144-2.645,0.431l0.635-4.696c1.559,0.041,2.748-0.297,3.568-1.015s1.23-1.672,1.23-2.861
			c0-1.012-0.301-1.818-0.902-2.42s-1.4-0.902-2.398-0.902c-0.984,0-1.826,0.342-2.523,1.025s-1.121,1.682-1.271,2.994l-5.311-0.902
			c0.369-1.818,0.926-3.271,1.671-4.357s1.784-1.941,3.117-2.563s2.827-0.934,4.481-0.934c2.83,0,5.1,0.902,6.809,2.707
			c1.408,1.477,2.111,3.145,2.111,5.004c0,2.639-1.441,4.744-4.326,6.316c1.723,0.369,3.1,1.196,4.132,2.481
			s1.548,2.837,1.548,4.655c0,2.639-0.963,4.888-2.891,6.747s-4.328,2.789-7.199,2.789c-2.721,0-4.977-0.782-6.768-2.348
			S948.748,552.912,948.461,550.383z"/>
	</g>
	<g>
		<path style="fill:#1D1D1B;" d="M932.863,595.247v-7.813h-7.875v-5.394h7.875v-7.813h5.25v7.813h7.895v5.394h-7.895v7.813H932.863z
			"/>
		<path style="fill:#1D1D1B;" d="M948.932,591.597l5.578-0.677c0.178,1.422,0.656,2.509,1.436,3.261s1.723,1.128,2.83,1.128
			c1.189,0,2.19-0.451,3.004-1.354s1.221-2.119,1.221-3.65c0-1.449-0.391-2.598-1.17-3.445s-1.729-1.271-2.85-1.271
			c-0.738,0-1.621,0.144-2.646,0.431l0.637-4.696c1.559,0.041,2.748-0.297,3.568-1.015s1.23-1.672,1.23-2.861
			c0-1.012-0.301-1.818-0.902-2.42s-1.402-0.902-2.4-0.902c-0.984,0-1.824,0.342-2.521,1.025s-1.121,1.682-1.271,2.994l-5.313-0.902
			c0.369-1.818,0.927-3.271,1.672-4.357s1.784-1.941,3.117-2.563s2.826-0.934,4.48-0.934c2.83,0,5.1,0.902,6.809,2.707
			c1.408,1.477,2.113,3.145,2.113,5.004c0,2.639-1.443,4.744-4.328,6.316c1.723,0.369,3.101,1.196,4.133,2.481
			s1.549,2.837,1.549,4.655c0,2.639-0.965,4.888-2.893,6.747s-4.326,2.789-7.197,2.789c-2.721,0-4.977-0.782-6.768-2.348
			S949.219,594.126,948.932,591.597z"/>
	</g>
</g>
</svg>
