<?xml version="1.0" encoding="UTF-8" standalone="no"?>
<svg
   xmlns:dc="http://purl.org/dc/elements/1.1/"
   xmlns:cc="http://creativecommons.org/ns#"
   xmlns:rdf="http://www.w3.org/1999/02/22-rdf-syntax-ns#"
   xmlns:svg="http://www.w3.org/2000/svg"
   xmlns="http://www.w3.org/2000/svg"
   xmlns:sodipodi="http://sodipodi.sourceforge.net/DTD/sodipodi-0.dtd"
   xmlns:inkscape="http://www.inkscape.org/namespaces/inkscape"
   version="1.1"
   id="Capa_1"
   x="0px"
   y="0px"
   viewBox="0 0 512 512"
   style="enable-background:new 0 0 512 512;"
   xml:space="preserve"
   sodipodi:docname="tap.svg"
   inkscape:version="1.0.1 (0767f8302a, 2020-10-17)"><metadata
   id="metadata1081"><rdf:RDF><cc:Work
       rdf:about=""><dc:format>image/svg+xml</dc:format><dc:type
         rdf:resource="http://purl.org/dc/dcmitype/StillImage" /></cc:Work></rdf:RDF></metadata><defs
   id="defs1079" /><sodipodi:namedview
   pagecolor="#ffffff"
   bordercolor="#666666"
   borderopacity="1"
   objecttolerance="10"
   gridtolerance="10"
   guidetolerance="10"
   inkscape:pageopacity="0"
   inkscape:pageshadow="2"
   inkscape:window-width="1858"
   inkscape:window-height="1016"
   id="namedview1077"
   showgrid="false"
   inkscape:zoom="1.6269531"
   inkscape:cx="256"
   inkscape:cy="266.62797"
   inkscape:window-x="62"
   inkscape:window-y="27"
   inkscape:window-maximized="1"
   inkscape:current-layer="Capa_1" />
<path
   style="fill:#fca537;fill-opacity:1"
   d="M389.133,237.705L389.133,237.705c-14.912,0-27,12.088-27,27V243.23c0-14.912-12.088-27-27-27l0,0  c-14.912,0-27,12.088-27,27c0-14.912-12.088-27-27-27l0,0c-14.912,0-27,12.088-27,27V141.252c0-14.912-12.088-27-27-27l0,0  c-14.912,0-27,12.088-27,27v84.545V358l-32.578-53.455c-8.009-13.141-25.042-17.489-38.37-9.794l0,0  c-12.854,7.421-17.804,23.503-11.35,36.868l46.063,95.379C186.046,472.858,232.483,502,283.411,502l0,0  c73.3,0,132.721-59.421,132.721-132.721V264.705C416.133,249.794,404.045,237.705,389.133,237.705z"
   id="path1026" />
<path
   d="M227.133,81.667c5.523,0,10-4.477,10-10V10c0-5.523-4.477-10-10-10s-10,4.477-10,10v61.667  C217.133,77.189,221.61,81.667,227.133,81.667z"
   id="path1028" />
<path
   d="M286.705,141.266c0,5.523,4.477,10,10,10h61.667c5.523,0,10-4.477,10-10s-4.477-10-10-10h-61.667  C291.182,131.266,286.705,135.743,286.705,141.266z"
   id="path1030" />
<path
   d="M167.533,141.239c0-5.523-4.477-10-10-10H95.867c-5.523,0-10,4.477-10,10s4.477,10,10,10h61.667  C163.056,151.239,167.533,146.762,167.533,141.239z"
   id="path1032" />
<path
   d="M163.52,91.776c1.953,1.953,4.512,2.929,7.071,2.929s5.119-0.976,7.071-2.929c3.905-3.905,3.905-10.237,0-14.143  l-29.115-29.115c-3.905-3.905-10.237-3.905-14.143,0c-3.905,3.905-3.905,10.237,0,14.143L163.52,91.776z"
   id="path1034" />
<path
   d="M283.667,94.724c2.559,0,5.119-0.976,7.071-2.929l29.115-29.115c3.905-3.905,3.905-10.237,0-14.143  c-3.905-3.905-10.237-3.905-14.143,0l-29.115,29.115c-3.905,3.905-3.905,10.237,0,14.143  C278.548,93.748,281.108,94.724,283.667,94.724z"
   id="path1036" />
<path
   d="M389.133,227.706c-6.751,0-13.079,1.826-18.534,4.997c-4.546-15.288-18.721-26.473-35.466-26.473  c-10.643,0-20.243,4.523-27,11.74c-6.756-7.217-16.358-11.74-27-11.74c-6.127,0-11.905,1.506-17,4.153v-69.131  c0-20.402-16.598-37-37-37s-37,16.598-37,37v52.727c0,5.523,4.477,10,10,10s10-4.477,10-10v-52.727c0-9.374,7.626-17,17-17  s17,7.626,17,17V308.66c0,5.523,4.477,10,10,10c5.523,0,10-4.477,10-10v-65.43c0-9.374,7.626-17,17-17s17,7.626,17,17v9.651v55.779  c0,5.523,4.477,10,10,10s10-4.477,10-10v-55.779v-9.651c0-9.374,7.626-17,17-17s17,7.626,17,17v21.475V282v26.661  c0,5.523,4.477,10,10,10s10-4.477,10-10V282v-17.295c0-9.374,7.626-17,17-17s17,7.626,17,17v104.574  c0,7.449-0.671,14.907-1.996,22.167c-0.991,5.434,2.61,10.641,8.043,11.632c0.607,0.11,1.21,0.164,1.806,0.164  c4.738,0,8.946-3.381,9.827-8.208c1.539-8.441,2.32-17.106,2.32-25.756V264.705C426.133,244.304,409.535,227.706,389.133,227.706z"
   id="path1038" />
<path
   d="M367.107,459.033C344.319,480.292,314.595,492,283.411,492c-46.785,0-90.162-27.222-110.508-69.352L126.84,327.27  c-4.155-8.602-0.928-19.082,7.345-23.859c8.554-4.937,19.691-2.094,24.831,6.338l32.579,53.455  c2.333,3.827,6.927,5.635,11.242,4.424s7.297-5.146,7.297-9.628v-98c0-5.523-4.477-10-10-10s-10,4.477-10,10v62.377l-14.04-23.036  c-10.926-17.928-33.728-23.748-51.909-13.25c-17.295,9.985-24.04,31.894-15.354,49.877l46.063,95.378  c11.686,24.197,29.893,44.537,52.653,58.82C230.307,504.45,256.541,512,283.412,512c36.266,0,70.834-13.617,97.338-38.343  c4.038-3.768,4.258-10.095,0.49-14.134C377.473,455.485,371.144,455.266,367.107,459.033z"
   id="path1040" />
<path
   d="M400.042,422.67c-2.63,0-5.21,1.07-7.07,2.93c-1.86,1.86-2.93,4.44-2.93,7.07c0,2.64,1.07,5.21,2.93,7.07  s4.44,2.93,7.07,2.93s5.21-1.07,7.07-2.93s2.93-4.43,2.93-7.07c0-2.63-1.07-5.21-2.93-7.07S402.672,422.67,400.042,422.67z"
   id="path1042" />
<path
   d="M200.132,238c2.63,0,5.21-1.07,7.07-2.93c1.86-1.86,2.93-4.44,2.93-7.07s-1.07-5.21-2.93-7.07  c-1.86-1.86-4.44-2.93-7.07-2.93s-5.21,1.07-7.07,2.93c-1.86,1.86-2.93,4.44-2.93,7.07s1.07,5.21,2.93,7.07  C194.922,236.93,197.502,238,200.132,238z"
   id="path1044" />
<g
   id="g1046">
</g>
<g
   id="g1048">
</g>
<g
   id="g1050">
</g>
<g
   id="g1052">
</g>
<g
   id="g1054">
</g>
<g
   id="g1056">
</g>
<g
   id="g1058">
</g>
<g
   id="g1060">
</g>
<g
   id="g1062">
</g>
<g
   id="g1064">
</g>
<g
   id="g1066">
</g>
<g
   id="g1068">
</g>
<g
   id="g1070">
</g>
<g
   id="g1072">
</g>
<g
   id="g1074">
</g>
</svg>
